<?xml version="1.0" encoding="utf-8" standalone="no"?>
<!DOCTYPE svg PUBLIC "-//W3C//DTD SVG 1.1//EN"
  "http://www.w3.org/Graphics/SVG/1.1/DTD/svg11.dtd">
<svg xmlns:xlink="http://www.w3.org/1999/xlink" width="271.51383pt" height="176.855697pt" viewBox="0 0 271.51383 176.855697" xmlns="http://www.w3.org/2000/svg" version="1.1">
 <metadata>
  <rdf:RDF xmlns:dc="http://purl.org/dc/elements/1.1/" xmlns:cc="http://creativecommons.org/ns#" xmlns:rdf="http://www.w3.org/1999/02/22-rdf-syntax-ns#">
   <cc:Work>
    <dc:type rdf:resource="http://purl.org/dc/dcmitype/StillImage"/>
    <dc:date>2025-02-12T17:08:00.624438</dc:date>
    <dc:format>image/svg+xml</dc:format>
    <dc:creator>
     <cc:Agent>
      <dc:title>Matplotlib v3.6.2, https://matplotlib.org/</dc:title>
     </cc:Agent>
    </dc:creator>
   </cc:Work>
  </rdf:RDF>
 </metadata>
 <defs>
  <style type="text/css">*{stroke-linejoin: round; stroke-linecap: butt}</style>
 </defs>
 <g id="figure_1">
  <g id="patch_1">
   <path d="M -0 176.855697 
L 271.51383 176.855697 
L 271.51383 0 
L -0 0 
z
" style="fill: #ffffff"/>
  </g>
  <g id="axes_1">
   <g id="patch_2">
    <path d="M 35.58575 146.747947 
L 158.323451 146.747947 
L 158.323451 12.07875 
L 35.58575 12.07875 
z
" style="fill: #ffffff"/>
   </g>
   <g id="matplotlib.axis_1">
    <g id="xtick_1">
     <g id="line2d_1">
      <path d="M 43.87184 146.747947 
L 43.87184 12.07875 
" clip-path="url(#pf2814bfb6b)" style="fill: none; stroke: #b0b0b0; stroke-width: 0.6; stroke-linecap: square"/>
     </g>
     <g id="line2d_2">
      <defs>
       <path id="me739ccc476" d="M 0 0 
L 0 4.8 
" style="stroke: #000000"/>
      </defs>
      <g>
       <use xlink:href="#me739ccc476" x="43.87184" y="146.747947" style="stroke: #000000"/>
      </g>
     </g>
     <g id="text_1">
      <text style="font: 8.8px 'DejaVu Sans', 'Bitstream Vera Sans', 'Computer Modern Sans Serif', 'Lucida Grande', 'Verdana', 'Geneva', 'Lucid', 'Arial', 'Helvetica', 'Avant Garde', sans-serif; text-anchor: middle" x="43.87184" y="161.734572" transform="rotate(-0 43.87184 161.734572)">1000</text>
     </g>
    </g>
    <g id="xtick_2">
     <g id="line2d_3">
      <path d="M 69.765869 146.747947 
L 69.765869 12.07875 
" clip-path="url(#pf2814bfb6b)" style="fill: none; stroke: #b0b0b0; stroke-width: 0.6; stroke-linecap: square"/>
     </g>
     <g id="line2d_4">
      <g>
       <use xlink:href="#me739ccc476" x="69.765869" y="146.747947" style="stroke: #000000"/>
      </g>
     </g>
     <g id="text_2">
      <text style="font: 8.8px 'DejaVu Sans', 'Bitstream Vera Sans', 'Computer Modern Sans Serif', 'Lucida Grande', 'Verdana', 'Geneva', 'Lucid', 'Arial', 'Helvetica', 'Avant Garde', sans-serif; text-anchor: middle" x="69.765869" y="161.734572" transform="rotate(-0 69.765869 161.734572)">1500</text>
     </g>
    </g>
    <g id="xtick_3">
     <g id="line2d_5">
      <path d="M 95.659899 146.747947 
L 95.659899 12.07875 
" clip-path="url(#pf2814bfb6b)" style="fill: none; stroke: #b0b0b0; stroke-width: 0.6; stroke-linecap: square"/>
     </g>
     <g id="line2d_6">
      <g>
       <use xlink:href="#me739ccc476" x="95.659899" y="146.747947" style="stroke: #000000"/>
      </g>
     </g>
     <g id="text_3">
      <text style="font: 8.8px 'DejaVu Sans', 'Bitstream Vera Sans', 'Computer Modern Sans Serif', 'Lucida Grande', 'Verdana', 'Geneva', 'Lucid', 'Arial', 'Helvetica', 'Avant Garde', sans-serif; text-anchor: middle" x="95.659899" y="161.734572" transform="rotate(-0 95.659899 161.734572)">2000</text>
     </g>
    </g>
    <g id="xtick_4">
     <g id="line2d_7">
      <path d="M 121.553929 146.747947 
L 121.553929 12.07875 
" clip-path="url(#pf2814bfb6b)" style="fill: none; stroke: #b0b0b0; stroke-width: 0.6; stroke-linecap: square"/>
     </g>
     <g id="line2d_8">
      <g>
       <use xlink:href="#me739ccc476" x="121.553929" y="146.747947" style="stroke: #000000"/>
      </g>
     </g>
     <g id="text_4">
      <text style="font: 8.8px 'DejaVu Sans', 'Bitstream Vera Sans', 'Computer Modern Sans Serif', 'Lucida Grande', 'Verdana', 'Geneva', 'Lucid', 'Arial', 'Helvetica', 'Avant Garde', sans-serif; text-anchor: middle" x="121.553929" y="161.734572" transform="rotate(-0 121.553929 161.734572)">2500</text>
     </g>
    </g>
    <g id="xtick_5">
     <g id="line2d_9">
      <path d="M 147.447958 146.747947 
L 147.447958 12.07875 
" clip-path="url(#pf2814bfb6b)" style="fill: none; stroke: #b0b0b0; stroke-width: 0.6; stroke-linecap: square"/>
     </g>
     <g id="line2d_10">
      <g>
       <use xlink:href="#me739ccc476" x="147.447958" y="146.747947" style="stroke: #000000"/>
      </g>
     </g>
     <g id="text_5">
      <text style="font: 8.8px 'DejaVu Sans', 'Bitstream Vera Sans', 'Computer Modern Sans Serif', 'Lucida Grande', 'Verdana', 'Geneva', 'Lucid', 'Arial', 'Helvetica', 'Avant Garde', sans-serif; text-anchor: middle" x="147.447958" y="161.734572" transform="rotate(-0 147.447958 161.734572)">3000</text>
     </g>
    </g>
    <g id="xtick_6">
     <g id="line2d_11">
      <path d="M 38.693034 146.747947 
L 38.693034 12.07875 
" clip-path="url(#pf2814bfb6b)" style="fill: none; stroke: #b0b0b0; stroke-width: 0.3; stroke-linecap: square"/>
     </g>
     <g id="line2d_12">
      <defs>
       <path id="m5870a4f668" d="M 0 0 
L 0 3.2 
" style="stroke: #000000; stroke-width: 0.8"/>
      </defs>
      <g>
       <use xlink:href="#m5870a4f668" x="38.693034" y="146.747947" style="stroke: #000000; stroke-width: 0.8"/>
      </g>
     </g>
    </g>
    <g id="xtick_7">
     <g id="line2d_13">
      <path d="M 49.050645 146.747947 
L 49.050645 12.07875 
" clip-path="url(#pf2814bfb6b)" style="fill: none; stroke: #b0b0b0; stroke-width: 0.3; stroke-linecap: square"/>
     </g>
     <g id="line2d_14">
      <g>
       <use xlink:href="#m5870a4f668" x="49.050645" y="146.747947" style="stroke: #000000; stroke-width: 0.8"/>
      </g>
     </g>
    </g>
    <g id="xtick_8">
     <g id="line2d_15">
      <path d="M 54.229451 146.747947 
L 54.229451 12.07875 
" clip-path="url(#pf2814bfb6b)" style="fill: none; stroke: #b0b0b0; stroke-width: 0.3; stroke-linecap: square"/>
     </g>
     <g id="line2d_16">
      <g>
       <use xlink:href="#m5870a4f668" x="54.229451" y="146.747947" style="stroke: #000000; stroke-width: 0.8"/>
      </g>
     </g>
    </g>
    <g id="xtick_9">
     <g id="line2d_17">
      <path d="M 59.408257 146.747947 
L 59.408257 12.07875 
" clip-path="url(#pf2814bfb6b)" style="fill: none; stroke: #b0b0b0; stroke-width: 0.3; stroke-linecap: square"/>
     </g>
     <g id="line2d_18">
      <g>
       <use xlink:href="#m5870a4f668" x="59.408257" y="146.747947" style="stroke: #000000; stroke-width: 0.8"/>
      </g>
     </g>
    </g>
    <g id="xtick_10">
     <g id="line2d_19">
      <path d="M 64.587063 146.747947 
L 64.587063 12.07875 
" clip-path="url(#pf2814bfb6b)" style="fill: none; stroke: #b0b0b0; stroke-width: 0.3; stroke-linecap: square"/>
     </g>
     <g id="line2d_20">
      <g>
       <use xlink:href="#m5870a4f668" x="64.587063" y="146.747947" style="stroke: #000000; stroke-width: 0.8"/>
      </g>
     </g>
    </g>
    <g id="xtick_11">
     <g id="line2d_21">
      <path d="M 74.944675 146.747947 
L 74.944675 12.07875 
" clip-path="url(#pf2814bfb6b)" style="fill: none; stroke: #b0b0b0; stroke-width: 0.3; stroke-linecap: square"/>
     </g>
     <g id="line2d_22">
      <g>
       <use xlink:href="#m5870a4f668" x="74.944675" y="146.747947" style="stroke: #000000; stroke-width: 0.8"/>
      </g>
     </g>
    </g>
    <g id="xtick_12">
     <g id="line2d_23">
      <path d="M 80.123481 146.747947 
L 80.123481 12.07875 
" clip-path="url(#pf2814bfb6b)" style="fill: none; stroke: #b0b0b0; stroke-width: 0.3; stroke-linecap: square"/>
     </g>
     <g id="line2d_24">
      <g>
       <use xlink:href="#m5870a4f668" x="80.123481" y="146.747947" style="stroke: #000000; stroke-width: 0.8"/>
      </g>
     </g>
    </g>
    <g id="xtick_13">
     <g id="line2d_25">
      <path d="M 85.302287 146.747947 
L 85.302287 12.07875 
" clip-path="url(#pf2814bfb6b)" style="fill: none; stroke: #b0b0b0; stroke-width: 0.3; stroke-linecap: square"/>
     </g>
     <g id="line2d_26">
      <g>
       <use xlink:href="#m5870a4f668" x="85.302287" y="146.747947" style="stroke: #000000; stroke-width: 0.8"/>
      </g>
     </g>
    </g>
    <g id="xtick_14">
     <g id="line2d_27">
      <path d="M 90.481093 146.747947 
L 90.481093 12.07875 
" clip-path="url(#pf2814bfb6b)" style="fill: none; stroke: #b0b0b0; stroke-width: 0.3; stroke-linecap: square"/>
     </g>
     <g id="line2d_28">
      <g>
       <use xlink:href="#m5870a4f668" x="90.481093" y="146.747947" style="stroke: #000000; stroke-width: 0.8"/>
      </g>
     </g>
    </g>
    <g id="xtick_15">
     <g id="line2d_29">
      <path d="M 100.838705 146.747947 
L 100.838705 12.07875 
" clip-path="url(#pf2814bfb6b)" style="fill: none; stroke: #b0b0b0; stroke-width: 0.3; stroke-linecap: square"/>
     </g>
     <g id="line2d_30">
      <g>
       <use xlink:href="#m5870a4f668" x="100.838705" y="146.747947" style="stroke: #000000; stroke-width: 0.8"/>
      </g>
     </g>
    </g>
    <g id="xtick_16">
     <g id="line2d_31">
      <path d="M 106.017511 146.747947 
L 106.017511 12.07875 
" clip-path="url(#pf2814bfb6b)" style="fill: none; stroke: #b0b0b0; stroke-width: 0.3; stroke-linecap: square"/>
     </g>
     <g id="line2d_32">
      <g>
       <use xlink:href="#m5870a4f668" x="106.017511" y="146.747947" style="stroke: #000000; stroke-width: 0.8"/>
      </g>
     </g>
    </g>
    <g id="xtick_17">
     <g id="line2d_33">
      <path d="M 111.196317 146.747947 
L 111.196317 12.07875 
" clip-path="url(#pf2814bfb6b)" style="fill: none; stroke: #b0b0b0; stroke-width: 0.3; stroke-linecap: square"/>
     </g>
     <g id="line2d_34">
      <g>
       <use xlink:href="#m5870a4f668" x="111.196317" y="146.747947" style="stroke: #000000; stroke-width: 0.8"/>
      </g>
     </g>
    </g>
    <g id="xtick_18">
     <g id="line2d_35">
      <path d="M 116.375123 146.747947 
L 116.375123 12.07875 
" clip-path="url(#pf2814bfb6b)" style="fill: none; stroke: #b0b0b0; stroke-width: 0.3; stroke-linecap: square"/>
     </g>
     <g id="line2d_36">
      <g>
       <use xlink:href="#m5870a4f668" x="116.375123" y="146.747947" style="stroke: #000000; stroke-width: 0.8"/>
      </g>
     </g>
    </g>
    <g id="xtick_19">
     <g id="line2d_37">
      <path d="M 126.732735 146.747947 
L 126.732735 12.07875 
" clip-path="url(#pf2814bfb6b)" style="fill: none; stroke: #b0b0b0; stroke-width: 0.3; stroke-linecap: square"/>
     </g>
     <g id="line2d_38">
      <g>
       <use xlink:href="#m5870a4f668" x="126.732735" y="146.747947" style="stroke: #000000; stroke-width: 0.8"/>
      </g>
     </g>
    </g>
    <g id="xtick_20">
     <g id="line2d_39">
      <path d="M 131.91154 146.747947 
L 131.91154 12.07875 
" clip-path="url(#pf2814bfb6b)" style="fill: none; stroke: #b0b0b0; stroke-width: 0.3; stroke-linecap: square"/>
     </g>
     <g id="line2d_40">
      <g>
       <use xlink:href="#m5870a4f668" x="131.91154" y="146.747947" style="stroke: #000000; stroke-width: 0.8"/>
      </g>
     </g>
    </g>
    <g id="xtick_21">
     <g id="line2d_41">
      <path d="M 137.090346 146.747947 
L 137.090346 12.07875 
" clip-path="url(#pf2814bfb6b)" style="fill: none; stroke: #b0b0b0; stroke-width: 0.3; stroke-linecap: square"/>
     </g>
     <g id="line2d_42">
      <g>
       <use xlink:href="#m5870a4f668" x="137.090346" y="146.747947" style="stroke: #000000; stroke-width: 0.8"/>
      </g>
     </g>
    </g>
    <g id="xtick_22">
     <g id="line2d_43">
      <path d="M 142.269152 146.747947 
L 142.269152 12.07875 
" clip-path="url(#pf2814bfb6b)" style="fill: none; stroke: #b0b0b0; stroke-width: 0.3; stroke-linecap: square"/>
     </g>
     <g id="line2d_44">
      <g>
       <use xlink:href="#m5870a4f668" x="142.269152" y="146.747947" style="stroke: #000000; stroke-width: 0.8"/>
      </g>
     </g>
    </g>
    <g id="xtick_23">
     <g id="line2d_45">
      <path d="M 152.626764 146.747947 
L 152.626764 12.07875 
" clip-path="url(#pf2814bfb6b)" style="fill: none; stroke: #b0b0b0; stroke-width: 0.3; stroke-linecap: square"/>
     </g>
     <g id="line2d_46">
      <g>
       <use xlink:href="#m5870a4f668" x="152.626764" y="146.747947" style="stroke: #000000; stroke-width: 0.8"/>
      </g>
     </g>
    </g>
    <g id="xtick_24">
     <g id="line2d_47">
      <path d="M 157.80557 146.747947 
L 157.80557 12.07875 
" clip-path="url(#pf2814bfb6b)" style="fill: none; stroke: #b0b0b0; stroke-width: 0.3; stroke-linecap: square"/>
     </g>
     <g id="line2d_48">
      <g>
       <use xlink:href="#m5870a4f668" x="157.80557" y="146.747947" style="stroke: #000000; stroke-width: 0.8"/>
      </g>
     </g>
    </g>
    <g id="text_6">
     <text style="font: 9.6px 'DejaVu Sans', 'Bitstream Vera Sans', 'Computer Modern Sans Serif', 'Lucida Grande', 'Verdana', 'Geneva', 'Lucid', 'Arial', 'Helvetica', 'Avant Garde', sans-serif; text-anchor: middle" x="96.9546" y="174.859197" transform="rotate(-0 96.9546 174.859197)">Wavelength (nm)</text>
    </g>
   </g>
   <g id="matplotlib.axis_2">
    <g id="ytick_1">
     <g id="line2d_49">
      <path d="M 35.58575 132.725891 
L 158.323451 132.725891 
" clip-path="url(#pf2814bfb6b)" style="fill: none; stroke: #b0b0b0; stroke-width: 0.6; stroke-linecap: square"/>
     </g>
     <g id="line2d_50">
      <defs>
       <path id="me4ee248967" d="M 0 0 
L -4.8 0 
" style="stroke: #000000"/>
      </defs>
      <g>
       <use xlink:href="#me4ee248967" x="35.58575" y="132.725891" style="stroke: #000000"/>
      </g>
     </g>
     <g id="text_7">
      <text style="font: 8.8px 'DejaVu Sans', 'Bitstream Vera Sans', 'Computer Modern Sans Serif', 'Lucida Grande', 'Verdana', 'Geneva', 'Lucid', 'Arial', 'Helvetica', 'Avant Garde', sans-serif; text-anchor: end" x="27.28575" y="136.069203" transform="rotate(-0 27.28575 136.069203)">0.2</text>
     </g>
    </g>
    <g id="ytick_2">
     <g id="line2d_51">
      <path d="M 35.58575 104.094437 
L 158.323451 104.094437 
" clip-path="url(#pf2814bfb6b)" style="fill: none; stroke: #b0b0b0; stroke-width: 0.6; stroke-linecap: square"/>
     </g>
     <g id="line2d_52">
      <g>
       <use xlink:href="#me4ee248967" x="35.58575" y="104.094437" style="stroke: #000000"/>
      </g>
     </g>
     <g id="text_8">
      <text style="font: 8.8px 'DejaVu Sans', 'Bitstream Vera Sans', 'Computer Modern Sans Serif', 'Lucida Grande', 'Verdana', 'Geneva', 'Lucid', 'Arial', 'Helvetica', 'Avant Garde', sans-serif; text-anchor: end" x="27.28575" y="107.43775" transform="rotate(-0 27.28575 107.43775)">0.4</text>
     </g>
    </g>
    <g id="ytick_3">
     <g id="line2d_53">
      <path d="M 35.58575 75.462984 
L 158.323451 75.462984 
" clip-path="url(#pf2814bfb6b)" style="fill: none; stroke: #b0b0b0; stroke-width: 0.6; stroke-linecap: square"/>
     </g>
     <g id="line2d_54">
      <g>
       <use xlink:href="#me4ee248967" x="35.58575" y="75.462984" style="stroke: #000000"/>
      </g>
     </g>
     <g id="text_9">
      <text style="font: 8.8px 'DejaVu Sans', 'Bitstream Vera Sans', 'Computer Modern Sans Serif', 'Lucida Grande', 'Verdana', 'Geneva', 'Lucid', 'Arial', 'Helvetica', 'Avant Garde', sans-serif; text-anchor: end" x="27.28575" y="78.806296" transform="rotate(-0 27.28575 78.806296)">0.6</text>
     </g>
    </g>
    <g id="ytick_4">
     <g id="line2d_55">
      <path d="M 35.58575 46.83153 
L 158.323451 46.83153 
" clip-path="url(#pf2814bfb6b)" style="fill: none; stroke: #b0b0b0; stroke-width: 0.6; stroke-linecap: square"/>
     </g>
     <g id="line2d_56">
      <g>
       <use xlink:href="#me4ee248967" x="35.58575" y="46.83153" style="stroke: #000000"/>
      </g>
     </g>
     <g id="text_10">
      <text style="font: 8.8px 'DejaVu Sans', 'Bitstream Vera Sans', 'Computer Modern Sans Serif', 'Lucida Grande', 'Verdana', 'Geneva', 'Lucid', 'Arial', 'Helvetica', 'Avant Garde', sans-serif; text-anchor: end" x="27.28575" y="50.174843" transform="rotate(-0 27.28575 50.174843)">0.8</text>
     </g>
    </g>
    <g id="ytick_5">
     <g id="line2d_57">
      <path d="M 35.58575 18.200077 
L 158.323451 18.200077 
" clip-path="url(#pf2814bfb6b)" style="fill: none; stroke: #b0b0b0; stroke-width: 0.6; stroke-linecap: square"/>
     </g>
     <g id="line2d_58">
      <g>
       <use xlink:href="#me4ee248967" x="35.58575" y="18.200077" style="stroke: #000000"/>
      </g>
     </g>
     <g id="text_11">
      <text style="font: 8.8px 'DejaVu Sans', 'Bitstream Vera Sans', 'Computer Modern Sans Serif', 'Lucida Grande', 'Verdana', 'Geneva', 'Lucid', 'Arial', 'Helvetica', 'Avant Garde', sans-serif; text-anchor: end" x="27.28575" y="21.54339" transform="rotate(-0 27.28575 21.54339)">1.0</text>
     </g>
    </g>
    <g id="text_12">
     <text style="font: 9.6px 'DejaVu Sans', 'Bitstream Vera Sans', 'Computer Modern Sans Serif', 'Lucida Grande', 'Verdana', 'Geneva', 'Lucid', 'Arial', 'Helvetica', 'Avant Garde', sans-serif; text-anchor: middle" x="7.2945" y="79.413348" transform="rotate(-90 7.2945 79.413348)">Reflectance</text>
    </g>
   </g>
   <g id="line2d_59">
    <path d="M 38.693034 18.200077 
L 39.869976 18.444957 
L 40.590358 18.776263 
L 41.321601 19.296555 
L 41.81521 20.044751 
L 42.564918 21.257809 
L 42.817324 21.524761 
L 43.070991 21.597943 
L 43.582138 21.452769 
L 44.098409 21.201961 
L 44.882536 20.397701 
L 46.486431 18.696723 
L 47.306558 18.287475 
L 48.139048 18.200077 
L 50.130658 18.2933 
L 50.712578 18.591933 
L 51.005722 18.867486 
L 51.300331 19.313318 
L 51.893977 20.796656 
L 52.795624 23.188165 
L 53.099183 23.572084 
L 53.710862 23.798825 
L 54.328674 23.783416 
L 55.900435 23.218269 
L 57.186373 22.310535 
L 58.498223 21.504289 
L 59.164027 21.283124 
L 59.836507 21.262976 
L 60.515728 21.450671 
L 61.547348 22.007286 
L 62.59452 22.839092 
L 63.30139 23.718445 
L 63.657478 24.421784 
L 64.015347 25.401259 
L 64.736461 28.542885 
L 65.831709 34.692912 
L 66.200449 36.063766 
L 66.571032 36.775099 
L 66.943468 36.824586 
L 67.317767 36.429711 
L 68.071987 35.127048 
L 68.833769 33.370528 
L 70.771803 28.154728 
L 71.958034 25.911717 
L 73.162149 24.155995 
L 74.795918 22.215238 
L 76.462609 20.535996 
L 77.734631 19.51186 
L 78.593281 19.079316 
L 79.460538 18.925715 
L 81.221224 18.934074 
L 82.564982 18.758928 
L 84.388223 18.288616 
L 85.779724 18.200077 
L 86.248204 18.2572 
L 86.719026 18.433896 
L 87.192203 18.808524 
L 87.667745 19.491925 
L 88.145664 20.645606 
L 88.625974 22.482089 
L 89.108685 25.281591 
L 89.593809 29.32142 
L 90.08136 34.822813 
L 91.558685 55.866434 
L 92.05606 59.819868 
L 92.555921 61.023012 
L 93.058282 60.082254 
L 93.563154 57.984587 
L 94.580485 52.550217 
L 96.645845 41.147508 
L 97.69408 36.700093 
L 98.752823 33.077244 
L 99.82218 29.998186 
L 100.902258 27.340356 
L 101.993163 25.06689 
L 103.650061 22.215769 
L 105.331936 19.796221 
L 106.467249 18.639351 
L 107.039166 18.309646 
L 108.191594 18.200077 
L 109.941934 18.200077 
L 110.531225 18.578411 
L 111.123462 19.404574 
L 111.71866 20.772301 
L 112.316835 22.798305 
L 112.918 25.551065 
L 114.129363 32.74481 
L 115.35287 39.875356 
L 115.969215 42.586892 
L 116.588643 44.414552 
L 117.211167 45.270585 
L 117.836804 45.279349 
L 118.465569 44.71308 
L 120.37079 42.411211 
L 121.012225 41.942538 
L 122.955838 40.984064 
L 123.610198 40.338598 
L 124.26783 39.379036 
L 126.260521 35.859561 
L 126.931405 35.162978 
L 127.605643 35.17948 
L 128.283252 36.199854 
L 128.96425 38.494104 
L 129.648652 42.324026 
L 130.336476 47.968421 
L 131.02774 55.773677 
L 131.72246 65.915113 
L 133.122337 91.35225 
L 134.536249 117.501188 
L 135.248511 126.825369 
L 135.964335 132.948023 
L 136.683738 136.633945 
L 137.406738 138.793598 
L 138.133352 139.971451 
L 138.8636 140.515674 
L 139.597499 140.62662 
L 140.335068 140.351045 
L 141.076324 139.76751 
L 141.821287 138.875221 
L 142.569975 137.626862 
L 143.322406 135.869305 
L 144.078599 133.61705 
L 144.838573 130.909811 
L 145.602347 127.506599 
L 146.36994 123.300578 
L 147.14137 118.240688 
L 147.916658 112.08964 
L 148.695823 104.561642 
L 149.478883 95.535059 
L 150.265858 84.222368 
L 151.056769 69.506194 
L 151.851634 48.793999 
L 152.650473 18.200077 
L 152.650473 18.200077 
" clip-path="url(#pf2814bfb6b)" style="fill: none; stroke: #1f77b4; stroke-width: 0.5; stroke-linecap: square"/>
   </g>
   <g id="line2d_60"/>
   <g id="patch_3">
    <path d="M 35.58575 146.747947 
L 35.58575 12.07875 
" style="fill: none; stroke: #000000; stroke-linejoin: miter; stroke-linecap: square"/>
   </g>
   <g id="patch_4">
    <path d="M 158.323451 146.747947 
L 158.323451 12.07875 
" style="fill: none; stroke: #000000; stroke-linejoin: miter; stroke-linecap: square"/>
   </g>
   <g id="patch_5">
    <path d="M 35.58575 146.747947 
L 158.323451 146.747947 
" style="fill: none; stroke: #000000; stroke-linejoin: miter; stroke-linecap: square"/>
   </g>
   <g id="patch_6">
    <path d="M 35.58575 12.07875 
L 158.323451 12.07875 
" style="fill: none; stroke: #000000; stroke-linejoin: miter; stroke-linecap: square"/>
   </g>
   <g id="text_13">
    <text style="font: 8px 'DejaVu Sans', 'Bitstream Vera Sans', 'Computer Modern Sans Serif', 'Lucida Grande', 'Verdana', 'Geneva', 'Lucid', 'Arial', 'Helvetica', 'Avant Garde', sans-serif; text-anchor: middle" x="96.9546" y="6.07875" transform="rotate(-0 96.9546 6.07875)">Laboratory Sulfates Magnesium-sulfate</text>
   </g>
   <g id="legend_1">
    <g id="patch_7">
     <path d="M 164.978205 84.716786 
L 270.31383 84.716786 
Q 271.51383 84.716786 271.51383 83.516786 
L 271.51383 75.309911 
Q 271.51383 74.109911 270.31383 74.109911 
L 164.978205 74.109911 
Q 163.778205 74.109911 163.778205 75.309911 
L 163.778205 83.516786 
Q 163.778205 84.716786 164.978205 84.716786 
z
" style="fill: #ffffff; opacity: 0.8; stroke: #cccccc; stroke-width: 0.8; stroke-linejoin: miter"/>
    </g>
    <g id="line2d_61">
     <path d="M 166.178205 78.968973 
L 172.178205 78.968973 
L 178.178205 78.968973 
" style="fill: none; stroke: #1f77b4; stroke-width: 1.2; stroke-linecap: square"/>
    </g>
    <g id="text_14">
     <text style="font: 6px 'DejaVu Sans', 'Bitstream Vera Sans', 'Computer Modern Sans Serif', 'Lucida Grande', 'Verdana', 'Geneva', 'Lucid', 'Arial', 'Helvetica', 'Avant Garde', sans-serif; text-anchor: start" x="182.978205" y="81.068973" transform="rotate(-0 182.978205 81.068973)">Magnesium-Sulfate 799F366</text>
    </g>
   </g>
  </g>
 </g>
 <defs>
  <clipPath id="pf2814bfb6b">
   <rect x="35.58575" y="12.07875" width="122.737701" height="134.669197"/>
  </clipPath>
 </defs>
</svg>
