<?xml version="1.0" encoding="utf-8" standalone="no"?>
<!DOCTYPE svg PUBLIC "-//W3C//DTD SVG 1.1//EN"
  "http://www.w3.org/Graphics/SVG/1.1/DTD/svg11.dtd">
<svg xmlns:xlink="http://www.w3.org/1999/xlink" width="272.32173pt" height="176.855697pt" viewBox="0 0 272.32173 176.855697" xmlns="http://www.w3.org/2000/svg" version="1.1">
 <metadata>
  <rdf:RDF xmlns:dc="http://purl.org/dc/elements/1.1/" xmlns:cc="http://creativecommons.org/ns#" xmlns:rdf="http://www.w3.org/1999/02/22-rdf-syntax-ns#">
   <cc:Work>
    <dc:type rdf:resource="http://purl.org/dc/dcmitype/StillImage"/>
    <dc:date>2025-02-12T17:08:00.523355</dc:date>
    <dc:format>image/svg+xml</dc:format>
    <dc:creator>
     <cc:Agent>
      <dc:title>Matplotlib v3.6.2, https://matplotlib.org/</dc:title>
     </cc:Agent>
    </dc:creator>
   </cc:Work>
  </rdf:RDF>
 </metadata>
 <defs>
  <style type="text/css">*{stroke-linejoin: round; stroke-linecap: butt}</style>
 </defs>
 <g id="figure_1">
  <g id="patch_1">
   <path d="M -0 176.855697 
L 272.32173 176.855697 
L 272.32173 0 
L -0 0 
z
" style="fill: #ffffff"/>
  </g>
  <g id="axes_1">
   <g id="patch_2">
    <path d="M 35.58575 146.747947 
L 193.093451 146.747947 
L 193.093451 12.07875 
L 35.58575 12.07875 
z
" style="fill: #ffffff"/>
   </g>
   <g id="matplotlib.axis_1">
    <g id="xtick_1">
     <g id="line2d_1">
      <path d="M 46.219181 146.747947 
L 46.219181 12.07875 
" clip-path="url(#padcd87bbf7)" style="fill: none; stroke: #b0b0b0; stroke-width: 0.6; stroke-linecap: square"/>
     </g>
     <g id="line2d_2">
      <defs>
       <path id="mfd94096d13" d="M 0 0 
L 0 4.8 
" style="stroke: #000000"/>
      </defs>
      <g>
       <use xlink:href="#mfd94096d13" x="46.219181" y="146.747947" style="stroke: #000000"/>
      </g>
     </g>
     <g id="text_1">
      <text style="font: 8.8px 'DejaVu Sans', 'Bitstream Vera Sans', 'Computer Modern Sans Serif', 'Lucida Grande', 'Verdana', 'Geneva', 'Lucid', 'Arial', 'Helvetica', 'Avant Garde', sans-serif; text-anchor: middle" x="46.219181" y="161.734572" transform="rotate(-0 46.219181 161.734572)">1000</text>
     </g>
    </g>
    <g id="xtick_2">
     <g id="line2d_3">
      <path d="M 79.448654 146.747947 
L 79.448654 12.07875 
" clip-path="url(#padcd87bbf7)" style="fill: none; stroke: #b0b0b0; stroke-width: 0.6; stroke-linecap: square"/>
     </g>
     <g id="line2d_4">
      <g>
       <use xlink:href="#mfd94096d13" x="79.448654" y="146.747947" style="stroke: #000000"/>
      </g>
     </g>
     <g id="text_2">
      <text style="font: 8.8px 'DejaVu Sans', 'Bitstream Vera Sans', 'Computer Modern Sans Serif', 'Lucida Grande', 'Verdana', 'Geneva', 'Lucid', 'Arial', 'Helvetica', 'Avant Garde', sans-serif; text-anchor: middle" x="79.448654" y="161.734572" transform="rotate(-0 79.448654 161.734572)">1500</text>
     </g>
    </g>
    <g id="xtick_3">
     <g id="line2d_5">
      <path d="M 112.678127 146.747947 
L 112.678127 12.07875 
" clip-path="url(#padcd87bbf7)" style="fill: none; stroke: #b0b0b0; stroke-width: 0.6; stroke-linecap: square"/>
     </g>
     <g id="line2d_6">
      <g>
       <use xlink:href="#mfd94096d13" x="112.678127" y="146.747947" style="stroke: #000000"/>
      </g>
     </g>
     <g id="text_3">
      <text style="font: 8.8px 'DejaVu Sans', 'Bitstream Vera Sans', 'Computer Modern Sans Serif', 'Lucida Grande', 'Verdana', 'Geneva', 'Lucid', 'Arial', 'Helvetica', 'Avant Garde', sans-serif; text-anchor: middle" x="112.678127" y="161.734572" transform="rotate(-0 112.678127 161.734572)">2000</text>
     </g>
    </g>
    <g id="xtick_4">
     <g id="line2d_7">
      <path d="M 145.907599 146.747947 
L 145.907599 12.07875 
" clip-path="url(#padcd87bbf7)" style="fill: none; stroke: #b0b0b0; stroke-width: 0.6; stroke-linecap: square"/>
     </g>
     <g id="line2d_8">
      <g>
       <use xlink:href="#mfd94096d13" x="145.907599" y="146.747947" style="stroke: #000000"/>
      </g>
     </g>
     <g id="text_4">
      <text style="font: 8.8px 'DejaVu Sans', 'Bitstream Vera Sans', 'Computer Modern Sans Serif', 'Lucida Grande', 'Verdana', 'Geneva', 'Lucid', 'Arial', 'Helvetica', 'Avant Garde', sans-serif; text-anchor: middle" x="145.907599" y="161.734572" transform="rotate(-0 145.907599 161.734572)">2500</text>
     </g>
    </g>
    <g id="xtick_5">
     <g id="line2d_9">
      <path d="M 179.137072 146.747947 
L 179.137072 12.07875 
" clip-path="url(#padcd87bbf7)" style="fill: none; stroke: #b0b0b0; stroke-width: 0.6; stroke-linecap: square"/>
     </g>
     <g id="line2d_10">
      <g>
       <use xlink:href="#mfd94096d13" x="179.137072" y="146.747947" style="stroke: #000000"/>
      </g>
     </g>
     <g id="text_5">
      <text style="font: 8.8px 'DejaVu Sans', 'Bitstream Vera Sans', 'Computer Modern Sans Serif', 'Lucida Grande', 'Verdana', 'Geneva', 'Lucid', 'Arial', 'Helvetica', 'Avant Garde', sans-serif; text-anchor: middle" x="179.137072" y="161.734572" transform="rotate(-0 179.137072 161.734572)">3000</text>
     </g>
    </g>
    <g id="xtick_6">
     <g id="line2d_11">
      <path d="M 39.573287 146.747947 
L 39.573287 12.07875 
" clip-path="url(#padcd87bbf7)" style="fill: none; stroke: #b0b0b0; stroke-width: 0.3; stroke-linecap: square"/>
     </g>
     <g id="line2d_12">
      <defs>
       <path id="m6360bfb1c0" d="M 0 0 
L 0 3.2 
" style="stroke: #000000; stroke-width: 0.8"/>
      </defs>
      <g>
       <use xlink:href="#m6360bfb1c0" x="39.573287" y="146.747947" style="stroke: #000000; stroke-width: 0.8"/>
      </g>
     </g>
    </g>
    <g id="xtick_7">
     <g id="line2d_13">
      <path d="M 52.865076 146.747947 
L 52.865076 12.07875 
" clip-path="url(#padcd87bbf7)" style="fill: none; stroke: #b0b0b0; stroke-width: 0.3; stroke-linecap: square"/>
     </g>
     <g id="line2d_14">
      <g>
       <use xlink:href="#m6360bfb1c0" x="52.865076" y="146.747947" style="stroke: #000000; stroke-width: 0.8"/>
      </g>
     </g>
    </g>
    <g id="xtick_8">
     <g id="line2d_15">
      <path d="M 59.51097 146.747947 
L 59.51097 12.07875 
" clip-path="url(#padcd87bbf7)" style="fill: none; stroke: #b0b0b0; stroke-width: 0.3; stroke-linecap: square"/>
     </g>
     <g id="line2d_16">
      <g>
       <use xlink:href="#m6360bfb1c0" x="59.51097" y="146.747947" style="stroke: #000000; stroke-width: 0.8"/>
      </g>
     </g>
    </g>
    <g id="xtick_9">
     <g id="line2d_17">
      <path d="M 66.156865 146.747947 
L 66.156865 12.07875 
" clip-path="url(#padcd87bbf7)" style="fill: none; stroke: #b0b0b0; stroke-width: 0.3; stroke-linecap: square"/>
     </g>
     <g id="line2d_18">
      <g>
       <use xlink:href="#m6360bfb1c0" x="66.156865" y="146.747947" style="stroke: #000000; stroke-width: 0.8"/>
      </g>
     </g>
    </g>
    <g id="xtick_10">
     <g id="line2d_19">
      <path d="M 72.802759 146.747947 
L 72.802759 12.07875 
" clip-path="url(#padcd87bbf7)" style="fill: none; stroke: #b0b0b0; stroke-width: 0.3; stroke-linecap: square"/>
     </g>
     <g id="line2d_20">
      <g>
       <use xlink:href="#m6360bfb1c0" x="72.802759" y="146.747947" style="stroke: #000000; stroke-width: 0.8"/>
      </g>
     </g>
    </g>
    <g id="xtick_11">
     <g id="line2d_21">
      <path d="M 86.094549 146.747947 
L 86.094549 12.07875 
" clip-path="url(#padcd87bbf7)" style="fill: none; stroke: #b0b0b0; stroke-width: 0.3; stroke-linecap: square"/>
     </g>
     <g id="line2d_22">
      <g>
       <use xlink:href="#m6360bfb1c0" x="86.094549" y="146.747947" style="stroke: #000000; stroke-width: 0.8"/>
      </g>
     </g>
    </g>
    <g id="xtick_12">
     <g id="line2d_23">
      <path d="M 92.740443 146.747947 
L 92.740443 12.07875 
" clip-path="url(#padcd87bbf7)" style="fill: none; stroke: #b0b0b0; stroke-width: 0.3; stroke-linecap: square"/>
     </g>
     <g id="line2d_24">
      <g>
       <use xlink:href="#m6360bfb1c0" x="92.740443" y="146.747947" style="stroke: #000000; stroke-width: 0.8"/>
      </g>
     </g>
    </g>
    <g id="xtick_13">
     <g id="line2d_25">
      <path d="M 99.386338 146.747947 
L 99.386338 12.07875 
" clip-path="url(#padcd87bbf7)" style="fill: none; stroke: #b0b0b0; stroke-width: 0.3; stroke-linecap: square"/>
     </g>
     <g id="line2d_26">
      <g>
       <use xlink:href="#m6360bfb1c0" x="99.386338" y="146.747947" style="stroke: #000000; stroke-width: 0.8"/>
      </g>
     </g>
    </g>
    <g id="xtick_14">
     <g id="line2d_27">
      <path d="M 106.032232 146.747947 
L 106.032232 12.07875 
" clip-path="url(#padcd87bbf7)" style="fill: none; stroke: #b0b0b0; stroke-width: 0.3; stroke-linecap: square"/>
     </g>
     <g id="line2d_28">
      <g>
       <use xlink:href="#m6360bfb1c0" x="106.032232" y="146.747947" style="stroke: #000000; stroke-width: 0.8"/>
      </g>
     </g>
    </g>
    <g id="xtick_15">
     <g id="line2d_29">
      <path d="M 119.324021 146.747947 
L 119.324021 12.07875 
" clip-path="url(#padcd87bbf7)" style="fill: none; stroke: #b0b0b0; stroke-width: 0.3; stroke-linecap: square"/>
     </g>
     <g id="line2d_30">
      <g>
       <use xlink:href="#m6360bfb1c0" x="119.324021" y="146.747947" style="stroke: #000000; stroke-width: 0.8"/>
      </g>
     </g>
    </g>
    <g id="xtick_16">
     <g id="line2d_31">
      <path d="M 125.969916 146.747947 
L 125.969916 12.07875 
" clip-path="url(#padcd87bbf7)" style="fill: none; stroke: #b0b0b0; stroke-width: 0.3; stroke-linecap: square"/>
     </g>
     <g id="line2d_32">
      <g>
       <use xlink:href="#m6360bfb1c0" x="125.969916" y="146.747947" style="stroke: #000000; stroke-width: 0.8"/>
      </g>
     </g>
    </g>
    <g id="xtick_17">
     <g id="line2d_33">
      <path d="M 132.61581 146.747947 
L 132.61581 12.07875 
" clip-path="url(#padcd87bbf7)" style="fill: none; stroke: #b0b0b0; stroke-width: 0.3; stroke-linecap: square"/>
     </g>
     <g id="line2d_34">
      <g>
       <use xlink:href="#m6360bfb1c0" x="132.61581" y="146.747947" style="stroke: #000000; stroke-width: 0.8"/>
      </g>
     </g>
    </g>
    <g id="xtick_18">
     <g id="line2d_35">
      <path d="M 139.261705 146.747947 
L 139.261705 12.07875 
" clip-path="url(#padcd87bbf7)" style="fill: none; stroke: #b0b0b0; stroke-width: 0.3; stroke-linecap: square"/>
     </g>
     <g id="line2d_36">
      <g>
       <use xlink:href="#m6360bfb1c0" x="139.261705" y="146.747947" style="stroke: #000000; stroke-width: 0.8"/>
      </g>
     </g>
    </g>
    <g id="xtick_19">
     <g id="line2d_37">
      <path d="M 152.553494 146.747947 
L 152.553494 12.07875 
" clip-path="url(#padcd87bbf7)" style="fill: none; stroke: #b0b0b0; stroke-width: 0.3; stroke-linecap: square"/>
     </g>
     <g id="line2d_38">
      <g>
       <use xlink:href="#m6360bfb1c0" x="152.553494" y="146.747947" style="stroke: #000000; stroke-width: 0.8"/>
      </g>
     </g>
    </g>
    <g id="xtick_20">
     <g id="line2d_39">
      <path d="M 159.199389 146.747947 
L 159.199389 12.07875 
" clip-path="url(#padcd87bbf7)" style="fill: none; stroke: #b0b0b0; stroke-width: 0.3; stroke-linecap: square"/>
     </g>
     <g id="line2d_40">
      <g>
       <use xlink:href="#m6360bfb1c0" x="159.199389" y="146.747947" style="stroke: #000000; stroke-width: 0.8"/>
      </g>
     </g>
    </g>
    <g id="xtick_21">
     <g id="line2d_41">
      <path d="M 165.845283 146.747947 
L 165.845283 12.07875 
" clip-path="url(#padcd87bbf7)" style="fill: none; stroke: #b0b0b0; stroke-width: 0.3; stroke-linecap: square"/>
     </g>
     <g id="line2d_42">
      <g>
       <use xlink:href="#m6360bfb1c0" x="165.845283" y="146.747947" style="stroke: #000000; stroke-width: 0.8"/>
      </g>
     </g>
    </g>
    <g id="xtick_22">
     <g id="line2d_43">
      <path d="M 172.491178 146.747947 
L 172.491178 12.07875 
" clip-path="url(#padcd87bbf7)" style="fill: none; stroke: #b0b0b0; stroke-width: 0.3; stroke-linecap: square"/>
     </g>
     <g id="line2d_44">
      <g>
       <use xlink:href="#m6360bfb1c0" x="172.491178" y="146.747947" style="stroke: #000000; stroke-width: 0.8"/>
      </g>
     </g>
    </g>
    <g id="xtick_23">
     <g id="line2d_45">
      <path d="M 185.782967 146.747947 
L 185.782967 12.07875 
" clip-path="url(#padcd87bbf7)" style="fill: none; stroke: #b0b0b0; stroke-width: 0.3; stroke-linecap: square"/>
     </g>
     <g id="line2d_46">
      <g>
       <use xlink:href="#m6360bfb1c0" x="185.782967" y="146.747947" style="stroke: #000000; stroke-width: 0.8"/>
      </g>
     </g>
    </g>
    <g id="xtick_24">
     <g id="line2d_47">
      <path d="M 192.428861 146.747947 
L 192.428861 12.07875 
" clip-path="url(#padcd87bbf7)" style="fill: none; stroke: #b0b0b0; stroke-width: 0.3; stroke-linecap: square"/>
     </g>
     <g id="line2d_48">
      <g>
       <use xlink:href="#m6360bfb1c0" x="192.428861" y="146.747947" style="stroke: #000000; stroke-width: 0.8"/>
      </g>
     </g>
    </g>
    <g id="text_6">
     <text style="font: 9.6px 'DejaVu Sans', 'Bitstream Vera Sans', 'Computer Modern Sans Serif', 'Lucida Grande', 'Verdana', 'Geneva', 'Lucid', 'Arial', 'Helvetica', 'Avant Garde', sans-serif; text-anchor: middle" x="114.3396" y="174.859197" transform="rotate(-0 114.3396 174.859197)">Wavelength (nm)</text>
    </g>
   </g>
   <g id="matplotlib.axis_2">
    <g id="ytick_1">
     <g id="line2d_49">
      <path d="M 35.58575 132.297704 
L 193.093451 132.297704 
" clip-path="url(#padcd87bbf7)" style="fill: none; stroke: #b0b0b0; stroke-width: 0.6; stroke-linecap: square"/>
     </g>
     <g id="line2d_50">
      <defs>
       <path id="me304db107f" d="M 0 0 
L -4.8 0 
" style="stroke: #000000"/>
      </defs>
      <g>
       <use xlink:href="#me304db107f" x="35.58575" y="132.297704" style="stroke: #000000"/>
      </g>
     </g>
     <g id="text_7">
      <text style="font: 8.8px 'DejaVu Sans', 'Bitstream Vera Sans', 'Computer Modern Sans Serif', 'Lucida Grande', 'Verdana', 'Geneva', 'Lucid', 'Arial', 'Helvetica', 'Avant Garde', sans-serif; text-anchor: end" x="27.28575" y="135.641016" transform="rotate(-0 27.28575 135.641016)">0.2</text>
     </g>
    </g>
    <g id="ytick_2">
     <g id="line2d_51">
      <path d="M 35.58575 103.773297 
L 193.093451 103.773297 
" clip-path="url(#padcd87bbf7)" style="fill: none; stroke: #b0b0b0; stroke-width: 0.6; stroke-linecap: square"/>
     </g>
     <g id="line2d_52">
      <g>
       <use xlink:href="#me304db107f" x="35.58575" y="103.773297" style="stroke: #000000"/>
      </g>
     </g>
     <g id="text_8">
      <text style="font: 8.8px 'DejaVu Sans', 'Bitstream Vera Sans', 'Computer Modern Sans Serif', 'Lucida Grande', 'Verdana', 'Geneva', 'Lucid', 'Arial', 'Helvetica', 'Avant Garde', sans-serif; text-anchor: end" x="27.28575" y="107.116609" transform="rotate(-0 27.28575 107.116609)">0.4</text>
     </g>
    </g>
    <g id="ytick_3">
     <g id="line2d_53">
      <path d="M 35.58575 75.24889 
L 193.093451 75.24889 
" clip-path="url(#padcd87bbf7)" style="fill: none; stroke: #b0b0b0; stroke-width: 0.6; stroke-linecap: square"/>
     </g>
     <g id="line2d_54">
      <g>
       <use xlink:href="#me304db107f" x="35.58575" y="75.24889" style="stroke: #000000"/>
      </g>
     </g>
     <g id="text_9">
      <text style="font: 8.8px 'DejaVu Sans', 'Bitstream Vera Sans', 'Computer Modern Sans Serif', 'Lucida Grande', 'Verdana', 'Geneva', 'Lucid', 'Arial', 'Helvetica', 'Avant Garde', sans-serif; text-anchor: end" x="27.28575" y="78.592203" transform="rotate(-0 27.28575 78.592203)">0.6</text>
     </g>
    </g>
    <g id="ytick_4">
     <g id="line2d_55">
      <path d="M 35.58575 46.724484 
L 193.093451 46.724484 
" clip-path="url(#padcd87bbf7)" style="fill: none; stroke: #b0b0b0; stroke-width: 0.6; stroke-linecap: square"/>
     </g>
     <g id="line2d_56">
      <g>
       <use xlink:href="#me304db107f" x="35.58575" y="46.724484" style="stroke: #000000"/>
      </g>
     </g>
     <g id="text_10">
      <text style="font: 8.8px 'DejaVu Sans', 'Bitstream Vera Sans', 'Computer Modern Sans Serif', 'Lucida Grande', 'Verdana', 'Geneva', 'Lucid', 'Arial', 'Helvetica', 'Avant Garde', sans-serif; text-anchor: end" x="27.28575" y="50.067796" transform="rotate(-0 27.28575 50.067796)">0.8</text>
     </g>
    </g>
    <g id="ytick_5">
     <g id="line2d_57">
      <path d="M 35.58575 18.200077 
L 193.093451 18.200077 
" clip-path="url(#padcd87bbf7)" style="fill: none; stroke: #b0b0b0; stroke-width: 0.6; stroke-linecap: square"/>
     </g>
     <g id="line2d_58">
      <g>
       <use xlink:href="#me304db107f" x="35.58575" y="18.200077" style="stroke: #000000"/>
      </g>
     </g>
     <g id="text_11">
      <text style="font: 8.8px 'DejaVu Sans', 'Bitstream Vera Sans', 'Computer Modern Sans Serif', 'Lucida Grande', 'Verdana', 'Geneva', 'Lucid', 'Arial', 'Helvetica', 'Avant Garde', sans-serif; text-anchor: end" x="27.28575" y="21.54339" transform="rotate(-0 27.28575 21.54339)">1.0</text>
     </g>
    </g>
    <g id="text_12">
     <text style="font: 9.6px 'DejaVu Sans', 'Bitstream Vera Sans', 'Computer Modern Sans Serif', 'Lucida Grande', 'Verdana', 'Geneva', 'Lucid', 'Arial', 'Helvetica', 'Avant Garde', sans-serif; text-anchor: middle" x="7.2945" y="79.413348" transform="rotate(-90 7.2945 79.413348)">Reflectance</text>
    </g>
   </g>
   <g id="line2d_59">
    <path d="M 39.573287 18.200077 
L 42.008099 18.302313 
L 42.632134 18.635328 
L 44.865935 20.07454 
L 46.177847 20.523744 
L 48.195449 20.401512 
L 49.227118 20.008549 
L 52.416383 18.331636 
L 53.511683 18.200077 
L 55.752069 18.28903 
L 56.513887 18.823595 
L 57.283342 19.400209 
L 59.638301 20.72137 
L 62.064798 21.958546 
L 63.305549 22.350916 
L 64.143091 22.322072 
L 66.706432 22.125341 
L 67.578068 22.364823 
L 68.017157 22.672839 
L 68.458441 23.165473 
L 69.347641 24.748143 
L 71.152872 28.434839 
L 71.609835 29.795165 
L 72.069083 31.638872 
L 72.530627 34.030824 
L 73.460651 40.655889 
L 74.399997 47.888069 
L 75.348761 53.526052 
L 76.307036 57.70904 
L 77.274917 60.78803 
L 77.762491 61.893963 
L 78.744964 63.369545 
L 79.737285 64.890512 
L 80.739555 66.902381 
L 82.261831 70.314913 
L 82.774339 70.798357 
L 83.28941 70.650295 
L 84.32729 70.11247 
L 84.850125 70.099348 
L 86.434368 70.584102 
L 86.967739 70.55072 
L 87.503776 70.283006 
L 88.042494 69.779145 
L 90.224436 66.785197 
L 93.580063 63.456252 
L 94.721107 61.383578 
L 95.87359 58.701512 
L 100.600221 46.510127 
L 101.204421 45.620308 
L 101.811642 45.303798 
L 102.421899 45.731527 
L 103.035207 47.044786 
L 103.651582 49.531435 
L 104.271039 53.700409 
L 105.519259 66.294248 
L 106.779994 80.331777 
L 107.415092 85.925607 
L 108.053367 89.941372 
L 109.987402 98.862514 
L 110.638538 100.516869 
L 111.292929 100.78509 
L 112.611544 99.748295 
L 113.275801 99.791346 
L 113.943379 100.74419 
L 114.614294 102.537663 
L 115.966206 106.728657 
L 116.647236 107.930243 
L 117.331671 108.25244 
L 118.019528 108.029208 
L 118.710825 107.560741 
L 120.805522 105.77617 
L 121.510749 104.384151 
L 122.219501 100.889666 
L 122.931798 94.374431 
L 125.090127 69.395843 
L 125.816776 63.877195 
L 126.547059 59.989516 
L 128.018597 54.313435 
L 128.759889 51.70228 
L 129.504887 49.632141 
L 130.25361 48.662583 
L 131.006077 49.060494 
L 132.522317 51.564295 
L 133.286127 52.59136 
L 134.053757 54.02056 
L 134.825224 56.35907 
L 135.600549 59.757267 
L 136.379751 64.152683 
L 137.162848 69.438094 
L 138.740809 81.172324 
L 139.535712 83.216454 
L 140.33459 80.752567 
L 141.137461 77.518237 
L 141.944348 76.026549 
L 142.755268 76.110197 
L 143.570243 76.973523 
L 144.389293 78.345965 
L 146.0397 81.815331 
L 146.871097 83.124198 
L 147.706651 83.897998 
L 148.546383 84.216437 
L 149.390314 84.388443 
L 150.238464 84.70207 
L 151.090856 85.33545 
L 151.947509 86.303028 
L 153.673686 88.624863 
L 154.543253 89.581133 
L 155.417168 90.139989 
L 156.295453 90.375593 
L 157.178129 90.835494 
L 158.065219 92.135198 
L 158.956744 94.680024 
L 159.852726 98.693304 
L 160.753189 104.037894 
L 164.400287 129.079055 
L 165.323487 132.810101 
L 166.251304 135.280811 
L 167.183759 137.131342 
L 168.120877 138.580005 
L 169.06268 139.619343 
L 170.009192 140.282922 
L 170.960437 140.623252 
L 171.916438 140.62662 
L 172.877219 140.275454 
L 173.842804 139.532147 
L 174.813217 138.415979 
L 175.788482 136.888186 
L 176.768623 134.862818 
L 177.753665 132.272131 
L 178.743632 129.030714 
L 179.738549 124.971174 
L 180.73844 119.86315 
L 181.743331 113.056605 
L 182.753247 103.383539 
L 183.768212 88.883048 
L 184.788252 64.930886 
L 185.813392 18.200077 
L 185.813392 18.200077 
" clip-path="url(#padcd87bbf7)" style="fill: none; stroke: #1f77b4; stroke-width: 0.5; stroke-linecap: square"/>
   </g>
   <g id="line2d_60"/>
   <g id="patch_3">
    <path d="M 35.58575 146.747947 
L 35.58575 12.07875 
" style="fill: none; stroke: #000000; stroke-linejoin: miter; stroke-linecap: square"/>
   </g>
   <g id="patch_4">
    <path d="M 193.093451 146.747947 
L 193.093451 12.07875 
" style="fill: none; stroke: #000000; stroke-linejoin: miter; stroke-linecap: square"/>
   </g>
   <g id="patch_5">
    <path d="M 35.58575 146.747947 
L 193.093451 146.747947 
" style="fill: none; stroke: #000000; stroke-linejoin: miter; stroke-linecap: square"/>
   </g>
   <g id="patch_6">
    <path d="M 35.58575 12.07875 
L 193.093451 12.07875 
" style="fill: none; stroke: #000000; stroke-linejoin: miter; stroke-linecap: square"/>
   </g>
   <g id="text_13">
    <text style="font: 8px 'DejaVu Sans', 'Bitstream Vera Sans', 'Computer Modern Sans Serif', 'Lucida Grande', 'Verdana', 'Geneva', 'Lucid', 'Arial', 'Helvetica', 'Avant Garde', sans-serif; text-anchor: middle" x="114.3396" y="6.07875" transform="rotate(-0 114.3396 6.07875)">Laboratory Sulfates Kieserite</text>
   </g>
   <g id="legend_1">
    <g id="patch_7">
     <path d="M 200.443605 84.716786 
L 271.12173 84.716786 
Q 272.32173 84.716786 272.32173 83.516786 
L 272.32173 75.309911 
Q 272.32173 74.109911 271.12173 74.109911 
L 200.443605 74.109911 
Q 199.243605 74.109911 199.243605 75.309911 
L 199.243605 83.516786 
Q 199.243605 84.716786 200.443605 84.716786 
z
" style="fill: #ffffff; opacity: 0.8; stroke: #cccccc; stroke-width: 0.8; stroke-linejoin: miter"/>
    </g>
    <g id="line2d_61">
     <path d="M 201.643605 78.968973 
L 207.643605 78.968973 
L 213.643605 78.968973 
" style="fill: none; stroke: #1f77b4; stroke-width: 1.2; stroke-linecap: square"/>
    </g>
    <g id="text_14">
     <text style="font: 6px 'DejaVu Sans', 'Bitstream Vera Sans', 'Computer Modern Sans Serif', 'Lucida Grande', 'Verdana', 'Geneva', 'Lucid', 'Arial', 'Helvetica', 'Avant Garde', sans-serif; text-anchor: start" x="218.443605" y="81.068973" transform="rotate(-0 218.443605 81.068973)">Kieserite F1CC15</text>
    </g>
   </g>
  </g>
 </g>
 <defs>
  <clipPath id="padcd87bbf7">
   <rect x="35.58575" y="12.07875" width="157.507701" height="134.669197"/>
  </clipPath>
 </defs>
</svg>
