<?xml version="1.0" encoding="utf-8" standalone="no"?>
<!DOCTYPE svg PUBLIC "-//W3C//DTD SVG 1.1//EN"
  "http://www.w3.org/Graphics/SVG/1.1/DTD/svg11.dtd">
<svg xmlns:xlink="http://www.w3.org/1999/xlink" width="272.130217pt" height="176.855697pt" viewBox="0 0 272.130217 176.855697" xmlns="http://www.w3.org/2000/svg" version="1.1">
 <metadata>
  <rdf:RDF xmlns:dc="http://purl.org/dc/elements/1.1/" xmlns:cc="http://creativecommons.org/ns#" xmlns:rdf="http://www.w3.org/1999/02/22-rdf-syntax-ns#">
   <cc:Work>
    <dc:type rdf:resource="http://purl.org/dc/dcmitype/StillImage"/>
    <dc:date>2025-02-12T17:08:01.282383</dc:date>
    <dc:format>image/svg+xml</dc:format>
    <dc:creator>
     <cc:Agent>
      <dc:title>Matplotlib v3.6.2, https://matplotlib.org/</dc:title>
     </cc:Agent>
    </dc:creator>
   </cc:Work>
  </rdf:RDF>
 </metadata>
 <defs>
  <style type="text/css">*{stroke-linejoin: round; stroke-linecap: butt}</style>
 </defs>
 <g id="figure_1">
  <g id="patch_1">
   <path d="M -0 176.855697 
L 272.130217 176.855697 
L 272.130217 0 
L -0 0 
z
" style="fill: #ffffff"/>
  </g>
  <g id="axes_1">
   <g id="patch_2">
    <path d="M 35.58575 146.747947 
L 188.533451 146.747947 
L 188.533451 12.07875 
L 35.58575 12.07875 
z
" style="fill: #ffffff"/>
   </g>
   <g id="matplotlib.axis_1">
    <g id="xtick_1">
     <g id="line2d_1">
      <path d="M 45.911333 146.747947 
L 45.911333 12.07875 
" clip-path="url(#p917f8261c4)" style="fill: none; stroke: #b0b0b0; stroke-width: 0.6; stroke-linecap: square"/>
     </g>
     <g id="line2d_2">
      <defs>
       <path id="mf3788604df" d="M 0 0 
L 0 4.8 
" style="stroke: #000000"/>
      </defs>
      <g>
       <use xlink:href="#mf3788604df" x="45.911333" y="146.747947" style="stroke: #000000"/>
      </g>
     </g>
     <g id="text_1">
      <text style="font: 8.8px 'DejaVu Sans', 'Bitstream Vera Sans', 'Computer Modern Sans Serif', 'Lucida Grande', 'Verdana', 'Geneva', 'Lucid', 'Arial', 'Helvetica', 'Avant Garde', sans-serif; text-anchor: middle" x="45.911333" y="161.734572" transform="rotate(-0 45.911333 161.734572)">1000</text>
     </g>
    </g>
    <g id="xtick_2">
     <g id="line2d_3">
      <path d="M 78.178781 146.747947 
L 78.178781 12.07875 
" clip-path="url(#p917f8261c4)" style="fill: none; stroke: #b0b0b0; stroke-width: 0.6; stroke-linecap: square"/>
     </g>
     <g id="line2d_4">
      <g>
       <use xlink:href="#mf3788604df" x="78.178781" y="146.747947" style="stroke: #000000"/>
      </g>
     </g>
     <g id="text_2">
      <text style="font: 8.8px 'DejaVu Sans', 'Bitstream Vera Sans', 'Computer Modern Sans Serif', 'Lucida Grande', 'Verdana', 'Geneva', 'Lucid', 'Arial', 'Helvetica', 'Avant Garde', sans-serif; text-anchor: middle" x="78.178781" y="161.734572" transform="rotate(-0 78.178781 161.734572)">1500</text>
     </g>
    </g>
    <g id="xtick_3">
     <g id="line2d_5">
      <path d="M 110.446228 146.747947 
L 110.446228 12.07875 
" clip-path="url(#p917f8261c4)" style="fill: none; stroke: #b0b0b0; stroke-width: 0.6; stroke-linecap: square"/>
     </g>
     <g id="line2d_6">
      <g>
       <use xlink:href="#mf3788604df" x="110.446228" y="146.747947" style="stroke: #000000"/>
      </g>
     </g>
     <g id="text_3">
      <text style="font: 8.8px 'DejaVu Sans', 'Bitstream Vera Sans', 'Computer Modern Sans Serif', 'Lucida Grande', 'Verdana', 'Geneva', 'Lucid', 'Arial', 'Helvetica', 'Avant Garde', sans-serif; text-anchor: middle" x="110.446228" y="161.734572" transform="rotate(-0 110.446228 161.734572)">2000</text>
     </g>
    </g>
    <g id="xtick_4">
     <g id="line2d_7">
      <path d="M 142.713675 146.747947 
L 142.713675 12.07875 
" clip-path="url(#p917f8261c4)" style="fill: none; stroke: #b0b0b0; stroke-width: 0.6; stroke-linecap: square"/>
     </g>
     <g id="line2d_8">
      <g>
       <use xlink:href="#mf3788604df" x="142.713675" y="146.747947" style="stroke: #000000"/>
      </g>
     </g>
     <g id="text_4">
      <text style="font: 8.8px 'DejaVu Sans', 'Bitstream Vera Sans', 'Computer Modern Sans Serif', 'Lucida Grande', 'Verdana', 'Geneva', 'Lucid', 'Arial', 'Helvetica', 'Avant Garde', sans-serif; text-anchor: middle" x="142.713675" y="161.734572" transform="rotate(-0 142.713675 161.734572)">2500</text>
     </g>
    </g>
    <g id="xtick_5">
     <g id="line2d_9">
      <path d="M 174.981123 146.747947 
L 174.981123 12.07875 
" clip-path="url(#p917f8261c4)" style="fill: none; stroke: #b0b0b0; stroke-width: 0.6; stroke-linecap: square"/>
     </g>
     <g id="line2d_10">
      <g>
       <use xlink:href="#mf3788604df" x="174.981123" y="146.747947" style="stroke: #000000"/>
      </g>
     </g>
     <g id="text_5">
      <text style="font: 8.8px 'DejaVu Sans', 'Bitstream Vera Sans', 'Computer Modern Sans Serif', 'Lucida Grande', 'Verdana', 'Geneva', 'Lucid', 'Arial', 'Helvetica', 'Avant Garde', sans-serif; text-anchor: middle" x="174.981123" y="161.734572" transform="rotate(-0 174.981123 161.734572)">3000</text>
     </g>
    </g>
    <g id="xtick_6">
     <g id="line2d_11">
      <path d="M 39.457844 146.747947 
L 39.457844 12.07875 
" clip-path="url(#p917f8261c4)" style="fill: none; stroke: #b0b0b0; stroke-width: 0.3; stroke-linecap: square"/>
     </g>
     <g id="line2d_12">
      <defs>
       <path id="m881a5ba20a" d="M 0 0 
L 0 3.2 
" style="stroke: #000000; stroke-width: 0.8"/>
      </defs>
      <g>
       <use xlink:href="#m881a5ba20a" x="39.457844" y="146.747947" style="stroke: #000000; stroke-width: 0.8"/>
      </g>
     </g>
    </g>
    <g id="xtick_7">
     <g id="line2d_13">
      <path d="M 52.364823 146.747947 
L 52.364823 12.07875 
" clip-path="url(#p917f8261c4)" style="fill: none; stroke: #b0b0b0; stroke-width: 0.3; stroke-linecap: square"/>
     </g>
     <g id="line2d_14">
      <g>
       <use xlink:href="#m881a5ba20a" x="52.364823" y="146.747947" style="stroke: #000000; stroke-width: 0.8"/>
      </g>
     </g>
    </g>
    <g id="xtick_8">
     <g id="line2d_15">
      <path d="M 58.818312 146.747947 
L 58.818312 12.07875 
" clip-path="url(#p917f8261c4)" style="fill: none; stroke: #b0b0b0; stroke-width: 0.3; stroke-linecap: square"/>
     </g>
     <g id="line2d_16">
      <g>
       <use xlink:href="#m881a5ba20a" x="58.818312" y="146.747947" style="stroke: #000000; stroke-width: 0.8"/>
      </g>
     </g>
    </g>
    <g id="xtick_9">
     <g id="line2d_17">
      <path d="M 65.271802 146.747947 
L 65.271802 12.07875 
" clip-path="url(#p917f8261c4)" style="fill: none; stroke: #b0b0b0; stroke-width: 0.3; stroke-linecap: square"/>
     </g>
     <g id="line2d_18">
      <g>
       <use xlink:href="#m881a5ba20a" x="65.271802" y="146.747947" style="stroke: #000000; stroke-width: 0.8"/>
      </g>
     </g>
    </g>
    <g id="xtick_10">
     <g id="line2d_19">
      <path d="M 71.725291 146.747947 
L 71.725291 12.07875 
" clip-path="url(#p917f8261c4)" style="fill: none; stroke: #b0b0b0; stroke-width: 0.3; stroke-linecap: square"/>
     </g>
     <g id="line2d_20">
      <g>
       <use xlink:href="#m881a5ba20a" x="71.725291" y="146.747947" style="stroke: #000000; stroke-width: 0.8"/>
      </g>
     </g>
    </g>
    <g id="xtick_11">
     <g id="line2d_21">
      <path d="M 84.63227 146.747947 
L 84.63227 12.07875 
" clip-path="url(#p917f8261c4)" style="fill: none; stroke: #b0b0b0; stroke-width: 0.3; stroke-linecap: square"/>
     </g>
     <g id="line2d_22">
      <g>
       <use xlink:href="#m881a5ba20a" x="84.63227" y="146.747947" style="stroke: #000000; stroke-width: 0.8"/>
      </g>
     </g>
    </g>
    <g id="xtick_12">
     <g id="line2d_23">
      <path d="M 91.08576 146.747947 
L 91.08576 12.07875 
" clip-path="url(#p917f8261c4)" style="fill: none; stroke: #b0b0b0; stroke-width: 0.3; stroke-linecap: square"/>
     </g>
     <g id="line2d_24">
      <g>
       <use xlink:href="#m881a5ba20a" x="91.08576" y="146.747947" style="stroke: #000000; stroke-width: 0.8"/>
      </g>
     </g>
    </g>
    <g id="xtick_13">
     <g id="line2d_25">
      <path d="M 97.539249 146.747947 
L 97.539249 12.07875 
" clip-path="url(#p917f8261c4)" style="fill: none; stroke: #b0b0b0; stroke-width: 0.3; stroke-linecap: square"/>
     </g>
     <g id="line2d_26">
      <g>
       <use xlink:href="#m881a5ba20a" x="97.539249" y="146.747947" style="stroke: #000000; stroke-width: 0.8"/>
      </g>
     </g>
    </g>
    <g id="xtick_14">
     <g id="line2d_27">
      <path d="M 103.992739 146.747947 
L 103.992739 12.07875 
" clip-path="url(#p917f8261c4)" style="fill: none; stroke: #b0b0b0; stroke-width: 0.3; stroke-linecap: square"/>
     </g>
     <g id="line2d_28">
      <g>
       <use xlink:href="#m881a5ba20a" x="103.992739" y="146.747947" style="stroke: #000000; stroke-width: 0.8"/>
      </g>
     </g>
    </g>
    <g id="xtick_15">
     <g id="line2d_29">
      <path d="M 116.899718 146.747947 
L 116.899718 12.07875 
" clip-path="url(#p917f8261c4)" style="fill: none; stroke: #b0b0b0; stroke-width: 0.3; stroke-linecap: square"/>
     </g>
     <g id="line2d_30">
      <g>
       <use xlink:href="#m881a5ba20a" x="116.899718" y="146.747947" style="stroke: #000000; stroke-width: 0.8"/>
      </g>
     </g>
    </g>
    <g id="xtick_16">
     <g id="line2d_31">
      <path d="M 123.353207 146.747947 
L 123.353207 12.07875 
" clip-path="url(#p917f8261c4)" style="fill: none; stroke: #b0b0b0; stroke-width: 0.3; stroke-linecap: square"/>
     </g>
     <g id="line2d_32">
      <g>
       <use xlink:href="#m881a5ba20a" x="123.353207" y="146.747947" style="stroke: #000000; stroke-width: 0.8"/>
      </g>
     </g>
    </g>
    <g id="xtick_17">
     <g id="line2d_33">
      <path d="M 129.806696 146.747947 
L 129.806696 12.07875 
" clip-path="url(#p917f8261c4)" style="fill: none; stroke: #b0b0b0; stroke-width: 0.3; stroke-linecap: square"/>
     </g>
     <g id="line2d_34">
      <g>
       <use xlink:href="#m881a5ba20a" x="129.806696" y="146.747947" style="stroke: #000000; stroke-width: 0.8"/>
      </g>
     </g>
    </g>
    <g id="xtick_18">
     <g id="line2d_35">
      <path d="M 136.260186 146.747947 
L 136.260186 12.07875 
" clip-path="url(#p917f8261c4)" style="fill: none; stroke: #b0b0b0; stroke-width: 0.3; stroke-linecap: square"/>
     </g>
     <g id="line2d_36">
      <g>
       <use xlink:href="#m881a5ba20a" x="136.260186" y="146.747947" style="stroke: #000000; stroke-width: 0.8"/>
      </g>
     </g>
    </g>
    <g id="xtick_19">
     <g id="line2d_37">
      <path d="M 149.167165 146.747947 
L 149.167165 12.07875 
" clip-path="url(#p917f8261c4)" style="fill: none; stroke: #b0b0b0; stroke-width: 0.3; stroke-linecap: square"/>
     </g>
     <g id="line2d_38">
      <g>
       <use xlink:href="#m881a5ba20a" x="149.167165" y="146.747947" style="stroke: #000000; stroke-width: 0.8"/>
      </g>
     </g>
    </g>
    <g id="xtick_20">
     <g id="line2d_39">
      <path d="M 155.620654 146.747947 
L 155.620654 12.07875 
" clip-path="url(#p917f8261c4)" style="fill: none; stroke: #b0b0b0; stroke-width: 0.3; stroke-linecap: square"/>
     </g>
     <g id="line2d_40">
      <g>
       <use xlink:href="#m881a5ba20a" x="155.620654" y="146.747947" style="stroke: #000000; stroke-width: 0.8"/>
      </g>
     </g>
    </g>
    <g id="xtick_21">
     <g id="line2d_41">
      <path d="M 162.074144 146.747947 
L 162.074144 12.07875 
" clip-path="url(#p917f8261c4)" style="fill: none; stroke: #b0b0b0; stroke-width: 0.3; stroke-linecap: square"/>
     </g>
     <g id="line2d_42">
      <g>
       <use xlink:href="#m881a5ba20a" x="162.074144" y="146.747947" style="stroke: #000000; stroke-width: 0.8"/>
      </g>
     </g>
    </g>
    <g id="xtick_22">
     <g id="line2d_43">
      <path d="M 168.527633 146.747947 
L 168.527633 12.07875 
" clip-path="url(#p917f8261c4)" style="fill: none; stroke: #b0b0b0; stroke-width: 0.3; stroke-linecap: square"/>
     </g>
     <g id="line2d_44">
      <g>
       <use xlink:href="#m881a5ba20a" x="168.527633" y="146.747947" style="stroke: #000000; stroke-width: 0.8"/>
      </g>
     </g>
    </g>
    <g id="xtick_23">
     <g id="line2d_45">
      <path d="M 181.434612 146.747947 
L 181.434612 12.07875 
" clip-path="url(#p917f8261c4)" style="fill: none; stroke: #b0b0b0; stroke-width: 0.3; stroke-linecap: square"/>
     </g>
     <g id="line2d_46">
      <g>
       <use xlink:href="#m881a5ba20a" x="181.434612" y="146.747947" style="stroke: #000000; stroke-width: 0.8"/>
      </g>
     </g>
    </g>
    <g id="xtick_24">
     <g id="line2d_47">
      <path d="M 187.888102 146.747947 
L 187.888102 12.07875 
" clip-path="url(#p917f8261c4)" style="fill: none; stroke: #b0b0b0; stroke-width: 0.3; stroke-linecap: square"/>
     </g>
     <g id="line2d_48">
      <g>
       <use xlink:href="#m881a5ba20a" x="187.888102" y="146.747947" style="stroke: #000000; stroke-width: 0.8"/>
      </g>
     </g>
    </g>
    <g id="text_6">
     <text style="font: 9.6px 'DejaVu Sans', 'Bitstream Vera Sans', 'Computer Modern Sans Serif', 'Lucida Grande', 'Verdana', 'Geneva', 'Lucid', 'Arial', 'Helvetica', 'Avant Garde', sans-serif; text-anchor: middle" x="112.0596" y="174.859197" transform="rotate(-0 112.0596 174.859197)">Wavelength (nm)</text>
    </g>
   </g>
   <g id="matplotlib.axis_2">
    <g id="ytick_1">
     <g id="line2d_49">
      <path d="M 35.58575 122.776053 
L 188.533451 122.776053 
" clip-path="url(#p917f8261c4)" style="fill: none; stroke: #b0b0b0; stroke-width: 0.6; stroke-linecap: square"/>
     </g>
     <g id="line2d_50">
      <defs>
       <path id="mbe4f6bb7f7" d="M 0 0 
L -4.8 0 
" style="stroke: #000000"/>
      </defs>
      <g>
       <use xlink:href="#mbe4f6bb7f7" x="35.58575" y="122.776053" style="stroke: #000000"/>
      </g>
     </g>
     <g id="text_7">
      <text style="font: 8.8px 'DejaVu Sans', 'Bitstream Vera Sans', 'Computer Modern Sans Serif', 'Lucida Grande', 'Verdana', 'Geneva', 'Lucid', 'Arial', 'Helvetica', 'Avant Garde', sans-serif; text-anchor: end" x="27.28575" y="126.119366" transform="rotate(-0 27.28575 126.119366)">0.4</text>
     </g>
    </g>
    <g id="ytick_2">
     <g id="line2d_51">
      <path d="M 35.58575 87.917395 
L 188.533451 87.917395 
" clip-path="url(#p917f8261c4)" style="fill: none; stroke: #b0b0b0; stroke-width: 0.6; stroke-linecap: square"/>
     </g>
     <g id="line2d_52">
      <g>
       <use xlink:href="#mbe4f6bb7f7" x="35.58575" y="87.917395" style="stroke: #000000"/>
      </g>
     </g>
     <g id="text_8">
      <text style="font: 8.8px 'DejaVu Sans', 'Bitstream Vera Sans', 'Computer Modern Sans Serif', 'Lucida Grande', 'Verdana', 'Geneva', 'Lucid', 'Arial', 'Helvetica', 'Avant Garde', sans-serif; text-anchor: end" x="27.28575" y="91.260707" transform="rotate(-0 27.28575 91.260707)">0.6</text>
     </g>
    </g>
    <g id="ytick_3">
     <g id="line2d_53">
      <path d="M 35.58575 53.058736 
L 188.533451 53.058736 
" clip-path="url(#p917f8261c4)" style="fill: none; stroke: #b0b0b0; stroke-width: 0.6; stroke-linecap: square"/>
     </g>
     <g id="line2d_54">
      <g>
       <use xlink:href="#mbe4f6bb7f7" x="35.58575" y="53.058736" style="stroke: #000000"/>
      </g>
     </g>
     <g id="text_9">
      <text style="font: 8.8px 'DejaVu Sans', 'Bitstream Vera Sans', 'Computer Modern Sans Serif', 'Lucida Grande', 'Verdana', 'Geneva', 'Lucid', 'Arial', 'Helvetica', 'Avant Garde', sans-serif; text-anchor: end" x="27.28575" y="56.402048" transform="rotate(-0 27.28575 56.402048)">0.8</text>
     </g>
    </g>
    <g id="ytick_4">
     <g id="line2d_55">
      <path d="M 35.58575 18.200077 
L 188.533451 18.200077 
" clip-path="url(#p917f8261c4)" style="fill: none; stroke: #b0b0b0; stroke-width: 0.6; stroke-linecap: square"/>
     </g>
     <g id="line2d_56">
      <g>
       <use xlink:href="#mbe4f6bb7f7" x="35.58575" y="18.200077" style="stroke: #000000"/>
      </g>
     </g>
     <g id="text_10">
      <text style="font: 8.8px 'DejaVu Sans', 'Bitstream Vera Sans', 'Computer Modern Sans Serif', 'Lucida Grande', 'Verdana', 'Geneva', 'Lucid', 'Arial', 'Helvetica', 'Avant Garde', sans-serif; text-anchor: end" x="27.28575" y="21.54339" transform="rotate(-0 27.28575 21.54339)">1.0</text>
     </g>
    </g>
    <g id="text_11">
     <text style="font: 9.6px 'DejaVu Sans', 'Bitstream Vera Sans', 'Computer Modern Sans Serif', 'Lucida Grande', 'Verdana', 'Geneva', 'Lucid', 'Arial', 'Helvetica', 'Avant Garde', sans-serif; text-anchor: middle" x="7.2945" y="79.413348" transform="rotate(-90 7.2945 79.413348)">Reflectance</text>
    </g>
   </g>
   <g id="line2d_57">
    <path d="M 39.457844 18.200077 
L 40.333428 21.259247 
L 41.222212 23.590195 
L 42.428134 25.893305 
L 43.348496 27.078757 
L 43.969766 27.603315 
L 44.913369 27.938615 
L 45.871196 27.692113 
L 46.843462 27.098511 
L 47.499769 26.512338 
L 48.496587 25.377528 
L 49.849091 23.540291 
L 52.281883 20.15613 
L 53.710663 18.636654 
L 54.801111 18.200077 
L 55.537193 18.295362 
L 55.907997 18.372998 
L 58.17208 18.20685 
L 64.551583 18.202665 
L 65.805458 18.384317 
L 66.651859 18.872176 
L 68.80517 20.287222 
L 69.242314 20.872902 
L 69.681643 21.880093 
L 70.123169 23.23419 
L 70.566903 25.272328 
L 71.012855 28.547815 
L 72.364136 42.438415 
L 72.819074 45.088355 
L 73.276287 46.132829 
L 73.735787 45.90108 
L 74.197583 43.867489 
L 75.128115 36.954617 
L 75.596874 34.992832 
L 77.976058 27.711387 
L 78.944469 25.71242 
L 79.922588 24.205262 
L 80.910514 23.045717 
L 82.916175 21.246177 
L 84.446899 20.272617 
L 86.000699 19.580214 
L 89.717936 18.535324 
L 91.901072 18.200077 
L 95.827945 18.257031 
L 98.1342 18.740806 
L 99.304697 19.145977 
L 99.894338 19.509953 
L 100.486928 20.038673 
L 101.08248 21.00707 
L 101.68101 22.641662 
L 102.282533 25.463158 
L 102.887064 30.321101 
L 104.105208 44.745063 
L 104.718852 47.239797 
L 105.335564 45.244435 
L 106.578254 38.309571 
L 107.204263 35.534312 
L 107.833402 33.318348 
L 109.101133 29.891591 
L 111.026599 25.498254 
L 112.326342 22.944796 
L 113.639115 20.990235 
L 114.300428 20.292022 
L 115.632991 19.403077 
L 116.978913 18.820259 
L 118.338328 18.444909 
L 120.403045 18.200077 
L 121.796787 18.200077 
L 122.498889 18.327797 
L 123.204501 18.607449 
L 123.913641 19.262236 
L 125.342577 21.554204 
L 126.062407 22.037997 
L 126.785837 22.981497 
L 127.512884 25.960509 
L 128.243567 29.94751 
L 128.977902 31.042005 
L 129.715909 27.421797 
L 130.457607 22.520183 
L 131.203013 19.419168 
L 131.952146 18.200077 
L 132.705024 18.200077 
L 133.461667 18.638223 
L 134.222093 19.429725 
L 134.986321 20.551386 
L 135.754371 21.879487 
L 136.526261 22.610978 
L 137.30201 22.178295 
L 138.865163 20.231586 
L 139.652607 19.498165 
L 140.443988 19.095296 
L 141.239326 19.17485 
L 142.03864 19.595889 
L 142.841951 19.751035 
L 143.649279 19.381078 
L 145.276064 18.445478 
L 146.095562 18.200077 
L 147.746871 18.200077 
L 148.578723 18.40329 
L 149.414735 19.075055 
L 150.254926 20.384477 
L 151.099319 22.563706 
L 151.947933 25.932731 
L 152.800791 31.222796 
L 153.657912 39.570955 
L 154.51932 51.593025 
L 155.385034 67.535044 
L 157.12947 106.522094 
L 158.008236 121.82734 
L 158.891395 131.999095 
L 159.778969 137.856927 
L 160.670982 140.521217 
L 161.567455 140.62662 
L 162.46841 137.177399 
L 165.198394 116.648762 
L 167.041209 107.067033 
L 167.969533 102.8121 
L 170.782447 91.975979 
L 171.729477 88.272993 
L 172.681242 83.908649 
L 174.599073 72.831722 
L 176.53613 59.84017 
L 178.492606 44.568526 
L 180.468695 27.777616 
L 181.464157 18.200077 
L 181.464157 18.200077 
" clip-path="url(#p917f8261c4)" style="fill: none; stroke: #1f77b4; stroke-width: 0.5; stroke-linecap: square"/>
   </g>
   <g id="line2d_58"/>
   <g id="patch_3">
    <path d="M 35.58575 146.747947 
L 35.58575 12.07875 
" style="fill: none; stroke: #000000; stroke-linejoin: miter; stroke-linecap: square"/>
   </g>
   <g id="patch_4">
    <path d="M 188.533451 146.747947 
L 188.533451 12.07875 
" style="fill: none; stroke: #000000; stroke-linejoin: miter; stroke-linecap: square"/>
   </g>
   <g id="patch_5">
    <path d="M 35.58575 146.747947 
L 188.533451 146.747947 
" style="fill: none; stroke: #000000; stroke-linejoin: miter; stroke-linecap: square"/>
   </g>
   <g id="patch_6">
    <path d="M 35.58575 12.07875 
L 188.533451 12.07875 
" style="fill: none; stroke: #000000; stroke-linejoin: miter; stroke-linecap: square"/>
   </g>
   <g id="text_12">
    <text style="font: 8px 'DejaVu Sans', 'Bitstream Vera Sans', 'Computer Modern Sans Serif', 'Lucida Grande', 'Verdana', 'Geneva', 'Lucid', 'Arial', 'Helvetica', 'Avant Garde', sans-serif; text-anchor: middle" x="112.0596" y="6.07875" transform="rotate(-0 112.0596 6.07875)">Laboratory Phyllosilicate Nontronite</text>
   </g>
   <g id="legend_1">
    <g id="patch_7">
     <path d="M 195.792405 84.716786 
L 270.930217 84.716786 
Q 272.130217 84.716786 272.130217 83.516786 
L 272.130217 75.309911 
Q 272.130217 74.109911 270.930217 74.109911 
L 195.792405 74.109911 
Q 194.592405 74.109911 194.592405 75.309911 
L 194.592405 83.516786 
Q 194.592405 84.716786 195.792405 84.716786 
z
" style="fill: #ffffff; opacity: 0.8; stroke: #cccccc; stroke-width: 0.8; stroke-linejoin: miter"/>
    </g>
    <g id="line2d_59">
     <path d="M 196.992405 78.968973 
L 202.992405 78.968973 
L 208.992405 78.968973 
" style="fill: none; stroke: #1f77b4; stroke-width: 1.2; stroke-linecap: square"/>
    </g>
    <g id="text_13">
     <text style="font: 6px 'DejaVu Sans', 'Bitstream Vera Sans', 'Computer Modern Sans Serif', 'Lucida Grande', 'Verdana', 'Geneva', 'Lucid', 'Arial', 'Helvetica', 'Avant Garde', sans-serif; text-anchor: start" x="213.792405" y="81.068973" transform="rotate(-0 213.792405 81.068973)">Nontronite NCJB26</text>
    </g>
   </g>
  </g>
 </g>
 <defs>
  <clipPath id="p917f8261c4">
   <rect x="35.58575" y="12.07875" width="152.947701" height="134.669197"/>
  </clipPath>
 </defs>
</svg>
