<?xml version="1.0" encoding="utf-8" standalone="no"?>
<!DOCTYPE svg PUBLIC "-//W3C//DTD SVG 1.1//EN"
  "http://www.w3.org/Graphics/SVG/1.1/DTD/svg11.dtd">
<svg xmlns:xlink="http://www.w3.org/1999/xlink" width="272.452705pt" height="176.645947pt" viewBox="0 0 272.452705 176.645947" xmlns="http://www.w3.org/2000/svg" version="1.1">
 <metadata>
  <rdf:RDF xmlns:dc="http://purl.org/dc/elements/1.1/" xmlns:cc="http://creativecommons.org/ns#" xmlns:rdf="http://www.w3.org/1999/02/22-rdf-syntax-ns#">
   <cc:Work>
    <dc:type rdf:resource="http://purl.org/dc/dcmitype/StillImage"/>
    <dc:date>2025-02-12T17:08:02.253099</dc:date>
    <dc:format>image/svg+xml</dc:format>
    <dc:creator>
     <cc:Agent>
      <dc:title>Matplotlib v3.6.2, https://matplotlib.org/</dc:title>
     </cc:Agent>
    </dc:creator>
   </cc:Work>
  </rdf:RDF>
 </metadata>
 <defs>
  <style type="text/css">*{stroke-linejoin: round; stroke-linecap: butt}</style>
 </defs>
 <g id="figure_1">
  <g id="patch_1">
   <path d="M 0 176.645947 
L 272.452705 176.645947 
L 272.452705 0 
L 0 0 
z
" style="fill: #ffffff"/>
  </g>
  <g id="axes_1">
   <g id="patch_2">
    <path d="M 41.18475 146.538197 
L 205.322451 146.538197 
L 205.322451 21.037 
L 41.18475 21.037 
z
" style="fill: #ffffff"/>
   </g>
   <g id="matplotlib.axis_1">
    <g id="xtick_1">
     <g id="line2d_1">
      <path d="M 52.265776 146.538197 
L 52.265776 21.037 
" clip-path="url(#p9e84aac155)" style="fill: none; stroke: #b0b0b0; stroke-width: 0.6; stroke-linecap: square"/>
     </g>
     <g id="line2d_2">
      <defs>
       <path id="m1a915d6ae9" d="M 0 0 
L 0 4.8 
" style="stroke: #000000"/>
      </defs>
      <g>
       <use xlink:href="#m1a915d6ae9" x="52.265776" y="146.538197" style="stroke: #000000"/>
      </g>
     </g>
     <g id="text_1">
      <text style="font: 8.8px 'DejaVu Sans', 'Bitstream Vera Sans', 'Computer Modern Sans Serif', 'Lucida Grande', 'Verdana', 'Geneva', 'Lucid', 'Arial', 'Helvetica', 'Avant Garde', sans-serif; text-anchor: middle" x="52.265776" y="161.524822" transform="rotate(-0 52.265776 161.524822)">1000</text>
     </g>
    </g>
    <g id="xtick_2">
     <g id="line2d_3">
      <path d="M 86.893983 146.538197 
L 86.893983 21.037 
" clip-path="url(#p9e84aac155)" style="fill: none; stroke: #b0b0b0; stroke-width: 0.6; stroke-linecap: square"/>
     </g>
     <g id="line2d_4">
      <g>
       <use xlink:href="#m1a915d6ae9" x="86.893983" y="146.538197" style="stroke: #000000"/>
      </g>
     </g>
     <g id="text_2">
      <text style="font: 8.8px 'DejaVu Sans', 'Bitstream Vera Sans', 'Computer Modern Sans Serif', 'Lucida Grande', 'Verdana', 'Geneva', 'Lucid', 'Arial', 'Helvetica', 'Avant Garde', sans-serif; text-anchor: middle" x="86.893983" y="161.524822" transform="rotate(-0 86.893983 161.524822)">1500</text>
     </g>
    </g>
    <g id="xtick_3">
     <g id="line2d_5">
      <path d="M 121.52219 146.538197 
L 121.52219 21.037 
" clip-path="url(#p9e84aac155)" style="fill: none; stroke: #b0b0b0; stroke-width: 0.6; stroke-linecap: square"/>
     </g>
     <g id="line2d_6">
      <g>
       <use xlink:href="#m1a915d6ae9" x="121.52219" y="146.538197" style="stroke: #000000"/>
      </g>
     </g>
     <g id="text_3">
      <text style="font: 8.8px 'DejaVu Sans', 'Bitstream Vera Sans', 'Computer Modern Sans Serif', 'Lucida Grande', 'Verdana', 'Geneva', 'Lucid', 'Arial', 'Helvetica', 'Avant Garde', sans-serif; text-anchor: middle" x="121.52219" y="161.524822" transform="rotate(-0 121.52219 161.524822)">2000</text>
     </g>
    </g>
    <g id="xtick_4">
     <g id="line2d_7">
      <path d="M 156.150397 146.538197 
L 156.150397 21.037 
" clip-path="url(#p9e84aac155)" style="fill: none; stroke: #b0b0b0; stroke-width: 0.6; stroke-linecap: square"/>
     </g>
     <g id="line2d_8">
      <g>
       <use xlink:href="#m1a915d6ae9" x="156.150397" y="146.538197" style="stroke: #000000"/>
      </g>
     </g>
     <g id="text_4">
      <text style="font: 8.8px 'DejaVu Sans', 'Bitstream Vera Sans', 'Computer Modern Sans Serif', 'Lucida Grande', 'Verdana', 'Geneva', 'Lucid', 'Arial', 'Helvetica', 'Avant Garde', sans-serif; text-anchor: middle" x="156.150397" y="161.524822" transform="rotate(-0 156.150397 161.524822)">2500</text>
     </g>
    </g>
    <g id="xtick_5">
     <g id="line2d_9">
      <path d="M 190.778604 146.538197 
L 190.778604 21.037 
" clip-path="url(#p9e84aac155)" style="fill: none; stroke: #b0b0b0; stroke-width: 0.6; stroke-linecap: square"/>
     </g>
     <g id="line2d_10">
      <g>
       <use xlink:href="#m1a915d6ae9" x="190.778604" y="146.538197" style="stroke: #000000"/>
      </g>
     </g>
     <g id="text_5">
      <text style="font: 8.8px 'DejaVu Sans', 'Bitstream Vera Sans', 'Computer Modern Sans Serif', 'Lucida Grande', 'Verdana', 'Geneva', 'Lucid', 'Arial', 'Helvetica', 'Avant Garde', sans-serif; text-anchor: middle" x="190.778604" y="161.524822" transform="rotate(-0 190.778604 161.524822)">3000</text>
     </g>
    </g>
    <g id="xtick_6">
     <g id="line2d_11">
      <path d="M 45.340135 146.538197 
L 45.340135 21.037 
" clip-path="url(#p9e84aac155)" style="fill: none; stroke: #b0b0b0; stroke-width: 0.3; stroke-linecap: square"/>
     </g>
     <g id="line2d_12">
      <defs>
       <path id="m3492f191bb" d="M 0 0 
L 0 3.2 
" style="stroke: #000000; stroke-width: 0.8"/>
      </defs>
      <g>
       <use xlink:href="#m3492f191bb" x="45.340135" y="146.538197" style="stroke: #000000; stroke-width: 0.8"/>
      </g>
     </g>
    </g>
    <g id="xtick_7">
     <g id="line2d_13">
      <path d="M 59.191418 146.538197 
L 59.191418 21.037 
" clip-path="url(#p9e84aac155)" style="fill: none; stroke: #b0b0b0; stroke-width: 0.3; stroke-linecap: square"/>
     </g>
     <g id="line2d_14">
      <g>
       <use xlink:href="#m3492f191bb" x="59.191418" y="146.538197" style="stroke: #000000; stroke-width: 0.8"/>
      </g>
     </g>
    </g>
    <g id="xtick_8">
     <g id="line2d_15">
      <path d="M 66.117059 146.538197 
L 66.117059 21.037 
" clip-path="url(#p9e84aac155)" style="fill: none; stroke: #b0b0b0; stroke-width: 0.3; stroke-linecap: square"/>
     </g>
     <g id="line2d_16">
      <g>
       <use xlink:href="#m3492f191bb" x="66.117059" y="146.538197" style="stroke: #000000; stroke-width: 0.8"/>
      </g>
     </g>
    </g>
    <g id="xtick_9">
     <g id="line2d_17">
      <path d="M 73.0427 146.538197 
L 73.0427 21.037 
" clip-path="url(#p9e84aac155)" style="fill: none; stroke: #b0b0b0; stroke-width: 0.3; stroke-linecap: square"/>
     </g>
     <g id="line2d_18">
      <g>
       <use xlink:href="#m3492f191bb" x="73.0427" y="146.538197" style="stroke: #000000; stroke-width: 0.8"/>
      </g>
     </g>
    </g>
    <g id="xtick_10">
     <g id="line2d_19">
      <path d="M 79.968342 146.538197 
L 79.968342 21.037 
" clip-path="url(#p9e84aac155)" style="fill: none; stroke: #b0b0b0; stroke-width: 0.3; stroke-linecap: square"/>
     </g>
     <g id="line2d_20">
      <g>
       <use xlink:href="#m3492f191bb" x="79.968342" y="146.538197" style="stroke: #000000; stroke-width: 0.8"/>
      </g>
     </g>
    </g>
    <g id="xtick_11">
     <g id="line2d_21">
      <path d="M 93.819625 146.538197 
L 93.819625 21.037 
" clip-path="url(#p9e84aac155)" style="fill: none; stroke: #b0b0b0; stroke-width: 0.3; stroke-linecap: square"/>
     </g>
     <g id="line2d_22">
      <g>
       <use xlink:href="#m3492f191bb" x="93.819625" y="146.538197" style="stroke: #000000; stroke-width: 0.8"/>
      </g>
     </g>
    </g>
    <g id="xtick_12">
     <g id="line2d_23">
      <path d="M 100.745266 146.538197 
L 100.745266 21.037 
" clip-path="url(#p9e84aac155)" style="fill: none; stroke: #b0b0b0; stroke-width: 0.3; stroke-linecap: square"/>
     </g>
     <g id="line2d_24">
      <g>
       <use xlink:href="#m3492f191bb" x="100.745266" y="146.538197" style="stroke: #000000; stroke-width: 0.8"/>
      </g>
     </g>
    </g>
    <g id="xtick_13">
     <g id="line2d_25">
      <path d="M 107.670907 146.538197 
L 107.670907 21.037 
" clip-path="url(#p9e84aac155)" style="fill: none; stroke: #b0b0b0; stroke-width: 0.3; stroke-linecap: square"/>
     </g>
     <g id="line2d_26">
      <g>
       <use xlink:href="#m3492f191bb" x="107.670907" y="146.538197" style="stroke: #000000; stroke-width: 0.8"/>
      </g>
     </g>
    </g>
    <g id="xtick_14">
     <g id="line2d_27">
      <path d="M 114.596549 146.538197 
L 114.596549 21.037 
" clip-path="url(#p9e84aac155)" style="fill: none; stroke: #b0b0b0; stroke-width: 0.3; stroke-linecap: square"/>
     </g>
     <g id="line2d_28">
      <g>
       <use xlink:href="#m3492f191bb" x="114.596549" y="146.538197" style="stroke: #000000; stroke-width: 0.8"/>
      </g>
     </g>
    </g>
    <g id="xtick_15">
     <g id="line2d_29">
      <path d="M 128.447831 146.538197 
L 128.447831 21.037 
" clip-path="url(#p9e84aac155)" style="fill: none; stroke: #b0b0b0; stroke-width: 0.3; stroke-linecap: square"/>
     </g>
     <g id="line2d_30">
      <g>
       <use xlink:href="#m3492f191bb" x="128.447831" y="146.538197" style="stroke: #000000; stroke-width: 0.8"/>
      </g>
     </g>
    </g>
    <g id="xtick_16">
     <g id="line2d_31">
      <path d="M 135.373473 146.538197 
L 135.373473 21.037 
" clip-path="url(#p9e84aac155)" style="fill: none; stroke: #b0b0b0; stroke-width: 0.3; stroke-linecap: square"/>
     </g>
     <g id="line2d_32">
      <g>
       <use xlink:href="#m3492f191bb" x="135.373473" y="146.538197" style="stroke: #000000; stroke-width: 0.8"/>
      </g>
     </g>
    </g>
    <g id="xtick_17">
     <g id="line2d_33">
      <path d="M 142.299114 146.538197 
L 142.299114 21.037 
" clip-path="url(#p9e84aac155)" style="fill: none; stroke: #b0b0b0; stroke-width: 0.3; stroke-linecap: square"/>
     </g>
     <g id="line2d_34">
      <g>
       <use xlink:href="#m3492f191bb" x="142.299114" y="146.538197" style="stroke: #000000; stroke-width: 0.8"/>
      </g>
     </g>
    </g>
    <g id="xtick_18">
     <g id="line2d_35">
      <path d="M 149.224756 146.538197 
L 149.224756 21.037 
" clip-path="url(#p9e84aac155)" style="fill: none; stroke: #b0b0b0; stroke-width: 0.3; stroke-linecap: square"/>
     </g>
     <g id="line2d_36">
      <g>
       <use xlink:href="#m3492f191bb" x="149.224756" y="146.538197" style="stroke: #000000; stroke-width: 0.8"/>
      </g>
     </g>
    </g>
    <g id="xtick_19">
     <g id="line2d_37">
      <path d="M 163.076038 146.538197 
L 163.076038 21.037 
" clip-path="url(#p9e84aac155)" style="fill: none; stroke: #b0b0b0; stroke-width: 0.3; stroke-linecap: square"/>
     </g>
     <g id="line2d_38">
      <g>
       <use xlink:href="#m3492f191bb" x="163.076038" y="146.538197" style="stroke: #000000; stroke-width: 0.8"/>
      </g>
     </g>
    </g>
    <g id="xtick_20">
     <g id="line2d_39">
      <path d="M 170.00168 146.538197 
L 170.00168 21.037 
" clip-path="url(#p9e84aac155)" style="fill: none; stroke: #b0b0b0; stroke-width: 0.3; stroke-linecap: square"/>
     </g>
     <g id="line2d_40">
      <g>
       <use xlink:href="#m3492f191bb" x="170.00168" y="146.538197" style="stroke: #000000; stroke-width: 0.8"/>
      </g>
     </g>
    </g>
    <g id="xtick_21">
     <g id="line2d_41">
      <path d="M 176.927321 146.538197 
L 176.927321 21.037 
" clip-path="url(#p9e84aac155)" style="fill: none; stroke: #b0b0b0; stroke-width: 0.3; stroke-linecap: square"/>
     </g>
     <g id="line2d_42">
      <g>
       <use xlink:href="#m3492f191bb" x="176.927321" y="146.538197" style="stroke: #000000; stroke-width: 0.8"/>
      </g>
     </g>
    </g>
    <g id="xtick_22">
     <g id="line2d_43">
      <path d="M 183.852962 146.538197 
L 183.852962 21.037 
" clip-path="url(#p9e84aac155)" style="fill: none; stroke: #b0b0b0; stroke-width: 0.3; stroke-linecap: square"/>
     </g>
     <g id="line2d_44">
      <g>
       <use xlink:href="#m3492f191bb" x="183.852962" y="146.538197" style="stroke: #000000; stroke-width: 0.8"/>
      </g>
     </g>
    </g>
    <g id="xtick_23">
     <g id="line2d_45">
      <path d="M 197.704245 146.538197 
L 197.704245 21.037 
" clip-path="url(#p9e84aac155)" style="fill: none; stroke: #b0b0b0; stroke-width: 0.3; stroke-linecap: square"/>
     </g>
     <g id="line2d_46">
      <g>
       <use xlink:href="#m3492f191bb" x="197.704245" y="146.538197" style="stroke: #000000; stroke-width: 0.8"/>
      </g>
     </g>
    </g>
    <g id="xtick_24">
     <g id="line2d_47">
      <path d="M 204.629887 146.538197 
L 204.629887 21.037 
" clip-path="url(#p9e84aac155)" style="fill: none; stroke: #b0b0b0; stroke-width: 0.3; stroke-linecap: square"/>
     </g>
     <g id="line2d_48">
      <g>
       <use xlink:href="#m3492f191bb" x="204.629887" y="146.538197" style="stroke: #000000; stroke-width: 0.8"/>
      </g>
     </g>
    </g>
    <g id="text_6">
     <text style="font: 9.6px 'DejaVu Sans', 'Bitstream Vera Sans', 'Computer Modern Sans Serif', 'Lucida Grande', 'Verdana', 'Geneva', 'Lucid', 'Arial', 'Helvetica', 'Avant Garde', sans-serif; text-anchor: middle" x="123.2536" y="174.649447" transform="rotate(-0 123.2536 174.649447)">Wavelength (nm)</text>
    </g>
   </g>
   <g id="matplotlib.axis_2">
    <g id="ytick_1">
     <g id="line2d_49">
      <path d="M 41.18475 144.644 
L 205.322451 144.644 
" clip-path="url(#p9e84aac155)" style="fill: none; stroke: #b0b0b0; stroke-width: 0.6; stroke-linecap: square"/>
     </g>
     <g id="line2d_50">
      <defs>
       <path id="m6d3456bd3e" d="M 0 0 
L -4.8 0 
" style="stroke: #000000"/>
      </defs>
      <g>
       <use xlink:href="#m6d3456bd3e" x="41.18475" y="144.644" style="stroke: #000000"/>
      </g>
     </g>
     <g id="text_7">
      <text style="font: 8.8px 'DejaVu Sans', 'Bitstream Vera Sans', 'Computer Modern Sans Serif', 'Lucida Grande', 'Verdana', 'Geneva', 'Lucid', 'Arial', 'Helvetica', 'Avant Garde', sans-serif; text-anchor: end" x="32.88475" y="147.987312" transform="rotate(-0 32.88475 147.987312)">0.96</text>
     </g>
    </g>
    <g id="ytick_2">
     <g id="line2d_51">
      <path d="M 41.18475 115.1684 
L 205.322451 115.1684 
" clip-path="url(#p9e84aac155)" style="fill: none; stroke: #b0b0b0; stroke-width: 0.6; stroke-linecap: square"/>
     </g>
     <g id="line2d_52">
      <g>
       <use xlink:href="#m6d3456bd3e" x="41.18475" y="115.1684" style="stroke: #000000"/>
      </g>
     </g>
     <g id="text_8">
      <text style="font: 8.8px 'DejaVu Sans', 'Bitstream Vera Sans', 'Computer Modern Sans Serif', 'Lucida Grande', 'Verdana', 'Geneva', 'Lucid', 'Arial', 'Helvetica', 'Avant Garde', sans-serif; text-anchor: end" x="32.88475" y="118.511712" transform="rotate(-0 32.88475 118.511712)">0.97</text>
     </g>
    </g>
    <g id="ytick_3">
     <g id="line2d_53">
      <path d="M 41.18475 85.6928 
L 205.322451 85.6928 
" clip-path="url(#p9e84aac155)" style="fill: none; stroke: #b0b0b0; stroke-width: 0.6; stroke-linecap: square"/>
     </g>
     <g id="line2d_54">
      <g>
       <use xlink:href="#m6d3456bd3e" x="41.18475" y="85.6928" style="stroke: #000000"/>
      </g>
     </g>
     <g id="text_9">
      <text style="font: 8.8px 'DejaVu Sans', 'Bitstream Vera Sans', 'Computer Modern Sans Serif', 'Lucida Grande', 'Verdana', 'Geneva', 'Lucid', 'Arial', 'Helvetica', 'Avant Garde', sans-serif; text-anchor: end" x="32.88475" y="89.036112" transform="rotate(-0 32.88475 89.036112)">0.98</text>
     </g>
    </g>
    <g id="ytick_4">
     <g id="line2d_55">
      <path d="M 41.18475 56.2172 
L 205.322451 56.2172 
" clip-path="url(#p9e84aac155)" style="fill: none; stroke: #b0b0b0; stroke-width: 0.6; stroke-linecap: square"/>
     </g>
     <g id="line2d_56">
      <g>
       <use xlink:href="#m6d3456bd3e" x="41.18475" y="56.2172" style="stroke: #000000"/>
      </g>
     </g>
     <g id="text_10">
      <text style="font: 8.8px 'DejaVu Sans', 'Bitstream Vera Sans', 'Computer Modern Sans Serif', 'Lucida Grande', 'Verdana', 'Geneva', 'Lucid', 'Arial', 'Helvetica', 'Avant Garde', sans-serif; text-anchor: end" x="32.88475" y="59.560512" transform="rotate(-0 32.88475 59.560512)">0.99</text>
     </g>
    </g>
    <g id="ytick_5">
     <g id="line2d_57">
      <path d="M 41.18475 26.7416 
L 205.322451 26.7416 
" clip-path="url(#p9e84aac155)" style="fill: none; stroke: #b0b0b0; stroke-width: 0.6; stroke-linecap: square"/>
     </g>
     <g id="line2d_58">
      <g>
       <use xlink:href="#m6d3456bd3e" x="41.18475" y="26.7416" style="stroke: #000000"/>
      </g>
     </g>
     <g id="text_11">
      <text style="font: 8.8px 'DejaVu Sans', 'Bitstream Vera Sans', 'Computer Modern Sans Serif', 'Lucida Grande', 'Verdana', 'Geneva', 'Lucid', 'Arial', 'Helvetica', 'Avant Garde', sans-serif; text-anchor: end" x="32.88475" y="30.084912" transform="rotate(-0 32.88475 30.084912)">1.00</text>
     </g>
    </g>
    <g id="text_12">
     <text style="font: 9.6px 'DejaVu Sans', 'Bitstream Vera Sans', 'Computer Modern Sans Serif', 'Lucida Grande', 'Verdana', 'Geneva', 'Lucid', 'Arial', 'Helvetica', 'Avant Garde', sans-serif; text-anchor: middle" x="7.2945" y="83.787598" transform="rotate(-90 7.2945 83.787598)">Reflectance</text>
    </g>
   </g>
   <g id="line2d_59">
    <path d="M 45.340135 26.7416 
L 46.279779 30.900394 
L 46.596131 30.536081 
L 47.233588 27.470428 
L 47.55471 26.795411 
L 47.877436 28.142352 
L 48.527739 34.153033 
L 48.855331 34.074543 
L 49.515436 28.53559 
L 49.847967 27.638824 
L 50.18216 27.117316 
L 50.518024 27.931332 
L 50.855567 30.738145 
L 51.194798 31.659383 
L 51.535725 29.99377 
L 51.878357 29.739901 
L 52.222702 32.555029 
L 52.568769 33.547728 
L 52.916566 32.605913 
L 53.266102 31.288692 
L 53.617386 31.213704 
L 54.325231 35.85654 
L 54.68181 36.209166 
L 55.400327 33.489249 
L 55.762281 33.934847 
L 56.126046 33.660494 
L 56.859041 29.239551 
L 57.228289 29.368912 
L 57.972334 34.176184 
L 58.347149 33.543024 
L 58.723838 30.419811 
L 59.10241 29.277616 
L 60.249522 28.131883 
L 60.635723 28.512882 
L 61.023855 30.066136 
L 61.413927 30.771649 
L 62.199933 33.174261 
L 62.595886 32.621406 
L 62.993819 31.534146 
L 63.795663 27.144692 
L 64.199594 26.7416 
L 64.605545 27.366505 
L 65.423547 32.140892 
L 65.835618 33.495769 
L 66.665951 29.949094 
L 67.084234 30.072696 
L 67.927085 33.186546 
L 68.778385 34.777547 
L 69.20723 33.821219 
L 70.506674 26.976142 
L 70.94416 26.7416 
L 71.383834 27.510115 
L 72.269788 29.902954 
L 72.716091 31.082935 
L 73.164624 31.752459 
L 73.615401 31.67759 
L 74.068431 32.4253 
L 74.523726 32.514579 
L 75.441158 32.968042 
L 76.367786 34.884123 
L 76.834578 36.488717 
L 77.775176 37.248666 
L 78.249005 37.927275 
L 78.725203 39.002727 
L 80.168132 50.122375 
L 81.632812 54.968997 
L 82.12593 57.59579 
L 82.621512 61.25857 
L 83.119573 63.440959 
L 83.620124 63.955597 
L 84.123178 63.977814 
L 84.628747 62.153186 
L 85.136844 59.691392 
L 86.160672 52.196372 
L 87.194764 48.575106 
L 87.715691 47.080433 
L 88.239223 46.243465 
L 88.765372 43.755808 
L 89.294152 39.807851 
L 89.825576 37.419758 
L 90.359657 36.221441 
L 90.896408 34.536181 
L 91.435844 33.563944 
L 91.977976 34.932474 
L 92.522819 34.605215 
L 93.070386 33.447621 
L 93.620692 34.634013 
L 94.173748 36.263819 
L 94.72957 35.766441 
L 95.288171 34.238607 
L 95.849565 34.401363 
L 96.980788 38.16725 
L 97.550645 38.021423 
L 98.698922 34.350626 
L 99.27737 35.992523 
L 99.85871 38.041148 
L 100.442956 37.485963 
L 101.620228 31.956957 
L 103.408302 26.758094 
L 104.010296 26.7416 
L 104.615301 27.242838 
L 105.223331 29.909592 
L 106.448526 38.645863 
L 107.065722 39.655865 
L 107.686003 38.823378 
L 108.309387 39.788864 
L 108.935887 42.485456 
L 109.565519 42.996375 
L 110.1983 42.753847 
L 110.834245 44.894036 
L 111.473369 48.599434 
L 112.761221 61.266551 
L 113.40998 70.069872 
L 114.717246 97.955865 
L 116.037618 124.149697 
L 116.702759 132.678296 
L 117.371226 137.062362 
L 118.043036 140.236021 
L 118.718204 140.833597 
L 119.396748 138.782227 
L 120.078685 135.275259 
L 120.764032 128.122206 
L 121.452805 116.407377 
L 122.145022 101.208317 
L 122.8407 89.079114 
L 124.24251 70.966648 
L 124.948675 63.898156 
L 125.658372 59.265041 
L 127.088428 46.814611 
L 127.808824 42.253333 
L 128.532821 39.060521 
L 129.991694 29.76053 
L 130.726605 28.132252 
L 131.465191 28.470649 
L 133.703182 30.585862 
L 134.456651 31.662493 
L 135.97491 35.696896 
L 136.739738 35.33697 
L 137.508389 34.788808 
L 139.057242 30.63624 
L 139.837482 29.384905 
L 140.621622 27.681711 
L 141.409683 27.753453 
L 142.201685 27.141264 
L 142.997647 26.7416 
L 143.797588 29.663391 
L 144.601529 31.311491 
L 146.221491 26.7416 
L 147.037551 26.7416 
L 147.857692 28.416336 
L 148.681934 30.46735 
L 149.510297 31.345313 
L 150.342801 30.478766 
L 151.179469 31.14743 
L 152.020319 32.623147 
L 152.865374 32.873567 
L 153.714654 31.856745 
L 155.425975 27.45705 
L 156.288058 26.7416 
L 158.025177 26.7416 
L 158.025177 26.7416 
" clip-path="url(#p9e84aac155)" style="fill: none; stroke: #1f77b4; stroke-width: 0.5; stroke-linecap: square"/>
   </g>
   <g id="line2d_60"/>
   <g id="patch_3">
    <path d="M 41.18475 146.538197 
L 41.18475 21.037 
" style="fill: none; stroke: #000000; stroke-linejoin: miter; stroke-linecap: square"/>
   </g>
   <g id="patch_4">
    <path d="M 205.322451 146.538197 
L 205.322451 21.037 
" style="fill: none; stroke: #000000; stroke-linejoin: miter; stroke-linecap: square"/>
   </g>
   <g id="patch_5">
    <path d="M 41.18475 146.538197 
L 205.322451 146.538197 
" style="fill: none; stroke: #000000; stroke-linejoin: miter; stroke-linecap: square"/>
   </g>
   <g id="patch_6">
    <path d="M 41.18475 21.037 
L 205.322451 21.037 
" style="fill: none; stroke: #000000; stroke-linejoin: miter; stroke-linecap: square"/>
   </g>
   <g id="text_13">
    <text style="font: 8px 'DejaVu Sans', 'Bitstream Vera Sans', 'Computer Modern Sans Serif', 'Lucida Grande', 'Verdana', 'Geneva', 'Lucid', 'Arial', 'Helvetica', 'Avant Garde', sans-serif" transform="translate(62.889225 6.07875)">Laboratory Hydrated silicates </text>
    <text style="font: 8px 'DejaVu Sans', 'Bitstream Vera Sans', 'Computer Modern Sans Serif', 'Lucida Grande', 'Verdana', 'Geneva', 'Lucid', 'Arial', 'Helvetica', 'Avant Garde', sans-serif" transform="translate(78.657975 15.037)"> &amp; halides Halite_mica</text>
   </g>
   <g id="legend_1">
    <g id="patch_7">
     <path d="M 212.805205 89.091036 
L 271.252705 89.091036 
Q 272.452705 89.091036 272.452705 87.891036 
L 272.452705 79.684161 
Q 272.452705 78.484161 271.252705 78.484161 
L 212.805205 78.484161 
Q 211.605205 78.484161 211.605205 79.684161 
L 211.605205 87.891036 
Q 211.605205 89.091036 212.805205 89.091036 
z
" style="fill: #ffffff; opacity: 0.8; stroke: #cccccc; stroke-width: 0.8; stroke-linejoin: miter"/>
    </g>
    <g id="line2d_61">
     <path d="M 214.005205 83.343223 
L 220.005205 83.343223 
L 226.005205 83.343223 
" style="fill: none; stroke: #1f77b4; stroke-width: 1.2; stroke-linecap: square"/>
    </g>
    <g id="text_14">
     <text style="font: 6px 'DejaVu Sans', 'Bitstream Vera Sans', 'Computer Modern Sans Serif', 'Lucida Grande', 'Verdana', 'Geneva', 'Lucid', 'Arial', 'Helvetica', 'Avant Garde', sans-serif; text-anchor: start" x="230.805205" y="85.443223" transform="rotate(-0 230.805205 85.443223)">Halite HS433</text>
    </g>
   </g>
  </g>
 </g>
 <defs>
  <clipPath id="p9e84aac155">
   <rect x="41.18475" y="21.037" width="164.137701" height="125.501197"/>
  </clipPath>
 </defs>
</svg>
