<?xml version="1.0" encoding="utf-8" standalone="no"?>
<!DOCTYPE svg PUBLIC "-//W3C//DTD SVG 1.1//EN"
  "http://www.w3.org/Graphics/SVG/1.1/DTD/svg11.dtd">
<svg xmlns:xlink="http://www.w3.org/1999/xlink" width="272.229705pt" height="176.855697pt" viewBox="0 0 272.229705 176.855697" xmlns="http://www.w3.org/2000/svg" version="1.1">
 <metadata>
  <rdf:RDF xmlns:dc="http://purl.org/dc/elements/1.1/" xmlns:cc="http://creativecommons.org/ns#" xmlns:rdf="http://www.w3.org/1999/02/22-rdf-syntax-ns#">
   <cc:Work>
    <dc:type rdf:resource="http://purl.org/dc/dcmitype/StillImage"/>
    <dc:date>2025-02-12T17:08:00.327615</dc:date>
    <dc:format>image/svg+xml</dc:format>
    <dc:creator>
     <cc:Agent>
      <dc:title>Matplotlib v3.6.2, https://matplotlib.org/</dc:title>
     </cc:Agent>
    </dc:creator>
   </cc:Work>
  </rdf:RDF>
 </metadata>
 <defs>
  <style type="text/css">*{stroke-linejoin: round; stroke-linecap: butt}</style>
 </defs>
 <g id="figure_1">
  <g id="patch_1">
   <path d="M -0 176.855697 
L 272.229705 176.855697 
L 272.229705 0 
L -0 0 
z
" style="fill: #ffffff"/>
  </g>
  <g id="axes_1">
   <g id="patch_2">
    <path d="M 35.58575 146.747947 
L 191.023451 146.747947 
L 191.023451 12.07875 
L 35.58575 12.07875 
z
" style="fill: #ffffff"/>
   </g>
   <g id="matplotlib.axis_1">
    <g id="xtick_1">
     <g id="line2d_1">
      <path d="M 46.079434 146.747947 
L 46.079434 12.07875 
" clip-path="url(#p55e0456029)" style="fill: none; stroke: #b0b0b0; stroke-width: 0.6; stroke-linecap: square"/>
     </g>
     <g id="line2d_2">
      <defs>
       <path id="m32e9e5f59c" d="M 0 0 
L 0 4.8 
" style="stroke: #000000"/>
      </defs>
      <g>
       <use xlink:href="#m32e9e5f59c" x="46.079434" y="146.747947" style="stroke: #000000"/>
      </g>
     </g>
     <g id="text_1">
      <text style="font: 8.8px 'DejaVu Sans', 'Bitstream Vera Sans', 'Computer Modern Sans Serif', 'Lucida Grande', 'Verdana', 'Geneva', 'Lucid', 'Arial', 'Helvetica', 'Avant Garde', sans-serif; text-anchor: middle" x="46.079434" y="161.734572" transform="rotate(-0 46.079434 161.734572)">1000</text>
     </g>
    </g>
    <g id="xtick_2">
     <g id="line2d_3">
      <path d="M 78.872198 146.747947 
L 78.872198 12.07875 
" clip-path="url(#p55e0456029)" style="fill: none; stroke: #b0b0b0; stroke-width: 0.6; stroke-linecap: square"/>
     </g>
     <g id="line2d_4">
      <g>
       <use xlink:href="#m32e9e5f59c" x="78.872198" y="146.747947" style="stroke: #000000"/>
      </g>
     </g>
     <g id="text_2">
      <text style="font: 8.8px 'DejaVu Sans', 'Bitstream Vera Sans', 'Computer Modern Sans Serif', 'Lucida Grande', 'Verdana', 'Geneva', 'Lucid', 'Arial', 'Helvetica', 'Avant Garde', sans-serif; text-anchor: middle" x="78.872198" y="161.734572" transform="rotate(-0 78.872198 161.734572)">1500</text>
     </g>
    </g>
    <g id="xtick_3">
     <g id="line2d_5">
      <path d="M 111.664962 146.747947 
L 111.664962 12.07875 
" clip-path="url(#p55e0456029)" style="fill: none; stroke: #b0b0b0; stroke-width: 0.6; stroke-linecap: square"/>
     </g>
     <g id="line2d_6">
      <g>
       <use xlink:href="#m32e9e5f59c" x="111.664962" y="146.747947" style="stroke: #000000"/>
      </g>
     </g>
     <g id="text_3">
      <text style="font: 8.8px 'DejaVu Sans', 'Bitstream Vera Sans', 'Computer Modern Sans Serif', 'Lucida Grande', 'Verdana', 'Geneva', 'Lucid', 'Arial', 'Helvetica', 'Avant Garde', sans-serif; text-anchor: middle" x="111.664962" y="161.734572" transform="rotate(-0 111.664962 161.734572)">2000</text>
     </g>
    </g>
    <g id="xtick_4">
     <g id="line2d_7">
      <path d="M 144.457726 146.747947 
L 144.457726 12.07875 
" clip-path="url(#p55e0456029)" style="fill: none; stroke: #b0b0b0; stroke-width: 0.6; stroke-linecap: square"/>
     </g>
     <g id="line2d_8">
      <g>
       <use xlink:href="#m32e9e5f59c" x="144.457726" y="146.747947" style="stroke: #000000"/>
      </g>
     </g>
     <g id="text_4">
      <text style="font: 8.8px 'DejaVu Sans', 'Bitstream Vera Sans', 'Computer Modern Sans Serif', 'Lucida Grande', 'Verdana', 'Geneva', 'Lucid', 'Arial', 'Helvetica', 'Avant Garde', sans-serif; text-anchor: middle" x="144.457726" y="161.734572" transform="rotate(-0 144.457726 161.734572)">2500</text>
     </g>
    </g>
    <g id="xtick_5">
     <g id="line2d_9">
      <path d="M 177.25049 146.747947 
L 177.25049 12.07875 
" clip-path="url(#p55e0456029)" style="fill: none; stroke: #b0b0b0; stroke-width: 0.6; stroke-linecap: square"/>
     </g>
     <g id="line2d_10">
      <g>
       <use xlink:href="#m32e9e5f59c" x="177.25049" y="146.747947" style="stroke: #000000"/>
      </g>
     </g>
     <g id="text_5">
      <text style="font: 8.8px 'DejaVu Sans', 'Bitstream Vera Sans', 'Computer Modern Sans Serif', 'Lucida Grande', 'Verdana', 'Geneva', 'Lucid', 'Arial', 'Helvetica', 'Avant Garde', sans-serif; text-anchor: middle" x="177.25049" y="161.734572" transform="rotate(-0 177.25049 161.734572)">3000</text>
     </g>
    </g>
    <g id="xtick_6">
     <g id="line2d_11">
      <path d="M 39.520882 146.747947 
L 39.520882 12.07875 
" clip-path="url(#p55e0456029)" style="fill: none; stroke: #b0b0b0; stroke-width: 0.3; stroke-linecap: square"/>
     </g>
     <g id="line2d_12">
      <defs>
       <path id="m8122808656" d="M 0 0 
L 0 3.2 
" style="stroke: #000000; stroke-width: 0.8"/>
      </defs>
      <g>
       <use xlink:href="#m8122808656" x="39.520882" y="146.747947" style="stroke: #000000; stroke-width: 0.8"/>
      </g>
     </g>
    </g>
    <g id="xtick_7">
     <g id="line2d_13">
      <path d="M 52.637987 146.747947 
L 52.637987 12.07875 
" clip-path="url(#p55e0456029)" style="fill: none; stroke: #b0b0b0; stroke-width: 0.3; stroke-linecap: square"/>
     </g>
     <g id="line2d_14">
      <g>
       <use xlink:href="#m8122808656" x="52.637987" y="146.747947" style="stroke: #000000; stroke-width: 0.8"/>
      </g>
     </g>
    </g>
    <g id="xtick_8">
     <g id="line2d_15">
      <path d="M 59.19654 146.747947 
L 59.19654 12.07875 
" clip-path="url(#p55e0456029)" style="fill: none; stroke: #b0b0b0; stroke-width: 0.3; stroke-linecap: square"/>
     </g>
     <g id="line2d_16">
      <g>
       <use xlink:href="#m8122808656" x="59.19654" y="146.747947" style="stroke: #000000; stroke-width: 0.8"/>
      </g>
     </g>
    </g>
    <g id="xtick_9">
     <g id="line2d_17">
      <path d="M 65.755093 146.747947 
L 65.755093 12.07875 
" clip-path="url(#p55e0456029)" style="fill: none; stroke: #b0b0b0; stroke-width: 0.3; stroke-linecap: square"/>
     </g>
     <g id="line2d_18">
      <g>
       <use xlink:href="#m8122808656" x="65.755093" y="146.747947" style="stroke: #000000; stroke-width: 0.8"/>
      </g>
     </g>
    </g>
    <g id="xtick_10">
     <g id="line2d_19">
      <path d="M 72.313646 146.747947 
L 72.313646 12.07875 
" clip-path="url(#p55e0456029)" style="fill: none; stroke: #b0b0b0; stroke-width: 0.3; stroke-linecap: square"/>
     </g>
     <g id="line2d_20">
      <g>
       <use xlink:href="#m8122808656" x="72.313646" y="146.747947" style="stroke: #000000; stroke-width: 0.8"/>
      </g>
     </g>
    </g>
    <g id="xtick_11">
     <g id="line2d_21">
      <path d="M 85.430751 146.747947 
L 85.430751 12.07875 
" clip-path="url(#p55e0456029)" style="fill: none; stroke: #b0b0b0; stroke-width: 0.3; stroke-linecap: square"/>
     </g>
     <g id="line2d_22">
      <g>
       <use xlink:href="#m8122808656" x="85.430751" y="146.747947" style="stroke: #000000; stroke-width: 0.8"/>
      </g>
     </g>
    </g>
    <g id="xtick_12">
     <g id="line2d_23">
      <path d="M 91.989304 146.747947 
L 91.989304 12.07875 
" clip-path="url(#p55e0456029)" style="fill: none; stroke: #b0b0b0; stroke-width: 0.3; stroke-linecap: square"/>
     </g>
     <g id="line2d_24">
      <g>
       <use xlink:href="#m8122808656" x="91.989304" y="146.747947" style="stroke: #000000; stroke-width: 0.8"/>
      </g>
     </g>
    </g>
    <g id="xtick_13">
     <g id="line2d_25">
      <path d="M 98.547857 146.747947 
L 98.547857 12.07875 
" clip-path="url(#p55e0456029)" style="fill: none; stroke: #b0b0b0; stroke-width: 0.3; stroke-linecap: square"/>
     </g>
     <g id="line2d_26">
      <g>
       <use xlink:href="#m8122808656" x="98.547857" y="146.747947" style="stroke: #000000; stroke-width: 0.8"/>
      </g>
     </g>
    </g>
    <g id="xtick_14">
     <g id="line2d_27">
      <path d="M 105.106409 146.747947 
L 105.106409 12.07875 
" clip-path="url(#p55e0456029)" style="fill: none; stroke: #b0b0b0; stroke-width: 0.3; stroke-linecap: square"/>
     </g>
     <g id="line2d_28">
      <g>
       <use xlink:href="#m8122808656" x="105.106409" y="146.747947" style="stroke: #000000; stroke-width: 0.8"/>
      </g>
     </g>
    </g>
    <g id="xtick_15">
     <g id="line2d_29">
      <path d="M 118.223515 146.747947 
L 118.223515 12.07875 
" clip-path="url(#p55e0456029)" style="fill: none; stroke: #b0b0b0; stroke-width: 0.3; stroke-linecap: square"/>
     </g>
     <g id="line2d_30">
      <g>
       <use xlink:href="#m8122808656" x="118.223515" y="146.747947" style="stroke: #000000; stroke-width: 0.8"/>
      </g>
     </g>
    </g>
    <g id="xtick_16">
     <g id="line2d_31">
      <path d="M 124.782068 146.747947 
L 124.782068 12.07875 
" clip-path="url(#p55e0456029)" style="fill: none; stroke: #b0b0b0; stroke-width: 0.3; stroke-linecap: square"/>
     </g>
     <g id="line2d_32">
      <g>
       <use xlink:href="#m8122808656" x="124.782068" y="146.747947" style="stroke: #000000; stroke-width: 0.8"/>
      </g>
     </g>
    </g>
    <g id="xtick_17">
     <g id="line2d_33">
      <path d="M 131.340621 146.747947 
L 131.340621 12.07875 
" clip-path="url(#p55e0456029)" style="fill: none; stroke: #b0b0b0; stroke-width: 0.3; stroke-linecap: square"/>
     </g>
     <g id="line2d_34">
      <g>
       <use xlink:href="#m8122808656" x="131.340621" y="146.747947" style="stroke: #000000; stroke-width: 0.8"/>
      </g>
     </g>
    </g>
    <g id="xtick_18">
     <g id="line2d_35">
      <path d="M 137.899173 146.747947 
L 137.899173 12.07875 
" clip-path="url(#p55e0456029)" style="fill: none; stroke: #b0b0b0; stroke-width: 0.3; stroke-linecap: square"/>
     </g>
     <g id="line2d_36">
      <g>
       <use xlink:href="#m8122808656" x="137.899173" y="146.747947" style="stroke: #000000; stroke-width: 0.8"/>
      </g>
     </g>
    </g>
    <g id="xtick_19">
     <g id="line2d_37">
      <path d="M 151.016279 146.747947 
L 151.016279 12.07875 
" clip-path="url(#p55e0456029)" style="fill: none; stroke: #b0b0b0; stroke-width: 0.3; stroke-linecap: square"/>
     </g>
     <g id="line2d_38">
      <g>
       <use xlink:href="#m8122808656" x="151.016279" y="146.747947" style="stroke: #000000; stroke-width: 0.8"/>
      </g>
     </g>
    </g>
    <g id="xtick_20">
     <g id="line2d_39">
      <path d="M 157.574832 146.747947 
L 157.574832 12.07875 
" clip-path="url(#p55e0456029)" style="fill: none; stroke: #b0b0b0; stroke-width: 0.3; stroke-linecap: square"/>
     </g>
     <g id="line2d_40">
      <g>
       <use xlink:href="#m8122808656" x="157.574832" y="146.747947" style="stroke: #000000; stroke-width: 0.8"/>
      </g>
     </g>
    </g>
    <g id="xtick_21">
     <g id="line2d_41">
      <path d="M 164.133384 146.747947 
L 164.133384 12.07875 
" clip-path="url(#p55e0456029)" style="fill: none; stroke: #b0b0b0; stroke-width: 0.3; stroke-linecap: square"/>
     </g>
     <g id="line2d_42">
      <g>
       <use xlink:href="#m8122808656" x="164.133384" y="146.747947" style="stroke: #000000; stroke-width: 0.8"/>
      </g>
     </g>
    </g>
    <g id="xtick_22">
     <g id="line2d_43">
      <path d="M 170.691937 146.747947 
L 170.691937 12.07875 
" clip-path="url(#p55e0456029)" style="fill: none; stroke: #b0b0b0; stroke-width: 0.3; stroke-linecap: square"/>
     </g>
     <g id="line2d_44">
      <g>
       <use xlink:href="#m8122808656" x="170.691937" y="146.747947" style="stroke: #000000; stroke-width: 0.8"/>
      </g>
     </g>
    </g>
    <g id="xtick_23">
     <g id="line2d_45">
      <path d="M 183.809043 146.747947 
L 183.809043 12.07875 
" clip-path="url(#p55e0456029)" style="fill: none; stroke: #b0b0b0; stroke-width: 0.3; stroke-linecap: square"/>
     </g>
     <g id="line2d_46">
      <g>
       <use xlink:href="#m8122808656" x="183.809043" y="146.747947" style="stroke: #000000; stroke-width: 0.8"/>
      </g>
     </g>
    </g>
    <g id="xtick_24">
     <g id="line2d_47">
      <path d="M 190.367596 146.747947 
L 190.367596 12.07875 
" clip-path="url(#p55e0456029)" style="fill: none; stroke: #b0b0b0; stroke-width: 0.3; stroke-linecap: square"/>
     </g>
     <g id="line2d_48">
      <g>
       <use xlink:href="#m8122808656" x="190.367596" y="146.747947" style="stroke: #000000; stroke-width: 0.8"/>
      </g>
     </g>
    </g>
    <g id="text_6">
     <text style="font: 9.6px 'DejaVu Sans', 'Bitstream Vera Sans', 'Computer Modern Sans Serif', 'Lucida Grande', 'Verdana', 'Geneva', 'Lucid', 'Arial', 'Helvetica', 'Avant Garde', sans-serif; text-anchor: middle" x="113.3046" y="174.859197" transform="rotate(-0 113.3046 174.859197)">Wavelength (nm)</text>
    </g>
   </g>
   <g id="matplotlib.axis_2">
    <g id="ytick_1">
     <g id="line2d_49">
      <path d="M 35.58575 142.485767 
L 191.023451 142.485767 
" clip-path="url(#p55e0456029)" style="fill: none; stroke: #b0b0b0; stroke-width: 0.6; stroke-linecap: square"/>
     </g>
     <g id="line2d_50">
      <defs>
       <path id="m3b601885aa" d="M 0 0 
L -4.8 0 
" style="stroke: #000000"/>
      </defs>
      <g>
       <use xlink:href="#m3b601885aa" x="35.58575" y="142.485767" style="stroke: #000000"/>
      </g>
     </g>
     <g id="text_7">
      <text style="font: 8.8px 'DejaVu Sans', 'Bitstream Vera Sans', 'Computer Modern Sans Serif', 'Lucida Grande', 'Verdana', 'Geneva', 'Lucid', 'Arial', 'Helvetica', 'Avant Garde', sans-serif; text-anchor: end" x="27.28575" y="145.82908" transform="rotate(-0 27.28575 145.82908)">0.2</text>
     </g>
    </g>
    <g id="ytick_2">
     <g id="line2d_51">
      <path d="M 35.58575 111.414345 
L 191.023451 111.414345 
" clip-path="url(#p55e0456029)" style="fill: none; stroke: #b0b0b0; stroke-width: 0.6; stroke-linecap: square"/>
     </g>
     <g id="line2d_52">
      <g>
       <use xlink:href="#m3b601885aa" x="35.58575" y="111.414345" style="stroke: #000000"/>
      </g>
     </g>
     <g id="text_8">
      <text style="font: 8.8px 'DejaVu Sans', 'Bitstream Vera Sans', 'Computer Modern Sans Serif', 'Lucida Grande', 'Verdana', 'Geneva', 'Lucid', 'Arial', 'Helvetica', 'Avant Garde', sans-serif; text-anchor: end" x="27.28575" y="114.757657" transform="rotate(-0 27.28575 114.757657)">0.4</text>
     </g>
    </g>
    <g id="ytick_3">
     <g id="line2d_53">
      <path d="M 35.58575 80.342922 
L 191.023451 80.342922 
" clip-path="url(#p55e0456029)" style="fill: none; stroke: #b0b0b0; stroke-width: 0.6; stroke-linecap: square"/>
     </g>
     <g id="line2d_54">
      <g>
       <use xlink:href="#m3b601885aa" x="35.58575" y="80.342922" style="stroke: #000000"/>
      </g>
     </g>
     <g id="text_9">
      <text style="font: 8.8px 'DejaVu Sans', 'Bitstream Vera Sans', 'Computer Modern Sans Serif', 'Lucida Grande', 'Verdana', 'Geneva', 'Lucid', 'Arial', 'Helvetica', 'Avant Garde', sans-serif; text-anchor: end" x="27.28575" y="83.686235" transform="rotate(-0 27.28575 83.686235)">0.6</text>
     </g>
    </g>
    <g id="ytick_4">
     <g id="line2d_55">
      <path d="M 35.58575 49.2715 
L 191.023451 49.2715 
" clip-path="url(#p55e0456029)" style="fill: none; stroke: #b0b0b0; stroke-width: 0.6; stroke-linecap: square"/>
     </g>
     <g id="line2d_56">
      <g>
       <use xlink:href="#m3b601885aa" x="35.58575" y="49.2715" style="stroke: #000000"/>
      </g>
     </g>
     <g id="text_10">
      <text style="font: 8.8px 'DejaVu Sans', 'Bitstream Vera Sans', 'Computer Modern Sans Serif', 'Lucida Grande', 'Verdana', 'Geneva', 'Lucid', 'Arial', 'Helvetica', 'Avant Garde', sans-serif; text-anchor: end" x="27.28575" y="52.614812" transform="rotate(-0 27.28575 52.614812)">0.8</text>
     </g>
    </g>
    <g id="ytick_5">
     <g id="line2d_57">
      <path d="M 35.58575 18.200077 
L 191.023451 18.200077 
" clip-path="url(#p55e0456029)" style="fill: none; stroke: #b0b0b0; stroke-width: 0.6; stroke-linecap: square"/>
     </g>
     <g id="line2d_58">
      <g>
       <use xlink:href="#m3b601885aa" x="35.58575" y="18.200077" style="stroke: #000000"/>
      </g>
     </g>
     <g id="text_11">
      <text style="font: 8.8px 'DejaVu Sans', 'Bitstream Vera Sans', 'Computer Modern Sans Serif', 'Lucida Grande', 'Verdana', 'Geneva', 'Lucid', 'Arial', 'Helvetica', 'Avant Garde', sans-serif; text-anchor: end" x="27.28575" y="21.54339" transform="rotate(-0 27.28575 21.54339)">1.0</text>
     </g>
    </g>
    <g id="text_12">
     <text style="font: 9.6px 'DejaVu Sans', 'Bitstream Vera Sans', 'Computer Modern Sans Serif', 'Lucida Grande', 'Verdana', 'Geneva', 'Lucid', 'Arial', 'Helvetica', 'Avant Garde', sans-serif; text-anchor: middle" x="7.2945" y="79.413348" transform="rotate(-90 7.2945 79.413348)">Reflectance</text>
    </g>
   </g>
   <g id="line2d_59">
    <path d="M 39.520882 18.200077 
L 41.618074 18.506402 
L 42.230844 18.527858 
L 43.474874 19.182854 
L 44.743973 20.10201 
L 45.388079 20.603603 
L 45.71255 20.761472 
L 46.038643 20.755687 
L 46.695729 20.289347 
L 48.029729 19.240438 
L 49.04784 18.556854 
L 50.081299 18.334829 
L 51.130338 18.200077 
L 53.640008 18.27367 
L 54.373298 18.392127 
L 55.113938 18.718453 
L 55.487039 19.006666 
L 55.862004 19.471645 
L 56.617569 20.942612 
L 57.380709 22.80286 
L 57.765143 23.41634 
L 58.151499 23.779846 
L 58.539787 23.968607 
L 59.322197 23.989967 
L 59.716339 23.861966 
L 61.716804 21.861589 
L 62.531064 20.820287 
L 63.353486 20.087686 
L 64.184154 19.718553 
L 65.023148 19.51137 
L 65.445795 19.505202 
L 66.297437 19.825921 
L 66.726455 20.157717 
L 67.157618 20.663927 
L 68.026421 22.195683 
L 69.345985 25.363163 
L 70.685441 28.284799 
L 71.589611 29.952507 
L 72.04509 31.145513 
L 72.502846 33.048117 
L 72.962891 35.717817 
L 74.356872 46.557079 
L 75.297848 54.05518 
L 75.771868 54.283214 
L 76.72703 50.874859 
L 77.208195 49.888987 
L 77.691767 49.473132 
L 78.177756 49.30257 
L 78.666175 48.229255 
L 79.650352 44.184799 
L 80.146134 43.136454 
L 81.145148 42.453801 
L 81.648404 41.490946 
L 82.154177 39.488107 
L 83.173321 34.535811 
L 84.202682 30.690715 
L 85.766105 25.869553 
L 86.821458 23.010388 
L 87.887392 20.693143 
L 88.964012 18.983454 
L 89.506362 18.451464 
L 90.051425 18.200077 
L 90.599212 18.200077 
L 91.149739 18.419009 
L 91.703018 19.239329 
L 92.259064 20.772446 
L 92.817889 22.982024 
L 94.511187 31.365258 
L 95.081274 33.049516 
L 95.654211 33.23485 
L 96.230012 32.262705 
L 96.808693 30.895582 
L 97.390267 29.201539 
L 99.152494 22.765859 
L 99.745787 21.351374 
L 100.342046 20.524501 
L 100.941287 20.420792 
L 101.543524 21.246203 
L 102.148772 23.237797 
L 102.757046 26.783258 
L 103.368362 32.156262 
L 104.600178 47.182295 
L 105.844344 65.380827 
L 107.100982 85.105011 
L 107.734017 92.177232 
L 108.370218 93.693238 
L 109.009599 89.916418 
L 110.297969 78.937847 
L 110.946989 71.755088 
L 112.913586 41.705839 
L 113.575684 35.248103 
L 114.241093 30.650902 
L 114.909829 27.459074 
L 115.581909 25.476452 
L 116.257349 24.291864 
L 116.936166 23.508839 
L 117.618377 23.357057 
L 118.304 23.884445 
L 118.99305 24.883625 
L 123.200309 32.348589 
L 125.351626 34.345984 
L 126.075915 34.178254 
L 126.803825 32.10058 
L 127.535374 29.54188 
L 128.270582 27.897967 
L 129.009465 26.915431 
L 129.752043 25.189771 
L 131.248356 20.067925 
L 132.002128 18.66068 
L 132.759669 18.200077 
L 133.520998 18.200077 
L 134.286133 19.245222 
L 135.055094 21.638715 
L 135.8279 25.482351 
L 136.60457 30.995806 
L 138.957958 52.548499 
L 139.750278 56.806181 
L 140.54656 59.201507 
L 142.151088 61.806321 
L 142.959374 62.797785 
L 143.771701 62.484195 
L 144.58809 60.715248 
L 146.233134 55.587564 
L 147.06183 53.694712 
L 147.89467 52.453212 
L 151.267879 48.658528 
L 152.121749 48.08715 
L 152.979888 48.002686 
L 153.842318 48.976071 
L 154.70906 51.494016 
L 155.580136 55.560212 
L 156.455567 61.046563 
L 157.335376 68.541716 
L 158.219583 78.381449 
L 160.89882 112.548587 
L 161.800844 122.098892 
L 162.707379 128.81577 
L 163.618446 133.18424 
L 164.534069 136.027049 
L 165.45427 137.995433 
L 166.379072 139.46903 
L 167.308497 140.540079 
L 168.24257 140.62662 
L 169.181314 139.143448 
L 170.124751 136.820086 
L 171.072905 133.854396 
L 172.0258 130.419852 
L 173.945907 124.973633 
L 174.913167 121.262388 
L 175.885263 116.336206 
L 176.86222 110.530755 
L 177.844062 103.574544 
L 178.830813 95.114691 
L 179.822497 85.026386 
L 180.81914 73.462436 
L 181.820766 60.479183 
L 182.827401 43.804085 
L 183.839068 18.200077 
L 183.839068 18.200077 
" clip-path="url(#p55e0456029)" style="fill: none; stroke: #1f77b4; stroke-width: 0.5; stroke-linecap: square"/>
   </g>
   <g id="line2d_60"/>
   <g id="patch_3">
    <path d="M 35.58575 146.747947 
L 35.58575 12.07875 
" style="fill: none; stroke: #000000; stroke-linejoin: miter; stroke-linecap: square"/>
   </g>
   <g id="patch_4">
    <path d="M 191.023451 146.747947 
L 191.023451 12.07875 
" style="fill: none; stroke: #000000; stroke-linejoin: miter; stroke-linecap: square"/>
   </g>
   <g id="patch_5">
    <path d="M 35.58575 146.747947 
L 191.023451 146.747947 
" style="fill: none; stroke: #000000; stroke-linejoin: miter; stroke-linecap: square"/>
   </g>
   <g id="patch_6">
    <path d="M 35.58575 12.07875 
L 191.023451 12.07875 
" style="fill: none; stroke: #000000; stroke-linejoin: miter; stroke-linecap: square"/>
   </g>
   <g id="text_13">
    <text style="font: 8px 'DejaVu Sans', 'Bitstream Vera Sans', 'Computer Modern Sans Serif', 'Lucida Grande', 'Verdana', 'Geneva', 'Lucid', 'Arial', 'Helvetica', 'Avant Garde', sans-serif; text-anchor: middle" x="113.3046" y="6.07875" transform="rotate(-0 113.3046 6.07875)">Laboratory Sulfates Gypsum</text>
   </g>
   <g id="legend_1">
    <g id="patch_7">
     <path d="M 198.332205 84.716786 
L 271.029705 84.716786 
Q 272.229705 84.716786 272.229705 83.516786 
L 272.229705 75.309911 
Q 272.229705 74.109911 271.029705 74.109911 
L 198.332205 74.109911 
Q 197.132205 74.109911 197.132205 75.309911 
L 197.132205 83.516786 
Q 197.132205 84.716786 198.332205 84.716786 
z
" style="fill: #ffffff; opacity: 0.8; stroke: #cccccc; stroke-width: 0.8; stroke-linejoin: miter"/>
    </g>
    <g id="line2d_61">
     <path d="M 199.532205 78.968973 
L 205.532205 78.968973 
L 211.532205 78.968973 
" style="fill: none; stroke: #1f77b4; stroke-width: 1.2; stroke-linecap: square"/>
    </g>
    <g id="text_14">
     <text style="font: 6px 'DejaVu Sans', 'Bitstream Vera Sans', 'Computer Modern Sans Serif', 'Lucida Grande', 'Verdana', 'Geneva', 'Lucid', 'Arial', 'Helvetica', 'Avant Garde', sans-serif; text-anchor: start" x="216.332205" y="81.068973" transform="rotate(-0 216.332205 81.068973)">GYPSUM LASF41A</text>
    </g>
   </g>
  </g>
 </g>
 <defs>
  <clipPath id="p55e0456029">
   <rect x="35.58575" y="12.07875" width="155.437701" height="134.669197"/>
  </clipPath>
 </defs>
</svg>
