<?xml version="1.0" encoding="utf-8" standalone="no"?>
<!DOCTYPE svg PUBLIC "-//W3C//DTD SVG 1.1//EN"
  "http://www.w3.org/Graphics/SVG/1.1/DTD/svg11.dtd">
<svg xmlns:xlink="http://www.w3.org/1999/xlink" width="272.261042pt" height="176.645947pt" viewBox="0 0 272.261042 176.645947" xmlns="http://www.w3.org/2000/svg" version="1.1">
 <metadata>
  <rdf:RDF xmlns:dc="http://purl.org/dc/elements/1.1/" xmlns:cc="http://creativecommons.org/ns#" xmlns:rdf="http://www.w3.org/1999/02/22-rdf-syntax-ns#">
   <cc:Work>
    <dc:type rdf:resource="http://purl.org/dc/dcmitype/StillImage"/>
    <dc:date>2025-02-12T17:07:59.668172</dc:date>
    <dc:format>image/svg+xml</dc:format>
    <dc:creator>
     <cc:Agent>
      <dc:title>Matplotlib v3.6.2, https://matplotlib.org/</dc:title>
     </cc:Agent>
    </dc:creator>
   </cc:Work>
  </rdf:RDF>
 </metadata>
 <defs>
  <style type="text/css">*{stroke-linejoin: round; stroke-linecap: butt}</style>
 </defs>
 <g id="figure_1">
  <g id="patch_1">
   <path d="M 0 176.645947 
L 272.261042 176.645947 
L 272.261042 0 
L 0 0 
z
" style="fill: #ffffff"/>
  </g>
  <g id="axes_1">
   <g id="patch_2">
    <path d="M 41.18475 146.538197 
L 194.192451 146.538197 
L 194.192451 21.037 
L 41.18475 21.037 
z
" style="fill: #ffffff"/>
   </g>
   <g id="matplotlib.axis_1">
    <g id="xtick_1">
     <g id="line2d_1">
      <path d="M 51.514384 146.538197 
L 51.514384 21.037 
" clip-path="url(#pf196be4b4b)" style="fill: none; stroke: #b0b0b0; stroke-width: 0.6; stroke-linecap: square"/>
     </g>
     <g id="line2d_2">
      <defs>
       <path id="m45412a6da5" d="M 0 0 
L 0 4.8 
" style="stroke: #000000"/>
      </defs>
      <g>
       <use xlink:href="#m45412a6da5" x="51.514384" y="146.538197" style="stroke: #000000"/>
      </g>
     </g>
     <g id="text_1">
      <text style="font: 8.8px 'DejaVu Sans', 'Bitstream Vera Sans', 'Computer Modern Sans Serif', 'Lucida Grande', 'Verdana', 'Geneva', 'Lucid', 'Arial', 'Helvetica', 'Avant Garde', sans-serif; text-anchor: middle" x="51.514384" y="161.524822" transform="rotate(-0 51.514384 161.524822)">1000</text>
     </g>
    </g>
    <g id="xtick_2">
     <g id="line2d_3">
      <path d="M 83.794489 146.538197 
L 83.794489 21.037 
" clip-path="url(#pf196be4b4b)" style="fill: none; stroke: #b0b0b0; stroke-width: 0.6; stroke-linecap: square"/>
     </g>
     <g id="line2d_4">
      <g>
       <use xlink:href="#m45412a6da5" x="83.794489" y="146.538197" style="stroke: #000000"/>
      </g>
     </g>
     <g id="text_2">
      <text style="font: 8.8px 'DejaVu Sans', 'Bitstream Vera Sans', 'Computer Modern Sans Serif', 'Lucida Grande', 'Verdana', 'Geneva', 'Lucid', 'Arial', 'Helvetica', 'Avant Garde', sans-serif; text-anchor: middle" x="83.794489" y="161.524822" transform="rotate(-0 83.794489 161.524822)">1500</text>
     </g>
    </g>
    <g id="xtick_3">
     <g id="line2d_5">
      <path d="M 116.074595 146.538197 
L 116.074595 21.037 
" clip-path="url(#pf196be4b4b)" style="fill: none; stroke: #b0b0b0; stroke-width: 0.6; stroke-linecap: square"/>
     </g>
     <g id="line2d_6">
      <g>
       <use xlink:href="#m45412a6da5" x="116.074595" y="146.538197" style="stroke: #000000"/>
      </g>
     </g>
     <g id="text_3">
      <text style="font: 8.8px 'DejaVu Sans', 'Bitstream Vera Sans', 'Computer Modern Sans Serif', 'Lucida Grande', 'Verdana', 'Geneva', 'Lucid', 'Arial', 'Helvetica', 'Avant Garde', sans-serif; text-anchor: middle" x="116.074595" y="161.524822" transform="rotate(-0 116.074595 161.524822)">2000</text>
     </g>
    </g>
    <g id="xtick_4">
     <g id="line2d_7">
      <path d="M 148.354701 146.538197 
L 148.354701 21.037 
" clip-path="url(#pf196be4b4b)" style="fill: none; stroke: #b0b0b0; stroke-width: 0.6; stroke-linecap: square"/>
     </g>
     <g id="line2d_8">
      <g>
       <use xlink:href="#m45412a6da5" x="148.354701" y="146.538197" style="stroke: #000000"/>
      </g>
     </g>
     <g id="text_4">
      <text style="font: 8.8px 'DejaVu Sans', 'Bitstream Vera Sans', 'Computer Modern Sans Serif', 'Lucida Grande', 'Verdana', 'Geneva', 'Lucid', 'Arial', 'Helvetica', 'Avant Garde', sans-serif; text-anchor: middle" x="148.354701" y="161.524822" transform="rotate(-0 148.354701 161.524822)">2500</text>
     </g>
    </g>
    <g id="xtick_5">
     <g id="line2d_9">
      <path d="M 180.634806 146.538197 
L 180.634806 21.037 
" clip-path="url(#pf196be4b4b)" style="fill: none; stroke: #b0b0b0; stroke-width: 0.6; stroke-linecap: square"/>
     </g>
     <g id="line2d_10">
      <g>
       <use xlink:href="#m45412a6da5" x="180.634806" y="146.538197" style="stroke: #000000"/>
      </g>
     </g>
     <g id="text_5">
      <text style="font: 8.8px 'DejaVu Sans', 'Bitstream Vera Sans', 'Computer Modern Sans Serif', 'Lucida Grande', 'Verdana', 'Geneva', 'Lucid', 'Arial', 'Helvetica', 'Avant Garde', sans-serif; text-anchor: middle" x="180.634806" y="161.524822" transform="rotate(-0 180.634806 161.524822)">3000</text>
     </g>
    </g>
    <g id="xtick_6">
     <g id="line2d_11">
      <path d="M 45.058363 146.538197 
L 45.058363 21.037 
" clip-path="url(#pf196be4b4b)" style="fill: none; stroke: #b0b0b0; stroke-width: 0.3; stroke-linecap: square"/>
     </g>
     <g id="line2d_12">
      <defs>
       <path id="mca5a2b78b3" d="M 0 0 
L 0 3.2 
" style="stroke: #000000; stroke-width: 0.8"/>
      </defs>
      <g>
       <use xlink:href="#mca5a2b78b3" x="45.058363" y="146.538197" style="stroke: #000000; stroke-width: 0.8"/>
      </g>
     </g>
    </g>
    <g id="xtick_7">
     <g id="line2d_13">
      <path d="M 57.970405 146.538197 
L 57.970405 21.037 
" clip-path="url(#pf196be4b4b)" style="fill: none; stroke: #b0b0b0; stroke-width: 0.3; stroke-linecap: square"/>
     </g>
     <g id="line2d_14">
      <g>
       <use xlink:href="#mca5a2b78b3" x="57.970405" y="146.538197" style="stroke: #000000; stroke-width: 0.8"/>
      </g>
     </g>
    </g>
    <g id="xtick_8">
     <g id="line2d_15">
      <path d="M 64.426426 146.538197 
L 64.426426 21.037 
" clip-path="url(#pf196be4b4b)" style="fill: none; stroke: #b0b0b0; stroke-width: 0.3; stroke-linecap: square"/>
     </g>
     <g id="line2d_16">
      <g>
       <use xlink:href="#mca5a2b78b3" x="64.426426" y="146.538197" style="stroke: #000000; stroke-width: 0.8"/>
      </g>
     </g>
    </g>
    <g id="xtick_9">
     <g id="line2d_17">
      <path d="M 70.882447 146.538197 
L 70.882447 21.037 
" clip-path="url(#pf196be4b4b)" style="fill: none; stroke: #b0b0b0; stroke-width: 0.3; stroke-linecap: square"/>
     </g>
     <g id="line2d_18">
      <g>
       <use xlink:href="#mca5a2b78b3" x="70.882447" y="146.538197" style="stroke: #000000; stroke-width: 0.8"/>
      </g>
     </g>
    </g>
    <g id="xtick_10">
     <g id="line2d_19">
      <path d="M 77.338468 146.538197 
L 77.338468 21.037 
" clip-path="url(#pf196be4b4b)" style="fill: none; stroke: #b0b0b0; stroke-width: 0.3; stroke-linecap: square"/>
     </g>
     <g id="line2d_20">
      <g>
       <use xlink:href="#mca5a2b78b3" x="77.338468" y="146.538197" style="stroke: #000000; stroke-width: 0.8"/>
      </g>
     </g>
    </g>
    <g id="xtick_11">
     <g id="line2d_21">
      <path d="M 90.250511 146.538197 
L 90.250511 21.037 
" clip-path="url(#pf196be4b4b)" style="fill: none; stroke: #b0b0b0; stroke-width: 0.3; stroke-linecap: square"/>
     </g>
     <g id="line2d_22">
      <g>
       <use xlink:href="#mca5a2b78b3" x="90.250511" y="146.538197" style="stroke: #000000; stroke-width: 0.8"/>
      </g>
     </g>
    </g>
    <g id="xtick_12">
     <g id="line2d_23">
      <path d="M 96.706532 146.538197 
L 96.706532 21.037 
" clip-path="url(#pf196be4b4b)" style="fill: none; stroke: #b0b0b0; stroke-width: 0.3; stroke-linecap: square"/>
     </g>
     <g id="line2d_24">
      <g>
       <use xlink:href="#mca5a2b78b3" x="96.706532" y="146.538197" style="stroke: #000000; stroke-width: 0.8"/>
      </g>
     </g>
    </g>
    <g id="xtick_13">
     <g id="line2d_25">
      <path d="M 103.162553 146.538197 
L 103.162553 21.037 
" clip-path="url(#pf196be4b4b)" style="fill: none; stroke: #b0b0b0; stroke-width: 0.3; stroke-linecap: square"/>
     </g>
     <g id="line2d_26">
      <g>
       <use xlink:href="#mca5a2b78b3" x="103.162553" y="146.538197" style="stroke: #000000; stroke-width: 0.8"/>
      </g>
     </g>
    </g>
    <g id="xtick_14">
     <g id="line2d_27">
      <path d="M 109.618574 146.538197 
L 109.618574 21.037 
" clip-path="url(#pf196be4b4b)" style="fill: none; stroke: #b0b0b0; stroke-width: 0.3; stroke-linecap: square"/>
     </g>
     <g id="line2d_28">
      <g>
       <use xlink:href="#mca5a2b78b3" x="109.618574" y="146.538197" style="stroke: #000000; stroke-width: 0.8"/>
      </g>
     </g>
    </g>
    <g id="xtick_15">
     <g id="line2d_29">
      <path d="M 122.530616 146.538197 
L 122.530616 21.037 
" clip-path="url(#pf196be4b4b)" style="fill: none; stroke: #b0b0b0; stroke-width: 0.3; stroke-linecap: square"/>
     </g>
     <g id="line2d_30">
      <g>
       <use xlink:href="#mca5a2b78b3" x="122.530616" y="146.538197" style="stroke: #000000; stroke-width: 0.8"/>
      </g>
     </g>
    </g>
    <g id="xtick_16">
     <g id="line2d_31">
      <path d="M 128.986637 146.538197 
L 128.986637 21.037 
" clip-path="url(#pf196be4b4b)" style="fill: none; stroke: #b0b0b0; stroke-width: 0.3; stroke-linecap: square"/>
     </g>
     <g id="line2d_32">
      <g>
       <use xlink:href="#mca5a2b78b3" x="128.986637" y="146.538197" style="stroke: #000000; stroke-width: 0.8"/>
      </g>
     </g>
    </g>
    <g id="xtick_17">
     <g id="line2d_33">
      <path d="M 135.442659 146.538197 
L 135.442659 21.037 
" clip-path="url(#pf196be4b4b)" style="fill: none; stroke: #b0b0b0; stroke-width: 0.3; stroke-linecap: square"/>
     </g>
     <g id="line2d_34">
      <g>
       <use xlink:href="#mca5a2b78b3" x="135.442659" y="146.538197" style="stroke: #000000; stroke-width: 0.8"/>
      </g>
     </g>
    </g>
    <g id="xtick_18">
     <g id="line2d_35">
      <path d="M 141.89868 146.538197 
L 141.89868 21.037 
" clip-path="url(#pf196be4b4b)" style="fill: none; stroke: #b0b0b0; stroke-width: 0.3; stroke-linecap: square"/>
     </g>
     <g id="line2d_36">
      <g>
       <use xlink:href="#mca5a2b78b3" x="141.89868" y="146.538197" style="stroke: #000000; stroke-width: 0.8"/>
      </g>
     </g>
    </g>
    <g id="xtick_19">
     <g id="line2d_37">
      <path d="M 154.810722 146.538197 
L 154.810722 21.037 
" clip-path="url(#pf196be4b4b)" style="fill: none; stroke: #b0b0b0; stroke-width: 0.3; stroke-linecap: square"/>
     </g>
     <g id="line2d_38">
      <g>
       <use xlink:href="#mca5a2b78b3" x="154.810722" y="146.538197" style="stroke: #000000; stroke-width: 0.8"/>
      </g>
     </g>
    </g>
    <g id="xtick_20">
     <g id="line2d_39">
      <path d="M 161.266743 146.538197 
L 161.266743 21.037 
" clip-path="url(#pf196be4b4b)" style="fill: none; stroke: #b0b0b0; stroke-width: 0.3; stroke-linecap: square"/>
     </g>
     <g id="line2d_40">
      <g>
       <use xlink:href="#mca5a2b78b3" x="161.266743" y="146.538197" style="stroke: #000000; stroke-width: 0.8"/>
      </g>
     </g>
    </g>
    <g id="xtick_21">
     <g id="line2d_41">
      <path d="M 167.722764 146.538197 
L 167.722764 21.037 
" clip-path="url(#pf196be4b4b)" style="fill: none; stroke: #b0b0b0; stroke-width: 0.3; stroke-linecap: square"/>
     </g>
     <g id="line2d_42">
      <g>
       <use xlink:href="#mca5a2b78b3" x="167.722764" y="146.538197" style="stroke: #000000; stroke-width: 0.8"/>
      </g>
     </g>
    </g>
    <g id="xtick_22">
     <g id="line2d_43">
      <path d="M 174.178785 146.538197 
L 174.178785 21.037 
" clip-path="url(#pf196be4b4b)" style="fill: none; stroke: #b0b0b0; stroke-width: 0.3; stroke-linecap: square"/>
     </g>
     <g id="line2d_44">
      <g>
       <use xlink:href="#mca5a2b78b3" x="174.178785" y="146.538197" style="stroke: #000000; stroke-width: 0.8"/>
      </g>
     </g>
    </g>
    <g id="xtick_23">
     <g id="line2d_45">
      <path d="M 187.090828 146.538197 
L 187.090828 21.037 
" clip-path="url(#pf196be4b4b)" style="fill: none; stroke: #b0b0b0; stroke-width: 0.3; stroke-linecap: square"/>
     </g>
     <g id="line2d_46">
      <g>
       <use xlink:href="#mca5a2b78b3" x="187.090828" y="146.538197" style="stroke: #000000; stroke-width: 0.8"/>
      </g>
     </g>
    </g>
    <g id="xtick_24">
     <g id="line2d_47">
      <path d="M 193.546849 146.538197 
L 193.546849 21.037 
" clip-path="url(#pf196be4b4b)" style="fill: none; stroke: #b0b0b0; stroke-width: 0.3; stroke-linecap: square"/>
     </g>
     <g id="line2d_48">
      <g>
       <use xlink:href="#mca5a2b78b3" x="193.546849" y="146.538197" style="stroke: #000000; stroke-width: 0.8"/>
      </g>
     </g>
    </g>
    <g id="text_6">
     <text style="font: 9.6px 'DejaVu Sans', 'Bitstream Vera Sans', 'Computer Modern Sans Serif', 'Lucida Grande', 'Verdana', 'Geneva', 'Lucid', 'Arial', 'Helvetica', 'Avant Garde', sans-serif; text-anchor: middle" x="117.6886" y="174.649447" transform="rotate(-0 117.6886 174.649447)">Wavelength (nm)</text>
    </g>
   </g>
   <g id="matplotlib.axis_2">
    <g id="ytick_1">
     <g id="line2d_49">
      <path d="M 41.18475 123.251601 
L 194.192451 123.251601 
" clip-path="url(#pf196be4b4b)" style="fill: none; stroke: #b0b0b0; stroke-width: 0.6; stroke-linecap: square"/>
     </g>
     <g id="line2d_50">
      <defs>
       <path id="m2d597005bb" d="M 0 0 
L -4.8 0 
" style="stroke: #000000"/>
      </defs>
      <g>
       <use xlink:href="#m2d597005bb" x="41.18475" y="123.251601" style="stroke: #000000"/>
      </g>
     </g>
     <g id="text_7">
      <text style="font: 8.8px 'DejaVu Sans', 'Bitstream Vera Sans', 'Computer Modern Sans Serif', 'Lucida Grande', 'Verdana', 'Geneva', 'Lucid', 'Arial', 'Helvetica', 'Avant Garde', sans-serif; text-anchor: end" x="32.88475" y="126.594913" transform="rotate(-0 32.88475 126.594913)">0.92</text>
     </g>
    </g>
    <g id="ytick_2">
     <g id="line2d_51">
      <path d="M 41.18475 99.124101 
L 194.192451 99.124101 
" clip-path="url(#pf196be4b4b)" style="fill: none; stroke: #b0b0b0; stroke-width: 0.6; stroke-linecap: square"/>
     </g>
     <g id="line2d_52">
      <g>
       <use xlink:href="#m2d597005bb" x="41.18475" y="99.124101" style="stroke: #000000"/>
      </g>
     </g>
     <g id="text_8">
      <text style="font: 8.8px 'DejaVu Sans', 'Bitstream Vera Sans', 'Computer Modern Sans Serif', 'Lucida Grande', 'Verdana', 'Geneva', 'Lucid', 'Arial', 'Helvetica', 'Avant Garde', sans-serif; text-anchor: end" x="32.88475" y="102.467413" transform="rotate(-0 32.88475 102.467413)">0.94</text>
     </g>
    </g>
    <g id="ytick_3">
     <g id="line2d_53">
      <path d="M 41.18475 74.9966 
L 194.192451 74.9966 
" clip-path="url(#pf196be4b4b)" style="fill: none; stroke: #b0b0b0; stroke-width: 0.6; stroke-linecap: square"/>
     </g>
     <g id="line2d_54">
      <g>
       <use xlink:href="#m2d597005bb" x="41.18475" y="74.9966" style="stroke: #000000"/>
      </g>
     </g>
     <g id="text_9">
      <text style="font: 8.8px 'DejaVu Sans', 'Bitstream Vera Sans', 'Computer Modern Sans Serif', 'Lucida Grande', 'Verdana', 'Geneva', 'Lucid', 'Arial', 'Helvetica', 'Avant Garde', sans-serif; text-anchor: end" x="32.88475" y="78.339913" transform="rotate(-0 32.88475 78.339913)">0.96</text>
     </g>
    </g>
    <g id="ytick_4">
     <g id="line2d_55">
      <path d="M 41.18475 50.8691 
L 194.192451 50.8691 
" clip-path="url(#pf196be4b4b)" style="fill: none; stroke: #b0b0b0; stroke-width: 0.6; stroke-linecap: square"/>
     </g>
     <g id="line2d_56">
      <g>
       <use xlink:href="#m2d597005bb" x="41.18475" y="50.8691" style="stroke: #000000"/>
      </g>
     </g>
     <g id="text_10">
      <text style="font: 8.8px 'DejaVu Sans', 'Bitstream Vera Sans', 'Computer Modern Sans Serif', 'Lucida Grande', 'Verdana', 'Geneva', 'Lucid', 'Arial', 'Helvetica', 'Avant Garde', sans-serif; text-anchor: end" x="32.88475" y="54.212413" transform="rotate(-0 32.88475 54.212413)">0.98</text>
     </g>
    </g>
    <g id="ytick_5">
     <g id="line2d_57">
      <path d="M 41.18475 26.7416 
L 194.192451 26.7416 
" clip-path="url(#pf196be4b4b)" style="fill: none; stroke: #b0b0b0; stroke-width: 0.6; stroke-linecap: square"/>
     </g>
     <g id="line2d_58">
      <g>
       <use xlink:href="#m2d597005bb" x="41.18475" y="26.7416" style="stroke: #000000"/>
      </g>
     </g>
     <g id="text_11">
      <text style="font: 8.8px 'DejaVu Sans', 'Bitstream Vera Sans', 'Computer Modern Sans Serif', 'Lucida Grande', 'Verdana', 'Geneva', 'Lucid', 'Arial', 'Helvetica', 'Avant Garde', sans-serif; text-anchor: end" x="32.88475" y="30.084912" transform="rotate(-0 32.88475 30.084912)">1.00</text>
     </g>
    </g>
    <g id="text_12">
     <text style="font: 9.6px 'DejaVu Sans', 'Bitstream Vera Sans', 'Computer Modern Sans Serif', 'Lucida Grande', 'Verdana', 'Geneva', 'Lucid', 'Arial', 'Helvetica', 'Avant Garde', sans-serif; text-anchor: middle" x="7.2945" y="83.787598" transform="rotate(-90 7.2945 83.787598)">Reflectance</text>
    </g>
   </g>
   <g id="line2d_59">
    <path d="M 45.058363 26.7416 
L 45.640857 68.329861 
L 46.229191 100.64616 
L 46.823423 120.91768 
L 48.029819 139.591786 
L 48.335197 140.833597 
L 48.642102 138.174239 
L 50.1998 109.556357 
L 51.153235 88.429245 
L 52.121044 66.562467 
L 52.774342 56.708106 
L 53.434189 50.851253 
L 53.766589 49.513856 
L 54.100651 49.625123 
L 54.436384 50.410442 
L 56.140394 58.964593 
L 56.486325 60.292205 
L 57.183385 61.617214 
L 57.534531 62.143262 
L 57.887433 62.237018 
L 58.242099 61.550479 
L 59.316774 57.983229 
L 59.678587 56.045572 
L 62.262441 35.36225 
L 63.397723 27.575569 
L 63.779941 26.7416 
L 74.417202 26.7416 
L 74.854517 26.858871 
L 75.294019 28.169214 
L 76.625753 36.779277 
L 77.074111 37.318724 
L 77.977563 39.142606 
L 78.43268 38.677246 
L 78.890073 38.039742 
L 79.349752 38.226376 
L 79.81173 38.030392 
L 80.276018 37.397998 
L 80.742627 37.409457 
L 82.1565 33.734326 
L 83.110903 30.459813 
L 83.591687 30.320097 
L 84.074875 30.919152 
L 84.560478 30.645648 
L 85.04851 29.559286 
L 85.538981 28.850717 
L 86.031905 28.387922 
L 86.527294 27.318363 
L 87.525515 26.746632 
L 88.028371 26.7416 
L 88.533742 26.963652 
L 89.552078 26.7416 
L 90.065067 26.946665 
L 90.580622 26.932829 
L 91.098754 26.7416 
L 91.619477 27.110438 
L 92.142803 27.770859 
L 92.668746 28.059174 
L 93.728535 28.244611 
L 94.262407 28.808298 
L 95.338172 30.366374 
L 95.880092 29.609981 
L 96.424721 27.795611 
L 96.972074 26.7416 
L 97.522164 26.7416 
L 98.075004 28.188741 
L 98.630608 28.740298 
L 99.18899 27.65291 
L 99.750164 27.474783 
L 100.880944 28.339014 
L 101.450578 28.076082 
L 102.02306 27.415718 
L 102.598404 27.275832 
L 103.176625 28.193731 
L 104.341755 30.906804 
L 106.111388 36.398396 
L 106.707174 39.805591 
L 107.305939 47.072872 
L 108.512465 71.484316 
L 109.120257 75.831358 
L 109.731087 75.116418 
L 110.344972 75.060763 
L 110.961926 76.861751 
L 111.581965 77.934203 
L 112.205104 77.411225 
L 112.831358 76.594728 
L 113.460744 74.41771 
L 120.595188 42.606181 
L 121.934939 38.533216 
L 123.288121 31.893862 
L 123.969791 29.215396 
L 124.654869 27.111306 
L 125.343372 26.7416 
L 127.429607 26.7416 
L 128.131984 27.680382 
L 128.837873 27.854373 
L 129.547292 27.4959 
L 130.260257 27.461818 
L 131.696901 28.036391 
L 132.420614 27.644267 
L 133.878915 27.244744 
L 134.613539 27.577889 
L 135.351836 27.473878 
L 136.093824 26.7416 
L 136.839522 26.7416 
L 137.588949 27.331953 
L 138.342123 28.467572 
L 139.099063 28.478586 
L 139.859787 27.775203 
L 140.624315 27.768685 
L 141.392666 28.677448 
L 142.164859 29.295594 
L 142.940912 29.723057 
L 143.720846 30.882891 
L 144.504679 32.26153 
L 145.292432 32.902971 
L 146.084123 32.542017 
L 146.879773 30.916749 
L 147.679401 28.809369 
L 148.483027 27.422598 
L 149.290671 26.954727 
L 150.102354 26.7416 
L 150.102354 26.7416 
" clip-path="url(#pf196be4b4b)" style="fill: none; stroke: #1f77b4; stroke-width: 0.5; stroke-linecap: square"/>
   </g>
   <g id="line2d_60"/>
   <g id="patch_3">
    <path d="M 41.18475 146.538197 
L 41.18475 21.037 
" style="fill: none; stroke: #000000; stroke-linejoin: miter; stroke-linecap: square"/>
   </g>
   <g id="patch_4">
    <path d="M 194.192451 146.538197 
L 194.192451 21.037 
" style="fill: none; stroke: #000000; stroke-linejoin: miter; stroke-linecap: square"/>
   </g>
   <g id="patch_5">
    <path d="M 41.18475 146.538197 
L 194.192451 146.538197 
" style="fill: none; stroke: #000000; stroke-linejoin: miter; stroke-linecap: square"/>
   </g>
   <g id="patch_6">
    <path d="M 41.18475 21.037 
L 194.192451 21.037 
" style="fill: none; stroke: #000000; stroke-linejoin: miter; stroke-linecap: square"/>
   </g>
   <g id="text_13">
    <text style="font: 8px 'DejaVu Sans', 'Bitstream Vera Sans', 'Computer Modern Sans Serif', 'Lucida Grande', 'Verdana', 'Geneva', 'Lucid', 'Arial', 'Helvetica', 'Avant Garde', sans-serif" transform="translate(67.091725 6.07875)">Laboratory Iron oxides &amp; </text>
    <text style="font: 8px 'DejaVu Sans', 'Bitstream Vera Sans', 'Computer Modern Sans Serif', 'Lucida Grande', 'Verdana', 'Geneva', 'Lucid', 'Arial', 'Helvetica', 'Avant Garde', sans-serif" transform="translate(63.5136 15.037)"> primary silicates Hematite</text>
   </g>
   <g id="legend_1">
    <g id="patch_7">
     <path d="M 201.452605 89.091036 
L 271.061042 89.091036 
Q 272.261042 89.091036 272.261042 87.891036 
L 272.261042 79.684161 
Q 272.261042 78.484161 271.061042 78.484161 
L 201.452605 78.484161 
Q 200.252605 78.484161 200.252605 79.684161 
L 200.252605 87.891036 
Q 200.252605 89.091036 201.452605 89.091036 
z
" style="fill: #ffffff; opacity: 0.8; stroke: #cccccc; stroke-width: 0.8; stroke-linejoin: miter"/>
    </g>
    <g id="line2d_61">
     <path d="M 202.652605 83.343223 
L 208.652605 83.343223 
L 214.652605 83.343223 
" style="fill: none; stroke: #1f77b4; stroke-width: 1.2; stroke-linecap: square"/>
    </g>
    <g id="text_14">
     <text style="font: 6px 'DejaVu Sans', 'Bitstream Vera Sans', 'Computer Modern Sans Serif', 'Lucida Grande', 'Verdana', 'Geneva', 'Lucid', 'Arial', 'Helvetica', 'Avant Garde', sans-serif; text-anchor: start" x="219.452605" y="85.443223" transform="rotate(-0 219.452605 85.443223)">Hematite GDS27</text>
    </g>
   </g>
  </g>
 </g>
 <defs>
  <clipPath id="pf196be4b4b">
   <rect x="41.18475" y="21.037" width="153.007701" height="125.501197"/>
  </clipPath>
 </defs>
</svg>
