<?xml version="1.0" encoding="utf-8" standalone="no"?>
<!DOCTYPE svg PUBLIC "-//W3C//DTD SVG 1.1//EN"
  "http://www.w3.org/Graphics/SVG/1.1/DTD/svg11.dtd">
<svg xmlns:xlink="http://www.w3.org/1999/xlink" width="272.651505pt" height="176.855697pt" viewBox="0 0 272.651505 176.855697" xmlns="http://www.w3.org/2000/svg" version="1.1">
 <metadata>
  <rdf:RDF xmlns:dc="http://purl.org/dc/elements/1.1/" xmlns:cc="http://creativecommons.org/ns#" xmlns:rdf="http://www.w3.org/1999/02/22-rdf-syntax-ns#">
   <cc:Work>
    <dc:type rdf:resource="http://purl.org/dc/dcmitype/StillImage"/>
    <dc:date>2025-02-12T17:08:01.725118</dc:date>
    <dc:format>image/svg+xml</dc:format>
    <dc:creator>
     <cc:Agent>
      <dc:title>Matplotlib v3.6.2, https://matplotlib.org/</dc:title>
     </cc:Agent>
    </dc:creator>
   </cc:Work>
  </rdf:RDF>
 </metadata>
 <defs>
  <style type="text/css">*{stroke-linejoin: round; stroke-linecap: butt}</style>
 </defs>
 <g id="figure_1">
  <g id="patch_1">
   <path d="M -0 176.855697 
L 272.651505 176.855697 
L 272.651505 0 
L -0 0 
z
" style="fill: #ffffff"/>
  </g>
  <g id="axes_1">
   <g id="patch_2">
    <path d="M 35.58575 146.747947 
L 210.613451 146.747947 
L 210.613451 12.07875 
L 35.58575 12.07875 
z
" style="fill: #ffffff"/>
   </g>
   <g id="matplotlib.axis_1">
    <g id="xtick_1">
     <g id="line2d_1">
      <path d="M 47.401966 146.747947 
L 47.401966 12.07875 
" clip-path="url(#p0b5670d52b)" style="fill: none; stroke: #b0b0b0; stroke-width: 0.6; stroke-linecap: square"/>
     </g>
     <g id="line2d_2">
      <defs>
       <path id="mff09f4f506" d="M 0 0 
L 0 4.8 
" style="stroke: #000000"/>
      </defs>
      <g>
       <use xlink:href="#mff09f4f506" x="47.401966" y="146.747947" style="stroke: #000000"/>
      </g>
     </g>
     <g id="text_1">
      <text style="font: 8.8px 'DejaVu Sans', 'Bitstream Vera Sans', 'Computer Modern Sans Serif', 'Lucida Grande', 'Verdana', 'Geneva', 'Lucid', 'Arial', 'Helvetica', 'Avant Garde', sans-serif; text-anchor: middle" x="47.401966" y="161.734572" transform="rotate(-0 47.401966 161.734572)">1000</text>
     </g>
    </g>
    <g id="xtick_2">
     <g id="line2d_3">
      <path d="M 84.327641 146.747947 
L 84.327641 12.07875 
" clip-path="url(#p0b5670d52b)" style="fill: none; stroke: #b0b0b0; stroke-width: 0.6; stroke-linecap: square"/>
     </g>
     <g id="line2d_4">
      <g>
       <use xlink:href="#mff09f4f506" x="84.327641" y="146.747947" style="stroke: #000000"/>
      </g>
     </g>
     <g id="text_2">
      <text style="font: 8.8px 'DejaVu Sans', 'Bitstream Vera Sans', 'Computer Modern Sans Serif', 'Lucida Grande', 'Verdana', 'Geneva', 'Lucid', 'Arial', 'Helvetica', 'Avant Garde', sans-serif; text-anchor: middle" x="84.327641" y="161.734572" transform="rotate(-0 84.327641 161.734572)">1500</text>
     </g>
    </g>
    <g id="xtick_3">
     <g id="line2d_5">
      <path d="M 121.253317 146.747947 
L 121.253317 12.07875 
" clip-path="url(#p0b5670d52b)" style="fill: none; stroke: #b0b0b0; stroke-width: 0.6; stroke-linecap: square"/>
     </g>
     <g id="line2d_6">
      <g>
       <use xlink:href="#mff09f4f506" x="121.253317" y="146.747947" style="stroke: #000000"/>
      </g>
     </g>
     <g id="text_3">
      <text style="font: 8.8px 'DejaVu Sans', 'Bitstream Vera Sans', 'Computer Modern Sans Serif', 'Lucida Grande', 'Verdana', 'Geneva', 'Lucid', 'Arial', 'Helvetica', 'Avant Garde', sans-serif; text-anchor: middle" x="121.253317" y="161.734572" transform="rotate(-0 121.253317 161.734572)">2000</text>
     </g>
    </g>
    <g id="xtick_4">
     <g id="line2d_7">
      <path d="M 158.178992 146.747947 
L 158.178992 12.07875 
" clip-path="url(#p0b5670d52b)" style="fill: none; stroke: #b0b0b0; stroke-width: 0.6; stroke-linecap: square"/>
     </g>
     <g id="line2d_8">
      <g>
       <use xlink:href="#mff09f4f506" x="158.178992" y="146.747947" style="stroke: #000000"/>
      </g>
     </g>
     <g id="text_4">
      <text style="font: 8.8px 'DejaVu Sans', 'Bitstream Vera Sans', 'Computer Modern Sans Serif', 'Lucida Grande', 'Verdana', 'Geneva', 'Lucid', 'Arial', 'Helvetica', 'Avant Garde', sans-serif; text-anchor: middle" x="158.178992" y="161.734572" transform="rotate(-0 158.178992 161.734572)">2500</text>
     </g>
    </g>
    <g id="xtick_5">
     <g id="line2d_9">
      <path d="M 195.104667 146.747947 
L 195.104667 12.07875 
" clip-path="url(#p0b5670d52b)" style="fill: none; stroke: #b0b0b0; stroke-width: 0.6; stroke-linecap: square"/>
     </g>
     <g id="line2d_10">
      <g>
       <use xlink:href="#mff09f4f506" x="195.104667" y="146.747947" style="stroke: #000000"/>
      </g>
     </g>
     <g id="text_5">
      <text style="font: 8.8px 'DejaVu Sans', 'Bitstream Vera Sans', 'Computer Modern Sans Serif', 'Lucida Grande', 'Verdana', 'Geneva', 'Lucid', 'Arial', 'Helvetica', 'Avant Garde', sans-serif; text-anchor: middle" x="195.104667" y="161.734572" transform="rotate(-0 195.104667 161.734572)">3000</text>
     </g>
    </g>
    <g id="xtick_6">
     <g id="line2d_11">
      <path d="M 40.016831 146.747947 
L 40.016831 12.07875 
" clip-path="url(#p0b5670d52b)" style="fill: none; stroke: #b0b0b0; stroke-width: 0.3; stroke-linecap: square"/>
     </g>
     <g id="line2d_12">
      <defs>
       <path id="m6037a58ccc" d="M 0 0 
L 0 3.2 
" style="stroke: #000000; stroke-width: 0.8"/>
      </defs>
      <g>
       <use xlink:href="#m6037a58ccc" x="40.016831" y="146.747947" style="stroke: #000000; stroke-width: 0.8"/>
      </g>
     </g>
    </g>
    <g id="xtick_7">
     <g id="line2d_13">
      <path d="M 54.787101 146.747947 
L 54.787101 12.07875 
" clip-path="url(#p0b5670d52b)" style="fill: none; stroke: #b0b0b0; stroke-width: 0.3; stroke-linecap: square"/>
     </g>
     <g id="line2d_14">
      <g>
       <use xlink:href="#m6037a58ccc" x="54.787101" y="146.747947" style="stroke: #000000; stroke-width: 0.8"/>
      </g>
     </g>
    </g>
    <g id="xtick_8">
     <g id="line2d_15">
      <path d="M 62.172236 146.747947 
L 62.172236 12.07875 
" clip-path="url(#p0b5670d52b)" style="fill: none; stroke: #b0b0b0; stroke-width: 0.3; stroke-linecap: square"/>
     </g>
     <g id="line2d_16">
      <g>
       <use xlink:href="#m6037a58ccc" x="62.172236" y="146.747947" style="stroke: #000000; stroke-width: 0.8"/>
      </g>
     </g>
    </g>
    <g id="xtick_9">
     <g id="line2d_17">
      <path d="M 69.557371 146.747947 
L 69.557371 12.07875 
" clip-path="url(#p0b5670d52b)" style="fill: none; stroke: #b0b0b0; stroke-width: 0.3; stroke-linecap: square"/>
     </g>
     <g id="line2d_18">
      <g>
       <use xlink:href="#m6037a58ccc" x="69.557371" y="146.747947" style="stroke: #000000; stroke-width: 0.8"/>
      </g>
     </g>
    </g>
    <g id="xtick_10">
     <g id="line2d_19">
      <path d="M 76.942506 146.747947 
L 76.942506 12.07875 
" clip-path="url(#p0b5670d52b)" style="fill: none; stroke: #b0b0b0; stroke-width: 0.3; stroke-linecap: square"/>
     </g>
     <g id="line2d_20">
      <g>
       <use xlink:href="#m6037a58ccc" x="76.942506" y="146.747947" style="stroke: #000000; stroke-width: 0.8"/>
      </g>
     </g>
    </g>
    <g id="xtick_11">
     <g id="line2d_21">
      <path d="M 91.712776 146.747947 
L 91.712776 12.07875 
" clip-path="url(#p0b5670d52b)" style="fill: none; stroke: #b0b0b0; stroke-width: 0.3; stroke-linecap: square"/>
     </g>
     <g id="line2d_22">
      <g>
       <use xlink:href="#m6037a58ccc" x="91.712776" y="146.747947" style="stroke: #000000; stroke-width: 0.8"/>
      </g>
     </g>
    </g>
    <g id="xtick_12">
     <g id="line2d_23">
      <path d="M 99.097911 146.747947 
L 99.097911 12.07875 
" clip-path="url(#p0b5670d52b)" style="fill: none; stroke: #b0b0b0; stroke-width: 0.3; stroke-linecap: square"/>
     </g>
     <g id="line2d_24">
      <g>
       <use xlink:href="#m6037a58ccc" x="99.097911" y="146.747947" style="stroke: #000000; stroke-width: 0.8"/>
      </g>
     </g>
    </g>
    <g id="xtick_13">
     <g id="line2d_25">
      <path d="M 106.483047 146.747947 
L 106.483047 12.07875 
" clip-path="url(#p0b5670d52b)" style="fill: none; stroke: #b0b0b0; stroke-width: 0.3; stroke-linecap: square"/>
     </g>
     <g id="line2d_26">
      <g>
       <use xlink:href="#m6037a58ccc" x="106.483047" y="146.747947" style="stroke: #000000; stroke-width: 0.8"/>
      </g>
     </g>
    </g>
    <g id="xtick_14">
     <g id="line2d_27">
      <path d="M 113.868182 146.747947 
L 113.868182 12.07875 
" clip-path="url(#p0b5670d52b)" style="fill: none; stroke: #b0b0b0; stroke-width: 0.3; stroke-linecap: square"/>
     </g>
     <g id="line2d_28">
      <g>
       <use xlink:href="#m6037a58ccc" x="113.868182" y="146.747947" style="stroke: #000000; stroke-width: 0.8"/>
      </g>
     </g>
    </g>
    <g id="xtick_15">
     <g id="line2d_29">
      <path d="M 128.638452 146.747947 
L 128.638452 12.07875 
" clip-path="url(#p0b5670d52b)" style="fill: none; stroke: #b0b0b0; stroke-width: 0.3; stroke-linecap: square"/>
     </g>
     <g id="line2d_30">
      <g>
       <use xlink:href="#m6037a58ccc" x="128.638452" y="146.747947" style="stroke: #000000; stroke-width: 0.8"/>
      </g>
     </g>
    </g>
    <g id="xtick_16">
     <g id="line2d_31">
      <path d="M 136.023587 146.747947 
L 136.023587 12.07875 
" clip-path="url(#p0b5670d52b)" style="fill: none; stroke: #b0b0b0; stroke-width: 0.3; stroke-linecap: square"/>
     </g>
     <g id="line2d_32">
      <g>
       <use xlink:href="#m6037a58ccc" x="136.023587" y="146.747947" style="stroke: #000000; stroke-width: 0.8"/>
      </g>
     </g>
    </g>
    <g id="xtick_17">
     <g id="line2d_33">
      <path d="M 143.408722 146.747947 
L 143.408722 12.07875 
" clip-path="url(#p0b5670d52b)" style="fill: none; stroke: #b0b0b0; stroke-width: 0.3; stroke-linecap: square"/>
     </g>
     <g id="line2d_34">
      <g>
       <use xlink:href="#m6037a58ccc" x="143.408722" y="146.747947" style="stroke: #000000; stroke-width: 0.8"/>
      </g>
     </g>
    </g>
    <g id="xtick_18">
     <g id="line2d_35">
      <path d="M 150.793857 146.747947 
L 150.793857 12.07875 
" clip-path="url(#p0b5670d52b)" style="fill: none; stroke: #b0b0b0; stroke-width: 0.3; stroke-linecap: square"/>
     </g>
     <g id="line2d_36">
      <g>
       <use xlink:href="#m6037a58ccc" x="150.793857" y="146.747947" style="stroke: #000000; stroke-width: 0.8"/>
      </g>
     </g>
    </g>
    <g id="xtick_19">
     <g id="line2d_37">
      <path d="M 165.564127 146.747947 
L 165.564127 12.07875 
" clip-path="url(#p0b5670d52b)" style="fill: none; stroke: #b0b0b0; stroke-width: 0.3; stroke-linecap: square"/>
     </g>
     <g id="line2d_38">
      <g>
       <use xlink:href="#m6037a58ccc" x="165.564127" y="146.747947" style="stroke: #000000; stroke-width: 0.8"/>
      </g>
     </g>
    </g>
    <g id="xtick_20">
     <g id="line2d_39">
      <path d="M 172.949262 146.747947 
L 172.949262 12.07875 
" clip-path="url(#p0b5670d52b)" style="fill: none; stroke: #b0b0b0; stroke-width: 0.3; stroke-linecap: square"/>
     </g>
     <g id="line2d_40">
      <g>
       <use xlink:href="#m6037a58ccc" x="172.949262" y="146.747947" style="stroke: #000000; stroke-width: 0.8"/>
      </g>
     </g>
    </g>
    <g id="xtick_21">
     <g id="line2d_41">
      <path d="M 180.334397 146.747947 
L 180.334397 12.07875 
" clip-path="url(#p0b5670d52b)" style="fill: none; stroke: #b0b0b0; stroke-width: 0.3; stroke-linecap: square"/>
     </g>
     <g id="line2d_42">
      <g>
       <use xlink:href="#m6037a58ccc" x="180.334397" y="146.747947" style="stroke: #000000; stroke-width: 0.8"/>
      </g>
     </g>
    </g>
    <g id="xtick_22">
     <g id="line2d_43">
      <path d="M 187.719532 146.747947 
L 187.719532 12.07875 
" clip-path="url(#p0b5670d52b)" style="fill: none; stroke: #b0b0b0; stroke-width: 0.3; stroke-linecap: square"/>
     </g>
     <g id="line2d_44">
      <g>
       <use xlink:href="#m6037a58ccc" x="187.719532" y="146.747947" style="stroke: #000000; stroke-width: 0.8"/>
      </g>
     </g>
    </g>
    <g id="xtick_23">
     <g id="line2d_45">
      <path d="M 202.489802 146.747947 
L 202.489802 12.07875 
" clip-path="url(#p0b5670d52b)" style="fill: none; stroke: #b0b0b0; stroke-width: 0.3; stroke-linecap: square"/>
     </g>
     <g id="line2d_46">
      <g>
       <use xlink:href="#m6037a58ccc" x="202.489802" y="146.747947" style="stroke: #000000; stroke-width: 0.8"/>
      </g>
     </g>
    </g>
    <g id="xtick_24">
     <g id="line2d_47">
      <path d="M 209.874937 146.747947 
L 209.874937 12.07875 
" clip-path="url(#p0b5670d52b)" style="fill: none; stroke: #b0b0b0; stroke-width: 0.3; stroke-linecap: square"/>
     </g>
     <g id="line2d_48">
      <g>
       <use xlink:href="#m6037a58ccc" x="209.874937" y="146.747947" style="stroke: #000000; stroke-width: 0.8"/>
      </g>
     </g>
    </g>
    <g id="text_6">
     <text style="font: 9.6px 'DejaVu Sans', 'Bitstream Vera Sans', 'Computer Modern Sans Serif', 'Lucida Grande', 'Verdana', 'Geneva', 'Lucid', 'Arial', 'Helvetica', 'Avant Garde', sans-serif; text-anchor: middle" x="123.0996" y="174.859197" transform="rotate(-0 123.0996 174.859197)">Wavelength (nm)</text>
    </g>
   </g>
   <g id="matplotlib.axis_2">
    <g id="ytick_1">
     <g id="line2d_49">
      <path d="M 35.58575 126.997747 
L 210.613451 126.997747 
" clip-path="url(#p0b5670d52b)" style="fill: none; stroke: #b0b0b0; stroke-width: 0.6; stroke-linecap: square"/>
     </g>
     <g id="line2d_50">
      <defs>
       <path id="mbd89710a95" d="M 0 0 
L -4.8 0 
" style="stroke: #000000"/>
      </defs>
      <g>
       <use xlink:href="#mbd89710a95" x="35.58575" y="126.997747" style="stroke: #000000"/>
      </g>
     </g>
     <g id="text_7">
      <text style="font: 8.8px 'DejaVu Sans', 'Bitstream Vera Sans', 'Computer Modern Sans Serif', 'Lucida Grande', 'Verdana', 'Geneva', 'Lucid', 'Arial', 'Helvetica', 'Avant Garde', sans-serif; text-anchor: end" x="27.28575" y="130.341059" transform="rotate(-0 27.28575 130.341059)">0.5</text>
     </g>
    </g>
    <g id="ytick_2">
     <g id="line2d_51">
      <path d="M 35.58575 105.238213 
L 210.613451 105.238213 
" clip-path="url(#p0b5670d52b)" style="fill: none; stroke: #b0b0b0; stroke-width: 0.6; stroke-linecap: square"/>
     </g>
     <g id="line2d_52">
      <g>
       <use xlink:href="#mbd89710a95" x="35.58575" y="105.238213" style="stroke: #000000"/>
      </g>
     </g>
     <g id="text_8">
      <text style="font: 8.8px 'DejaVu Sans', 'Bitstream Vera Sans', 'Computer Modern Sans Serif', 'Lucida Grande', 'Verdana', 'Geneva', 'Lucid', 'Arial', 'Helvetica', 'Avant Garde', sans-serif; text-anchor: end" x="27.28575" y="108.581525" transform="rotate(-0 27.28575 108.581525)">0.6</text>
     </g>
    </g>
    <g id="ytick_3">
     <g id="line2d_53">
      <path d="M 35.58575 83.478679 
L 210.613451 83.478679 
" clip-path="url(#p0b5670d52b)" style="fill: none; stroke: #b0b0b0; stroke-width: 0.6; stroke-linecap: square"/>
     </g>
     <g id="line2d_54">
      <g>
       <use xlink:href="#mbd89710a95" x="35.58575" y="83.478679" style="stroke: #000000"/>
      </g>
     </g>
     <g id="text_9">
      <text style="font: 8.8px 'DejaVu Sans', 'Bitstream Vera Sans', 'Computer Modern Sans Serif', 'Lucida Grande', 'Verdana', 'Geneva', 'Lucid', 'Arial', 'Helvetica', 'Avant Garde', sans-serif; text-anchor: end" x="27.28575" y="86.821991" transform="rotate(-0 27.28575 86.821991)">0.7</text>
     </g>
    </g>
    <g id="ytick_4">
     <g id="line2d_55">
      <path d="M 35.58575 61.719145 
L 210.613451 61.719145 
" clip-path="url(#p0b5670d52b)" style="fill: none; stroke: #b0b0b0; stroke-width: 0.6; stroke-linecap: square"/>
     </g>
     <g id="line2d_56">
      <g>
       <use xlink:href="#mbd89710a95" x="35.58575" y="61.719145" style="stroke: #000000"/>
      </g>
     </g>
     <g id="text_10">
      <text style="font: 8.8px 'DejaVu Sans', 'Bitstream Vera Sans', 'Computer Modern Sans Serif', 'Lucida Grande', 'Verdana', 'Geneva', 'Lucid', 'Arial', 'Helvetica', 'Avant Garde', sans-serif; text-anchor: end" x="27.28575" y="65.062457" transform="rotate(-0 27.28575 65.062457)">0.8</text>
     </g>
    </g>
    <g id="ytick_5">
     <g id="line2d_57">
      <path d="M 35.58575 39.959611 
L 210.613451 39.959611 
" clip-path="url(#p0b5670d52b)" style="fill: none; stroke: #b0b0b0; stroke-width: 0.6; stroke-linecap: square"/>
     </g>
     <g id="line2d_58">
      <g>
       <use xlink:href="#mbd89710a95" x="35.58575" y="39.959611" style="stroke: #000000"/>
      </g>
     </g>
     <g id="text_11">
      <text style="font: 8.8px 'DejaVu Sans', 'Bitstream Vera Sans', 'Computer Modern Sans Serif', 'Lucida Grande', 'Verdana', 'Geneva', 'Lucid', 'Arial', 'Helvetica', 'Avant Garde', sans-serif; text-anchor: end" x="27.28575" y="43.302924" transform="rotate(-0 27.28575 43.302924)">0.9</text>
     </g>
    </g>
    <g id="ytick_6">
     <g id="line2d_59">
      <path d="M 35.58575 18.200077 
L 210.613451 18.200077 
" clip-path="url(#p0b5670d52b)" style="fill: none; stroke: #b0b0b0; stroke-width: 0.6; stroke-linecap: square"/>
     </g>
     <g id="line2d_60">
      <g>
       <use xlink:href="#mbd89710a95" x="35.58575" y="18.200077" style="stroke: #000000"/>
      </g>
     </g>
     <g id="text_12">
      <text style="font: 8.8px 'DejaVu Sans', 'Bitstream Vera Sans', 'Computer Modern Sans Serif', 'Lucida Grande', 'Verdana', 'Geneva', 'Lucid', 'Arial', 'Helvetica', 'Avant Garde', sans-serif; text-anchor: end" x="27.28575" y="21.54339" transform="rotate(-0 27.28575 21.54339)">1.0</text>
     </g>
    </g>
    <g id="text_13">
     <text style="font: 9.6px 'DejaVu Sans', 'Bitstream Vera Sans', 'Computer Modern Sans Serif', 'Lucida Grande', 'Verdana', 'Geneva', 'Lucid', 'Arial', 'Helvetica', 'Avant Garde', sans-serif; text-anchor: middle" x="7.2945" y="79.413348" transform="rotate(-90 7.2945 79.413348)">Reflectance</text>
    </g>
   </g>
   <g id="line2d_61">
    <path d="M 40.016831 18.200077 
L 41.018818 18.269922 
L 42.035909 18.784306 
L 42.378336 19.15628 
L 42.722474 19.971999 
L 43.415922 23.393868 
L 43.765249 23.914733 
L 44.46915 21.177277 
L 44.823743 20.430991 
L 45.180109 20.227067 
L 49.219714 21.934418 
L 49.978296 21.904572 
L 50.744484 21.651713 
L 51.908191 21.813863 
L 53.886818 21.301753 
L 57.157067 19.642309 
L 61.872123 18.200077 
L 62.757546 18.279515 
L 63.651845 18.200077 
L 64.55511 18.29209 
L 65.927014 18.200077 
L 66.388896 18.414543 
L 66.853088 19.00598 
L 67.788445 20.760148 
L 68.259634 20.461408 
L 68.733179 19.838443 
L 69.687384 19.695401 
L 70.168068 19.424417 
L 70.651155 19.46439 
L 71.624588 19.680522 
L 72.114958 19.795508 
L 72.60778 20.162829 
L 73.103066 20.775966 
L 73.600828 21.758831 
L 74.101079 23.446034 
L 74.603831 26.396097 
L 75.109097 32.605557 
L 75.61689 46.191352 
L 76.127221 64.945003 
L 76.640104 67.126602 
L 77.155552 51.216977 
L 77.673576 39.712526 
L 78.194191 34.790072 
L 78.717409 32.354447 
L 79.771706 29.193008 
L 80.836573 26.326965 
L 81.912114 24.589256 
L 83.545677 22.254546 
L 84.648378 21.47868 
L 85.203867 21.275519 
L 85.762133 21.19425 
L 86.887054 21.636746 
L 87.453736 21.390547 
L 88.595614 20.169779 
L 89.748941 19.630112 
L 90.913829 19.365472 
L 93.877397 18.943766 
L 97.532625 18.976627 
L 98.152535 18.750552 
L 98.775545 18.282788 
L 99.401669 18.200077 
L 100.663326 18.712773 
L 101.29889 18.672359 
L 101.937631 18.349276 
L 102.579566 18.200077 
L 106.499144 18.309408 
L 107.831953 19.002229 
L 108.50336 19.121629 
L 109.178124 18.874085 
L 109.856261 18.805103 
L 110.537789 18.990522 
L 111.222725 19.724908 
L 111.911086 21.341368 
L 112.602888 24.230798 
L 113.996887 32.141135 
L 114.699119 33.579272 
L 115.404861 32.726353 
L 116.82695 29.579105 
L 118.263295 26.888361 
L 118.986859 25.808993 
L 119.71404 25.089258 
L 120.444857 24.669491 
L 121.179328 24.568903 
L 121.917472 24.026253 
L 122.659306 21.994887 
L 123.404849 19.314656 
L 124.154121 18.200077 
L 124.907138 18.659187 
L 125.663921 21.004874 
L 126.424487 25.692471 
L 127.188857 28.798717 
L 127.957048 27.719081 
L 128.72908 25.671184 
L 129.504972 25.500354 
L 130.284744 27.054447 
L 131.068415 27.584082 
L 131.856004 25.317909 
L 132.647531 22.601815 
L 133.443015 21.810601 
L 134.242477 21.215179 
L 135.045936 19.084066 
L 135.853413 18.200077 
L 136.664927 19.165292 
L 137.480499 24.893819 
L 138.300148 32.443721 
L 139.123896 37.325767 
L 139.951762 46.454004 
L 140.783768 65.198539 
L 142.46028 119.633743 
L 143.304829 136.50792 
L 144.1536 140.62662 
L 145.006615 124.44055 
L 145.863895 93.593478 
L 146.725461 74.151734 
L 147.591335 73.571994 
L 148.461539 83.772878 
L 149.336093 96.159973 
L 150.215021 96.021686 
L 151.098343 82.974076 
L 151.986081 68.000598 
L 152.878259 61.168044 
L 153.774897 60.388201 
L 154.676018 60.066706 
L 155.581645 57.403267 
L 156.491801 50.114861 
L 158.325786 31.564961 
L 160.178157 18.200077 
L 160.178157 18.200077 
" clip-path="url(#p0b5670d52b)" style="fill: none; stroke: #1f77b4; stroke-width: 0.5; stroke-linecap: square"/>
   </g>
   <g id="line2d_62"/>
   <g id="patch_3">
    <path d="M 35.58575 146.747947 
L 35.58575 12.07875 
" style="fill: none; stroke: #000000; stroke-linejoin: miter; stroke-linecap: square"/>
   </g>
   <g id="patch_4">
    <path d="M 210.613451 146.747947 
L 210.613451 12.07875 
" style="fill: none; stroke: #000000; stroke-linejoin: miter; stroke-linecap: square"/>
   </g>
   <g id="patch_5">
    <path d="M 35.58575 146.747947 
L 210.613451 146.747947 
" style="fill: none; stroke: #000000; stroke-linejoin: miter; stroke-linecap: square"/>
   </g>
   <g id="patch_6">
    <path d="M 35.58575 12.07875 
L 210.613451 12.07875 
" style="fill: none; stroke: #000000; stroke-linejoin: miter; stroke-linecap: square"/>
   </g>
   <g id="text_14">
    <text style="font: 8px 'DejaVu Sans', 'Bitstream Vera Sans', 'Computer Modern Sans Serif', 'Lucida Grande', 'Verdana', 'Geneva', 'Lucid', 'Arial', 'Helvetica', 'Avant Garde', sans-serif; text-anchor: middle" x="123.0996" y="6.07875" transform="rotate(-0 123.0996 6.07875)">Laboratory Phyllosilicate Talc</text>
   </g>
   <g id="legend_1">
    <g id="patch_7">
     <path d="M 218.314005 84.716786 
L 271.451505 84.716786 
Q 272.651505 84.716786 272.651505 83.516786 
L 272.651505 75.309911 
Q 272.651505 74.109911 271.451505 74.109911 
L 218.314005 74.109911 
Q 217.114005 74.109911 217.114005 75.309911 
L 217.114005 83.516786 
Q 217.114005 84.716786 218.314005 84.716786 
z
" style="fill: #ffffff; opacity: 0.8; stroke: #cccccc; stroke-width: 0.8; stroke-linejoin: miter"/>
    </g>
    <g id="line2d_63">
     <path d="M 219.514005 78.968973 
L 225.514005 78.968973 
L 231.514005 78.968973 
" style="fill: none; stroke: #1f77b4; stroke-width: 1.2; stroke-linecap: square"/>
    </g>
    <g id="text_15">
     <text style="font: 6px 'DejaVu Sans', 'Bitstream Vera Sans', 'Computer Modern Sans Serif', 'Lucida Grande', 'Verdana', 'Geneva', 'Lucid', 'Arial', 'Helvetica', 'Avant Garde', sans-serif; text-anchor: start" x="236.314005" y="81.068973" transform="rotate(-0 236.314005 81.068973)">Talc GDS23</text>
    </g>
   </g>
  </g>
 </g>
 <defs>
  <clipPath id="p0b5670d52b">
   <rect x="35.58575" y="12.07875" width="175.027701" height="134.669197"/>
  </clipPath>
 </defs>
</svg>
