<?xml version="1.0" encoding="utf-8" standalone="no"?>
<!DOCTYPE svg PUBLIC "-//W3C//DTD SVG 1.1//EN"
  "http://www.w3.org/Graphics/SVG/1.1/DTD/svg11.dtd">
<svg xmlns:xlink="http://www.w3.org/1999/xlink" width="272.263642pt" height="176.855697pt" viewBox="0 0 272.263642 176.855697" xmlns="http://www.w3.org/2000/svg" version="1.1">
 <metadata>
  <rdf:RDF xmlns:dc="http://purl.org/dc/elements/1.1/" xmlns:cc="http://creativecommons.org/ns#" xmlns:rdf="http://www.w3.org/1999/02/22-rdf-syntax-ns#">
   <cc:Work>
    <dc:type rdf:resource="http://purl.org/dc/dcmitype/StillImage"/>
    <dc:date>2025-02-12T17:08:00.921388</dc:date>
    <dc:format>image/svg+xml</dc:format>
    <dc:creator>
     <cc:Agent>
      <dc:title>Matplotlib v3.6.2, https://matplotlib.org/</dc:title>
     </cc:Agent>
    </dc:creator>
   </cc:Work>
  </rdf:RDF>
 </metadata>
 <defs>
  <style type="text/css">*{stroke-linejoin: round; stroke-linecap: butt}</style>
 </defs>
 <g id="figure_1">
  <g id="patch_1">
   <path d="M -0 176.855697 
L 272.263642 176.855697 
L 272.263642 0 
L -0 0 
z
" style="fill: #ffffff"/>
  </g>
  <g id="axes_1">
   <g id="patch_2">
    <path d="M 35.58575 146.747947 
L 193.423451 146.747947 
L 193.423451 12.07875 
L 35.58575 12.07875 
z
" style="fill: #ffffff"/>
   </g>
   <g id="matplotlib.axis_1">
    <g id="xtick_1">
     <g id="line2d_1">
      <path d="M 46.24146 146.747947 
L 46.24146 12.07875 
" clip-path="url(#p748bfd0408)" style="fill: none; stroke: #b0b0b0; stroke-width: 0.6; stroke-linecap: square"/>
     </g>
     <g id="line2d_2">
      <defs>
       <path id="m723b34cece" d="M 0 0 
L 0 4.8 
" style="stroke: #000000"/>
      </defs>
      <g>
       <use xlink:href="#m723b34cece" x="46.24146" y="146.747947" style="stroke: #000000"/>
      </g>
     </g>
     <g id="text_1">
      <text style="font: 8.8px 'DejaVu Sans', 'Bitstream Vera Sans', 'Computer Modern Sans Serif', 'Lucida Grande', 'Verdana', 'Geneva', 'Lucid', 'Arial', 'Helvetica', 'Avant Garde', sans-serif; text-anchor: middle" x="46.24146" y="161.734572" transform="rotate(-0 46.24146 161.734572)">1000</text>
     </g>
    </g>
    <g id="xtick_2">
     <g id="line2d_3">
      <path d="M 79.540553 146.747947 
L 79.540553 12.07875 
" clip-path="url(#p748bfd0408)" style="fill: none; stroke: #b0b0b0; stroke-width: 0.6; stroke-linecap: square"/>
     </g>
     <g id="line2d_4">
      <g>
       <use xlink:href="#m723b34cece" x="79.540553" y="146.747947" style="stroke: #000000"/>
      </g>
     </g>
     <g id="text_2">
      <text style="font: 8.8px 'DejaVu Sans', 'Bitstream Vera Sans', 'Computer Modern Sans Serif', 'Lucida Grande', 'Verdana', 'Geneva', 'Lucid', 'Arial', 'Helvetica', 'Avant Garde', sans-serif; text-anchor: middle" x="79.540553" y="161.734572" transform="rotate(-0 79.540553 161.734572)">1500</text>
     </g>
    </g>
    <g id="xtick_3">
     <g id="line2d_5">
      <path d="M 112.839646 146.747947 
L 112.839646 12.07875 
" clip-path="url(#p748bfd0408)" style="fill: none; stroke: #b0b0b0; stroke-width: 0.6; stroke-linecap: square"/>
     </g>
     <g id="line2d_6">
      <g>
       <use xlink:href="#m723b34cece" x="112.839646" y="146.747947" style="stroke: #000000"/>
      </g>
     </g>
     <g id="text_3">
      <text style="font: 8.8px 'DejaVu Sans', 'Bitstream Vera Sans', 'Computer Modern Sans Serif', 'Lucida Grande', 'Verdana', 'Geneva', 'Lucid', 'Arial', 'Helvetica', 'Avant Garde', sans-serif; text-anchor: middle" x="112.839646" y="161.734572" transform="rotate(-0 112.839646 161.734572)">2000</text>
     </g>
    </g>
    <g id="xtick_4">
     <g id="line2d_7">
      <path d="M 146.138739 146.747947 
L 146.138739 12.07875 
" clip-path="url(#p748bfd0408)" style="fill: none; stroke: #b0b0b0; stroke-width: 0.6; stroke-linecap: square"/>
     </g>
     <g id="line2d_8">
      <g>
       <use xlink:href="#m723b34cece" x="146.138739" y="146.747947" style="stroke: #000000"/>
      </g>
     </g>
     <g id="text_4">
      <text style="font: 8.8px 'DejaVu Sans', 'Bitstream Vera Sans', 'Computer Modern Sans Serif', 'Lucida Grande', 'Verdana', 'Geneva', 'Lucid', 'Arial', 'Helvetica', 'Avant Garde', sans-serif; text-anchor: middle" x="146.138739" y="161.734572" transform="rotate(-0 146.138739 161.734572)">2500</text>
     </g>
    </g>
    <g id="xtick_5">
     <g id="line2d_9">
      <path d="M 179.437832 146.747947 
L 179.437832 12.07875 
" clip-path="url(#p748bfd0408)" style="fill: none; stroke: #b0b0b0; stroke-width: 0.6; stroke-linecap: square"/>
     </g>
     <g id="line2d_10">
      <g>
       <use xlink:href="#m723b34cece" x="179.437832" y="146.747947" style="stroke: #000000"/>
      </g>
     </g>
     <g id="text_5">
      <text style="font: 8.8px 'DejaVu Sans', 'Bitstream Vera Sans', 'Computer Modern Sans Serif', 'Lucida Grande', 'Verdana', 'Geneva', 'Lucid', 'Arial', 'Helvetica', 'Avant Garde', sans-serif; text-anchor: middle" x="179.437832" y="161.734572" transform="rotate(-0 179.437832 161.734572)">3000</text>
     </g>
    </g>
    <g id="xtick_6">
     <g id="line2d_11">
      <path d="M 39.581641 146.747947 
L 39.581641 12.07875 
" clip-path="url(#p748bfd0408)" style="fill: none; stroke: #b0b0b0; stroke-width: 0.3; stroke-linecap: square"/>
     </g>
     <g id="line2d_12">
      <defs>
       <path id="m467c40f000" d="M 0 0 
L 0 3.2 
" style="stroke: #000000; stroke-width: 0.8"/>
      </defs>
      <g>
       <use xlink:href="#m467c40f000" x="39.581641" y="146.747947" style="stroke: #000000; stroke-width: 0.8"/>
      </g>
     </g>
    </g>
    <g id="xtick_7">
     <g id="line2d_13">
      <path d="M 52.901278 146.747947 
L 52.901278 12.07875 
" clip-path="url(#p748bfd0408)" style="fill: none; stroke: #b0b0b0; stroke-width: 0.3; stroke-linecap: square"/>
     </g>
     <g id="line2d_14">
      <g>
       <use xlink:href="#m467c40f000" x="52.901278" y="146.747947" style="stroke: #000000; stroke-width: 0.8"/>
      </g>
     </g>
    </g>
    <g id="xtick_8">
     <g id="line2d_15">
      <path d="M 59.561097 146.747947 
L 59.561097 12.07875 
" clip-path="url(#p748bfd0408)" style="fill: none; stroke: #b0b0b0; stroke-width: 0.3; stroke-linecap: square"/>
     </g>
     <g id="line2d_16">
      <g>
       <use xlink:href="#m467c40f000" x="59.561097" y="146.747947" style="stroke: #000000; stroke-width: 0.8"/>
      </g>
     </g>
    </g>
    <g id="xtick_9">
     <g id="line2d_17">
      <path d="M 66.220916 146.747947 
L 66.220916 12.07875 
" clip-path="url(#p748bfd0408)" style="fill: none; stroke: #b0b0b0; stroke-width: 0.3; stroke-linecap: square"/>
     </g>
     <g id="line2d_18">
      <g>
       <use xlink:href="#m467c40f000" x="66.220916" y="146.747947" style="stroke: #000000; stroke-width: 0.8"/>
      </g>
     </g>
    </g>
    <g id="xtick_10">
     <g id="line2d_19">
      <path d="M 72.880734 146.747947 
L 72.880734 12.07875 
" clip-path="url(#p748bfd0408)" style="fill: none; stroke: #b0b0b0; stroke-width: 0.3; stroke-linecap: square"/>
     </g>
     <g id="line2d_20">
      <g>
       <use xlink:href="#m467c40f000" x="72.880734" y="146.747947" style="stroke: #000000; stroke-width: 0.8"/>
      </g>
     </g>
    </g>
    <g id="xtick_11">
     <g id="line2d_21">
      <path d="M 86.200371 146.747947 
L 86.200371 12.07875 
" clip-path="url(#p748bfd0408)" style="fill: none; stroke: #b0b0b0; stroke-width: 0.3; stroke-linecap: square"/>
     </g>
     <g id="line2d_22">
      <g>
       <use xlink:href="#m467c40f000" x="86.200371" y="146.747947" style="stroke: #000000; stroke-width: 0.8"/>
      </g>
     </g>
    </g>
    <g id="xtick_12">
     <g id="line2d_23">
      <path d="M 92.86019 146.747947 
L 92.86019 12.07875 
" clip-path="url(#p748bfd0408)" style="fill: none; stroke: #b0b0b0; stroke-width: 0.3; stroke-linecap: square"/>
     </g>
     <g id="line2d_24">
      <g>
       <use xlink:href="#m467c40f000" x="92.86019" y="146.747947" style="stroke: #000000; stroke-width: 0.8"/>
      </g>
     </g>
    </g>
    <g id="xtick_13">
     <g id="line2d_25">
      <path d="M 99.520009 146.747947 
L 99.520009 12.07875 
" clip-path="url(#p748bfd0408)" style="fill: none; stroke: #b0b0b0; stroke-width: 0.3; stroke-linecap: square"/>
     </g>
     <g id="line2d_26">
      <g>
       <use xlink:href="#m467c40f000" x="99.520009" y="146.747947" style="stroke: #000000; stroke-width: 0.8"/>
      </g>
     </g>
    </g>
    <g id="xtick_14">
     <g id="line2d_27">
      <path d="M 106.179827 146.747947 
L 106.179827 12.07875 
" clip-path="url(#p748bfd0408)" style="fill: none; stroke: #b0b0b0; stroke-width: 0.3; stroke-linecap: square"/>
     </g>
     <g id="line2d_28">
      <g>
       <use xlink:href="#m467c40f000" x="106.179827" y="146.747947" style="stroke: #000000; stroke-width: 0.8"/>
      </g>
     </g>
    </g>
    <g id="xtick_15">
     <g id="line2d_29">
      <path d="M 119.499464 146.747947 
L 119.499464 12.07875 
" clip-path="url(#p748bfd0408)" style="fill: none; stroke: #b0b0b0; stroke-width: 0.3; stroke-linecap: square"/>
     </g>
     <g id="line2d_30">
      <g>
       <use xlink:href="#m467c40f000" x="119.499464" y="146.747947" style="stroke: #000000; stroke-width: 0.8"/>
      </g>
     </g>
    </g>
    <g id="xtick_16">
     <g id="line2d_31">
      <path d="M 126.159283 146.747947 
L 126.159283 12.07875 
" clip-path="url(#p748bfd0408)" style="fill: none; stroke: #b0b0b0; stroke-width: 0.3; stroke-linecap: square"/>
     </g>
     <g id="line2d_32">
      <g>
       <use xlink:href="#m467c40f000" x="126.159283" y="146.747947" style="stroke: #000000; stroke-width: 0.8"/>
      </g>
     </g>
    </g>
    <g id="xtick_17">
     <g id="line2d_33">
      <path d="M 132.819102 146.747947 
L 132.819102 12.07875 
" clip-path="url(#p748bfd0408)" style="fill: none; stroke: #b0b0b0; stroke-width: 0.3; stroke-linecap: square"/>
     </g>
     <g id="line2d_34">
      <g>
       <use xlink:href="#m467c40f000" x="132.819102" y="146.747947" style="stroke: #000000; stroke-width: 0.8"/>
      </g>
     </g>
    </g>
    <g id="xtick_18">
     <g id="line2d_35">
      <path d="M 139.47892 146.747947 
L 139.47892 12.07875 
" clip-path="url(#p748bfd0408)" style="fill: none; stroke: #b0b0b0; stroke-width: 0.3; stroke-linecap: square"/>
     </g>
     <g id="line2d_36">
      <g>
       <use xlink:href="#m467c40f000" x="139.47892" y="146.747947" style="stroke: #000000; stroke-width: 0.8"/>
      </g>
     </g>
    </g>
    <g id="xtick_19">
     <g id="line2d_37">
      <path d="M 152.798557 146.747947 
L 152.798557 12.07875 
" clip-path="url(#p748bfd0408)" style="fill: none; stroke: #b0b0b0; stroke-width: 0.3; stroke-linecap: square"/>
     </g>
     <g id="line2d_38">
      <g>
       <use xlink:href="#m467c40f000" x="152.798557" y="146.747947" style="stroke: #000000; stroke-width: 0.8"/>
      </g>
     </g>
    </g>
    <g id="xtick_20">
     <g id="line2d_39">
      <path d="M 159.458376 146.747947 
L 159.458376 12.07875 
" clip-path="url(#p748bfd0408)" style="fill: none; stroke: #b0b0b0; stroke-width: 0.3; stroke-linecap: square"/>
     </g>
     <g id="line2d_40">
      <g>
       <use xlink:href="#m467c40f000" x="159.458376" y="146.747947" style="stroke: #000000; stroke-width: 0.8"/>
      </g>
     </g>
    </g>
    <g id="xtick_21">
     <g id="line2d_41">
      <path d="M 166.118195 146.747947 
L 166.118195 12.07875 
" clip-path="url(#p748bfd0408)" style="fill: none; stroke: #b0b0b0; stroke-width: 0.3; stroke-linecap: square"/>
     </g>
     <g id="line2d_42">
      <g>
       <use xlink:href="#m467c40f000" x="166.118195" y="146.747947" style="stroke: #000000; stroke-width: 0.8"/>
      </g>
     </g>
    </g>
    <g id="xtick_22">
     <g id="line2d_43">
      <path d="M 172.778013 146.747947 
L 172.778013 12.07875 
" clip-path="url(#p748bfd0408)" style="fill: none; stroke: #b0b0b0; stroke-width: 0.3; stroke-linecap: square"/>
     </g>
     <g id="line2d_44">
      <g>
       <use xlink:href="#m467c40f000" x="172.778013" y="146.747947" style="stroke: #000000; stroke-width: 0.8"/>
      </g>
     </g>
    </g>
    <g id="xtick_23">
     <g id="line2d_45">
      <path d="M 186.09765 146.747947 
L 186.09765 12.07875 
" clip-path="url(#p748bfd0408)" style="fill: none; stroke: #b0b0b0; stroke-width: 0.3; stroke-linecap: square"/>
     </g>
     <g id="line2d_46">
      <g>
       <use xlink:href="#m467c40f000" x="186.09765" y="146.747947" style="stroke: #000000; stroke-width: 0.8"/>
      </g>
     </g>
    </g>
    <g id="xtick_24">
     <g id="line2d_47">
      <path d="M 192.757469 146.747947 
L 192.757469 12.07875 
" clip-path="url(#p748bfd0408)" style="fill: none; stroke: #b0b0b0; stroke-width: 0.3; stroke-linecap: square"/>
     </g>
     <g id="line2d_48">
      <g>
       <use xlink:href="#m467c40f000" x="192.757469" y="146.747947" style="stroke: #000000; stroke-width: 0.8"/>
      </g>
     </g>
    </g>
    <g id="text_6">
     <text style="font: 9.6px 'DejaVu Sans', 'Bitstream Vera Sans', 'Computer Modern Sans Serif', 'Lucida Grande', 'Verdana', 'Geneva', 'Lucid', 'Arial', 'Helvetica', 'Avant Garde', sans-serif; text-anchor: middle" x="114.5046" y="174.859197" transform="rotate(-0 114.5046 174.859197)">Wavelength (nm)</text>
    </g>
   </g>
   <g id="matplotlib.axis_2">
    <g id="ytick_1">
     <g id="line2d_49">
      <path d="M 35.58575 134.22326 
L 193.423451 134.22326 
" clip-path="url(#p748bfd0408)" style="fill: none; stroke: #b0b0b0; stroke-width: 0.6; stroke-linecap: square"/>
     </g>
     <g id="line2d_50">
      <defs>
       <path id="m527414d4b9" d="M 0 0 
L -4.8 0 
" style="stroke: #000000"/>
      </defs>
      <g>
       <use xlink:href="#m527414d4b9" x="35.58575" y="134.22326" style="stroke: #000000"/>
      </g>
     </g>
     <g id="text_7">
      <text style="font: 8.8px 'DejaVu Sans', 'Bitstream Vera Sans', 'Computer Modern Sans Serif', 'Lucida Grande', 'Verdana', 'Geneva', 'Lucid', 'Arial', 'Helvetica', 'Avant Garde', sans-serif; text-anchor: end" x="27.28575" y="137.566572" transform="rotate(-0 27.28575 137.566572)">0.2</text>
     </g>
    </g>
    <g id="ytick_2">
     <g id="line2d_51">
      <path d="M 35.58575 105.217464 
L 193.423451 105.217464 
" clip-path="url(#p748bfd0408)" style="fill: none; stroke: #b0b0b0; stroke-width: 0.6; stroke-linecap: square"/>
     </g>
     <g id="line2d_52">
      <g>
       <use xlink:href="#m527414d4b9" x="35.58575" y="105.217464" style="stroke: #000000"/>
      </g>
     </g>
     <g id="text_8">
      <text style="font: 8.8px 'DejaVu Sans', 'Bitstream Vera Sans', 'Computer Modern Sans Serif', 'Lucida Grande', 'Verdana', 'Geneva', 'Lucid', 'Arial', 'Helvetica', 'Avant Garde', sans-serif; text-anchor: end" x="27.28575" y="108.560777" transform="rotate(-0 27.28575 108.560777)">0.4</text>
     </g>
    </g>
    <g id="ytick_3">
     <g id="line2d_53">
      <path d="M 35.58575 76.211669 
L 193.423451 76.211669 
" clip-path="url(#p748bfd0408)" style="fill: none; stroke: #b0b0b0; stroke-width: 0.6; stroke-linecap: square"/>
     </g>
     <g id="line2d_54">
      <g>
       <use xlink:href="#m527414d4b9" x="35.58575" y="76.211669" style="stroke: #000000"/>
      </g>
     </g>
     <g id="text_9">
      <text style="font: 8.8px 'DejaVu Sans', 'Bitstream Vera Sans', 'Computer Modern Sans Serif', 'Lucida Grande', 'Verdana', 'Geneva', 'Lucid', 'Arial', 'Helvetica', 'Avant Garde', sans-serif; text-anchor: end" x="27.28575" y="79.554981" transform="rotate(-0 27.28575 79.554981)">0.6</text>
     </g>
    </g>
    <g id="ytick_4">
     <g id="line2d_55">
      <path d="M 35.58575 47.205873 
L 193.423451 47.205873 
" clip-path="url(#p748bfd0408)" style="fill: none; stroke: #b0b0b0; stroke-width: 0.6; stroke-linecap: square"/>
     </g>
     <g id="line2d_56">
      <g>
       <use xlink:href="#m527414d4b9" x="35.58575" y="47.205873" style="stroke: #000000"/>
      </g>
     </g>
     <g id="text_10">
      <text style="font: 8.8px 'DejaVu Sans', 'Bitstream Vera Sans', 'Computer Modern Sans Serif', 'Lucida Grande', 'Verdana', 'Geneva', 'Lucid', 'Arial', 'Helvetica', 'Avant Garde', sans-serif; text-anchor: end" x="27.28575" y="50.549185" transform="rotate(-0 27.28575 50.549185)">0.8</text>
     </g>
    </g>
    <g id="ytick_5">
     <g id="line2d_57">
      <path d="M 35.58575 18.200077 
L 193.423451 18.200077 
" clip-path="url(#p748bfd0408)" style="fill: none; stroke: #b0b0b0; stroke-width: 0.6; stroke-linecap: square"/>
     </g>
     <g id="line2d_58">
      <g>
       <use xlink:href="#m527414d4b9" x="35.58575" y="18.200077" style="stroke: #000000"/>
      </g>
     </g>
     <g id="text_11">
      <text style="font: 8.8px 'DejaVu Sans', 'Bitstream Vera Sans', 'Computer Modern Sans Serif', 'Lucida Grande', 'Verdana', 'Geneva', 'Lucid', 'Arial', 'Helvetica', 'Avant Garde', sans-serif; text-anchor: end" x="27.28575" y="21.54339" transform="rotate(-0 27.28575 21.54339)">1.0</text>
     </g>
    </g>
    <g id="text_12">
     <text style="font: 9.6px 'DejaVu Sans', 'Bitstream Vera Sans', 'Computer Modern Sans Serif', 'Lucida Grande', 'Verdana', 'Geneva', 'Lucid', 'Arial', 'Helvetica', 'Avant Garde', sans-serif; text-anchor: middle" x="7.2945" y="79.413348" transform="rotate(-90 7.2945 79.413348)">Reflectance</text>
    </g>
   </g>
   <g id="line2d_59">
    <path d="M 39.581641 18.200077 
L 41.09516 18.339682 
L 42.021555 18.565957 
L 42.961915 18.932397 
L 43.596685 19.219554 
L 43.916452 19.242399 
L 44.56079 18.790241 
L 45.211588 18.494079 
L 45.868911 18.48666 
L 46.200039 18.407397 
L 47.541191 18.446303 
L 50.305115 18.235123 
L 52.089415 18.356652 
L 52.815687 18.284169 
L 54.290148 18.233151 
L 55.415459 18.233183 
L 59.688694 18.23995 
L 60.895389 18.480095 
L 62.120275 19.194534 
L 62.53266 19.237119 
L 63.363626 19.070607 
L 63.782228 19.109821 
L 64.202923 19.315774 
L 65.050633 20.053527 
L 65.906842 21.273323 
L 66.771634 22.527827 
L 68.971734 25.001589 
L 69.418377 26.03374 
L 71.22739 32.293998 
L 72.145521 38.30548 
L 72.608032 40.386616 
L 73.540004 41.291699 
L 74.009487 40.155492 
L 74.955509 29.434287 
L 75.43207 26.449737 
L 75.911014 24.788898 
L 76.876098 22.938721 
L 77.850857 21.771533 
L 78.835388 20.950797 
L 79.829789 20.396946 
L 80.834159 19.791218 
L 83.389355 18.849744 
L 85.479891 18.398043 
L 87.075391 18.200077 
L 88.694944 18.268067 
L 90.338911 18.200077 
L 91.448635 18.234292 
L 97.166376 18.25349 
L 100.133981 18.740574 
L 103.176523 18.200077 
L 103.794189 18.334822 
L 104.414944 19.129285 
L 106.929155 23.745575 
L 107.565585 24.067314 
L 108.205196 23.857524 
L 109.49403 22.649937 
L 111.451546 20.404427 
L 112.772924 19.215197 
L 114.107549 18.411582 
L 114.77987 18.203451 
L 116.134614 18.200077 
L 116.817071 18.408773 
L 117.50294 18.959572 
L 118.192238 19.698872 
L 118.884983 20.60899 
L 119.581192 21.793528 
L 120.984069 25.502886 
L 121.690773 28.441414 
L 122.401011 33.529002 
L 123.114799 40.073986 
L 123.832157 45.053781 
L 124.553102 47.421908 
L 125.277651 48.856943 
L 126.005823 50.690604 
L 126.737635 51.421345 
L 127.473107 44.84979 
L 128.212256 36.780366 
L 128.955101 32.738006 
L 129.70166 30.868345 
L 130.451952 30.343328 
L 131.205996 30.924537 
L 131.963809 32.200487 
L 134.26006 37.417193 
L 135.033144 38.228067 
L 135.810094 39.303769 
L 136.590928 41.122088 
L 138.164328 43.854069 
L 138.956933 44.010792 
L 139.753502 43.046049 
L 140.554053 43.053259 
L 141.358607 44.659251 
L 142.979803 49.478961 
L 144.617252 52.982996 
L 145.442121 54.947609 
L 146.271116 56.352071 
L 149.62875 61.157497 
L 150.478677 62.675703 
L 153.054043 68.172908 
L 153.921096 70.740263 
L 154.792485 74.520665 
L 155.668232 80.130441 
L 156.548356 87.95266 
L 157.432882 98.77245 
L 159.215223 126.999894 
L 160.113082 136.474638 
L 161.015431 139.879731 
L 161.922292 140.62662 
L 162.833687 139.332933 
L 163.749639 135.451102 
L 165.595306 119.154789 
L 166.525066 112.350863 
L 167.459475 106.974909 
L 169.342332 98.446825 
L 171.244065 90.968589 
L 172.202069 87.70527 
L 173.164863 84.896872 
L 174.132471 80.61319 
L 176.082225 68.428236 
L 180.040568 48.819256 
L 186.128139 18.200077 
L 186.128139 18.200077 
" clip-path="url(#p748bfd0408)" style="fill: none; stroke: #1f77b4; stroke-width: 0.5; stroke-linecap: square"/>
   </g>
   <g id="line2d_60"/>
   <g id="patch_3">
    <path d="M 35.58575 146.747947 
L 35.58575 12.07875 
" style="fill: none; stroke: #000000; stroke-linejoin: miter; stroke-linecap: square"/>
   </g>
   <g id="patch_4">
    <path d="M 193.423451 146.747947 
L 193.423451 12.07875 
" style="fill: none; stroke: #000000; stroke-linejoin: miter; stroke-linecap: square"/>
   </g>
   <g id="patch_5">
    <path d="M 35.58575 146.747947 
L 193.423451 146.747947 
" style="fill: none; stroke: #000000; stroke-linejoin: miter; stroke-linecap: square"/>
   </g>
   <g id="patch_6">
    <path d="M 35.58575 12.07875 
L 193.423451 12.07875 
" style="fill: none; stroke: #000000; stroke-linejoin: miter; stroke-linecap: square"/>
   </g>
   <g id="text_13">
    <text style="font: 8px 'DejaVu Sans', 'Bitstream Vera Sans', 'Computer Modern Sans Serif', 'Lucida Grande', 'Verdana', 'Geneva', 'Lucid', 'Arial', 'Helvetica', 'Avant Garde', sans-serif; text-anchor: middle" x="114.5046" y="6.07875" transform="rotate(-0 114.5046 6.07875)">Laboratory Phyllosilicate Kaolinite</text>
   </g>
   <g id="legend_1">
    <g id="patch_7">
     <path d="M 200.780205 84.716786 
L 271.063642 84.716786 
Q 272.263642 84.716786 272.263642 83.516786 
L 272.263642 75.309911 
Q 272.263642 74.109911 271.063642 74.109911 
L 200.780205 74.109911 
Q 199.580205 74.109911 199.580205 75.309911 
L 199.580205 83.516786 
Q 199.580205 84.716786 200.780205 84.716786 
z
" style="fill: #ffffff; opacity: 0.8; stroke: #cccccc; stroke-width: 0.8; stroke-linejoin: miter"/>
    </g>
    <g id="line2d_61">
     <path d="M 201.980205 78.968973 
L 207.980205 78.968973 
L 213.980205 78.968973 
" style="fill: none; stroke: #1f77b4; stroke-width: 1.2; stroke-linecap: square"/>
    </g>
    <g id="text_14">
     <text style="font: 6px 'DejaVu Sans', 'Bitstream Vera Sans', 'Computer Modern Sans Serif', 'Lucida Grande', 'Verdana', 'Geneva', 'Lucid', 'Arial', 'Helvetica', 'Avant Garde', sans-serif; text-anchor: start" x="218.780205" y="81.068973" transform="rotate(-0 218.780205 81.068973)">Kaolinite LAKA04</text>
    </g>
   </g>
  </g>
 </g>
 <defs>
  <clipPath id="p748bfd0408">
   <rect x="35.58575" y="12.07875" width="157.837701" height="134.669197"/>
  </clipPath>
 </defs>
</svg>
