<?xml version="1.0" encoding="utf-8" standalone="no"?>
<!DOCTYPE svg PUBLIC "-//W3C//DTD SVG 1.1//EN"
  "http://www.w3.org/Graphics/SVG/1.1/DTD/svg11.dtd">
<svg xmlns:xlink="http://www.w3.org/1999/xlink" width="272.116605pt" height="176.855697pt" viewBox="0 0 272.116605 176.855697" xmlns="http://www.w3.org/2000/svg" version="1.1">
 <metadata>
  <rdf:RDF xmlns:dc="http://purl.org/dc/elements/1.1/" xmlns:cc="http://creativecommons.org/ns#" xmlns:rdf="http://www.w3.org/1999/02/22-rdf-syntax-ns#">
   <cc:Work>
    <dc:type rdf:resource="http://purl.org/dc/dcmitype/StillImage"/>
    <dc:date>2025-02-12T17:08:01.940086</dc:date>
    <dc:format>image/svg+xml</dc:format>
    <dc:creator>
     <cc:Agent>
      <dc:title>Matplotlib v3.6.2, https://matplotlib.org/</dc:title>
     </cc:Agent>
    </dc:creator>
   </cc:Work>
  </rdf:RDF>
 </metadata>
 <defs>
  <style type="text/css">*{stroke-linejoin: round; stroke-linecap: butt}</style>
 </defs>
 <g id="figure_1">
  <g id="patch_1">
   <path d="M -0 176.855697 
L 272.116605 176.855697 
L 272.116605 0 
L -0 0 
z
" style="fill: #ffffff"/>
  </g>
  <g id="axes_1">
   <g id="patch_2">
    <path d="M 35.58575 146.747947 
L 184.243451 146.747947 
L 184.243451 12.07875 
L 35.58575 12.07875 
z
" style="fill: #ffffff"/>
   </g>
   <g id="matplotlib.axis_1">
    <g id="xtick_1">
     <g id="line2d_1">
      <path d="M 45.621713 146.747947 
L 45.621713 12.07875 
" clip-path="url(#pc8dd952404)" style="fill: none; stroke: #b0b0b0; stroke-width: 0.6; stroke-linecap: square"/>
     </g>
     <g id="line2d_2">
      <defs>
       <path id="m6fa9d8bff5" d="M 0 0 
L 0 4.8 
" style="stroke: #000000"/>
      </defs>
      <g>
       <use xlink:href="#m6fa9d8bff5" x="45.621713" y="146.747947" style="stroke: #000000"/>
      </g>
     </g>
     <g id="text_1">
      <text style="font: 8.8px 'DejaVu Sans', 'Bitstream Vera Sans', 'Computer Modern Sans Serif', 'Lucida Grande', 'Verdana', 'Geneva', 'Lucid', 'Arial', 'Helvetica', 'Avant Garde', sans-serif; text-anchor: middle" x="45.621713" y="161.734572" transform="rotate(-0 45.621713 161.734572)">1000</text>
     </g>
    </g>
    <g id="xtick_2">
     <g id="line2d_3">
      <path d="M 76.984097 146.747947 
L 76.984097 12.07875 
" clip-path="url(#pc8dd952404)" style="fill: none; stroke: #b0b0b0; stroke-width: 0.6; stroke-linecap: square"/>
     </g>
     <g id="line2d_4">
      <g>
       <use xlink:href="#m6fa9d8bff5" x="76.984097" y="146.747947" style="stroke: #000000"/>
      </g>
     </g>
     <g id="text_2">
      <text style="font: 8.8px 'DejaVu Sans', 'Bitstream Vera Sans', 'Computer Modern Sans Serif', 'Lucida Grande', 'Verdana', 'Geneva', 'Lucid', 'Arial', 'Helvetica', 'Avant Garde', sans-serif; text-anchor: middle" x="76.984097" y="161.734572" transform="rotate(-0 76.984097 161.734572)">1500</text>
     </g>
    </g>
    <g id="xtick_3">
     <g id="line2d_5">
      <path d="M 108.346481 146.747947 
L 108.346481 12.07875 
" clip-path="url(#pc8dd952404)" style="fill: none; stroke: #b0b0b0; stroke-width: 0.6; stroke-linecap: square"/>
     </g>
     <g id="line2d_6">
      <g>
       <use xlink:href="#m6fa9d8bff5" x="108.346481" y="146.747947" style="stroke: #000000"/>
      </g>
     </g>
     <g id="text_3">
      <text style="font: 8.8px 'DejaVu Sans', 'Bitstream Vera Sans', 'Computer Modern Sans Serif', 'Lucida Grande', 'Verdana', 'Geneva', 'Lucid', 'Arial', 'Helvetica', 'Avant Garde', sans-serif; text-anchor: middle" x="108.346481" y="161.734572" transform="rotate(-0 108.346481 161.734572)">2000</text>
     </g>
    </g>
    <g id="xtick_4">
     <g id="line2d_7">
      <path d="M 139.708865 146.747947 
L 139.708865 12.07875 
" clip-path="url(#pc8dd952404)" style="fill: none; stroke: #b0b0b0; stroke-width: 0.6; stroke-linecap: square"/>
     </g>
     <g id="line2d_8">
      <g>
       <use xlink:href="#m6fa9d8bff5" x="139.708865" y="146.747947" style="stroke: #000000"/>
      </g>
     </g>
     <g id="text_4">
      <text style="font: 8.8px 'DejaVu Sans', 'Bitstream Vera Sans', 'Computer Modern Sans Serif', 'Lucida Grande', 'Verdana', 'Geneva', 'Lucid', 'Arial', 'Helvetica', 'Avant Garde', sans-serif; text-anchor: middle" x="139.708865" y="161.734572" transform="rotate(-0 139.708865 161.734572)">2500</text>
     </g>
    </g>
    <g id="xtick_5">
     <g id="line2d_9">
      <path d="M 171.071249 146.747947 
L 171.071249 12.07875 
" clip-path="url(#pc8dd952404)" style="fill: none; stroke: #b0b0b0; stroke-width: 0.6; stroke-linecap: square"/>
     </g>
     <g id="line2d_10">
      <g>
       <use xlink:href="#m6fa9d8bff5" x="171.071249" y="146.747947" style="stroke: #000000"/>
      </g>
     </g>
     <g id="text_5">
      <text style="font: 8.8px 'DejaVu Sans', 'Bitstream Vera Sans', 'Computer Modern Sans Serif', 'Lucida Grande', 'Verdana', 'Geneva', 'Lucid', 'Arial', 'Helvetica', 'Avant Garde', sans-serif; text-anchor: middle" x="171.071249" y="161.734572" transform="rotate(-0 171.071249 161.734572)">3000</text>
     </g>
    </g>
    <g id="xtick_6">
     <g id="line2d_11">
      <path d="M 39.349236 146.747947 
L 39.349236 12.07875 
" clip-path="url(#pc8dd952404)" style="fill: none; stroke: #b0b0b0; stroke-width: 0.3; stroke-linecap: square"/>
     </g>
     <g id="line2d_12">
      <defs>
       <path id="m06ba8f78d9" d="M 0 0 
L 0 3.2 
" style="stroke: #000000; stroke-width: 0.8"/>
      </defs>
      <g>
       <use xlink:href="#m06ba8f78d9" x="39.349236" y="146.747947" style="stroke: #000000; stroke-width: 0.8"/>
      </g>
     </g>
    </g>
    <g id="xtick_7">
     <g id="line2d_13">
      <path d="M 51.89419 146.747947 
L 51.89419 12.07875 
" clip-path="url(#pc8dd952404)" style="fill: none; stroke: #b0b0b0; stroke-width: 0.3; stroke-linecap: square"/>
     </g>
     <g id="line2d_14">
      <g>
       <use xlink:href="#m06ba8f78d9" x="51.89419" y="146.747947" style="stroke: #000000; stroke-width: 0.8"/>
      </g>
     </g>
    </g>
    <g id="xtick_8">
     <g id="line2d_15">
      <path d="M 58.166667 146.747947 
L 58.166667 12.07875 
" clip-path="url(#pc8dd952404)" style="fill: none; stroke: #b0b0b0; stroke-width: 0.3; stroke-linecap: square"/>
     </g>
     <g id="line2d_16">
      <g>
       <use xlink:href="#m06ba8f78d9" x="58.166667" y="146.747947" style="stroke: #000000; stroke-width: 0.8"/>
      </g>
     </g>
    </g>
    <g id="xtick_9">
     <g id="line2d_17">
      <path d="M 64.439143 146.747947 
L 64.439143 12.07875 
" clip-path="url(#pc8dd952404)" style="fill: none; stroke: #b0b0b0; stroke-width: 0.3; stroke-linecap: square"/>
     </g>
     <g id="line2d_18">
      <g>
       <use xlink:href="#m06ba8f78d9" x="64.439143" y="146.747947" style="stroke: #000000; stroke-width: 0.8"/>
      </g>
     </g>
    </g>
    <g id="xtick_10">
     <g id="line2d_19">
      <path d="M 70.71162 146.747947 
L 70.71162 12.07875 
" clip-path="url(#pc8dd952404)" style="fill: none; stroke: #b0b0b0; stroke-width: 0.3; stroke-linecap: square"/>
     </g>
     <g id="line2d_20">
      <g>
       <use xlink:href="#m06ba8f78d9" x="70.71162" y="146.747947" style="stroke: #000000; stroke-width: 0.8"/>
      </g>
     </g>
    </g>
    <g id="xtick_11">
     <g id="line2d_21">
      <path d="M 83.256574 146.747947 
L 83.256574 12.07875 
" clip-path="url(#pc8dd952404)" style="fill: none; stroke: #b0b0b0; stroke-width: 0.3; stroke-linecap: square"/>
     </g>
     <g id="line2d_22">
      <g>
       <use xlink:href="#m06ba8f78d9" x="83.256574" y="146.747947" style="stroke: #000000; stroke-width: 0.8"/>
      </g>
     </g>
    </g>
    <g id="xtick_12">
     <g id="line2d_23">
      <path d="M 89.529051 146.747947 
L 89.529051 12.07875 
" clip-path="url(#pc8dd952404)" style="fill: none; stroke: #b0b0b0; stroke-width: 0.3; stroke-linecap: square"/>
     </g>
     <g id="line2d_24">
      <g>
       <use xlink:href="#m06ba8f78d9" x="89.529051" y="146.747947" style="stroke: #000000; stroke-width: 0.8"/>
      </g>
     </g>
    </g>
    <g id="xtick_13">
     <g id="line2d_25">
      <path d="M 95.801528 146.747947 
L 95.801528 12.07875 
" clip-path="url(#pc8dd952404)" style="fill: none; stroke: #b0b0b0; stroke-width: 0.3; stroke-linecap: square"/>
     </g>
     <g id="line2d_26">
      <g>
       <use xlink:href="#m06ba8f78d9" x="95.801528" y="146.747947" style="stroke: #000000; stroke-width: 0.8"/>
      </g>
     </g>
    </g>
    <g id="xtick_14">
     <g id="line2d_27">
      <path d="M 102.074004 146.747947 
L 102.074004 12.07875 
" clip-path="url(#pc8dd952404)" style="fill: none; stroke: #b0b0b0; stroke-width: 0.3; stroke-linecap: square"/>
     </g>
     <g id="line2d_28">
      <g>
       <use xlink:href="#m06ba8f78d9" x="102.074004" y="146.747947" style="stroke: #000000; stroke-width: 0.8"/>
      </g>
     </g>
    </g>
    <g id="xtick_15">
     <g id="line2d_29">
      <path d="M 114.618958 146.747947 
L 114.618958 12.07875 
" clip-path="url(#pc8dd952404)" style="fill: none; stroke: #b0b0b0; stroke-width: 0.3; stroke-linecap: square"/>
     </g>
     <g id="line2d_30">
      <g>
       <use xlink:href="#m06ba8f78d9" x="114.618958" y="146.747947" style="stroke: #000000; stroke-width: 0.8"/>
      </g>
     </g>
    </g>
    <g id="xtick_16">
     <g id="line2d_31">
      <path d="M 120.891435 146.747947 
L 120.891435 12.07875 
" clip-path="url(#pc8dd952404)" style="fill: none; stroke: #b0b0b0; stroke-width: 0.3; stroke-linecap: square"/>
     </g>
     <g id="line2d_32">
      <g>
       <use xlink:href="#m06ba8f78d9" x="120.891435" y="146.747947" style="stroke: #000000; stroke-width: 0.8"/>
      </g>
     </g>
    </g>
    <g id="xtick_17">
     <g id="line2d_33">
      <path d="M 127.163912 146.747947 
L 127.163912 12.07875 
" clip-path="url(#pc8dd952404)" style="fill: none; stroke: #b0b0b0; stroke-width: 0.3; stroke-linecap: square"/>
     </g>
     <g id="line2d_34">
      <g>
       <use xlink:href="#m06ba8f78d9" x="127.163912" y="146.747947" style="stroke: #000000; stroke-width: 0.8"/>
      </g>
     </g>
    </g>
    <g id="xtick_18">
     <g id="line2d_35">
      <path d="M 133.436388 146.747947 
L 133.436388 12.07875 
" clip-path="url(#pc8dd952404)" style="fill: none; stroke: #b0b0b0; stroke-width: 0.3; stroke-linecap: square"/>
     </g>
     <g id="line2d_36">
      <g>
       <use xlink:href="#m06ba8f78d9" x="133.436388" y="146.747947" style="stroke: #000000; stroke-width: 0.8"/>
      </g>
     </g>
    </g>
    <g id="xtick_19">
     <g id="line2d_37">
      <path d="M 145.981342 146.747947 
L 145.981342 12.07875 
" clip-path="url(#pc8dd952404)" style="fill: none; stroke: #b0b0b0; stroke-width: 0.3; stroke-linecap: square"/>
     </g>
     <g id="line2d_38">
      <g>
       <use xlink:href="#m06ba8f78d9" x="145.981342" y="146.747947" style="stroke: #000000; stroke-width: 0.8"/>
      </g>
     </g>
    </g>
    <g id="xtick_20">
     <g id="line2d_39">
      <path d="M 152.253819 146.747947 
L 152.253819 12.07875 
" clip-path="url(#pc8dd952404)" style="fill: none; stroke: #b0b0b0; stroke-width: 0.3; stroke-linecap: square"/>
     </g>
     <g id="line2d_40">
      <g>
       <use xlink:href="#m06ba8f78d9" x="152.253819" y="146.747947" style="stroke: #000000; stroke-width: 0.8"/>
      </g>
     </g>
    </g>
    <g id="xtick_21">
     <g id="line2d_41">
      <path d="M 158.526296 146.747947 
L 158.526296 12.07875 
" clip-path="url(#pc8dd952404)" style="fill: none; stroke: #b0b0b0; stroke-width: 0.3; stroke-linecap: square"/>
     </g>
     <g id="line2d_42">
      <g>
       <use xlink:href="#m06ba8f78d9" x="158.526296" y="146.747947" style="stroke: #000000; stroke-width: 0.8"/>
      </g>
     </g>
    </g>
    <g id="xtick_22">
     <g id="line2d_43">
      <path d="M 164.798773 146.747947 
L 164.798773 12.07875 
" clip-path="url(#pc8dd952404)" style="fill: none; stroke: #b0b0b0; stroke-width: 0.3; stroke-linecap: square"/>
     </g>
     <g id="line2d_44">
      <g>
       <use xlink:href="#m06ba8f78d9" x="164.798773" y="146.747947" style="stroke: #000000; stroke-width: 0.8"/>
      </g>
     </g>
    </g>
    <g id="xtick_23">
     <g id="line2d_45">
      <path d="M 177.343726 146.747947 
L 177.343726 12.07875 
" clip-path="url(#pc8dd952404)" style="fill: none; stroke: #b0b0b0; stroke-width: 0.3; stroke-linecap: square"/>
     </g>
     <g id="line2d_46">
      <g>
       <use xlink:href="#m06ba8f78d9" x="177.343726" y="146.747947" style="stroke: #000000; stroke-width: 0.8"/>
      </g>
     </g>
    </g>
    <g id="xtick_24">
     <g id="line2d_47">
      <path d="M 183.616203 146.747947 
L 183.616203 12.07875 
" clip-path="url(#pc8dd952404)" style="fill: none; stroke: #b0b0b0; stroke-width: 0.3; stroke-linecap: square"/>
     </g>
     <g id="line2d_48">
      <g>
       <use xlink:href="#m06ba8f78d9" x="183.616203" y="146.747947" style="stroke: #000000; stroke-width: 0.8"/>
      </g>
     </g>
    </g>
    <g id="text_6">
     <text style="font: 9.6px 'DejaVu Sans', 'Bitstream Vera Sans', 'Computer Modern Sans Serif', 'Lucida Grande', 'Verdana', 'Geneva', 'Lucid', 'Arial', 'Helvetica', 'Avant Garde', sans-serif; text-anchor: middle" x="109.9146" y="174.859197" transform="rotate(-0 109.9146 174.859197)">Wavelength (nm)</text>
    </g>
   </g>
   <g id="matplotlib.axis_2">
    <g id="ytick_1">
     <g id="line2d_49">
      <path d="M 35.58575 124.622686 
L 184.243451 124.622686 
" clip-path="url(#pc8dd952404)" style="fill: none; stroke: #b0b0b0; stroke-width: 0.6; stroke-linecap: square"/>
     </g>
     <g id="line2d_50">
      <defs>
       <path id="m77c7c44699" d="M 0 0 
L -4.8 0 
" style="stroke: #000000"/>
      </defs>
      <g>
       <use xlink:href="#m77c7c44699" x="35.58575" y="124.622686" style="stroke: #000000"/>
      </g>
     </g>
     <g id="text_7">
      <text style="font: 8.8px 'DejaVu Sans', 'Bitstream Vera Sans', 'Computer Modern Sans Serif', 'Lucida Grande', 'Verdana', 'Geneva', 'Lucid', 'Arial', 'Helvetica', 'Avant Garde', sans-serif; text-anchor: end" x="27.28575" y="127.965998" transform="rotate(-0 27.28575 127.965998)">0.4</text>
     </g>
    </g>
    <g id="ytick_2">
     <g id="line2d_51">
      <path d="M 35.58575 89.148483 
L 184.243451 89.148483 
" clip-path="url(#pc8dd952404)" style="fill: none; stroke: #b0b0b0; stroke-width: 0.6; stroke-linecap: square"/>
     </g>
     <g id="line2d_52">
      <g>
       <use xlink:href="#m77c7c44699" x="35.58575" y="89.148483" style="stroke: #000000"/>
      </g>
     </g>
     <g id="text_8">
      <text style="font: 8.8px 'DejaVu Sans', 'Bitstream Vera Sans', 'Computer Modern Sans Serif', 'Lucida Grande', 'Verdana', 'Geneva', 'Lucid', 'Arial', 'Helvetica', 'Avant Garde', sans-serif; text-anchor: end" x="27.28575" y="92.491795" transform="rotate(-0 27.28575 92.491795)">0.6</text>
     </g>
    </g>
    <g id="ytick_3">
     <g id="line2d_53">
      <path d="M 35.58575 53.67428 
L 184.243451 53.67428 
" clip-path="url(#pc8dd952404)" style="fill: none; stroke: #b0b0b0; stroke-width: 0.6; stroke-linecap: square"/>
     </g>
     <g id="line2d_54">
      <g>
       <use xlink:href="#m77c7c44699" x="35.58575" y="53.67428" style="stroke: #000000"/>
      </g>
     </g>
     <g id="text_9">
      <text style="font: 8.8px 'DejaVu Sans', 'Bitstream Vera Sans', 'Computer Modern Sans Serif', 'Lucida Grande', 'Verdana', 'Geneva', 'Lucid', 'Arial', 'Helvetica', 'Avant Garde', sans-serif; text-anchor: end" x="27.28575" y="57.017592" transform="rotate(-0 27.28575 57.017592)">0.8</text>
     </g>
    </g>
    <g id="ytick_4">
     <g id="line2d_55">
      <path d="M 35.58575 18.200077 
L 184.243451 18.200077 
" clip-path="url(#pc8dd952404)" style="fill: none; stroke: #b0b0b0; stroke-width: 0.6; stroke-linecap: square"/>
     </g>
     <g id="line2d_56">
      <g>
       <use xlink:href="#m77c7c44699" x="35.58575" y="18.200077" style="stroke: #000000"/>
      </g>
     </g>
     <g id="text_10">
      <text style="font: 8.8px 'DejaVu Sans', 'Bitstream Vera Sans', 'Computer Modern Sans Serif', 'Lucida Grande', 'Verdana', 'Geneva', 'Lucid', 'Arial', 'Helvetica', 'Avant Garde', sans-serif; text-anchor: end" x="27.28575" y="21.54339" transform="rotate(-0 27.28575 21.54339)">1.0</text>
     </g>
    </g>
    <g id="text_11">
     <text style="font: 9.6px 'DejaVu Sans', 'Bitstream Vera Sans', 'Computer Modern Sans Serif', 'Lucida Grande', 'Verdana', 'Geneva', 'Lucid', 'Arial', 'Helvetica', 'Avant Garde', sans-serif; text-anchor: middle" x="7.2945" y="79.413348" transform="rotate(-90 7.2945 79.413348)">Reflectance</text>
    </g>
   </g>
   <g id="line2d_57">
    <path d="M 39.349236 18.200077 
L 41.647242 18.619124 
L 44.038793 18.640256 
L 45.582701 18.740435 
L 46.845851 18.448364 
L 49.117917 18.377583 
L 50.790079 18.257507 
L 53.553808 18.200077 
L 58.663792 18.293713 
L 59.805987 18.381361 
L 62.538519 18.200077 
L 63.739126 18.203869 
L 67.450637 18.250564 
L 68.298288 18.56413 
L 69.154436 19.184543 
L 70.454779 21.296513 
L 71.774724 23.476052 
L 72.665724 24.419052 
L 74.018999 25.485596 
L 74.932498 25.874508 
L 76.319945 26.151914 
L 77.256511 26.144785 
L 78.202466 25.907551 
L 79.157903 25.447327 
L 80.12292 24.732698 
L 83.5773 21.647576 
L 84.58662 20.929466 
L 85.606059 20.498766 
L 88.199593 19.799135 
L 89.787044 19.440582 
L 91.940933 18.778397 
L 93.034099 18.361273 
L 94.138224 18.200077 
L 96.947205 18.243387 
L 98.090559 18.510385 
L 99.245375 19.031918 
L 99.827117 19.116101 
L 100.411768 19.808126 
L 100.999342 21.529314 
L 102.183319 26.823141 
L 103.379165 32.697041 
L 103.981576 34.831045 
L 104.586999 36.251588 
L 105.195449 37.231908 
L 105.806942 37.907537 
L 106.421492 38.332112 
L 107.039115 38.474646 
L 107.659825 38.295529 
L 108.910573 37.393984 
L 110.17386 36.137829 
L 111.449811 34.398545 
L 112.738554 32.191874 
L 114.695932 28.099308 
L 116.682818 23.531371 
L 118.024022 20.318923 
L 118.699657 19.135524 
L 119.378671 18.415075 
L 120.061079 18.200077 
L 120.7469 18.335768 
L 121.43615 19.138326 
L 122.128846 20.64067 
L 122.825005 22.825178 
L 124.934438 30.621193 
L 125.644626 32.297718 
L 126.358364 33.578004 
L 127.075671 34.289166 
L 127.796565 33.75837 
L 128.521063 31.428309 
L 129.980945 24.863656 
L 130.716365 23.57616 
L 131.455462 24.042001 
L 132.198254 25.513454 
L 132.944761 27.658201 
L 133.695 30.33557 
L 134.44899 33.53502 
L 136.733656 44.971124 
L 137.50284 47.66149 
L 138.275869 49.407062 
L 139.052764 50.31969 
L 139.833543 49.767182 
L 140.618226 46.368304 
L 141.406832 39.736589 
L 142.199382 31.737472 
L 142.995894 25.389899 
L 143.796389 21.449779 
L 144.600886 19.221512 
L 145.409406 18.200077 
L 147.859301 18.200077 
L 148.684113 18.440501 
L 149.513049 19.939614 
L 150.34613 23.025899 
L 151.183375 28.798622 
L 152.024808 38.023528 
L 156.295498 92.701124 
L 158.033819 109.175038 
L 158.909503 116.208332 
L 159.789566 121.725062 
L 160.674029 125.272143 
L 163.354041 133.705286 
L 164.256326 136.111249 
L 165.163123 138.149358 
L 166.074454 139.712117 
L 166.990341 140.612488 
L 167.910808 140.62662 
L 168.835878 139.3695 
L 169.765572 136.441038 
L 170.699916 131.575908 
L 171.63893 124.794491 
L 172.58264 116.195996 
L 173.531069 105.626444 
L 174.484239 92.669356 
L 175.442176 75.995642 
L 176.404902 52.885854 
L 177.372442 18.200077 
L 177.372442 18.200077 
" clip-path="url(#pc8dd952404)" style="fill: none; stroke: #1f77b4; stroke-width: 0.5; stroke-linecap: square"/>
   </g>
   <g id="line2d_58"/>
   <g id="patch_3">
    <path d="M 35.58575 146.747947 
L 35.58575 12.07875 
" style="fill: none; stroke: #000000; stroke-linejoin: miter; stroke-linecap: square"/>
   </g>
   <g id="patch_4">
    <path d="M 184.243451 146.747947 
L 184.243451 12.07875 
" style="fill: none; stroke: #000000; stroke-linejoin: miter; stroke-linecap: square"/>
   </g>
   <g id="patch_5">
    <path d="M 35.58575 146.747947 
L 184.243451 146.747947 
" style="fill: none; stroke: #000000; stroke-linejoin: miter; stroke-linecap: square"/>
   </g>
   <g id="patch_6">
    <path d="M 35.58575 12.07875 
L 184.243451 12.07875 
" style="fill: none; stroke: #000000; stroke-linejoin: miter; stroke-linecap: square"/>
   </g>
   <g id="text_12">
    <text style="font: 8px 'DejaVu Sans', 'Bitstream Vera Sans', 'Computer Modern Sans Serif', 'Lucida Grande', 'Verdana', 'Geneva', 'Lucid', 'Arial', 'Helvetica', 'Avant Garde', sans-serif; text-anchor: middle" x="109.9146" y="6.07875" transform="rotate(-0 109.9146 6.07875)">Laboratory Carbonates Magnesite</text>
   </g>
   <g id="legend_1">
    <g id="patch_7">
     <path d="M 191.416605 84.716786 
L 270.916605 84.716786 
Q 272.116605 84.716786 272.116605 83.516786 
L 272.116605 75.309911 
Q 272.116605 74.109911 270.916605 74.109911 
L 191.416605 74.109911 
Q 190.216605 74.109911 190.216605 75.309911 
L 190.216605 83.516786 
Q 190.216605 84.716786 191.416605 84.716786 
z
" style="fill: #ffffff; opacity: 0.8; stroke: #cccccc; stroke-width: 0.8; stroke-linejoin: miter"/>
    </g>
    <g id="line2d_59">
     <path d="M 192.616605 78.968973 
L 198.616605 78.968973 
L 204.616605 78.968973 
" style="fill: none; stroke: #1f77b4; stroke-width: 1.2; stroke-linecap: square"/>
    </g>
    <g id="text_13">
     <text style="font: 6px 'DejaVu Sans', 'Bitstream Vera Sans', 'Computer Modern Sans Serif', 'Lucida Grande', 'Verdana', 'Geneva', 'Lucid', 'Arial', 'Helvetica', 'Avant Garde', sans-serif; text-anchor: start" x="209.416605" y="81.068973" transform="rotate(-0 209.416605 81.068973)">Magnesite F1CC06B</text>
    </g>
   </g>
  </g>
 </g>
 <defs>
  <clipPath id="pc8dd952404">
   <rect x="35.58575" y="12.07875" width="148.657701" height="134.669197"/>
  </clipPath>
 </defs>
</svg>
