<?xml version="1.0" encoding="utf-8" standalone="no"?>
<!DOCTYPE svg PUBLIC "-//W3C//DTD SVG 1.1//EN"
  "http://www.w3.org/Graphics/SVG/1.1/DTD/svg11.dtd">
<svg xmlns:xlink="http://www.w3.org/1999/xlink" width="272.308042pt" height="176.855697pt" viewBox="0 0 272.308042 176.855697" xmlns="http://www.w3.org/2000/svg" version="1.1">
 <metadata>
  <rdf:RDF xmlns:dc="http://purl.org/dc/elements/1.1/" xmlns:cc="http://creativecommons.org/ns#" xmlns:rdf="http://www.w3.org/1999/02/22-rdf-syntax-ns#">
   <cc:Work>
    <dc:type rdf:resource="http://purl.org/dc/dcmitype/StillImage"/>
    <dc:date>2025-02-12T17:08:00.126262</dc:date>
    <dc:format>image/svg+xml</dc:format>
    <dc:creator>
     <cc:Agent>
      <dc:title>Matplotlib v3.6.2, https://matplotlib.org/</dc:title>
     </cc:Agent>
    </dc:creator>
   </cc:Work>
  </rdf:RDF>
 </metadata>
 <defs>
  <style type="text/css">*{stroke-linejoin: round; stroke-linecap: butt}</style>
 </defs>
 <g id="figure_1">
  <g id="patch_1">
   <path d="M -0 176.855697 
L 272.308042 176.855697 
L 272.308042 0 
L -0 0 
z
" style="fill: #ffffff"/>
  </g>
  <g id="axes_1">
   <g id="patch_2">
    <path d="M 35.58575 146.747947 
L 194.143451 146.747947 
L 194.143451 12.07875 
L 35.58575 12.07875 
z
" style="fill: #ffffff"/>
   </g>
   <g id="matplotlib.axis_1">
    <g id="xtick_1">
     <g id="line2d_1">
      <path d="M 46.290067 146.747947 
L 46.290067 12.07875 
" clip-path="url(#p1b8b114b77)" style="fill: none; stroke: #b0b0b0; stroke-width: 0.6; stroke-linecap: square"/>
     </g>
     <g id="line2d_2">
      <defs>
       <path id="m4797961fde" d="M 0 0 
L 0 4.8 
" style="stroke: #000000"/>
      </defs>
      <g>
       <use xlink:href="#m4797961fde" x="46.290067" y="146.747947" style="stroke: #000000"/>
      </g>
     </g>
     <g id="text_1">
      <text style="font: 8.8px 'DejaVu Sans', 'Bitstream Vera Sans', 'Computer Modern Sans Serif', 'Lucida Grande', 'Verdana', 'Geneva', 'Lucid', 'Arial', 'Helvetica', 'Avant Garde', sans-serif; text-anchor: middle" x="46.290067" y="161.734572" transform="rotate(-0 46.290067 161.734572)">1000</text>
     </g>
    </g>
    <g id="xtick_2">
     <g id="line2d_3">
      <path d="M 79.741059 146.747947 
L 79.741059 12.07875 
" clip-path="url(#p1b8b114b77)" style="fill: none; stroke: #b0b0b0; stroke-width: 0.6; stroke-linecap: square"/>
     </g>
     <g id="line2d_4">
      <g>
       <use xlink:href="#m4797961fde" x="79.741059" y="146.747947" style="stroke: #000000"/>
      </g>
     </g>
     <g id="text_2">
      <text style="font: 8.8px 'DejaVu Sans', 'Bitstream Vera Sans', 'Computer Modern Sans Serif', 'Lucida Grande', 'Verdana', 'Geneva', 'Lucid', 'Arial', 'Helvetica', 'Avant Garde', sans-serif; text-anchor: middle" x="79.741059" y="161.734572" transform="rotate(-0 79.741059 161.734572)">1500</text>
     </g>
    </g>
    <g id="xtick_3">
     <g id="line2d_5">
      <path d="M 113.192051 146.747947 
L 113.192051 12.07875 
" clip-path="url(#p1b8b114b77)" style="fill: none; stroke: #b0b0b0; stroke-width: 0.6; stroke-linecap: square"/>
     </g>
     <g id="line2d_6">
      <g>
       <use xlink:href="#m4797961fde" x="113.192051" y="146.747947" style="stroke: #000000"/>
      </g>
     </g>
     <g id="text_3">
      <text style="font: 8.8px 'DejaVu Sans', 'Bitstream Vera Sans', 'Computer Modern Sans Serif', 'Lucida Grande', 'Verdana', 'Geneva', 'Lucid', 'Arial', 'Helvetica', 'Avant Garde', sans-serif; text-anchor: middle" x="113.192051" y="161.734572" transform="rotate(-0 113.192051 161.734572)">2000</text>
     </g>
    </g>
    <g id="xtick_4">
     <g id="line2d_7">
      <path d="M 146.643043 146.747947 
L 146.643043 12.07875 
" clip-path="url(#p1b8b114b77)" style="fill: none; stroke: #b0b0b0; stroke-width: 0.6; stroke-linecap: square"/>
     </g>
     <g id="line2d_8">
      <g>
       <use xlink:href="#m4797961fde" x="146.643043" y="146.747947" style="stroke: #000000"/>
      </g>
     </g>
     <g id="text_4">
      <text style="font: 8.8px 'DejaVu Sans', 'Bitstream Vera Sans', 'Computer Modern Sans Serif', 'Lucida Grande', 'Verdana', 'Geneva', 'Lucid', 'Arial', 'Helvetica', 'Avant Garde', sans-serif; text-anchor: middle" x="146.643043" y="161.734572" transform="rotate(-0 146.643043 161.734572)">2500</text>
     </g>
    </g>
    <g id="xtick_5">
     <g id="line2d_9">
      <path d="M 180.094034 146.747947 
L 180.094034 12.07875 
" clip-path="url(#p1b8b114b77)" style="fill: none; stroke: #b0b0b0; stroke-width: 0.6; stroke-linecap: square"/>
     </g>
     <g id="line2d_10">
      <g>
       <use xlink:href="#m4797961fde" x="180.094034" y="146.747947" style="stroke: #000000"/>
      </g>
     </g>
     <g id="text_5">
      <text style="font: 8.8px 'DejaVu Sans', 'Bitstream Vera Sans', 'Computer Modern Sans Serif', 'Lucida Grande', 'Verdana', 'Geneva', 'Lucid', 'Arial', 'Helvetica', 'Avant Garde', sans-serif; text-anchor: middle" x="180.094034" y="161.734572" transform="rotate(-0 180.094034 161.734572)">3000</text>
     </g>
    </g>
    <g id="xtick_6">
     <g id="line2d_11">
      <path d="M 39.599869 146.747947 
L 39.599869 12.07875 
" clip-path="url(#p1b8b114b77)" style="fill: none; stroke: #b0b0b0; stroke-width: 0.3; stroke-linecap: square"/>
     </g>
     <g id="line2d_12">
      <defs>
       <path id="m4903edd378" d="M 0 0 
L 0 3.2 
" style="stroke: #000000; stroke-width: 0.8"/>
      </defs>
      <g>
       <use xlink:href="#m4903edd378" x="39.599869" y="146.747947" style="stroke: #000000; stroke-width: 0.8"/>
      </g>
     </g>
    </g>
    <g id="xtick_7">
     <g id="line2d_13">
      <path d="M 52.980266 146.747947 
L 52.980266 12.07875 
" clip-path="url(#p1b8b114b77)" style="fill: none; stroke: #b0b0b0; stroke-width: 0.3; stroke-linecap: square"/>
     </g>
     <g id="line2d_14">
      <g>
       <use xlink:href="#m4903edd378" x="52.980266" y="146.747947" style="stroke: #000000; stroke-width: 0.8"/>
      </g>
     </g>
    </g>
    <g id="xtick_8">
     <g id="line2d_15">
      <path d="M 59.670464 146.747947 
L 59.670464 12.07875 
" clip-path="url(#p1b8b114b77)" style="fill: none; stroke: #b0b0b0; stroke-width: 0.3; stroke-linecap: square"/>
     </g>
     <g id="line2d_16">
      <g>
       <use xlink:href="#m4903edd378" x="59.670464" y="146.747947" style="stroke: #000000; stroke-width: 0.8"/>
      </g>
     </g>
    </g>
    <g id="xtick_9">
     <g id="line2d_17">
      <path d="M 66.360662 146.747947 
L 66.360662 12.07875 
" clip-path="url(#p1b8b114b77)" style="fill: none; stroke: #b0b0b0; stroke-width: 0.3; stroke-linecap: square"/>
     </g>
     <g id="line2d_18">
      <g>
       <use xlink:href="#m4903edd378" x="66.360662" y="146.747947" style="stroke: #000000; stroke-width: 0.8"/>
      </g>
     </g>
    </g>
    <g id="xtick_10">
     <g id="line2d_19">
      <path d="M 73.050861 146.747947 
L 73.050861 12.07875 
" clip-path="url(#p1b8b114b77)" style="fill: none; stroke: #b0b0b0; stroke-width: 0.3; stroke-linecap: square"/>
     </g>
     <g id="line2d_20">
      <g>
       <use xlink:href="#m4903edd378" x="73.050861" y="146.747947" style="stroke: #000000; stroke-width: 0.8"/>
      </g>
     </g>
    </g>
    <g id="xtick_11">
     <g id="line2d_21">
      <path d="M 86.431257 146.747947 
L 86.431257 12.07875 
" clip-path="url(#p1b8b114b77)" style="fill: none; stroke: #b0b0b0; stroke-width: 0.3; stroke-linecap: square"/>
     </g>
     <g id="line2d_22">
      <g>
       <use xlink:href="#m4903edd378" x="86.431257" y="146.747947" style="stroke: #000000; stroke-width: 0.8"/>
      </g>
     </g>
    </g>
    <g id="xtick_12">
     <g id="line2d_23">
      <path d="M 93.121456 146.747947 
L 93.121456 12.07875 
" clip-path="url(#p1b8b114b77)" style="fill: none; stroke: #b0b0b0; stroke-width: 0.3; stroke-linecap: square"/>
     </g>
     <g id="line2d_24">
      <g>
       <use xlink:href="#m4903edd378" x="93.121456" y="146.747947" style="stroke: #000000; stroke-width: 0.8"/>
      </g>
     </g>
    </g>
    <g id="xtick_13">
     <g id="line2d_25">
      <path d="M 99.811654 146.747947 
L 99.811654 12.07875 
" clip-path="url(#p1b8b114b77)" style="fill: none; stroke: #b0b0b0; stroke-width: 0.3; stroke-linecap: square"/>
     </g>
     <g id="line2d_26">
      <g>
       <use xlink:href="#m4903edd378" x="99.811654" y="146.747947" style="stroke: #000000; stroke-width: 0.8"/>
      </g>
     </g>
    </g>
    <g id="xtick_14">
     <g id="line2d_27">
      <path d="M 106.501852 146.747947 
L 106.501852 12.07875 
" clip-path="url(#p1b8b114b77)" style="fill: none; stroke: #b0b0b0; stroke-width: 0.3; stroke-linecap: square"/>
     </g>
     <g id="line2d_28">
      <g>
       <use xlink:href="#m4903edd378" x="106.501852" y="146.747947" style="stroke: #000000; stroke-width: 0.8"/>
      </g>
     </g>
    </g>
    <g id="xtick_15">
     <g id="line2d_29">
      <path d="M 119.882249 146.747947 
L 119.882249 12.07875 
" clip-path="url(#p1b8b114b77)" style="fill: none; stroke: #b0b0b0; stroke-width: 0.3; stroke-linecap: square"/>
     </g>
     <g id="line2d_30">
      <g>
       <use xlink:href="#m4903edd378" x="119.882249" y="146.747947" style="stroke: #000000; stroke-width: 0.8"/>
      </g>
     </g>
    </g>
    <g id="xtick_16">
     <g id="line2d_31">
      <path d="M 126.572447 146.747947 
L 126.572447 12.07875 
" clip-path="url(#p1b8b114b77)" style="fill: none; stroke: #b0b0b0; stroke-width: 0.3; stroke-linecap: square"/>
     </g>
     <g id="line2d_32">
      <g>
       <use xlink:href="#m4903edd378" x="126.572447" y="146.747947" style="stroke: #000000; stroke-width: 0.8"/>
      </g>
     </g>
    </g>
    <g id="xtick_17">
     <g id="line2d_33">
      <path d="M 133.262646 146.747947 
L 133.262646 12.07875 
" clip-path="url(#p1b8b114b77)" style="fill: none; stroke: #b0b0b0; stroke-width: 0.3; stroke-linecap: square"/>
     </g>
     <g id="line2d_34">
      <g>
       <use xlink:href="#m4903edd378" x="133.262646" y="146.747947" style="stroke: #000000; stroke-width: 0.8"/>
      </g>
     </g>
    </g>
    <g id="xtick_18">
     <g id="line2d_35">
      <path d="M 139.952844 146.747947 
L 139.952844 12.07875 
" clip-path="url(#p1b8b114b77)" style="fill: none; stroke: #b0b0b0; stroke-width: 0.3; stroke-linecap: square"/>
     </g>
     <g id="line2d_36">
      <g>
       <use xlink:href="#m4903edd378" x="139.952844" y="146.747947" style="stroke: #000000; stroke-width: 0.8"/>
      </g>
     </g>
    </g>
    <g id="xtick_19">
     <g id="line2d_37">
      <path d="M 153.333241 146.747947 
L 153.333241 12.07875 
" clip-path="url(#p1b8b114b77)" style="fill: none; stroke: #b0b0b0; stroke-width: 0.3; stroke-linecap: square"/>
     </g>
     <g id="line2d_38">
      <g>
       <use xlink:href="#m4903edd378" x="153.333241" y="146.747947" style="stroke: #000000; stroke-width: 0.8"/>
      </g>
     </g>
    </g>
    <g id="xtick_20">
     <g id="line2d_39">
      <path d="M 160.023439 146.747947 
L 160.023439 12.07875 
" clip-path="url(#p1b8b114b77)" style="fill: none; stroke: #b0b0b0; stroke-width: 0.3; stroke-linecap: square"/>
     </g>
     <g id="line2d_40">
      <g>
       <use xlink:href="#m4903edd378" x="160.023439" y="146.747947" style="stroke: #000000; stroke-width: 0.8"/>
      </g>
     </g>
    </g>
    <g id="xtick_21">
     <g id="line2d_41">
      <path d="M 166.713638 146.747947 
L 166.713638 12.07875 
" clip-path="url(#p1b8b114b77)" style="fill: none; stroke: #b0b0b0; stroke-width: 0.3; stroke-linecap: square"/>
     </g>
     <g id="line2d_42">
      <g>
       <use xlink:href="#m4903edd378" x="166.713638" y="146.747947" style="stroke: #000000; stroke-width: 0.8"/>
      </g>
     </g>
    </g>
    <g id="xtick_22">
     <g id="line2d_43">
      <path d="M 173.403836 146.747947 
L 173.403836 12.07875 
" clip-path="url(#p1b8b114b77)" style="fill: none; stroke: #b0b0b0; stroke-width: 0.3; stroke-linecap: square"/>
     </g>
     <g id="line2d_44">
      <g>
       <use xlink:href="#m4903edd378" x="173.403836" y="146.747947" style="stroke: #000000; stroke-width: 0.8"/>
      </g>
     </g>
    </g>
    <g id="xtick_23">
     <g id="line2d_45">
      <path d="M 186.784233 146.747947 
L 186.784233 12.07875 
" clip-path="url(#p1b8b114b77)" style="fill: none; stroke: #b0b0b0; stroke-width: 0.3; stroke-linecap: square"/>
     </g>
     <g id="line2d_46">
      <g>
       <use xlink:href="#m4903edd378" x="186.784233" y="146.747947" style="stroke: #000000; stroke-width: 0.8"/>
      </g>
     </g>
    </g>
    <g id="xtick_24">
     <g id="line2d_47">
      <path d="M 193.474431 146.747947 
L 193.474431 12.07875 
" clip-path="url(#p1b8b114b77)" style="fill: none; stroke: #b0b0b0; stroke-width: 0.3; stroke-linecap: square"/>
     </g>
     <g id="line2d_48">
      <g>
       <use xlink:href="#m4903edd378" x="193.474431" y="146.747947" style="stroke: #000000; stroke-width: 0.8"/>
      </g>
     </g>
    </g>
    <g id="text_6">
     <text style="font: 9.6px 'DejaVu Sans', 'Bitstream Vera Sans', 'Computer Modern Sans Serif', 'Lucida Grande', 'Verdana', 'Geneva', 'Lucid', 'Arial', 'Helvetica', 'Avant Garde', sans-serif; text-anchor: middle" x="114.8646" y="174.859197" transform="rotate(-0 114.8646 174.859197)">Wavelength (nm)</text>
    </g>
   </g>
   <g id="matplotlib.axis_2">
    <g id="ytick_1">
     <g id="line2d_49">
      <path d="M 35.58575 142.731891 
L 194.143451 142.731891 
" clip-path="url(#p1b8b114b77)" style="fill: none; stroke: #b0b0b0; stroke-width: 0.6; stroke-linecap: square"/>
     </g>
     <g id="line2d_50">
      <defs>
       <path id="mb9fc02cf46" d="M 0 0 
L -4.8 0 
" style="stroke: #000000"/>
      </defs>
      <g>
       <use xlink:href="#mb9fc02cf46" x="35.58575" y="142.731891" style="stroke: #000000"/>
      </g>
     </g>
     <g id="text_7">
      <text style="font: 8.8px 'DejaVu Sans', 'Bitstream Vera Sans', 'Computer Modern Sans Serif', 'Lucida Grande', 'Verdana', 'Geneva', 'Lucid', 'Arial', 'Helvetica', 'Avant Garde', sans-serif; text-anchor: end" x="27.28575" y="146.075204" transform="rotate(-0 27.28575 146.075204)">0.2</text>
     </g>
    </g>
    <g id="ytick_2">
     <g id="line2d_51">
      <path d="M 35.58575 111.598938 
L 194.143451 111.598938 
" clip-path="url(#p1b8b114b77)" style="fill: none; stroke: #b0b0b0; stroke-width: 0.6; stroke-linecap: square"/>
     </g>
     <g id="line2d_52">
      <g>
       <use xlink:href="#mb9fc02cf46" x="35.58575" y="111.598938" style="stroke: #000000"/>
      </g>
     </g>
     <g id="text_8">
      <text style="font: 8.8px 'DejaVu Sans', 'Bitstream Vera Sans', 'Computer Modern Sans Serif', 'Lucida Grande', 'Verdana', 'Geneva', 'Lucid', 'Arial', 'Helvetica', 'Avant Garde', sans-serif; text-anchor: end" x="27.28575" y="114.94225" transform="rotate(-0 27.28575 114.94225)">0.4</text>
     </g>
    </g>
    <g id="ytick_3">
     <g id="line2d_53">
      <path d="M 35.58575 80.465984 
L 194.143451 80.465984 
" clip-path="url(#p1b8b114b77)" style="fill: none; stroke: #b0b0b0; stroke-width: 0.6; stroke-linecap: square"/>
     </g>
     <g id="line2d_54">
      <g>
       <use xlink:href="#mb9fc02cf46" x="35.58575" y="80.465984" style="stroke: #000000"/>
      </g>
     </g>
     <g id="text_9">
      <text style="font: 8.8px 'DejaVu Sans', 'Bitstream Vera Sans', 'Computer Modern Sans Serif', 'Lucida Grande', 'Verdana', 'Geneva', 'Lucid', 'Arial', 'Helvetica', 'Avant Garde', sans-serif; text-anchor: end" x="27.28575" y="83.809297" transform="rotate(-0 27.28575 83.809297)">0.6</text>
     </g>
    </g>
    <g id="ytick_4">
     <g id="line2d_55">
      <path d="M 35.58575 49.333031 
L 194.143451 49.333031 
" clip-path="url(#p1b8b114b77)" style="fill: none; stroke: #b0b0b0; stroke-width: 0.6; stroke-linecap: square"/>
     </g>
     <g id="line2d_56">
      <g>
       <use xlink:href="#mb9fc02cf46" x="35.58575" y="49.333031" style="stroke: #000000"/>
      </g>
     </g>
     <g id="text_10">
      <text style="font: 8.8px 'DejaVu Sans', 'Bitstream Vera Sans', 'Computer Modern Sans Serif', 'Lucida Grande', 'Verdana', 'Geneva', 'Lucid', 'Arial', 'Helvetica', 'Avant Garde', sans-serif; text-anchor: end" x="27.28575" y="52.676343" transform="rotate(-0 27.28575 52.676343)">0.8</text>
     </g>
    </g>
    <g id="ytick_5">
     <g id="line2d_57">
      <path d="M 35.58575 18.200077 
L 194.143451 18.200077 
" clip-path="url(#p1b8b114b77)" style="fill: none; stroke: #b0b0b0; stroke-width: 0.6; stroke-linecap: square"/>
     </g>
     <g id="line2d_58">
      <g>
       <use xlink:href="#mb9fc02cf46" x="35.58575" y="18.200077" style="stroke: #000000"/>
      </g>
     </g>
     <g id="text_11">
      <text style="font: 8.8px 'DejaVu Sans', 'Bitstream Vera Sans', 'Computer Modern Sans Serif', 'Lucida Grande', 'Verdana', 'Geneva', 'Lucid', 'Arial', 'Helvetica', 'Avant Garde', sans-serif; text-anchor: end" x="27.28575" y="21.54339" transform="rotate(-0 27.28575 21.54339)">1.0</text>
     </g>
    </g>
    <g id="text_12">
     <text style="font: 9.6px 'DejaVu Sans', 'Bitstream Vera Sans', 'Computer Modern Sans Serif', 'Lucida Grande', 'Verdana', 'Geneva', 'Lucid', 'Arial', 'Helvetica', 'Avant Garde', sans-serif; text-anchor: middle" x="7.2945" y="79.413348" transform="rotate(-90 7.2945 79.413348)">Reflectance</text>
    </g>
   </g>
   <g id="line2d_59">
    <path d="M 39.599869 18.200077 
L 40.507569 18.352322 
L 41.428953 18.226533 
L 42.364227 18.305563 
L 43.954453 19.133226 
L 44.601731 19.887351 
L 45.915819 21.965473 
L 46.248458 22.187106 
L 46.58276 22.127475 
L 46.918733 21.826034 
L 47.595728 20.631101 
L 48.279509 19.26353 
L 48.970146 18.61029 
L 49.667706 18.336225 
L 51.442355 18.200077 
L 53.261815 18.388565 
L 54.375471 18.366595 
L 55.505915 18.200077 
L 59.398591 18.236451 
L 59.798644 18.345514 
L 60.604759 18.914052 
L 61.418957 20.080559 
L 63.07192 22.546576 
L 63.91085 24.785749 
L 64.333464 24.893302 
L 64.758191 23.660029 
L 65.614026 19.92987 
L 66.045156 18.737758 
L 66.478441 18.211801 
L 66.913893 18.200077 
L 67.351522 18.629477 
L 68.233356 20.069473 
L 68.677582 21.00585 
L 69.124029 21.523213 
L 69.572709 21.503504 
L 70.023632 21.324966 
L 70.932254 20.447336 
L 71.389975 20.522475 
L 71.849984 21.241861 
L 72.312294 22.592302 
L 72.776915 24.712066 
L 73.243859 28.028332 
L 73.713138 33.081131 
L 74.658746 50.097119 
L 75.1351 52.682015 
L 75.613835 49.806151 
L 76.094963 48.78733 
L 76.578498 50.893838 
L 77.06445 53.913165 
L 78.043655 62.319872 
L 78.536933 59.493505 
L 79.032678 49.985539 
L 79.530901 42.778957 
L 80.534832 32.812427 
L 81.040566 29.349695 
L 81.548828 26.97636 
L 82.57299 23.879855 
L 83.607419 22.032381 
L 84.652217 20.998898 
L 86.239087 20.148169 
L 87.310269 19.771694 
L 88.392189 19.311015 
L 89.484955 19.06551 
L 90.035439 19.135751 
L 90.588676 19.352477 
L 91.144679 19.788648 
L 92.265039 21.079238 
L 92.829423 21.872849 
L 93.39663 22.930651 
L 93.966673 24.552215 
L 94.539566 27.032773 
L 95.693959 34.487021 
L 96.275489 38.455397 
L 96.859926 41.38306 
L 97.447285 42.455807 
L 98.037581 40.759487 
L 98.630829 36.265545 
L 99.826237 24.767893 
L 100.428428 21.307695 
L 101.03363 19.429887 
L 101.641857 18.512103 
L 102.253126 18.200077 
L 102.867451 18.200077 
L 103.484848 18.3651 
L 104.105332 18.911898 
L 104.728918 20.071161 
L 105.98546 24.007053 
L 107.893931 30.853808 
L 108.536461 32.3417 
L 109.831173 34.237266 
L 110.483389 34.932474 
L 111.797619 35.176886 
L 112.459667 36.136349 
L 113.793709 39.587786 
L 114.465737 40.24179 
L 115.141126 40.660155 
L 115.819891 41.49699 
L 117.18762 43.591922 
L 118.56906 44.855475 
L 119.264965 46.853397 
L 119.964349 50.987028 
L 120.667231 57.506921 
L 122.083554 73.016381 
L 122.797031 78.54951 
L 123.514076 82.942419 
L 124.234706 84.918673 
L 124.958939 83.754549 
L 125.686794 79.089196 
L 127.153438 63.714012 
L 128.634786 35.74016 
L 129.381019 26.289434 
L 130.130984 21.244004 
L 130.884698 18.867999 
L 131.642182 18.200077 
L 132.403452 19.250289 
L 133.168529 23.279932 
L 133.937431 30.77037 
L 134.710178 36.512075 
L 135.486788 34.267842 
L 136.267282 28.650376 
L 137.051678 26.234007 
L 137.839996 29.469246 
L 138.632255 38.576997 
L 139.428476 49.723097 
L 140.228678 57.571113 
L 141.032881 63.547215 
L 141.841105 68.711281 
L 142.65337 69.961397 
L 143.469697 69.566624 
L 144.290105 70.952809 
L 145.114615 71.103727 
L 145.943247 72.765285 
L 146.776023 78.77112 
L 147.612963 81.976814 
L 148.454087 76.169137 
L 149.299417 67.353666 
L 150.148974 60.78818 
L 151.860852 52.705789 
L 152.723216 46.023313 
L 154.460901 29.053771 
L 155.336265 21.812375 
L 156.216006 18.200077 
L 157.100145 21.965593 
L 157.988705 28.339836 
L 159.779177 37.970596 
L 160.681132 49.265922 
L 162.498595 84.346755 
L 163.414147 101.857408 
L 164.334278 116.613297 
L 165.259009 127.765784 
L 166.188363 134.632842 
L 167.122365 138.843907 
L 168.061036 140.62662 
L 169.004401 137.745205 
L 169.952483 129.019313 
L 170.905305 115.299323 
L 171.862891 112.773549 
L 172.825265 119.001343 
L 173.792451 122.365404 
L 174.764472 123.073476 
L 175.741354 122.287818 
L 176.723121 120.324817 
L 177.709796 117.217189 
L 178.701404 113.035544 
L 179.697971 107.704769 
L 180.699521 101.512519 
L 181.706078 94.034173 
L 182.717668 85.118629 
L 183.734316 74.836397 
L 184.756047 61.860414 
L 185.782887 44.096584 
L 186.814861 18.200077 
L 186.814861 18.200077 
" clip-path="url(#p1b8b114b77)" style="fill: none; stroke: #1f77b4; stroke-width: 0.5; stroke-linecap: square"/>
   </g>
   <g id="line2d_60"/>
   <g id="patch_3">
    <path d="M 35.58575 146.747947 
L 35.58575 12.07875 
" style="fill: none; stroke: #000000; stroke-linejoin: miter; stroke-linecap: square"/>
   </g>
   <g id="patch_4">
    <path d="M 194.143451 146.747947 
L 194.143451 12.07875 
" style="fill: none; stroke: #000000; stroke-linejoin: miter; stroke-linecap: square"/>
   </g>
   <g id="patch_5">
    <path d="M 35.58575 146.747947 
L 194.143451 146.747947 
" style="fill: none; stroke: #000000; stroke-linejoin: miter; stroke-linecap: square"/>
   </g>
   <g id="patch_6">
    <path d="M 35.58575 12.07875 
L 194.143451 12.07875 
" style="fill: none; stroke: #000000; stroke-linejoin: miter; stroke-linecap: square"/>
   </g>
   <g id="text_13">
    <text style="font: 8px 'DejaVu Sans', 'Bitstream Vera Sans', 'Computer Modern Sans Serif', 'Lucida Grande', 'Verdana', 'Geneva', 'Lucid', 'Arial', 'Helvetica', 'Avant Garde', sans-serif; text-anchor: middle" x="114.8646" y="6.07875" transform="rotate(-0 114.8646 6.07875)">Laboratory Sulfates Alunite</text>
   </g>
   <g id="legend_1">
    <g id="patch_7">
     <path d="M 201.514605 84.716786 
L 271.108042 84.716786 
Q 272.308042 84.716786 272.308042 83.516786 
L 272.308042 75.309911 
Q 272.308042 74.109911 271.108042 74.109911 
L 201.514605 74.109911 
Q 200.314605 74.109911 200.314605 75.309911 
L 200.314605 83.516786 
Q 200.314605 84.716786 201.514605 84.716786 
z
" style="fill: #ffffff; opacity: 0.8; stroke: #cccccc; stroke-width: 0.8; stroke-linejoin: miter"/>
    </g>
    <g id="line2d_61">
     <path d="M 202.714605 78.968973 
L 208.714605 78.968973 
L 214.714605 78.968973 
" style="fill: none; stroke: #1f77b4; stroke-width: 1.2; stroke-linecap: square"/>
    </g>
    <g id="text_14">
     <text style="font: 6px 'DejaVu Sans', 'Bitstream Vera Sans', 'Computer Modern Sans Serif', 'Lucida Grande', 'Verdana', 'Geneva', 'Lucid', 'Arial', 'Helvetica', 'Avant Garde', sans-serif; text-anchor: start" x="219.514605" y="81.068973" transform="rotate(-0 219.514605 81.068973)">Alunite F1CC08B</text>
    </g>
   </g>
  </g>
 </g>
 <defs>
  <clipPath id="p1b8b114b77">
   <rect x="35.58575" y="12.07875" width="158.557701" height="134.669197"/>
  </clipPath>
 </defs>
</svg>
