<?xml version="1.0" encoding="utf-8" standalone="no"?>
<!DOCTYPE svg PUBLIC "-//W3C//DTD SVG 1.1//EN"
  "http://www.w3.org/Graphics/SVG/1.1/DTD/svg11.dtd">
<svg xmlns:xlink="http://www.w3.org/1999/xlink" width="272.14668pt" height="176.855697pt" viewBox="0 0 272.14668 176.855697" xmlns="http://www.w3.org/2000/svg" version="1.1">
 <metadata>
  <rdf:RDF xmlns:dc="http://purl.org/dc/elements/1.1/" xmlns:cc="http://creativecommons.org/ns#" xmlns:rdf="http://www.w3.org/1999/02/22-rdf-syntax-ns#">
   <cc:Work>
    <dc:type rdf:resource="http://purl.org/dc/dcmitype/StillImage"/>
    <dc:date>2025-02-12T17:08:01.511801</dc:date>
    <dc:format>image/svg+xml</dc:format>
    <dc:creator>
     <cc:Agent>
      <dc:title>Matplotlib v3.6.2, https://matplotlib.org/</dc:title>
     </cc:Agent>
    </dc:creator>
   </cc:Work>
  </rdf:RDF>
 </metadata>
 <defs>
  <style type="text/css">*{stroke-linejoin: round; stroke-linecap: butt}</style>
 </defs>
 <g id="figure_1">
  <g id="patch_1">
   <path d="M -0 176.855697 
L 272.14668 176.855697 
L 272.14668 0 
L -0 0 
z
" style="fill: #ffffff"/>
  </g>
  <g id="axes_1">
   <g id="patch_2">
    <path d="M 35.58575 146.747947 
L 187.153451 146.747947 
L 187.153451 12.07875 
L 35.58575 12.07875 
z
" style="fill: #ffffff"/>
   </g>
   <g id="matplotlib.axis_1">
    <g id="xtick_1">
     <g id="line2d_1">
      <path d="M 45.818169 146.747947 
L 45.818169 12.07875 
" clip-path="url(#pa7334059b9)" style="fill: none; stroke: #b0b0b0; stroke-width: 0.6; stroke-linecap: square"/>
     </g>
     <g id="line2d_2">
      <defs>
       <path id="m6a67b9dfe5" d="M 0 0 
L 0 4.8 
" style="stroke: #000000"/>
      </defs>
      <g>
       <use xlink:href="#m6a67b9dfe5" x="45.818169" y="146.747947" style="stroke: #000000"/>
      </g>
     </g>
     <g id="text_1">
      <text style="font: 8.8px 'DejaVu Sans', 'Bitstream Vera Sans', 'Computer Modern Sans Serif', 'Lucida Grande', 'Verdana', 'Geneva', 'Lucid', 'Arial', 'Helvetica', 'Avant Garde', sans-serif; text-anchor: middle" x="45.818169" y="161.734572" transform="rotate(-0 45.818169 161.734572)">1000</text>
     </g>
    </g>
    <g id="xtick_2">
     <g id="line2d_3">
      <path d="M 77.794477 146.747947 
L 77.794477 12.07875 
" clip-path="url(#pa7334059b9)" style="fill: none; stroke: #b0b0b0; stroke-width: 0.6; stroke-linecap: square"/>
     </g>
     <g id="line2d_4">
      <g>
       <use xlink:href="#m6a67b9dfe5" x="77.794477" y="146.747947" style="stroke: #000000"/>
      </g>
     </g>
     <g id="text_2">
      <text style="font: 8.8px 'DejaVu Sans', 'Bitstream Vera Sans', 'Computer Modern Sans Serif', 'Lucida Grande', 'Verdana', 'Geneva', 'Lucid', 'Arial', 'Helvetica', 'Avant Garde', sans-serif; text-anchor: middle" x="77.794477" y="161.734572" transform="rotate(-0 77.794477 161.734572)">1500</text>
     </g>
    </g>
    <g id="xtick_3">
     <g id="line2d_5">
      <path d="M 109.770785 146.747947 
L 109.770785 12.07875 
" clip-path="url(#pa7334059b9)" style="fill: none; stroke: #b0b0b0; stroke-width: 0.6; stroke-linecap: square"/>
     </g>
     <g id="line2d_6">
      <g>
       <use xlink:href="#m6a67b9dfe5" x="109.770785" y="146.747947" style="stroke: #000000"/>
      </g>
     </g>
     <g id="text_3">
      <text style="font: 8.8px 'DejaVu Sans', 'Bitstream Vera Sans', 'Computer Modern Sans Serif', 'Lucida Grande', 'Verdana', 'Geneva', 'Lucid', 'Arial', 'Helvetica', 'Avant Garde', sans-serif; text-anchor: middle" x="109.770785" y="161.734572" transform="rotate(-0 109.770785 161.734572)">2000</text>
     </g>
    </g>
    <g id="xtick_4">
     <g id="line2d_7">
      <path d="M 141.747093 146.747947 
L 141.747093 12.07875 
" clip-path="url(#pa7334059b9)" style="fill: none; stroke: #b0b0b0; stroke-width: 0.6; stroke-linecap: square"/>
     </g>
     <g id="line2d_8">
      <g>
       <use xlink:href="#m6a67b9dfe5" x="141.747093" y="146.747947" style="stroke: #000000"/>
      </g>
     </g>
     <g id="text_4">
      <text style="font: 8.8px 'DejaVu Sans', 'Bitstream Vera Sans', 'Computer Modern Sans Serif', 'Lucida Grande', 'Verdana', 'Geneva', 'Lucid', 'Arial', 'Helvetica', 'Avant Garde', sans-serif; text-anchor: middle" x="141.747093" y="161.734572" transform="rotate(-0 141.747093 161.734572)">2500</text>
     </g>
    </g>
    <g id="xtick_5">
     <g id="line2d_9">
      <path d="M 173.723401 146.747947 
L 173.723401 12.07875 
" clip-path="url(#pa7334059b9)" style="fill: none; stroke: #b0b0b0; stroke-width: 0.6; stroke-linecap: square"/>
     </g>
     <g id="line2d_10">
      <g>
       <use xlink:href="#m6a67b9dfe5" x="173.723401" y="146.747947" style="stroke: #000000"/>
      </g>
     </g>
     <g id="text_5">
      <text style="font: 8.8px 'DejaVu Sans', 'Bitstream Vera Sans', 'Computer Modern Sans Serif', 'Lucida Grande', 'Verdana', 'Geneva', 'Lucid', 'Arial', 'Helvetica', 'Avant Garde', sans-serif; text-anchor: middle" x="173.723401" y="161.734572" transform="rotate(-0 173.723401 161.734572)">3000</text>
     </g>
    </g>
    <g id="xtick_6">
     <g id="line2d_11">
      <path d="M 39.422907 146.747947 
L 39.422907 12.07875 
" clip-path="url(#pa7334059b9)" style="fill: none; stroke: #b0b0b0; stroke-width: 0.3; stroke-linecap: square"/>
     </g>
     <g id="line2d_12">
      <defs>
       <path id="m64123a7eb3" d="M 0 0 
L 0 3.2 
" style="stroke: #000000; stroke-width: 0.8"/>
      </defs>
      <g>
       <use xlink:href="#m64123a7eb3" x="39.422907" y="146.747947" style="stroke: #000000; stroke-width: 0.8"/>
      </g>
     </g>
    </g>
    <g id="xtick_7">
     <g id="line2d_13">
      <path d="M 52.21343 146.747947 
L 52.21343 12.07875 
" clip-path="url(#pa7334059b9)" style="fill: none; stroke: #b0b0b0; stroke-width: 0.3; stroke-linecap: square"/>
     </g>
     <g id="line2d_14">
      <g>
       <use xlink:href="#m64123a7eb3" x="52.21343" y="146.747947" style="stroke: #000000; stroke-width: 0.8"/>
      </g>
     </g>
    </g>
    <g id="xtick_8">
     <g id="line2d_15">
      <path d="M 58.608692 146.747947 
L 58.608692 12.07875 
" clip-path="url(#pa7334059b9)" style="fill: none; stroke: #b0b0b0; stroke-width: 0.3; stroke-linecap: square"/>
     </g>
     <g id="line2d_16">
      <g>
       <use xlink:href="#m64123a7eb3" x="58.608692" y="146.747947" style="stroke: #000000; stroke-width: 0.8"/>
      </g>
     </g>
    </g>
    <g id="xtick_9">
     <g id="line2d_17">
      <path d="M 65.003954 146.747947 
L 65.003954 12.07875 
" clip-path="url(#pa7334059b9)" style="fill: none; stroke: #b0b0b0; stroke-width: 0.3; stroke-linecap: square"/>
     </g>
     <g id="line2d_18">
      <g>
       <use xlink:href="#m64123a7eb3" x="65.003954" y="146.747947" style="stroke: #000000; stroke-width: 0.8"/>
      </g>
     </g>
    </g>
    <g id="xtick_10">
     <g id="line2d_19">
      <path d="M 71.399215 146.747947 
L 71.399215 12.07875 
" clip-path="url(#pa7334059b9)" style="fill: none; stroke: #b0b0b0; stroke-width: 0.3; stroke-linecap: square"/>
     </g>
     <g id="line2d_20">
      <g>
       <use xlink:href="#m64123a7eb3" x="71.399215" y="146.747947" style="stroke: #000000; stroke-width: 0.8"/>
      </g>
     </g>
    </g>
    <g id="xtick_11">
     <g id="line2d_21">
      <path d="M 84.189738 146.747947 
L 84.189738 12.07875 
" clip-path="url(#pa7334059b9)" style="fill: none; stroke: #b0b0b0; stroke-width: 0.3; stroke-linecap: square"/>
     </g>
     <g id="line2d_22">
      <g>
       <use xlink:href="#m64123a7eb3" x="84.189738" y="146.747947" style="stroke: #000000; stroke-width: 0.8"/>
      </g>
     </g>
    </g>
    <g id="xtick_12">
     <g id="line2d_23">
      <path d="M 90.585 146.747947 
L 90.585 12.07875 
" clip-path="url(#pa7334059b9)" style="fill: none; stroke: #b0b0b0; stroke-width: 0.3; stroke-linecap: square"/>
     </g>
     <g id="line2d_24">
      <g>
       <use xlink:href="#m64123a7eb3" x="90.585" y="146.747947" style="stroke: #000000; stroke-width: 0.8"/>
      </g>
     </g>
    </g>
    <g id="xtick_13">
     <g id="line2d_25">
      <path d="M 96.980262 146.747947 
L 96.980262 12.07875 
" clip-path="url(#pa7334059b9)" style="fill: none; stroke: #b0b0b0; stroke-width: 0.3; stroke-linecap: square"/>
     </g>
     <g id="line2d_26">
      <g>
       <use xlink:href="#m64123a7eb3" x="96.980262" y="146.747947" style="stroke: #000000; stroke-width: 0.8"/>
      </g>
     </g>
    </g>
    <g id="xtick_14">
     <g id="line2d_27">
      <path d="M 103.375523 146.747947 
L 103.375523 12.07875 
" clip-path="url(#pa7334059b9)" style="fill: none; stroke: #b0b0b0; stroke-width: 0.3; stroke-linecap: square"/>
     </g>
     <g id="line2d_28">
      <g>
       <use xlink:href="#m64123a7eb3" x="103.375523" y="146.747947" style="stroke: #000000; stroke-width: 0.8"/>
      </g>
     </g>
    </g>
    <g id="xtick_15">
     <g id="line2d_29">
      <path d="M 116.166047 146.747947 
L 116.166047 12.07875 
" clip-path="url(#pa7334059b9)" style="fill: none; stroke: #b0b0b0; stroke-width: 0.3; stroke-linecap: square"/>
     </g>
     <g id="line2d_30">
      <g>
       <use xlink:href="#m64123a7eb3" x="116.166047" y="146.747947" style="stroke: #000000; stroke-width: 0.8"/>
      </g>
     </g>
    </g>
    <g id="xtick_16">
     <g id="line2d_31">
      <path d="M 122.561308 146.747947 
L 122.561308 12.07875 
" clip-path="url(#pa7334059b9)" style="fill: none; stroke: #b0b0b0; stroke-width: 0.3; stroke-linecap: square"/>
     </g>
     <g id="line2d_32">
      <g>
       <use xlink:href="#m64123a7eb3" x="122.561308" y="146.747947" style="stroke: #000000; stroke-width: 0.8"/>
      </g>
     </g>
    </g>
    <g id="xtick_17">
     <g id="line2d_33">
      <path d="M 128.95657 146.747947 
L 128.95657 12.07875 
" clip-path="url(#pa7334059b9)" style="fill: none; stroke: #b0b0b0; stroke-width: 0.3; stroke-linecap: square"/>
     </g>
     <g id="line2d_34">
      <g>
       <use xlink:href="#m64123a7eb3" x="128.95657" y="146.747947" style="stroke: #000000; stroke-width: 0.8"/>
      </g>
     </g>
    </g>
    <g id="xtick_18">
     <g id="line2d_35">
      <path d="M 135.351832 146.747947 
L 135.351832 12.07875 
" clip-path="url(#pa7334059b9)" style="fill: none; stroke: #b0b0b0; stroke-width: 0.3; stroke-linecap: square"/>
     </g>
     <g id="line2d_36">
      <g>
       <use xlink:href="#m64123a7eb3" x="135.351832" y="146.747947" style="stroke: #000000; stroke-width: 0.8"/>
      </g>
     </g>
    </g>
    <g id="xtick_19">
     <g id="line2d_37">
      <path d="M 148.142355 146.747947 
L 148.142355 12.07875 
" clip-path="url(#pa7334059b9)" style="fill: none; stroke: #b0b0b0; stroke-width: 0.3; stroke-linecap: square"/>
     </g>
     <g id="line2d_38">
      <g>
       <use xlink:href="#m64123a7eb3" x="148.142355" y="146.747947" style="stroke: #000000; stroke-width: 0.8"/>
      </g>
     </g>
    </g>
    <g id="xtick_20">
     <g id="line2d_39">
      <path d="M 154.537616 146.747947 
L 154.537616 12.07875 
" clip-path="url(#pa7334059b9)" style="fill: none; stroke: #b0b0b0; stroke-width: 0.3; stroke-linecap: square"/>
     </g>
     <g id="line2d_40">
      <g>
       <use xlink:href="#m64123a7eb3" x="154.537616" y="146.747947" style="stroke: #000000; stroke-width: 0.8"/>
      </g>
     </g>
    </g>
    <g id="xtick_21">
     <g id="line2d_41">
      <path d="M 160.932878 146.747947 
L 160.932878 12.07875 
" clip-path="url(#pa7334059b9)" style="fill: none; stroke: #b0b0b0; stroke-width: 0.3; stroke-linecap: square"/>
     </g>
     <g id="line2d_42">
      <g>
       <use xlink:href="#m64123a7eb3" x="160.932878" y="146.747947" style="stroke: #000000; stroke-width: 0.8"/>
      </g>
     </g>
    </g>
    <g id="xtick_22">
     <g id="line2d_43">
      <path d="M 167.32814 146.747947 
L 167.32814 12.07875 
" clip-path="url(#pa7334059b9)" style="fill: none; stroke: #b0b0b0; stroke-width: 0.3; stroke-linecap: square"/>
     </g>
     <g id="line2d_44">
      <g>
       <use xlink:href="#m64123a7eb3" x="167.32814" y="146.747947" style="stroke: #000000; stroke-width: 0.8"/>
      </g>
     </g>
    </g>
    <g id="xtick_23">
     <g id="line2d_45">
      <path d="M 180.118663 146.747947 
L 180.118663 12.07875 
" clip-path="url(#pa7334059b9)" style="fill: none; stroke: #b0b0b0; stroke-width: 0.3; stroke-linecap: square"/>
     </g>
     <g id="line2d_46">
      <g>
       <use xlink:href="#m64123a7eb3" x="180.118663" y="146.747947" style="stroke: #000000; stroke-width: 0.8"/>
      </g>
     </g>
    </g>
    <g id="xtick_24">
     <g id="line2d_47">
      <path d="M 186.513925 146.747947 
L 186.513925 12.07875 
" clip-path="url(#pa7334059b9)" style="fill: none; stroke: #b0b0b0; stroke-width: 0.3; stroke-linecap: square"/>
     </g>
     <g id="line2d_48">
      <g>
       <use xlink:href="#m64123a7eb3" x="186.513925" y="146.747947" style="stroke: #000000; stroke-width: 0.8"/>
      </g>
     </g>
    </g>
    <g id="text_6">
     <text style="font: 9.6px 'DejaVu Sans', 'Bitstream Vera Sans', 'Computer Modern Sans Serif', 'Lucida Grande', 'Verdana', 'Geneva', 'Lucid', 'Arial', 'Helvetica', 'Avant Garde', sans-serif; text-anchor: middle" x="111.3696" y="174.859197" transform="rotate(-0 111.3696 174.859197)">Wavelength (nm)</text>
    </g>
   </g>
   <g id="matplotlib.axis_2">
    <g id="ytick_1">
     <g id="line2d_49">
      <path d="M 35.58575 143.154554 
L 187.153451 143.154554 
" clip-path="url(#pa7334059b9)" style="fill: none; stroke: #b0b0b0; stroke-width: 0.6; stroke-linecap: square"/>
     </g>
     <g id="line2d_50">
      <defs>
       <path id="mcc62c417a7" d="M 0 0 
L -4.8 0 
" style="stroke: #000000"/>
      </defs>
      <g>
       <use xlink:href="#mcc62c417a7" x="35.58575" y="143.154554" style="stroke: #000000"/>
      </g>
     </g>
     <g id="text_7">
      <text style="font: 8.8px 'DejaVu Sans', 'Bitstream Vera Sans', 'Computer Modern Sans Serif', 'Lucida Grande', 'Verdana', 'Geneva', 'Lucid', 'Arial', 'Helvetica', 'Avant Garde', sans-serif; text-anchor: end" x="27.28575" y="146.497866" transform="rotate(-0 27.28575 146.497866)">0.2</text>
     </g>
    </g>
    <g id="ytick_2">
     <g id="line2d_51">
      <path d="M 35.58575 111.915935 
L 187.153451 111.915935 
" clip-path="url(#pa7334059b9)" style="fill: none; stroke: #b0b0b0; stroke-width: 0.6; stroke-linecap: square"/>
     </g>
     <g id="line2d_52">
      <g>
       <use xlink:href="#mcc62c417a7" x="35.58575" y="111.915935" style="stroke: #000000"/>
      </g>
     </g>
     <g id="text_8">
      <text style="font: 8.8px 'DejaVu Sans', 'Bitstream Vera Sans', 'Computer Modern Sans Serif', 'Lucida Grande', 'Verdana', 'Geneva', 'Lucid', 'Arial', 'Helvetica', 'Avant Garde', sans-serif; text-anchor: end" x="27.28575" y="115.259247" transform="rotate(-0 27.28575 115.259247)">0.4</text>
     </g>
    </g>
    <g id="ytick_3">
     <g id="line2d_53">
      <path d="M 35.58575 80.677315 
L 187.153451 80.677315 
" clip-path="url(#pa7334059b9)" style="fill: none; stroke: #b0b0b0; stroke-width: 0.6; stroke-linecap: square"/>
     </g>
     <g id="line2d_54">
      <g>
       <use xlink:href="#mcc62c417a7" x="35.58575" y="80.677315" style="stroke: #000000"/>
      </g>
     </g>
     <g id="text_9">
      <text style="font: 8.8px 'DejaVu Sans', 'Bitstream Vera Sans', 'Computer Modern Sans Serif', 'Lucida Grande', 'Verdana', 'Geneva', 'Lucid', 'Arial', 'Helvetica', 'Avant Garde', sans-serif; text-anchor: end" x="27.28575" y="84.020628" transform="rotate(-0 27.28575 84.020628)">0.6</text>
     </g>
    </g>
    <g id="ytick_4">
     <g id="line2d_55">
      <path d="M 35.58575 49.438696 
L 187.153451 49.438696 
" clip-path="url(#pa7334059b9)" style="fill: none; stroke: #b0b0b0; stroke-width: 0.6; stroke-linecap: square"/>
     </g>
     <g id="line2d_56">
      <g>
       <use xlink:href="#mcc62c417a7" x="35.58575" y="49.438696" style="stroke: #000000"/>
      </g>
     </g>
     <g id="text_10">
      <text style="font: 8.8px 'DejaVu Sans', 'Bitstream Vera Sans', 'Computer Modern Sans Serif', 'Lucida Grande', 'Verdana', 'Geneva', 'Lucid', 'Arial', 'Helvetica', 'Avant Garde', sans-serif; text-anchor: end" x="27.28575" y="52.782009" transform="rotate(-0 27.28575 52.782009)">0.8</text>
     </g>
    </g>
    <g id="ytick_5">
     <g id="line2d_57">
      <path d="M 35.58575 18.200077 
L 187.153451 18.200077 
" clip-path="url(#pa7334059b9)" style="fill: none; stroke: #b0b0b0; stroke-width: 0.6; stroke-linecap: square"/>
     </g>
     <g id="line2d_58">
      <g>
       <use xlink:href="#mcc62c417a7" x="35.58575" y="18.200077" style="stroke: #000000"/>
      </g>
     </g>
     <g id="text_11">
      <text style="font: 8.8px 'DejaVu Sans', 'Bitstream Vera Sans', 'Computer Modern Sans Serif', 'Lucida Grande', 'Verdana', 'Geneva', 'Lucid', 'Arial', 'Helvetica', 'Avant Garde', sans-serif; text-anchor: end" x="27.28575" y="21.54339" transform="rotate(-0 27.28575 21.54339)">1.0</text>
     </g>
    </g>
    <g id="text_12">
     <text style="font: 9.6px 'DejaVu Sans', 'Bitstream Vera Sans', 'Computer Modern Sans Serif', 'Lucida Grande', 'Verdana', 'Geneva', 'Lucid', 'Arial', 'Helvetica', 'Avant Garde', sans-serif; text-anchor: middle" x="7.2945" y="79.413348" transform="rotate(-90 7.2945 79.413348)">Reflectance</text>
    </g>
   </g>
   <g id="line2d_59">
    <path d="M 39.422907 18.200077 
L 41.467885 19.508104 
L 42.065398 19.44629 
L 42.668902 19.439864 
L 43.278456 19.030814 
L 44.204263 18.301211 
L 44.829208 18.200077 
L 46.097957 18.286538 
L 47.066269 18.475114 
L 47.392273 18.495228 
L 47.719906 18.627154 
L 50.059672 20.429155 
L 51.087707 21.170984 
L 51.781659 21.563306 
L 52.835653 21.885329 
L 53.547128 22.024219 
L 54.265736 22.141795 
L 54.991548 22.204425 
L 55.724636 22.365138 
L 56.465073 22.149852 
L 58.731221 21.36878 
L 59.88998 20.808214 
L 60.672175 20.747714 
L 61.462211 20.391546 
L 62.260168 19.906167 
L 63.88016 19.563259 
L 65.532795 18.814423 
L 66.794089 18.453672 
L 67.645498 18.647126 
L 68.074398 18.920581 
L 68.505442 19.419227 
L 68.938641 20.164599 
L 69.374007 21.159937 
L 69.811549 23.324274 
L 70.693208 30.587485 
L 71.137346 30.635347 
L 72.483129 23.592267 
L 72.936217 22.232299 
L 73.849201 20.510499 
L 74.771337 19.465762 
L 75.702717 18.989467 
L 76.643435 18.630052 
L 77.593583 18.338718 
L 79.036695 18.200077 
L 84.516743 18.222973 
L 87.108814 18.200077 
L 94.15866 18.267731 
L 95.851493 18.382648 
L 97.569845 18.200077 
L 99.901344 18.318928 
L 101.084653 18.809937 
L 101.680749 19.483427 
L 102.279825 20.735863 
L 102.881896 22.309475 
L 104.095085 25.931944 
L 104.706233 26.828649 
L 105.320436 27.014646 
L 107.808114 26.380324 
L 108.437827 26.137326 
L 109.070688 25.62743 
L 110.345919 23.96486 
L 112.934863 20.440516 
L 113.59021 19.68256 
L 114.248833 19.314761 
L 114.910749 19.304411 
L 116.244527 20.132887 
L 116.916422 20.347612 
L 117.591677 20.34493 
L 118.270307 20.180596 
L 118.952331 19.669078 
L 119.637765 18.910047 
L 120.326626 18.396785 
L 121.018931 18.200077 
L 123.116686 18.200077 
L 123.822942 18.870081 
L 124.532729 20.535565 
L 125.962967 25.215856 
L 126.683454 27.432544 
L 128.866602 35.590991 
L 130.340288 42.572802 
L 131.082661 42.918458 
L 131.828747 39.106042 
L 132.578563 33.827943 
L 133.332128 30.927301 
L 134.089461 30.313364 
L 136.384255 29.969243 
L 137.156849 30.244829 
L 137.933305 30.155027 
L 138.713644 29.187349 
L 139.497884 28.679444 
L 140.286046 29.544582 
L 141.078149 30.961738 
L 141.874211 32.15111 
L 142.674255 31.932499 
L 144.286362 28.204288 
L 145.098466 26.839977 
L 145.914631 25.239576 
L 147.559223 20.470771 
L 148.387691 18.742002 
L 149.220302 18.200077 
L 150.057075 19.197025 
L 150.898033 23.578689 
L 151.743195 32.675653 
L 152.592584 49.189337 
L 154.304122 109.668314 
L 155.166315 130.816944 
L 156.032819 138.906 
L 156.903655 140.62662 
L 157.778846 139.621487 
L 160.430761 132.58872 
L 161.323587 129.824283 
L 163.122653 122.958991 
L 167.699622 103.806962 
L 169.562609 95.049437 
L 171.444272 84.672197 
L 173.344799 72.621991 
L 175.264378 59.032841 
L 177.203201 43.950306 
L 179.161461 27.284783 
L 180.147941 18.200077 
L 180.147941 18.200077 
" clip-path="url(#pa7334059b9)" style="fill: none; stroke: #1f77b4; stroke-width: 0.5; stroke-linecap: square"/>
   </g>
   <g id="line2d_60"/>
   <g id="patch_3">
    <path d="M 35.58575 146.747947 
L 35.58575 12.07875 
" style="fill: none; stroke: #000000; stroke-linejoin: miter; stroke-linecap: square"/>
   </g>
   <g id="patch_4">
    <path d="M 187.153451 146.747947 
L 187.153451 12.07875 
" style="fill: none; stroke: #000000; stroke-linejoin: miter; stroke-linecap: square"/>
   </g>
   <g id="patch_5">
    <path d="M 35.58575 146.747947 
L 187.153451 146.747947 
" style="fill: none; stroke: #000000; stroke-linejoin: miter; stroke-linecap: square"/>
   </g>
   <g id="patch_6">
    <path d="M 35.58575 12.07875 
L 187.153451 12.07875 
" style="fill: none; stroke: #000000; stroke-linejoin: miter; stroke-linecap: square"/>
   </g>
   <g id="text_13">
    <text style="font: 8px 'DejaVu Sans', 'Bitstream Vera Sans', 'Computer Modern Sans Serif', 'Lucida Grande', 'Verdana', 'Geneva', 'Lucid', 'Arial', 'Helvetica', 'Avant Garde', sans-serif; text-anchor: middle" x="111.3696" y="6.07875" transform="rotate(-0 111.3696 6.07875)">Laboratory Phyllosilicate Serpentine</text>
   </g>
   <g id="legend_1">
    <g id="patch_7">
     <path d="M 194.384805 84.716786 
L 270.94668 84.716786 
Q 272.14668 84.716786 272.14668 83.516786 
L 272.14668 75.309911 
Q 272.14668 74.109911 270.94668 74.109911 
L 194.384805 74.109911 
Q 193.184805 74.109911 193.184805 75.309911 
L 193.184805 83.516786 
Q 193.184805 84.716786 194.384805 84.716786 
z
" style="fill: #ffffff; opacity: 0.8; stroke: #cccccc; stroke-width: 0.8; stroke-linejoin: miter"/>
    </g>
    <g id="line2d_61">
     <path d="M 195.584805 78.968973 
L 201.584805 78.968973 
L 207.584805 78.968973 
" style="fill: none; stroke: #1f77b4; stroke-width: 1.2; stroke-linecap: square"/>
    </g>
    <g id="text_14">
     <text style="font: 6px 'DejaVu Sans', 'Bitstream Vera Sans', 'Computer Modern Sans Serif', 'Lucida Grande', 'Verdana', 'Geneva', 'Lucid', 'Arial', 'Helvetica', 'Avant Garde', sans-serif; text-anchor: start" x="212.384805" y="81.068973" transform="rotate(-0 212.384805 81.068973)">Serpentine LALZ01</text>
    </g>
   </g>
  </g>
 </g>
 <defs>
  <clipPath id="pa7334059b9">
   <rect x="35.58575" y="12.07875" width="151.567701" height="134.669197"/>
  </clipPath>
 </defs>
</svg>
