<?xml version="1.0" encoding="utf-8" standalone="no"?>
<!DOCTYPE svg PUBLIC "-//W3C//DTD SVG 1.1//EN"
  "http://www.w3.org/Graphics/SVG/1.1/DTD/svg11.dtd">
<svg xmlns:xlink="http://www.w3.org/1999/xlink" width="272.202405pt" height="176.855697pt" viewBox="0 0 272.202405 176.855697" xmlns="http://www.w3.org/2000/svg" version="1.1">
 <metadata>
  <rdf:RDF xmlns:dc="http://purl.org/dc/elements/1.1/" xmlns:cc="http://creativecommons.org/ns#" xmlns:rdf="http://www.w3.org/1999/02/22-rdf-syntax-ns#">
   <cc:Work>
    <dc:type rdf:resource="http://purl.org/dc/dcmitype/StillImage"/>
    <dc:date>2025-02-12T17:07:59.349500</dc:date>
    <dc:format>image/svg+xml</dc:format>
    <dc:creator>
     <cc:Agent>
      <dc:title>Matplotlib v3.6.2, https://matplotlib.org/</dc:title>
     </cc:Agent>
    </dc:creator>
   </cc:Work>
  </rdf:RDF>
 </metadata>
 <defs>
  <style type="text/css">*{stroke-linejoin: round; stroke-linecap: butt}</style>
 </defs>
 <g id="figure_1">
  <g id="patch_1">
   <path d="M -0 176.855697 
L 272.202405 176.855697 
L 272.202405 0 
L -0 0 
z
" style="fill: #ffffff"/>
  </g>
  <g id="axes_1">
   <g id="patch_2">
    <path d="M 35.58575 146.747947 
L 189.283451 146.747947 
L 189.283451 12.07875 
L 35.58575 12.07875 
z
" style="fill: #ffffff"/>
   </g>
   <g id="matplotlib.axis_1">
    <g id="xtick_1">
     <g id="line2d_1">
      <path d="M 45.961966 146.747947 
L 45.961966 12.07875 
" clip-path="url(#pefd8b50012)" style="fill: none; stroke: #b0b0b0; stroke-width: 0.6; stroke-linecap: square"/>
     </g>
     <g id="line2d_2">
      <defs>
       <path id="mb3f8463d2a" d="M 0 0 
L 0 4.8 
" style="stroke: #000000"/>
      </defs>
      <g>
       <use xlink:href="#mb3f8463d2a" x="45.961966" y="146.747947" style="stroke: #000000"/>
      </g>
     </g>
     <g id="text_1">
      <text style="font: 8.8px 'DejaVu Sans', 'Bitstream Vera Sans', 'Computer Modern Sans Serif', 'Lucida Grande', 'Verdana', 'Geneva', 'Lucid', 'Arial', 'Helvetica', 'Avant Garde', sans-serif; text-anchor: middle" x="45.961966" y="161.734572" transform="rotate(-0 45.961966 161.734572)">1000</text>
     </g>
    </g>
    <g id="xtick_2">
     <g id="line2d_3">
      <path d="M 78.387641 146.747947 
L 78.387641 12.07875 
" clip-path="url(#pefd8b50012)" style="fill: none; stroke: #b0b0b0; stroke-width: 0.6; stroke-linecap: square"/>
     </g>
     <g id="line2d_4">
      <g>
       <use xlink:href="#mb3f8463d2a" x="78.387641" y="146.747947" style="stroke: #000000"/>
      </g>
     </g>
     <g id="text_2">
      <text style="font: 8.8px 'DejaVu Sans', 'Bitstream Vera Sans', 'Computer Modern Sans Serif', 'Lucida Grande', 'Verdana', 'Geneva', 'Lucid', 'Arial', 'Helvetica', 'Avant Garde', sans-serif; text-anchor: middle" x="78.387641" y="161.734572" transform="rotate(-0 78.387641 161.734572)">1500</text>
     </g>
    </g>
    <g id="xtick_3">
     <g id="line2d_5">
      <path d="M 110.813317 146.747947 
L 110.813317 12.07875 
" clip-path="url(#pefd8b50012)" style="fill: none; stroke: #b0b0b0; stroke-width: 0.6; stroke-linecap: square"/>
     </g>
     <g id="line2d_6">
      <g>
       <use xlink:href="#mb3f8463d2a" x="110.813317" y="146.747947" style="stroke: #000000"/>
      </g>
     </g>
     <g id="text_3">
      <text style="font: 8.8px 'DejaVu Sans', 'Bitstream Vera Sans', 'Computer Modern Sans Serif', 'Lucida Grande', 'Verdana', 'Geneva', 'Lucid', 'Arial', 'Helvetica', 'Avant Garde', sans-serif; text-anchor: middle" x="110.813317" y="161.734572" transform="rotate(-0 110.813317 161.734572)">2000</text>
     </g>
    </g>
    <g id="xtick_4">
     <g id="line2d_7">
      <path d="M 143.238992 146.747947 
L 143.238992 12.07875 
" clip-path="url(#pefd8b50012)" style="fill: none; stroke: #b0b0b0; stroke-width: 0.6; stroke-linecap: square"/>
     </g>
     <g id="line2d_8">
      <g>
       <use xlink:href="#mb3f8463d2a" x="143.238992" y="146.747947" style="stroke: #000000"/>
      </g>
     </g>
     <g id="text_4">
      <text style="font: 8.8px 'DejaVu Sans', 'Bitstream Vera Sans', 'Computer Modern Sans Serif', 'Lucida Grande', 'Verdana', 'Geneva', 'Lucid', 'Arial', 'Helvetica', 'Avant Garde', sans-serif; text-anchor: middle" x="143.238992" y="161.734572" transform="rotate(-0 143.238992 161.734572)">2500</text>
     </g>
    </g>
    <g id="xtick_5">
     <g id="line2d_9">
      <path d="M 175.664667 146.747947 
L 175.664667 12.07875 
" clip-path="url(#pefd8b50012)" style="fill: none; stroke: #b0b0b0; stroke-width: 0.6; stroke-linecap: square"/>
     </g>
     <g id="line2d_10">
      <g>
       <use xlink:href="#mb3f8463d2a" x="175.664667" y="146.747947" style="stroke: #000000"/>
      </g>
     </g>
     <g id="text_5">
      <text style="font: 8.8px 'DejaVu Sans', 'Bitstream Vera Sans', 'Computer Modern Sans Serif', 'Lucida Grande', 'Verdana', 'Geneva', 'Lucid', 'Arial', 'Helvetica', 'Avant Garde', sans-serif; text-anchor: middle" x="175.664667" y="161.734572" transform="rotate(-0 175.664667 161.734572)">3000</text>
     </g>
    </g>
    <g id="xtick_6">
     <g id="line2d_11">
      <path d="M 39.476831 146.747947 
L 39.476831 12.07875 
" clip-path="url(#pefd8b50012)" style="fill: none; stroke: #b0b0b0; stroke-width: 0.3; stroke-linecap: square"/>
     </g>
     <g id="line2d_12">
      <defs>
       <path id="m316e61f3cc" d="M 0 0 
L 0 3.2 
" style="stroke: #000000; stroke-width: 0.8"/>
      </defs>
      <g>
       <use xlink:href="#m316e61f3cc" x="39.476831" y="146.747947" style="stroke: #000000; stroke-width: 0.8"/>
      </g>
     </g>
    </g>
    <g id="xtick_7">
     <g id="line2d_13">
      <path d="M 52.447101 146.747947 
L 52.447101 12.07875 
" clip-path="url(#pefd8b50012)" style="fill: none; stroke: #b0b0b0; stroke-width: 0.3; stroke-linecap: square"/>
     </g>
     <g id="line2d_14">
      <g>
       <use xlink:href="#m316e61f3cc" x="52.447101" y="146.747947" style="stroke: #000000; stroke-width: 0.8"/>
      </g>
     </g>
    </g>
    <g id="xtick_8">
     <g id="line2d_15">
      <path d="M 58.932236 146.747947 
L 58.932236 12.07875 
" clip-path="url(#pefd8b50012)" style="fill: none; stroke: #b0b0b0; stroke-width: 0.3; stroke-linecap: square"/>
     </g>
     <g id="line2d_16">
      <g>
       <use xlink:href="#m316e61f3cc" x="58.932236" y="146.747947" style="stroke: #000000; stroke-width: 0.8"/>
      </g>
     </g>
    </g>
    <g id="xtick_9">
     <g id="line2d_17">
      <path d="M 65.417371 146.747947 
L 65.417371 12.07875 
" clip-path="url(#pefd8b50012)" style="fill: none; stroke: #b0b0b0; stroke-width: 0.3; stroke-linecap: square"/>
     </g>
     <g id="line2d_18">
      <g>
       <use xlink:href="#m316e61f3cc" x="65.417371" y="146.747947" style="stroke: #000000; stroke-width: 0.8"/>
      </g>
     </g>
    </g>
    <g id="xtick_10">
     <g id="line2d_19">
      <path d="M 71.902506 146.747947 
L 71.902506 12.07875 
" clip-path="url(#pefd8b50012)" style="fill: none; stroke: #b0b0b0; stroke-width: 0.3; stroke-linecap: square"/>
     </g>
     <g id="line2d_20">
      <g>
       <use xlink:href="#m316e61f3cc" x="71.902506" y="146.747947" style="stroke: #000000; stroke-width: 0.8"/>
      </g>
     </g>
    </g>
    <g id="xtick_11">
     <g id="line2d_21">
      <path d="M 84.872776 146.747947 
L 84.872776 12.07875 
" clip-path="url(#pefd8b50012)" style="fill: none; stroke: #b0b0b0; stroke-width: 0.3; stroke-linecap: square"/>
     </g>
     <g id="line2d_22">
      <g>
       <use xlink:href="#m316e61f3cc" x="84.872776" y="146.747947" style="stroke: #000000; stroke-width: 0.8"/>
      </g>
     </g>
    </g>
    <g id="xtick_12">
     <g id="line2d_23">
      <path d="M 91.357911 146.747947 
L 91.357911 12.07875 
" clip-path="url(#pefd8b50012)" style="fill: none; stroke: #b0b0b0; stroke-width: 0.3; stroke-linecap: square"/>
     </g>
     <g id="line2d_24">
      <g>
       <use xlink:href="#m316e61f3cc" x="91.357911" y="146.747947" style="stroke: #000000; stroke-width: 0.8"/>
      </g>
     </g>
    </g>
    <g id="xtick_13">
     <g id="line2d_25">
      <path d="M 97.843047 146.747947 
L 97.843047 12.07875 
" clip-path="url(#pefd8b50012)" style="fill: none; stroke: #b0b0b0; stroke-width: 0.3; stroke-linecap: square"/>
     </g>
     <g id="line2d_26">
      <g>
       <use xlink:href="#m316e61f3cc" x="97.843047" y="146.747947" style="stroke: #000000; stroke-width: 0.8"/>
      </g>
     </g>
    </g>
    <g id="xtick_14">
     <g id="line2d_27">
      <path d="M 104.328182 146.747947 
L 104.328182 12.07875 
" clip-path="url(#pefd8b50012)" style="fill: none; stroke: #b0b0b0; stroke-width: 0.3; stroke-linecap: square"/>
     </g>
     <g id="line2d_28">
      <g>
       <use xlink:href="#m316e61f3cc" x="104.328182" y="146.747947" style="stroke: #000000; stroke-width: 0.8"/>
      </g>
     </g>
    </g>
    <g id="xtick_15">
     <g id="line2d_29">
      <path d="M 117.298452 146.747947 
L 117.298452 12.07875 
" clip-path="url(#pefd8b50012)" style="fill: none; stroke: #b0b0b0; stroke-width: 0.3; stroke-linecap: square"/>
     </g>
     <g id="line2d_30">
      <g>
       <use xlink:href="#m316e61f3cc" x="117.298452" y="146.747947" style="stroke: #000000; stroke-width: 0.8"/>
      </g>
     </g>
    </g>
    <g id="xtick_16">
     <g id="line2d_31">
      <path d="M 123.783587 146.747947 
L 123.783587 12.07875 
" clip-path="url(#pefd8b50012)" style="fill: none; stroke: #b0b0b0; stroke-width: 0.3; stroke-linecap: square"/>
     </g>
     <g id="line2d_32">
      <g>
       <use xlink:href="#m316e61f3cc" x="123.783587" y="146.747947" style="stroke: #000000; stroke-width: 0.8"/>
      </g>
     </g>
    </g>
    <g id="xtick_17">
     <g id="line2d_33">
      <path d="M 130.268722 146.747947 
L 130.268722 12.07875 
" clip-path="url(#pefd8b50012)" style="fill: none; stroke: #b0b0b0; stroke-width: 0.3; stroke-linecap: square"/>
     </g>
     <g id="line2d_34">
      <g>
       <use xlink:href="#m316e61f3cc" x="130.268722" y="146.747947" style="stroke: #000000; stroke-width: 0.8"/>
      </g>
     </g>
    </g>
    <g id="xtick_18">
     <g id="line2d_35">
      <path d="M 136.753857 146.747947 
L 136.753857 12.07875 
" clip-path="url(#pefd8b50012)" style="fill: none; stroke: #b0b0b0; stroke-width: 0.3; stroke-linecap: square"/>
     </g>
     <g id="line2d_36">
      <g>
       <use xlink:href="#m316e61f3cc" x="136.753857" y="146.747947" style="stroke: #000000; stroke-width: 0.8"/>
      </g>
     </g>
    </g>
    <g id="xtick_19">
     <g id="line2d_37">
      <path d="M 149.724127 146.747947 
L 149.724127 12.07875 
" clip-path="url(#pefd8b50012)" style="fill: none; stroke: #b0b0b0; stroke-width: 0.3; stroke-linecap: square"/>
     </g>
     <g id="line2d_38">
      <g>
       <use xlink:href="#m316e61f3cc" x="149.724127" y="146.747947" style="stroke: #000000; stroke-width: 0.8"/>
      </g>
     </g>
    </g>
    <g id="xtick_20">
     <g id="line2d_39">
      <path d="M 156.209262 146.747947 
L 156.209262 12.07875 
" clip-path="url(#pefd8b50012)" style="fill: none; stroke: #b0b0b0; stroke-width: 0.3; stroke-linecap: square"/>
     </g>
     <g id="line2d_40">
      <g>
       <use xlink:href="#m316e61f3cc" x="156.209262" y="146.747947" style="stroke: #000000; stroke-width: 0.8"/>
      </g>
     </g>
    </g>
    <g id="xtick_21">
     <g id="line2d_41">
      <path d="M 162.694397 146.747947 
L 162.694397 12.07875 
" clip-path="url(#pefd8b50012)" style="fill: none; stroke: #b0b0b0; stroke-width: 0.3; stroke-linecap: square"/>
     </g>
     <g id="line2d_42">
      <g>
       <use xlink:href="#m316e61f3cc" x="162.694397" y="146.747947" style="stroke: #000000; stroke-width: 0.8"/>
      </g>
     </g>
    </g>
    <g id="xtick_22">
     <g id="line2d_43">
      <path d="M 169.179532 146.747947 
L 169.179532 12.07875 
" clip-path="url(#pefd8b50012)" style="fill: none; stroke: #b0b0b0; stroke-width: 0.3; stroke-linecap: square"/>
     </g>
     <g id="line2d_44">
      <g>
       <use xlink:href="#m316e61f3cc" x="169.179532" y="146.747947" style="stroke: #000000; stroke-width: 0.8"/>
      </g>
     </g>
    </g>
    <g id="xtick_23">
     <g id="line2d_45">
      <path d="M 182.149802 146.747947 
L 182.149802 12.07875 
" clip-path="url(#pefd8b50012)" style="fill: none; stroke: #b0b0b0; stroke-width: 0.3; stroke-linecap: square"/>
     </g>
     <g id="line2d_46">
      <g>
       <use xlink:href="#m316e61f3cc" x="182.149802" y="146.747947" style="stroke: #000000; stroke-width: 0.8"/>
      </g>
     </g>
    </g>
    <g id="xtick_24">
     <g id="line2d_47">
      <path d="M 188.634937 146.747947 
L 188.634937 12.07875 
" clip-path="url(#pefd8b50012)" style="fill: none; stroke: #b0b0b0; stroke-width: 0.3; stroke-linecap: square"/>
     </g>
     <g id="line2d_48">
      <g>
       <use xlink:href="#m316e61f3cc" x="188.634937" y="146.747947" style="stroke: #000000; stroke-width: 0.8"/>
      </g>
     </g>
    </g>
    <g id="text_6">
     <text style="font: 9.6px 'DejaVu Sans', 'Bitstream Vera Sans', 'Computer Modern Sans Serif', 'Lucida Grande', 'Verdana', 'Geneva', 'Lucid', 'Arial', 'Helvetica', 'Avant Garde', sans-serif; text-anchor: middle" x="112.4346" y="174.859197" transform="rotate(-0 112.4346 174.859197)">Wavelength (nm)</text>
    </g>
   </g>
   <g id="matplotlib.axis_2">
    <g id="ytick_1">
     <g id="line2d_49">
      <path d="M 35.58575 132.297704 
L 189.283451 132.297704 
" clip-path="url(#pefd8b50012)" style="fill: none; stroke: #b0b0b0; stroke-width: 0.6; stroke-linecap: square"/>
     </g>
     <g id="line2d_50">
      <defs>
       <path id="m376ffb04ff" d="M 0 0 
L -4.8 0 
" style="stroke: #000000"/>
      </defs>
      <g>
       <use xlink:href="#m376ffb04ff" x="35.58575" y="132.297704" style="stroke: #000000"/>
      </g>
     </g>
     <g id="text_7">
      <text style="font: 8.8px 'DejaVu Sans', 'Bitstream Vera Sans', 'Computer Modern Sans Serif', 'Lucida Grande', 'Verdana', 'Geneva', 'Lucid', 'Arial', 'Helvetica', 'Avant Garde', sans-serif; text-anchor: end" x="27.28575" y="135.641016" transform="rotate(-0 27.28575 135.641016)">0.2</text>
     </g>
    </g>
    <g id="ytick_2">
     <g id="line2d_51">
      <path d="M 35.58575 103.773297 
L 189.283451 103.773297 
" clip-path="url(#pefd8b50012)" style="fill: none; stroke: #b0b0b0; stroke-width: 0.6; stroke-linecap: square"/>
     </g>
     <g id="line2d_52">
      <g>
       <use xlink:href="#m376ffb04ff" x="35.58575" y="103.773297" style="stroke: #000000"/>
      </g>
     </g>
     <g id="text_8">
      <text style="font: 8.8px 'DejaVu Sans', 'Bitstream Vera Sans', 'Computer Modern Sans Serif', 'Lucida Grande', 'Verdana', 'Geneva', 'Lucid', 'Arial', 'Helvetica', 'Avant Garde', sans-serif; text-anchor: end" x="27.28575" y="107.116609" transform="rotate(-0 27.28575 107.116609)">0.4</text>
     </g>
    </g>
    <g id="ytick_3">
     <g id="line2d_53">
      <path d="M 35.58575 75.24889 
L 189.283451 75.24889 
" clip-path="url(#pefd8b50012)" style="fill: none; stroke: #b0b0b0; stroke-width: 0.6; stroke-linecap: square"/>
     </g>
     <g id="line2d_54">
      <g>
       <use xlink:href="#m376ffb04ff" x="35.58575" y="75.24889" style="stroke: #000000"/>
      </g>
     </g>
     <g id="text_9">
      <text style="font: 8.8px 'DejaVu Sans', 'Bitstream Vera Sans', 'Computer Modern Sans Serif', 'Lucida Grande', 'Verdana', 'Geneva', 'Lucid', 'Arial', 'Helvetica', 'Avant Garde', sans-serif; text-anchor: end" x="27.28575" y="78.592203" transform="rotate(-0 27.28575 78.592203)">0.6</text>
     </g>
    </g>
    <g id="ytick_4">
     <g id="line2d_55">
      <path d="M 35.58575 46.724484 
L 189.283451 46.724484 
" clip-path="url(#pefd8b50012)" style="fill: none; stroke: #b0b0b0; stroke-width: 0.6; stroke-linecap: square"/>
     </g>
     <g id="line2d_56">
      <g>
       <use xlink:href="#m376ffb04ff" x="35.58575" y="46.724484" style="stroke: #000000"/>
      </g>
     </g>
     <g id="text_10">
      <text style="font: 8.8px 'DejaVu Sans', 'Bitstream Vera Sans', 'Computer Modern Sans Serif', 'Lucida Grande', 'Verdana', 'Geneva', 'Lucid', 'Arial', 'Helvetica', 'Avant Garde', sans-serif; text-anchor: end" x="27.28575" y="50.067796" transform="rotate(-0 27.28575 50.067796)">0.8</text>
     </g>
    </g>
    <g id="ytick_5">
     <g id="line2d_57">
      <path d="M 35.58575 18.200077 
L 189.283451 18.200077 
" clip-path="url(#pefd8b50012)" style="fill: none; stroke: #b0b0b0; stroke-width: 0.6; stroke-linecap: square"/>
     </g>
     <g id="line2d_58">
      <g>
       <use xlink:href="#m376ffb04ff" x="35.58575" y="18.200077" style="stroke: #000000"/>
      </g>
     </g>
     <g id="text_11">
      <text style="font: 8.8px 'DejaVu Sans', 'Bitstream Vera Sans', 'Computer Modern Sans Serif', 'Lucida Grande', 'Verdana', 'Geneva', 'Lucid', 'Arial', 'Helvetica', 'Avant Garde', sans-serif; text-anchor: end" x="27.28575" y="21.54339" transform="rotate(-0 27.28575 21.54339)">1.0</text>
     </g>
    </g>
    <g id="text_12">
     <text style="font: 9.6px 'DejaVu Sans', 'Bitstream Vera Sans', 'Computer Modern Sans Serif', 'Lucida Grande', 'Verdana', 'Geneva', 'Lucid', 'Arial', 'Helvetica', 'Avant Garde', sans-serif; text-anchor: middle" x="7.2945" y="79.413348" transform="rotate(-90 7.2945 79.413348)">Reflectance</text>
    </g>
   </g>
   <g id="line2d_59">
    <path d="M 39.476831 18.200077 
L 40.356709 18.297102 
L 45.921632 18.404804 
L 46.898666 18.669386 
L 48.559897 18.637914 
L 49.576703 18.756759 
L 50.608838 18.793663 
L 51.656532 18.621872 
L 54.528248 18.720762 
L 56.00765 18.724163 
L 56.382135 18.785583 
L 57.516863 18.647967 
L 58.282835 18.657798 
L 59.446216 18.567451 
L 60.627135 18.58426 
L 67.663274 18.626457 
L 68.530965 18.851859 
L 69.407354 19.21163 
L 73.001653 19.019161 
L 73.922861 18.815031 
L 83.148266 18.469758 
L 84.171194 18.450467 
L 85.204376 18.292427 
L 86.773602 18.320943 
L 88.366485 18.217317 
L 89.441725 18.273094 
L 93.851565 18.200077 
L 99.617152 18.296811 
L 102.005118 18.94675 
L 102.60959 19.177884 
L 103.217085 19.205845 
L 104.441202 18.944858 
L 106.300426 18.913348 
L 110.103381 19.383081 
L 110.748345 19.30784 
L 112.70265 18.501494 
L 114.02186 18.263271 
L 117.378035 18.276872 
L 118.744116 18.477742 
L 120.818958 19.10302 
L 123.634152 18.804362 
L 124.346769 18.91768 
L 125.06295 19.150157 
L 125.782712 19.586091 
L 126.506072 20.23977 
L 127.233049 21.089974 
L 127.963662 22.210718 
L 130.17749 26.306292 
L 132.424691 29.680749 
L 133.181262 28.988676 
L 134.70577 23.493794 
L 135.473746 21.609356 
L 136.245561 20.744219 
L 137.021236 20.578423 
L 137.800789 20.953115 
L 138.58424 21.88414 
L 139.371608 23.328156 
L 140.162913 25.283354 
L 142.560646 32.768981 
L 144.179183 36.118617 
L 144.994526 37.557406 
L 145.813945 36.5394 
L 148.296869 23.470558 
L 149.1328 21.084898 
L 149.972911 19.44984 
L 150.817222 18.600802 
L 151.665755 18.225742 
L 154.236895 18.255003 
L 155.102527 19.113793 
L 155.972486 21.152143 
L 156.846796 23.654724 
L 157.725477 25.755245 
L 158.608551 27.343528 
L 159.496041 28.707216 
L 160.387968 30.344342 
L 161.284355 32.268689 
L 162.185223 33.136186 
L 163.090596 31.810606 
L 164.000496 30.04152 
L 164.914946 28.67331 
L 165.833967 27.743193 
L 166.757584 27.13945 
L 170.498463 25.391265 
L 172.397077 24.061261 
L 174.314723 22.294362 
L 176.251594 20.46905 
L 178.207883 19.007108 
L 179.193369 18.517392 
L 180.183783 18.208377 
L 182.179491 18.200077 
L 182.179491 18.200077 
" clip-path="url(#pefd8b50012)" style="fill: none; stroke: #1f77b4; stroke-width: 0.5; stroke-linecap: square"/>
   </g>
   <g id="line2d_60">
    <path d="M 39.476831 18.200077 
L 42.156458 18.532488 
L 45.599189 18.649369 
L 46.245687 18.561916 
L 47.227606 18.399722 
L 49.576703 18.342808 
L 51.656532 18.230348 
L 54.162986 18.200077 
L 59.446216 18.275369 
L 60.627135 18.345846 
L 63.452309 18.200077 
L 64.69362 18.203126 
L 68.530965 18.240673 
L 69.407354 18.492808 
L 70.292528 18.991675 
L 71.636957 20.689887 
L 73.001653 22.442429 
L 73.922861 23.200685 
L 75.322017 24.05828 
L 76.266486 24.371001 
L 77.700973 24.59406 
L 79.157084 24.525207 
L 80.635147 24.027509 
L 81.632881 23.452884 
L 85.204376 20.972172 
L 86.247916 20.394748 
L 87.301917 20.048427 
L 89.983381 19.485862 
L 91.624651 19.197553 
L 94.415269 18.475435 
L 95.551148 18.23916 
L 97.276354 18.200077 
L 99.617152 18.303363 
L 100.80518 18.705664 
L 102.005118 18.936642 
L 102.60959 19.493091 
L 103.217085 20.877079 
L 103.827617 22.814551 
L 105.677591 29.856923 
L 106.300426 31.572851 
L 106.926375 32.715094 
L 107.555454 33.503358 
L 108.187678 34.046624 
L 108.823064 34.38802 
L 109.461626 34.50263 
L 110.103381 34.358603 
L 111.396533 33.633681 
L 112.70265 32.623621 
L 114.02186 31.225082 
L 115.354295 29.450724 
L 117.378035 26.159937 
L 119.432284 22.48691 
L 120.818958 19.903817 
L 121.5175 18.95226 
L 122.219535 18.372955 
L 122.925079 18.200077 
L 123.634152 18.309184 
L 124.346769 18.954512 
L 125.06295 20.16253 
L 125.782712 21.919069 
L 127.963662 28.187757 
L 128.697927 29.535831 
L 129.435863 30.565295 
L 130.17749 31.137132 
L 130.922824 30.710325 
L 131.671885 28.836749 
L 133.181262 23.558186 
L 133.941615 22.522925 
L 134.70577 22.897503 
L 135.473746 24.080681 
L 136.245561 25.805248 
L 137.021236 27.95809 
L 137.800789 30.530732 
L 140.162913 39.726374 
L 140.958175 41.889667 
L 141.757412 43.293262 
L 142.560646 44.027096 
L 143.367897 43.58283 
L 144.179183 40.84983 
L 144.994526 35.517344 
L 145.813945 29.085343 
L 146.637462 23.981332 
L 147.465096 20.813126 
L 148.296869 19.021402 
L 149.1328 18.200077 
L 151.665755 18.200077 
L 152.518531 18.393399 
L 153.375571 19.598819 
L 154.236895 22.080466 
L 155.102527 26.722248 
L 155.972486 34.13989 
L 160.387968 78.105529 
L 162.185223 91.352018 
L 163.090596 97.00741 
L 164.000496 101.44335 
L 164.914946 104.295519 
L 167.685819 111.076514 
L 168.618695 113.011121 
L 169.556235 114.649942 
L 170.498463 115.906538 
L 171.445403 116.630517 
L 172.397077 116.64188 
L 173.353509 115.631044 
L 174.314723 113.276301 
L 175.280744 109.364305 
L 176.251594 103.911443 
L 177.227299 96.997491 
L 178.207883 88.498633 
L 179.193369 78.079985 
L 180.183783 64.67284 
L 181.179149 46.090519 
L 182.179491 18.200077 
L 182.179491 18.200077 
" clip-path="url(#pefd8b50012)" style="fill: none; stroke: #1f77b4; stroke-width: 0.5; stroke-linecap: square"/>
   </g>
   <g id="line2d_61">
    <path d="M 39.476831 18.200077 
L 39.768662 18.200077 
L 40.356709 18.546923 
L 41.249851 19.335979 
L 42.768442 21.379038 
L 43.076731 22.076798 
L 44.010878 25.237987 
L 44.32538 25.281755 
L 44.641454 24.745155 
L 46.571362 19.916247 
L 47.227606 19.170765 
L 47.890429 18.814442 
L 48.559897 18.741263 
L 49.236076 18.582474 
L 51.656532 18.960031 
L 52.363755 19.431473 
L 54.162986 21.242429 
L 54.528248 21.839499 
L 54.895336 22.746269 
L 55.26426 24.23494 
L 56.382135 31.631771 
L 56.758493 30.974032 
L 57.516863 26.671489 
L 57.898894 25.234779 
L 58.668696 23.851078 
L 59.837894 21.630349 
L 60.231531 21.196565 
L 60.627135 20.932694 
L 61.825857 20.498309 
L 62.635027 20.226828 
L 63.452309 20.232888 
L 63.864018 20.358535 
L 64.277785 20.658817 
L 65.111536 21.717098 
L 65.953645 23.021522 
L 66.37786 24.003726 
L 66.804196 25.459324 
L 67.663274 29.934073 
L 68.530965 34.472613 
L 69.407354 37.582015 
L 69.848837 38.857485 
L 70.292528 40.501025 
L 70.738438 43.034942 
L 71.186577 46.650005 
L 71.636957 51.475867 
L 72.089589 57.916968 
L 73.001653 73.578286 
L 73.461108 77.002865 
L 73.922861 74.818951 
L 75.322017 58.878706 
L 75.793074 56.648941 
L 76.266486 54.964351 
L 76.742265 51.108892 
L 77.700973 41.316714 
L 78.669291 34.552137 
L 79.647317 30.042338 
L 80.635147 26.680957 
L 81.632881 24.250119 
L 82.640616 22.44856 
L 84.171194 20.29275 
L 85.724845 19.009523 
L 86.247916 18.626496 
L 87.301917 18.2546 
L 88.902765 18.200077 
L 89.441725 18.200077 
L 90.527745 18.549518 
L 91.07483 18.897377 
L 91.624651 19.504882 
L 92.177222 20.515807 
L 92.732555 21.895725 
L 93.290664 23.738655 
L 93.851565 26.204864 
L 94.981793 33.001513 
L 96.123351 39.572646 
L 96.698415 41.500396 
L 97.276354 42.397596 
L 97.857182 42.502805 
L 98.440915 41.472749 
L 99.617152 37.781334 
L 100.209684 37.05993 
L 100.80518 37.797509 
L 101.403652 40.212887 
L 102.005118 44.753663 
L 102.60959 52.130421 
L 103.217085 62.616612 
L 104.441202 88.119792 
L 105.057855 95.522462 
L 105.677591 93.818568 
L 106.926375 77.101746 
L 108.823064 52.958967 
L 110.103381 40.138756 
L 110.748345 35.596553 
L 111.396533 32.175228 
L 112.047963 29.559774 
L 112.70265 27.643076 
L 114.02186 24.992556 
L 115.354295 23.121125 
L 116.025514 22.498053 
L 116.700088 22.295441 
L 117.378035 22.527918 
L 118.744116 23.742242 
L 119.432284 23.920483 
L 120.123892 23.531626 
L 120.818958 22.734686 
L 122.219535 20.488728 
L 123.634152 19.011796 
L 124.346769 18.458666 
L 125.06295 18.214792 
L 129.435863 18.200077 
L 130.922824 18.293231 
L 132.424691 18.200077 
L 135.473746 18.200077 
L 136.245561 18.374216 
L 137.021236 19.971406 
L 137.800789 23.241723 
L 139.371608 32.756335 
L 140.162913 37.503638 
L 140.958175 41.22954 
L 141.757412 42.683711 
L 142.560646 41.758249 
L 143.367897 37.819332 
L 144.179183 30.132677 
L 144.994526 18.200077 
L 144.994526 18.200077 
" clip-path="url(#pefd8b50012)" style="fill: none; stroke-dasharray: 2,0.75; stroke-dashoffset: 0; stroke: #ff7f0e; stroke-width: 0.5"/>
   </g>
   <g id="line2d_62">
    <path d="M 39.476831 18.200077 
L 43.076731 37.520621 
L 44.641454 44.689352 
L 46.245687 50.068309 
L 46.898666 51.848315 
L 48.224328 54.041749 
L 48.897143 54.801749 
L 49.576703 55.134005 
L 49.919033 55.175223 
L 50.263076 55.066786 
L 50.956329 54.523187 
L 51.305557 54.200934 
L 51.656532 53.697426 
L 52.363755 52.122871 
L 54.162986 46.551737 
L 55.635028 41.500098 
L 57.516863 34.070039 
L 59.056487 27.34447 
L 60.231531 23.20341 
L 61.024718 20.993439 
L 61.825857 19.551238 
L 62.635027 18.524379 
L 63.042649 18.254325 
L 64.277785 18.200077 
L 65.111536 18.375847 
L 65.953645 18.987706 
L 66.804196 19.643882 
L 67.663274 20.305353 
L 68.530965 20.989321 
L 69.848837 21.603792 
L 71.186577 22.777115 
L 73.001653 23.615445 
L 74.853303 25.264674 
L 76.266486 26.885714 
L 77.220424 28.583158 
L 77.700973 29.594292 
L 78.669291 32.401868 
L 80.635147 38.820829 
L 81.13277 39.677082 
L 81.632881 39.272868 
L 84.171194 32.96648 
L 85.204376 31.214884 
L 86.247916 29.954836 
L 88.366485 27.678012 
L 89.441725 26.944453 
L 89.983381 26.580791 
L 90.527745 25.882046 
L 91.07483 24.942157 
L 91.624651 24.31063 
L 92.732555 23.370029 
L 93.851565 22.05854 
L 94.415269 21.562923 
L 96.698415 20.287776 
L 97.276354 19.896815 
L 97.857182 20.072117 
L 98.440915 20.915279 
L 99.617152 23.740944 
L 100.209684 23.910109 
L 101.403652 21.385364 
L 102.005118 20.737222 
L 103.217085 20.239589 
L 104.441202 18.823516 
L 105.057855 18.554757 
L 105.677591 18.925612 
L 106.300426 19.944853 
L 106.926375 21.490017 
L 107.555454 22.359964 
L 108.187678 21.477113 
L 108.823064 19.707682 
L 109.461626 18.537475 
L 110.103381 18.200077 
L 120.123892 18.20514 
L 120.818958 18.85845 
L 121.5175 20.04386 
L 122.925079 23.67805 
L 123.634152 26.284845 
L 124.346769 30.004273 
L 125.06295 35.684493 
L 125.782712 44.629497 
L 126.506072 56.409382 
L 127.233049 65.942076 
L 127.963662 68.992115 
L 128.697927 70.176846 
L 129.435863 74.780161 
L 130.17749 83.092748 
L 130.922824 93.082903 
L 131.671885 101.284639 
L 132.424691 104.738266 
L 133.181262 100.845558 
L 133.941615 88.577616 
L 135.473746 54.194784 
L 136.245561 40.954195 
L 137.021236 31.348213 
L 137.800789 24.791773 
L 138.58424 20.779438 
L 139.371608 18.709365 
L 140.162913 18.200077 
L 141.757412 18.200077 
L 143.367897 18.896235 
L 144.179183 18.829809 
L 144.994526 18.200077 
L 144.994526 18.200077 
" clip-path="url(#pefd8b50012)" style="fill: none; stroke-dasharray: 2,0.75; stroke-dashoffset: 0; stroke: #ff7f0e; stroke-width: 0.5"/>
   </g>
   <g id="line2d_63">
    <path d="M 39.476831 18.200077 
L 40.652939 18.383679 
L 41.550547 18.202681 
L 42.156458 18.418072 
L 42.461687 18.55869 
L 42.768442 18.554892 
L 43.386562 18.286882 
L 44.32538 18.257644 
L 44.959108 18.438031 
L 45.599189 18.345154 
L 46.245687 18.529402 
L 47.227606 18.416466 
L 48.224328 18.658179 
L 49.236076 18.548133 
L 49.919033 18.435642 
L 50.263076 18.320944 
L 50.608838 18.327203 
L 51.305557 18.55981 
L 51.656532 18.529174 
L 52.363755 18.322786 
L 53.799541 18.285783 
L 55.26426 18.511331 
L 56.382135 18.328727 
L 57.136732 18.200077 
L 57.898894 18.350104 
L 58.668696 18.526888 
L 59.446216 18.355276 
L 60.231531 18.439215 
L 61.424288 18.588908 
L 62.229433 18.434859 
L 63.042649 18.211426 
L 63.864018 18.237263 
L 65.53154 18.442535 
L 67.663274 18.501353 
L 71.186577 18.97826 
L 72.544484 19.404581 
L 73.922861 19.693003 
L 74.853303 19.97583 
L 75.793074 20.001806 
L 77.220424 19.629424 
L 78.183924 19.337583 
L 80.635147 18.832307 
L 82.135492 18.577229 
L 82.640616 18.530186 
L 83.658455 18.58057 
L 84.171194 18.524558 
L 85.724845 18.636757 
L 86.773602 18.570706 
L 88.366485 18.745868 
L 89.441725 18.568251 
L 91.07483 18.719959 
L 92.732555 18.367353 
L 94.415269 18.200077 
L 95.551148 18.353365 
L 96.698415 18.776082 
L 101.403652 19.257701 
L 103.217085 20.296579 
L 106.300426 23.32598 
L 107.555454 23.691672 
L 108.187678 23.720586 
L 109.461626 23.451638 
L 110.103381 23.105527 
L 110.748345 22.538688 
L 112.047963 21.21637 
L 114.02186 19.997952 
L 115.354295 19.484623 
L 116.700088 18.950635 
L 118.059372 18.567114 
L 118.744116 18.346153 
L 120.123892 18.28374 
L 123.634152 18.539388 
L 125.06295 18.615977 
L 126.506072 18.481795 
L 128.697927 18.245566 
L 131.671885 18.341452 
L 132.424691 18.421198 
L 133.941615 18.200077 
L 135.473746 18.281112 
L 137.021236 18.422835 
L 138.58424 18.41326 
L 140.162913 18.496781 
L 141.757412 18.343495 
L 143.367897 18.200077 
L 144.994526 18.200077 
L 144.994526 18.200077 
" clip-path="url(#pefd8b50012)" style="fill: none; stroke-dasharray: 2,0.75; stroke-dashoffset: 0; stroke: #ff7f0e; stroke-width: 0.5"/>
   </g>
   <g id="line2d_64">
    <path d="M 39.476831 18.200077 
L 41.249851 18.301077 
L 42.768442 18.773939 
L 44.32538 18.799599 
L 45.921632 18.462759 
L 46.571362 18.35656 
L 48.224328 18.268401 
L 49.236076 18.200077 
L 53.799541 18.270937 
L 54.528248 18.514655 
L 55.26426 19.045681 
L 55.635028 19.33551 
L 56.00765 19.447504 
L 56.758493 19.249836 
L 57.898894 18.890692 
L 61.424288 18.393912 
L 62.635027 18.290206 
L 63.864018 18.200077 
L 65.53154 18.235235 
L 65.953645 18.359267 
L 66.37786 18.605987 
L 67.232664 19.498704 
L 68.096038 20.869596 
L 68.968066 22.663196 
L 69.407354 24.118429 
L 70.292528 29.048234 
L 71.186577 36.081446 
L 72.089589 44.111129 
L 72.544484 46.415252 
L 73.001653 47.016702 
L 73.461108 46.567673 
L 76.266486 41.04778 
L 79.647317 30.051157 
L 81.13277 26.588432 
L 82.135492 24.707696 
L 83.148266 23.154621 
L 84.171194 21.870718 
L 85.204376 20.820495 
L 86.773602 19.597578 
L 87.832874 18.996459 
L 89.441725 18.394894 
L 90.527745 18.216206 
L 92.732555 18.200077 
L 93.851565 18.400942 
L 96.698415 19.386018 
L 99.027567 19.473914 
L 99.617152 19.785456 
L 100.209684 20.499585 
L 100.80518 21.93433 
L 101.403652 24.612208 
L 102.005118 29.36371 
L 102.60959 37.239417 
L 104.441202 70.050249 
L 105.057855 72.98404 
L 105.677591 72.47163 
L 106.300426 70.580049 
L 107.555454 65.342572 
L 108.823064 58.600778 
L 112.047963 39.084713 
L 113.36061 32.91526 
L 114.686416 28.130216 
L 116.025514 24.251698 
L 117.378035 21.09964 
L 118.059372 19.826846 
L 118.744116 18.823411 
L 119.432284 18.222347 
L 120.123892 18.200077 
L 120.818958 18.833198 
L 121.5175 20.430555 
L 122.219535 23.035488 
L 123.634152 29.221888 
L 124.346769 31.423651 
L 125.06295 32.139846 
L 125.782712 31.698734 
L 126.506072 30.863989 
L 127.233049 29.852131 
L 127.963662 28.537531 
L 129.435863 25.063923 
L 130.922824 21.430499 
L 131.671885 19.861538 
L 132.424691 18.740118 
L 133.181262 18.200077 
L 133.941615 18.200077 
L 134.70577 18.673084 
L 135.473746 19.882408 
L 136.245561 21.812256 
L 137.021236 24.417351 
L 138.58424 31.08555 
L 140.162913 38.230836 
L 140.958175 41.352948 
L 141.757412 43.95332 
L 142.560646 45.991769 
L 143.367897 47.533565 
L 144.179183 48.681284 
L 144.994526 49.540551 
L 146.637462 50.772461 
L 147.465096 51.370694 
L 148.296869 52.168351 
L 149.1328 53.298104 
L 149.972911 54.953594 
L 150.817222 57.400089 
L 151.665755 60.946352 
L 152.518531 65.944327 
L 153.375571 72.960866 
L 154.236895 82.615928 
L 155.972486 104.644235 
L 156.846796 113.796907 
L 157.725477 120.149715 
L 158.608551 123.818675 
L 159.496041 125.638283 
L 160.387968 126.425129 
L 161.284355 126.648953 
L 162.185223 126.598456 
L 163.090596 126.411237 
L 164.000496 126.078471 
L 164.914946 125.620419 
L 165.833967 124.970879 
L 166.757584 124.11569 
L 167.685819 122.992324 
L 168.618695 121.567809 
L 169.556235 119.838354 
L 170.498463 117.787451 
L 171.445403 115.331376 
L 172.397077 112.461381 
L 173.353509 109.091024 
L 174.314723 105.111683 
L 175.280744 100.421044 
L 176.251594 94.916504 
L 177.227299 88.445316 
L 178.207883 80.497106 
L 179.193369 70.706051 
L 180.183783 58.11084 
L 181.179149 41.392289 
L 182.179491 18.200077 
L 182.179491 18.200077 
" clip-path="url(#pefd8b50012)" style="fill: none; stroke-dasharray: 2,0.75; stroke-dashoffset: 0; stroke: #ff7f0e; stroke-width: 0.5"/>
   </g>
   <g id="line2d_65">
    <path d="M 39.476831 18.200077 
L 40.356709 18.226308 
L 45.599189 18.284522 
L 46.571362 18.398601 
L 47.558191 18.345995 
L 48.559897 18.273421 
L 52.720021 18.200077 
L 63.042649 18.299751 
L 65.111536 18.8848 
L 68.968066 18.771915 
L 72.089589 19.447503 
L 73.001653 19.901595 
L 74.386922 20.978096 
L 74.853303 21.333634 
L 75.322017 21.995934 
L 75.793074 23.115785 
L 76.266486 25.027176 
L 76.742265 27.570288 
L 77.220424 28.235197 
L 78.669291 21.497443 
L 79.157084 20.584921 
L 79.647317 19.959748 
L 80.635147 19.264264 
L 83.148266 18.541344 
L 84.686497 18.415367 
L 85.724845 18.342058 
L 88.902765 18.230018 
L 90.527745 18.224039 
L 92.732555 18.230042 
L 94.415269 18.336496 
L 97.857182 18.200077 
L 99.027567 18.358424 
L 102.005118 19.16354 
L 103.217085 20.162417 
L 103.827617 20.444911 
L 105.057855 21.302831 
L 105.677591 21.464868 
L 106.300426 21.478881 
L 106.926375 21.341656 
L 108.187678 20.691521 
L 109.461626 20.060302 
L 114.686416 18.304219 
L 116.025514 18.200077 
L 122.219535 18.245451 
L 122.925079 18.578509 
L 123.634152 19.557915 
L 124.346769 21.700481 
L 125.06295 24.815129 
L 125.782712 27.346078 
L 126.506072 27.459756 
L 127.233049 25.640574 
L 127.963662 24.679013 
L 128.697927 25.582269 
L 129.435863 26.675208 
L 130.17749 26.601749 
L 130.922824 27.645976 
L 131.671885 34.649459 
L 132.424691 45.825722 
L 133.181262 53.761654 
L 133.941615 56.803419 
L 134.70577 54.250348 
L 136.245561 44.656402 
L 138.58424 26.468927 
L 139.371608 22.58304 
L 140.162913 21.196613 
L 140.958175 21.746366 
L 141.757412 22.488009 
L 142.560646 22.254068 
L 143.367897 22.328853 
L 144.179183 23.638093 
L 144.994526 25.82017 
L 145.813945 26.516277 
L 146.637462 26.068448 
L 147.465096 26.066604 
L 148.296869 25.895615 
L 149.972911 23.809392 
L 150.817222 22.336506 
L 151.665755 20.035245 
L 152.518531 18.200077 
L 153.375571 18.200077 
L 154.236895 19.334643 
L 155.102527 21.228784 
L 155.972486 23.883133 
L 156.846796 27.927353 
L 157.725477 33.969893 
L 159.496041 50.627107 
L 160.387968 58.980239 
L 161.284355 65.956088 
L 162.185223 70.977481 
L 163.090596 74.657586 
L 164.000496 79.563241 
L 164.914946 88.890795 
L 165.833967 102.396432 
L 166.757584 112.471272 
L 167.685819 113.856782 
L 168.618695 106.79273 
L 170.498463 83.924036 
L 171.445403 76.084731 
L 172.397077 72.035058 
L 173.353509 68.623931 
L 174.314723 64.324746 
L 175.280744 59.245659 
L 176.251594 53.081099 
L 178.207883 39.65537 
L 180.183783 28.52482 
L 182.179491 18.200077 
L 182.179491 18.200077 
" clip-path="url(#pefd8b50012)" style="fill: none; stroke-dasharray: 2,0.75; stroke-dashoffset: 0; stroke: #ff7f0e; stroke-width: 0.5"/>
   </g>
   <g id="line2d_66">
    <path d="M 39.476831 18.200077 
L 41.249851 26.936133 
L 43.076731 34.552031 
L 46.898666 48.612725 
L 48.559897 53.376021 
L 49.919033 56.395382 
L 50.956329 57.932588 
L 52.009262 58.864653 
L 52.720021 59.081857 
L 53.799541 59.102174 
L 54.528248 58.935202 
L 54.895336 58.736917 
L 56.382135 57.47588 
L 57.516863 56.882964 
L 58.668696 56.646223 
L 59.837894 57.00631 
L 60.627135 57.485765 
L 61.424288 57.916007 
L 62.229433 58.329794 
L 64.69362 59.820108 
L 65.953645 60.338611 
L 67.232664 60.541709 
L 68.968066 60.028937 
L 69.848837 59.227763 
L 72.544484 55.938521 
L 74.386922 52.68411 
L 77.220424 46.810391 
L 79.157084 42.166293 
L 81.632881 36.191985 
L 83.658455 32.077633 
L 85.724845 28.102942 
L 87.301917 25.392077 
L 89.441725 22.160287 
L 90.527745 21.041139 
L 92.177222 19.685928 
L 93.290664 19.039805 
L 95.551148 18.232547 
L 97.857182 18.200077 
L 100.209684 18.211842 
L 105.057855 18.200077 
L 108.187678 18.268751 
L 120.123892 18.312232 
L 122.219535 18.383945 
L 125.06295 18.200077 
L 130.17749 18.222974 
L 134.70577 18.790742 
L 137.021236 18.672572 
L 139.371608 18.200077 
L 142.560646 18.225808 
L 145.813945 18.206103 
L 154.236895 18.200077 
L 155.102527 18.53097 
L 155.972486 19.12689 
L 156.846796 20.091942 
L 157.725477 21.766974 
L 158.608551 24.84722 
L 160.387968 33.974625 
L 161.284355 36.521701 
L 162.185223 37.910434 
L 163.090596 38.493986 
L 164.000496 38.470203 
L 165.833967 37.665588 
L 168.618695 36.345458 
L 169.556235 35.720155 
L 171.445403 34.035718 
L 173.353509 31.944257 
L 175.280744 29.498766 
L 177.227299 26.674787 
L 180.183783 21.854102 
L 182.179491 18.200077 
L 182.179491 18.200077 
" clip-path="url(#pefd8b50012)" style="fill: none; stroke-dasharray: 0.5,0.5; stroke-dashoffset: 0; stroke: #2ca02c; stroke-width: 0.5"/>
   </g>
   <g id="line2d_67">
    <path d="M 39.476831 18.200077 
L 40.950651 31.639605 
L 44.959108 69.901666 
L 45.921632 77.092944 
L 46.898666 82.811953 
L 47.890429 87.244791 
L 48.559897 89.236326 
L 49.236076 90.68148 
L 49.919033 91.503746 
L 50.608838 91.657134 
L 50.956329 91.564633 
L 51.656532 90.858783 
L 52.363755 89.695299 
L 56.382135 82.345396 
L 57.136732 81.582222 
L 58.282835 80.73279 
L 62.229433 78.329258 
L 63.452309 77.061691 
L 64.69362 75.36223 
L 65.953645 73.051984 
L 67.232664 70.319868 
L 69.407354 64.576393 
L 72.089589 56.133254 
L 75.793074 43.321842 
L 78.183924 35.381023 
L 80.14 29.971476 
L 81.632881 26.399897 
L 83.148266 23.432763 
L 84.171194 21.826012 
L 85.724845 19.996984 
L 86.773602 19.212779 
L 87.832874 18.641476 
L 88.902765 18.332371 
L 89.983381 18.200077 
L 107.555454 18.30984 
L 109.461626 18.263476 
L 111.396533 18.217476 
L 114.686416 18.240418 
L 119.432284 18.255197 
L 120.818958 18.425397 
L 122.925079 18.77749 
L 127.963662 19.010692 
L 131.671885 19.031398 
L 134.70577 19.336105 
L 139.371608 19.872679 
L 145.813945 21.38221 
L 146.637462 21.374702 
L 147.465096 21.247985 
L 148.296869 21.001104 
L 149.972911 20.150237 
L 151.665755 19.153501 
L 153.375571 18.435786 
L 154.236895 18.226662 
L 156.846796 18.208679 
L 157.725477 18.295795 
L 158.608551 18.523207 
L 163.090596 20.41032 
L 164.914946 20.635002 
L 166.757584 20.620144 
L 170.498463 20.156671 
L 173.353509 19.95443 
L 175.280744 19.88441 
L 177.227299 19.599198 
L 180.183783 18.840379 
L 182.179491 18.200077 
L 182.179491 18.200077 
" clip-path="url(#pefd8b50012)" style="fill: none; stroke-dasharray: 0.5,0.5; stroke-dashoffset: 0; stroke: #2ca02c; stroke-width: 0.5"/>
   </g>
   <g id="line2d_68">
    <path d="M 39.476831 18.200077 
L 40.061952 23.116792 
L 40.652939 26.937343 
L 41.249851 29.333915 
L 42.461687 31.541636 
L 42.768442 31.688447 
L 43.076731 31.374048 
L 44.641454 27.990738 
L 45.599189 25.493015 
L 46.571362 22.907845 
L 47.227606 21.742826 
L 47.890429 21.050408 
L 48.224328 20.892296 
L 48.897143 20.998294 
L 50.608838 22.009596 
L 51.305557 22.2559 
L 52.363755 22.396474 
L 53.437905 22.041723 
L 54.162986 21.664499 
L 56.758493 19.219242 
L 57.898894 18.298672 
L 58.668696 18.200077 
L 69.407354 18.213941 
L 69.848837 18.368855 
L 71.186577 19.386768 
L 73.001653 19.611153 
L 73.922861 19.557849 
L 75.322017 19.46127 
L 78.183924 18.62314 
L 79.157084 18.661628 
L 80.14 18.449425 
L 83.148266 18.226329 
L 85.724845 18.200077 
L 90.527745 18.539188 
L 91.624651 18.200077 
L 92.177222 18.200077 
L 93.290664 18.43637 
L 94.415269 18.286757 
L 96.123351 18.357844 
L 97.276354 18.263236 
L 99.027567 18.692503 
L 100.80518 19.341739 
L 101.403652 19.74455 
L 102.005118 20.603714 
L 103.217085 23.489724 
L 103.827617 24.003647 
L 105.057855 23.912544 
L 106.300426 24.252253 
L 107.555454 24.093895 
L 109.461626 23.202702 
L 112.047963 21.810365 
L 116.025514 19.834391 
L 116.700088 19.594125 
L 118.744116 18.492538 
L 119.432284 18.243785 
L 121.5175 18.200077 
L 122.925079 18.311063 
L 126.506072 18.353152 
L 128.697927 18.259561 
L 130.17749 18.28665 
L 131.671885 18.200077 
L 133.941615 18.40543 
L 135.473746 18.321503 
L 140.162913 18.928497 
L 140.958175 18.885824 
L 144.179183 18.225274 
L 144.994526 18.200077 
L 144.994526 18.200077 
" clip-path="url(#pefd8b50012)" style="fill: none; stroke-dasharray: 0.5,0.5; stroke-dashoffset: 0; stroke: #2ca02c; stroke-width: 0.5"/>
   </g>
   <g id="line2d_69">
    <path d="M 39.476831 18.200077 
L 40.061952 38.470208 
L 40.652939 52.360479 
L 41.249851 62.020717 
L 41.852747 68.729592 
L 42.461687 72.634 
L 42.768442 73.838682 
L 43.076731 74.57236 
L 43.386562 74.804326 
L 43.697942 74.534777 
L 44.010878 73.830921 
L 44.32538 72.737166 
L 44.959108 69.400516 
L 45.599189 64.90455 
L 46.571362 55.813335 
L 49.236076 29.075776 
L 49.919033 24.144827 
L 50.608838 20.670741 
L 50.956329 19.533264 
L 51.305557 18.786166 
L 51.656532 18.358891 
L 52.009262 18.200077 
L 63.452309 18.282967 
L 64.277785 18.664086 
L 65.53154 19.573889 
L 66.37786 20.491983 
L 67.232664 21.8431 
L 68.096038 23.497509 
L 69.407354 26.858867 
L 70.292528 29.386217 
L 71.186577 32.712052 
L 71.636957 34.619054 
L 73.922861 41.564675 
L 75.793074 49.053015 
L 82.135492 75.719272 
L 84.686497 85.331739 
L 86.247916 90.633794 
L 87.832874 95.273097 
L 90.527745 102.144776 
L 91.624651 104.430432 
L 93.290664 107.47466 
L 94.981793 110.082521 
L 96.698415 112.215211 
L 97.857182 113.355507 
L 99.027567 114.108934 
L 100.80518 114.914139 
L 101.403652 115.003793 
L 102.60959 114.857124 
L 103.827617 114.426927 
L 105.057855 113.69494 
L 106.300426 112.540529 
L 107.555454 111.161695 
L 108.823064 109.364812 
L 110.103381 107.069054 
L 111.396533 104.35585 
L 113.36061 99.566026 
L 115.354295 93.818194 
L 117.378035 87.122911 
L 121.5175 72.108606 
L 127.963662 49.205151 
L 129.435863 45.447815 
L 131.671885 40.396378 
L 133.181262 35.601883 
L 133.941615 33.671197 
L 134.70577 32.137806 
L 137.800789 27.33294 
L 138.58424 26.507546 
L 140.162913 25.282618 
L 143.367897 23.100103 
L 147.465096 20.875301 
L 149.1328 19.624773 
L 149.972911 18.95353 
L 150.817222 18.435501 
L 151.665755 18.200077 
L 152.518531 18.200077 
L 153.375571 18.583567 
L 154.236895 20.584596 
L 155.102527 26.001571 
L 155.972486 36.478547 
L 156.846796 48.783098 
L 157.725477 55.835981 
L 158.608551 55.82215 
L 161.284355 49.808028 
L 164.000496 42.993122 
L 164.914946 41.274791 
L 165.833967 39.810304 
L 167.685819 36.221824 
L 169.556235 33.290346 
L 171.445403 30.91827 
L 177.227299 24.129671 
L 180.183783 20.525667 
L 182.179491 18.200077 
L 182.179491 18.200077 
" clip-path="url(#pefd8b50012)" style="fill: none; stroke-dasharray: 0.5,0.5; stroke-dashoffset: 0; stroke: #2ca02c; stroke-width: 0.5"/>
   </g>
   <g id="line2d_70">
    <path d="M 39.476831 18.200077 
L 40.950651 18.688022 
L 42.156458 19.557039 
L 44.010878 21.64077 
L 49.576703 29.499271 
L 52.009262 32.142251 
L 55.635028 34.961729 
L 59.446216 37.601093 
L 62.229433 38.643796 
L 63.452309 38.87382 
L 64.277785 38.872204 
L 65.53154 38.531771 
L 67.663274 37.557174 
L 68.968066 36.747917 
L 69.848837 36.027641 
L 71.636957 34.324766 
L 73.001653 32.821755 
L 78.183924 27.277169 
L 81.13277 24.628372 
L 82.640616 23.647164 
L 86.247916 21.842852 
L 89.983381 21.044414 
L 92.177222 20.587771 
L 93.851565 20.503118 
L 98.440915 20.96945 
L 101.403652 21.298279 
L 108.187678 21.871143 
L 115.354295 22.05011 
L 119.432284 21.962329 
L 122.219535 21.837017 
L 128.697927 20.693515 
L 130.922824 20.223303 
L 133.181262 20.068158 
L 134.70577 19.867144 
L 137.021236 19.245858 
L 140.162913 18.599584 
L 142.560646 18.328971 
L 144.179183 18.200077 
L 157.725477 18.26808 
L 159.496041 18.699478 
L 164.000496 19.9949 
L 167.685819 21.058284 
L 169.556235 21.219264 
L 171.445403 21.144011 
L 173.353509 20.865045 
L 176.251594 20.201482 
L 180.183783 18.928015 
L 182.179491 18.200077 
L 182.179491 18.200077 
" clip-path="url(#pefd8b50012)" style="fill: none; stroke-dasharray: 0.5,0.5; stroke-dashoffset: 0; stroke: #2ca02c; stroke-width: 0.5"/>
   </g>
   <g id="line2d_71">
    <path d="M 39.476831 18.200077 
L 42.768442 56.272644 
L 43.697942 64.376548 
L 44.641454 70.864159 
L 45.599189 75.80565 
L 46.245687 78.051207 
L 46.898666 79.495357 
L 47.558191 80.25793 
L 47.890429 80.393789 
L 48.224328 80.334515 
L 48.559897 80.107498 
L 49.236076 79.189358 
L 49.919033 77.536186 
L 50.608838 75.241381 
L 51.656532 70.717111 
L 53.078068 63.139391 
L 55.635028 49.203713 
L 57.136732 42.513779 
L 58.282835 38.424057 
L 59.446216 35.003906 
L 60.627135 32.28251 
L 62.229433 29.133112 
L 63.452309 27.157542 
L 65.53154 24.361926 
L 67.232664 22.435106 
L 68.096038 21.625084 
L 68.968066 21.084396 
L 69.848837 20.517455 
L 71.186577 19.658181 
L 73.461108 18.569723 
L 75.322017 18.213962 
L 79.157084 18.200077 
L 89.983381 18.241967 
L 91.624651 18.569693 
L 93.290664 19.228167 
L 94.415269 20.0281 
L 96.123351 21.477246 
L 98.440915 23.951919 
L 100.80518 26.987256 
L 103.217085 30.362789 
L 115.354295 50.268502 
L 118.059372 54.044181 
L 122.219535 58.877153 
L 123.634152 60.250207 
L 125.06295 61.244286 
L 126.506072 61.896191 
L 127.233049 62.094166 
L 128.697927 62.195805 
L 130.17749 61.867121 
L 131.671885 61.262607 
L 133.181262 60.085036 
L 135.473746 57.721543 
L 137.021236 55.738794 
L 138.58424 53.20156 
L 140.958175 48.585826 
L 142.560646 45.083145 
L 147.465096 33.760347 
L 149.972911 28.920658 
L 151.665755 26.075002 
L 153.375571 23.522258 
L 154.236895 22.414738 
L 155.102527 21.61877 
L 156.846796 20.420758 
L 157.725477 20.08868 
L 158.608551 20.233038 
L 161.284355 21.637532 
L 163.090596 22.294045 
L 164.914946 23.516659 
L 165.833967 23.840433 
L 166.757584 23.788973 
L 168.618695 23.292763 
L 170.498463 22.501835 
L 173.353509 21.167511 
L 176.251594 20.064698 
L 182.179491 18.200077 
L 182.179491 18.200077 
" clip-path="url(#pefd8b50012)" style="fill: none; stroke-dasharray: 0.5,0.5; stroke-dashoffset: 0; stroke: #2ca02c; stroke-width: 0.5"/>
   </g>
   <g id="line2d_72">
    <path d="M 39.476831 18.200077 
L 40.061952 18.715076 
L 40.950651 19.099481 
L 44.010878 18.200077 
L 44.959108 18.241682 
L 45.599189 18.516804 
L 46.571362 19.347104 
L 47.558191 20.449438 
L 50.956329 24.953625 
L 52.009262 26.127916 
L 53.437905 27.264024 
L 55.26426 27.703025 
L 56.382135 27.432044 
L 57.898894 26.749569 
L 58.668696 26.293124 
L 62.229433 23.58338 
L 63.452309 22.744072 
L 67.663274 19.735664 
L 68.530965 19.376894 
L 69.407354 19.419648 
L 69.848837 19.545541 
L 70.292528 19.934954 
L 70.738438 21.1271 
L 71.186577 23.070773 
L 71.636957 23.248345 
L 72.089589 22.086595 
L 72.544484 21.330901 
L 73.001653 20.872068 
L 73.461108 20.609919 
L 74.386922 20.437732 
L 74.853303 20.220148 
L 76.266486 19.140024 
L 77.220424 18.689356 
L 78.183924 18.549973 
L 80.14 18.749362 
L 81.13277 18.784482 
L 84.171194 18.399669 
L 85.724845 18.254532 
L 93.290664 18.213027 
L 98.440915 18.200077 
L 99.617152 18.322438 
L 100.80518 18.702503 
L 103.217085 19.541659 
L 104.441202 19.574854 
L 106.926375 20.450451 
L 109.461626 21.867901 
L 110.103381 22.044531 
L 110.748345 21.996081 
L 111.396533 21.681703 
L 112.70265 20.475036 
L 114.02186 19.16024 
L 114.686416 18.675405 
L 115.354295 18.370472 
L 116.025514 18.200077 
L 117.378035 18.246041 
L 118.059372 18.325588 
L 122.219535 18.200077 
L 122.925079 18.288091 
L 123.634152 18.706995 
L 124.346769 19.577626 
L 125.06295 21.18156 
L 125.782712 23.855756 
L 126.506072 27.032763 
L 127.233049 29.087437 
L 127.963662 30.015714 
L 128.697927 31.276446 
L 130.922824 38.742734 
L 131.671885 40.297561 
L 132.424691 40.483912 
L 133.181262 38.725045 
L 135.473746 29.678531 
L 137.800789 24.093735 
L 138.58424 23.763482 
L 139.371608 24.270808 
L 140.958175 26.097398 
L 141.757412 26.406525 
L 142.560646 26.087053 
L 144.179183 25.05315 
L 146.637462 23.376384 
L 147.465096 22.828745 
L 148.296869 21.979345 
L 150.817222 18.552977 
L 151.665755 18.200077 
L 152.518531 18.200077 
L 153.375571 18.918729 
L 154.236895 21.907913 
L 155.102527 29.078517 
L 155.972486 43.174224 
L 157.725477 87.78133 
L 158.608551 98.801883 
L 159.496041 106.272448 
L 160.387968 112.266038 
L 161.284355 117.106874 
L 162.185223 120.336193 
L 163.090596 121.605186 
L 164.000496 121.259555 
L 164.914946 119.915703 
L 165.833967 118.327371 
L 166.757584 117.123157 
L 167.685819 116.569468 
L 168.618695 116.464436 
L 169.556235 116.150968 
L 170.498463 115.009409 
L 171.445403 112.755585 
L 172.397077 109.447021 
L 173.353509 105.211622 
L 174.314723 100.028951 
L 175.280744 93.718012 
L 176.251594 86.17346 
L 178.207883 67.870755 
L 180.183783 45.354479 
L 182.179491 18.200077 
L 182.179491 18.200077 
" clip-path="url(#pefd8b50012)" style="fill: none; stroke-dasharray: 1.5,0.625,0.75,0.625; stroke-dashoffset: 0; stroke: #d62728; stroke-width: 0.5"/>
   </g>
   <g id="line2d_73">
    <path d="M 39.476831 18.200077 
L 41.249851 20.134454 
L 43.076731 21.761343 
L 43.697942 22.171787 
L 44.641454 22.676927 
L 46.898666 24.396831 
L 49.236076 26.670143 
L 49.919033 27.438404 
L 51.305557 28.526822 
L 52.720021 29.331201 
L 53.437905 29.483077 
L 54.162986 29.632025 
L 54.895336 29.815827 
L 55.635028 29.815986 
L 57.136732 29.495049 
L 57.516863 29.395335 
L 68.096038 23.077154 
L 68.968066 22.958353 
L 69.848837 22.587412 
L 70.738438 22.680177 
L 71.186577 23.057363 
L 72.544484 25.713414 
L 73.001653 25.854671 
L 73.461108 25.132324 
L 74.386922 22.925859 
L 75.322017 21.691376 
L 76.266486 20.901171 
L 77.220424 20.220039 
L 79.647317 19.102644 
L 80.635147 18.846151 
L 81.632881 18.566485 
L 85.724845 18.200077 
L 89.441725 18.417798 
L 90.527745 18.426663 
L 92.732555 18.200077 
L 97.276354 18.234817 
L 99.617152 18.200077 
L 100.209684 18.200077 
L 101.403652 18.517324 
L 102.005118 18.84844 
L 102.60959 19.702026 
L 103.217085 21.147638 
L 105.057855 26.801631 
L 105.677591 26.784543 
L 110.748345 21.471006 
L 112.70265 19.573727 
L 114.02186 18.72103 
L 115.354295 18.329291 
L 116.025514 18.200077 
L 120.818958 18.289283 
L 121.5175 18.79223 
L 122.219535 19.866099 
L 122.925079 21.577329 
L 124.346769 25.619639 
L 125.06295 26.543091 
L 125.782712 25.97768 
L 127.233049 22.960027 
L 128.697927 19.38017 
L 129.435863 18.276782 
L 130.17749 18.200077 
L 130.922824 18.898892 
L 133.181262 22.989272 
L 133.941615 23.299096 
L 134.70577 22.787182 
L 135.473746 22.037596 
L 136.245561 21.449317 
L 137.021236 21.189659 
L 137.800789 21.385633 
L 139.371608 22.508889 
L 140.162913 22.561285 
L 140.958175 22.198182 
L 142.560646 21.098141 
L 145.813945 18.48063 
L 146.637462 18.210378 
L 150.817222 18.200077 
L 151.665755 18.336982 
L 152.518531 19.111874 
L 153.375571 21.294456 
L 154.236895 26.026238 
L 155.102527 34.726583 
L 155.972486 48.148441 
L 158.608551 98.356716 
L 159.496041 108.222222 
L 160.387968 112.481837 
L 161.284355 111.413028 
L 162.185223 105.991801 
L 163.090596 97.975022 
L 165.833967 70.633441 
L 166.757584 64.027784 
L 167.685819 59.464876 
L 168.618695 56.294209 
L 170.498463 51.506744 
L 172.397077 46.660538 
L 175.280744 39.072312 
L 178.207883 31.632654 
L 180.183783 25.563807 
L 182.179491 18.200077 
L 182.179491 18.200077 
" clip-path="url(#pefd8b50012)" style="fill: none; stroke-dasharray: 1.5,0.625,0.75,0.625; stroke-dashoffset: 0; stroke: #d62728; stroke-width: 0.5"/>
   </g>
   <g id="line2d_74">
    <path d="M 39.476831 18.200077 
L 40.950651 18.337365 
L 41.852747 18.559885 
L 42.768442 18.920243 
L 43.386562 19.202635 
L 43.697942 19.2251 
L 44.32538 18.780446 
L 44.959108 18.4892 
L 45.599189 18.481904 
L 46.245687 18.43948 
L 46.898666 18.512459 
L 48.224328 18.313229 
L 50.263076 18.267351 
L 51.305557 18.451912 
L 52.009262 18.271509 
L 53.799541 18.232602 
L 54.895336 18.232633 
L 59.446216 18.307385 
L 60.231531 18.475448 
L 61.424288 19.17803 
L 61.825857 19.219908 
L 62.635027 19.056159 
L 63.042649 19.094723 
L 63.452309 19.297258 
L 64.277785 20.022767 
L 65.111536 21.222319 
L 65.953645 22.456002 
L 68.096038 24.888709 
L 68.530965 25.90373 
L 70.292528 32.060091 
L 71.186577 37.971805 
L 71.636957 40.018402 
L 72.544484 40.908464 
L 73.001653 39.791113 
L 73.922861 29.247841 
L 74.386922 26.312824 
L 74.853303 24.679548 
L 75.793074 22.860077 
L 76.742265 21.71226 
L 77.700973 20.905145 
L 78.669291 20.360487 
L 79.647317 19.764811 
L 82.135492 18.838962 
L 84.171194 18.394758 
L 85.724845 18.200077 
L 87.301917 18.266939 
L 88.902765 18.200077 
L 89.983381 18.233725 
L 95.551148 18.252603 
L 98.440915 18.731604 
L 101.403652 18.200077 
L 102.005118 18.332585 
L 102.60959 19.113864 
L 105.057855 23.65354 
L 105.677591 23.969939 
L 106.300426 23.763631 
L 107.555454 22.576086 
L 109.461626 20.367843 
L 110.748345 19.198349 
L 112.047963 18.408071 
L 112.70265 18.203395 
L 114.02186 18.200077 
L 114.686416 18.405309 
L 115.354295 18.946967 
L 116.025514 19.673998 
L 116.700088 20.569011 
L 117.378035 21.73389 
L 118.744116 25.381686 
L 119.432284 28.271446 
L 120.123892 33.274598 
L 120.818958 39.71096 
L 121.5175 44.608108 
L 122.219535 46.936933 
L 122.925079 48.348152 
L 123.634152 50.151382 
L 124.346769 50.869995 
L 125.06295 44.407503 
L 125.782712 36.472002 
L 126.506072 32.49673 
L 127.233049 30.658099 
L 127.963662 30.141795 
L 128.697927 30.713358 
L 129.435863 31.968132 
L 131.671885 37.09826 
L 132.424691 37.895677 
L 133.181262 38.953526 
L 133.941615 40.741667 
L 135.473746 43.428308 
L 136.245561 43.582429 
L 137.021236 42.633698 
L 137.800789 42.640788 
L 138.58424 44.220126 
L 140.162913 48.959847 
L 141.757412 52.405728 
L 142.560646 54.337735 
L 143.367897 55.718889 
L 146.637462 60.444563 
L 147.465096 61.937572 
L 149.972911 67.343543 
L 150.817222 69.86829 
L 151.665755 73.585951 
L 152.518531 79.102625 
L 153.375571 86.795024 
L 154.236895 97.435246 
L 155.972486 125.194219 
L 156.846796 134.511717 
L 157.725477 137.860298 
L 158.608551 138.594791 
L 159.496041 137.322575 
L 160.387968 133.505168 
L 162.185223 117.479314 
L 163.090596 110.788308 
L 164.000496 105.501575 
L 165.833967 97.115025 
L 167.685819 89.7609 
L 168.618695 86.55174 
L 169.556235 83.789952 
L 170.498463 79.577363 
L 172.397077 67.594634 
L 176.251594 48.311091 
L 182.179491 18.200077 
L 182.179491 18.200077 
" clip-path="url(#pefd8b50012)" style="fill: none; stroke-dasharray: 1.5,0.625,0.75,0.625; stroke-dashoffset: 0; stroke: #d62728; stroke-width: 0.5"/>
   </g>
   <g id="line2d_75">
    <path d="M 39.476831 18.200077 
L 40.356709 19.317972 
L 40.950651 19.59358 
L 42.156458 20.171787 
L 42.768442 20.516763 
L 43.076731 20.622777 
L 43.697942 21.097706 
L 44.32538 21.108919 
L 44.959108 21.165645 
L 45.599189 21.490107 
L 47.227606 23.154524 
L 47.890429 23.605581 
L 48.897143 24.582509 
L 49.919033 25.466414 
L 51.305557 26.908495 
L 52.009262 27.221276 
L 54.528248 27.836389 
L 55.26426 27.862768 
L 57.516863 27.327987 
L 58.668696 26.550493 
L 59.446216 26.134222 
L 62.229433 24.187079 
L 63.452309 23.269464 
L 64.69362 22.383605 
L 65.953645 21.610027 
L 67.232664 20.896558 
L 68.096038 20.47581 
L 68.968066 20.257722 
L 69.407354 20.334733 
L 69.848837 20.624152 
L 70.292528 21.308523 
L 70.738438 22.436465 
L 71.186577 24.610785 
L 71.636957 28.765206 
L 72.089589 35.161469 
L 72.544484 39.484099 
L 73.001653 36.710066 
L 73.461108 30.563942 
L 73.922861 26.119623 
L 74.386922 23.615548 
L 74.853303 22.05643 
L 75.322017 21.078577 
L 76.266486 20.054487 
L 77.220424 19.306959 
L 77.700973 19.122679 
L 78.669291 19.197147 
L 79.647317 19.429601 
L 80.635147 19.851534 
L 81.13277 19.848943 
L 82.640616 19.363053 
L 83.658455 19.04317 
L 84.686497 18.692303 
L 85.724845 18.445089 
L 86.773602 18.206275 
L 89.441725 18.256556 
L 90.527745 18.284511 
L 91.624651 18.200077 
L 93.851565 18.200077 
L 97.857182 18.200077 
L 99.617152 18.677924 
L 101.403652 19.101488 
L 102.60959 19.272308 
L 105.677591 20.194314 
L 110.103381 22.195759 
L 110.748345 22.145595 
L 111.396533 21.675355 
L 112.70265 19.968827 
L 113.36061 19.061691 
L 114.02186 18.476396 
L 114.686416 18.256373 
L 116.025514 18.200077 
L 118.059372 18.300204 
L 118.744116 19.395974 
L 119.432284 21.897016 
L 120.818958 29.057086 
L 121.5175 33.424939 
L 122.925079 45.603663 
L 123.634152 51.407214 
L 124.346769 51.572646 
L 125.782712 38.76211 
L 126.506072 37.977794 
L 127.233049 40.088702 
L 127.963662 40.757033 
L 128.697927 39.669755 
L 129.435863 40.201861 
L 130.922824 46.491494 
L 132.424691 51.469404 
L 133.181262 52.617034 
L 133.941615 51.160218 
L 135.473746 45.003457 
L 136.245561 43.385183 
L 138.58424 40.667095 
L 139.371608 39.060839 
L 140.162913 36.439097 
L 143.367897 23.260962 
L 144.994526 18.200077 
L 144.994526 18.200077 
" clip-path="url(#pefd8b50012)" style="fill: none; stroke-dasharray: 1.5,0.625,0.75,0.625; stroke-dashoffset: 0; stroke: #d62728; stroke-width: 0.5"/>
   </g>
   <g id="line2d_76">
    <path d="M 39.476831 18.200077 
L 40.061952 18.390776 
L 40.652939 18.553896 
L 41.249851 18.458557 
L 41.550547 18.295515 
L 41.852747 18.283604 
L 42.461687 18.490324 
L 43.076731 18.595486 
L 44.010878 18.860268 
L 44.32538 18.838853 
L 44.959108 18.566268 
L 45.921632 18.698459 
L 46.245687 18.66135 
L 47.227606 19.049272 
L 48.897143 19.053979 
L 49.576703 19.345416 
L 49.919033 19.31433 
L 50.956329 18.951577 
L 52.720021 19.109415 
L 54.162986 19.441198 
L 54.528248 19.39005 
L 55.26426 19.655081 
L 55.635028 19.799583 
L 56.758493 19.521193 
L 57.136732 19.625976 
L 57.898894 19.539255 
L 58.668696 19.092224 
L 59.446216 18.365854 
L 59.837894 18.200077 
L 61.024718 18.33695 
L 61.825857 18.200077 
L 64.277785 18.441534 
L 65.53154 18.886111 
L 65.953645 18.895025 
L 68.530965 19.679321 
L 68.968066 19.9816 
L 69.407354 20.633764 
L 70.292528 22.641967 
L 70.738438 24.382059 
L 71.636957 29.750209 
L 72.089589 32.904706 
L 72.544484 35.288426 
L 73.001653 35.458648 
L 73.461108 33.469239 
L 74.386922 28.845328 
L 74.853303 27.397951 
L 75.322017 26.599939 
L 76.266486 25.431583 
L 77.700973 22.87153 
L 78.669291 21.685078 
L 79.647317 20.807377 
L 80.635147 20.135067 
L 81.13277 19.840359 
L 82.640616 19.381997 
L 83.148266 19.101393 
L 85.724845 18.430448 
L 86.773602 18.573395 
L 88.366485 18.43571 
L 89.441725 18.217353 
L 93.290664 18.200077 
L 94.981793 18.394493 
L 97.857182 18.662129 
L 99.027567 18.9216 
L 99.617152 19.186784 
L 100.209684 19.727703 
L 100.80518 20.63275 
L 101.403652 21.970594 
L 102.005118 24.375466 
L 102.60959 28.787868 
L 103.217085 36.084547 
L 104.441202 54.291113 
L 105.057855 56.01202 
L 105.677591 52.065537 
L 106.300426 47.168075 
L 106.926375 43.544378 
L 107.555454 41.094618 
L 109.461626 34.953627 
L 112.047963 25.692034 
L 112.70265 23.928281 
L 113.36061 22.545033 
L 114.02186 21.458658 
L 114.686416 20.601025 
L 115.354295 19.92892 
L 116.700088 19.205923 
L 118.744116 18.266204 
L 120.123892 18.228165 
L 120.818958 18.8148 
L 121.5175 20.254859 
L 122.219535 22.733873 
L 123.634152 29.274065 
L 124.346769 30.632668 
L 125.06295 28.730065 
L 126.506072 23.020653 
L 127.233049 20.532272 
L 127.963662 18.837461 
L 128.697927 18.200077 
L 129.435863 18.200077 
L 130.17749 18.505764 
L 130.922824 19.072874 
L 131.671885 19.909904 
L 132.424691 20.998629 
L 133.941615 24.002707 
L 136.245561 28.60331 
L 137.800789 32.212928 
L 139.371608 36.09948 
L 140.162913 37.800547 
L 140.958175 39.122291 
L 143.367897 42.107347 
L 144.179183 43.135849 
L 144.994526 43.914523 
L 145.813945 44.352523 
L 146.637462 44.406883 
L 148.296869 44.155069 
L 149.1328 44.269963 
L 149.972911 44.76377 
L 150.817222 45.702986 
L 151.665755 47.184134 
L 152.518531 49.505344 
L 153.375571 53.382617 
L 154.236895 60.4794 
L 155.102527 73.597287 
L 155.972486 92.033557 
L 156.846796 107.675927 
L 157.725477 119.160305 
L 158.608551 127.39143 
L 159.496041 131.261692 
L 160.387968 130.964871 
L 161.284355 127.039018 
L 162.185223 120.009775 
L 164.000496 101.514872 
L 164.914946 93.756422 
L 165.833967 87.862932 
L 166.757584 83.360647 
L 168.618695 76.075043 
L 173.353509 58.550061 
L 177.227299 42.711691 
L 179.193369 33.960837 
L 181.179149 24.024253 
L 182.179491 18.200077 
L 182.179491 18.200077 
" clip-path="url(#pefd8b50012)" style="fill: none; stroke-dasharray: 1.5,0.625,0.75,0.625; stroke-dashoffset: 0; stroke: #d62728; stroke-width: 0.5"/>
   </g>
   <g id="line2d_77">
    <path d="M 39.476831 18.200077 
L 40.356709 20.703358 
L 41.249851 22.610744 
L 42.461687 24.49535 
L 43.697942 25.70941 
L 44.32538 26.005779 
L 44.959108 26.169001 
L 45.921632 25.967292 
L 46.898666 25.481555 
L 47.890429 24.721629 
L 48.897143 23.723129 
L 53.078068 19.166742 
L 53.799541 18.557323 
L 54.895336 18.200077 
L 57.898894 18.200077 
L 65.953645 18.350838 
L 66.804196 18.750047 
L 68.968066 19.907962 
L 69.407354 20.387217 
L 69.848837 21.211388 
L 70.292528 22.319429 
L 70.738438 23.987212 
L 71.186577 26.667503 
L 72.544484 38.034008 
L 73.001653 40.20242 
L 73.461108 41.057101 
L 73.922861 40.867463 
L 74.386922 39.203401 
L 75.322017 33.546684 
L 76.266486 30.722595 
L 77.700973 26.969096 
L 78.669291 25.111233 
L 79.647317 23.685029 
L 80.635147 22.617007 
L 82.135492 21.399345 
L 83.658455 20.397791 
L 85.204376 19.680507 
L 86.773602 19.200494 
L 88.902765 18.64748 
L 91.624651 18.209702 
L 95.551148 18.227754 
L 96.698415 18.326125 
L 99.027567 18.771358 
L 100.209684 19.271932 
L 100.80518 19.704577 
L 101.403652 20.497004 
L 102.005118 21.834571 
L 102.60959 24.143366 
L 103.217085 28.11856 
L 104.441202 39.921509 
L 105.057855 41.962918 
L 105.677591 40.330139 
L 106.926375 34.655425 
L 107.555454 32.384466 
L 108.823064 29.083007 
L 110.748345 25.351343 
L 112.047963 23.078609 
L 113.36061 21.209573 
L 114.686416 19.911889 
L 116.025514 19.184477 
L 117.378035 18.707564 
L 119.432284 18.304695 
L 120.818958 18.200077 
L 122.925079 18.304589 
L 123.634152 18.533424 
L 124.346769 19.069229 
L 125.782712 20.944717 
L 126.506072 21.340599 
L 127.233049 22.112654 
L 127.963662 24.550342 
L 128.697927 27.812855 
L 129.435863 28.708467 
L 130.17749 25.746096 
L 130.922824 21.735166 
L 131.671885 19.197644 
L 132.424691 18.200077 
L 133.181262 18.200077 
L 133.941615 18.558606 
L 134.70577 19.206282 
L 137.021236 21.809462 
L 137.800789 21.455403 
L 139.371608 19.862436 
L 140.162913 19.262286 
L 140.958175 18.932624 
L 141.757412 18.997722 
L 142.560646 19.342253 
L 143.367897 19.469207 
L 144.179183 19.166475 
L 145.813945 18.400885 
L 146.637462 18.200077 
L 148.296869 18.200077 
L 149.1328 18.366364 
L 149.972911 18.916061 
L 150.817222 19.987544 
L 151.665755 21.77078 
L 152.518531 24.527611 
L 153.375571 28.856406 
L 154.236895 35.6876 
L 155.102527 45.52511 
L 155.972486 58.570266 
L 157.725477 90.472885 
L 158.608551 102.996976 
L 159.496041 111.320397 
L 160.387968 116.113788 
L 161.284355 118.293944 
L 162.185223 118.380193 
L 163.090596 115.557739 
L 165.833967 98.759411 
L 167.685819 90.918801 
L 168.618695 87.437042 
L 171.445403 78.56998 
L 172.397077 75.539872 
L 173.353509 71.968583 
L 175.280744 62.904473 
L 177.227299 52.273647 
L 179.193369 39.77705 
L 181.179149 26.037258 
L 182.179491 18.200077 
L 182.179491 18.200077 
" clip-path="url(#pefd8b50012)" style="fill: none; stroke-dasharray: 1.5,0.625,0.75,0.625; stroke-dashoffset: 0; stroke: #d62728; stroke-width: 0.5"/>
   </g>
   <g id="line2d_78">
    <path d="M 39.476831 18.200077 
L 40.356709 18.500144 
L 40.950651 18.711932 
L 41.852747 19.239033 
L 42.156458 19.663451 
L 42.461687 20.28728 
L 42.768442 20.52982 
L 43.076731 20.387579 
L 43.697942 20.454144 
L 45.27835 19.845233 
L 46.898666 19.168276 
L 48.224328 18.746228 
L 51.305557 18.208816 
L 53.437905 18.315519 
L 54.162986 18.582986 
L 54.528248 18.93365 
L 55.26426 20.201104 
L 55.635028 20.947509 
L 56.00765 21.348552 
L 56.382135 21.258061 
L 57.898894 19.745892 
L 59.056487 19.137772 
L 61.424288 18.315637 
L 63.042649 18.205024 
L 64.277785 18.44273 
L 64.69362 18.469669 
L 65.953645 19.290622 
L 66.37786 19.867524 
L 67.663274 22.61 
L 68.530965 24.81038 
L 69.407354 27.737471 
L 69.848837 29.948874 
L 70.292528 33.730218 
L 71.186577 48.50899 
L 71.636957 51.173643 
L 72.089589 51.470576 
L 72.544484 52.668619 
L 73.001653 52.882233 
L 73.461108 51.574525 
L 74.853303 45.676453 
L 76.742265 40.20071 
L 77.700973 36.055624 
L 78.669291 32.704579 
L 79.647317 29.999479 
L 81.13277 26.562137 
L 82.640616 23.804086 
L 84.171194 21.737498 
L 85.204376 20.620835 
L 87.301917 18.918923 
L 87.832874 18.57702 
L 88.902765 18.274663 
L 89.983381 18.200077 
L 91.624651 18.204199 
L 92.177222 18.351819 
L 93.290664 19.007753 
L 94.981793 20.681563 
L 97.276354 22.996422 
L 99.027567 24.614689 
L 99.617152 25.389113 
L 100.209684 26.550743 
L 100.80518 28.286748 
L 101.403652 31.227939 
L 102.005118 36.103965 
L 102.60959 43.600977 
L 103.217085 54.36331 
L 103.827617 67.16887 
L 104.441202 77.088507 
L 105.057855 80.211378 
L 105.677591 77.936618 
L 106.926375 69.96868 
L 109.461626 56.984535 
L 112.047963 41.644785 
L 113.36061 35.618424 
L 114.02186 33.28166 
L 115.354295 29.738993 
L 116.700088 27.398394 
L 120.123892 21.896684 
L 120.818958 21.001592 
L 122.925079 18.923721 
L 123.634152 18.444035 
L 124.346769 18.200077 
L 125.782712 18.200077 
L 126.506072 18.351465 
L 127.233049 19.143487 
L 127.963662 21.559533 
L 128.697927 26.602219 
L 129.435863 34.10474 
L 130.17749 40.418204 
L 130.922824 44.902837 
L 131.671885 44.313858 
L 132.424691 37.872987 
L 133.181262 32.978692 
L 133.941615 32.00467 
L 134.70577 34.021915 
L 135.473746 37.689507 
L 136.245561 39.909775 
L 137.021236 39.341624 
L 137.800789 39.155646 
L 138.58424 40.689877 
L 140.958175 46.465649 
L 143.367897 50.276176 
L 144.179183 51.371725 
L 144.994526 52.175449 
L 145.813945 52.529072 
L 146.637462 52.500241 
L 147.465096 52.039823 
L 149.972911 50.061859 
L 150.817222 50.009722 
L 151.665755 50.837634 
L 152.518531 53.117792 
L 153.375571 58.022526 
L 154.236895 67.379309 
L 156.846796 106.385812 
L 157.725477 115.453597 
L 158.608551 115.849843 
L 159.496041 115.140061 
L 160.387968 114.886781 
L 161.284355 114.244283 
L 162.185223 113.236735 
L 163.090596 111.814817 
L 166.757584 104.976557 
L 169.556235 99.28829 
L 170.498463 97.146608 
L 171.445403 94.645011 
L 172.397077 91.693325 
L 173.353509 88.144574 
L 174.314723 83.86668 
L 175.280744 78.782743 
L 176.251594 72.849005 
L 177.227299 65.991244 
L 179.193369 49.769786 
L 181.179149 30.34453 
L 182.179491 18.200077 
L 182.179491 18.200077 
" clip-path="url(#pefd8b50012)" style="fill: none; stroke-dasharray: 1.5,0.625,0.75,0.625; stroke-dashoffset: 0; stroke: #d62728; stroke-width: 0.5"/>
   </g>
   <g id="line2d_79">
    <path d="M 39.476831 18.200077 
L 41.550547 19.394454 
L 42.156458 19.338011 
L 42.768442 19.332143 
L 43.386562 18.958634 
L 44.32538 18.292424 
L 44.959108 18.200077 
L 46.245687 18.279026 
L 47.227606 18.451217 
L 47.890429 18.590047 
L 50.263076 20.235479 
L 52.720021 21.495647 
L 54.528248 21.799313 
L 55.26426 21.856502 
L 56.382135 21.942506 
L 60.231531 20.581602 
L 61.024718 20.526359 
L 61.825857 20.201137 
L 62.635027 19.757931 
L 64.277785 19.444817 
L 65.953645 18.761044 
L 67.232664 18.431638 
L 68.096038 18.608284 
L 68.530965 18.857979 
L 68.968066 19.3133 
L 69.407354 19.993909 
L 69.848837 20.902765 
L 70.292528 22.879051 
L 71.186577 29.511187 
L 71.636957 29.554891 
L 73.001653 23.123759 
L 73.461108 21.881954 
L 74.386922 20.309755 
L 75.322017 19.355791 
L 76.266486 18.920879 
L 77.220424 18.592693 
L 78.183924 18.326672 
L 79.647317 18.200077 
L 85.204376 18.220983 
L 88.366485 18.200077 
L 95.551148 18.308473 
L 96.698415 18.366785 
L 98.440915 18.200077 
L 100.80518 18.308602 
L 102.005118 18.756948 
L 102.60959 19.371921 
L 103.217085 20.515538 
L 103.827617 21.952424 
L 105.057855 25.260149 
L 105.677591 26.078943 
L 106.300426 26.248779 
L 108.823064 25.669572 
L 109.461626 25.447686 
L 110.103381 24.982094 
L 111.396533 23.463978 
L 114.02186 20.245852 
L 114.686416 19.553753 
L 115.354295 19.21791 
L 116.025514 19.208459 
L 118.059372 20.16102 
L 118.744116 20.158571 
L 119.432284 20.008516 
L 120.123892 19.541441 
L 120.818958 18.84836 
L 121.5175 18.379694 
L 122.219535 18.200077 
L 124.346769 18.200077 
L 125.06295 18.811867 
L 125.782712 20.332642 
L 127.233049 24.60628 
L 127.963662 26.630368 
L 130.17749 34.079956 
L 131.671885 40.455143 
L 132.424691 40.770765 
L 133.181262 37.289597 
L 133.941615 32.470094 
L 134.70577 29.821478 
L 135.473746 29.260883 
L 137.800789 28.946662 
L 138.58424 29.198303 
L 139.371608 29.116304 
L 140.162913 28.232704 
L 140.958175 27.768929 
L 141.757412 28.558898 
L 142.560646 29.852923 
L 143.367897 30.938954 
L 144.179183 30.739337 
L 145.813945 27.335058 
L 146.637462 26.089287 
L 147.465096 24.627939 
L 149.1328 20.273478 
L 149.972911 18.694916 
L 150.817222 18.200077 
L 151.665755 19.110404 
L 152.518531 23.11136 
L 153.375571 31.417922 
L 154.236895 46.496791 
L 155.972486 101.720964 
L 156.846796 121.032065 
L 157.725477 128.418292 
L 158.608551 129.989413 
L 159.496041 129.071612 
L 162.185223 122.649897 
L 163.090596 120.125653 
L 164.914946 113.856861 
L 169.556235 96.368884 
L 171.445403 88.372269 
L 173.353509 78.896671 
L 175.280744 67.893465 
L 177.227299 55.485027 
L 179.193369 41.71296 
L 181.179149 26.495445 
L 182.179491 18.200077 
L 182.179491 18.200077 
" clip-path="url(#pefd8b50012)" style="fill: none; stroke-dasharray: 1.5,0.625,0.75,0.625; stroke-dashoffset: 0; stroke: #d62728; stroke-width: 0.5"/>
   </g>
   <g id="line2d_80">
    <path d="M 39.476831 18.200077 
L 40.356709 18.245857 
L 41.249851 18.583008 
L 41.550547 18.826816 
L 41.852747 19.361477 
L 42.461687 21.604328 
L 42.768442 21.945726 
L 43.386562 20.151471 
L 43.697942 19.662321 
L 44.010878 19.52866 
L 47.558191 20.647736 
L 48.224328 20.628174 
L 48.897143 20.462439 
L 49.919033 20.568719 
L 51.656532 20.233059 
L 54.528248 19.145383 
L 58.668696 18.200077 
L 59.837894 18.214964 
L 62.229433 18.200077 
L 62.635027 18.340648 
L 63.042649 18.728303 
L 63.864018 19.878066 
L 64.277785 19.682258 
L 64.69362 19.273937 
L 65.53154 19.180181 
L 65.953645 19.002566 
L 67.232664 19.170429 
L 67.663274 19.245796 
L 68.096038 19.486555 
L 68.530965 19.888434 
L 68.968066 20.532649 
L 69.407354 21.638519 
L 69.848837 23.572127 
L 70.292528 27.642094 
L 70.738438 36.546852 
L 71.186577 48.83886 
L 71.636957 50.268781 
L 72.089589 39.840878 
L 72.544484 32.300329 
L 73.001653 29.073926 
L 73.461108 27.477505 
L 74.386922 25.405352 
L 75.322017 23.526815 
L 76.266486 22.38784 
L 77.700973 20.857563 
L 78.669291 20.349025 
L 79.647317 20.162596 
L 80.635147 20.452628 
L 81.13277 20.291258 
L 82.135492 19.491111 
L 83.148266 19.137388 
L 84.686497 18.899708 
L 86.247916 18.698504 
L 90.527745 18.560884 
L 91.07483 18.254289 
L 91.624651 18.200077 
L 92.732555 18.536122 
L 93.290664 18.509632 
L 94.415269 18.200077 
L 97.857182 18.271737 
L 99.617152 18.804105 
L 100.209684 18.641853 
L 100.80518 18.596639 
L 101.403652 18.718171 
L 102.005118 19.199521 
L 102.60959 20.259024 
L 103.217085 22.15289 
L 104.441202 27.33769 
L 105.057855 28.280312 
L 105.677591 27.721269 
L 106.926375 25.658418 
L 108.187678 23.89478 
L 108.823064 23.187312 
L 109.461626 22.715564 
L 110.103381 22.440429 
L 110.748345 22.3745 
L 111.396533 22.018822 
L 112.047963 20.687371 
L 112.70265 18.930623 
L 113.36061 18.200077 
L 114.02186 18.500999 
L 114.686416 20.038471 
L 115.354295 23.110938 
L 116.025514 25.146915 
L 116.700088 24.439272 
L 117.378035 23.096986 
L 118.059372 22.985015 
L 118.744116 24.00364 
L 119.432284 24.350787 
L 120.123892 22.865433 
L 120.818958 21.085179 
L 122.219535 20.176314 
L 122.925079 18.779484 
L 123.634152 18.200077 
L 124.346769 18.832723 
L 125.06295 22.587465 
L 125.782712 27.536019 
L 126.506072 30.735937 
L 127.233049 36.719005 
L 127.963662 49.005039 
L 129.435863 84.684386 
L 130.17749 95.744501 
L 130.922824 98.444086 
L 131.671885 87.834989 
L 132.424691 67.616393 
L 133.181262 54.873377 
L 133.941615 54.493388 
L 134.70577 61.179519 
L 135.473746 69.298593 
L 136.245561 69.207953 
L 137.800789 50.841638 
L 138.58424 46.363267 
L 139.371608 45.852122 
L 140.162913 45.641399 
L 140.958175 43.895658 
L 141.757412 39.1185 
L 143.367897 26.960039 
L 144.994526 18.200077 
L 144.994526 18.200077 
" clip-path="url(#pefd8b50012)" style="fill: none; stroke-dasharray: 1.5,0.625,0.75,0.625; stroke-dashoffset: 0; stroke: #d62728; stroke-width: 0.5"/>
   </g>
   <g id="line2d_81">
    <path d="M 39.476831 18.200077 
L 40.356709 18.339566 
L 41.249851 18.224316 
L 42.156458 18.296725 
L 43.697942 19.05504 
L 44.32538 19.745978 
L 45.599189 21.64998 
L 45.921632 21.853044 
L 46.245687 21.798409 
L 46.571362 21.522225 
L 47.227606 20.427412 
L 47.890429 19.174426 
L 48.559897 18.575919 
L 49.236076 18.324818 
L 50.956329 18.200077 
L 54.162986 18.283276 
L 54.895336 18.200077 
L 58.668696 18.233404 
L 59.446216 18.540398 
L 59.837894 18.85423 
L 60.627135 19.922999 
L 62.229433 22.182394 
L 63.042649 24.233953 
L 63.452309 24.332494 
L 63.864018 23.202554 
L 64.69362 19.784935 
L 65.111536 18.692707 
L 65.53154 18.210818 
L 65.953645 18.200077 
L 66.37786 18.593499 
L 68.096038 21.244776 
L 68.530965 21.226719 
L 68.968066 21.06314 
L 69.848837 20.259044 
L 70.292528 20.327887 
L 70.738438 20.986998 
L 71.186577 22.224289 
L 71.636957 24.166443 
L 72.089589 27.204849 
L 72.544484 31.834288 
L 73.461108 47.424551 
L 73.922861 49.792865 
L 74.386922 47.157963 
L 74.853303 46.224506 
L 75.322017 48.154515 
L 75.793074 50.920861 
L 76.742265 58.623193 
L 77.220424 56.03364 
L 77.700973 47.32232 
L 78.183924 40.719558 
L 79.157084 31.588097 
L 79.647317 28.415499 
L 80.14 26.241019 
L 81.13277 23.403962 
L 82.135492 21.711283 
L 83.148266 20.764392 
L 84.686497 19.984944 
L 85.724845 19.640012 
L 86.773602 19.217932 
L 87.832874 18.992998 
L 88.366485 19.057353 
L 88.902765 19.25592 
L 89.441725 19.655546 
L 90.527745 20.838001 
L 91.07483 21.565117 
L 91.624651 22.534289 
L 92.177222 24.019986 
L 92.732555 26.292705 
L 93.851565 33.122381 
L 94.415269 36.758258 
L 94.981793 39.44062 
L 95.551148 40.423484 
L 96.123351 38.869294 
L 96.698415 34.751887 
L 97.857182 24.217593 
L 98.440915 21.047316 
L 99.027567 19.326844 
L 99.617152 18.48596 
L 100.209684 18.200077 
L 100.80518 18.200077 
L 101.403652 18.351273 
L 102.005118 18.852257 
L 102.60959 19.914388 
L 103.827617 23.520502 
L 105.677591 29.793586 
L 106.300426 31.156811 
L 107.555454 32.893553 
L 108.187678 33.530511 
L 109.461626 33.754445 
L 110.103381 34.633517 
L 111.396533 37.795767 
L 112.047963 38.394974 
L 112.70265 38.778285 
L 113.36061 39.545004 
L 114.686416 41.464407 
L 116.025514 42.622091 
L 116.700088 44.452612 
L 117.378035 48.239897 
L 118.059372 54.213506 
L 119.432284 68.42347 
L 120.123892 73.492992 
L 120.818958 77.517831 
L 121.5175 79.3285 
L 122.219535 78.261915 
L 122.925079 73.98746 
L 124.346769 59.900521 
L 125.782712 34.270523 
L 126.506072 25.611648 
L 127.233049 20.988961 
L 127.963662 18.812036 
L 128.697927 18.200077 
L 129.435863 19.162295 
L 130.17749 22.854304 
L 130.922824 29.717139 
L 131.671885 34.977761 
L 132.424691 32.921567 
L 133.181262 27.774773 
L 133.941615 25.560865 
L 134.70577 28.525033 
L 135.473746 36.869669 
L 136.245561 47.081867 
L 137.021236 54.272319 
L 138.58424 64.479083 
L 139.371608 65.624454 
L 140.162913 65.262759 
L 140.958175 66.532799 
L 141.757412 66.671072 
L 142.560646 68.193412 
L 143.367897 73.696034 
L 144.179183 76.633132 
L 144.994526 71.312065 
L 145.813945 63.235218 
L 146.637462 57.219837 
L 148.296869 49.814647 
L 149.1328 43.692078 
L 150.817222 28.144369 
L 151.665755 21.50971 
L 152.518531 18.200077 
L 153.375571 21.650091 
L 154.236895 27.490253 
L 155.972486 36.314078 
L 156.846796 46.662998 
L 158.608551 78.804501 
L 159.496041 94.847984 
L 160.387968 108.367516 
L 161.284355 118.585566 
L 162.185223 124.877252 
L 163.090596 128.735483 
L 164.000496 130.368827 
L 164.914946 127.728839 
L 165.833967 119.734066 
L 166.757584 107.163637 
L 167.685819 104.849491 
L 168.618695 110.555474 
L 169.556235 113.63767 
L 170.498463 114.286415 
L 171.445403 113.566585 
L 172.397077 111.768059 
L 173.353509 108.92081 
L 174.314723 105.089534 
L 175.280744 100.205411 
L 176.251594 94.531992 
L 177.227299 87.680237 
L 178.207883 79.511703 
L 179.193369 70.090991 
L 180.183783 58.202231 
L 181.179149 41.926785 
L 182.179491 18.200077 
L 182.179491 18.200077 
" clip-path="url(#pefd8b50012)" style="fill: none; stroke-dasharray: 2.5,0.5,0.5,0.5; stroke-dashoffset: 0; stroke: #9467bd; stroke-width: 0.5"/>
   </g>
   <g id="line2d_82">
    <path d="M 39.476831 18.200077 
L 41.249851 18.743643 
L 41.550547 18.753548 
L 42.156458 19.212901 
L 42.768442 19.703282 
L 43.697942 20.176745 
L 44.32538 20.502842 
L 44.641454 20.445914 
L 45.599189 19.792611 
L 46.571362 19.074136 
L 47.890429 18.548737 
L 48.897143 18.304638 
L 51.305557 18.200077 
L 52.009262 18.257233 
L 53.437905 18.652676 
L 54.162986 18.729331 
L 54.528248 19.011642 
L 55.26426 20.066767 
L 55.635028 20.873882 
L 56.382135 23.237636 
L 56.758493 23.912206 
L 57.136732 23.663035 
L 58.282835 21.339872 
L 59.056487 20.666182 
L 59.837894 20.00679 
L 60.627135 19.304401 
L 62.229433 18.340148 
L 63.042649 18.200077 
L 64.277785 18.322928 
L 65.111536 18.697839 
L 65.53154 19.052675 
L 66.37786 20.215375 
L 66.804196 21.133872 
L 68.096038 25.143109 
L 68.530965 25.874803 
L 69.407354 26.835113 
L 69.848837 27.867586 
L 70.292528 29.625214 
L 71.186577 35.336007 
L 72.544484 44.077729 
L 73.001653 47.542044 
L 73.461108 49.984921 
L 73.922861 50.435841 
L 74.386922 48.981718 
L 75.793074 41.580077 
L 76.266486 40.359013 
L 76.742265 39.627261 
L 77.220424 38.150962 
L 78.669291 32.124024 
L 79.157084 30.554811 
L 79.647317 29.446855 
L 81.13277 27.444201 
L 83.148266 23.007342 
L 84.171194 21.536205 
L 85.204376 20.174344 
L 86.773602 18.77494 
L 87.832874 18.253231 
L 88.902765 18.200077 
L 89.983381 18.337072 
L 90.527745 18.481831 
L 91.07483 18.799547 
L 91.624651 19.408883 
L 92.177222 20.341642 
L 92.732555 21.556167 
L 94.981793 27.550709 
L 95.551148 28.274774 
L 96.123351 28.348525 
L 96.698415 27.731115 
L 97.276354 26.467491 
L 98.440915 23.199983 
L 99.027567 21.978461 
L 99.617152 21.467315 
L 100.209684 21.802173 
L 100.80518 23.022028 
L 101.403652 25.153068 
L 102.005118 28.428427 
L 102.60959 33.288473 
L 103.217085 40.167971 
L 103.827617 49.460369 
L 105.057855 72.981311 
L 105.677591 79.996261 
L 106.300426 79.335262 
L 107.555454 69.079616 
L 108.823064 57.060833 
L 110.103381 45.979621 
L 111.396533 33.2849 
L 112.047963 28.342783 
L 112.70265 24.686589 
L 113.36061 22.157918 
L 114.02186 20.536151 
L 114.686416 19.719735 
L 115.354295 19.553614 
L 116.025514 19.801495 
L 116.700088 20.234455 
L 117.378035 20.473345 
L 118.059372 20.202208 
L 120.123892 18.388344 
L 120.818958 18.200077 
L 121.5175 18.228804 
L 122.219535 18.398632 
L 123.634152 19.098874 
L 125.06295 19.978481 
L 126.506072 20.139545 
L 127.963662 20.953196 
L 128.697927 20.765393 
L 130.17749 19.277413 
L 130.922824 18.589206 
L 131.671885 18.200077 
L 133.181262 18.200077 
L 133.941615 18.553376 
L 134.70577 19.770604 
L 135.473746 21.649395 
L 136.245561 24.340497 
L 137.021236 27.851492 
L 138.58424 35.908225 
L 139.371608 39.27468 
L 140.162913 41.566093 
L 140.958175 42.559584 
L 141.757412 41.699694 
L 142.560646 39.015569 
L 143.367897 34.099737 
L 144.179183 26.901301 
L 144.994526 18.200077 
L 144.994526 18.200077 
" clip-path="url(#pefd8b50012)" style="fill: none; stroke-dasharray: 2.5,0.5,0.5,0.5; stroke-dashoffset: 0; stroke: #9467bd; stroke-width: 0.5"/>
   </g>
   <g id="line2d_83">
    <path d="M 39.476831 18.200077 
L 41.550547 18.481292 
L 42.156458 18.500988 
L 43.386562 19.102293 
L 44.641454 19.946103 
L 45.27835 20.406579 
L 45.599189 20.551507 
L 45.921632 20.546196 
L 46.571362 20.118083 
L 47.890429 19.155156 
L 48.897143 18.527608 
L 50.263076 18.263229 
L 51.305557 18.200077 
L 53.799541 18.304497 
L 54.528248 18.501664 
L 55.26426 18.940547 
L 55.635028 19.367411 
L 56.382135 20.717798 
L 57.136732 22.425556 
L 57.516863 22.988747 
L 57.898894 23.322456 
L 58.282835 23.495743 
L 59.056487 23.515353 
L 59.446216 23.397845 
L 61.424288 21.561444 
L 62.229433 20.605501 
L 63.042649 19.932953 
L 63.864018 19.594079 
L 64.69362 19.403879 
L 65.53154 19.494843 
L 66.37786 19.997244 
L 66.804196 20.461958 
L 67.663274 21.868152 
L 68.968066 24.775983 
L 70.292528 27.458125 
L 71.186577 28.989126 
L 71.636957 30.084338 
L 72.089589 31.83098 
L 73.001653 37.346209 
L 74.853303 51.116031 
L 75.322017 51.325373 
L 76.266486 48.196411 
L 76.742265 47.291353 
L 77.220424 46.909587 
L 77.700973 46.753007 
L 78.183924 45.767675 
L 79.157084 42.054755 
L 79.647317 41.092346 
L 80.635147 40.465652 
L 81.13277 39.581725 
L 81.632881 37.743065 
L 82.640616 33.196723 
L 83.658455 29.666821 
L 85.204376 25.240864 
L 86.247916 22.616072 
L 87.301917 20.488779 
L 88.366485 18.919238 
L 88.902765 18.430857 
L 89.441725 18.200077 
L 89.983381 18.200077 
L 90.527745 18.401062 
L 91.07483 19.154139 
L 91.624651 20.561582 
L 92.177222 22.590034 
L 93.851565 30.28607 
L 94.415269 31.832264 
L 94.981793 32.002406 
L 95.551148 31.10995 
L 96.123351 29.854894 
L 96.698415 28.299717 
L 98.440915 22.391588 
L 99.027567 21.093053 
L 99.617152 20.333961 
L 100.209684 20.238753 
L 100.80518 20.996504 
L 101.403652 22.824841 
L 102.005118 26.079669 
L 102.60959 31.012233 
L 103.827617 44.806537 
L 105.057855 61.513282 
L 106.300426 79.620617 
L 106.926375 86.113107 
L 107.555454 87.504842 
L 108.187678 84.037619 
L 109.461626 73.958994 
L 110.103381 67.365026 
L 112.047963 39.779003 
L 112.70265 33.850626 
L 113.36061 29.630271 
L 114.02186 26.700087 
L 114.686416 24.879986 
L 115.354295 23.792502 
L 116.025514 23.073664 
L 116.700088 22.934324 
L 117.378035 23.41848 
L 118.059372 24.335755 
L 122.219535 31.188794 
L 124.346769 33.022456 
L 125.06295 32.868476 
L 125.782712 30.961115 
L 126.506072 28.612159 
L 127.233049 27.103002 
L 127.963662 26.201008 
L 128.697927 24.616806 
L 130.17749 19.914812 
L 130.922824 18.622923 
L 131.671885 18.200077 
L 132.424691 18.200077 
L 133.181262 19.159548 
L 133.941615 21.35684 
L 134.70577 24.885402 
L 135.473746 29.946903 
L 137.800789 49.732858 
L 138.58424 53.641525 
L 139.371608 55.840499 
L 140.958175 58.231789 
L 141.757412 59.14198 
L 142.560646 58.854095 
L 143.367897 57.230154 
L 144.994526 52.522802 
L 145.813945 50.785112 
L 146.637462 49.645382 
L 149.972911 46.161759 
L 150.817222 45.637218 
L 151.665755 45.559678 
L 152.518531 46.453272 
L 153.375571 48.764814 
L 154.236895 52.497692 
L 155.102527 57.534311 
L 155.972486 64.415064 
L 156.846796 73.448205 
L 159.496041 104.814562 
L 160.387968 113.582 
L 161.284355 119.748276 
L 162.185223 123.758649 
L 163.090596 126.368425 
L 164.000496 128.175455 
L 164.914946 129.528257 
L 165.833967 130.511509 
L 166.757584 130.590956 
L 167.685819 129.229364 
L 168.618695 127.096455 
L 169.556235 124.373871 
L 170.498463 121.220867 
L 172.397077 116.22109 
L 173.353509 112.814067 
L 174.314723 108.291699 
L 175.280744 102.962137 
L 176.251594 96.576147 
L 177.227299 88.809773 
L 178.207883 79.548436 
L 179.193369 68.932418 
L 180.183783 57.01344 
L 181.179149 41.705249 
L 182.179491 18.200077 
L 182.179491 18.200077 
" clip-path="url(#pefd8b50012)" style="fill: none; stroke-dasharray: 2.5,0.5,0.5,0.5; stroke-dashoffset: 0; stroke: #9467bd; stroke-width: 0.5"/>
   </g>
   <g id="line2d_84">
    <path d="M 39.476831 18.200077 
L 40.356709 23.191969 
L 41.249851 26.75083 
L 41.852747 28.596998 
L 43.076731 31.416729 
L 43.697942 32.355848 
L 44.010878 32.629638 
L 45.27835 32.873817 
L 45.921632 32.72022 
L 46.571362 32.256639 
L 47.558191 31.133236 
L 48.559897 29.425714 
L 51.656532 23.779863 
L 53.437905 21.205428 
L 54.528248 19.946766 
L 56.00765 18.917375 
L 57.516863 18.606353 
L 60.627135 18.200077 
L 72.544484 18.200077 
L 73.922861 18.243599 
L 74.386922 18.503899 
L 74.853303 19.119762 
L 75.322017 20.279542 
L 75.793074 22.215917 
L 76.742265 26.811541 
L 77.220424 26.94933 
L 78.183924 22.850411 
L 78.669291 21.905818 
L 79.157084 21.56371 
L 79.647317 21.61725 
L 81.13277 22.089206 
L 81.632881 22.013056 
L 82.135492 21.742622 
L 85.204376 19.010129 
L 86.247916 18.513318 
L 87.832874 18.200077 
L 88.902765 18.330888 
L 89.441725 18.44672 
L 90.527745 18.353702 
L 92.177222 18.200077 
L 94.981793 18.266839 
L 97.276354 18.666419 
L 97.857182 19.016021 
L 98.440915 19.746887 
L 99.027567 20.989805 
L 99.617152 22.970535 
L 100.80518 28.348143 
L 101.403652 28.451781 
L 102.005118 26.576836 
L 103.217085 20.643342 
L 103.827617 18.86505 
L 104.441202 18.200077 
L 105.057855 18.212263 
L 106.926375 19.079851 
L 107.555454 19.098044 
L 110.748345 18.219803 
L 112.047963 18.200077 
L 112.70265 18.33041 
L 115.354295 19.483778 
L 117.378035 19.925038 
L 118.059372 20.364342 
L 119.432284 21.698311 
L 122.219535 24.896994 
L 122.925079 26.100118 
L 123.634152 27.666351 
L 126.506072 35.223282 
L 127.963662 40.402289 
L 128.697927 39.756212 
L 129.435863 35.330503 
L 130.17749 30.09422 
L 131.671885 21.735418 
L 132.424691 19.075276 
L 133.181262 18.200077 
L 133.941615 18.200077 
L 134.70577 19.610525 
L 135.473746 22.455461 
L 137.021236 30.29382 
L 137.800789 32.347909 
L 139.371608 33.030578 
L 140.162913 34.530892 
L 140.958175 35.684548 
L 141.757412 35.142655 
L 142.560646 34.752389 
L 143.367897 36.403532 
L 144.179183 39.149956 
L 144.994526 39.349069 
L 145.813945 37.839838 
L 146.637462 36.561952 
L 147.465096 36.262683 
L 148.296869 37.324604 
L 149.972911 41.593099 
L 150.817222 42.218794 
L 151.665755 40.240022 
L 152.518531 35.921131 
L 154.236895 26.035993 
L 155.102527 21.674524 
L 155.972486 18.389651 
L 156.846796 18.200077 
L 157.725477 20.312822 
L 158.608551 24.99024 
L 159.496041 31.941611 
L 162.185223 60.312781 
L 164.000496 74.23762 
L 165.833967 91.366259 
L 167.685819 105.723872 
L 168.618695 111.951461 
L 169.556235 116.630686 
L 170.498463 119.845524 
L 171.445403 121.931267 
L 172.397077 122.657699 
L 173.353509 121.047647 
L 174.314723 117.003132 
L 176.251594 105.25698 
L 177.227299 98.611338 
L 178.207883 90.411367 
L 179.193369 79.152452 
L 180.183783 63.903306 
L 181.179149 43.858878 
L 182.179491 18.200077 
L 182.179491 18.200077 
" clip-path="url(#pefd8b50012)" style="fill: none; stroke-dasharray: 2.5,0.5,0.5,0.5; stroke-dashoffset: 0; stroke: #9467bd; stroke-width: 0.5"/>
   </g>
   <g id="line2d_85">
    <path d="M 39.476831 18.200077 
L 41.852747 18.302313 
L 42.461687 18.635328 
L 44.641454 20.07454 
L 45.921632 20.523744 
L 47.890429 20.401512 
L 48.897143 20.008549 
L 52.009262 18.331636 
L 53.078068 18.200077 
L 55.26426 18.28903 
L 56.00765 18.823595 
L 56.758493 19.400209 
L 59.056487 20.72137 
L 61.424288 21.958546 
L 62.635027 22.350916 
L 63.452309 22.322072 
L 65.953645 22.125341 
L 66.804196 22.364823 
L 67.232664 22.672839 
L 67.663274 23.165473 
L 68.530965 24.748143 
L 70.292528 28.434839 
L 70.738438 29.795165 
L 71.186577 31.638872 
L 71.636957 34.030824 
L 72.544484 40.655889 
L 73.461108 47.888069 
L 74.386922 53.526052 
L 75.322017 57.70904 
L 76.266486 60.78803 
L 76.742265 61.893963 
L 77.700973 63.369545 
L 78.669291 64.890512 
L 79.647317 66.902381 
L 81.13277 70.314913 
L 81.632881 70.798357 
L 82.135492 70.650295 
L 83.148266 70.11247 
L 83.658455 70.099348 
L 85.204376 70.584102 
L 85.724845 70.55072 
L 86.247916 70.283006 
L 86.773602 69.779145 
L 88.902765 66.785197 
L 92.177222 63.456252 
L 93.290664 61.383578 
L 94.415269 58.701512 
L 99.027567 46.510127 
L 99.617152 45.620308 
L 100.209684 45.303798 
L 100.80518 45.731527 
L 101.403652 47.044786 
L 102.005118 49.531435 
L 102.60959 53.700409 
L 103.827617 66.294248 
L 105.057855 80.331777 
L 105.677591 85.925607 
L 106.300426 89.941372 
L 108.187678 98.862514 
L 108.823064 100.516869 
L 109.461626 100.78509 
L 110.748345 99.748295 
L 111.396533 99.791346 
L 112.047963 100.74419 
L 112.70265 102.537663 
L 114.02186 106.728657 
L 114.686416 107.930243 
L 115.354295 108.25244 
L 116.025514 108.029208 
L 116.700088 107.560741 
L 118.744116 105.77617 
L 119.432284 104.384151 
L 120.123892 100.889666 
L 120.818958 94.374431 
L 122.925079 69.395843 
L 123.634152 63.877195 
L 124.346769 59.989516 
L 125.782712 54.313435 
L 126.506072 51.70228 
L 127.233049 49.632141 
L 127.963662 48.662583 
L 128.697927 49.060494 
L 130.17749 51.564295 
L 130.922824 52.59136 
L 131.671885 54.02056 
L 132.424691 56.35907 
L 133.181262 59.757267 
L 133.941615 64.152683 
L 135.473746 75.517886 
L 136.245561 81.172324 
L 137.021236 83.216454 
L 137.800789 80.752567 
L 138.58424 77.518237 
L 139.371608 76.026549 
L 140.162913 76.110197 
L 140.958175 76.973523 
L 141.757412 78.345965 
L 143.367897 81.815331 
L 144.179183 83.124198 
L 144.994526 83.897998 
L 145.813945 84.216437 
L 146.637462 84.388443 
L 147.465096 84.70207 
L 148.296869 85.33545 
L 149.1328 86.303028 
L 150.817222 88.624863 
L 151.665755 89.581133 
L 152.518531 90.139989 
L 153.375571 90.375593 
L 154.236895 90.835494 
L 155.102527 92.135198 
L 155.972486 94.680024 
L 156.846796 98.693304 
L 157.725477 104.037894 
L 161.284355 129.079055 
L 162.185223 132.810101 
L 163.090596 135.280811 
L 164.000496 137.131342 
L 164.914946 138.580005 
L 165.833967 139.619343 
L 166.757584 140.282922 
L 167.685819 140.623252 
L 168.618695 140.62662 
L 169.556235 140.275454 
L 170.498463 139.532147 
L 171.445403 138.415979 
L 172.397077 136.888186 
L 173.353509 134.862818 
L 174.314723 132.272131 
L 175.280744 129.030714 
L 176.251594 124.971174 
L 177.227299 119.86315 
L 178.207883 113.056605 
L 179.193369 103.383539 
L 180.183783 88.883048 
L 181.179149 64.930886 
L 182.179491 18.200077 
L 182.179491 18.200077 
" clip-path="url(#pefd8b50012)" style="fill: none; stroke-dasharray: 2.5,0.5,0.5,0.5; stroke-dashoffset: 0; stroke: #9467bd; stroke-width: 0.5"/>
   </g>
   <g id="line2d_86">
    <path d="M 39.476831 18.200077 
L 40.950651 18.444041 
L 41.852747 18.774108 
L 42.768442 19.292455 
L 43.386562 20.037854 
L 44.32538 21.246377 
L 44.641454 21.51233 
L 44.959108 21.585239 
L 45.599189 21.440608 
L 46.245687 21.190738 
L 47.227606 20.389485 
L 49.236076 18.694866 
L 50.263076 18.287149 
L 51.305557 18.200077 
L 53.799541 18.292952 
L 54.528248 18.590468 
L 54.895336 18.864991 
L 55.26426 19.309156 
L 56.00765 20.786948 
L 57.136732 23.169515 
L 57.516863 23.551999 
L 58.282835 23.777893 
L 59.056487 23.762541 
L 61.024718 23.199507 
L 62.635027 22.295167 
L 63.864018 21.662501 
L 64.69362 21.358019 
L 65.53154 21.233659 
L 66.37786 21.319879 
L 67.663274 21.779706 
L 68.968066 22.508666 
L 69.848837 23.194491 
L 70.292528 23.697813 
L 70.738438 24.398522 
L 71.186577 25.374336 
L 71.636957 26.732076 
L 72.544484 30.596622 
L 73.461108 34.631249 
L 73.922861 35.996977 
L 74.386922 36.705651 
L 74.853303 36.754953 
L 75.322017 36.361555 
L 76.266486 35.063762 
L 77.220424 33.313809 
L 79.647317 28.117509 
L 80.635147 26.557983 
L 82.135492 24.678618 
L 83.658455 23.128405 
L 85.724845 21.332811 
L 87.301917 20.162106 
L 88.366485 19.506956 
L 89.441725 19.076029 
L 90.527745 18.923002 
L 92.732555 18.931329 
L 94.415269 18.756839 
L 96.698415 18.288285 
L 98.440915 18.200077 
L 99.027567 18.256986 
L 99.617152 18.433022 
L 100.209684 18.806249 
L 100.80518 19.487095 
L 101.403652 20.636463 
L 102.005118 22.46608 
L 102.60959 25.255115 
L 103.217085 29.279839 
L 103.827617 34.760664 
L 105.677591 55.725608 
L 106.300426 59.664261 
L 106.926375 60.862907 
L 107.555454 59.925666 
L 108.187678 57.835841 
L 109.461626 52.421789 
L 111.396533 43.660515 
L 112.70265 38.726312 
L 114.02186 34.74333 
L 115.354295 31.432308 
L 116.700088 28.579002 
L 118.059372 26.129157 
L 119.432284 24.030023 
L 121.5175 21.35594 
L 122.925079 19.790254 
L 124.346769 18.637709 
L 125.06295 18.309237 
L 126.506072 18.200077 
L 128.697927 18.200077 
L 129.435863 18.576997 
L 130.17749 19.40007 
L 130.922824 20.762684 
L 131.671885 22.781113 
L 132.424691 25.523581 
L 133.941615 32.69043 
L 135.473746 39.794317 
L 136.245561 42.495715 
L 137.021236 44.316541 
L 137.800789 45.169374 
L 138.58424 45.178105 
L 139.371608 44.613954 
L 141.757412 42.320691 
L 142.560646 41.853771 
L 144.994526 40.898879 
L 145.813945 40.255827 
L 146.637462 39.299852 
L 149.1328 35.793536 
L 149.972911 35.099557 
L 150.817222 35.115997 
L 151.665755 36.132557 
L 152.518531 38.418229 
L 153.375571 42.233832 
L 154.236895 47.857124 
L 155.102527 55.633197 
L 155.972486 65.736717 
L 157.725477 91.07875 
L 159.496041 117.129923 
L 160.387968 126.419243 
L 161.284355 132.519005 
L 162.185223 136.191147 
L 163.090596 138.342725 
L 164.000496 139.516175 
L 164.914946 140.058363 
L 165.833967 140.168894 
L 166.757584 139.894349 
L 167.685819 139.312996 
L 168.618695 138.424043 
L 169.556235 137.180351 
L 170.498463 135.429366 
L 171.445403 133.185531 
L 172.397077 130.488414 
L 173.353509 127.097926 
L 174.314723 122.90763 
L 175.280744 117.866658 
L 176.251594 111.738607 
L 177.227299 104.238755 
L 178.207883 95.24592 
L 179.193369 83.975525 
L 180.183783 69.314372 
L 181.179149 48.679615 
L 182.179491 18.200077 
L 182.179491 18.200077 
" clip-path="url(#pefd8b50012)" style="fill: none; stroke-dasharray: 2.5,0.5,0.5,0.5; stroke-dashoffset: 0; stroke: #9467bd; stroke-width: 0.5"/>
   </g>
   <g id="line2d_87"/>
   <g id="line2d_88"/>
   <g id="line2d_89"/>
   <g id="line2d_90"/>
   <g id="line2d_91"/>
   <g id="patch_3">
    <path d="M 35.58575 146.747947 
L 35.58575 12.07875 
" style="fill: none; stroke: #000000; stroke-linejoin: miter; stroke-linecap: square"/>
   </g>
   <g id="patch_4">
    <path d="M 189.283451 146.747947 
L 189.283451 12.07875 
" style="fill: none; stroke: #000000; stroke-linejoin: miter; stroke-linecap: square"/>
   </g>
   <g id="patch_5">
    <path d="M 35.58575 146.747947 
L 189.283451 146.747947 
" style="fill: none; stroke: #000000; stroke-linejoin: miter; stroke-linecap: square"/>
   </g>
   <g id="patch_6">
    <path d="M 35.58575 12.07875 
L 189.283451 12.07875 
" style="fill: none; stroke: #000000; stroke-linejoin: miter; stroke-linecap: square"/>
   </g>
   <g id="text_13">
    <text style="font: 8px 'DejaVu Sans', 'Bitstream Vera Sans', 'Computer Modern Sans Serif', 'Lucida Grande', 'Verdana', 'Geneva', 'Lucid', 'Arial', 'Helvetica', 'Avant Garde', sans-serif; text-anchor: middle" x="112.4346" y="6.07875" transform="rotate(-0 112.4346 6.07875)">Laboratory All Entries</text>
   </g>
   <g id="legend_1">
    <g id="patch_7">
     <path d="M 196.557405 109.049223 
L 271.002405 109.049223 
Q 272.202405 109.049223 272.202405 107.849223 
L 272.202405 50.977473 
Q 272.202405 49.777473 271.002405 49.777473 
L 196.557405 49.777473 
Q 195.357405 49.777473 195.357405 50.977473 
L 195.357405 107.849223 
Q 195.357405 109.049223 196.557405 109.049223 
z
" style="fill: #ffffff; opacity: 0.8; stroke: #cccccc; stroke-width: 0.8; stroke-linejoin: miter"/>
    </g>
    <g id="line2d_92">
     <path d="M 197.757405 54.636536 
L 203.757405 54.636536 
L 209.757405 54.636536 
" style="fill: none; stroke: #1f77b4; stroke-width: 1.2; stroke-linecap: square"/>
    </g>
    <g id="text_14">
     <text style="font: 6px 'DejaVu Sans', 'Bitstream Vera Sans', 'Computer Modern Sans Serif', 'Lucida Grande', 'Verdana', 'Geneva', 'Lucid', 'Arial', 'Helvetica', 'Avant Garde', sans-serif; text-anchor: start" x="214.557405" y="56.736536" transform="rotate(-0 214.557405 56.736536)">carbonates</text>
    </g>
    <g id="line2d_93">
     <path d="M 197.757405 67.426661 
L 203.757405 67.426661 
L 209.757405 67.426661 
" style="fill: none; stroke-dasharray: 4.8,1.8; stroke-dashoffset: 0; stroke: #ff7f0e; stroke-width: 1.2"/>
    </g>
    <g id="text_15">
     <text style="font: 6px 'DejaVu Sans', 'Bitstream Vera Sans', 'Computer Modern Sans Serif', 'Lucida Grande', 'Verdana', 'Geneva', 'Lucid', 'Arial', 'Helvetica', 'Avant Garde', sans-serif" transform="translate(214.557405 65.543411)">hydrated silicates </text>
     <text style="font: 6px 'DejaVu Sans', 'Bitstream Vera Sans', 'Computer Modern Sans Serif', 'Lucida Grande', 'Verdana', 'Geneva', 'Lucid', 'Arial', 'Helvetica', 'Avant Garde', sans-serif" transform="translate(214.557405 72.262098)"> &amp; halides</text>
    </g>
    <g id="line2d_94">
     <path d="M 197.757405 82.952223 
L 203.757405 82.952223 
L 209.757405 82.952223 
" style="fill: none; stroke-dasharray: 1.2,1.2; stroke-dashoffset: 0; stroke: #2ca02c; stroke-width: 1.2"/>
    </g>
    <g id="text_16">
     <text style="font: 6px 'DejaVu Sans', 'Bitstream Vera Sans', 'Computer Modern Sans Serif', 'Lucida Grande', 'Verdana', 'Geneva', 'Lucid', 'Arial', 'Helvetica', 'Avant Garde', sans-serif" transform="translate(214.557405 81.068973)">iron oxides &amp; </text>
     <text style="font: 6px 'DejaVu Sans', 'Bitstream Vera Sans', 'Computer Modern Sans Serif', 'Lucida Grande', 'Verdana', 'Geneva', 'Lucid', 'Arial', 'Helvetica', 'Avant Garde', sans-serif" transform="translate(214.557405 87.787661)"> primary silicates</text>
    </g>
    <g id="line2d_95">
     <path d="M 197.757405 94.494536 
L 203.757405 94.494536 
L 209.757405 94.494536 
" style="fill: none; stroke-dasharray: 3.6,1.5,1.8,1.5; stroke-dashoffset: 0; stroke: #d62728; stroke-width: 1.2"/>
    </g>
    <g id="text_17">
     <text style="font: 6px 'DejaVu Sans', 'Bitstream Vera Sans', 'Computer Modern Sans Serif', 'Lucida Grande', 'Verdana', 'Geneva', 'Lucid', 'Arial', 'Helvetica', 'Avant Garde', sans-serif; text-anchor: start" x="214.557405" y="96.594536" transform="rotate(-0 214.557405 96.594536)">phyllosilicate</text>
    </g>
    <g id="line2d_96">
     <path d="M 197.757405 103.301411 
L 203.757405 103.301411 
L 209.757405 103.301411 
" style="fill: none; stroke-dasharray: 6,1.2,1.2,1.2; stroke-dashoffset: 0; stroke: #9467bd; stroke-width: 1.2"/>
    </g>
    <g id="text_18">
     <text style="font: 6px 'DejaVu Sans', 'Bitstream Vera Sans', 'Computer Modern Sans Serif', 'Lucida Grande', 'Verdana', 'Geneva', 'Lucid', 'Arial', 'Helvetica', 'Avant Garde', sans-serif; text-anchor: start" x="214.557405" y="105.401411" transform="rotate(-0 214.557405 105.401411)">sulfates</text>
    </g>
   </g>
  </g>
 </g>
 <defs>
  <clipPath id="pefd8b50012">
   <rect x="35.58575" y="12.07875" width="153.697701" height="134.669197"/>
  </clipPath>
 </defs>
</svg>
