<?xml version="1.0" encoding="utf-8" standalone="no"?>
<!DOCTYPE svg PUBLIC "-//W3C//DTD SVG 1.1//EN"
  "http://www.w3.org/Graphics/SVG/1.1/DTD/svg11.dtd">
<svg xmlns:xlink="http://www.w3.org/1999/xlink" width="272.320605pt" height="176.855697pt" viewBox="0 0 272.320605 176.855697" xmlns="http://www.w3.org/2000/svg" version="1.1">
 <metadata>
  <rdf:RDF xmlns:dc="http://purl.org/dc/elements/1.1/" xmlns:cc="http://creativecommons.org/ns#" xmlns:rdf="http://www.w3.org/1999/02/22-rdf-syntax-ns#">
   <cc:Work>
    <dc:type rdf:resource="http://purl.org/dc/dcmitype/StillImage"/>
    <dc:date>2025-02-12T17:08:01.387688</dc:date>
    <dc:format>image/svg+xml</dc:format>
    <dc:creator>
     <cc:Agent>
      <dc:title>Matplotlib v3.6.2, https://matplotlib.org/</dc:title>
     </cc:Agent>
    </dc:creator>
   </cc:Work>
  </rdf:RDF>
 </metadata>
 <defs>
  <style type="text/css">*{stroke-linejoin: round; stroke-linecap: butt}</style>
 </defs>
 <g id="figure_1">
  <g id="patch_1">
   <path d="M -0 176.855697 
L 272.320605 176.855697 
L 272.320605 0 
L -0 0 
z
" style="fill: #ffffff"/>
  </g>
  <g id="axes_1">
   <g id="patch_2">
    <path d="M 35.58575 146.747947 
L 192.943451 146.747947 
L 192.943451 12.07875 
L 35.58575 12.07875 
z
" style="fill: #ffffff"/>
   </g>
   <g id="matplotlib.axis_1">
    <g id="xtick_1">
     <g id="line2d_1">
      <path d="M 46.209055 146.747947 
L 46.209055 12.07875 
" clip-path="url(#p3353ba7e5f)" style="fill: none; stroke: #b0b0b0; stroke-width: 0.6; stroke-linecap: square"/>
     </g>
     <g id="line2d_2">
      <defs>
       <path id="m01282f4916" d="M 0 0 
L 0 4.8 
" style="stroke: #000000"/>
      </defs>
      <g>
       <use xlink:href="#m01282f4916" x="46.209055" y="146.747947" style="stroke: #000000"/>
      </g>
     </g>
     <g id="text_1">
      <text style="font: 8.8px 'DejaVu Sans', 'Bitstream Vera Sans', 'Computer Modern Sans Serif', 'Lucida Grande', 'Verdana', 'Geneva', 'Lucid', 'Arial', 'Helvetica', 'Avant Garde', sans-serif; text-anchor: middle" x="46.209055" y="161.734572" transform="rotate(-0 46.209055 161.734572)">1000</text>
     </g>
    </g>
    <g id="xtick_2">
     <g id="line2d_3">
      <path d="M 79.406882 146.747947 
L 79.406882 12.07875 
" clip-path="url(#p3353ba7e5f)" style="fill: none; stroke: #b0b0b0; stroke-width: 0.6; stroke-linecap: square"/>
     </g>
     <g id="line2d_4">
      <g>
       <use xlink:href="#m01282f4916" x="79.406882" y="146.747947" style="stroke: #000000"/>
      </g>
     </g>
     <g id="text_2">
      <text style="font: 8.8px 'DejaVu Sans', 'Bitstream Vera Sans', 'Computer Modern Sans Serif', 'Lucida Grande', 'Verdana', 'Geneva', 'Lucid', 'Arial', 'Helvetica', 'Avant Garde', sans-serif; text-anchor: middle" x="79.406882" y="161.734572" transform="rotate(-0 79.406882 161.734572)">1500</text>
     </g>
    </g>
    <g id="xtick_3">
     <g id="line2d_5">
      <path d="M 112.604709 146.747947 
L 112.604709 12.07875 
" clip-path="url(#p3353ba7e5f)" style="fill: none; stroke: #b0b0b0; stroke-width: 0.6; stroke-linecap: square"/>
     </g>
     <g id="line2d_6">
      <g>
       <use xlink:href="#m01282f4916" x="112.604709" y="146.747947" style="stroke: #000000"/>
      </g>
     </g>
     <g id="text_3">
      <text style="font: 8.8px 'DejaVu Sans', 'Bitstream Vera Sans', 'Computer Modern Sans Serif', 'Lucida Grande', 'Verdana', 'Geneva', 'Lucid', 'Arial', 'Helvetica', 'Avant Garde', sans-serif; text-anchor: middle" x="112.604709" y="161.734572" transform="rotate(-0 112.604709 161.734572)">2000</text>
     </g>
    </g>
    <g id="xtick_4">
     <g id="line2d_7">
      <path d="M 145.802536 146.747947 
L 145.802536 12.07875 
" clip-path="url(#p3353ba7e5f)" style="fill: none; stroke: #b0b0b0; stroke-width: 0.6; stroke-linecap: square"/>
     </g>
     <g id="line2d_8">
      <g>
       <use xlink:href="#m01282f4916" x="145.802536" y="146.747947" style="stroke: #000000"/>
      </g>
     </g>
     <g id="text_4">
      <text style="font: 8.8px 'DejaVu Sans', 'Bitstream Vera Sans', 'Computer Modern Sans Serif', 'Lucida Grande', 'Verdana', 'Geneva', 'Lucid', 'Arial', 'Helvetica', 'Avant Garde', sans-serif; text-anchor: middle" x="145.802536" y="161.734572" transform="rotate(-0 145.802536 161.734572)">2500</text>
     </g>
    </g>
    <g id="xtick_5">
     <g id="line2d_9">
      <path d="M 179.000363 146.747947 
L 179.000363 12.07875 
" clip-path="url(#p3353ba7e5f)" style="fill: none; stroke: #b0b0b0; stroke-width: 0.6; stroke-linecap: square"/>
     </g>
     <g id="line2d_10">
      <g>
       <use xlink:href="#m01282f4916" x="179.000363" y="146.747947" style="stroke: #000000"/>
      </g>
     </g>
     <g id="text_5">
      <text style="font: 8.8px 'DejaVu Sans', 'Bitstream Vera Sans', 'Computer Modern Sans Serif', 'Lucida Grande', 'Verdana', 'Geneva', 'Lucid', 'Arial', 'Helvetica', 'Avant Garde', sans-serif; text-anchor: middle" x="179.000363" y="161.734572" transform="rotate(-0 179.000363 161.734572)">3000</text>
     </g>
    </g>
    <g id="xtick_6">
     <g id="line2d_11">
      <path d="M 39.569489 146.747947 
L 39.569489 12.07875 
" clip-path="url(#p3353ba7e5f)" style="fill: none; stroke: #b0b0b0; stroke-width: 0.3; stroke-linecap: square"/>
     </g>
     <g id="line2d_12">
      <defs>
       <path id="m8dbfb01299" d="M 0 0 
L 0 3.2 
" style="stroke: #000000; stroke-width: 0.8"/>
      </defs>
      <g>
       <use xlink:href="#m8dbfb01299" x="39.569489" y="146.747947" style="stroke: #000000; stroke-width: 0.8"/>
      </g>
     </g>
    </g>
    <g id="xtick_7">
     <g id="line2d_13">
      <path d="M 52.84862 146.747947 
L 52.84862 12.07875 
" clip-path="url(#p3353ba7e5f)" style="fill: none; stroke: #b0b0b0; stroke-width: 0.3; stroke-linecap: square"/>
     </g>
     <g id="line2d_14">
      <g>
       <use xlink:href="#m8dbfb01299" x="52.84862" y="146.747947" style="stroke: #000000; stroke-width: 0.8"/>
      </g>
     </g>
    </g>
    <g id="xtick_8">
     <g id="line2d_15">
      <path d="M 59.488186 146.747947 
L 59.488186 12.07875 
" clip-path="url(#p3353ba7e5f)" style="fill: none; stroke: #b0b0b0; stroke-width: 0.3; stroke-linecap: square"/>
     </g>
     <g id="line2d_16">
      <g>
       <use xlink:href="#m8dbfb01299" x="59.488186" y="146.747947" style="stroke: #000000; stroke-width: 0.8"/>
      </g>
     </g>
    </g>
    <g id="xtick_9">
     <g id="line2d_17">
      <path d="M 66.127751 146.747947 
L 66.127751 12.07875 
" clip-path="url(#p3353ba7e5f)" style="fill: none; stroke: #b0b0b0; stroke-width: 0.3; stroke-linecap: square"/>
     </g>
     <g id="line2d_18">
      <g>
       <use xlink:href="#m8dbfb01299" x="66.127751" y="146.747947" style="stroke: #000000; stroke-width: 0.8"/>
      </g>
     </g>
    </g>
    <g id="xtick_10">
     <g id="line2d_19">
      <path d="M 72.767316 146.747947 
L 72.767316 12.07875 
" clip-path="url(#p3353ba7e5f)" style="fill: none; stroke: #b0b0b0; stroke-width: 0.3; stroke-linecap: square"/>
     </g>
     <g id="line2d_20">
      <g>
       <use xlink:href="#m8dbfb01299" x="72.767316" y="146.747947" style="stroke: #000000; stroke-width: 0.8"/>
      </g>
     </g>
    </g>
    <g id="xtick_11">
     <g id="line2d_21">
      <path d="M 86.046447 146.747947 
L 86.046447 12.07875 
" clip-path="url(#p3353ba7e5f)" style="fill: none; stroke: #b0b0b0; stroke-width: 0.3; stroke-linecap: square"/>
     </g>
     <g id="line2d_22">
      <g>
       <use xlink:href="#m8dbfb01299" x="86.046447" y="146.747947" style="stroke: #000000; stroke-width: 0.8"/>
      </g>
     </g>
    </g>
    <g id="xtick_12">
     <g id="line2d_23">
      <path d="M 92.686013 146.747947 
L 92.686013 12.07875 
" clip-path="url(#p3353ba7e5f)" style="fill: none; stroke: #b0b0b0; stroke-width: 0.3; stroke-linecap: square"/>
     </g>
     <g id="line2d_24">
      <g>
       <use xlink:href="#m8dbfb01299" x="92.686013" y="146.747947" style="stroke: #000000; stroke-width: 0.8"/>
      </g>
     </g>
    </g>
    <g id="xtick_13">
     <g id="line2d_25">
      <path d="M 99.325578 146.747947 
L 99.325578 12.07875 
" clip-path="url(#p3353ba7e5f)" style="fill: none; stroke: #b0b0b0; stroke-width: 0.3; stroke-linecap: square"/>
     </g>
     <g id="line2d_26">
      <g>
       <use xlink:href="#m8dbfb01299" x="99.325578" y="146.747947" style="stroke: #000000; stroke-width: 0.8"/>
      </g>
     </g>
    </g>
    <g id="xtick_14">
     <g id="line2d_27">
      <path d="M 105.965144 146.747947 
L 105.965144 12.07875 
" clip-path="url(#p3353ba7e5f)" style="fill: none; stroke: #b0b0b0; stroke-width: 0.3; stroke-linecap: square"/>
     </g>
     <g id="line2d_28">
      <g>
       <use xlink:href="#m8dbfb01299" x="105.965144" y="146.747947" style="stroke: #000000; stroke-width: 0.8"/>
      </g>
     </g>
    </g>
    <g id="xtick_15">
     <g id="line2d_29">
      <path d="M 119.244274 146.747947 
L 119.244274 12.07875 
" clip-path="url(#p3353ba7e5f)" style="fill: none; stroke: #b0b0b0; stroke-width: 0.3; stroke-linecap: square"/>
     </g>
     <g id="line2d_30">
      <g>
       <use xlink:href="#m8dbfb01299" x="119.244274" y="146.747947" style="stroke: #000000; stroke-width: 0.8"/>
      </g>
     </g>
    </g>
    <g id="xtick_16">
     <g id="line2d_31">
      <path d="M 125.88384 146.747947 
L 125.88384 12.07875 
" clip-path="url(#p3353ba7e5f)" style="fill: none; stroke: #b0b0b0; stroke-width: 0.3; stroke-linecap: square"/>
     </g>
     <g id="line2d_32">
      <g>
       <use xlink:href="#m8dbfb01299" x="125.88384" y="146.747947" style="stroke: #000000; stroke-width: 0.8"/>
      </g>
     </g>
    </g>
    <g id="xtick_17">
     <g id="line2d_33">
      <path d="M 132.523405 146.747947 
L 132.523405 12.07875 
" clip-path="url(#p3353ba7e5f)" style="fill: none; stroke: #b0b0b0; stroke-width: 0.3; stroke-linecap: square"/>
     </g>
     <g id="line2d_34">
      <g>
       <use xlink:href="#m8dbfb01299" x="132.523405" y="146.747947" style="stroke: #000000; stroke-width: 0.8"/>
      </g>
     </g>
    </g>
    <g id="xtick_18">
     <g id="line2d_35">
      <path d="M 139.162971 146.747947 
L 139.162971 12.07875 
" clip-path="url(#p3353ba7e5f)" style="fill: none; stroke: #b0b0b0; stroke-width: 0.3; stroke-linecap: square"/>
     </g>
     <g id="line2d_36">
      <g>
       <use xlink:href="#m8dbfb01299" x="139.162971" y="146.747947" style="stroke: #000000; stroke-width: 0.8"/>
      </g>
     </g>
    </g>
    <g id="xtick_19">
     <g id="line2d_37">
      <path d="M 152.442102 146.747947 
L 152.442102 12.07875 
" clip-path="url(#p3353ba7e5f)" style="fill: none; stroke: #b0b0b0; stroke-width: 0.3; stroke-linecap: square"/>
     </g>
     <g id="line2d_38">
      <g>
       <use xlink:href="#m8dbfb01299" x="152.442102" y="146.747947" style="stroke: #000000; stroke-width: 0.8"/>
      </g>
     </g>
    </g>
    <g id="xtick_20">
     <g id="line2d_39">
      <path d="M 159.081667 146.747947 
L 159.081667 12.07875 
" clip-path="url(#p3353ba7e5f)" style="fill: none; stroke: #b0b0b0; stroke-width: 0.3; stroke-linecap: square"/>
     </g>
     <g id="line2d_40">
      <g>
       <use xlink:href="#m8dbfb01299" x="159.081667" y="146.747947" style="stroke: #000000; stroke-width: 0.8"/>
      </g>
     </g>
    </g>
    <g id="xtick_21">
     <g id="line2d_41">
      <path d="M 165.721233 146.747947 
L 165.721233 12.07875 
" clip-path="url(#p3353ba7e5f)" style="fill: none; stroke: #b0b0b0; stroke-width: 0.3; stroke-linecap: square"/>
     </g>
     <g id="line2d_42">
      <g>
       <use xlink:href="#m8dbfb01299" x="165.721233" y="146.747947" style="stroke: #000000; stroke-width: 0.8"/>
      </g>
     </g>
    </g>
    <g id="xtick_22">
     <g id="line2d_43">
      <path d="M 172.360798 146.747947 
L 172.360798 12.07875 
" clip-path="url(#p3353ba7e5f)" style="fill: none; stroke: #b0b0b0; stroke-width: 0.3; stroke-linecap: square"/>
     </g>
     <g id="line2d_44">
      <g>
       <use xlink:href="#m8dbfb01299" x="172.360798" y="146.747947" style="stroke: #000000; stroke-width: 0.8"/>
      </g>
     </g>
    </g>
    <g id="xtick_23">
     <g id="line2d_45">
      <path d="M 185.639929 146.747947 
L 185.639929 12.07875 
" clip-path="url(#p3353ba7e5f)" style="fill: none; stroke: #b0b0b0; stroke-width: 0.3; stroke-linecap: square"/>
     </g>
     <g id="line2d_46">
      <g>
       <use xlink:href="#m8dbfb01299" x="185.639929" y="146.747947" style="stroke: #000000; stroke-width: 0.8"/>
      </g>
     </g>
    </g>
    <g id="xtick_24">
     <g id="line2d_47">
      <path d="M 192.279494 146.747947 
L 192.279494 12.07875 
" clip-path="url(#p3353ba7e5f)" style="fill: none; stroke: #b0b0b0; stroke-width: 0.3; stroke-linecap: square"/>
     </g>
     <g id="line2d_48">
      <g>
       <use xlink:href="#m8dbfb01299" x="192.279494" y="146.747947" style="stroke: #000000; stroke-width: 0.8"/>
      </g>
     </g>
    </g>
    <g id="text_6">
     <text style="font: 9.6px 'DejaVu Sans', 'Bitstream Vera Sans', 'Computer Modern Sans Serif', 'Lucida Grande', 'Verdana', 'Geneva', 'Lucid', 'Arial', 'Helvetica', 'Avant Garde', sans-serif; text-anchor: middle" x="114.2646" y="174.859197" transform="rotate(-0 114.2646 174.859197)">Wavelength (nm)</text>
    </g>
   </g>
   <g id="matplotlib.axis_2">
    <g id="ytick_1">
     <g id="line2d_49">
      <path d="M 35.58575 125.485879 
L 192.943451 125.485879 
" clip-path="url(#p3353ba7e5f)" style="fill: none; stroke: #b0b0b0; stroke-width: 0.6; stroke-linecap: square"/>
     </g>
     <g id="line2d_50">
      <defs>
       <path id="m0a67baae6d" d="M 0 0 
L -4.8 0 
" style="stroke: #000000"/>
      </defs>
      <g>
       <use xlink:href="#m0a67baae6d" x="35.58575" y="125.485879" style="stroke: #000000"/>
      </g>
     </g>
     <g id="text_7">
      <text style="font: 8.8px 'DejaVu Sans', 'Bitstream Vera Sans', 'Computer Modern Sans Serif', 'Lucida Grande', 'Verdana', 'Geneva', 'Lucid', 'Arial', 'Helvetica', 'Avant Garde', sans-serif; text-anchor: end" x="27.28575" y="128.829191" transform="rotate(-0 27.28575 128.829191)">0.4</text>
     </g>
    </g>
    <g id="ytick_2">
     <g id="line2d_51">
      <path d="M 35.58575 89.723945 
L 192.943451 89.723945 
" clip-path="url(#p3353ba7e5f)" style="fill: none; stroke: #b0b0b0; stroke-width: 0.6; stroke-linecap: square"/>
     </g>
     <g id="line2d_52">
      <g>
       <use xlink:href="#m0a67baae6d" x="35.58575" y="89.723945" style="stroke: #000000"/>
      </g>
     </g>
     <g id="text_8">
      <text style="font: 8.8px 'DejaVu Sans', 'Bitstream Vera Sans', 'Computer Modern Sans Serif', 'Lucida Grande', 'Verdana', 'Geneva', 'Lucid', 'Arial', 'Helvetica', 'Avant Garde', sans-serif; text-anchor: end" x="27.28575" y="93.067257" transform="rotate(-0 27.28575 93.067257)">0.6</text>
     </g>
    </g>
    <g id="ytick_3">
     <g id="line2d_53">
      <path d="M 35.58575 53.962011 
L 192.943451 53.962011 
" clip-path="url(#p3353ba7e5f)" style="fill: none; stroke: #b0b0b0; stroke-width: 0.6; stroke-linecap: square"/>
     </g>
     <g id="line2d_54">
      <g>
       <use xlink:href="#m0a67baae6d" x="35.58575" y="53.962011" style="stroke: #000000"/>
      </g>
     </g>
     <g id="text_9">
      <text style="font: 8.8px 'DejaVu Sans', 'Bitstream Vera Sans', 'Computer Modern Sans Serif', 'Lucida Grande', 'Verdana', 'Geneva', 'Lucid', 'Arial', 'Helvetica', 'Avant Garde', sans-serif; text-anchor: end" x="27.28575" y="57.305324" transform="rotate(-0 27.28575 57.305324)">0.8</text>
     </g>
    </g>
    <g id="ytick_4">
     <g id="line2d_55">
      <path d="M 35.58575 18.200077 
L 192.943451 18.200077 
" clip-path="url(#p3353ba7e5f)" style="fill: none; stroke: #b0b0b0; stroke-width: 0.6; stroke-linecap: square"/>
     </g>
     <g id="line2d_56">
      <g>
       <use xlink:href="#m0a67baae6d" x="35.58575" y="18.200077" style="stroke: #000000"/>
      </g>
     </g>
     <g id="text_10">
      <text style="font: 8.8px 'DejaVu Sans', 'Bitstream Vera Sans', 'Computer Modern Sans Serif', 'Lucida Grande', 'Verdana', 'Geneva', 'Lucid', 'Arial', 'Helvetica', 'Avant Garde', sans-serif; text-anchor: end" x="27.28575" y="21.54339" transform="rotate(-0 27.28575 21.54339)">1.0</text>
     </g>
    </g>
    <g id="text_11">
     <text style="font: 9.6px 'DejaVu Sans', 'Bitstream Vera Sans', 'Computer Modern Sans Serif', 'Lucida Grande', 'Verdana', 'Geneva', 'Lucid', 'Arial', 'Helvetica', 'Avant Garde', sans-serif; text-anchor: middle" x="7.2945" y="79.413348" transform="rotate(-90 7.2945 79.413348)">Reflectance</text>
    </g>
   </g>
   <g id="line2d_57">
    <path d="M 39.569489 18.200077 
L 40.168544 18.556128 
L 40.773604 18.651007 
L 42.001983 19.502648 
L 42.312926 20.034755 
L 42.625424 20.816868 
L 42.939484 21.120948 
L 43.255114 20.942616 
L 43.891117 21.026071 
L 45.50916 20.262661 
L 46.832962 19.627685 
L 47.504833 19.251834 
L 48.18344 19.040685 
L 48.86885 18.797462 
L 50.966582 18.306372 
L 52.039225 18.219649 
L 53.494612 18.230812 
L 54.605365 18.680141 
L 54.979325 19.11978 
L 55.732864 20.708826 
L 56.112461 21.644618 
L 56.493956 22.147418 
L 56.877359 22.033966 
L 58.430236 20.138113 
L 59.615395 19.375694 
L 62.039581 18.344958 
L 63.69648 18.206279 
L 64.537407 18.492688 
L 65.386766 18.538073 
L 66.676795 19.567327 
L 67.111112 20.290607 
L 67.986271 22.513292 
L 69.315488 26.487619 
L 70.212747 30.157404 
L 70.664743 32.929908 
L 71.119 37.670697 
L 72.034339 56.199302 
L 72.495444 59.540059 
L 72.958854 59.912334 
L 73.424581 61.414357 
L 73.892637 61.682172 
L 74.363033 60.042658 
L 75.788381 52.648063 
L 76.75053 49.753257 
L 77.235215 48.13536 
L 79.695238 36.384822 
L 80.696554 32.993354 
L 82.21738 28.683851 
L 83.761133 25.225997 
L 85.328158 22.635051 
L 86.385943 21.235056 
L 88.533433 19.101317 
L 89.077034 18.672662 
L 89.623352 18.414735 
L 90.724196 18.202996 
L 92.959105 18.205245 
L 93.524833 18.390321 
L 94.09339 18.729462 
L 94.66479 19.212685 
L 95.816175 20.557926 
L 98.745391 24.213404 
L 100.538305 26.242276 
L 101.14193 27.213195 
L 101.748573 28.669566 
L 102.358248 30.846049 
L 102.970973 34.533512 
L 103.586761 40.646737 
L 104.205627 50.045974 
L 104.827588 63.539044 
L 105.452659 79.593772 
L 106.080856 92.030329 
L 106.712193 95.94557 
L 107.346687 93.093633 
L 108.625208 83.103981 
L 111.220831 66.825356 
L 113.868756 47.593435 
L 115.212661 40.037999 
L 115.889657 37.108325 
L 117.253822 32.666774 
L 118.631662 29.732292 
L 122.136997 22.834628 
L 122.848615 21.712423 
L 125.004889 19.107331 
L 125.730846 18.505935 
L 126.460433 18.200077 
L 127.93057 18.200077 
L 128.671156 18.389877 
L 129.415445 19.382859 
L 130.163455 22.411931 
L 130.915205 28.734103 
L 131.670714 38.140246 
L 132.430001 46.055632 
L 133.193084 51.678156 
L 133.959982 50.939735 
L 134.730715 42.864614 
L 135.505302 36.728486 
L 136.283761 35.507324 
L 137.066113 38.036406 
L 137.852376 42.634581 
L 138.642571 45.4182 
L 139.436717 44.705891 
L 140.234834 44.472724 
L 141.036941 46.396237 
L 143.467406 53.637501 
L 145.934511 58.414878 
L 146.765116 59.788401 
L 147.599875 60.796056 
L 148.438807 61.239404 
L 149.281934 61.203257 
L 150.129277 60.626017 
L 152.69681 58.146182 
L 153.561227 58.080816 
L 154.429966 59.118795 
L 155.303049 61.977501 
L 156.180497 68.126717 
L 157.062333 79.857607 
L 159.734382 128.76127 
L 160.633987 140.129833 
L 161.53809 140.62662 
L 162.446714 139.736744 
L 163.35988 139.419199 
L 164.277613 138.613679 
L 165.199934 137.350484 
L 166.126866 135.567782 
L 169.881176 126.994443 
L 172.746471 119.862886 
L 173.711137 117.177793 
L 174.680626 114.041463 
L 175.654962 110.340843 
L 176.634169 105.891664 
L 177.618273 100.528335 
L 178.607298 94.154445 
L 179.601267 86.715134 
L 180.600206 78.117347 
L 182.613094 57.780001 
L 183.627093 46.268915 
L 184.646161 33.425955 
L 185.670325 18.200077 
L 185.670325 18.200077 
" clip-path="url(#p3353ba7e5f)" style="fill: none; stroke: #1f77b4; stroke-width: 0.5; stroke-linecap: square"/>
   </g>
   <g id="line2d_58"/>
   <g id="patch_3">
    <path d="M 35.58575 146.747947 
L 35.58575 12.07875 
" style="fill: none; stroke: #000000; stroke-linejoin: miter; stroke-linecap: square"/>
   </g>
   <g id="patch_4">
    <path d="M 192.943451 146.747947 
L 192.943451 12.07875 
" style="fill: none; stroke: #000000; stroke-linejoin: miter; stroke-linecap: square"/>
   </g>
   <g id="patch_5">
    <path d="M 35.58575 146.747947 
L 192.943451 146.747947 
" style="fill: none; stroke: #000000; stroke-linejoin: miter; stroke-linecap: square"/>
   </g>
   <g id="patch_6">
    <path d="M 35.58575 12.07875 
L 192.943451 12.07875 
" style="fill: none; stroke: #000000; stroke-linejoin: miter; stroke-linecap: square"/>
   </g>
   <g id="text_12">
    <text style="font: 8px 'DejaVu Sans', 'Bitstream Vera Sans', 'Computer Modern Sans Serif', 'Lucida Grande', 'Verdana', 'Geneva', 'Lucid', 'Arial', 'Helvetica', 'Avant Garde', sans-serif; text-anchor: middle" x="114.2646" y="6.07875" transform="rotate(-0 114.2646 6.07875)">Laboratory Phyllosilicate Saponite</text>
   </g>
   <g id="legend_1">
    <g id="patch_7">
     <path d="M 200.290605 84.716786 
L 271.120605 84.716786 
Q 272.320605 84.716786 272.320605 83.516786 
L 272.320605 75.309911 
Q 272.320605 74.109911 271.120605 74.109911 
L 200.290605 74.109911 
Q 199.090605 74.109911 199.090605 75.309911 
L 199.090605 83.516786 
Q 199.090605 84.716786 200.290605 84.716786 
z
" style="fill: #ffffff; opacity: 0.8; stroke: #cccccc; stroke-width: 0.8; stroke-linejoin: miter"/>
    </g>
    <g id="line2d_59">
     <path d="M 201.490605 78.968973 
L 207.490605 78.968973 
L 213.490605 78.968973 
" style="fill: none; stroke: #1f77b4; stroke-width: 1.2; stroke-linecap: square"/>
    </g>
    <g id="text_13">
     <text style="font: 6px 'DejaVu Sans', 'Bitstream Vera Sans', 'Computer Modern Sans Serif', 'Lucida Grande', 'Verdana', 'Geneva', 'Lucid', 'Arial', 'Helvetica', 'Avant Garde', sans-serif; text-anchor: start" x="218.290605" y="81.068973" transform="rotate(-0 218.290605 81.068973)">Saponite LASA58</text>
    </g>
   </g>
  </g>
 </g>
 <defs>
  <clipPath id="p3353ba7e5f">
   <rect x="35.58575" y="12.07875" width="157.357701" height="134.669197"/>
  </clipPath>
 </defs>
</svg>
