<?xml version="1.0" encoding="utf-8" standalone="no"?>
<!DOCTYPE svg PUBLIC "-//W3C//DTD SVG 1.1//EN"
  "http://www.w3.org/Graphics/SVG/1.1/DTD/svg11.dtd">
<svg xmlns:xlink="http://www.w3.org/1999/xlink" width="278.001905pt" height="176.855697pt" viewBox="0 0 278.001905 176.855697" xmlns="http://www.w3.org/2000/svg" version="1.1">
 <metadata>
  <rdf:RDF xmlns:dc="http://purl.org/dc/elements/1.1/" xmlns:cc="http://creativecommons.org/ns#" xmlns:rdf="http://www.w3.org/1999/02/22-rdf-syntax-ns#">
   <cc:Work>
    <dc:type rdf:resource="http://purl.org/dc/dcmitype/StillImage"/>
    <dc:date>2025-02-12T17:08:01.838274</dc:date>
    <dc:format>image/svg+xml</dc:format>
    <dc:creator>
     <cc:Agent>
      <dc:title>Matplotlib v3.6.2, https://matplotlib.org/</dc:title>
     </cc:Agent>
    </dc:creator>
   </cc:Work>
  </rdf:RDF>
 </metadata>
 <defs>
  <style type="text/css">*{stroke-linejoin: round; stroke-linecap: butt}</style>
 </defs>
 <g id="figure_1">
  <g id="patch_1">
   <path d="M 0 176.855697 
L 278.001905 176.855697 
L 278.001905 0 
L 0 0 
z
" style="fill: #ffffff"/>
  </g>
  <g id="axes_1">
   <g id="patch_2">
    <path d="M 46.78375 146.747947 
L 203.181451 146.747947 
L 203.181451 12.07875 
L 46.78375 12.07875 
z
" style="fill: #ffffff"/>
   </g>
   <g id="matplotlib.axis_1">
    <g id="xtick_1">
     <g id="line2d_1">
      <path d="M 57.342245 146.747947 
L 57.342245 12.07875 
" clip-path="url(#p7e2b5adfdf)" style="fill: none; stroke: #b0b0b0; stroke-width: 0.6; stroke-linecap: square"/>
     </g>
     <g id="line2d_2">
      <defs>
       <path id="m3006abe8f6" d="M 0 0 
L 0 4.8 
" style="stroke: #000000"/>
      </defs>
      <g>
       <use xlink:href="#m3006abe8f6" x="57.342245" y="146.747947" style="stroke: #000000"/>
      </g>
     </g>
     <g id="text_1">
      <text style="font: 8.8px 'DejaVu Sans', 'Bitstream Vera Sans', 'Computer Modern Sans Serif', 'Lucida Grande', 'Verdana', 'Geneva', 'Lucid', 'Arial', 'Helvetica', 'Avant Garde', sans-serif; text-anchor: middle" x="57.342245" y="161.734572" transform="rotate(-0 57.342245 161.734572)">1000</text>
     </g>
    </g>
    <g id="xtick_2">
     <g id="line2d_3">
      <path d="M 90.33754 146.747947 
L 90.33754 12.07875 
" clip-path="url(#p7e2b5adfdf)" style="fill: none; stroke: #b0b0b0; stroke-width: 0.6; stroke-linecap: square"/>
     </g>
     <g id="line2d_4">
      <g>
       <use xlink:href="#m3006abe8f6" x="90.33754" y="146.747947" style="stroke: #000000"/>
      </g>
     </g>
     <g id="text_2">
      <text style="font: 8.8px 'DejaVu Sans', 'Bitstream Vera Sans', 'Computer Modern Sans Serif', 'Lucida Grande', 'Verdana', 'Geneva', 'Lucid', 'Arial', 'Helvetica', 'Avant Garde', sans-serif; text-anchor: middle" x="90.33754" y="161.734572" transform="rotate(-0 90.33754 161.734572)">1500</text>
     </g>
    </g>
    <g id="xtick_3">
     <g id="line2d_5">
      <path d="M 123.332836 146.747947 
L 123.332836 12.07875 
" clip-path="url(#p7e2b5adfdf)" style="fill: none; stroke: #b0b0b0; stroke-width: 0.6; stroke-linecap: square"/>
     </g>
     <g id="line2d_6">
      <g>
       <use xlink:href="#m3006abe8f6" x="123.332836" y="146.747947" style="stroke: #000000"/>
      </g>
     </g>
     <g id="text_3">
      <text style="font: 8.8px 'DejaVu Sans', 'Bitstream Vera Sans', 'Computer Modern Sans Serif', 'Lucida Grande', 'Verdana', 'Geneva', 'Lucid', 'Arial', 'Helvetica', 'Avant Garde', sans-serif; text-anchor: middle" x="123.332836" y="161.734572" transform="rotate(-0 123.332836 161.734572)">2000</text>
     </g>
    </g>
    <g id="xtick_4">
     <g id="line2d_7">
      <path d="M 156.328131 146.747947 
L 156.328131 12.07875 
" clip-path="url(#p7e2b5adfdf)" style="fill: none; stroke: #b0b0b0; stroke-width: 0.6; stroke-linecap: square"/>
     </g>
     <g id="line2d_8">
      <g>
       <use xlink:href="#m3006abe8f6" x="156.328131" y="146.747947" style="stroke: #000000"/>
      </g>
     </g>
     <g id="text_4">
      <text style="font: 8.8px 'DejaVu Sans', 'Bitstream Vera Sans', 'Computer Modern Sans Serif', 'Lucida Grande', 'Verdana', 'Geneva', 'Lucid', 'Arial', 'Helvetica', 'Avant Garde', sans-serif; text-anchor: middle" x="156.328131" y="161.734572" transform="rotate(-0 156.328131 161.734572)">2500</text>
     </g>
    </g>
    <g id="xtick_5">
     <g id="line2d_9">
      <path d="M 189.323427 146.747947 
L 189.323427 12.07875 
" clip-path="url(#p7e2b5adfdf)" style="fill: none; stroke: #b0b0b0; stroke-width: 0.6; stroke-linecap: square"/>
     </g>
     <g id="line2d_10">
      <g>
       <use xlink:href="#m3006abe8f6" x="189.323427" y="146.747947" style="stroke: #000000"/>
      </g>
     </g>
     <g id="text_5">
      <text style="font: 8.8px 'DejaVu Sans', 'Bitstream Vera Sans', 'Computer Modern Sans Serif', 'Lucida Grande', 'Verdana', 'Geneva', 'Lucid', 'Arial', 'Helvetica', 'Avant Garde', sans-serif; text-anchor: middle" x="189.323427" y="161.734572" transform="rotate(-0 189.323427 161.734572)">3000</text>
     </g>
    </g>
    <g id="xtick_6">
     <g id="line2d_11">
      <path d="M 50.743185 146.747947 
L 50.743185 12.07875 
" clip-path="url(#p7e2b5adfdf)" style="fill: none; stroke: #b0b0b0; stroke-width: 0.3; stroke-linecap: square"/>
     </g>
     <g id="line2d_12">
      <defs>
       <path id="mf24f36318e" d="M 0 0 
L 0 3.2 
" style="stroke: #000000; stroke-width: 0.8"/>
      </defs>
      <g>
       <use xlink:href="#mf24f36318e" x="50.743185" y="146.747947" style="stroke: #000000; stroke-width: 0.8"/>
      </g>
     </g>
    </g>
    <g id="xtick_7">
     <g id="line2d_13">
      <path d="M 63.941304 146.747947 
L 63.941304 12.07875 
" clip-path="url(#p7e2b5adfdf)" style="fill: none; stroke: #b0b0b0; stroke-width: 0.3; stroke-linecap: square"/>
     </g>
     <g id="line2d_14">
      <g>
       <use xlink:href="#mf24f36318e" x="63.941304" y="146.747947" style="stroke: #000000; stroke-width: 0.8"/>
      </g>
     </g>
    </g>
    <g id="xtick_8">
     <g id="line2d_15">
      <path d="M 70.540363 146.747947 
L 70.540363 12.07875 
" clip-path="url(#p7e2b5adfdf)" style="fill: none; stroke: #b0b0b0; stroke-width: 0.3; stroke-linecap: square"/>
     </g>
     <g id="line2d_16">
      <g>
       <use xlink:href="#mf24f36318e" x="70.540363" y="146.747947" style="stroke: #000000; stroke-width: 0.8"/>
      </g>
     </g>
    </g>
    <g id="xtick_9">
     <g id="line2d_17">
      <path d="M 77.139422 146.747947 
L 77.139422 12.07875 
" clip-path="url(#p7e2b5adfdf)" style="fill: none; stroke: #b0b0b0; stroke-width: 0.3; stroke-linecap: square"/>
     </g>
     <g id="line2d_18">
      <g>
       <use xlink:href="#mf24f36318e" x="77.139422" y="146.747947" style="stroke: #000000; stroke-width: 0.8"/>
      </g>
     </g>
    </g>
    <g id="xtick_10">
     <g id="line2d_19">
      <path d="M 83.738481 146.747947 
L 83.738481 12.07875 
" clip-path="url(#p7e2b5adfdf)" style="fill: none; stroke: #b0b0b0; stroke-width: 0.3; stroke-linecap: square"/>
     </g>
     <g id="line2d_20">
      <g>
       <use xlink:href="#mf24f36318e" x="83.738481" y="146.747947" style="stroke: #000000; stroke-width: 0.8"/>
      </g>
     </g>
    </g>
    <g id="xtick_11">
     <g id="line2d_21">
      <path d="M 96.936599 146.747947 
L 96.936599 12.07875 
" clip-path="url(#p7e2b5adfdf)" style="fill: none; stroke: #b0b0b0; stroke-width: 0.3; stroke-linecap: square"/>
     </g>
     <g id="line2d_22">
      <g>
       <use xlink:href="#mf24f36318e" x="96.936599" y="146.747947" style="stroke: #000000; stroke-width: 0.8"/>
      </g>
     </g>
    </g>
    <g id="xtick_12">
     <g id="line2d_23">
      <path d="M 103.535658 146.747947 
L 103.535658 12.07875 
" clip-path="url(#p7e2b5adfdf)" style="fill: none; stroke: #b0b0b0; stroke-width: 0.3; stroke-linecap: square"/>
     </g>
     <g id="line2d_24">
      <g>
       <use xlink:href="#mf24f36318e" x="103.535658" y="146.747947" style="stroke: #000000; stroke-width: 0.8"/>
      </g>
     </g>
    </g>
    <g id="xtick_13">
     <g id="line2d_25">
      <path d="M 110.134717 146.747947 
L 110.134717 12.07875 
" clip-path="url(#p7e2b5adfdf)" style="fill: none; stroke: #b0b0b0; stroke-width: 0.3; stroke-linecap: square"/>
     </g>
     <g id="line2d_26">
      <g>
       <use xlink:href="#mf24f36318e" x="110.134717" y="146.747947" style="stroke: #000000; stroke-width: 0.8"/>
      </g>
     </g>
    </g>
    <g id="xtick_14">
     <g id="line2d_27">
      <path d="M 116.733777 146.747947 
L 116.733777 12.07875 
" clip-path="url(#p7e2b5adfdf)" style="fill: none; stroke: #b0b0b0; stroke-width: 0.3; stroke-linecap: square"/>
     </g>
     <g id="line2d_28">
      <g>
       <use xlink:href="#mf24f36318e" x="116.733777" y="146.747947" style="stroke: #000000; stroke-width: 0.8"/>
      </g>
     </g>
    </g>
    <g id="xtick_15">
     <g id="line2d_29">
      <path d="M 129.931895 146.747947 
L 129.931895 12.07875 
" clip-path="url(#p7e2b5adfdf)" style="fill: none; stroke: #b0b0b0; stroke-width: 0.3; stroke-linecap: square"/>
     </g>
     <g id="line2d_30">
      <g>
       <use xlink:href="#mf24f36318e" x="129.931895" y="146.747947" style="stroke: #000000; stroke-width: 0.8"/>
      </g>
     </g>
    </g>
    <g id="xtick_16">
     <g id="line2d_31">
      <path d="M 136.530954 146.747947 
L 136.530954 12.07875 
" clip-path="url(#p7e2b5adfdf)" style="fill: none; stroke: #b0b0b0; stroke-width: 0.3; stroke-linecap: square"/>
     </g>
     <g id="line2d_32">
      <g>
       <use xlink:href="#mf24f36318e" x="136.530954" y="146.747947" style="stroke: #000000; stroke-width: 0.8"/>
      </g>
     </g>
    </g>
    <g id="xtick_17">
     <g id="line2d_33">
      <path d="M 143.130013 146.747947 
L 143.130013 12.07875 
" clip-path="url(#p7e2b5adfdf)" style="fill: none; stroke: #b0b0b0; stroke-width: 0.3; stroke-linecap: square"/>
     </g>
     <g id="line2d_34">
      <g>
       <use xlink:href="#mf24f36318e" x="143.130013" y="146.747947" style="stroke: #000000; stroke-width: 0.8"/>
      </g>
     </g>
    </g>
    <g id="xtick_18">
     <g id="line2d_35">
      <path d="M 149.729072 146.747947 
L 149.729072 12.07875 
" clip-path="url(#p7e2b5adfdf)" style="fill: none; stroke: #b0b0b0; stroke-width: 0.3; stroke-linecap: square"/>
     </g>
     <g id="line2d_36">
      <g>
       <use xlink:href="#mf24f36318e" x="149.729072" y="146.747947" style="stroke: #000000; stroke-width: 0.8"/>
      </g>
     </g>
    </g>
    <g id="xtick_19">
     <g id="line2d_37">
      <path d="M 162.92719 146.747947 
L 162.92719 12.07875 
" clip-path="url(#p7e2b5adfdf)" style="fill: none; stroke: #b0b0b0; stroke-width: 0.3; stroke-linecap: square"/>
     </g>
     <g id="line2d_38">
      <g>
       <use xlink:href="#mf24f36318e" x="162.92719" y="146.747947" style="stroke: #000000; stroke-width: 0.8"/>
      </g>
     </g>
    </g>
    <g id="xtick_20">
     <g id="line2d_39">
      <path d="M 169.526249 146.747947 
L 169.526249 12.07875 
" clip-path="url(#p7e2b5adfdf)" style="fill: none; stroke: #b0b0b0; stroke-width: 0.3; stroke-linecap: square"/>
     </g>
     <g id="line2d_40">
      <g>
       <use xlink:href="#mf24f36318e" x="169.526249" y="146.747947" style="stroke: #000000; stroke-width: 0.8"/>
      </g>
     </g>
    </g>
    <g id="xtick_21">
     <g id="line2d_41">
      <path d="M 176.125308 146.747947 
L 176.125308 12.07875 
" clip-path="url(#p7e2b5adfdf)" style="fill: none; stroke: #b0b0b0; stroke-width: 0.3; stroke-linecap: square"/>
     </g>
     <g id="line2d_42">
      <g>
       <use xlink:href="#mf24f36318e" x="176.125308" y="146.747947" style="stroke: #000000; stroke-width: 0.8"/>
      </g>
     </g>
    </g>
    <g id="xtick_22">
     <g id="line2d_43">
      <path d="M 182.724368 146.747947 
L 182.724368 12.07875 
" clip-path="url(#p7e2b5adfdf)" style="fill: none; stroke: #b0b0b0; stroke-width: 0.3; stroke-linecap: square"/>
     </g>
     <g id="line2d_44">
      <g>
       <use xlink:href="#mf24f36318e" x="182.724368" y="146.747947" style="stroke: #000000; stroke-width: 0.8"/>
      </g>
     </g>
    </g>
    <g id="xtick_23">
     <g id="line2d_45">
      <path d="M 195.922486 146.747947 
L 195.922486 12.07875 
" clip-path="url(#p7e2b5adfdf)" style="fill: none; stroke: #b0b0b0; stroke-width: 0.3; stroke-linecap: square"/>
     </g>
     <g id="line2d_46">
      <g>
       <use xlink:href="#mf24f36318e" x="195.922486" y="146.747947" style="stroke: #000000; stroke-width: 0.8"/>
      </g>
     </g>
    </g>
    <g id="xtick_24">
     <g id="line2d_47">
      <path d="M 202.521545 146.747947 
L 202.521545 12.07875 
" clip-path="url(#p7e2b5adfdf)" style="fill: none; stroke: #b0b0b0; stroke-width: 0.3; stroke-linecap: square"/>
     </g>
     <g id="line2d_48">
      <g>
       <use xlink:href="#mf24f36318e" x="202.521545" y="146.747947" style="stroke: #000000; stroke-width: 0.8"/>
      </g>
     </g>
    </g>
    <g id="text_6">
     <text style="font: 9.6px 'DejaVu Sans', 'Bitstream Vera Sans', 'Computer Modern Sans Serif', 'Lucida Grande', 'Verdana', 'Geneva', 'Lucid', 'Arial', 'Helvetica', 'Avant Garde', sans-serif; text-anchor: middle" x="124.9826" y="174.859197" transform="rotate(-0 124.9826 174.859197)">Wavelength (nm)</text>
    </g>
   </g>
   <g id="matplotlib.axis_2">
    <g id="ytick_1">
     <g id="line2d_49">
      <path d="M 46.78375 130.952737 
L 203.181451 130.952737 
" clip-path="url(#p7e2b5adfdf)" style="fill: none; stroke: #b0b0b0; stroke-width: 0.6; stroke-linecap: square"/>
     </g>
     <g id="line2d_50">
      <defs>
       <path id="mca726245b9" d="M 0 0 
L -4.8 0 
" style="stroke: #000000"/>
      </defs>
      <g>
       <use xlink:href="#mca726245b9" x="46.78375" y="130.952737" style="stroke: #000000"/>
      </g>
     </g>
     <g id="text_7">
      <text style="font: 8.8px 'DejaVu Sans', 'Bitstream Vera Sans', 'Computer Modern Sans Serif', 'Lucida Grande', 'Verdana', 'Geneva', 'Lucid', 'Arial', 'Helvetica', 'Avant Garde', sans-serif; text-anchor: end" x="38.48375" y="134.296049" transform="rotate(-0 38.48375 134.296049)">0.875</text>
     </g>
    </g>
    <g id="ytick_2">
     <g id="line2d_51">
      <path d="M 46.78375 108.402205 
L 203.181451 108.402205 
" clip-path="url(#p7e2b5adfdf)" style="fill: none; stroke: #b0b0b0; stroke-width: 0.6; stroke-linecap: square"/>
     </g>
     <g id="line2d_52">
      <g>
       <use xlink:href="#mca726245b9" x="46.78375" y="108.402205" style="stroke: #000000"/>
      </g>
     </g>
     <g id="text_8">
      <text style="font: 8.8px 'DejaVu Sans', 'Bitstream Vera Sans', 'Computer Modern Sans Serif', 'Lucida Grande', 'Verdana', 'Geneva', 'Lucid', 'Arial', 'Helvetica', 'Avant Garde', sans-serif; text-anchor: end" x="38.48375" y="111.745517" transform="rotate(-0 38.48375 111.745517)">0.900</text>
     </g>
    </g>
    <g id="ytick_3">
     <g id="line2d_53">
      <path d="M 46.78375 85.851673 
L 203.181451 85.851673 
" clip-path="url(#p7e2b5adfdf)" style="fill: none; stroke: #b0b0b0; stroke-width: 0.6; stroke-linecap: square"/>
     </g>
     <g id="line2d_54">
      <g>
       <use xlink:href="#mca726245b9" x="46.78375" y="85.851673" style="stroke: #000000"/>
      </g>
     </g>
     <g id="text_9">
      <text style="font: 8.8px 'DejaVu Sans', 'Bitstream Vera Sans', 'Computer Modern Sans Serif', 'Lucida Grande', 'Verdana', 'Geneva', 'Lucid', 'Arial', 'Helvetica', 'Avant Garde', sans-serif; text-anchor: end" x="38.48375" y="89.194985" transform="rotate(-0 38.48375 89.194985)">0.925</text>
     </g>
    </g>
    <g id="ytick_4">
     <g id="line2d_55">
      <path d="M 46.78375 63.301141 
L 203.181451 63.301141 
" clip-path="url(#p7e2b5adfdf)" style="fill: none; stroke: #b0b0b0; stroke-width: 0.6; stroke-linecap: square"/>
     </g>
     <g id="line2d_56">
      <g>
       <use xlink:href="#mca726245b9" x="46.78375" y="63.301141" style="stroke: #000000"/>
      </g>
     </g>
     <g id="text_10">
      <text style="font: 8.8px 'DejaVu Sans', 'Bitstream Vera Sans', 'Computer Modern Sans Serif', 'Lucida Grande', 'Verdana', 'Geneva', 'Lucid', 'Arial', 'Helvetica', 'Avant Garde', sans-serif; text-anchor: end" x="38.48375" y="66.644453" transform="rotate(-0 38.48375 66.644453)">0.950</text>
     </g>
    </g>
    <g id="ytick_5">
     <g id="line2d_57">
      <path d="M 46.78375 40.750609 
L 203.181451 40.750609 
" clip-path="url(#p7e2b5adfdf)" style="fill: none; stroke: #b0b0b0; stroke-width: 0.6; stroke-linecap: square"/>
     </g>
     <g id="line2d_58">
      <g>
       <use xlink:href="#mca726245b9" x="46.78375" y="40.750609" style="stroke: #000000"/>
      </g>
     </g>
     <g id="text_11">
      <text style="font: 8.8px 'DejaVu Sans', 'Bitstream Vera Sans', 'Computer Modern Sans Serif', 'Lucida Grande', 'Verdana', 'Geneva', 'Lucid', 'Arial', 'Helvetica', 'Avant Garde', sans-serif; text-anchor: end" x="38.48375" y="44.093922" transform="rotate(-0 38.48375 44.093922)">0.975</text>
     </g>
    </g>
    <g id="ytick_6">
     <g id="line2d_59">
      <path d="M 46.78375 18.200077 
L 203.181451 18.200077 
" clip-path="url(#p7e2b5adfdf)" style="fill: none; stroke: #b0b0b0; stroke-width: 0.6; stroke-linecap: square"/>
     </g>
     <g id="line2d_60">
      <g>
       <use xlink:href="#mca726245b9" x="46.78375" y="18.200077" style="stroke: #000000"/>
      </g>
     </g>
     <g id="text_12">
      <text style="font: 8.8px 'DejaVu Sans', 'Bitstream Vera Sans', 'Computer Modern Sans Serif', 'Lucida Grande', 'Verdana', 'Geneva', 'Lucid', 'Arial', 'Helvetica', 'Avant Garde', sans-serif; text-anchor: end" x="38.48375" y="21.54339" transform="rotate(-0 38.48375 21.54339)">1.000</text>
     </g>
    </g>
    <g id="text_13">
     <text style="font: 9.6px 'DejaVu Sans', 'Bitstream Vera Sans', 'Computer Modern Sans Serif', 'Lucida Grande', 'Verdana', 'Geneva', 'Lucid', 'Arial', 'Helvetica', 'Avant Garde', sans-serif; text-anchor: middle" x="7.2945" y="79.413348" transform="rotate(-90 7.2945 79.413348)">Reflectance</text>
    </g>
   </g>
   <g id="line2d_61">
    <path d="M 50.743185 18.200077 
L 51.040143 18.568681 
L 51.63852 18.813716 
L 51.939955 18.835141 
L 52.547352 18.335762 
L 54.406325 18.879125 
L 55.038448 18.896961 
L 55.356882 19.076372 
L 55.998535 18.968215 
L 56.64662 19.234727 
L 56.973094 19.302962 
L 57.301202 19.494885 
L 58.295399 21.168246 
L 58.630118 21.058579 
L 58.96651 20.795602 
L 59.304585 20.705047 
L 59.644349 20.77547 
L 59.985813 20.969203 
L 60.328984 21.394155 
L 61.020481 21.720844 
L 61.368826 21.960456 
L 62.070748 21.954244 
L 62.779707 20.954422 
L 63.136847 20.867744 
L 63.495773 21.016378 
L 64.219018 21.522919 
L 64.583354 21.500174 
L 64.949513 21.779134 
L 65.317502 21.749963 
L 66.05901 21.49318 
L 66.432547 21.424399 
L 66.807951 21.209859 
L 67.185233 21.148171 
L 67.945464 21.903145 
L 68.328433 21.54517 
L 68.713317 21.014242 
L 69.100126 21.032782 
L 69.488868 21.315019 
L 70.272193 20.784041 
L 70.666796 20.472472 
L 71.063372 20.523556 
L 71.46193 20.771336 
L 72.265036 20.629861 
L 72.669603 20.60838 
L 73.484815 20.081573 
L 74.722983 19.930635 
L 75.558781 20.35831 
L 75.979816 20.409669 
L 76.828214 20.011891 
L 77.255596 20.044076 
L 77.685116 20.417717 
L 78.550609 20.315384 
L 78.986604 20.483317 
L 79.865144 21.419633 
L 80.307712 22.322309 
L 80.752492 23.646442 
L 81.199496 24.597705 
L 81.648735 24.518232 
L 82.100221 24.241469 
L 83.009975 24.203993 
L 83.468267 24.278026 
L 84.391736 23.648379 
L 84.856936 23.380419 
L 85.324463 22.621265 
L 85.794327 22.089386 
L 86.741114 21.881616 
L 87.697394 21.726188 
L 88.179122 21.53662 
L 88.66326 21.046564 
L 89.638809 20.888204 
L 90.130244 20.501407 
L 90.624137 20.286055 
L 95.181795 19.90569 
L 95.700945 19.995373 
L 96.222692 19.783684 
L 96.747047 19.139506 
L 97.274024 18.784148 
L 98.335896 19.048599 
L 98.870817 18.964503 
L 99.948697 18.200077 
L 100.491682 18.309111 
L 101.037382 18.652304 
L 101.585811 18.661873 
L 102.136981 18.527789 
L 102.690908 18.555564 
L 103.807084 18.200077 
L 106.646725 18.267059 
L 107.2232 18.581412 
L 107.802558 18.749728 
L 108.384812 18.515081 
L 108.969978 18.481559 
L 110.149102 19.052072 
L 111.340046 18.599205 
L 111.939988 18.811878 
L 113.757872 21.690247 
L 114.984995 24.384273 
L 115.603161 24.561111 
L 116.224419 23.602938 
L 116.848783 22.910489 
L 117.476268 22.643408 
L 118.740668 22.711198 
L 119.377613 23.313062 
L 120.017742 24.182564 
L 120.661073 24.741481 
L 122.610429 25.68205 
L 123.266722 25.206187 
L 124.589171 21.489666 
L 125.255359 20.106408 
L 125.924877 19.051164 
L 126.597743 18.599748 
L 127.273974 18.547531 
L 128.636595 18.200077 
L 129.32302 18.335109 
L 130.012876 18.685772 
L 130.706183 19.194119 
L 131.402955 19.956187 
L 132.103212 21.26968 
L 132.80697 23.030396 
L 133.514246 23.910791 
L 134.225059 23.504391 
L 134.939426 22.580796 
L 135.657365 22.06887 
L 136.378894 22.021912 
L 137.10403 22.738595 
L 137.832792 24.208915 
L 138.565197 26.965999 
L 139.301265 31.100231 
L 140.041013 36.477399 
L 140.78446 43.565606 
L 143.037178 69.468304 
L 145.323856 90.810251 
L 146.093717 86.433194 
L 147.645007 51.680492 
L 148.426473 39.762259 
L 149.211847 34.290652 
L 150.001148 33.242065 
L 150.794396 35.611826 
L 151.59161 41.500147 
L 152.392809 50.63291 
L 153.198015 62.998668 
L 155.637869 110.341948 
L 157.284839 131.526917 
L 158.114504 140.62662 
L 158.948319 134.188186 
L 161.474859 51.53354 
L 162.325475 36.445293 
L 163.180345 26.104272 
L 164.039488 20.734486 
L 164.902927 18.362396 
L 165.770684 18.200077 
L 166.642779 18.200077 
L 167.519234 18.547458 
L 168.400072 23.978923 
L 169.285314 36.870587 
L 170.174983 52.698308 
L 171.069099 65.983172 
L 171.967687 76.028362 
L 172.870767 84.653086 
L 173.778362 95.007178 
L 174.690496 107.177824 
L 175.60719 112.66436 
L 176.528468 104.280652 
L 177.454352 93.091966 
L 178.384865 84.438645 
L 179.320031 78.556061 
L 180.259873 74.737655 
L 182.153678 69.510125 
L 183.107688 66.878427 
L 184.066468 63.681158 
L 185.030042 59.786087 
L 185.998434 55.269475 
L 187.949768 44.094621 
L 189.920664 32.550328 
L 190.91351 27.496883 
L 191.911319 23.304192 
L 192.914117 20.206953 
L 193.921929 18.252573 
L 195.952696 18.200077 
L 195.952696 18.200077 
" clip-path="url(#p7e2b5adfdf)" style="fill: none; stroke: #1f77b4; stroke-width: 0.5; stroke-linecap: square"/>
   </g>
   <g id="line2d_62"/>
   <g id="patch_3">
    <path d="M 46.78375 146.747947 
L 46.78375 12.07875 
" style="fill: none; stroke: #000000; stroke-linejoin: miter; stroke-linecap: square"/>
   </g>
   <g id="patch_4">
    <path d="M 203.181451 146.747947 
L 203.181451 12.07875 
" style="fill: none; stroke: #000000; stroke-linejoin: miter; stroke-linecap: square"/>
   </g>
   <g id="patch_5">
    <path d="M 46.78375 146.747947 
L 203.181451 146.747947 
" style="fill: none; stroke: #000000; stroke-linejoin: miter; stroke-linecap: square"/>
   </g>
   <g id="patch_6">
    <path d="M 46.78375 12.07875 
L 203.181451 12.07875 
" style="fill: none; stroke: #000000; stroke-linejoin: miter; stroke-linecap: square"/>
   </g>
   <g id="text_14">
    <text style="font: 8px 'DejaVu Sans', 'Bitstream Vera Sans', 'Computer Modern Sans Serif', 'Lucida Grande', 'Verdana', 'Geneva', 'Lucid', 'Arial', 'Helvetica', 'Avant Garde', sans-serif; text-anchor: middle" x="124.9826" y="6.07875" transform="rotate(-0 124.9826 6.07875)">Laboratory Carbonates Calcite</text>
   </g>
   <g id="legend_1">
    <g id="patch_7">
     <path d="M 210.509405 84.716786 
L 276.801905 84.716786 
Q 278.001905 84.716786 278.001905 83.516786 
L 278.001905 75.309911 
Q 278.001905 74.109911 276.801905 74.109911 
L 210.509405 74.109911 
Q 209.309405 74.109911 209.309405 75.309911 
L 209.309405 83.516786 
Q 209.309405 84.716786 210.509405 84.716786 
z
" style="fill: #ffffff; opacity: 0.8; stroke: #cccccc; stroke-width: 0.8; stroke-linejoin: miter"/>
    </g>
    <g id="line2d_63">
     <path d="M 211.709405 78.968973 
L 217.709405 78.968973 
L 223.709405 78.968973 
" style="fill: none; stroke: #1f77b4; stroke-width: 1.2; stroke-linecap: square"/>
    </g>
    <g id="text_15">
     <text style="font: 6px 'DejaVu Sans', 'Bitstream Vera Sans', 'Computer Modern Sans Serif', 'Lucida Grande', 'Verdana', 'Geneva', 'Lucid', 'Arial', 'Helvetica', 'Avant Garde', sans-serif; text-anchor: start" x="228.509405" y="81.068973" transform="rotate(-0 228.509405 81.068973)">Calcite CAGR01</text>
    </g>
   </g>
  </g>
 </g>
 <defs>
  <clipPath id="p7e2b5adfdf">
   <rect x="46.78375" y="12.07875" width="156.397701" height="134.669197"/>
  </clipPath>
 </defs>
</svg>
