<?xml version="1.0" encoding="utf-8" standalone="no"?>
<!DOCTYPE svg PUBLIC "-//W3C//DTD SVG 1.1//EN"
  "http://www.w3.org/Graphics/SVG/1.1/DTD/svg11.dtd">
<svg xmlns:xlink="http://www.w3.org/1999/xlink" width="272.32173pt" height="176.855697pt" viewBox="0 0 272.32173 176.855697" xmlns="http://www.w3.org/2000/svg" version="1.1">
 <metadata>
  <rdf:RDF xmlns:dc="http://purl.org/dc/elements/1.1/" xmlns:cc="http://creativecommons.org/ns#" xmlns:rdf="http://www.w3.org/1999/02/22-rdf-syntax-ns#">
   <cc:Work>
    <dc:type rdf:resource="http://purl.org/dc/dcmitype/StillImage"/>
    <dc:date>2025-02-12T17:07:52.815180</dc:date>
    <dc:format>image/svg+xml</dc:format>
    <dc:creator>
     <cc:Agent>
      <dc:title>Matplotlib v3.6.2, https://matplotlib.org/</dc:title>
     </cc:Agent>
    </dc:creator>
   </cc:Work>
  </rdf:RDF>
 </metadata>
 <defs>
  <style type="text/css">*{stroke-linejoin: round; stroke-linecap: butt}</style>
 </defs>
 <g id="figure_1">
  <g id="patch_1">
   <path d="M -0 176.855697 
L 272.32173 176.855697 
L 272.32173 0 
L -0 0 
z
" style="fill: #ffffff"/>
  </g>
  <g id="axes_1">
   <g id="patch_2">
    <path d="M 35.58575 146.747947 
L 193.093451 146.747947 
L 193.093451 12.07875 
L 35.58575 12.07875 
z
" style="fill: #ffffff"/>
   </g>
   <g id="matplotlib.axis_1">
    <g id="xtick_1">
     <g id="line2d_1">
      <path d="M 46.219181 146.747947 
L 46.219181 12.07875 
" clip-path="url(#p6396f13683)" style="fill: none; stroke: #b0b0b0; stroke-width: 0.6; stroke-linecap: square"/>
     </g>
     <g id="line2d_2">
      <defs>
       <path id="m1660190f40" d="M 0 0 
L 0 4.8 
" style="stroke: #000000"/>
      </defs>
      <g>
       <use xlink:href="#m1660190f40" x="46.219181" y="146.747947" style="stroke: #000000"/>
      </g>
     </g>
     <g id="text_1">
      <text style="font: 8.8px 'DejaVu Sans', 'Bitstream Vera Sans', 'Computer Modern Sans Serif', 'Lucida Grande', 'Verdana', 'Geneva', 'Lucid', 'Arial', 'Helvetica', 'Avant Garde', sans-serif; text-anchor: middle" x="46.219181" y="161.734572" transform="rotate(-0 46.219181 161.734572)">1000</text>
     </g>
    </g>
    <g id="xtick_2">
     <g id="line2d_3">
      <path d="M 79.448654 146.747947 
L 79.448654 12.07875 
" clip-path="url(#p6396f13683)" style="fill: none; stroke: #b0b0b0; stroke-width: 0.6; stroke-linecap: square"/>
     </g>
     <g id="line2d_4">
      <g>
       <use xlink:href="#m1660190f40" x="79.448654" y="146.747947" style="stroke: #000000"/>
      </g>
     </g>
     <g id="text_2">
      <text style="font: 8.8px 'DejaVu Sans', 'Bitstream Vera Sans', 'Computer Modern Sans Serif', 'Lucida Grande', 'Verdana', 'Geneva', 'Lucid', 'Arial', 'Helvetica', 'Avant Garde', sans-serif; text-anchor: middle" x="79.448654" y="161.734572" transform="rotate(-0 79.448654 161.734572)">1500</text>
     </g>
    </g>
    <g id="xtick_3">
     <g id="line2d_5">
      <path d="M 112.678127 146.747947 
L 112.678127 12.07875 
" clip-path="url(#p6396f13683)" style="fill: none; stroke: #b0b0b0; stroke-width: 0.6; stroke-linecap: square"/>
     </g>
     <g id="line2d_6">
      <g>
       <use xlink:href="#m1660190f40" x="112.678127" y="146.747947" style="stroke: #000000"/>
      </g>
     </g>
     <g id="text_3">
      <text style="font: 8.8px 'DejaVu Sans', 'Bitstream Vera Sans', 'Computer Modern Sans Serif', 'Lucida Grande', 'Verdana', 'Geneva', 'Lucid', 'Arial', 'Helvetica', 'Avant Garde', sans-serif; text-anchor: middle" x="112.678127" y="161.734572" transform="rotate(-0 112.678127 161.734572)">2000</text>
     </g>
    </g>
    <g id="xtick_4">
     <g id="line2d_7">
      <path d="M 145.907599 146.747947 
L 145.907599 12.07875 
" clip-path="url(#p6396f13683)" style="fill: none; stroke: #b0b0b0; stroke-width: 0.6; stroke-linecap: square"/>
     </g>
     <g id="line2d_8">
      <g>
       <use xlink:href="#m1660190f40" x="145.907599" y="146.747947" style="stroke: #000000"/>
      </g>
     </g>
     <g id="text_4">
      <text style="font: 8.8px 'DejaVu Sans', 'Bitstream Vera Sans', 'Computer Modern Sans Serif', 'Lucida Grande', 'Verdana', 'Geneva', 'Lucid', 'Arial', 'Helvetica', 'Avant Garde', sans-serif; text-anchor: middle" x="145.907599" y="161.734572" transform="rotate(-0 145.907599 161.734572)">2500</text>
     </g>
    </g>
    <g id="xtick_5">
     <g id="line2d_9">
      <path d="M 179.137072 146.747947 
L 179.137072 12.07875 
" clip-path="url(#p6396f13683)" style="fill: none; stroke: #b0b0b0; stroke-width: 0.6; stroke-linecap: square"/>
     </g>
     <g id="line2d_10">
      <g>
       <use xlink:href="#m1660190f40" x="179.137072" y="146.747947" style="stroke: #000000"/>
      </g>
     </g>
     <g id="text_5">
      <text style="font: 8.8px 'DejaVu Sans', 'Bitstream Vera Sans', 'Computer Modern Sans Serif', 'Lucida Grande', 'Verdana', 'Geneva', 'Lucid', 'Arial', 'Helvetica', 'Avant Garde', sans-serif; text-anchor: middle" x="179.137072" y="161.734572" transform="rotate(-0 179.137072 161.734572)">3000</text>
     </g>
    </g>
    <g id="xtick_6">
     <g id="line2d_11">
      <path d="M 39.573287 146.747947 
L 39.573287 12.07875 
" clip-path="url(#p6396f13683)" style="fill: none; stroke: #b0b0b0; stroke-width: 0.3; stroke-linecap: square"/>
     </g>
     <g id="line2d_12">
      <defs>
       <path id="m8fb2728fbb" d="M 0 0 
L 0 3.2 
" style="stroke: #000000; stroke-width: 0.8"/>
      </defs>
      <g>
       <use xlink:href="#m8fb2728fbb" x="39.573287" y="146.747947" style="stroke: #000000; stroke-width: 0.8"/>
      </g>
     </g>
    </g>
    <g id="xtick_7">
     <g id="line2d_13">
      <path d="M 52.865076 146.747947 
L 52.865076 12.07875 
" clip-path="url(#p6396f13683)" style="fill: none; stroke: #b0b0b0; stroke-width: 0.3; stroke-linecap: square"/>
     </g>
     <g id="line2d_14">
      <g>
       <use xlink:href="#m8fb2728fbb" x="52.865076" y="146.747947" style="stroke: #000000; stroke-width: 0.8"/>
      </g>
     </g>
    </g>
    <g id="xtick_8">
     <g id="line2d_15">
      <path d="M 59.51097 146.747947 
L 59.51097 12.07875 
" clip-path="url(#p6396f13683)" style="fill: none; stroke: #b0b0b0; stroke-width: 0.3; stroke-linecap: square"/>
     </g>
     <g id="line2d_16">
      <g>
       <use xlink:href="#m8fb2728fbb" x="59.51097" y="146.747947" style="stroke: #000000; stroke-width: 0.8"/>
      </g>
     </g>
    </g>
    <g id="xtick_9">
     <g id="line2d_17">
      <path d="M 66.156865 146.747947 
L 66.156865 12.07875 
" clip-path="url(#p6396f13683)" style="fill: none; stroke: #b0b0b0; stroke-width: 0.3; stroke-linecap: square"/>
     </g>
     <g id="line2d_18">
      <g>
       <use xlink:href="#m8fb2728fbb" x="66.156865" y="146.747947" style="stroke: #000000; stroke-width: 0.8"/>
      </g>
     </g>
    </g>
    <g id="xtick_10">
     <g id="line2d_19">
      <path d="M 72.802759 146.747947 
L 72.802759 12.07875 
" clip-path="url(#p6396f13683)" style="fill: none; stroke: #b0b0b0; stroke-width: 0.3; stroke-linecap: square"/>
     </g>
     <g id="line2d_20">
      <g>
       <use xlink:href="#m8fb2728fbb" x="72.802759" y="146.747947" style="stroke: #000000; stroke-width: 0.8"/>
      </g>
     </g>
    </g>
    <g id="xtick_11">
     <g id="line2d_21">
      <path d="M 86.094549 146.747947 
L 86.094549 12.07875 
" clip-path="url(#p6396f13683)" style="fill: none; stroke: #b0b0b0; stroke-width: 0.3; stroke-linecap: square"/>
     </g>
     <g id="line2d_22">
      <g>
       <use xlink:href="#m8fb2728fbb" x="86.094549" y="146.747947" style="stroke: #000000; stroke-width: 0.8"/>
      </g>
     </g>
    </g>
    <g id="xtick_12">
     <g id="line2d_23">
      <path d="M 92.740443 146.747947 
L 92.740443 12.07875 
" clip-path="url(#p6396f13683)" style="fill: none; stroke: #b0b0b0; stroke-width: 0.3; stroke-linecap: square"/>
     </g>
     <g id="line2d_24">
      <g>
       <use xlink:href="#m8fb2728fbb" x="92.740443" y="146.747947" style="stroke: #000000; stroke-width: 0.8"/>
      </g>
     </g>
    </g>
    <g id="xtick_13">
     <g id="line2d_25">
      <path d="M 99.386338 146.747947 
L 99.386338 12.07875 
" clip-path="url(#p6396f13683)" style="fill: none; stroke: #b0b0b0; stroke-width: 0.3; stroke-linecap: square"/>
     </g>
     <g id="line2d_26">
      <g>
       <use xlink:href="#m8fb2728fbb" x="99.386338" y="146.747947" style="stroke: #000000; stroke-width: 0.8"/>
      </g>
     </g>
    </g>
    <g id="xtick_14">
     <g id="line2d_27">
      <path d="M 106.032232 146.747947 
L 106.032232 12.07875 
" clip-path="url(#p6396f13683)" style="fill: none; stroke: #b0b0b0; stroke-width: 0.3; stroke-linecap: square"/>
     </g>
     <g id="line2d_28">
      <g>
       <use xlink:href="#m8fb2728fbb" x="106.032232" y="146.747947" style="stroke: #000000; stroke-width: 0.8"/>
      </g>
     </g>
    </g>
    <g id="xtick_15">
     <g id="line2d_29">
      <path d="M 119.324021 146.747947 
L 119.324021 12.07875 
" clip-path="url(#p6396f13683)" style="fill: none; stroke: #b0b0b0; stroke-width: 0.3; stroke-linecap: square"/>
     </g>
     <g id="line2d_30">
      <g>
       <use xlink:href="#m8fb2728fbb" x="119.324021" y="146.747947" style="stroke: #000000; stroke-width: 0.8"/>
      </g>
     </g>
    </g>
    <g id="xtick_16">
     <g id="line2d_31">
      <path d="M 125.969916 146.747947 
L 125.969916 12.07875 
" clip-path="url(#p6396f13683)" style="fill: none; stroke: #b0b0b0; stroke-width: 0.3; stroke-linecap: square"/>
     </g>
     <g id="line2d_32">
      <g>
       <use xlink:href="#m8fb2728fbb" x="125.969916" y="146.747947" style="stroke: #000000; stroke-width: 0.8"/>
      </g>
     </g>
    </g>
    <g id="xtick_17">
     <g id="line2d_33">
      <path d="M 132.61581 146.747947 
L 132.61581 12.07875 
" clip-path="url(#p6396f13683)" style="fill: none; stroke: #b0b0b0; stroke-width: 0.3; stroke-linecap: square"/>
     </g>
     <g id="line2d_34">
      <g>
       <use xlink:href="#m8fb2728fbb" x="132.61581" y="146.747947" style="stroke: #000000; stroke-width: 0.8"/>
      </g>
     </g>
    </g>
    <g id="xtick_18">
     <g id="line2d_35">
      <path d="M 139.261705 146.747947 
L 139.261705 12.07875 
" clip-path="url(#p6396f13683)" style="fill: none; stroke: #b0b0b0; stroke-width: 0.3; stroke-linecap: square"/>
     </g>
     <g id="line2d_36">
      <g>
       <use xlink:href="#m8fb2728fbb" x="139.261705" y="146.747947" style="stroke: #000000; stroke-width: 0.8"/>
      </g>
     </g>
    </g>
    <g id="xtick_19">
     <g id="line2d_37">
      <path d="M 152.553494 146.747947 
L 152.553494 12.07875 
" clip-path="url(#p6396f13683)" style="fill: none; stroke: #b0b0b0; stroke-width: 0.3; stroke-linecap: square"/>
     </g>
     <g id="line2d_38">
      <g>
       <use xlink:href="#m8fb2728fbb" x="152.553494" y="146.747947" style="stroke: #000000; stroke-width: 0.8"/>
      </g>
     </g>
    </g>
    <g id="xtick_20">
     <g id="line2d_39">
      <path d="M 159.199389 146.747947 
L 159.199389 12.07875 
" clip-path="url(#p6396f13683)" style="fill: none; stroke: #b0b0b0; stroke-width: 0.3; stroke-linecap: square"/>
     </g>
     <g id="line2d_40">
      <g>
       <use xlink:href="#m8fb2728fbb" x="159.199389" y="146.747947" style="stroke: #000000; stroke-width: 0.8"/>
      </g>
     </g>
    </g>
    <g id="xtick_21">
     <g id="line2d_41">
      <path d="M 165.845283 146.747947 
L 165.845283 12.07875 
" clip-path="url(#p6396f13683)" style="fill: none; stroke: #b0b0b0; stroke-width: 0.3; stroke-linecap: square"/>
     </g>
     <g id="line2d_42">
      <g>
       <use xlink:href="#m8fb2728fbb" x="165.845283" y="146.747947" style="stroke: #000000; stroke-width: 0.8"/>
      </g>
     </g>
    </g>
    <g id="xtick_22">
     <g id="line2d_43">
      <path d="M 172.491178 146.747947 
L 172.491178 12.07875 
" clip-path="url(#p6396f13683)" style="fill: none; stroke: #b0b0b0; stroke-width: 0.3; stroke-linecap: square"/>
     </g>
     <g id="line2d_44">
      <g>
       <use xlink:href="#m8fb2728fbb" x="172.491178" y="146.747947" style="stroke: #000000; stroke-width: 0.8"/>
      </g>
     </g>
    </g>
    <g id="xtick_23">
     <g id="line2d_45">
      <path d="M 185.782967 146.747947 
L 185.782967 12.07875 
" clip-path="url(#p6396f13683)" style="fill: none; stroke: #b0b0b0; stroke-width: 0.3; stroke-linecap: square"/>
     </g>
     <g id="line2d_46">
      <g>
       <use xlink:href="#m8fb2728fbb" x="185.782967" y="146.747947" style="stroke: #000000; stroke-width: 0.8"/>
      </g>
     </g>
    </g>
    <g id="xtick_24">
     <g id="line2d_47">
      <path d="M 192.428861 146.747947 
L 192.428861 12.07875 
" clip-path="url(#p6396f13683)" style="fill: none; stroke: #b0b0b0; stroke-width: 0.3; stroke-linecap: square"/>
     </g>
     <g id="line2d_48">
      <g>
       <use xlink:href="#m8fb2728fbb" x="192.428861" y="146.747947" style="stroke: #000000; stroke-width: 0.8"/>
      </g>
     </g>
    </g>
    <g id="text_6">
     <text style="font: 9.6px 'DejaVu Sans', 'Bitstream Vera Sans', 'Computer Modern Sans Serif', 'Lucida Grande', 'Verdana', 'Geneva', 'Lucid', 'Arial', 'Helvetica', 'Avant Garde', sans-serif; text-anchor: middle" x="114.3396" y="174.859197" transform="rotate(-0 114.3396 174.859197)">Wavelength (nm)</text>
    </g>
   </g>
   <g id="matplotlib.axis_2">
    <g id="ytick_1">
     <g id="line2d_49">
      <path d="M 35.58575 122.993877 
L 193.093451 122.993877 
" clip-path="url(#p6396f13683)" style="fill: none; stroke: #b0b0b0; stroke-width: 0.6; stroke-linecap: square"/>
     </g>
     <g id="line2d_50">
      <defs>
       <path id="me4e47931d8" d="M 0 0 
L -4.8 0 
" style="stroke: #000000"/>
      </defs>
      <g>
       <use xlink:href="#me4e47931d8" x="35.58575" y="122.993877" style="stroke: #000000"/>
      </g>
     </g>
     <g id="text_7">
      <text style="font: 8.8px 'DejaVu Sans', 'Bitstream Vera Sans', 'Computer Modern Sans Serif', 'Lucida Grande', 'Verdana', 'Geneva', 'Lucid', 'Arial', 'Helvetica', 'Avant Garde', sans-serif; text-anchor: end" x="27.28575" y="126.33719" transform="rotate(-0 27.28575 126.33719)">0.2</text>
     </g>
    </g>
    <g id="ytick_2">
     <g id="line2d_51">
      <path d="M 35.58575 96.795427 
L 193.093451 96.795427 
" clip-path="url(#p6396f13683)" style="fill: none; stroke: #b0b0b0; stroke-width: 0.6; stroke-linecap: square"/>
     </g>
     <g id="line2d_52">
      <g>
       <use xlink:href="#me4e47931d8" x="35.58575" y="96.795427" style="stroke: #000000"/>
      </g>
     </g>
     <g id="text_8">
      <text style="font: 8.8px 'DejaVu Sans', 'Bitstream Vera Sans', 'Computer Modern Sans Serif', 'Lucida Grande', 'Verdana', 'Geneva', 'Lucid', 'Arial', 'Helvetica', 'Avant Garde', sans-serif; text-anchor: end" x="27.28575" y="100.13874" transform="rotate(-0 27.28575 100.13874)">0.4</text>
     </g>
    </g>
    <g id="ytick_3">
     <g id="line2d_53">
      <path d="M 35.58575 70.596977 
L 193.093451 70.596977 
" clip-path="url(#p6396f13683)" style="fill: none; stroke: #b0b0b0; stroke-width: 0.6; stroke-linecap: square"/>
     </g>
     <g id="line2d_54">
      <g>
       <use xlink:href="#me4e47931d8" x="35.58575" y="70.596977" style="stroke: #000000"/>
      </g>
     </g>
     <g id="text_9">
      <text style="font: 8.8px 'DejaVu Sans', 'Bitstream Vera Sans', 'Computer Modern Sans Serif', 'Lucida Grande', 'Verdana', 'Geneva', 'Lucid', 'Arial', 'Helvetica', 'Avant Garde', sans-serif; text-anchor: end" x="27.28575" y="73.94029" transform="rotate(-0 27.28575 73.94029)">0.6</text>
     </g>
    </g>
    <g id="ytick_4">
     <g id="line2d_55">
      <path d="M 35.58575 44.398527 
L 193.093451 44.398527 
" clip-path="url(#p6396f13683)" style="fill: none; stroke: #b0b0b0; stroke-width: 0.6; stroke-linecap: square"/>
     </g>
     <g id="line2d_56">
      <g>
       <use xlink:href="#me4e47931d8" x="35.58575" y="44.398527" style="stroke: #000000"/>
      </g>
     </g>
     <g id="text_10">
      <text style="font: 8.8px 'DejaVu Sans', 'Bitstream Vera Sans', 'Computer Modern Sans Serif', 'Lucida Grande', 'Verdana', 'Geneva', 'Lucid', 'Arial', 'Helvetica', 'Avant Garde', sans-serif; text-anchor: end" x="27.28575" y="47.74184" transform="rotate(-0 27.28575 47.74184)">0.8</text>
     </g>
    </g>
    <g id="ytick_5">
     <g id="line2d_57">
      <path d="M 35.58575 18.200077 
L 193.093451 18.200077 
" clip-path="url(#p6396f13683)" style="fill: none; stroke: #b0b0b0; stroke-width: 0.6; stroke-linecap: square"/>
     </g>
     <g id="line2d_58">
      <g>
       <use xlink:href="#me4e47931d8" x="35.58575" y="18.200077" style="stroke: #000000"/>
      </g>
     </g>
     <g id="text_11">
      <text style="font: 8.8px 'DejaVu Sans', 'Bitstream Vera Sans', 'Computer Modern Sans Serif', 'Lucida Grande', 'Verdana', 'Geneva', 'Lucid', 'Arial', 'Helvetica', 'Avant Garde', sans-serif; text-anchor: end" x="27.28575" y="21.54339" transform="rotate(-0 27.28575 21.54339)">1.0</text>
     </g>
    </g>
    <g id="text_12">
     <text style="font: 9.6px 'DejaVu Sans', 'Bitstream Vera Sans', 'Computer Modern Sans Serif', 'Lucida Grande', 'Verdana', 'Geneva', 'Lucid', 'Arial', 'Helvetica', 'Avant Garde', sans-serif; text-anchor: middle" x="7.2945" y="79.413348" transform="rotate(-90 7.2945 79.413348)">Reflectance</text>
    </g>
   </g>
   <g id="line2d_59">
    <path d="M 36.250339 18.200077 
L 36.715552 18.293265 
L 36.981388 18.386248 
L 37.313683 18.274022 
L 37.645977 18.513824 
L 38.11119 18.239586 
L 38.443485 18.246056 
L 38.842238 18.434218 
L 38.975156 18.448485 
L 39.37391 18.40121 
L 39.706205 18.454337 
L 40.703089 18.323317 
L 41.965809 18.329552 
L 42.431021 18.583892 
L 43.494365 19.343396 
L 43.7602 19.586524 
L 44.358331 20.065987 
L 44.956461 20.372686 
L 45.355215 20.44896 
L 46.219181 20.950741 
L 46.684394 20.676549 
L 47.149607 20.78638 
L 47.614819 20.882022 
L 48.81108 20.485754 
L 49.741505 19.985227 
L 51.602356 18.724614 
L 52.399863 18.467815 
L 53.263829 18.286464 
L 54.194255 18.277953 
L 54.858844 18.226391 
L 55.523434 18.266206 
L 56.055105 18.610243 
L 56.719695 19.43277 
L 57.184907 19.886016 
L 59.178676 20.676242 
L 59.643888 21.370867 
L 60.308478 21.579572 
L 60.840149 21.914793 
L 61.371821 22.264198 
L 61.837033 22.454307 
L 62.368705 22.618059 
L 62.634541 22.714867 
L 63.232671 23.024092 
L 63.764343 22.985062 
L 65.758111 22.52526 
L 66.090406 22.431574 
L 66.622078 22.350971 
L 67.286667 22.295918 
L 67.818339 22.440264 
L 68.35001 22.821176 
L 68.682305 23.292401 
L 69.280435 24.510195 
L 69.812107 25.727717 
L 71.473581 27.983486 
L 72.669842 33.347157 
L 73.135054 36.837596 
L 74.464233 48.707242 
L 75.394658 53.883653 
L 76.458001 58.145756 
L 77.853639 61.607108 
L 79.182818 62.617462 
L 79.780949 63.368725 
L 81.309504 66.827179 
L 82.040553 69.025549 
L 82.505766 70.36168 
L 82.771601 70.435159 
L 83.768485 68.601012 
L 84.366616 68.202484 
L 84.698911 68.18235 
L 85.097664 68.278914 
L 85.695795 68.814248 
L 86.360384 69.278069 
L 86.559761 69.373385 
L 87.024974 69.339976 
L 87.490186 69.166152 
L 87.955399 68.732454 
L 88.154776 68.549316 
L 88.686447 67.448742 
L 89.351037 66.061026 
L 89.81625 65.504702 
L 90.215003 65.258051 
L 90.879593 64.680275 
L 92.208772 63.801142 
L 93.53795 62.839865 
L 94.069622 61.986627 
L 95.930472 57.83533 
L 97.32611 54.116365 
L 97.924241 52.49665 
L 99.785091 47.143227 
L 100.51614 44.988162 
L 101.180729 43.538658 
L 101.845319 42.721332 
L 102.443449 42.857168 
L 102.908662 43.44282 
L 103.240956 44.168945 
L 103.706169 45.637237 
L 104.104923 47.918216 
L 106.032232 71.173025 
L 106.962657 83.275019 
L 107.494329 87.922726 
L 107.893083 89.900656 
L 108.291836 90.858047 
L 108.624131 91.767633 
L 108.889967 92.816227 
L 109.355179 95.249484 
L 110.219146 100.136705 
L 110.484982 100.779201 
L 110.684358 100.981018 
L 111.21603 100.030268 
L 112.146455 97.642639 
L 112.744586 96.155688 
L 113.07688 95.850422 
L 113.409175 95.965467 
L 113.807929 96.576261 
L 114.206683 97.683148 
L 114.671895 99.622658 
L 116.067533 105.787394 
L 116.532746 106.804382 
L 116.798581 107.021431 
L 117.064417 107.009156 
L 119.058186 105.471895 
L 119.722775 104.89595 
L 120.05507 104.849505 
L 120.520282 105.26343 
L 121.517167 106.301405 
L 121.650084 106.303926 
L 122.048838 105.27858 
L 122.447592 102.475632 
L 122.912804 96.938297 
L 123.378017 89.390293 
L 124.507819 71.939744 
L 125.039491 66.369354 
L 125.770539 61.180224 
L 126.235752 59.238322 
L 126.700964 58.01195 
L 127.498472 56.273724 
L 128.030143 54.543066 
L 129.824535 48.524047 
L 130.09037 48.218673 
L 130.356206 48.203482 
L 130.75496 48.823179 
L 131.087255 49.806388 
L 132.084139 53.381665 
L 132.416434 53.901457 
L 133.014564 54.263678 
L 133.479777 54.395732 
L 133.679154 54.5722 
L 134.277284 55.626805 
L 135.14125 58.761396 
L 135.872299 62.653033 
L 136.935642 69.713895 
L 137.799608 77.522684 
L 138.464198 85.768963 
L 139.062328 92.368516 
L 139.261705 93.640077 
L 139.328164 93.471538 
L 139.594 92.793322 
L 141.122555 78.004649 
L 141.45485 76.961625 
L 141.654227 76.65667 
L 142.052981 76.756885 
L 142.385275 77.131018 
L 144.379044 80.653725 
L 146.638648 86.722816 
L 146.970943 86.974246 
L 147.369696 87.540224 
L 147.76845 87.736484 
L 148.100745 87.877279 
L 148.300122 87.672347 
L 148.433039 87.688545 
L 148.698875 87.464204 
L 149.03117 87.657147 
L 149.429924 87.518962 
L 149.562841 87.496484 
L 149.695759 87.493356 
L 149.895136 87.469696 
L 150.028054 87.595514 
L 150.360349 87.979176 
L 150.559726 87.601157 
L 150.759103 88.048898 
L 150.825561 87.906666 
L 151.024938 88.329513 
L 151.357233 88.724122 
L 151.55661 89.077949 
L 151.689528 89.332363 
L 151.755987 89.216964 
L 152.088281 89.818978 
L 152.221199 89.755064 
L 152.420576 90.903473 
L 152.487035 90.801805 
L 152.553494 90.701734 
L 152.619953 90.766772 
L 153.749755 92.788525 
L 153.882673 93.119647 
L 153.949132 92.997613 
L 154.148509 93.59913 
L 154.347886 93.352767 
L 154.746639 94.233183 
L 154.813098 94.155075 
L 155.012475 94.227684 
L 155.078934 94.061867 
L 155.145393 94.141407 
L 155.34477 94.365643 
L 155.544147 94.457084 
L 155.677064 94.281155 
L 155.809982 94.189481 
L 156.142277 93.956703 
L 156.408113 93.85491 
L 156.939784 93.370623 
L 157.139161 93.734359 
L 157.20562 93.631527 
L 157.272079 93.425888 
L 157.404997 93.878918 
L 157.471456 93.857867 
L 157.537915 93.567879 
L 157.604374 93.62142 
L 158.003128 94.447099 
L 158.069587 94.417981 
L 158.534799 95.273403 
L 159.531683 99.076466 
L 160.927321 107.521261 
L 161.193157 109.397603 
L 161.857746 114.535963 
L 162.322959 118.164057 
L 164.050892 131.112205 
L 164.516104 132.320655 
L 165.047776 134.534946 
L 165.446529 135.283989 
L 165.579447 135.273887 
L 165.978201 135.655039 
L 166.310496 136.323403 
L 166.576332 136.553174 
L 167.639675 138.013304 
L 167.772593 137.962193 
L 168.304264 138.884098 
L 168.503641 139.182819 
L 168.769477 139.033396 
L 168.968854 139.313842 
L 169.83282 139.863896 
L 170.032197 139.954504 
L 170.231574 139.94019 
L 171.09554 140.330547 
L 171.361376 140.314833 
L 171.627211 140.430867 
L 171.826588 140.62662 
L 172.025965 140.324324 
L 172.624096 140.467871 
L 172.757013 140.515906 
L 173.022849 140.418663 
L 173.155767 140.403717 
L 173.488062 140.251345 
L 173.554521 140.255456 
L 173.820357 139.877365 
L 174.019733 139.920122 
L 174.21911 140.107734 
L 174.418487 139.964594 
L 174.617864 139.613155 
L 174.817241 139.626592 
L 175.149536 139.379265 
L 175.415371 139.276514 
L 175.614748 139.017571 
L 175.814125 139.041499 
L 176.013502 138.986056 
L 176.079961 139.00976 
L 176.545173 138.230002 
L 176.811009 138.065434 
L 177.276222 137.947287 
L 177.674975 136.947708 
L 177.741434 137.023979 
L 178.00727 137.151888 
L 178.339565 136.448656 
L 179.668744 134.77326 
L 180.133956 134.002709 
L 180.333333 133.893879 
L 180.466251 133.790717 
L 180.665628 133.625927 
L 180.865005 133.385291 
L 181.263758 132.805452 
L 181.463135 132.246386 
L 181.529594 132.294052 
L 181.662512 132.375182 
L 181.79543 132.104437 
L 182.194184 131.160994 
L 182.393561 130.843336 
L 182.725855 130.100467 
L 183.124609 129.435236 
L 184.32087 126.458589 
L 184.719624 125.276437 
L 184.852542 124.915727 
L 185.118377 123.732425 
L 185.58359 122.840975 
L 186.84631 115.975685 
L 187.112146 115.308015 
L 187.976112 108.601366 
L 188.507784 104.607167 
L 188.840078 101.263175 
L 189.571127 93.205446 
L 189.836962 90.23923 
L 190.302175 82.14162 
L 190.63447 76.535609 
L 191.631354 50.059358 
L 192.229484 25.774965 
L 192.362402 18.200077 
L 192.362402 18.200077 
" clip-path="url(#p6396f13683)" style="fill: none; stroke: #1f77b4; stroke-width: 0.5; stroke-linecap: square"/>
   </g>
   <g id="line2d_60"/>
   <g id="patch_3">
    <path d="M 35.58575 146.747947 
L 35.58575 12.07875 
" style="fill: none; stroke: #000000; stroke-linejoin: miter; stroke-linecap: square"/>
   </g>
   <g id="patch_4">
    <path d="M 193.093451 146.747947 
L 193.093451 12.07875 
" style="fill: none; stroke: #000000; stroke-linejoin: miter; stroke-linecap: square"/>
   </g>
   <g id="patch_5">
    <path d="M 35.58575 146.747947 
L 193.093451 146.747947 
" style="fill: none; stroke: #000000; stroke-linejoin: miter; stroke-linecap: square"/>
   </g>
   <g id="patch_6">
    <path d="M 35.58575 12.07875 
L 193.093451 12.07875 
" style="fill: none; stroke: #000000; stroke-linejoin: miter; stroke-linecap: square"/>
   </g>
   <g id="text_13">
    <text style="font: 8px 'DejaVu Sans', 'Bitstream Vera Sans', 'Computer Modern Sans Serif', 'Lucida Grande', 'Verdana', 'Geneva', 'Lucid', 'Arial', 'Helvetica', 'Avant Garde', sans-serif; text-anchor: middle" x="114.3396" y="6.07875" transform="rotate(-0 114.3396 6.07875)">Laboratory Sulfates Kieserite</text>
   </g>
   <g id="legend_1">
    <g id="patch_7">
     <path d="M 200.443605 84.716786 
L 271.12173 84.716786 
Q 272.32173 84.716786 272.32173 83.516786 
L 272.32173 75.309911 
Q 272.32173 74.109911 271.12173 74.109911 
L 200.443605 74.109911 
Q 199.243605 74.109911 199.243605 75.309911 
L 199.243605 83.516786 
Q 199.243605 84.716786 200.443605 84.716786 
z
" style="fill: #ffffff; opacity: 0.8; stroke: #cccccc; stroke-width: 0.8; stroke-linejoin: miter"/>
    </g>
    <g id="line2d_61">
     <path d="M 201.643605 78.968973 
L 207.643605 78.968973 
L 213.643605 78.968973 
" style="fill: none; stroke: #1f77b4; stroke-width: 1.2; stroke-linecap: square"/>
    </g>
    <g id="text_14">
     <text style="font: 6px 'DejaVu Sans', 'Bitstream Vera Sans', 'Computer Modern Sans Serif', 'Lucida Grande', 'Verdana', 'Geneva', 'Lucid', 'Arial', 'Helvetica', 'Avant Garde', sans-serif; text-anchor: start" x="218.443605" y="81.068973" transform="rotate(-0 218.443605 81.068973)">Kieserite F1CC15</text>
    </g>
   </g>
  </g>
 </g>
 <defs>
  <clipPath id="p6396f13683">
   <rect x="35.58575" y="12.07875" width="157.507701" height="134.669197"/>
  </clipPath>
 </defs>
</svg>
