<?xml version="1.0" encoding="utf-8" standalone="no"?>
<!DOCTYPE svg PUBLIC "-//W3C//DTD SVG 1.1//EN"
  "http://www.w3.org/Graphics/SVG/1.1/DTD/svg11.dtd">
<svg xmlns:xlink="http://www.w3.org/1999/xlink" width="272.230442pt" height="176.645947pt" viewBox="0 0 272.230442 176.645947" xmlns="http://www.w3.org/2000/svg" version="1.1">
 <metadata>
  <rdf:RDF xmlns:dc="http://purl.org/dc/elements/1.1/" xmlns:cc="http://creativecommons.org/ns#" xmlns:rdf="http://www.w3.org/1999/02/22-rdf-syntax-ns#">
   <cc:Work>
    <dc:type rdf:resource="http://purl.org/dc/dcmitype/StillImage"/>
    <dc:date>2025-02-12T17:07:51.868638</dc:date>
    <dc:format>image/svg+xml</dc:format>
    <dc:creator>
     <cc:Agent>
      <dc:title>Matplotlib v3.6.2, https://matplotlib.org/</dc:title>
     </cc:Agent>
    </dc:creator>
   </cc:Work>
  </rdf:RDF>
 </metadata>
 <defs>
  <style type="text/css">*{stroke-linejoin: round; stroke-linecap: butt}</style>
 </defs>
 <g id="figure_1">
  <g id="patch_1">
   <path d="M 0 176.645947 
L 272.230442 176.645947 
L 272.230442 0 
L 0 0 
z
" style="fill: #ffffff"/>
  </g>
  <g id="axes_1">
   <g id="patch_2">
    <path d="M 41.18475 146.538197 
L 194.162451 146.538197 
L 194.162451 21.037 
L 41.18475 21.037 
z
" style="fill: #ffffff"/>
   </g>
   <g id="matplotlib.axis_1">
    <g id="xtick_1">
     <g id="line2d_1">
      <path d="M 51.512358 146.538197 
L 51.512358 21.037 
" clip-path="url(#pd87798dac4)" style="fill: none; stroke: #b0b0b0; stroke-width: 0.6; stroke-linecap: square"/>
     </g>
     <g id="line2d_2">
      <defs>
       <path id="m33b2feedc0" d="M 0 0 
L 0 4.8 
" style="stroke: #000000"/>
      </defs>
      <g>
       <use xlink:href="#m33b2feedc0" x="51.512358" y="146.538197" style="stroke: #000000"/>
      </g>
     </g>
     <g id="text_1">
      <text style="font: 8.8px 'DejaVu Sans', 'Bitstream Vera Sans', 'Computer Modern Sans Serif', 'Lucida Grande', 'Verdana', 'Geneva', 'Lucid', 'Arial', 'Helvetica', 'Avant Garde', sans-serif; text-anchor: middle" x="51.512358" y="161.524822" transform="rotate(-0 51.512358 161.524822)">1000</text>
     </g>
    </g>
    <g id="xtick_2">
     <g id="line2d_3">
      <path d="M 83.786135 146.538197 
L 83.786135 21.037 
" clip-path="url(#pd87798dac4)" style="fill: none; stroke: #b0b0b0; stroke-width: 0.6; stroke-linecap: square"/>
     </g>
     <g id="line2d_4">
      <g>
       <use xlink:href="#m33b2feedc0" x="83.786135" y="146.538197" style="stroke: #000000"/>
      </g>
     </g>
     <g id="text_2">
      <text style="font: 8.8px 'DejaVu Sans', 'Bitstream Vera Sans', 'Computer Modern Sans Serif', 'Lucida Grande', 'Verdana', 'Geneva', 'Lucid', 'Arial', 'Helvetica', 'Avant Garde', sans-serif; text-anchor: middle" x="83.786135" y="161.524822" transform="rotate(-0 83.786135 161.524822)">1500</text>
     </g>
    </g>
    <g id="xtick_3">
     <g id="line2d_5">
      <path d="M 116.059912 146.538197 
L 116.059912 21.037 
" clip-path="url(#pd87798dac4)" style="fill: none; stroke: #b0b0b0; stroke-width: 0.6; stroke-linecap: square"/>
     </g>
     <g id="line2d_6">
      <g>
       <use xlink:href="#m33b2feedc0" x="116.059912" y="146.538197" style="stroke: #000000"/>
      </g>
     </g>
     <g id="text_3">
      <text style="font: 8.8px 'DejaVu Sans', 'Bitstream Vera Sans', 'Computer Modern Sans Serif', 'Lucida Grande', 'Verdana', 'Geneva', 'Lucid', 'Arial', 'Helvetica', 'Avant Garde', sans-serif; text-anchor: middle" x="116.059912" y="161.524822" transform="rotate(-0 116.059912 161.524822)">2000</text>
     </g>
    </g>
    <g id="xtick_4">
     <g id="line2d_7">
      <path d="M 148.333688 146.538197 
L 148.333688 21.037 
" clip-path="url(#pd87798dac4)" style="fill: none; stroke: #b0b0b0; stroke-width: 0.6; stroke-linecap: square"/>
     </g>
     <g id="line2d_8">
      <g>
       <use xlink:href="#m33b2feedc0" x="148.333688" y="146.538197" style="stroke: #000000"/>
      </g>
     </g>
     <g id="text_4">
      <text style="font: 8.8px 'DejaVu Sans', 'Bitstream Vera Sans', 'Computer Modern Sans Serif', 'Lucida Grande', 'Verdana', 'Geneva', 'Lucid', 'Arial', 'Helvetica', 'Avant Garde', sans-serif; text-anchor: middle" x="148.333688" y="161.524822" transform="rotate(-0 148.333688 161.524822)">2500</text>
     </g>
    </g>
    <g id="xtick_5">
     <g id="line2d_9">
      <path d="M 180.607465 146.538197 
L 180.607465 21.037 
" clip-path="url(#pd87798dac4)" style="fill: none; stroke: #b0b0b0; stroke-width: 0.6; stroke-linecap: square"/>
     </g>
     <g id="line2d_10">
      <g>
       <use xlink:href="#m33b2feedc0" x="180.607465" y="146.538197" style="stroke: #000000"/>
      </g>
     </g>
     <g id="text_5">
      <text style="font: 8.8px 'DejaVu Sans', 'Bitstream Vera Sans', 'Computer Modern Sans Serif', 'Lucida Grande', 'Verdana', 'Geneva', 'Lucid', 'Arial', 'Helvetica', 'Avant Garde', sans-serif; text-anchor: middle" x="180.607465" y="161.524822" transform="rotate(-0 180.607465 161.524822)">3000</text>
     </g>
    </g>
    <g id="xtick_6">
     <g id="line2d_11">
      <path d="M 45.057603 146.538197 
L 45.057603 21.037 
" clip-path="url(#pd87798dac4)" style="fill: none; stroke: #b0b0b0; stroke-width: 0.3; stroke-linecap: square"/>
     </g>
     <g id="line2d_12">
      <defs>
       <path id="m003ceb41e9" d="M 0 0 
L 0 3.2 
" style="stroke: #000000; stroke-width: 0.8"/>
      </defs>
      <g>
       <use xlink:href="#m003ceb41e9" x="45.057603" y="146.538197" style="stroke: #000000; stroke-width: 0.8"/>
      </g>
     </g>
    </g>
    <g id="xtick_7">
     <g id="line2d_13">
      <path d="M 57.967114 146.538197 
L 57.967114 21.037 
" clip-path="url(#pd87798dac4)" style="fill: none; stroke: #b0b0b0; stroke-width: 0.3; stroke-linecap: square"/>
     </g>
     <g id="line2d_14">
      <g>
       <use xlink:href="#m003ceb41e9" x="57.967114" y="146.538197" style="stroke: #000000; stroke-width: 0.8"/>
      </g>
     </g>
    </g>
    <g id="xtick_8">
     <g id="line2d_15">
      <path d="M 64.421869 146.538197 
L 64.421869 21.037 
" clip-path="url(#pd87798dac4)" style="fill: none; stroke: #b0b0b0; stroke-width: 0.3; stroke-linecap: square"/>
     </g>
     <g id="line2d_16">
      <g>
       <use xlink:href="#m003ceb41e9" x="64.421869" y="146.538197" style="stroke: #000000; stroke-width: 0.8"/>
      </g>
     </g>
    </g>
    <g id="xtick_9">
     <g id="line2d_17">
      <path d="M 70.876624 146.538197 
L 70.876624 21.037 
" clip-path="url(#pd87798dac4)" style="fill: none; stroke: #b0b0b0; stroke-width: 0.3; stroke-linecap: square"/>
     </g>
     <g id="line2d_18">
      <g>
       <use xlink:href="#m003ceb41e9" x="70.876624" y="146.538197" style="stroke: #000000; stroke-width: 0.8"/>
      </g>
     </g>
    </g>
    <g id="xtick_10">
     <g id="line2d_19">
      <path d="M 77.33138 146.538197 
L 77.33138 21.037 
" clip-path="url(#pd87798dac4)" style="fill: none; stroke: #b0b0b0; stroke-width: 0.3; stroke-linecap: square"/>
     </g>
     <g id="line2d_20">
      <g>
       <use xlink:href="#m003ceb41e9" x="77.33138" y="146.538197" style="stroke: #000000; stroke-width: 0.8"/>
      </g>
     </g>
    </g>
    <g id="xtick_11">
     <g id="line2d_21">
      <path d="M 90.24089 146.538197 
L 90.24089 21.037 
" clip-path="url(#pd87798dac4)" style="fill: none; stroke: #b0b0b0; stroke-width: 0.3; stroke-linecap: square"/>
     </g>
     <g id="line2d_22">
      <g>
       <use xlink:href="#m003ceb41e9" x="90.24089" y="146.538197" style="stroke: #000000; stroke-width: 0.8"/>
      </g>
     </g>
    </g>
    <g id="xtick_12">
     <g id="line2d_23">
      <path d="M 96.695646 146.538197 
L 96.695646 21.037 
" clip-path="url(#pd87798dac4)" style="fill: none; stroke: #b0b0b0; stroke-width: 0.3; stroke-linecap: square"/>
     </g>
     <g id="line2d_24">
      <g>
       <use xlink:href="#m003ceb41e9" x="96.695646" y="146.538197" style="stroke: #000000; stroke-width: 0.8"/>
      </g>
     </g>
    </g>
    <g id="xtick_13">
     <g id="line2d_25">
      <path d="M 103.150401 146.538197 
L 103.150401 21.037 
" clip-path="url(#pd87798dac4)" style="fill: none; stroke: #b0b0b0; stroke-width: 0.3; stroke-linecap: square"/>
     </g>
     <g id="line2d_26">
      <g>
       <use xlink:href="#m003ceb41e9" x="103.150401" y="146.538197" style="stroke: #000000; stroke-width: 0.8"/>
      </g>
     </g>
    </g>
    <g id="xtick_14">
     <g id="line2d_27">
      <path d="M 109.605156 146.538197 
L 109.605156 21.037 
" clip-path="url(#pd87798dac4)" style="fill: none; stroke: #b0b0b0; stroke-width: 0.3; stroke-linecap: square"/>
     </g>
     <g id="line2d_28">
      <g>
       <use xlink:href="#m003ceb41e9" x="109.605156" y="146.538197" style="stroke: #000000; stroke-width: 0.8"/>
      </g>
     </g>
    </g>
    <g id="xtick_15">
     <g id="line2d_29">
      <path d="M 122.514667 146.538197 
L 122.514667 21.037 
" clip-path="url(#pd87798dac4)" style="fill: none; stroke: #b0b0b0; stroke-width: 0.3; stroke-linecap: square"/>
     </g>
     <g id="line2d_30">
      <g>
       <use xlink:href="#m003ceb41e9" x="122.514667" y="146.538197" style="stroke: #000000; stroke-width: 0.8"/>
      </g>
     </g>
    </g>
    <g id="xtick_16">
     <g id="line2d_31">
      <path d="M 128.969422 146.538197 
L 128.969422 21.037 
" clip-path="url(#pd87798dac4)" style="fill: none; stroke: #b0b0b0; stroke-width: 0.3; stroke-linecap: square"/>
     </g>
     <g id="line2d_32">
      <g>
       <use xlink:href="#m003ceb41e9" x="128.969422" y="146.538197" style="stroke: #000000; stroke-width: 0.8"/>
      </g>
     </g>
    </g>
    <g id="xtick_17">
     <g id="line2d_33">
      <path d="M 135.424177 146.538197 
L 135.424177 21.037 
" clip-path="url(#pd87798dac4)" style="fill: none; stroke: #b0b0b0; stroke-width: 0.3; stroke-linecap: square"/>
     </g>
     <g id="line2d_34">
      <g>
       <use xlink:href="#m003ceb41e9" x="135.424177" y="146.538197" style="stroke: #000000; stroke-width: 0.8"/>
      </g>
     </g>
    </g>
    <g id="xtick_18">
     <g id="line2d_35">
      <path d="M 141.878933 146.538197 
L 141.878933 21.037 
" clip-path="url(#pd87798dac4)" style="fill: none; stroke: #b0b0b0; stroke-width: 0.3; stroke-linecap: square"/>
     </g>
     <g id="line2d_36">
      <g>
       <use xlink:href="#m003ceb41e9" x="141.878933" y="146.538197" style="stroke: #000000; stroke-width: 0.8"/>
      </g>
     </g>
    </g>
    <g id="xtick_19">
     <g id="line2d_37">
      <path d="M 154.788443 146.538197 
L 154.788443 21.037 
" clip-path="url(#pd87798dac4)" style="fill: none; stroke: #b0b0b0; stroke-width: 0.3; stroke-linecap: square"/>
     </g>
     <g id="line2d_38">
      <g>
       <use xlink:href="#m003ceb41e9" x="154.788443" y="146.538197" style="stroke: #000000; stroke-width: 0.8"/>
      </g>
     </g>
    </g>
    <g id="xtick_20">
     <g id="line2d_39">
      <path d="M 161.243199 146.538197 
L 161.243199 21.037 
" clip-path="url(#pd87798dac4)" style="fill: none; stroke: #b0b0b0; stroke-width: 0.3; stroke-linecap: square"/>
     </g>
     <g id="line2d_40">
      <g>
       <use xlink:href="#m003ceb41e9" x="161.243199" y="146.538197" style="stroke: #000000; stroke-width: 0.8"/>
      </g>
     </g>
    </g>
    <g id="xtick_21">
     <g id="line2d_41">
      <path d="M 167.697954 146.538197 
L 167.697954 21.037 
" clip-path="url(#pd87798dac4)" style="fill: none; stroke: #b0b0b0; stroke-width: 0.3; stroke-linecap: square"/>
     </g>
     <g id="line2d_42">
      <g>
       <use xlink:href="#m003ceb41e9" x="167.697954" y="146.538197" style="stroke: #000000; stroke-width: 0.8"/>
      </g>
     </g>
    </g>
    <g id="xtick_22">
     <g id="line2d_43">
      <path d="M 174.152709 146.538197 
L 174.152709 21.037 
" clip-path="url(#pd87798dac4)" style="fill: none; stroke: #b0b0b0; stroke-width: 0.3; stroke-linecap: square"/>
     </g>
     <g id="line2d_44">
      <g>
       <use xlink:href="#m003ceb41e9" x="174.152709" y="146.538197" style="stroke: #000000; stroke-width: 0.8"/>
      </g>
     </g>
    </g>
    <g id="xtick_23">
     <g id="line2d_45">
      <path d="M 187.06222 146.538197 
L 187.06222 21.037 
" clip-path="url(#pd87798dac4)" style="fill: none; stroke: #b0b0b0; stroke-width: 0.3; stroke-linecap: square"/>
     </g>
     <g id="line2d_46">
      <g>
       <use xlink:href="#m003ceb41e9" x="187.06222" y="146.538197" style="stroke: #000000; stroke-width: 0.8"/>
      </g>
     </g>
    </g>
    <g id="xtick_24">
     <g id="line2d_47">
      <path d="M 193.516975 146.538197 
L 193.516975 21.037 
" clip-path="url(#pd87798dac4)" style="fill: none; stroke: #b0b0b0; stroke-width: 0.3; stroke-linecap: square"/>
     </g>
     <g id="line2d_48">
      <g>
       <use xlink:href="#m003ceb41e9" x="193.516975" y="146.538197" style="stroke: #000000; stroke-width: 0.8"/>
      </g>
     </g>
    </g>
    <g id="text_6">
     <text style="font: 9.6px 'DejaVu Sans', 'Bitstream Vera Sans', 'Computer Modern Sans Serif', 'Lucida Grande', 'Verdana', 'Geneva', 'Lucid', 'Arial', 'Helvetica', 'Avant Garde', sans-serif; text-anchor: middle" x="117.6736" y="174.649447" transform="rotate(-0 117.6736 174.649447)">Wavelength (nm)</text>
    </g>
   </g>
   <g id="matplotlib.axis_2">
    <g id="ytick_1">
     <g id="line2d_49">
      <path d="M 41.18475 141.373699 
L 194.162451 141.373699 
" clip-path="url(#pd87798dac4)" style="fill: none; stroke: #b0b0b0; stroke-width: 0.6; stroke-linecap: square"/>
     </g>
     <g id="line2d_50">
      <defs>
       <path id="mfe563fcca9" d="M 0 0 
L -4.8 0 
" style="stroke: #000000"/>
      </defs>
      <g>
       <use xlink:href="#mfe563fcca9" x="41.18475" y="141.373699" style="stroke: #000000"/>
      </g>
     </g>
     <g id="text_7">
      <text style="font: 8.8px 'DejaVu Sans', 'Bitstream Vera Sans', 'Computer Modern Sans Serif', 'Lucida Grande', 'Verdana', 'Geneva', 'Lucid', 'Arial', 'Helvetica', 'Avant Garde', sans-serif; text-anchor: end" x="32.88475" y="144.717011" transform="rotate(-0 32.88475 144.717011)">0.75</text>
     </g>
    </g>
    <g id="ytick_2">
     <g id="line2d_51">
      <path d="M 41.18475 118.447279 
L 194.162451 118.447279 
" clip-path="url(#pd87798dac4)" style="fill: none; stroke: #b0b0b0; stroke-width: 0.6; stroke-linecap: square"/>
     </g>
     <g id="line2d_52">
      <g>
       <use xlink:href="#mfe563fcca9" x="41.18475" y="118.447279" style="stroke: #000000"/>
      </g>
     </g>
     <g id="text_8">
      <text style="font: 8.8px 'DejaVu Sans', 'Bitstream Vera Sans', 'Computer Modern Sans Serif', 'Lucida Grande', 'Verdana', 'Geneva', 'Lucid', 'Arial', 'Helvetica', 'Avant Garde', sans-serif; text-anchor: end" x="32.88475" y="121.790591" transform="rotate(-0 32.88475 121.790591)">0.80</text>
     </g>
    </g>
    <g id="ytick_3">
     <g id="line2d_53">
      <path d="M 41.18475 95.520859 
L 194.162451 95.520859 
" clip-path="url(#pd87798dac4)" style="fill: none; stroke: #b0b0b0; stroke-width: 0.6; stroke-linecap: square"/>
     </g>
     <g id="line2d_54">
      <g>
       <use xlink:href="#mfe563fcca9" x="41.18475" y="95.520859" style="stroke: #000000"/>
      </g>
     </g>
     <g id="text_9">
      <text style="font: 8.8px 'DejaVu Sans', 'Bitstream Vera Sans', 'Computer Modern Sans Serif', 'Lucida Grande', 'Verdana', 'Geneva', 'Lucid', 'Arial', 'Helvetica', 'Avant Garde', sans-serif; text-anchor: end" x="32.88475" y="98.864172" transform="rotate(-0 32.88475 98.864172)">0.85</text>
     </g>
    </g>
    <g id="ytick_4">
     <g id="line2d_55">
      <path d="M 41.18475 72.594439 
L 194.162451 72.594439 
" clip-path="url(#pd87798dac4)" style="fill: none; stroke: #b0b0b0; stroke-width: 0.6; stroke-linecap: square"/>
     </g>
     <g id="line2d_56">
      <g>
       <use xlink:href="#mfe563fcca9" x="41.18475" y="72.594439" style="stroke: #000000"/>
      </g>
     </g>
     <g id="text_10">
      <text style="font: 8.8px 'DejaVu Sans', 'Bitstream Vera Sans', 'Computer Modern Sans Serif', 'Lucida Grande', 'Verdana', 'Geneva', 'Lucid', 'Arial', 'Helvetica', 'Avant Garde', sans-serif; text-anchor: end" x="32.88475" y="75.937752" transform="rotate(-0 32.88475 75.937752)">0.90</text>
     </g>
    </g>
    <g id="ytick_5">
     <g id="line2d_57">
      <path d="M 41.18475 49.66802 
L 194.162451 49.66802 
" clip-path="url(#pd87798dac4)" style="fill: none; stroke: #b0b0b0; stroke-width: 0.6; stroke-linecap: square"/>
     </g>
     <g id="line2d_58">
      <g>
       <use xlink:href="#mfe563fcca9" x="41.18475" y="49.66802" style="stroke: #000000"/>
      </g>
     </g>
     <g id="text_11">
      <text style="font: 8.8px 'DejaVu Sans', 'Bitstream Vera Sans', 'Computer Modern Sans Serif', 'Lucida Grande', 'Verdana', 'Geneva', 'Lucid', 'Arial', 'Helvetica', 'Avant Garde', sans-serif; text-anchor: end" x="32.88475" y="53.011332" transform="rotate(-0 32.88475 53.011332)">0.95</text>
     </g>
    </g>
    <g id="ytick_6">
     <g id="line2d_59">
      <path d="M 41.18475 26.7416 
L 194.162451 26.7416 
" clip-path="url(#pd87798dac4)" style="fill: none; stroke: #b0b0b0; stroke-width: 0.6; stroke-linecap: square"/>
     </g>
     <g id="line2d_60">
      <g>
       <use xlink:href="#mfe563fcca9" x="41.18475" y="26.7416" style="stroke: #000000"/>
      </g>
     </g>
     <g id="text_12">
      <text style="font: 8.8px 'DejaVu Sans', 'Bitstream Vera Sans', 'Computer Modern Sans Serif', 'Lucida Grande', 'Verdana', 'Geneva', 'Lucid', 'Arial', 'Helvetica', 'Avant Garde', sans-serif; text-anchor: end" x="32.88475" y="30.084912" transform="rotate(-0 32.88475 30.084912)">1.00</text>
     </g>
    </g>
    <g id="text_13">
     <text style="font: 9.6px 'DejaVu Sans', 'Bitstream Vera Sans', 'Computer Modern Sans Serif', 'Lucida Grande', 'Verdana', 'Geneva', 'Lucid', 'Arial', 'Helvetica', 'Avant Garde', sans-serif; text-anchor: middle" x="7.2945" y="83.787598" transform="rotate(-90 7.2945 83.787598)">Reflectance</text>
    </g>
   </g>
   <g id="line2d_61">
    <path d="M 41.830226 26.7416 
L 43.121177 82.04684 
L 44.08939 105.960259 
L 44.928508 123.619767 
L 45.509436 131.301931 
L 46.671292 140.833597 
L 47.25222 136.377831 
L 47.381315 135.99164 
L 47.704053 135.951066 
L 47.962243 136.265177 
L 48.026791 136.18809 
L 48.284981 135.885616 
L 48.865909 127.727376 
L 49.575932 117.855685 
L 52.674214 75.665212 
L 53.255142 70.540311 
L 53.642428 67.751008 
L 53.83607 66.635622 
L 54.094261 66.633243 
L 54.481546 64.824535 
L 54.739736 64.807523 
L 55.062474 65.429307 
L 55.514307 63.926177 
L 56.030687 63.271058 
L 56.417973 62.948979 
L 56.869805 61.613019 
L 57.192543 60.792478 
L 57.902566 59.345041 
L 58.031661 58.87313 
L 58.999875 54.468321 
L 59.580803 52.43352 
L 60.032635 49.443614 
L 60.678111 44.460283 
L 61.259039 41.977551 
L 61.904515 37.385865 
L 62.679085 33.460291 
L 63.582751 27.549718 
L 63.776394 26.7416 
L 63.840941 26.875012 
L 64.099131 27.403404 
L 64.421869 26.7416 
L 64.486417 26.788044 
L 65.067345 27.273303 
L 65.131892 27.166172 
L 65.45463 26.7416 
L 65.777368 26.802466 
L 66.358296 27.449689 
L 66.422843 27.307366 
L 66.681033 26.7416 
L 66.745581 26.839928 
L 67.003771 27.230914 
L 67.068319 27.158045 
L 67.520152 26.792096 
L 67.713794 26.821388 
L 68.294722 27.459862 
L 68.682008 26.7416 
L 69.004745 26.836435 
L 69.262936 27.21491 
L 69.327483 27.120075 
L 69.650221 26.75525 
L 70.166601 26.755202 
L 70.747529 26.7416 
L 71.586647 26.811 
L 71.973933 27.071228 
L 72.296671 26.924032 
L 72.554861 26.761807 
L 73.200336 27.064969 
L 73.458527 27.881811 
L 73.781264 26.947663 
L 73.845812 26.995176 
L 74.42674 27.333201 
L 74.814025 27.171038 
L 75.072215 26.7416 
L 75.588596 28.44684 
L 75.717691 28.680376 
L 76.169524 33.079453 
L 76.363166 33.855331 
L 76.427714 33.656942 
L 76.814999 32.782929 
L 77.33138 32.403627 
L 77.976855 34.771017 
L 78.751426 32.693044 
L 79.009616 32.552482 
L 79.267806 32.724541 
L 79.590544 34.667054 
L 80.171472 31.871133 
L 80.23602 31.652551 
L 80.687852 33.750866 
L 80.881495 34.035057 
L 81.26878 31.745998 
L 81.591518 31.633018 
L 81.849708 31.833185 
L 81.914256 31.747631 
L 82.366089 30.976958 
L 82.882469 29.782091 
L 83.140659 27.953838 
L 83.205207 28.199121 
L 83.592492 29.357984 
L 83.850683 29.815653 
L 84.302515 30.846959 
L 84.431611 31.026148 
L 84.754348 29.31172 
L 84.818896 29.329735 
L 85.077086 29.401772 
L 85.399824 28.2641 
L 85.916204 29.537423 
L 86.045299 29.737743 
L 86.432585 27.704423 
L 86.690775 27.522409 
L 87.207155 28.282239 
L 87.33625 28.378394 
L 87.981726 26.7416 
L 88.304464 28.722747 
L 88.369011 28.62101 
L 88.949939 27.873088 
L 89.337225 27.888815 
L 89.659962 27.758485 
L 90.305438 28.414582 
L 90.628176 28.155717 
L 91.080009 27.616515 
L 91.273651 27.574064 
L 91.596389 27.887987 
L 91.983674 28.595983 
L 92.306412 28.735349 
L 92.758245 28.606087 
L 92.951888 28.621125 
L 93.274625 28.614917 
L 93.661911 28.278371 
L 93.791006 28.125948 
L 94.242839 28.829121 
L 94.759219 29.079397 
L 95.275599 30.360844 
L 95.53379 30.554798 
L 95.727432 30.547203 
L 96.372908 27.897265 
L 96.889288 26.90107 
L 97.147479 26.741889 
L 97.405669 26.83451 
L 97.663859 27.206215 
L 98.309334 30.291855 
L 98.373882 30.261439 
L 98.632072 30.139753 
L 99.148453 27.687706 
L 99.277548 26.890429 
L 99.342095 27.101711 
L 99.858476 28.435553 
L 99.987571 28.546017 
L 100.310309 28.574153 
L 100.955784 29.218828 
L 101.343069 28.977508 
L 101.794902 28.26937 
L 102.182188 27.73884 
L 102.634021 27.499605 
L 102.827663 27.505975 
L 103.602234 29.023499 
L 104.118614 28.88119 
L 105.28047 30.96581 
L 105.409565 31.224599 
L 105.474113 31.15652 
L 106.184136 30.557278 
L 106.700516 30.612047 
L 107.345992 33.306864 
L 108.18511 46.525932 
L 108.636943 55.86351 
L 108.701491 55.293283 
L 109.411514 49.685923 
L 109.992442 47.768286 
L 110.57337 47.565164 
L 111.218845 51.664324 
L 111.283393 51.495808 
L 111.993416 49.887247 
L 112.509796 49.521552 
L 113.155272 50.639293 
L 113.800747 46.443742 
L 113.865295 46.523925 
L 114.446223 47.24578 
L 115.801721 43.306259 
L 116.382649 43.264157 
L 117.6736 39.755544 
L 117.802695 39.836063 
L 118.319076 40.158282 
L 119.093647 37.163308 
L 119.868217 36.013477 
L 120.32005 35.425487 
L 120.900978 33.702337 
L 120.965526 33.787202 
L 121.546454 34.551253 
L 121.611001 34.491141 
L 122.191929 33.949917 
L 122.901952 30.304011 
L 123.48288 30.181355 
L 124.773831 26.7416 
L 124.838379 26.829098 
L 125.612949 27.695672 
L 126.064782 27.878552 
L 126.774805 26.768912 
L 127.355733 27.015243 
L 128.065756 29.276865 
L 128.711232 29.272998 
L 129.743993 28.561347 
L 130.002183 28.534471 
L 130.647659 29.166981 
L 131.228587 29.042522 
L 131.874062 30.514857 
L 132.519538 28.246778 
L 133.165013 30.233356 
L 133.810489 27.919394 
L 134.455964 30.497893 
L 134.520512 30.329499 
L 135.10144 28.810616 
L 135.746915 30.789933 
L 136.392391 26.7416 
L 136.456938 26.771717 
L 137.037866 27.043929 
L 138.135175 29.668037 
L 138.328817 30.05614 
L 138.393365 30.009281 
L 139.232483 29.275303 
L 139.748864 28.518272 
L 140.265244 27.356001 
L 140.329792 27.47708 
L 141.16891 28.825818 
L 141.878933 29.382616 
L 142.976241 28.556829 
L 143.234431 28.678655 
L 144.58993 30.645683 
L 146.074524 30.883116 
L 146.849094 29.366674 
L 148.140045 26.798095 
L 148.656426 26.747095 
L 152.077446 26.7416 
L 152.077446 26.7416 
" clip-path="url(#pd87798dac4)" style="fill: none; stroke: #1f77b4; stroke-width: 0.5; stroke-linecap: square"/>
   </g>
   <g id="line2d_62"/>
   <g id="patch_3">
    <path d="M 41.18475 146.538197 
L 41.18475 21.037 
" style="fill: none; stroke: #000000; stroke-linejoin: miter; stroke-linecap: square"/>
   </g>
   <g id="patch_4">
    <path d="M 194.162451 146.538197 
L 194.162451 21.037 
" style="fill: none; stroke: #000000; stroke-linejoin: miter; stroke-linecap: square"/>
   </g>
   <g id="patch_5">
    <path d="M 41.18475 146.538197 
L 194.162451 146.538197 
" style="fill: none; stroke: #000000; stroke-linejoin: miter; stroke-linecap: square"/>
   </g>
   <g id="patch_6">
    <path d="M 41.18475 21.037 
L 194.162451 21.037 
" style="fill: none; stroke: #000000; stroke-linejoin: miter; stroke-linecap: square"/>
   </g>
   <g id="text_14">
    <text style="font: 8px 'DejaVu Sans', 'Bitstream Vera Sans', 'Computer Modern Sans Serif', 'Lucida Grande', 'Verdana', 'Geneva', 'Lucid', 'Arial', 'Helvetica', 'Avant Garde', sans-serif" transform="translate(67.076725 6.07875)">Laboratory Iron oxides &amp; </text>
    <text style="font: 8px 'DejaVu Sans', 'Bitstream Vera Sans', 'Computer Modern Sans Serif', 'Lucida Grande', 'Verdana', 'Geneva', 'Lucid', 'Arial', 'Helvetica', 'Avant Garde', sans-serif" transform="translate(63.4986 15.037)"> primary silicates Hematite</text>
   </g>
   <g id="legend_1">
    <g id="patch_7">
     <path d="M 201.422005 89.091036 
L 271.030442 89.091036 
Q 272.230442 89.091036 272.230442 87.891036 
L 272.230442 79.684161 
Q 272.230442 78.484161 271.030442 78.484161 
L 201.422005 78.484161 
Q 200.222005 78.484161 200.222005 79.684161 
L 200.222005 87.891036 
Q 200.222005 89.091036 201.422005 89.091036 
z
" style="fill: #ffffff; opacity: 0.8; stroke: #cccccc; stroke-width: 0.8; stroke-linejoin: miter"/>
    </g>
    <g id="line2d_63">
     <path d="M 202.622005 83.343223 
L 208.622005 83.343223 
L 214.622005 83.343223 
" style="fill: none; stroke: #1f77b4; stroke-width: 1.2; stroke-linecap: square"/>
    </g>
    <g id="text_15">
     <text style="font: 6px 'DejaVu Sans', 'Bitstream Vera Sans', 'Computer Modern Sans Serif', 'Lucida Grande', 'Verdana', 'Geneva', 'Lucid', 'Arial', 'Helvetica', 'Avant Garde', sans-serif; text-anchor: start" x="219.422005" y="85.443223" transform="rotate(-0 219.422005 85.443223)">Hematite GDS27</text>
    </g>
   </g>
  </g>
 </g>
 <defs>
  <clipPath id="pd87798dac4">
   <rect x="41.18475" y="21.037" width="152.977701" height="125.501197"/>
  </clipPath>
 </defs>
</svg>
