<?xml version="1.0" encoding="utf-8" standalone="no"?>
<!DOCTYPE svg PUBLIC "-//W3C//DTD SVG 1.1//EN"
  "http://www.w3.org/Graphics/SVG/1.1/DTD/svg11.dtd">
<svg xmlns:xlink="http://www.w3.org/1999/xlink" width="272.402905pt" height="176.855697pt" viewBox="0 0 272.402905 176.855697" xmlns="http://www.w3.org/2000/svg" version="1.1">
 <metadata>
  <rdf:RDF xmlns:dc="http://purl.org/dc/elements/1.1/" xmlns:cc="http://creativecommons.org/ns#" xmlns:rdf="http://www.w3.org/1999/02/22-rdf-syntax-ns#">
   <cc:Work>
    <dc:type rdf:resource="http://purl.org/dc/dcmitype/StillImage"/>
    <dc:date>2025-02-12T17:07:54.047947</dc:date>
    <dc:format>image/svg+xml</dc:format>
    <dc:creator>
     <cc:Agent>
      <dc:title>Matplotlib v3.6.2, https://matplotlib.org/</dc:title>
     </cc:Agent>
    </dc:creator>
   </cc:Work>
  </rdf:RDF>
 </metadata>
 <defs>
  <style type="text/css">*{stroke-linejoin: round; stroke-linecap: butt}</style>
 </defs>
 <g id="figure_1">
  <g id="patch_1">
   <path d="M 0 176.855697 
L 272.402905 176.855697 
L 272.402905 0 
L 0 0 
z
" style="fill: #ffffff"/>
  </g>
  <g id="axes_1">
   <g id="patch_2">
    <path d="M 41.18475 146.747947 
L 197.582451 146.747947 
L 197.582451 12.07875 
L 41.18475 12.07875 
z
" style="fill: #ffffff"/>
   </g>
   <g id="matplotlib.axis_1">
    <g id="xtick_1">
     <g id="line2d_1">
      <path d="M 51.743245 146.747947 
L 51.743245 12.07875 
" clip-path="url(#p40f1f48823)" style="fill: none; stroke: #b0b0b0; stroke-width: 0.6; stroke-linecap: square"/>
     </g>
     <g id="line2d_2">
      <defs>
       <path id="mf04d3d72a8" d="M 0 0 
L 0 4.8 
" style="stroke: #000000"/>
      </defs>
      <g>
       <use xlink:href="#mf04d3d72a8" x="51.743245" y="146.747947" style="stroke: #000000"/>
      </g>
     </g>
     <g id="text_1">
      <text style="font: 8.8px 'DejaVu Sans', 'Bitstream Vera Sans', 'Computer Modern Sans Serif', 'Lucida Grande', 'Verdana', 'Geneva', 'Lucid', 'Arial', 'Helvetica', 'Avant Garde', sans-serif; text-anchor: middle" x="51.743245" y="161.734572" transform="rotate(-0 51.743245 161.734572)">1000</text>
     </g>
    </g>
    <g id="xtick_2">
     <g id="line2d_3">
      <path d="M 84.73854 146.747947 
L 84.73854 12.07875 
" clip-path="url(#p40f1f48823)" style="fill: none; stroke: #b0b0b0; stroke-width: 0.6; stroke-linecap: square"/>
     </g>
     <g id="line2d_4">
      <g>
       <use xlink:href="#mf04d3d72a8" x="84.73854" y="146.747947" style="stroke: #000000"/>
      </g>
     </g>
     <g id="text_2">
      <text style="font: 8.8px 'DejaVu Sans', 'Bitstream Vera Sans', 'Computer Modern Sans Serif', 'Lucida Grande', 'Verdana', 'Geneva', 'Lucid', 'Arial', 'Helvetica', 'Avant Garde', sans-serif; text-anchor: middle" x="84.73854" y="161.734572" transform="rotate(-0 84.73854 161.734572)">1500</text>
     </g>
    </g>
    <g id="xtick_3">
     <g id="line2d_5">
      <path d="M 117.733836 146.747947 
L 117.733836 12.07875 
" clip-path="url(#p40f1f48823)" style="fill: none; stroke: #b0b0b0; stroke-width: 0.6; stroke-linecap: square"/>
     </g>
     <g id="line2d_6">
      <g>
       <use xlink:href="#mf04d3d72a8" x="117.733836" y="146.747947" style="stroke: #000000"/>
      </g>
     </g>
     <g id="text_3">
      <text style="font: 8.8px 'DejaVu Sans', 'Bitstream Vera Sans', 'Computer Modern Sans Serif', 'Lucida Grande', 'Verdana', 'Geneva', 'Lucid', 'Arial', 'Helvetica', 'Avant Garde', sans-serif; text-anchor: middle" x="117.733836" y="161.734572" transform="rotate(-0 117.733836 161.734572)">2000</text>
     </g>
    </g>
    <g id="xtick_4">
     <g id="line2d_7">
      <path d="M 150.729131 146.747947 
L 150.729131 12.07875 
" clip-path="url(#p40f1f48823)" style="fill: none; stroke: #b0b0b0; stroke-width: 0.6; stroke-linecap: square"/>
     </g>
     <g id="line2d_8">
      <g>
       <use xlink:href="#mf04d3d72a8" x="150.729131" y="146.747947" style="stroke: #000000"/>
      </g>
     </g>
     <g id="text_4">
      <text style="font: 8.8px 'DejaVu Sans', 'Bitstream Vera Sans', 'Computer Modern Sans Serif', 'Lucida Grande', 'Verdana', 'Geneva', 'Lucid', 'Arial', 'Helvetica', 'Avant Garde', sans-serif; text-anchor: middle" x="150.729131" y="161.734572" transform="rotate(-0 150.729131 161.734572)">2500</text>
     </g>
    </g>
    <g id="xtick_5">
     <g id="line2d_9">
      <path d="M 183.724427 146.747947 
L 183.724427 12.07875 
" clip-path="url(#p40f1f48823)" style="fill: none; stroke: #b0b0b0; stroke-width: 0.6; stroke-linecap: square"/>
     </g>
     <g id="line2d_10">
      <g>
       <use xlink:href="#mf04d3d72a8" x="183.724427" y="146.747947" style="stroke: #000000"/>
      </g>
     </g>
     <g id="text_5">
      <text style="font: 8.8px 'DejaVu Sans', 'Bitstream Vera Sans', 'Computer Modern Sans Serif', 'Lucida Grande', 'Verdana', 'Geneva', 'Lucid', 'Arial', 'Helvetica', 'Avant Garde', sans-serif; text-anchor: middle" x="183.724427" y="161.734572" transform="rotate(-0 183.724427 161.734572)">3000</text>
     </g>
    </g>
    <g id="xtick_6">
     <g id="line2d_11">
      <path d="M 45.144185 146.747947 
L 45.144185 12.07875 
" clip-path="url(#p40f1f48823)" style="fill: none; stroke: #b0b0b0; stroke-width: 0.3; stroke-linecap: square"/>
     </g>
     <g id="line2d_12">
      <defs>
       <path id="m71755c37c3" d="M 0 0 
L 0 3.2 
" style="stroke: #000000; stroke-width: 0.8"/>
      </defs>
      <g>
       <use xlink:href="#m71755c37c3" x="45.144185" y="146.747947" style="stroke: #000000; stroke-width: 0.8"/>
      </g>
     </g>
    </g>
    <g id="xtick_7">
     <g id="line2d_13">
      <path d="M 58.342304 146.747947 
L 58.342304 12.07875 
" clip-path="url(#p40f1f48823)" style="fill: none; stroke: #b0b0b0; stroke-width: 0.3; stroke-linecap: square"/>
     </g>
     <g id="line2d_14">
      <g>
       <use xlink:href="#m71755c37c3" x="58.342304" y="146.747947" style="stroke: #000000; stroke-width: 0.8"/>
      </g>
     </g>
    </g>
    <g id="xtick_8">
     <g id="line2d_15">
      <path d="M 64.941363 146.747947 
L 64.941363 12.07875 
" clip-path="url(#p40f1f48823)" style="fill: none; stroke: #b0b0b0; stroke-width: 0.3; stroke-linecap: square"/>
     </g>
     <g id="line2d_16">
      <g>
       <use xlink:href="#m71755c37c3" x="64.941363" y="146.747947" style="stroke: #000000; stroke-width: 0.8"/>
      </g>
     </g>
    </g>
    <g id="xtick_9">
     <g id="line2d_17">
      <path d="M 71.540422 146.747947 
L 71.540422 12.07875 
" clip-path="url(#p40f1f48823)" style="fill: none; stroke: #b0b0b0; stroke-width: 0.3; stroke-linecap: square"/>
     </g>
     <g id="line2d_18">
      <g>
       <use xlink:href="#m71755c37c3" x="71.540422" y="146.747947" style="stroke: #000000; stroke-width: 0.8"/>
      </g>
     </g>
    </g>
    <g id="xtick_10">
     <g id="line2d_19">
      <path d="M 78.139481 146.747947 
L 78.139481 12.07875 
" clip-path="url(#p40f1f48823)" style="fill: none; stroke: #b0b0b0; stroke-width: 0.3; stroke-linecap: square"/>
     </g>
     <g id="line2d_20">
      <g>
       <use xlink:href="#m71755c37c3" x="78.139481" y="146.747947" style="stroke: #000000; stroke-width: 0.8"/>
      </g>
     </g>
    </g>
    <g id="xtick_11">
     <g id="line2d_21">
      <path d="M 91.337599 146.747947 
L 91.337599 12.07875 
" clip-path="url(#p40f1f48823)" style="fill: none; stroke: #b0b0b0; stroke-width: 0.3; stroke-linecap: square"/>
     </g>
     <g id="line2d_22">
      <g>
       <use xlink:href="#m71755c37c3" x="91.337599" y="146.747947" style="stroke: #000000; stroke-width: 0.8"/>
      </g>
     </g>
    </g>
    <g id="xtick_12">
     <g id="line2d_23">
      <path d="M 97.936658 146.747947 
L 97.936658 12.07875 
" clip-path="url(#p40f1f48823)" style="fill: none; stroke: #b0b0b0; stroke-width: 0.3; stroke-linecap: square"/>
     </g>
     <g id="line2d_24">
      <g>
       <use xlink:href="#m71755c37c3" x="97.936658" y="146.747947" style="stroke: #000000; stroke-width: 0.8"/>
      </g>
     </g>
    </g>
    <g id="xtick_13">
     <g id="line2d_25">
      <path d="M 104.535717 146.747947 
L 104.535717 12.07875 
" clip-path="url(#p40f1f48823)" style="fill: none; stroke: #b0b0b0; stroke-width: 0.3; stroke-linecap: square"/>
     </g>
     <g id="line2d_26">
      <g>
       <use xlink:href="#m71755c37c3" x="104.535717" y="146.747947" style="stroke: #000000; stroke-width: 0.8"/>
      </g>
     </g>
    </g>
    <g id="xtick_14">
     <g id="line2d_27">
      <path d="M 111.134777 146.747947 
L 111.134777 12.07875 
" clip-path="url(#p40f1f48823)" style="fill: none; stroke: #b0b0b0; stroke-width: 0.3; stroke-linecap: square"/>
     </g>
     <g id="line2d_28">
      <g>
       <use xlink:href="#m71755c37c3" x="111.134777" y="146.747947" style="stroke: #000000; stroke-width: 0.8"/>
      </g>
     </g>
    </g>
    <g id="xtick_15">
     <g id="line2d_29">
      <path d="M 124.332895 146.747947 
L 124.332895 12.07875 
" clip-path="url(#p40f1f48823)" style="fill: none; stroke: #b0b0b0; stroke-width: 0.3; stroke-linecap: square"/>
     </g>
     <g id="line2d_30">
      <g>
       <use xlink:href="#m71755c37c3" x="124.332895" y="146.747947" style="stroke: #000000; stroke-width: 0.8"/>
      </g>
     </g>
    </g>
    <g id="xtick_16">
     <g id="line2d_31">
      <path d="M 130.931954 146.747947 
L 130.931954 12.07875 
" clip-path="url(#p40f1f48823)" style="fill: none; stroke: #b0b0b0; stroke-width: 0.3; stroke-linecap: square"/>
     </g>
     <g id="line2d_32">
      <g>
       <use xlink:href="#m71755c37c3" x="130.931954" y="146.747947" style="stroke: #000000; stroke-width: 0.8"/>
      </g>
     </g>
    </g>
    <g id="xtick_17">
     <g id="line2d_33">
      <path d="M 137.531013 146.747947 
L 137.531013 12.07875 
" clip-path="url(#p40f1f48823)" style="fill: none; stroke: #b0b0b0; stroke-width: 0.3; stroke-linecap: square"/>
     </g>
     <g id="line2d_34">
      <g>
       <use xlink:href="#m71755c37c3" x="137.531013" y="146.747947" style="stroke: #000000; stroke-width: 0.8"/>
      </g>
     </g>
    </g>
    <g id="xtick_18">
     <g id="line2d_35">
      <path d="M 144.130072 146.747947 
L 144.130072 12.07875 
" clip-path="url(#p40f1f48823)" style="fill: none; stroke: #b0b0b0; stroke-width: 0.3; stroke-linecap: square"/>
     </g>
     <g id="line2d_36">
      <g>
       <use xlink:href="#m71755c37c3" x="144.130072" y="146.747947" style="stroke: #000000; stroke-width: 0.8"/>
      </g>
     </g>
    </g>
    <g id="xtick_19">
     <g id="line2d_37">
      <path d="M 157.32819 146.747947 
L 157.32819 12.07875 
" clip-path="url(#p40f1f48823)" style="fill: none; stroke: #b0b0b0; stroke-width: 0.3; stroke-linecap: square"/>
     </g>
     <g id="line2d_38">
      <g>
       <use xlink:href="#m71755c37c3" x="157.32819" y="146.747947" style="stroke: #000000; stroke-width: 0.8"/>
      </g>
     </g>
    </g>
    <g id="xtick_20">
     <g id="line2d_39">
      <path d="M 163.927249 146.747947 
L 163.927249 12.07875 
" clip-path="url(#p40f1f48823)" style="fill: none; stroke: #b0b0b0; stroke-width: 0.3; stroke-linecap: square"/>
     </g>
     <g id="line2d_40">
      <g>
       <use xlink:href="#m71755c37c3" x="163.927249" y="146.747947" style="stroke: #000000; stroke-width: 0.8"/>
      </g>
     </g>
    </g>
    <g id="xtick_21">
     <g id="line2d_41">
      <path d="M 170.526308 146.747947 
L 170.526308 12.07875 
" clip-path="url(#p40f1f48823)" style="fill: none; stroke: #b0b0b0; stroke-width: 0.3; stroke-linecap: square"/>
     </g>
     <g id="line2d_42">
      <g>
       <use xlink:href="#m71755c37c3" x="170.526308" y="146.747947" style="stroke: #000000; stroke-width: 0.8"/>
      </g>
     </g>
    </g>
    <g id="xtick_22">
     <g id="line2d_43">
      <path d="M 177.125368 146.747947 
L 177.125368 12.07875 
" clip-path="url(#p40f1f48823)" style="fill: none; stroke: #b0b0b0; stroke-width: 0.3; stroke-linecap: square"/>
     </g>
     <g id="line2d_44">
      <g>
       <use xlink:href="#m71755c37c3" x="177.125368" y="146.747947" style="stroke: #000000; stroke-width: 0.8"/>
      </g>
     </g>
    </g>
    <g id="xtick_23">
     <g id="line2d_45">
      <path d="M 190.323486 146.747947 
L 190.323486 12.07875 
" clip-path="url(#p40f1f48823)" style="fill: none; stroke: #b0b0b0; stroke-width: 0.3; stroke-linecap: square"/>
     </g>
     <g id="line2d_46">
      <g>
       <use xlink:href="#m71755c37c3" x="190.323486" y="146.747947" style="stroke: #000000; stroke-width: 0.8"/>
      </g>
     </g>
    </g>
    <g id="xtick_24">
     <g id="line2d_47">
      <path d="M 196.922545 146.747947 
L 196.922545 12.07875 
" clip-path="url(#p40f1f48823)" style="fill: none; stroke: #b0b0b0; stroke-width: 0.3; stroke-linecap: square"/>
     </g>
     <g id="line2d_48">
      <g>
       <use xlink:href="#m71755c37c3" x="196.922545" y="146.747947" style="stroke: #000000; stroke-width: 0.8"/>
      </g>
     </g>
    </g>
    <g id="text_6">
     <text style="font: 9.6px 'DejaVu Sans', 'Bitstream Vera Sans', 'Computer Modern Sans Serif', 'Lucida Grande', 'Verdana', 'Geneva', 'Lucid', 'Arial', 'Helvetica', 'Avant Garde', sans-serif; text-anchor: middle" x="119.3836" y="174.859197" transform="rotate(-0 119.3836 174.859197)">Wavelength (nm)</text>
    </g>
   </g>
   <g id="matplotlib.axis_2">
    <g id="ytick_1">
     <g id="line2d_49">
      <path d="M 41.18475 134.135588 
L 197.582451 134.135588 
" clip-path="url(#p40f1f48823)" style="fill: none; stroke: #b0b0b0; stroke-width: 0.6; stroke-linecap: square"/>
     </g>
     <g id="line2d_50">
      <defs>
       <path id="mbf30d32f9a" d="M 0 0 
L -4.8 0 
" style="stroke: #000000"/>
      </defs>
      <g>
       <use xlink:href="#mbf30d32f9a" x="41.18475" y="134.135588" style="stroke: #000000"/>
      </g>
     </g>
     <g id="text_7">
      <text style="font: 8.8px 'DejaVu Sans', 'Bitstream Vera Sans', 'Computer Modern Sans Serif', 'Lucida Grande', 'Verdana', 'Geneva', 'Lucid', 'Arial', 'Helvetica', 'Avant Garde', sans-serif; text-anchor: end" x="32.88475" y="137.478901" transform="rotate(-0 32.88475 137.478901)">0.80</text>
     </g>
    </g>
    <g id="ytick_2">
     <g id="line2d_51">
      <path d="M 41.18475 105.15171 
L 197.582451 105.15171 
" clip-path="url(#p40f1f48823)" style="fill: none; stroke: #b0b0b0; stroke-width: 0.6; stroke-linecap: square"/>
     </g>
     <g id="line2d_52">
      <g>
       <use xlink:href="#mbf30d32f9a" x="41.18475" y="105.15171" style="stroke: #000000"/>
      </g>
     </g>
     <g id="text_8">
      <text style="font: 8.8px 'DejaVu Sans', 'Bitstream Vera Sans', 'Computer Modern Sans Serif', 'Lucida Grande', 'Verdana', 'Geneva', 'Lucid', 'Arial', 'Helvetica', 'Avant Garde', sans-serif; text-anchor: end" x="32.88475" y="108.495023" transform="rotate(-0 32.88475 108.495023)">0.85</text>
     </g>
    </g>
    <g id="ytick_3">
     <g id="line2d_53">
      <path d="M 41.18475 76.167833 
L 197.582451 76.167833 
" clip-path="url(#p40f1f48823)" style="fill: none; stroke: #b0b0b0; stroke-width: 0.6; stroke-linecap: square"/>
     </g>
     <g id="line2d_54">
      <g>
       <use xlink:href="#mbf30d32f9a" x="41.18475" y="76.167833" style="stroke: #000000"/>
      </g>
     </g>
     <g id="text_9">
      <text style="font: 8.8px 'DejaVu Sans', 'Bitstream Vera Sans', 'Computer Modern Sans Serif', 'Lucida Grande', 'Verdana', 'Geneva', 'Lucid', 'Arial', 'Helvetica', 'Avant Garde', sans-serif; text-anchor: end" x="32.88475" y="79.511145" transform="rotate(-0 32.88475 79.511145)">0.90</text>
     </g>
    </g>
    <g id="ytick_4">
     <g id="line2d_55">
      <path d="M 41.18475 47.183955 
L 197.582451 47.183955 
" clip-path="url(#p40f1f48823)" style="fill: none; stroke: #b0b0b0; stroke-width: 0.6; stroke-linecap: square"/>
     </g>
     <g id="line2d_56">
      <g>
       <use xlink:href="#mbf30d32f9a" x="41.18475" y="47.183955" style="stroke: #000000"/>
      </g>
     </g>
     <g id="text_10">
      <text style="font: 8.8px 'DejaVu Sans', 'Bitstream Vera Sans', 'Computer Modern Sans Serif', 'Lucida Grande', 'Verdana', 'Geneva', 'Lucid', 'Arial', 'Helvetica', 'Avant Garde', sans-serif; text-anchor: end" x="32.88475" y="50.527267" transform="rotate(-0 32.88475 50.527267)">0.95</text>
     </g>
    </g>
    <g id="ytick_5">
     <g id="line2d_57">
      <path d="M 41.18475 18.200077 
L 197.582451 18.200077 
" clip-path="url(#p40f1f48823)" style="fill: none; stroke: #b0b0b0; stroke-width: 0.6; stroke-linecap: square"/>
     </g>
     <g id="line2d_58">
      <g>
       <use xlink:href="#mbf30d32f9a" x="41.18475" y="18.200077" style="stroke: #000000"/>
      </g>
     </g>
     <g id="text_11">
      <text style="font: 8.8px 'DejaVu Sans', 'Bitstream Vera Sans', 'Computer Modern Sans Serif', 'Lucida Grande', 'Verdana', 'Geneva', 'Lucid', 'Arial', 'Helvetica', 'Avant Garde', sans-serif; text-anchor: end" x="32.88475" y="21.54339" transform="rotate(-0 32.88475 21.54339)">1.00</text>
     </g>
    </g>
    <g id="text_12">
     <text style="font: 9.6px 'DejaVu Sans', 'Bitstream Vera Sans', 'Computer Modern Sans Serif', 'Lucida Grande', 'Verdana', 'Geneva', 'Lucid', 'Arial', 'Helvetica', 'Avant Garde', sans-serif; text-anchor: middle" x="7.2945" y="79.413348" transform="rotate(-90 7.2945 79.413348)">Reflectance</text>
    </g>
   </g>
   <g id="line2d_59">
    <path d="M 41.844656 18.200077 
L 42.174609 18.200077 
L 42.636543 19.054279 
L 42.834515 19.224677 
L 43.230458 18.27255 
L 43.494421 18.273002 
L 43.824374 19.297347 
L 43.890364 19.197672 
L 44.154327 18.799018 
L 44.220317 18.848329 
L 44.55027 19.000886 
L 44.946214 18.849904 
L 45.144185 18.891413 
L 45.474138 19.895515 
L 45.540129 19.821135 
L 45.870082 19.572395 
L 46.332016 20.020715 
L 46.463997 20.189601 
L 46.79395 18.454335 
L 46.859941 18.687238 
L 47.123903 19.618747 
L 47.189894 19.518917 
L 47.453856 19.119641 
L 47.783809 19.667278 
L 47.8498 19.603286 
L 48.179753 19.404038 
L 48.707677 19.731494 
L 49.103621 19.857015 
L 49.433574 19.206636 
L 49.763527 20.481008 
L 50.15947 19.461943 
L 50.489423 19.627339 
L 50.753386 20.116172 
L 50.819376 20.059684 
L 51.149329 19.854073 
L 51.479282 19.854317 
L 51.743245 19.530264 
L 52.271169 21.449931 
L 52.40315 22.072201 
L 52.469141 21.983588 
L 52.865085 21.597914 
L 53.063056 21.55103 
L 53.459 20.774494 
L 53.920934 20.990299 
L 54.052915 21.092956 
L 54.382868 20.585033 
L 54.712821 22.176158 
L 54.778812 22.057738 
L 55.372727 21.215835 
L 55.70268 23.089344 
L 56.032633 20.999831 
L 56.362586 23.107646 
L 56.428577 22.881835 
L 57.022492 20.550816 
L 57.088482 20.684613 
L 57.352445 21.219741 
L 57.418435 21.105748 
L 57.682398 20.649826 
L 58.144332 21.463558 
L 58.342304 21.51096 
L 58.672257 22.359256 
L 59.00221 20.71281 
L 59.332163 22.610839 
L 59.398153 22.529582 
L 59.794097 21.877489 
L 59.992068 21.386892 
L 60.058059 21.498791 
L 60.322021 21.946339 
L 60.388012 21.843113 
L 60.651974 21.430255 
L 60.981927 22.154229 
L 61.31188 20.840968 
L 61.377871 20.914566 
L 61.839805 21.30316 
L 61.971786 21.365975 
L 62.301739 23.39478 
L 62.36773 23.123343 
L 62.763673 21.834815 
L 63.027636 21.262677 
L 63.291598 20.191494 
L 63.753532 22.062506 
L 63.951504 22.453124 
L 64.413438 21.329361 
L 64.743391 21.307581 
L 64.941363 21.39118 
L 65.271316 19.806079 
L 65.667259 21.755443 
L 65.931222 21.822646 
L 66.261175 20.804587 
L 66.327165 20.931473 
L 66.591128 21.438961 
L 66.657118 21.379748 
L 66.921081 21.142924 
L 67.251033 21.84271 
L 67.646977 20.614478 
L 67.910939 20.535759 
L 68.240892 21.159406 
L 68.702826 20.394649 
L 68.900798 20.250318 
L 69.296742 20.925804 
L 69.626695 20.888915 
L 70.022638 21.342983 
L 70.22061 21.685731 
L 70.286601 21.606471 
L 70.682544 20.967985 
L 70.880516 20.485814 
L 71.210469 21.382656 
L 71.540422 19.393435 
L 71.936365 21.698028 
L 72.200328 21.694531 
L 72.530281 20.760943 
L 72.596271 20.797308 
L 72.926224 20.912981 
L 73.322168 20.822012 
L 73.52014 20.864166 
L 73.850093 21.631195 
L 73.916083 21.545803 
L 74.180046 21.204273 
L 74.70797 22.080812 
L 74.839951 22.204487 
L 75.367876 24.862727 
L 75.631839 25.423814 
L 75.82981 25.598951 
L 76.159763 23.60387 
L 76.225754 23.685466 
L 76.555707 23.976698 
L 76.88566 23.894396 
L 77.149622 24.126924 
L 77.479575 23.457404 
L 77.809528 25.155936 
L 77.875519 24.923257 
L 78.337453 23.629521 
L 78.601415 23.325073 
L 78.799387 23.231494 
L 79.12934 24.775938 
L 79.591274 22.849278 
L 80.119199 22.011557 
L 80.515142 22.177294 
L 80.779105 22.539514 
L 80.845095 22.475897 
L 81.175048 22.258079 
L 81.636982 22.40849 
L 81.834954 22.336264 
L 82.098916 22.036915 
L 82.428869 23.011738 
L 82.956794 21.468841 
L 83.088775 20.967199 
L 83.154766 21.082914 
L 84.012644 22.375784 
L 84.078634 22.433031 
L 84.408587 20.817698 
L 84.474578 20.968501 
L 84.73854 21.571646 
L 84.804531 21.461507 
L 85.134484 21.029181 
L 85.464437 21.164875 
L 85.728399 21.576717 
L 85.79439 21.530656 
L 86.388305 21.021931 
L 86.454295 21.146169 
L 86.718258 21.643068 
L 86.784248 21.601929 
L 87.048211 21.437391 
L 87.378164 20.52063 
L 87.840098 21.322604 
L 88.10406 21.338645 
L 88.434013 21.231007 
L 88.697976 21.44997 
L 89.027929 20.444055 
L 89.423872 21.296505 
L 89.819816 21.268897 
L 90.017787 21.337888 
L 90.34774 22.05109 
L 90.677693 21.097866 
L 90.743684 21.218448 
L 91.007646 21.700723 
L 91.337599 18.804068 
L 91.40359 19.090297 
L 91.733543 20.233476 
L 91.997505 20.227025 
L 92.59142 21.0599 
L 92.657411 21.123074 
L 92.987364 20.018675 
L 93.317317 21.611713 
L 93.911232 19.80573 
L 94.307176 19.020818 
L 94.637129 20.485809 
L 94.967082 19.004352 
L 95.297035 20.936291 
L 95.363025 20.915874 
L 95.824959 20.66565 
L 96.154912 20.273169 
L 96.418875 20.031506 
L 96.616846 19.949105 
L 97.078781 20.484017 
L 97.606705 20.809416 
L 97.936658 18.200077 
L 98.266611 20.247297 
L 98.332602 20.016948 
L 98.596564 19.095311 
L 98.662555 19.166228 
L 98.992508 19.40095 
L 99.322461 19.285049 
L 99.718404 19.602247 
L 100.114348 19.489958 
L 100.31232 19.476383 
L 100.906235 19.863277 
L 101.236188 19.180045 
L 101.632131 20.637617 
L 101.962084 20.751578 
L 102.226047 21.136029 
L 102.819962 19.907761 
L 102.885953 19.743308 
L 102.951943 19.850137 
L 103.281896 20.272081 
L 103.74383 20.330572 
L 103.875811 20.38421 
L 104.205764 21.531133 
L 104.271755 21.503736 
L 104.601708 21.470271 
L 104.86567 21.774962 
L 105.327605 20.636473 
L 105.591567 20.557131 
L 105.855529 20.718472 
L 106.185482 19.632734 
L 106.647416 21.069914 
L 106.845388 21.212082 
L 107.307322 22.844303 
L 107.571285 23.025523 
L 107.901238 23.051771 
L 108.297181 23.452469 
L 108.495153 23.471841 
L 109.28704 26.489748 
L 109.814965 29.072067 
L 110.276899 25.507283 
L 110.474871 24.788503 
L 110.540861 24.943408 
L 110.804824 25.563193 
L 111.200767 24.4256 
L 111.860673 24.359309 
L 112.256617 24.932912 
L 112.454588 25.038481 
L 112.916522 24.53231 
L 113.444447 24.309523 
L 113.840391 25.71401 
L 114.104353 25.717543 
L 114.566287 27.068374 
L 114.962231 27.200025 
L 115.160203 27.143697 
L 115.424165 26.92007 
L 115.754118 27.830844 
L 115.820108 27.756945 
L 116.282043 27.371811 
L 116.414024 27.312154 
L 117.13992 29.22715 
L 117.403883 29.947825 
L 117.799826 28.869746 
L 118.525723 25.801017 
L 118.987657 24.621246 
L 119.3836 23.969474 
L 119.713553 24.15864 
L 120.175487 22.869888 
L 120.373459 22.089155 
L 120.703412 23.549143 
L 121.033365 21.895598 
L 121.363318 23.900183 
L 121.429309 23.765853 
L 121.693271 23.228393 
L 121.759262 23.345029 
L 122.023224 23.811698 
L 122.419168 22.974706 
L 122.68313 23.021218 
L 123.013083 22.355006 
L 123.343036 23.955383 
L 123.409026 23.782892 
L 123.738979 23.081547 
L 124.068932 23.086202 
L 124.332895 23.284143 
L 124.728838 24.307394 
L 124.992801 24.306427 
L 125.322754 23.238981 
L 125.718697 24.755685 
L 126.246622 24.576608 
L 126.312612 24.542436 
L 126.840537 26.969575 
L 127.17049 28.364026 
L 127.434453 28.875212 
L 127.896387 29.384456 
L 128.094358 29.468759 
L 128.29233 29.463349 
L 128.622283 27.732616 
L 128.688274 27.775934 
L 128.952236 27.949251 
L 129.34818 26.237632 
L 130.074076 26.168565 
L 130.272048 26.404583 
L 130.667991 25.381337 
L 131.063935 25.406412 
L 131.261907 25.328588 
L 131.59186 26.81432 
L 131.65785 26.644264 
L 131.987803 25.980094 
L 132.251766 26.045051 
L 132.845681 27.743185 
L 133.043653 28.403752 
L 133.505587 30.683137 
L 133.90153 32.356082 
L 134.297474 33.879501 
L 134.759408 36.628084 
L 134.891389 37.128484 
L 135.353323 42.09805 
L 135.617286 43.754774 
L 137.003088 59.084015 
L 137.860966 65.316915 
L 138.190919 65.888157 
L 139.048797 76.687943 
L 139.906674 90.77377 
L 140.170637 91.524462 
L 140.56658 86.012586 
L 140.962524 74.806897 
L 141.820401 45.512903 
L 142.414317 35.705509 
L 142.81026 31.885546 
L 143.470166 29.100976 
L 143.602147 29.222727 
L 143.998091 29.73913 
L 144.130072 29.961674 
L 144.460025 29.228807 
L 144.921959 30.147199 
L 145.119931 30.30337 
L 146.505733 40.152802 
L 147.957526 57.680239 
L 148.551442 69.102381 
L 149.541301 89.774749 
L 150.003235 95.237525 
L 150.795122 101.822776 
L 151.125075 103.267844 
L 151.521018 106.928984 
L 151.850971 112.374629 
L 152.312905 124.979434 
L 152.84083 138.543683 
L 153.038802 140.62662 
L 153.368755 135.954979 
L 154.028661 101.224866 
L 154.622576 70.305376 
L 155.282482 48.386765 
L 155.810407 42.673376 
L 156.14036 39.473639 
L 156.536303 35.592521 
L 156.668284 34.321691 
L 157.130218 25.931066 
L 157.32819 25.818489 
L 157.922106 22.22649 
L 157.988096 22.270743 
L 158.252059 25.487639 
L 158.318049 25.47657 
L 158.45003 22.712786 
L 158.648002 18.200077 
L 158.713993 18.630394 
L 158.977955 23.965775 
L 159.043946 23.353003 
L 159.439889 19.872792 
L 160.165786 18.525642 
L 160.561729 18.315058 
L 160.759701 18.200082 
L 160.957673 18.303891 
L 161.221635 18.429108 
L 161.551588 18.200077 
L 162.013522 19.134542 
L 162.343475 19.170848 
L 162.541447 19.674719 
L 162.8714 21.240247 
L 163.201353 25.277884 
L 163.663287 36.227257 
L 164.257202 50.1698 
L 164.719136 56.750832 
L 165.313052 65.062198 
L 165.577014 68.556391 
L 165.643005 68.790563 
L 165.708995 68.721435 
L 165.774986 68.652227 
L 165.906967 69.053732 
L 166.104939 70.356773 
L 166.830835 75.762405 
L 166.962817 75.968138 
L 167.160788 75.831122 
L 167.424751 77.342559 
L 167.754704 80.826975 
L 168.41461 88.478842 
L 168.612581 91.073668 
L 168.942534 98.029078 
L 169.866403 120.030063 
L 170.064374 118.159988 
L 171.252205 92.72382 
L 172.110083 83.549981 
L 173.561876 77.203559 
L 173.759847 77.011733 
L 174.155791 77.118412 
L 174.551735 76.330177 
L 174.881687 76.36349 
L 175.079659 76.552827 
L 175.21164 76.638544 
L 175.607584 75.971305 
L 175.673575 76.120799 
L 176.003528 76.624993 
L 176.26749 76.58933 
L 176.795415 76.232205 
L 177.38933 76.357247 
L 177.785273 76.134924 
L 178.115226 75.698875 
L 178.643151 75.309063 
L 179.830982 73.300197 
L 179.896972 73.290472 
L 180.886831 71.163517 
L 181.216784 69.829163 
L 181.8107 68.357494 
L 181.942681 68.056347 
L 182.800558 64.896042 
L 183.394474 63.097971 
L 183.658436 62.322122 
L 183.856408 61.81883 
L 185.836126 57.396435 
L 186.232069 56.973185 
L 186.562022 56.72032 
L 187.155937 56.395684 
L 187.287919 56.468911 
L 187.749853 56.876601 
L 188.409759 56.845223 
L 188.739712 56.631696 
L 188.871693 56.778387 
L 189.135655 57.581937 
L 189.399617 59.003055 
L 190.257495 67.021174 
L 190.78542 71.089432 
L 190.983392 71.632889 
L 191.115373 71.346359 
L 191.379335 68.99513 
L 191.775279 62.204152 
L 192.237213 55.349691 
L 192.567166 53.999035 
L 192.699147 54.041707 
L 193.0291 54.743781 
L 193.557025 55.950119 
L 193.689006 55.89574 
L 193.820987 55.585875 
L 194.018959 54.242365 
L 194.216931 51.666407 
L 194.744855 39.947498 
L 195.338771 28.851265 
L 195.866695 23.418026 
L 196.592592 19.2492 
L 196.856554 18.200077 
L 196.856554 18.200077 
" clip-path="url(#p40f1f48823)" style="fill: none; stroke: #1f77b4; stroke-width: 0.5; stroke-linecap: square"/>
   </g>
   <g id="line2d_60"/>
   <g id="patch_3">
    <path d="M 41.18475 146.747947 
L 41.18475 12.07875 
" style="fill: none; stroke: #000000; stroke-linejoin: miter; stroke-linecap: square"/>
   </g>
   <g id="patch_4">
    <path d="M 197.582451 146.747947 
L 197.582451 12.07875 
" style="fill: none; stroke: #000000; stroke-linejoin: miter; stroke-linecap: square"/>
   </g>
   <g id="patch_5">
    <path d="M 41.18475 146.747947 
L 197.582451 146.747947 
" style="fill: none; stroke: #000000; stroke-linejoin: miter; stroke-linecap: square"/>
   </g>
   <g id="patch_6">
    <path d="M 41.18475 12.07875 
L 197.582451 12.07875 
" style="fill: none; stroke: #000000; stroke-linejoin: miter; stroke-linecap: square"/>
   </g>
   <g id="text_13">
    <text style="font: 8px 'DejaVu Sans', 'Bitstream Vera Sans', 'Computer Modern Sans Serif', 'Lucida Grande', 'Verdana', 'Geneva', 'Lucid', 'Arial', 'Helvetica', 'Avant Garde', sans-serif; text-anchor: middle" x="119.3836" y="6.07875" transform="rotate(-0 119.3836 6.07875)">Laboratory Carbonates Calcite</text>
   </g>
   <g id="legend_1">
    <g id="patch_7">
     <path d="M 204.910405 84.716786 
L 271.202905 84.716786 
Q 272.402905 84.716786 272.402905 83.516786 
L 272.402905 75.309911 
Q 272.402905 74.109911 271.202905 74.109911 
L 204.910405 74.109911 
Q 203.710405 74.109911 203.710405 75.309911 
L 203.710405 83.516786 
Q 203.710405 84.716786 204.910405 84.716786 
z
" style="fill: #ffffff; opacity: 0.8; stroke: #cccccc; stroke-width: 0.8; stroke-linejoin: miter"/>
    </g>
    <g id="line2d_61">
     <path d="M 206.110405 78.968973 
L 212.110405 78.968973 
L 218.110405 78.968973 
" style="fill: none; stroke: #1f77b4; stroke-width: 1.2; stroke-linecap: square"/>
    </g>
    <g id="text_14">
     <text style="font: 6px 'DejaVu Sans', 'Bitstream Vera Sans', 'Computer Modern Sans Serif', 'Lucida Grande', 'Verdana', 'Geneva', 'Lucid', 'Arial', 'Helvetica', 'Avant Garde', sans-serif; text-anchor: start" x="222.910405" y="81.068973" transform="rotate(-0 222.910405 81.068973)">Calcite CAGR01</text>
    </g>
   </g>
  </g>
 </g>
 <defs>
  <clipPath id="p40f1f48823">
   <rect x="41.18475" y="12.07875" width="156.397701" height="134.669197"/>
  </clipPath>
 </defs>
</svg>
