<?xml version="1.0" encoding="utf-8" standalone="no"?>
<!DOCTYPE svg PUBLIC "-//W3C//DTD SVG 1.1//EN"
  "http://www.w3.org/Graphics/SVG/1.1/DTD/svg11.dtd">
<svg xmlns:xlink="http://www.w3.org/1999/xlink" width="272.229705pt" height="176.855697pt" viewBox="0 0 272.229705 176.855697" xmlns="http://www.w3.org/2000/svg" version="1.1">
 <metadata>
  <rdf:RDF xmlns:dc="http://purl.org/dc/elements/1.1/" xmlns:cc="http://creativecommons.org/ns#" xmlns:rdf="http://www.w3.org/1999/02/22-rdf-syntax-ns#">
   <cc:Work>
    <dc:type rdf:resource="http://purl.org/dc/dcmitype/StillImage"/>
    <dc:date>2025-02-12T17:07:52.547540</dc:date>
    <dc:format>image/svg+xml</dc:format>
    <dc:creator>
     <cc:Agent>
      <dc:title>Matplotlib v3.6.2, https://matplotlib.org/</dc:title>
     </cc:Agent>
    </dc:creator>
   </cc:Work>
  </rdf:RDF>
 </metadata>
 <defs>
  <style type="text/css">*{stroke-linejoin: round; stroke-linecap: butt}</style>
 </defs>
 <g id="figure_1">
  <g id="patch_1">
   <path d="M -0 176.855697 
L 272.229705 176.855697 
L 272.229705 0 
L -0 0 
z
" style="fill: #ffffff"/>
  </g>
  <g id="axes_1">
   <g id="patch_2">
    <path d="M 35.58575 146.747947 
L 191.023451 146.747947 
L 191.023451 12.07875 
L 35.58575 12.07875 
z
" style="fill: #ffffff"/>
   </g>
   <g id="matplotlib.axis_1">
    <g id="xtick_1">
     <g id="line2d_1">
      <path d="M 46.079434 146.747947 
L 46.079434 12.07875 
" clip-path="url(#pad9533612e)" style="fill: none; stroke: #b0b0b0; stroke-width: 0.6; stroke-linecap: square"/>
     </g>
     <g id="line2d_2">
      <defs>
       <path id="m2cbd4feb25" d="M 0 0 
L 0 4.8 
" style="stroke: #000000"/>
      </defs>
      <g>
       <use xlink:href="#m2cbd4feb25" x="46.079434" y="146.747947" style="stroke: #000000"/>
      </g>
     </g>
     <g id="text_1">
      <text style="font: 8.8px 'DejaVu Sans', 'Bitstream Vera Sans', 'Computer Modern Sans Serif', 'Lucida Grande', 'Verdana', 'Geneva', 'Lucid', 'Arial', 'Helvetica', 'Avant Garde', sans-serif; text-anchor: middle" x="46.079434" y="161.734572" transform="rotate(-0 46.079434 161.734572)">1000</text>
     </g>
    </g>
    <g id="xtick_2">
     <g id="line2d_3">
      <path d="M 78.872198 146.747947 
L 78.872198 12.07875 
" clip-path="url(#pad9533612e)" style="fill: none; stroke: #b0b0b0; stroke-width: 0.6; stroke-linecap: square"/>
     </g>
     <g id="line2d_4">
      <g>
       <use xlink:href="#m2cbd4feb25" x="78.872198" y="146.747947" style="stroke: #000000"/>
      </g>
     </g>
     <g id="text_2">
      <text style="font: 8.8px 'DejaVu Sans', 'Bitstream Vera Sans', 'Computer Modern Sans Serif', 'Lucida Grande', 'Verdana', 'Geneva', 'Lucid', 'Arial', 'Helvetica', 'Avant Garde', sans-serif; text-anchor: middle" x="78.872198" y="161.734572" transform="rotate(-0 78.872198 161.734572)">1500</text>
     </g>
    </g>
    <g id="xtick_3">
     <g id="line2d_5">
      <path d="M 111.664962 146.747947 
L 111.664962 12.07875 
" clip-path="url(#pad9533612e)" style="fill: none; stroke: #b0b0b0; stroke-width: 0.6; stroke-linecap: square"/>
     </g>
     <g id="line2d_6">
      <g>
       <use xlink:href="#m2cbd4feb25" x="111.664962" y="146.747947" style="stroke: #000000"/>
      </g>
     </g>
     <g id="text_3">
      <text style="font: 8.8px 'DejaVu Sans', 'Bitstream Vera Sans', 'Computer Modern Sans Serif', 'Lucida Grande', 'Verdana', 'Geneva', 'Lucid', 'Arial', 'Helvetica', 'Avant Garde', sans-serif; text-anchor: middle" x="111.664962" y="161.734572" transform="rotate(-0 111.664962 161.734572)">2000</text>
     </g>
    </g>
    <g id="xtick_4">
     <g id="line2d_7">
      <path d="M 144.457726 146.747947 
L 144.457726 12.07875 
" clip-path="url(#pad9533612e)" style="fill: none; stroke: #b0b0b0; stroke-width: 0.6; stroke-linecap: square"/>
     </g>
     <g id="line2d_8">
      <g>
       <use xlink:href="#m2cbd4feb25" x="144.457726" y="146.747947" style="stroke: #000000"/>
      </g>
     </g>
     <g id="text_4">
      <text style="font: 8.8px 'DejaVu Sans', 'Bitstream Vera Sans', 'Computer Modern Sans Serif', 'Lucida Grande', 'Verdana', 'Geneva', 'Lucid', 'Arial', 'Helvetica', 'Avant Garde', sans-serif; text-anchor: middle" x="144.457726" y="161.734572" transform="rotate(-0 144.457726 161.734572)">2500</text>
     </g>
    </g>
    <g id="xtick_5">
     <g id="line2d_9">
      <path d="M 177.25049 146.747947 
L 177.25049 12.07875 
" clip-path="url(#pad9533612e)" style="fill: none; stroke: #b0b0b0; stroke-width: 0.6; stroke-linecap: square"/>
     </g>
     <g id="line2d_10">
      <g>
       <use xlink:href="#m2cbd4feb25" x="177.25049" y="146.747947" style="stroke: #000000"/>
      </g>
     </g>
     <g id="text_5">
      <text style="font: 8.8px 'DejaVu Sans', 'Bitstream Vera Sans', 'Computer Modern Sans Serif', 'Lucida Grande', 'Verdana', 'Geneva', 'Lucid', 'Arial', 'Helvetica', 'Avant Garde', sans-serif; text-anchor: middle" x="177.25049" y="161.734572" transform="rotate(-0 177.25049 161.734572)">3000</text>
     </g>
    </g>
    <g id="xtick_6">
     <g id="line2d_11">
      <path d="M 39.520882 146.747947 
L 39.520882 12.07875 
" clip-path="url(#pad9533612e)" style="fill: none; stroke: #b0b0b0; stroke-width: 0.3; stroke-linecap: square"/>
     </g>
     <g id="line2d_12">
      <defs>
       <path id="mb034d622f7" d="M 0 0 
L 0 3.2 
" style="stroke: #000000; stroke-width: 0.8"/>
      </defs>
      <g>
       <use xlink:href="#mb034d622f7" x="39.520882" y="146.747947" style="stroke: #000000; stroke-width: 0.8"/>
      </g>
     </g>
    </g>
    <g id="xtick_7">
     <g id="line2d_13">
      <path d="M 52.637987 146.747947 
L 52.637987 12.07875 
" clip-path="url(#pad9533612e)" style="fill: none; stroke: #b0b0b0; stroke-width: 0.3; stroke-linecap: square"/>
     </g>
     <g id="line2d_14">
      <g>
       <use xlink:href="#mb034d622f7" x="52.637987" y="146.747947" style="stroke: #000000; stroke-width: 0.8"/>
      </g>
     </g>
    </g>
    <g id="xtick_8">
     <g id="line2d_15">
      <path d="M 59.19654 146.747947 
L 59.19654 12.07875 
" clip-path="url(#pad9533612e)" style="fill: none; stroke: #b0b0b0; stroke-width: 0.3; stroke-linecap: square"/>
     </g>
     <g id="line2d_16">
      <g>
       <use xlink:href="#mb034d622f7" x="59.19654" y="146.747947" style="stroke: #000000; stroke-width: 0.8"/>
      </g>
     </g>
    </g>
    <g id="xtick_9">
     <g id="line2d_17">
      <path d="M 65.755093 146.747947 
L 65.755093 12.07875 
" clip-path="url(#pad9533612e)" style="fill: none; stroke: #b0b0b0; stroke-width: 0.3; stroke-linecap: square"/>
     </g>
     <g id="line2d_18">
      <g>
       <use xlink:href="#mb034d622f7" x="65.755093" y="146.747947" style="stroke: #000000; stroke-width: 0.8"/>
      </g>
     </g>
    </g>
    <g id="xtick_10">
     <g id="line2d_19">
      <path d="M 72.313646 146.747947 
L 72.313646 12.07875 
" clip-path="url(#pad9533612e)" style="fill: none; stroke: #b0b0b0; stroke-width: 0.3; stroke-linecap: square"/>
     </g>
     <g id="line2d_20">
      <g>
       <use xlink:href="#mb034d622f7" x="72.313646" y="146.747947" style="stroke: #000000; stroke-width: 0.8"/>
      </g>
     </g>
    </g>
    <g id="xtick_11">
     <g id="line2d_21">
      <path d="M 85.430751 146.747947 
L 85.430751 12.07875 
" clip-path="url(#pad9533612e)" style="fill: none; stroke: #b0b0b0; stroke-width: 0.3; stroke-linecap: square"/>
     </g>
     <g id="line2d_22">
      <g>
       <use xlink:href="#mb034d622f7" x="85.430751" y="146.747947" style="stroke: #000000; stroke-width: 0.8"/>
      </g>
     </g>
    </g>
    <g id="xtick_12">
     <g id="line2d_23">
      <path d="M 91.989304 146.747947 
L 91.989304 12.07875 
" clip-path="url(#pad9533612e)" style="fill: none; stroke: #b0b0b0; stroke-width: 0.3; stroke-linecap: square"/>
     </g>
     <g id="line2d_24">
      <g>
       <use xlink:href="#mb034d622f7" x="91.989304" y="146.747947" style="stroke: #000000; stroke-width: 0.8"/>
      </g>
     </g>
    </g>
    <g id="xtick_13">
     <g id="line2d_25">
      <path d="M 98.547857 146.747947 
L 98.547857 12.07875 
" clip-path="url(#pad9533612e)" style="fill: none; stroke: #b0b0b0; stroke-width: 0.3; stroke-linecap: square"/>
     </g>
     <g id="line2d_26">
      <g>
       <use xlink:href="#mb034d622f7" x="98.547857" y="146.747947" style="stroke: #000000; stroke-width: 0.8"/>
      </g>
     </g>
    </g>
    <g id="xtick_14">
     <g id="line2d_27">
      <path d="M 105.106409 146.747947 
L 105.106409 12.07875 
" clip-path="url(#pad9533612e)" style="fill: none; stroke: #b0b0b0; stroke-width: 0.3; stroke-linecap: square"/>
     </g>
     <g id="line2d_28">
      <g>
       <use xlink:href="#mb034d622f7" x="105.106409" y="146.747947" style="stroke: #000000; stroke-width: 0.8"/>
      </g>
     </g>
    </g>
    <g id="xtick_15">
     <g id="line2d_29">
      <path d="M 118.223515 146.747947 
L 118.223515 12.07875 
" clip-path="url(#pad9533612e)" style="fill: none; stroke: #b0b0b0; stroke-width: 0.3; stroke-linecap: square"/>
     </g>
     <g id="line2d_30">
      <g>
       <use xlink:href="#mb034d622f7" x="118.223515" y="146.747947" style="stroke: #000000; stroke-width: 0.8"/>
      </g>
     </g>
    </g>
    <g id="xtick_16">
     <g id="line2d_31">
      <path d="M 124.782068 146.747947 
L 124.782068 12.07875 
" clip-path="url(#pad9533612e)" style="fill: none; stroke: #b0b0b0; stroke-width: 0.3; stroke-linecap: square"/>
     </g>
     <g id="line2d_32">
      <g>
       <use xlink:href="#mb034d622f7" x="124.782068" y="146.747947" style="stroke: #000000; stroke-width: 0.8"/>
      </g>
     </g>
    </g>
    <g id="xtick_17">
     <g id="line2d_33">
      <path d="M 131.340621 146.747947 
L 131.340621 12.07875 
" clip-path="url(#pad9533612e)" style="fill: none; stroke: #b0b0b0; stroke-width: 0.3; stroke-linecap: square"/>
     </g>
     <g id="line2d_34">
      <g>
       <use xlink:href="#mb034d622f7" x="131.340621" y="146.747947" style="stroke: #000000; stroke-width: 0.8"/>
      </g>
     </g>
    </g>
    <g id="xtick_18">
     <g id="line2d_35">
      <path d="M 137.899173 146.747947 
L 137.899173 12.07875 
" clip-path="url(#pad9533612e)" style="fill: none; stroke: #b0b0b0; stroke-width: 0.3; stroke-linecap: square"/>
     </g>
     <g id="line2d_36">
      <g>
       <use xlink:href="#mb034d622f7" x="137.899173" y="146.747947" style="stroke: #000000; stroke-width: 0.8"/>
      </g>
     </g>
    </g>
    <g id="xtick_19">
     <g id="line2d_37">
      <path d="M 151.016279 146.747947 
L 151.016279 12.07875 
" clip-path="url(#pad9533612e)" style="fill: none; stroke: #b0b0b0; stroke-width: 0.3; stroke-linecap: square"/>
     </g>
     <g id="line2d_38">
      <g>
       <use xlink:href="#mb034d622f7" x="151.016279" y="146.747947" style="stroke: #000000; stroke-width: 0.8"/>
      </g>
     </g>
    </g>
    <g id="xtick_20">
     <g id="line2d_39">
      <path d="M 157.574832 146.747947 
L 157.574832 12.07875 
" clip-path="url(#pad9533612e)" style="fill: none; stroke: #b0b0b0; stroke-width: 0.3; stroke-linecap: square"/>
     </g>
     <g id="line2d_40">
      <g>
       <use xlink:href="#mb034d622f7" x="157.574832" y="146.747947" style="stroke: #000000; stroke-width: 0.8"/>
      </g>
     </g>
    </g>
    <g id="xtick_21">
     <g id="line2d_41">
      <path d="M 164.133384 146.747947 
L 164.133384 12.07875 
" clip-path="url(#pad9533612e)" style="fill: none; stroke: #b0b0b0; stroke-width: 0.3; stroke-linecap: square"/>
     </g>
     <g id="line2d_42">
      <g>
       <use xlink:href="#mb034d622f7" x="164.133384" y="146.747947" style="stroke: #000000; stroke-width: 0.8"/>
      </g>
     </g>
    </g>
    <g id="xtick_22">
     <g id="line2d_43">
      <path d="M 170.691937 146.747947 
L 170.691937 12.07875 
" clip-path="url(#pad9533612e)" style="fill: none; stroke: #b0b0b0; stroke-width: 0.3; stroke-linecap: square"/>
     </g>
     <g id="line2d_44">
      <g>
       <use xlink:href="#mb034d622f7" x="170.691937" y="146.747947" style="stroke: #000000; stroke-width: 0.8"/>
      </g>
     </g>
    </g>
    <g id="xtick_23">
     <g id="line2d_45">
      <path d="M 183.809043 146.747947 
L 183.809043 12.07875 
" clip-path="url(#pad9533612e)" style="fill: none; stroke: #b0b0b0; stroke-width: 0.3; stroke-linecap: square"/>
     </g>
     <g id="line2d_46">
      <g>
       <use xlink:href="#mb034d622f7" x="183.809043" y="146.747947" style="stroke: #000000; stroke-width: 0.8"/>
      </g>
     </g>
    </g>
    <g id="xtick_24">
     <g id="line2d_47">
      <path d="M 190.367596 146.747947 
L 190.367596 12.07875 
" clip-path="url(#pad9533612e)" style="fill: none; stroke: #b0b0b0; stroke-width: 0.3; stroke-linecap: square"/>
     </g>
     <g id="line2d_48">
      <g>
       <use xlink:href="#mb034d622f7" x="190.367596" y="146.747947" style="stroke: #000000; stroke-width: 0.8"/>
      </g>
     </g>
    </g>
    <g id="text_6">
     <text style="font: 9.6px 'DejaVu Sans', 'Bitstream Vera Sans', 'Computer Modern Sans Serif', 'Lucida Grande', 'Verdana', 'Geneva', 'Lucid', 'Arial', 'Helvetica', 'Avant Garde', sans-serif; text-anchor: middle" x="113.3046" y="174.859197" transform="rotate(-0 113.3046 174.859197)">Wavelength (nm)</text>
    </g>
   </g>
   <g id="matplotlib.axis_2">
    <g id="ytick_1">
     <g id="line2d_49">
      <path d="M 35.58575 126.939326 
L 191.023451 126.939326 
" clip-path="url(#pad9533612e)" style="fill: none; stroke: #b0b0b0; stroke-width: 0.6; stroke-linecap: square"/>
     </g>
     <g id="line2d_50">
      <defs>
       <path id="m7cafd93243" d="M 0 0 
L -4.8 0 
" style="stroke: #000000"/>
      </defs>
      <g>
       <use xlink:href="#m7cafd93243" x="35.58575" y="126.939326" style="stroke: #000000"/>
      </g>
     </g>
     <g id="text_7">
      <text style="font: 8.8px 'DejaVu Sans', 'Bitstream Vera Sans', 'Computer Modern Sans Serif', 'Lucida Grande', 'Verdana', 'Geneva', 'Lucid', 'Arial', 'Helvetica', 'Avant Garde', sans-serif; text-anchor: end" x="27.28575" y="130.282639" transform="rotate(-0 27.28575 130.282639)">0.2</text>
     </g>
    </g>
    <g id="ytick_2">
     <g id="line2d_51">
      <path d="M 35.58575 99.754514 
L 191.023451 99.754514 
" clip-path="url(#pad9533612e)" style="fill: none; stroke: #b0b0b0; stroke-width: 0.6; stroke-linecap: square"/>
     </g>
     <g id="line2d_52">
      <g>
       <use xlink:href="#m7cafd93243" x="35.58575" y="99.754514" style="stroke: #000000"/>
      </g>
     </g>
     <g id="text_8">
      <text style="font: 8.8px 'DejaVu Sans', 'Bitstream Vera Sans', 'Computer Modern Sans Serif', 'Lucida Grande', 'Verdana', 'Geneva', 'Lucid', 'Arial', 'Helvetica', 'Avant Garde', sans-serif; text-anchor: end" x="27.28575" y="103.097827" transform="rotate(-0 27.28575 103.097827)">0.4</text>
     </g>
    </g>
    <g id="ytick_3">
     <g id="line2d_53">
      <path d="M 35.58575 72.569702 
L 191.023451 72.569702 
" clip-path="url(#pad9533612e)" style="fill: none; stroke: #b0b0b0; stroke-width: 0.6; stroke-linecap: square"/>
     </g>
     <g id="line2d_54">
      <g>
       <use xlink:href="#m7cafd93243" x="35.58575" y="72.569702" style="stroke: #000000"/>
      </g>
     </g>
     <g id="text_9">
      <text style="font: 8.8px 'DejaVu Sans', 'Bitstream Vera Sans', 'Computer Modern Sans Serif', 'Lucida Grande', 'Verdana', 'Geneva', 'Lucid', 'Arial', 'Helvetica', 'Avant Garde', sans-serif; text-anchor: end" x="27.28575" y="75.913014" transform="rotate(-0 27.28575 75.913014)">0.6</text>
     </g>
    </g>
    <g id="ytick_4">
     <g id="line2d_55">
      <path d="M 35.58575 45.384889 
L 191.023451 45.384889 
" clip-path="url(#pad9533612e)" style="fill: none; stroke: #b0b0b0; stroke-width: 0.6; stroke-linecap: square"/>
     </g>
     <g id="line2d_56">
      <g>
       <use xlink:href="#m7cafd93243" x="35.58575" y="45.384889" style="stroke: #000000"/>
      </g>
     </g>
     <g id="text_10">
      <text style="font: 8.8px 'DejaVu Sans', 'Bitstream Vera Sans', 'Computer Modern Sans Serif', 'Lucida Grande', 'Verdana', 'Geneva', 'Lucid', 'Arial', 'Helvetica', 'Avant Garde', sans-serif; text-anchor: end" x="27.28575" y="48.728202" transform="rotate(-0 27.28575 48.728202)">0.8</text>
     </g>
    </g>
    <g id="ytick_5">
     <g id="line2d_57">
      <path d="M 35.58575 18.200077 
L 191.023451 18.200077 
" clip-path="url(#pad9533612e)" style="fill: none; stroke: #b0b0b0; stroke-width: 0.6; stroke-linecap: square"/>
     </g>
     <g id="line2d_58">
      <g>
       <use xlink:href="#m7cafd93243" x="35.58575" y="18.200077" style="stroke: #000000"/>
      </g>
     </g>
     <g id="text_11">
      <text style="font: 8.8px 'DejaVu Sans', 'Bitstream Vera Sans', 'Computer Modern Sans Serif', 'Lucida Grande', 'Verdana', 'Geneva', 'Lucid', 'Arial', 'Helvetica', 'Avant Garde', sans-serif; text-anchor: end" x="27.28575" y="21.54339" transform="rotate(-0 27.28575 21.54339)">1.0</text>
     </g>
    </g>
    <g id="text_12">
     <text style="font: 9.6px 'DejaVu Sans', 'Bitstream Vera Sans', 'Computer Modern Sans Serif', 'Lucida Grande', 'Verdana', 'Geneva', 'Lucid', 'Arial', 'Helvetica', 'Avant Garde', sans-serif; text-anchor: middle" x="7.2945" y="79.413348" transform="rotate(-90 7.2945 79.413348)">Reflectance</text>
    </g>
   </g>
   <g id="line2d_59">
    <path d="M 36.241605 18.200077 
L 36.569533 18.819058 
L 36.635118 18.771105 
L 37.028632 18.607564 
L 37.946829 18.708275 
L 38.733855 18.281284 
L 39.061783 18.332003 
L 40.111151 18.572828 
L 40.701421 18.590104 
L 40.898178 18.561221 
L 41.422862 18.820518 
L 41.619619 18.78742 
L 42.275474 18.635686 
L 42.734573 18.967937 
L 42.931329 18.948472 
L 43.128086 18.873122 
L 43.521599 19.494479 
L 43.849526 19.517159 
L 44.24304 19.945881 
L 44.767724 20.215382 
L 45.226823 20.802093 
L 45.489165 20.954504 
L 45.817092 21.283221 
L 46.407362 20.960706 
L 47.063217 20.01618 
L 47.719073 19.877989 
L 48.178171 19.197715 
L 48.63727 18.951088 
L 48.965198 18.595256 
L 49.096369 18.544159 
L 49.489882 18.58257 
L 49.81781 18.527911 
L 50.080152 18.557548 
L 50.53925 18.41223 
L 50.801592 18.329218 
L 51.063935 18.243653 
L 51.391862 18.3744 
L 51.71979 18.247836 
L 52.375645 18.614898 
L 53.293842 18.393729 
L 53.752941 18.550291 
L 54.277625 18.50434 
L 55.786093 19.25076 
L 55.982849 19.583597 
L 56.441948 20.56137 
L 56.638704 20.961425 
L 57.556902 24.08042 
L 57.950415 24.136819 
L 58.343928 24.506096 
L 58.999783 24.454903 
L 59.393297 24.482084 
L 59.852395 24.59924 
L 60.442665 23.281404 
L 60.639422 23.114919 
L 61.032935 23.045198 
L 61.229691 22.995632 
L 61.623205 22.472817 
L 62.344645 21.282718 
L 63.656356 20.22863 
L 63.853112 20.206539 
L 64.246626 19.978698 
L 64.574553 19.964756 
L 65.427165 19.722897 
L 65.820678 19.70202 
L 66.279777 19.928426 
L 66.542119 20.030363 
L 67.132389 20.55291 
L 68.181757 22.501449 
L 70.280494 27.340966 
L 71.001935 28.5046 
L 71.461034 28.783148 
L 71.723376 28.815042 
L 71.985718 29.058018 
L 72.707159 32.092618 
L 73.494185 38.121445 
L 74.215626 44.124256 
L 74.412382 45.68063 
L 74.74031 49.549815 
L 75.396165 58.432405 
L 75.592922 58.618251 
L 76.248777 50.921294 
L 76.970218 48.390038 
L 77.494902 47.729857 
L 77.560488 47.671319 
L 77.888415 48.140619 
L 78.216343 49.827674 
L 78.281929 49.759055 
L 78.544271 49.484443 
L 79.72481 41.737308 
L 79.921567 41.313245 
L 80.511837 41.55143 
L 81.102106 42.718656 
L 81.298863 42.900878 
L 81.495619 42.943165 
L 81.954718 41.124743 
L 82.676159 36.304943 
L 83.135258 34.042548 
L 83.594356 32.343435 
L 83.856698 31.724344 
L 84.446968 29.704057 
L 87.398317 22.138472 
L 89.234712 19.060519 
L 90.087324 18.303772 
L 90.612008 18.200077 
L 90.743179 18.259034 
L 91.071106 18.446917 
L 91.333449 18.252561 
L 92.317232 21.003024 
L 92.907501 23.658422 
L 93.563357 27.72811 
L 95.071824 36.45169 
L 95.26858 36.816811 
L 95.334166 36.759491 
L 95.596508 36.529675 
L 96.44912 33.369382 
L 97.301732 31.219692 
L 97.957587 28.210033 
L 98.810199 23.782676 
L 99.53164 21.346451 
L 100.384251 19.505687 
L 100.712179 19.096448 
L 101.105692 18.897689 
L 101.236863 18.956776 
L 102.02389 20.068162 
L 102.286232 20.971434 
L 102.679745 23.057281 
L 103.204429 26.895835 
L 104.712896 46.765695 
L 106.483706 74.918164 
L 107.795416 100.093038 
L 108.057758 101.394748 
L 108.123344 101.26497 
L 108.385686 100.744525 
L 108.779199 96.06915 
L 109.435054 84.766292 
L 109.959738 82.355664 
L 110.156495 81.222846 
L 110.81235 75.994741 
L 111.140278 71.868023 
L 111.533791 63.401222 
L 112.386403 43.890539 
L 113.042258 35.625837 
L 113.89487 29.596165 
L 114.616311 26.075775 
L 115.403337 24.213624 
L 115.79685 24.115275 
L 116.124778 24.04202 
L 116.321535 23.899284 
L 117.239732 22.812723 
L 117.698831 23.235064 
L 118.485857 24.541585 
L 120.387837 28.81056 
L 121.37162 30.456839 
L 122.027476 32.104582 
L 122.814502 34.111815 
L 123.339186 34.895581 
L 123.535943 34.991917 
L 124.126212 34.860838 
L 124.782068 35.432206 
L 125.765851 38.855152 
L 126.093778 39.236803 
L 126.487291 37.316142 
L 127.143147 32.126296 
L 127.733417 29.569982 
L 128.389272 28.801447 
L 129.373055 30.371372 
L 129.700982 29.396139 
L 130.356838 24.321169 
L 131.209449 20.644915 
L 131.602963 19.680559 
L 132.127647 18.842989 
L 133.045844 18.234147 
L 133.636114 18.200077 
L 134.42314 19.99254 
L 135.60368 24.815005 
L 136.390706 30.360703 
L 137.243318 39.013681 
L 138.948542 59.704832 
L 139.473226 62.477525 
L 139.801154 63.397475 
L 140.522594 64.925106 
L 140.916108 65.063726 
L 141.309621 64.999226 
L 141.571963 65.216466 
L 142.293404 66.971816 
L 143.146016 69.724744 
L 143.539529 69.499299 
L 143.933042 68.819782 
L 144.523312 67.126103 
L 145.638266 62.799804 
L 145.966193 61.619916 
L 146.687634 60.091796 
L 147.015562 59.659675 
L 147.409075 59.232413 
L 147.737002 59.696206 
L 147.802588 59.604713 
L 148.06493 59.050155 
L 148.196101 59.189555 
L 148.589614 59.622643 
L 148.851956 59.097678 
L 148.917542 59.135347 
L 149.114299 59.586197 
L 149.638983 59.229982 
L 149.770154 59.195939 
L 150.55718 58.231892 
L 150.688351 58.304605 
L 150.819522 57.798088 
L 150.885108 57.839403 
L 151.016279 58.30541 
L 151.081864 58.195724 
L 151.344206 57.788962 
L 151.540963 57.921154 
L 151.73772 57.768325 
L 152.131233 57.731068 
L 152.393575 57.510164 
L 152.590332 57.545471 
L 152.655917 57.538456 
L 152.787088 57.771451 
L 152.852674 57.729027 
L 153.115016 57.033841 
L 153.180601 57.059601 
L 153.377358 57.737007 
L 153.508529 57.682803 
L 153.6397 57.512809 
L 153.770871 57.829034 
L 154.164384 59.06796 
L 154.557897 60.173117 
L 156.787805 71.822284 
L 157.640417 79.319327 
L 158.558615 90.47677 
L 159.21447 98.682017 
L 161.969062 129.032008 
L 162.624917 132.239577 
L 162.952845 133.328609 
L 163.215187 133.974337 
L 163.346358 134.303329 
L 163.6087 135.008277 
L 163.871042 135.325818 
L 164.002213 135.603445 
L 164.067799 135.53879 
L 164.19897 135.633318 
L 164.526898 136.312039 
L 164.658069 136.409051 
L 164.985996 136.852395 
L 165.51068 137.0894 
L 165.838608 137.887456 
L 166.297707 138.209439 
L 166.428878 138.109534 
L 166.560049 138.362679 
L 166.953562 139.09058 
L 167.150319 139.127472 
L 167.347075 139.682721 
L 167.478246 139.942696 
L 167.609417 140.084041 
L 167.871759 140.62662 
L 167.937345 140.60504 
L 168.134102 140.412158 
L 168.265273 140.588545 
L 168.396444 140.418858 
L 169.052299 138.708818 
L 169.249056 138.219055 
L 169.445812 138.158576 
L 169.904911 137.278164 
L 170.101667 137.077603 
L 170.429595 136.579303 
L 170.691937 136.52654 
L 170.823108 136.193691 
L 171.413378 134.276053 
L 172.26599 131.48471 
L 172.397161 131.518637 
L 172.659503 131.923784 
L 172.790674 131.841393 
L 173.053016 131.501665 
L 173.446529 131.916642 
L 173.512115 131.845304 
L 173.708871 131.726414 
L 173.905628 131.777058 
L 174.036799 131.897305 
L 174.233556 132.16202 
L 174.364727 131.923208 
L 174.75824 130.793521 
L 175.676437 128.723878 
L 175.807608 128.621152 
L 176.332293 127.219832 
L 176.529049 126.797399 
L 176.856977 126.037754 
L 177.25049 125.573705 
L 177.775174 123.870158 
L 178.824543 120.7075 
L 180.398595 114.914927 
L 180.92328 113.20311 
L 181.185622 112.368634 
L 182.038233 110.621344 
L 182.23499 110.725368 
L 182.431747 110.787026 
L 182.562918 110.847087 
L 182.694089 110.654588 
L 182.890845 109.938076 
L 183.087602 108.368202 
L 184.989582 90.409377 
L 185.251924 88.902162 
L 185.90778 83.264252 
L 186.563635 76.694833 
L 188.465615 47.848586 
L 190.30201 18.200077 
L 190.30201 18.200077 
" clip-path="url(#pad9533612e)" style="fill: none; stroke: #1f77b4; stroke-width: 0.5; stroke-linecap: square"/>
   </g>
   <g id="line2d_60"/>
   <g id="patch_3">
    <path d="M 35.58575 146.747947 
L 35.58575 12.07875 
" style="fill: none; stroke: #000000; stroke-linejoin: miter; stroke-linecap: square"/>
   </g>
   <g id="patch_4">
    <path d="M 191.023451 146.747947 
L 191.023451 12.07875 
" style="fill: none; stroke: #000000; stroke-linejoin: miter; stroke-linecap: square"/>
   </g>
   <g id="patch_5">
    <path d="M 35.58575 146.747947 
L 191.023451 146.747947 
" style="fill: none; stroke: #000000; stroke-linejoin: miter; stroke-linecap: square"/>
   </g>
   <g id="patch_6">
    <path d="M 35.58575 12.07875 
L 191.023451 12.07875 
" style="fill: none; stroke: #000000; stroke-linejoin: miter; stroke-linecap: square"/>
   </g>
   <g id="text_13">
    <text style="font: 8px 'DejaVu Sans', 'Bitstream Vera Sans', 'Computer Modern Sans Serif', 'Lucida Grande', 'Verdana', 'Geneva', 'Lucid', 'Arial', 'Helvetica', 'Avant Garde', sans-serif; text-anchor: middle" x="113.3046" y="6.07875" transform="rotate(-0 113.3046 6.07875)">Laboratory Sulfates Gypsum</text>
   </g>
   <g id="legend_1">
    <g id="patch_7">
     <path d="M 198.332205 84.716786 
L 271.029705 84.716786 
Q 272.229705 84.716786 272.229705 83.516786 
L 272.229705 75.309911 
Q 272.229705 74.109911 271.029705 74.109911 
L 198.332205 74.109911 
Q 197.132205 74.109911 197.132205 75.309911 
L 197.132205 83.516786 
Q 197.132205 84.716786 198.332205 84.716786 
z
" style="fill: #ffffff; opacity: 0.8; stroke: #cccccc; stroke-width: 0.8; stroke-linejoin: miter"/>
    </g>
    <g id="line2d_61">
     <path d="M 199.532205 78.968973 
L 205.532205 78.968973 
L 211.532205 78.968973 
" style="fill: none; stroke: #1f77b4; stroke-width: 1.2; stroke-linecap: square"/>
    </g>
    <g id="text_14">
     <text style="font: 6px 'DejaVu Sans', 'Bitstream Vera Sans', 'Computer Modern Sans Serif', 'Lucida Grande', 'Verdana', 'Geneva', 'Lucid', 'Arial', 'Helvetica', 'Avant Garde', sans-serif; text-anchor: start" x="216.332205" y="81.068973" transform="rotate(-0 216.332205 81.068973)">GYPSUM LASF41A</text>
    </g>
   </g>
  </g>
 </g>
 <defs>
  <clipPath id="pad9533612e">
   <rect x="35.58575" y="12.07875" width="155.437701" height="134.669197"/>
  </clipPath>
 </defs>
</svg>
