<?xml version="1.0" encoding="utf-8" standalone="no"?>
<!DOCTYPE svg PUBLIC "-//W3C//DTD SVG 1.1//EN"
  "http://www.w3.org/Graphics/SVG/1.1/DTD/svg11.dtd">
<svg xmlns:xlink="http://www.w3.org/1999/xlink" width="272.243055pt" height="176.855697pt" viewBox="0 0 272.243055 176.855697" xmlns="http://www.w3.org/2000/svg" version="1.1">
 <metadata>
  <rdf:RDF xmlns:dc="http://purl.org/dc/elements/1.1/" xmlns:cc="http://creativecommons.org/ns#" xmlns:rdf="http://www.w3.org/1999/02/22-rdf-syntax-ns#">
   <cc:Work>
    <dc:type rdf:resource="http://purl.org/dc/dcmitype/StillImage"/>
    <dc:date>2025-02-12T17:07:53.369944</dc:date>
    <dc:format>image/svg+xml</dc:format>
    <dc:creator>
     <cc:Agent>
      <dc:title>Matplotlib v3.6.2, https://matplotlib.org/</dc:title>
     </cc:Agent>
    </dc:creator>
   </cc:Work>
  </rdf:RDF>
 </metadata>
 <defs>
  <style type="text/css">*{stroke-linejoin: round; stroke-linecap: butt}</style>
 </defs>
 <g id="figure_1">
  <g id="patch_1">
   <path d="M -0 176.855697 
L 272.243055 176.855697 
L 272.243055 0 
L -0 0 
z
" style="fill: #ffffff"/>
  </g>
  <g id="axes_1">
   <g id="patch_2">
    <path d="M 35.58575 146.747947 
L 189.253451 146.747947 
L 189.253451 12.07875 
L 35.58575 12.07875 
z
" style="fill: #ffffff"/>
   </g>
   <g id="matplotlib.axis_1">
    <g id="xtick_1">
     <g id="line2d_1">
      <path d="M 45.959941 146.747947 
L 45.959941 12.07875 
" clip-path="url(#p6461ec853d)" style="fill: none; stroke: #b0b0b0; stroke-width: 0.6; stroke-linecap: square"/>
     </g>
     <g id="line2d_2">
      <defs>
       <path id="mae477701d1" d="M 0 0 
L 0 4.8 
" style="stroke: #000000"/>
      </defs>
      <g>
       <use xlink:href="#mae477701d1" x="45.959941" y="146.747947" style="stroke: #000000"/>
      </g>
     </g>
     <g id="text_1">
      <text style="font: 8.8px 'DejaVu Sans', 'Bitstream Vera Sans', 'Computer Modern Sans Serif', 'Lucida Grande', 'Verdana', 'Geneva', 'Lucid', 'Arial', 'Helvetica', 'Avant Garde', sans-serif; text-anchor: middle" x="45.959941" y="161.734572" transform="rotate(-0 45.959941 161.734572)">1000</text>
     </g>
    </g>
    <g id="xtick_2">
     <g id="line2d_3">
      <path d="M 78.379287 146.747947 
L 78.379287 12.07875 
" clip-path="url(#p6461ec853d)" style="fill: none; stroke: #b0b0b0; stroke-width: 0.6; stroke-linecap: square"/>
     </g>
     <g id="line2d_4">
      <g>
       <use xlink:href="#mae477701d1" x="78.379287" y="146.747947" style="stroke: #000000"/>
      </g>
     </g>
     <g id="text_2">
      <text style="font: 8.8px 'DejaVu Sans', 'Bitstream Vera Sans', 'Computer Modern Sans Serif', 'Lucida Grande', 'Verdana', 'Geneva', 'Lucid', 'Arial', 'Helvetica', 'Avant Garde', sans-serif; text-anchor: middle" x="78.379287" y="161.734572" transform="rotate(-0 78.379287 161.734572)">1500</text>
     </g>
    </g>
    <g id="xtick_3">
     <g id="line2d_5">
      <path d="M 110.798633 146.747947 
L 110.798633 12.07875 
" clip-path="url(#p6461ec853d)" style="fill: none; stroke: #b0b0b0; stroke-width: 0.6; stroke-linecap: square"/>
     </g>
     <g id="line2d_6">
      <g>
       <use xlink:href="#mae477701d1" x="110.798633" y="146.747947" style="stroke: #000000"/>
      </g>
     </g>
     <g id="text_3">
      <text style="font: 8.8px 'DejaVu Sans', 'Bitstream Vera Sans', 'Computer Modern Sans Serif', 'Lucida Grande', 'Verdana', 'Geneva', 'Lucid', 'Arial', 'Helvetica', 'Avant Garde', sans-serif; text-anchor: middle" x="110.798633" y="161.734572" transform="rotate(-0 110.798633 161.734572)">2000</text>
     </g>
    </g>
    <g id="xtick_4">
     <g id="line2d_7">
      <path d="M 143.217979 146.747947 
L 143.217979 12.07875 
" clip-path="url(#p6461ec853d)" style="fill: none; stroke: #b0b0b0; stroke-width: 0.6; stroke-linecap: square"/>
     </g>
     <g id="line2d_8">
      <g>
       <use xlink:href="#mae477701d1" x="143.217979" y="146.747947" style="stroke: #000000"/>
      </g>
     </g>
     <g id="text_4">
      <text style="font: 8.8px 'DejaVu Sans', 'Bitstream Vera Sans', 'Computer Modern Sans Serif', 'Lucida Grande', 'Verdana', 'Geneva', 'Lucid', 'Arial', 'Helvetica', 'Avant Garde', sans-serif; text-anchor: middle" x="143.217979" y="161.734572" transform="rotate(-0 143.217979 161.734572)">2500</text>
     </g>
    </g>
    <g id="xtick_5">
     <g id="line2d_9">
      <path d="M 175.637325 146.747947 
L 175.637325 12.07875 
" clip-path="url(#p6461ec853d)" style="fill: none; stroke: #b0b0b0; stroke-width: 0.6; stroke-linecap: square"/>
     </g>
     <g id="line2d_10">
      <g>
       <use xlink:href="#mae477701d1" x="175.637325" y="146.747947" style="stroke: #000000"/>
      </g>
     </g>
     <g id="text_5">
      <text style="font: 8.8px 'DejaVu Sans', 'Bitstream Vera Sans', 'Computer Modern Sans Serif', 'Lucida Grande', 'Verdana', 'Geneva', 'Lucid', 'Arial', 'Helvetica', 'Avant Garde', sans-serif; text-anchor: middle" x="175.637325" y="161.734572" transform="rotate(-0 175.637325 161.734572)">3000</text>
     </g>
    </g>
    <g id="xtick_6">
     <g id="line2d_11">
      <path d="M 39.476072 146.747947 
L 39.476072 12.07875 
" clip-path="url(#p6461ec853d)" style="fill: none; stroke: #b0b0b0; stroke-width: 0.3; stroke-linecap: square"/>
     </g>
     <g id="line2d_12">
      <defs>
       <path id="mbc30dea458" d="M 0 0 
L 0 3.2 
" style="stroke: #000000; stroke-width: 0.8"/>
      </defs>
      <g>
       <use xlink:href="#mbc30dea458" x="39.476072" y="146.747947" style="stroke: #000000; stroke-width: 0.8"/>
      </g>
     </g>
    </g>
    <g id="xtick_7">
     <g id="line2d_13">
      <path d="M 52.44381 146.747947 
L 52.44381 12.07875 
" clip-path="url(#p6461ec853d)" style="fill: none; stroke: #b0b0b0; stroke-width: 0.3; stroke-linecap: square"/>
     </g>
     <g id="line2d_14">
      <g>
       <use xlink:href="#mbc30dea458" x="52.44381" y="146.747947" style="stroke: #000000; stroke-width: 0.8"/>
      </g>
     </g>
    </g>
    <g id="xtick_8">
     <g id="line2d_15">
      <path d="M 58.927679 146.747947 
L 58.927679 12.07875 
" clip-path="url(#p6461ec853d)" style="fill: none; stroke: #b0b0b0; stroke-width: 0.3; stroke-linecap: square"/>
     </g>
     <g id="line2d_16">
      <g>
       <use xlink:href="#mbc30dea458" x="58.927679" y="146.747947" style="stroke: #000000; stroke-width: 0.8"/>
      </g>
     </g>
    </g>
    <g id="xtick_9">
     <g id="line2d_17">
      <path d="M 65.411548 146.747947 
L 65.411548 12.07875 
" clip-path="url(#p6461ec853d)" style="fill: none; stroke: #b0b0b0; stroke-width: 0.3; stroke-linecap: square"/>
     </g>
     <g id="line2d_18">
      <g>
       <use xlink:href="#mbc30dea458" x="65.411548" y="146.747947" style="stroke: #000000; stroke-width: 0.8"/>
      </g>
     </g>
    </g>
    <g id="xtick_10">
     <g id="line2d_19">
      <path d="M 71.895418 146.747947 
L 71.895418 12.07875 
" clip-path="url(#p6461ec853d)" style="fill: none; stroke: #b0b0b0; stroke-width: 0.3; stroke-linecap: square"/>
     </g>
     <g id="line2d_20">
      <g>
       <use xlink:href="#mbc30dea458" x="71.895418" y="146.747947" style="stroke: #000000; stroke-width: 0.8"/>
      </g>
     </g>
    </g>
    <g id="xtick_11">
     <g id="line2d_21">
      <path d="M 84.863156 146.747947 
L 84.863156 12.07875 
" clip-path="url(#p6461ec853d)" style="fill: none; stroke: #b0b0b0; stroke-width: 0.3; stroke-linecap: square"/>
     </g>
     <g id="line2d_22">
      <g>
       <use xlink:href="#mbc30dea458" x="84.863156" y="146.747947" style="stroke: #000000; stroke-width: 0.8"/>
      </g>
     </g>
    </g>
    <g id="xtick_12">
     <g id="line2d_23">
      <path d="M 91.347025 146.747947 
L 91.347025 12.07875 
" clip-path="url(#p6461ec853d)" style="fill: none; stroke: #b0b0b0; stroke-width: 0.3; stroke-linecap: square"/>
     </g>
     <g id="line2d_24">
      <g>
       <use xlink:href="#mbc30dea458" x="91.347025" y="146.747947" style="stroke: #000000; stroke-width: 0.8"/>
      </g>
     </g>
    </g>
    <g id="xtick_13">
     <g id="line2d_25">
      <path d="M 97.830895 146.747947 
L 97.830895 12.07875 
" clip-path="url(#p6461ec853d)" style="fill: none; stroke: #b0b0b0; stroke-width: 0.3; stroke-linecap: square"/>
     </g>
     <g id="line2d_26">
      <g>
       <use xlink:href="#mbc30dea458" x="97.830895" y="146.747947" style="stroke: #000000; stroke-width: 0.8"/>
      </g>
     </g>
    </g>
    <g id="xtick_14">
     <g id="line2d_27">
      <path d="M 104.314764 146.747947 
L 104.314764 12.07875 
" clip-path="url(#p6461ec853d)" style="fill: none; stroke: #b0b0b0; stroke-width: 0.3; stroke-linecap: square"/>
     </g>
     <g id="line2d_28">
      <g>
       <use xlink:href="#mbc30dea458" x="104.314764" y="146.747947" style="stroke: #000000; stroke-width: 0.8"/>
      </g>
     </g>
    </g>
    <g id="xtick_15">
     <g id="line2d_29">
      <path d="M 117.282502 146.747947 
L 117.282502 12.07875 
" clip-path="url(#p6461ec853d)" style="fill: none; stroke: #b0b0b0; stroke-width: 0.3; stroke-linecap: square"/>
     </g>
     <g id="line2d_30">
      <g>
       <use xlink:href="#mbc30dea458" x="117.282502" y="146.747947" style="stroke: #000000; stroke-width: 0.8"/>
      </g>
     </g>
    </g>
    <g id="xtick_16">
     <g id="line2d_31">
      <path d="M 123.766372 146.747947 
L 123.766372 12.07875 
" clip-path="url(#p6461ec853d)" style="fill: none; stroke: #b0b0b0; stroke-width: 0.3; stroke-linecap: square"/>
     </g>
     <g id="line2d_32">
      <g>
       <use xlink:href="#mbc30dea458" x="123.766372" y="146.747947" style="stroke: #000000; stroke-width: 0.8"/>
      </g>
     </g>
    </g>
    <g id="xtick_17">
     <g id="line2d_33">
      <path d="M 130.250241 146.747947 
L 130.250241 12.07875 
" clip-path="url(#p6461ec853d)" style="fill: none; stroke: #b0b0b0; stroke-width: 0.3; stroke-linecap: square"/>
     </g>
     <g id="line2d_34">
      <g>
       <use xlink:href="#mbc30dea458" x="130.250241" y="146.747947" style="stroke: #000000; stroke-width: 0.8"/>
      </g>
     </g>
    </g>
    <g id="xtick_18">
     <g id="line2d_35">
      <path d="M 136.73411 146.747947 
L 136.73411 12.07875 
" clip-path="url(#p6461ec853d)" style="fill: none; stroke: #b0b0b0; stroke-width: 0.3; stroke-linecap: square"/>
     </g>
     <g id="line2d_36">
      <g>
       <use xlink:href="#mbc30dea458" x="136.73411" y="146.747947" style="stroke: #000000; stroke-width: 0.8"/>
      </g>
     </g>
    </g>
    <g id="xtick_19">
     <g id="line2d_37">
      <path d="M 149.701848 146.747947 
L 149.701848 12.07875 
" clip-path="url(#p6461ec853d)" style="fill: none; stroke: #b0b0b0; stroke-width: 0.3; stroke-linecap: square"/>
     </g>
     <g id="line2d_38">
      <g>
       <use xlink:href="#mbc30dea458" x="149.701848" y="146.747947" style="stroke: #000000; stroke-width: 0.8"/>
      </g>
     </g>
    </g>
    <g id="xtick_20">
     <g id="line2d_39">
      <path d="M 156.185718 146.747947 
L 156.185718 12.07875 
" clip-path="url(#p6461ec853d)" style="fill: none; stroke: #b0b0b0; stroke-width: 0.3; stroke-linecap: square"/>
     </g>
     <g id="line2d_40">
      <g>
       <use xlink:href="#mbc30dea458" x="156.185718" y="146.747947" style="stroke: #000000; stroke-width: 0.8"/>
      </g>
     </g>
    </g>
    <g id="xtick_21">
     <g id="line2d_41">
      <path d="M 162.669587 146.747947 
L 162.669587 12.07875 
" clip-path="url(#p6461ec853d)" style="fill: none; stroke: #b0b0b0; stroke-width: 0.3; stroke-linecap: square"/>
     </g>
     <g id="line2d_42">
      <g>
       <use xlink:href="#mbc30dea458" x="162.669587" y="146.747947" style="stroke: #000000; stroke-width: 0.8"/>
      </g>
     </g>
    </g>
    <g id="xtick_22">
     <g id="line2d_43">
      <path d="M 169.153456 146.747947 
L 169.153456 12.07875 
" clip-path="url(#p6461ec853d)" style="fill: none; stroke: #b0b0b0; stroke-width: 0.3; stroke-linecap: square"/>
     </g>
     <g id="line2d_44">
      <g>
       <use xlink:href="#mbc30dea458" x="169.153456" y="146.747947" style="stroke: #000000; stroke-width: 0.8"/>
      </g>
     </g>
    </g>
    <g id="xtick_23">
     <g id="line2d_45">
      <path d="M 182.121195 146.747947 
L 182.121195 12.07875 
" clip-path="url(#p6461ec853d)" style="fill: none; stroke: #b0b0b0; stroke-width: 0.3; stroke-linecap: square"/>
     </g>
     <g id="line2d_46">
      <g>
       <use xlink:href="#mbc30dea458" x="182.121195" y="146.747947" style="stroke: #000000; stroke-width: 0.8"/>
      </g>
     </g>
    </g>
    <g id="xtick_24">
     <g id="line2d_47">
      <path d="M 188.605064 146.747947 
L 188.605064 12.07875 
" clip-path="url(#p6461ec853d)" style="fill: none; stroke: #b0b0b0; stroke-width: 0.3; stroke-linecap: square"/>
     </g>
     <g id="line2d_48">
      <g>
       <use xlink:href="#mbc30dea458" x="188.605064" y="146.747947" style="stroke: #000000; stroke-width: 0.8"/>
      </g>
     </g>
    </g>
    <g id="text_6">
     <text style="font: 9.6px 'DejaVu Sans', 'Bitstream Vera Sans', 'Computer Modern Sans Serif', 'Lucida Grande', 'Verdana', 'Geneva', 'Lucid', 'Arial', 'Helvetica', 'Avant Garde', sans-serif; text-anchor: middle" x="112.4196" y="174.859197" transform="rotate(-0 112.4196 174.859197)">Wavelength (nm)</text>
    </g>
   </g>
   <g id="matplotlib.axis_2">
    <g id="ytick_1">
     <g id="line2d_49">
      <path d="M 35.58575 141.960088 
L 189.253451 141.960088 
" clip-path="url(#p6461ec853d)" style="fill: none; stroke: #b0b0b0; stroke-width: 0.6; stroke-linecap: square"/>
     </g>
     <g id="line2d_50">
      <defs>
       <path id="me8cc0cb6bb" d="M 0 0 
L -4.8 0 
" style="stroke: #000000"/>
      </defs>
      <g>
       <use xlink:href="#me8cc0cb6bb" x="35.58575" y="141.960088" style="stroke: #000000"/>
      </g>
     </g>
     <g id="text_7">
      <text style="font: 8.8px 'DejaVu Sans', 'Bitstream Vera Sans', 'Computer Modern Sans Serif', 'Lucida Grande', 'Verdana', 'Geneva', 'Lucid', 'Arial', 'Helvetica', 'Avant Garde', sans-serif; text-anchor: end" x="27.28575" y="145.3034" transform="rotate(-0 27.28575 145.3034)">0.6</text>
     </g>
    </g>
    <g id="ytick_2">
     <g id="line2d_51">
      <path d="M 35.58575 111.020085 
L 189.253451 111.020085 
" clip-path="url(#p6461ec853d)" style="fill: none; stroke: #b0b0b0; stroke-width: 0.6; stroke-linecap: square"/>
     </g>
     <g id="line2d_52">
      <g>
       <use xlink:href="#me8cc0cb6bb" x="35.58575" y="111.020085" style="stroke: #000000"/>
      </g>
     </g>
     <g id="text_8">
      <text style="font: 8.8px 'DejaVu Sans', 'Bitstream Vera Sans', 'Computer Modern Sans Serif', 'Lucida Grande', 'Verdana', 'Geneva', 'Lucid', 'Arial', 'Helvetica', 'Avant Garde', sans-serif; text-anchor: end" x="27.28575" y="114.363398" transform="rotate(-0 27.28575 114.363398)">0.7</text>
     </g>
    </g>
    <g id="ytick_3">
     <g id="line2d_53">
      <path d="M 35.58575 80.080082 
L 189.253451 80.080082 
" clip-path="url(#p6461ec853d)" style="fill: none; stroke: #b0b0b0; stroke-width: 0.6; stroke-linecap: square"/>
     </g>
     <g id="line2d_54">
      <g>
       <use xlink:href="#me8cc0cb6bb" x="35.58575" y="80.080082" style="stroke: #000000"/>
      </g>
     </g>
     <g id="text_9">
      <text style="font: 8.8px 'DejaVu Sans', 'Bitstream Vera Sans', 'Computer Modern Sans Serif', 'Lucida Grande', 'Verdana', 'Geneva', 'Lucid', 'Arial', 'Helvetica', 'Avant Garde', sans-serif; text-anchor: end" x="27.28575" y="83.423395" transform="rotate(-0 27.28575 83.423395)">0.8</text>
     </g>
    </g>
    <g id="ytick_4">
     <g id="line2d_55">
      <path d="M 35.58575 49.14008 
L 189.253451 49.14008 
" clip-path="url(#p6461ec853d)" style="fill: none; stroke: #b0b0b0; stroke-width: 0.6; stroke-linecap: square"/>
     </g>
     <g id="line2d_56">
      <g>
       <use xlink:href="#me8cc0cb6bb" x="35.58575" y="49.14008" style="stroke: #000000"/>
      </g>
     </g>
     <g id="text_10">
      <text style="font: 8.8px 'DejaVu Sans', 'Bitstream Vera Sans', 'Computer Modern Sans Serif', 'Lucida Grande', 'Verdana', 'Geneva', 'Lucid', 'Arial', 'Helvetica', 'Avant Garde', sans-serif; text-anchor: end" x="27.28575" y="52.483392" transform="rotate(-0 27.28575 52.483392)">0.9</text>
     </g>
    </g>
    <g id="ytick_5">
     <g id="line2d_57">
      <path d="M 35.58575 18.200077 
L 189.253451 18.200077 
" clip-path="url(#p6461ec853d)" style="fill: none; stroke: #b0b0b0; stroke-width: 0.6; stroke-linecap: square"/>
     </g>
     <g id="line2d_58">
      <g>
       <use xlink:href="#me8cc0cb6bb" x="35.58575" y="18.200077" style="stroke: #000000"/>
      </g>
     </g>
     <g id="text_11">
      <text style="font: 8.8px 'DejaVu Sans', 'Bitstream Vera Sans', 'Computer Modern Sans Serif', 'Lucida Grande', 'Verdana', 'Geneva', 'Lucid', 'Arial', 'Helvetica', 'Avant Garde', sans-serif; text-anchor: end" x="27.28575" y="21.54339" transform="rotate(-0 27.28575 21.54339)">1.0</text>
     </g>
    </g>
    <g id="text_12">
     <text style="font: 9.6px 'DejaVu Sans', 'Bitstream Vera Sans', 'Computer Modern Sans Serif', 'Lucida Grande', 'Verdana', 'Geneva', 'Lucid', 'Arial', 'Helvetica', 'Avant Garde', sans-serif; text-anchor: middle" x="7.2945" y="79.413348" transform="rotate(-90 7.2945 79.413348)">Reflectance</text>
    </g>
   </g>
   <g id="line2d_59">
    <path d="M 36.234137 18.200077 
L 36.882524 23.981997 
L 37.595749 25.140917 
L 38.438652 27.974062 
L 38.503491 28.090933 
L 39.022201 27.285398 
L 39.151878 27.162254 
L 39.929942 29.660509 
L 40.448652 31.511401 
L 41.0322 30.954191 
L 41.097039 30.912821 
L 41.680587 31.643642 
L 41.810264 31.670123 
L 42.069619 31.567934 
L 42.718006 32.966844 
L 43.0422 31.999137 
L 43.49607 33.608574 
L 43.690587 34.579458 
L 43.755425 34.408816 
L 44.274135 33.335699 
L 44.663167 32.915216 
L 45.635747 33.126791 
L 46.154457 35.077731 
L 46.47865 35.644278 
L 46.673166 36.038574 
L 47.191876 37.496171 
L 47.256715 37.633958 
L 47.321553 37.530837 
L 47.580908 37.119208 
L 47.645747 37.216031 
L 47.96994 37.845185 
L 48.48865 39.407409 
L 48.877682 40.04189 
L 49.201875 40.166634 
L 49.785424 41.287298 
L 50.174456 41.990364 
L 50.628327 43.614865 
L 50.95252 44.311195 
L 51.47123 45.501897 
L 51.795423 45.158416 
L 51.860262 45.243218 
L 52.184455 45.55395 
L 52.573487 45.499189 
L 52.832842 45.515192 
L 53.092197 45.243289 
L 53.740584 46.778065 
L 54.129616 46.02883 
L 54.90768 46.402248 
L 55.102196 46.442055 
L 55.42639 46.17102 
L 55.815422 45.637552 
L 56.204454 45.433276 
L 56.593486 45.269307 
L 56.788002 45.115024 
L 56.982518 44.907787 
L 57.306712 45.458267 
L 57.760583 44.231108 
L 58.344131 42.405512 
L 58.603486 42.239305 
L 58.927679 42.741981 
L 59.511227 41.404238 
L 59.705744 40.918467 
L 60.094776 40.05305 
L 60.35413 39.787693 
L 60.548647 39.691926 
L 61.002517 38.787471 
L 61.197033 38.625673 
L 61.910259 36.621003 
L 62.493807 36.446802 
L 63.271872 34.409914 
L 63.660904 33.831913 
L 63.790581 33.711224 
L 64.309291 32.069341 
L 64.503807 31.810076 
L 64.828 31.759679 
L 65.606065 30.546141 
L 66.254451 29.182315 
L 66.448968 28.905667 
L 66.838 28.176724 
L 67.421548 27.585787 
L 67.940257 26.328585 
L 68.134774 26.155435 
L 68.394128 25.963662 
L 68.78316 25.101297 
L 68.977677 24.473607 
L 69.042515 24.595142 
L 69.30187 25.080398 
L 69.690902 24.119468 
L 69.950257 24.172926 
L 70.27445 26.116756 
L 70.339289 26.082763 
L 70.598644 25.947038 
L 70.922837 26.908171 
L 71.441547 33.398283 
L 71.571224 35.42411 
L 71.960256 57.938018 
L 72.543805 105.241107 
L 72.932837 84.246732 
L 73.516385 40.832068 
L 73.970256 32.940897 
L 74.813159 26.779132 
L 75.26703 24.973986 
L 75.850578 24.339868 
L 76.434126 23.8111 
L 76.887997 22.259485 
L 77.7309 21.233497 
L 78.055093 21.214183 
L 78.70348 22.561729 
L 79.027674 21.715175 
L 79.092513 21.832201 
L 79.676061 22.903495 
L 79.740899 22.834161 
L 80.000254 22.557303 
L 80.454125 24.273674 
L 80.972835 25.016659 
L 81.426705 23.644493 
L 81.68606 23.286678 
L 82.269608 22.054121 
L 82.917995 22.704149 
L 83.566382 21.47746 
L 83.955414 21.070894 
L 84.474124 20.196503 
L 84.66864 20.110518 
L 84.927995 20.202119 
L 85.18735 20.617976 
L 85.900575 19.213976 
L 86.873156 18.443167 
L 87.197349 18.462136 
L 87.521543 18.796081 
L 87.975413 18.604102 
L 88.6238 18.246527 
L 89.14251 18.474126 
L 89.726058 19.037973 
L 90.244768 19.581514 
L 90.374445 19.641844 
L 90.828316 18.387063 
L 91.087671 18.227273 
L 91.476703 18.28154 
L 91.800896 18.244327 
L 91.995412 18.310653 
L 92.449283 19.133759 
L 92.773477 19.270245 
L 93.032831 19.169471 
L 93.551541 18.58419 
L 93.875734 18.450589 
L 94.199928 18.246009 
L 94.394444 18.200077 
L 94.653799 18.265623 
L 95.367024 18.836481 
L 95.691218 18.875576 
L 96.728637 18.524027 
L 97.05283 18.528142 
L 97.312185 18.382335 
L 97.57154 18.246485 
L 98.090249 18.74919 
L 99.776055 20.662391 
L 100.294765 21.153346 
L 100.943152 21.836687 
L 101.5267 21.979296 
L 102.175087 21.885368 
L 102.758635 22.282328 
L 103.342183 23.585961 
L 103.407022 23.460913 
L 103.99057 22.334986 
L 104.638957 24.502908 
L 104.703796 24.461543 
L 105.287344 24.089124 
L 106.065409 25.39999 
L 106.584118 25.649681 
L 107.232505 28.250076 
L 107.297344 28.189911 
L 107.880892 27.64822 
L 107.945731 27.730625 
L 109.372182 29.712764 
L 110.085407 31.547922 
L 110.47444 32.257963 
L 110.539278 32.150157 
L 111.187665 30.939057 
L 112.484439 25.808943 
L 113.651536 19.846309 
L 113.781213 19.519219 
L 114.494439 19.271722 
L 115.077987 19.312427 
L 115.856051 18.430824 
L 116.504438 18.200077 
L 118.255083 18.200077 
L 118.90347 19.980247 
L 119.811211 33.739253 
L 120.39476 42.477109 
L 121.043146 48.536712 
L 121.561856 55.848543 
L 122.923469 92.65498 
L 124.090565 140.62662 
L 124.998307 87.934464 
L 125.517016 57.73304 
L 126.035726 49.774743 
L 126.878629 69.303509 
L 127.3325 83.164346 
L 127.397338 83.067036 
L 127.980887 82.181115 
L 128.758951 65.492848 
L 129.27766 60.779221 
L 130.574434 91.537929 
L 131.352499 94.788627 
L 131.871208 97.893929 
L 132.714111 112.750317 
L 133.167982 116.945402 
L 134.140562 104.837453 
L 134.594433 97.019019 
L 135.24282 84.023115 
L 135.826368 81.3071 
L 136.150562 81.40035 
L 136.73411 82.204421 
L 136.798949 82.151736 
L 139.327658 80.121727 
L 141.921205 52.320162 
L 143.153141 39.683874 
L 143.801527 36.245413 
L 145.941204 24.407092 
L 146.978623 18.200077 
L 146.978623 18.200077 
" clip-path="url(#p6461ec853d)" style="fill: none; stroke: #1f77b4; stroke-width: 0.5; stroke-linecap: square"/>
   </g>
   <g id="line2d_60"/>
   <g id="patch_3">
    <path d="M 35.58575 146.747947 
L 35.58575 12.07875 
" style="fill: none; stroke: #000000; stroke-linejoin: miter; stroke-linecap: square"/>
   </g>
   <g id="patch_4">
    <path d="M 189.253451 146.747947 
L 189.253451 12.07875 
" style="fill: none; stroke: #000000; stroke-linejoin: miter; stroke-linecap: square"/>
   </g>
   <g id="patch_5">
    <path d="M 35.58575 146.747947 
L 189.253451 146.747947 
" style="fill: none; stroke: #000000; stroke-linejoin: miter; stroke-linecap: square"/>
   </g>
   <g id="patch_6">
    <path d="M 35.58575 12.07875 
L 189.253451 12.07875 
" style="fill: none; stroke: #000000; stroke-linejoin: miter; stroke-linecap: square"/>
   </g>
   <g id="text_13">
    <text style="font: 8px 'DejaVu Sans', 'Bitstream Vera Sans', 'Computer Modern Sans Serif', 'Lucida Grande', 'Verdana', 'Geneva', 'Lucid', 'Arial', 'Helvetica', 'Avant Garde', sans-serif; text-anchor: middle" x="112.4196" y="6.07875" transform="rotate(-0 112.4196 6.07875)">Laboratory Phyllosilicate Margarite</text>
   </g>
   <g id="legend_1">
    <g id="patch_7">
     <path d="M 196.526805 84.716786 
L 271.043055 84.716786 
Q 272.243055 84.716786 272.243055 83.516786 
L 272.243055 75.309911 
Q 272.243055 74.109911 271.043055 74.109911 
L 196.526805 74.109911 
Q 195.326805 74.109911 195.326805 75.309911 
L 195.326805 83.516786 
Q 195.326805 84.716786 196.526805 84.716786 
z
" style="fill: #ffffff; opacity: 0.8; stroke: #cccccc; stroke-width: 0.8; stroke-linejoin: miter"/>
    </g>
    <g id="line2d_61">
     <path d="M 197.726805 78.968973 
L 203.726805 78.968973 
L 209.726805 78.968973 
" style="fill: none; stroke: #1f77b4; stroke-width: 1.2; stroke-linecap: square"/>
    </g>
    <g id="text_14">
     <text style="font: 6px 'DejaVu Sans', 'Bitstream Vera Sans', 'Computer Modern Sans Serif', 'Lucida Grande', 'Verdana', 'Geneva', 'Lucid', 'Arial', 'Helvetica', 'Avant Garde', sans-serif; text-anchor: start" x="214.526805" y="81.068973" transform="rotate(-0 214.526805 81.068973)">Margarite GDS106</text>
    </g>
   </g>
  </g>
 </g>
 <defs>
  <clipPath id="p6461ec853d">
   <rect x="35.58575" y="12.07875" width="153.667701" height="134.669197"/>
  </clipPath>
 </defs>
</svg>
