<?xml version="1.0" encoding="utf-8" standalone="no"?>
<!DOCTYPE svg PUBLIC "-//W3C//DTD SVG 1.1//EN"
  "http://www.w3.org/Graphics/SVG/1.1/DTD/svg11.dtd">
<svg xmlns:xlink="http://www.w3.org/1999/xlink" width="272.361405pt" height="176.855697pt" viewBox="0 0 272.361405 176.855697" xmlns="http://www.w3.org/2000/svg" version="1.1">
 <metadata>
  <rdf:RDF xmlns:dc="http://purl.org/dc/elements/1.1/" xmlns:cc="http://creativecommons.org/ns#" xmlns:rdf="http://www.w3.org/1999/02/22-rdf-syntax-ns#">
   <cc:Work>
    <dc:type rdf:resource="http://purl.org/dc/dcmitype/StillImage"/>
    <dc:date>2025-02-12T17:07:53.035797</dc:date>
    <dc:format>image/svg+xml</dc:format>
    <dc:creator>
     <cc:Agent>
      <dc:title>Matplotlib v3.6.2, https://matplotlib.org/</dc:title>
     </cc:Agent>
    </dc:creator>
   </cc:Work>
  </rdf:RDF>
 </metadata>
 <defs>
  <style type="text/css">*{stroke-linejoin: round; stroke-linecap: butt}</style>
 </defs>
 <g id="figure_1">
  <g id="patch_1">
   <path d="M -0 176.855697 
L 272.361405 176.855697 
L 272.361405 0 
L -0 0 
z
" style="fill: #ffffff"/>
  </g>
  <g id="axes_1">
   <g id="patch_2">
    <path d="M 35.58575 146.747947 
L 196.483451 146.747947 
L 196.483451 12.07875 
L 35.58575 12.07875 
z
" style="fill: #ffffff"/>
   </g>
   <g id="matplotlib.axis_1">
    <g id="xtick_1">
     <g id="line2d_1">
      <path d="M 46.448042 146.747947 
L 46.448042 12.07875 
" clip-path="url(#p043d1bea31)" style="fill: none; stroke: #b0b0b0; stroke-width: 0.6; stroke-linecap: square"/>
     </g>
     <g id="line2d_2">
      <defs>
       <path id="m36d6a4282d" d="M 0 0 
L 0 4.8 
" style="stroke: #000000"/>
      </defs>
      <g>
       <use xlink:href="#m36d6a4282d" x="46.448042" y="146.747947" style="stroke: #000000"/>
      </g>
     </g>
     <g id="text_1">
      <text style="font: 8.8px 'DejaVu Sans', 'Bitstream Vera Sans', 'Computer Modern Sans Serif', 'Lucida Grande', 'Verdana', 'Geneva', 'Lucid', 'Arial', 'Helvetica', 'Avant Garde', sans-serif; text-anchor: middle" x="46.448042" y="161.734572" transform="rotate(-0 46.448042 161.734572)">1000</text>
     </g>
    </g>
    <g id="xtick_2">
     <g id="line2d_3">
      <path d="M 80.392705 146.747947 
L 80.392705 12.07875 
" clip-path="url(#p043d1bea31)" style="fill: none; stroke: #b0b0b0; stroke-width: 0.6; stroke-linecap: square"/>
     </g>
     <g id="line2d_4">
      <g>
       <use xlink:href="#m36d6a4282d" x="80.392705" y="146.747947" style="stroke: #000000"/>
      </g>
     </g>
     <g id="text_2">
      <text style="font: 8.8px 'DejaVu Sans', 'Bitstream Vera Sans', 'Computer Modern Sans Serif', 'Lucida Grande', 'Verdana', 'Geneva', 'Lucid', 'Arial', 'Helvetica', 'Avant Garde', sans-serif; text-anchor: middle" x="80.392705" y="161.734572" transform="rotate(-0 80.392705 161.734572)">1500</text>
     </g>
    </g>
    <g id="xtick_3">
     <g id="line2d_5">
      <path d="M 114.337367 146.747947 
L 114.337367 12.07875 
" clip-path="url(#p043d1bea31)" style="fill: none; stroke: #b0b0b0; stroke-width: 0.6; stroke-linecap: square"/>
     </g>
     <g id="line2d_6">
      <g>
       <use xlink:href="#m36d6a4282d" x="114.337367" y="146.747947" style="stroke: #000000"/>
      </g>
     </g>
     <g id="text_3">
      <text style="font: 8.8px 'DejaVu Sans', 'Bitstream Vera Sans', 'Computer Modern Sans Serif', 'Lucida Grande', 'Verdana', 'Geneva', 'Lucid', 'Arial', 'Helvetica', 'Avant Garde', sans-serif; text-anchor: middle" x="114.337367" y="161.734572" transform="rotate(-0 114.337367 161.734572)">2000</text>
     </g>
    </g>
    <g id="xtick_4">
     <g id="line2d_7">
      <path d="M 148.28203 146.747947 
L 148.28203 12.07875 
" clip-path="url(#p043d1bea31)" style="fill: none; stroke: #b0b0b0; stroke-width: 0.6; stroke-linecap: square"/>
     </g>
     <g id="line2d_8">
      <g>
       <use xlink:href="#m36d6a4282d" x="148.28203" y="146.747947" style="stroke: #000000"/>
      </g>
     </g>
     <g id="text_4">
      <text style="font: 8.8px 'DejaVu Sans', 'Bitstream Vera Sans', 'Computer Modern Sans Serif', 'Lucida Grande', 'Verdana', 'Geneva', 'Lucid', 'Arial', 'Helvetica', 'Avant Garde', sans-serif; text-anchor: middle" x="148.28203" y="161.734572" transform="rotate(-0 148.28203 161.734572)">2500</text>
     </g>
    </g>
    <g id="xtick_5">
     <g id="line2d_9">
      <path d="M 182.226692 146.747947 
L 182.226692 12.07875 
" clip-path="url(#p043d1bea31)" style="fill: none; stroke: #b0b0b0; stroke-width: 0.6; stroke-linecap: square"/>
     </g>
     <g id="line2d_10">
      <g>
       <use xlink:href="#m36d6a4282d" x="182.226692" y="146.747947" style="stroke: #000000"/>
      </g>
     </g>
     <g id="text_5">
      <text style="font: 8.8px 'DejaVu Sans', 'Bitstream Vera Sans', 'Computer Modern Sans Serif', 'Lucida Grande', 'Verdana', 'Geneva', 'Lucid', 'Arial', 'Helvetica', 'Avant Garde', sans-serif; text-anchor: middle" x="182.226692" y="161.734572" transform="rotate(-0 182.226692 161.734572)">3000</text>
     </g>
    </g>
    <g id="xtick_6">
     <g id="line2d_11">
      <path d="M 39.65911 146.747947 
L 39.65911 12.07875 
" clip-path="url(#p043d1bea31)" style="fill: none; stroke: #b0b0b0; stroke-width: 0.3; stroke-linecap: square"/>
     </g>
     <g id="line2d_12">
      <defs>
       <path id="md0b57b3f0e" d="M 0 0 
L 0 3.2 
" style="stroke: #000000; stroke-width: 0.8"/>
      </defs>
      <g>
       <use xlink:href="#md0b57b3f0e" x="39.65911" y="146.747947" style="stroke: #000000; stroke-width: 0.8"/>
      </g>
     </g>
    </g>
    <g id="xtick_7">
     <g id="line2d_13">
      <path d="M 53.236975 146.747947 
L 53.236975 12.07875 
" clip-path="url(#p043d1bea31)" style="fill: none; stroke: #b0b0b0; stroke-width: 0.3; stroke-linecap: square"/>
     </g>
     <g id="line2d_14">
      <g>
       <use xlink:href="#md0b57b3f0e" x="53.236975" y="146.747947" style="stroke: #000000; stroke-width: 0.8"/>
      </g>
     </g>
    </g>
    <g id="xtick_8">
     <g id="line2d_15">
      <path d="M 60.025907 146.747947 
L 60.025907 12.07875 
" clip-path="url(#p043d1bea31)" style="fill: none; stroke: #b0b0b0; stroke-width: 0.3; stroke-linecap: square"/>
     </g>
     <g id="line2d_16">
      <g>
       <use xlink:href="#md0b57b3f0e" x="60.025907" y="146.747947" style="stroke: #000000; stroke-width: 0.8"/>
      </g>
     </g>
    </g>
    <g id="xtick_9">
     <g id="line2d_17">
      <path d="M 66.81484 146.747947 
L 66.81484 12.07875 
" clip-path="url(#p043d1bea31)" style="fill: none; stroke: #b0b0b0; stroke-width: 0.3; stroke-linecap: square"/>
     </g>
     <g id="line2d_18">
      <g>
       <use xlink:href="#md0b57b3f0e" x="66.81484" y="146.747947" style="stroke: #000000; stroke-width: 0.8"/>
      </g>
     </g>
    </g>
    <g id="xtick_10">
     <g id="line2d_19">
      <path d="M 73.603772 146.747947 
L 73.603772 12.07875 
" clip-path="url(#p043d1bea31)" style="fill: none; stroke: #b0b0b0; stroke-width: 0.3; stroke-linecap: square"/>
     </g>
     <g id="line2d_20">
      <g>
       <use xlink:href="#md0b57b3f0e" x="73.603772" y="146.747947" style="stroke: #000000; stroke-width: 0.8"/>
      </g>
     </g>
    </g>
    <g id="xtick_11">
     <g id="line2d_21">
      <path d="M 87.181637 146.747947 
L 87.181637 12.07875 
" clip-path="url(#p043d1bea31)" style="fill: none; stroke: #b0b0b0; stroke-width: 0.3; stroke-linecap: square"/>
     </g>
     <g id="line2d_22">
      <g>
       <use xlink:href="#md0b57b3f0e" x="87.181637" y="146.747947" style="stroke: #000000; stroke-width: 0.8"/>
      </g>
     </g>
    </g>
    <g id="xtick_12">
     <g id="line2d_23">
      <path d="M 93.97057 146.747947 
L 93.97057 12.07875 
" clip-path="url(#p043d1bea31)" style="fill: none; stroke: #b0b0b0; stroke-width: 0.3; stroke-linecap: square"/>
     </g>
     <g id="line2d_24">
      <g>
       <use xlink:href="#md0b57b3f0e" x="93.97057" y="146.747947" style="stroke: #000000; stroke-width: 0.8"/>
      </g>
     </g>
    </g>
    <g id="xtick_13">
     <g id="line2d_25">
      <path d="M 100.759502 146.747947 
L 100.759502 12.07875 
" clip-path="url(#p043d1bea31)" style="fill: none; stroke: #b0b0b0; stroke-width: 0.3; stroke-linecap: square"/>
     </g>
     <g id="line2d_26">
      <g>
       <use xlink:href="#md0b57b3f0e" x="100.759502" y="146.747947" style="stroke: #000000; stroke-width: 0.8"/>
      </g>
     </g>
    </g>
    <g id="xtick_14">
     <g id="line2d_27">
      <path d="M 107.548435 146.747947 
L 107.548435 12.07875 
" clip-path="url(#p043d1bea31)" style="fill: none; stroke: #b0b0b0; stroke-width: 0.3; stroke-linecap: square"/>
     </g>
     <g id="line2d_28">
      <g>
       <use xlink:href="#md0b57b3f0e" x="107.548435" y="146.747947" style="stroke: #000000; stroke-width: 0.8"/>
      </g>
     </g>
    </g>
    <g id="xtick_15">
     <g id="line2d_29">
      <path d="M 121.1263 146.747947 
L 121.1263 12.07875 
" clip-path="url(#p043d1bea31)" style="fill: none; stroke: #b0b0b0; stroke-width: 0.3; stroke-linecap: square"/>
     </g>
     <g id="line2d_30">
      <g>
       <use xlink:href="#md0b57b3f0e" x="121.1263" y="146.747947" style="stroke: #000000; stroke-width: 0.8"/>
      </g>
     </g>
    </g>
    <g id="xtick_16">
     <g id="line2d_31">
      <path d="M 127.915232 146.747947 
L 127.915232 12.07875 
" clip-path="url(#p043d1bea31)" style="fill: none; stroke: #b0b0b0; stroke-width: 0.3; stroke-linecap: square"/>
     </g>
     <g id="line2d_32">
      <g>
       <use xlink:href="#md0b57b3f0e" x="127.915232" y="146.747947" style="stroke: #000000; stroke-width: 0.8"/>
      </g>
     </g>
    </g>
    <g id="xtick_17">
     <g id="line2d_33">
      <path d="M 134.704165 146.747947 
L 134.704165 12.07875 
" clip-path="url(#p043d1bea31)" style="fill: none; stroke: #b0b0b0; stroke-width: 0.3; stroke-linecap: square"/>
     </g>
     <g id="line2d_34">
      <g>
       <use xlink:href="#md0b57b3f0e" x="134.704165" y="146.747947" style="stroke: #000000; stroke-width: 0.8"/>
      </g>
     </g>
    </g>
    <g id="xtick_18">
     <g id="line2d_35">
      <path d="M 141.493097 146.747947 
L 141.493097 12.07875 
" clip-path="url(#p043d1bea31)" style="fill: none; stroke: #b0b0b0; stroke-width: 0.3; stroke-linecap: square"/>
     </g>
     <g id="line2d_36">
      <g>
       <use xlink:href="#md0b57b3f0e" x="141.493097" y="146.747947" style="stroke: #000000; stroke-width: 0.8"/>
      </g>
     </g>
    </g>
    <g id="xtick_19">
     <g id="line2d_37">
      <path d="M 155.070962 146.747947 
L 155.070962 12.07875 
" clip-path="url(#p043d1bea31)" style="fill: none; stroke: #b0b0b0; stroke-width: 0.3; stroke-linecap: square"/>
     </g>
     <g id="line2d_38">
      <g>
       <use xlink:href="#md0b57b3f0e" x="155.070962" y="146.747947" style="stroke: #000000; stroke-width: 0.8"/>
      </g>
     </g>
    </g>
    <g id="xtick_20">
     <g id="line2d_39">
      <path d="M 161.859895 146.747947 
L 161.859895 12.07875 
" clip-path="url(#p043d1bea31)" style="fill: none; stroke: #b0b0b0; stroke-width: 0.3; stroke-linecap: square"/>
     </g>
     <g id="line2d_40">
      <g>
       <use xlink:href="#md0b57b3f0e" x="161.859895" y="146.747947" style="stroke: #000000; stroke-width: 0.8"/>
      </g>
     </g>
    </g>
    <g id="xtick_21">
     <g id="line2d_41">
      <path d="M 168.648827 146.747947 
L 168.648827 12.07875 
" clip-path="url(#p043d1bea31)" style="fill: none; stroke: #b0b0b0; stroke-width: 0.3; stroke-linecap: square"/>
     </g>
     <g id="line2d_42">
      <g>
       <use xlink:href="#md0b57b3f0e" x="168.648827" y="146.747947" style="stroke: #000000; stroke-width: 0.8"/>
      </g>
     </g>
    </g>
    <g id="xtick_22">
     <g id="line2d_43">
      <path d="M 175.43776 146.747947 
L 175.43776 12.07875 
" clip-path="url(#p043d1bea31)" style="fill: none; stroke: #b0b0b0; stroke-width: 0.3; stroke-linecap: square"/>
     </g>
     <g id="line2d_44">
      <g>
       <use xlink:href="#md0b57b3f0e" x="175.43776" y="146.747947" style="stroke: #000000; stroke-width: 0.8"/>
      </g>
     </g>
    </g>
    <g id="xtick_23">
     <g id="line2d_45">
      <path d="M 189.015625 146.747947 
L 189.015625 12.07875 
" clip-path="url(#p043d1bea31)" style="fill: none; stroke: #b0b0b0; stroke-width: 0.3; stroke-linecap: square"/>
     </g>
     <g id="line2d_46">
      <g>
       <use xlink:href="#md0b57b3f0e" x="189.015625" y="146.747947" style="stroke: #000000; stroke-width: 0.8"/>
      </g>
     </g>
    </g>
    <g id="xtick_24">
     <g id="line2d_47">
      <path d="M 195.804558 146.747947 
L 195.804558 12.07875 
" clip-path="url(#p043d1bea31)" style="fill: none; stroke: #b0b0b0; stroke-width: 0.3; stroke-linecap: square"/>
     </g>
     <g id="line2d_48">
      <g>
       <use xlink:href="#md0b57b3f0e" x="195.804558" y="146.747947" style="stroke: #000000; stroke-width: 0.8"/>
      </g>
     </g>
    </g>
    <g id="text_6">
     <text style="font: 9.6px 'DejaVu Sans', 'Bitstream Vera Sans', 'Computer Modern Sans Serif', 'Lucida Grande', 'Verdana', 'Geneva', 'Lucid', 'Arial', 'Helvetica', 'Avant Garde', sans-serif; text-anchor: middle" x="116.0346" y="174.859197" transform="rotate(-0 116.0346 174.859197)">Wavelength (nm)</text>
    </g>
   </g>
   <g id="matplotlib.axis_2">
    <g id="ytick_1">
     <g id="line2d_49">
      <path d="M 35.58575 136.940497 
L 196.483451 136.940497 
" clip-path="url(#p043d1bea31)" style="fill: none; stroke: #b0b0b0; stroke-width: 0.6; stroke-linecap: square"/>
     </g>
     <g id="line2d_50">
      <defs>
       <path id="m657f1795b1" d="M 0 0 
L -4.8 0 
" style="stroke: #000000"/>
      </defs>
      <g>
       <use xlink:href="#m657f1795b1" x="35.58575" y="136.940497" style="stroke: #000000"/>
      </g>
     </g>
     <g id="text_7">
      <text style="font: 8.8px 'DejaVu Sans', 'Bitstream Vera Sans', 'Computer Modern Sans Serif', 'Lucida Grande', 'Verdana', 'Geneva', 'Lucid', 'Arial', 'Helvetica', 'Avant Garde', sans-serif; text-anchor: end" x="27.28575" y="140.283809" transform="rotate(-0 27.28575 140.283809)">0.2</text>
     </g>
    </g>
    <g id="ytick_2">
     <g id="line2d_51">
      <path d="M 35.58575 107.255392 
L 196.483451 107.255392 
" clip-path="url(#p043d1bea31)" style="fill: none; stroke: #b0b0b0; stroke-width: 0.6; stroke-linecap: square"/>
     </g>
     <g id="line2d_52">
      <g>
       <use xlink:href="#m657f1795b1" x="35.58575" y="107.255392" style="stroke: #000000"/>
      </g>
     </g>
     <g id="text_8">
      <text style="font: 8.8px 'DejaVu Sans', 'Bitstream Vera Sans', 'Computer Modern Sans Serif', 'Lucida Grande', 'Verdana', 'Geneva', 'Lucid', 'Arial', 'Helvetica', 'Avant Garde', sans-serif; text-anchor: end" x="27.28575" y="110.598704" transform="rotate(-0 27.28575 110.598704)">0.4</text>
     </g>
    </g>
    <g id="ytick_3">
     <g id="line2d_53">
      <path d="M 35.58575 77.570287 
L 196.483451 77.570287 
" clip-path="url(#p043d1bea31)" style="fill: none; stroke: #b0b0b0; stroke-width: 0.6; stroke-linecap: square"/>
     </g>
     <g id="line2d_54">
      <g>
       <use xlink:href="#m657f1795b1" x="35.58575" y="77.570287" style="stroke: #000000"/>
      </g>
     </g>
     <g id="text_9">
      <text style="font: 8.8px 'DejaVu Sans', 'Bitstream Vera Sans', 'Computer Modern Sans Serif', 'Lucida Grande', 'Verdana', 'Geneva', 'Lucid', 'Arial', 'Helvetica', 'Avant Garde', sans-serif; text-anchor: end" x="27.28575" y="80.913599" transform="rotate(-0 27.28575 80.913599)">0.6</text>
     </g>
    </g>
    <g id="ytick_4">
     <g id="line2d_55">
      <path d="M 35.58575 47.885182 
L 196.483451 47.885182 
" clip-path="url(#p043d1bea31)" style="fill: none; stroke: #b0b0b0; stroke-width: 0.6; stroke-linecap: square"/>
     </g>
     <g id="line2d_56">
      <g>
       <use xlink:href="#m657f1795b1" x="35.58575" y="47.885182" style="stroke: #000000"/>
      </g>
     </g>
     <g id="text_10">
      <text style="font: 8.8px 'DejaVu Sans', 'Bitstream Vera Sans', 'Computer Modern Sans Serif', 'Lucida Grande', 'Verdana', 'Geneva', 'Lucid', 'Arial', 'Helvetica', 'Avant Garde', sans-serif; text-anchor: end" x="27.28575" y="51.228495" transform="rotate(-0 27.28575 51.228495)">0.8</text>
     </g>
    </g>
    <g id="ytick_5">
     <g id="line2d_57">
      <path d="M 35.58575 18.200077 
L 196.483451 18.200077 
" clip-path="url(#p043d1bea31)" style="fill: none; stroke: #b0b0b0; stroke-width: 0.6; stroke-linecap: square"/>
     </g>
     <g id="line2d_58">
      <g>
       <use xlink:href="#m657f1795b1" x="35.58575" y="18.200077" style="stroke: #000000"/>
      </g>
     </g>
     <g id="text_11">
      <text style="font: 8.8px 'DejaVu Sans', 'Bitstream Vera Sans', 'Computer Modern Sans Serif', 'Lucida Grande', 'Verdana', 'Geneva', 'Lucid', 'Arial', 'Helvetica', 'Avant Garde', sans-serif; text-anchor: end" x="27.28575" y="21.54339" transform="rotate(-0 27.28575 21.54339)">1.0</text>
     </g>
    </g>
    <g id="text_12">
     <text style="font: 9.6px 'DejaVu Sans', 'Bitstream Vera Sans', 'Computer Modern Sans Serif', 'Lucida Grande', 'Verdana', 'Geneva', 'Lucid', 'Arial', 'Helvetica', 'Avant Garde', sans-serif; text-anchor: middle" x="7.2945" y="79.413348" transform="rotate(-90 7.2945 79.413348)">Reflectance</text>
    </g>
   </g>
   <g id="line2d_59">
    <path d="M 36.264643 18.200077 
L 38.708659 24.685776 
L 39.319663 25.514577 
L 39.794888 26.146904 
L 40.270113 26.191872 
L 41.016896 26.165733 
L 41.356343 26.513492 
L 41.763679 25.26549 
L 42.103125 25.179795 
L 42.714129 24.542761 
L 43.121465 24.625278 
L 43.460912 24.314628 
L 44.071916 23.349317 
L 44.61503 23.429061 
L 45.022366 23.264291 
L 45.293924 23.243426 
L 46.040706 23.381354 
L 46.991157 24.139501 
L 47.330603 24.380569 
L 47.534271 24.529916 
L 48.077386 25.121514 
L 48.213164 25.300281 
L 48.756279 26.093336 
L 49.231504 26.738458 
L 49.63884 27.136589 
L 49.910398 27.283284 
L 50.317734 28.102197 
L 50.65718 28.791594 
L 51.064516 28.954314 
L 51.268184 29.081175 
L 52.014967 30.153573 
L 52.422303 30.704827 
L 52.625971 30.930643 
L 53.101196 31.002342 
L 53.304864 31.17324 
L 53.780089 31.770766 
L 54.391093 32.099045 
L 54.66265 31.977087 
L 55.002097 32.064919 
L 55.273654 31.88365 
L 55.74888 32.399135 
L 56.088326 32.356809 
L 58.939678 30.824135 
L 59.143346 30.721525 
L 59.482792 30.582187 
L 60.161686 29.926413 
L 61.383694 28.67302 
L 61.994698 28.144967 
L 63.080927 27.072186 
L 63.691931 26.936537 
L 63.827709 26.853321 
L 64.642381 26.013175 
L 65.049717 25.70794 
L 65.457053 25.351492 
L 65.932278 24.88295 
L 66.203836 24.77472 
L 67.290065 23.730346 
L 67.561622 23.558536 
L 67.968958 22.994921 
L 68.512073 22.626451 
L 69.055187 22.190344 
L 69.937749 21.354848 
L 70.616642 21.528416 
L 71.023978 21.380622 
L 71.363424 21.334498 
L 71.974428 21.071525 
L 72.245986 21.005639 
L 72.585432 23.553658 
L 72.924879 31.745187 
L 72.992768 31.219155 
L 73.400104 27.37514 
L 73.739551 24.225798 
L 73.943219 23.4209 
L 74.011108 23.44274 
L 74.350555 23.438055 
L 75.165227 22.454118 
L 75.572563 22.594009 
L 75.912009 22.873752 
L 75.979899 22.935537 
L 76.047788 22.855678 
L 76.387234 22.550997 
L 76.726681 22.536599 
L 77.066128 22.078067 
L 77.405574 21.346367 
L 77.81291 21.14913 
L 78.559693 20.494661 
L 78.763361 20.442395 
L 79.306475 19.977143 
L 79.442254 19.983266 
L 79.781701 20.080664 
L 80.121147 19.77475 
L 80.460594 19.921412 
L 80.86793 20.271692 
L 81.139487 20.219498 
L 81.546823 20.022701 
L 83.244056 20.243874 
L 83.651392 20.087082 
L 84.262396 19.932666 
L 84.533953 19.918489 
L 84.8734 20.015745 
L 85.144957 19.666296 
L 85.212847 19.727376 
L 85.552293 19.916585 
L 86.366965 19.380645 
L 86.91008 19.373146 
L 87.249526 19.048545 
L 87.656862 19.130196 
L 88.064198 19.10513 
L 88.743092 19.131559 
L 89.014649 19.069964 
L 89.354096 18.991232 
L 89.693542 18.955594 
L 90.100878 18.825059 
L 91.93389 18.835852 
L 92.680673 18.841632 
L 93.088008 18.815574 
L 93.631123 18.915763 
L 93.97057 18.200077 
L 94.038459 18.281163 
L 94.377906 18.585967 
L 94.785242 18.559109 
L 95.396246 18.676157 
L 95.871471 18.50448 
L 96.414585 18.358713 
L 97.025589 18.236278 
L 98.179708 18.363816 
L 98.451265 18.551429 
L 98.92649 18.324376 
L 99.198048 18.394815 
L 99.537494 18.502513 
L 100.01272 18.328198 
L 100.420056 18.200077 
L 100.895281 18.348659 
L 101.166838 18.471748 
L 101.845731 18.22774 
L 102.253067 18.498373 
L 102.524625 18.714977 
L 103.135629 18.512941 
L 103.814522 19.261561 
L 104.153968 19.156906 
L 104.561304 19.712461 
L 105.172308 19.714107 
L 105.511755 18.925334 
L 105.98698 20.651038 
L 106.190648 20.881356 
L 106.258538 20.792018 
L 106.869541 20.136477 
L 107.208988 20.194452 
L 107.548435 19.471739 
L 108.091549 20.591348 
L 108.295217 20.722459 
L 108.906221 20.313328 
L 108.974111 20.448689 
L 109.313557 20.958894 
L 109.720893 20.887493 
L 110.535565 21.315812 
L 110.739233 21.539703 
L 111.350237 22.224809 
L 112.300688 22.732172 
L 112.775913 23.247519 
L 113.115359 23.63197 
L 114.133699 23.768035 
L 114.676814 23.675583 
L 115.966711 22.019719 
L 116.441936 21.383399 
L 116.917162 20.494496 
L 118.750173 18.617446 
L 119.157509 18.689147 
L 119.632735 18.257657 
L 119.972181 18.220125 
L 120.990521 18.422797 
L 121.737304 19.001414 
L 121.940972 18.990453 
L 124.317098 18.261694 
L 125.674885 18.301097 
L 126.15011 18.221583 
L 126.489556 18.211056 
L 126.693224 18.317824 
L 126.964782 18.419313 
L 127.304228 18.240766 
L 127.643675 18.513976 
L 128.051011 19.032686 
L 128.662015 19.46364 
L 129.205129 20.62142 
L 129.408797 21.372833 
L 129.884023 23.794227 
L 130.15558 25.985503 
L 131.106031 33.57094 
L 131.309699 34.179823 
L 131.377588 34.139377 
L 131.649145 33.977329 
L 132.19226 32.870528 
L 132.599596 32.527571 
L 132.803264 32.485487 
L 133.006932 32.49073 
L 133.346378 33.329259 
L 133.889493 38.006776 
L 134.432608 42.720883 
L 134.772054 43.82063 
L 135.17939 44.070415 
L 135.383058 44.297204 
L 135.926173 47.291008 
L 136.265619 48.931887 
L 136.605066 49.726069 
L 136.740845 49.935728 
L 136.808734 49.847018 
L 137.148181 49.229711 
L 137.691295 46.707114 
L 138.370188 42.423893 
L 139.388528 35.306042 
L 139.863754 32.703111 
L 140.2032 31.972888 
L 140.610536 31.894854 
L 140.949983 31.538612 
L 141.22154 30.988558 
L 141.628876 29.284399 
L 142.511437 24.84234 
L 142.850884 24.41176 
L 143.665556 26.331325 
L 144.20867 27.228217 
L 144.819674 28.103034 
L 144.955453 28.497467 
L 145.634346 30.83009 
L 146.041682 31.773823 
L 146.584797 32.270182 
L 147.942583 30.618819 
L 148.621477 30.284292 
L 149.571927 29.460989 
L 149.911374 29.281948 
L 150.115042 29.074933 
L 150.590267 28.629098 
L 151.540717 27.906216 
L 151.744385 27.977845 
L 152.219611 27.81219 
L 152.423279 27.966108 
L 152.762725 27.555983 
L 152.898504 27.510841 
L 153.237951 27.163813 
L 153.373729 26.913647 
L 153.577397 26.62596 
L 153.645287 26.609689 
L 156.496638 19.53677 
L 156.632417 19.29028 
L 156.836085 18.898146 
L 157.039753 18.805653 
L 157.31131 18.376319 
L 157.514978 18.274011 
L 157.718646 18.213274 
L 158.193871 18.229444 
L 158.397539 18.221502 
L 158.601207 18.268344 
L 158.940654 18.200077 
L 159.483769 18.46111 
L 160.026883 19.992225 
L 160.36633 22.136021 
L 161.113112 29.448939 
L 161.588338 36.875353 
L 162.063563 48.769953 
L 162.267231 59.740794 
L 163.014013 114.603429 
L 163.285571 117.206836 
L 163.489239 117.624186 
L 163.760796 117.622192 
L 163.964464 118.07324 
L 164.3718 120.045452 
L 165.118583 124.724726 
L 166.204812 131.047548 
L 167.766266 139.286737 
L 168.309381 140.399485 
L 168.648827 140.62662 
L 169.191942 140.456008 
L 169.870835 139.35575 
L 170.685507 137.202106 
L 171.228622 135.736275 
L 171.771736 134.313421 
L 172.314851 133.165444 
L 172.790076 132.733175 
L 173.40108 132.453833 
L 173.672638 132.562156 
L 174.41942 133.279454 
L 175.234092 134.518424 
L 175.43776 134.710442 
L 175.980875 135.162861 
L 176.863436 134.889416 
L 177.47444 134.031209 
L 179.103784 129.993827 
L 179.850566 127.695797 
L 181.072574 123.352674 
L 182.294582 117.386987 
L 183.652368 109.422319 
L 186.435831 91.24444 
L 190.712858 57.805992 
L 195.736668 18.200077 
L 195.736668 18.200077 
" clip-path="url(#p043d1bea31)" style="fill: none; stroke: #1f77b4; stroke-width: 0.5; stroke-linecap: square"/>
   </g>
   <g id="line2d_60"/>
   <g id="patch_3">
    <path d="M 35.58575 146.747947 
L 35.58575 12.07875 
" style="fill: none; stroke: #000000; stroke-linejoin: miter; stroke-linecap: square"/>
   </g>
   <g id="patch_4">
    <path d="M 196.483451 146.747947 
L 196.483451 12.07875 
" style="fill: none; stroke: #000000; stroke-linejoin: miter; stroke-linecap: square"/>
   </g>
   <g id="patch_5">
    <path d="M 35.58575 146.747947 
L 196.483451 146.747947 
" style="fill: none; stroke: #000000; stroke-linejoin: miter; stroke-linecap: square"/>
   </g>
   <g id="patch_6">
    <path d="M 35.58575 12.07875 
L 196.483451 12.07875 
" style="fill: none; stroke: #000000; stroke-linejoin: miter; stroke-linecap: square"/>
   </g>
   <g id="text_13">
    <text style="font: 8px 'DejaVu Sans', 'Bitstream Vera Sans', 'Computer Modern Sans Serif', 'Lucida Grande', 'Verdana', 'Geneva', 'Lucid', 'Arial', 'Helvetica', 'Avant Garde', sans-serif; text-anchor: middle" x="116.0346" y="6.07875" transform="rotate(-0 116.0346 6.07875)">Laboratory Phyllosilicate Chlorite</text>
   </g>
   <g id="legend_1">
    <g id="patch_7">
     <path d="M 203.901405 84.716786 
L 271.161405 84.716786 
Q 272.361405 84.716786 272.361405 83.516786 
L 272.361405 75.309911 
Q 272.361405 74.109911 271.161405 74.109911 
L 203.901405 74.109911 
Q 202.701405 74.109911 202.701405 75.309911 
L 202.701405 83.516786 
Q 202.701405 84.716786 203.901405 84.716786 
z
" style="fill: #ffffff; opacity: 0.8; stroke: #cccccc; stroke-width: 0.8; stroke-linejoin: miter"/>
    </g>
    <g id="line2d_61">
     <path d="M 205.101405 78.968973 
L 211.101405 78.968973 
L 217.101405 78.968973 
" style="fill: none; stroke: #1f77b4; stroke-width: 1.2; stroke-linecap: square"/>
    </g>
    <g id="text_14">
     <text style="font: 6px 'DejaVu Sans', 'Bitstream Vera Sans', 'Computer Modern Sans Serif', 'Lucida Grande', 'Verdana', 'Geneva', 'Lucid', 'Arial', 'Helvetica', 'Avant Garde', sans-serif; text-anchor: start" x="221.901405" y="81.068973" transform="rotate(-0 221.901405 81.068973)">Chlorite LACL14</text>
    </g>
   </g>
  </g>
 </g>
 <defs>
  <clipPath id="p043d1bea31">
   <rect x="35.58575" y="12.07875" width="160.897701" height="134.669197"/>
  </clipPath>
 </defs>
</svg>
