<?xml version="1.0" encoding="utf-8" standalone="no"?>
<!DOCTYPE svg PUBLIC "-//W3C//DTD SVG 1.1//EN"
  "http://www.w3.org/Graphics/SVG/1.1/DTD/svg11.dtd">
<svg xmlns:xlink="http://www.w3.org/1999/xlink" width="272.175967pt" height="176.645947pt" viewBox="0 0 272.175967 176.645947" xmlns="http://www.w3.org/2000/svg" version="1.1">
 <metadata>
  <rdf:RDF xmlns:dc="http://purl.org/dc/elements/1.1/" xmlns:cc="http://creativecommons.org/ns#" xmlns:rdf="http://www.w3.org/1999/02/22-rdf-syntax-ns#">
   <cc:Work>
    <dc:type rdf:resource="http://purl.org/dc/dcmitype/StillImage"/>
    <dc:date>2025-02-12T17:07:51.753218</dc:date>
    <dc:format>image/svg+xml</dc:format>
    <dc:creator>
     <cc:Agent>
      <dc:title>Matplotlib v3.6.2, https://matplotlib.org/</dc:title>
     </cc:Agent>
    </dc:creator>
   </cc:Work>
  </rdf:RDF>
 </metadata>
 <defs>
  <style type="text/css">*{stroke-linejoin: round; stroke-linecap: butt}</style>
 </defs>
 <g id="figure_1">
  <g id="patch_1">
   <path d="M -0 176.645947 
L 272.175967 176.645947 
L 272.175967 0 
L -0 0 
z
" style="fill: #ffffff"/>
  </g>
  <g id="axes_1">
   <g id="patch_2">
    <path d="M 35.58575 146.538197 
L 190.633451 146.538197 
L 190.633451 21.037 
L 35.58575 21.037 
z
" style="fill: #ffffff"/>
   </g>
   <g id="matplotlib.axis_1">
    <g id="xtick_1">
     <g id="line2d_1">
      <path d="M 46.053105 146.538197 
L 46.053105 21.037 
" clip-path="url(#peb2eedbd34)" style="fill: none; stroke: #b0b0b0; stroke-width: 0.6; stroke-linecap: square"/>
     </g>
     <g id="line2d_2">
      <defs>
       <path id="m618911774d" d="M 0 0 
L 0 4.8 
" style="stroke: #000000"/>
      </defs>
      <g>
       <use xlink:href="#m618911774d" x="46.053105" y="146.538197" style="stroke: #000000"/>
      </g>
     </g>
     <g id="text_1">
      <text style="font: 8.8px 'DejaVu Sans', 'Bitstream Vera Sans', 'Computer Modern Sans Serif', 'Lucida Grande', 'Verdana', 'Geneva', 'Lucid', 'Arial', 'Helvetica', 'Avant Garde', sans-serif; text-anchor: middle" x="46.053105" y="161.524822" transform="rotate(-0 46.053105 161.524822)">1000</text>
     </g>
    </g>
    <g id="xtick_2">
     <g id="line2d_3">
      <path d="M 78.763591 146.538197 
L 78.763591 21.037 
" clip-path="url(#peb2eedbd34)" style="fill: none; stroke: #b0b0b0; stroke-width: 0.6; stroke-linecap: square"/>
     </g>
     <g id="line2d_4">
      <g>
       <use xlink:href="#m618911774d" x="78.763591" y="146.538197" style="stroke: #000000"/>
      </g>
     </g>
     <g id="text_2">
      <text style="font: 8.8px 'DejaVu Sans', 'Bitstream Vera Sans', 'Computer Modern Sans Serif', 'Lucida Grande', 'Verdana', 'Geneva', 'Lucid', 'Arial', 'Helvetica', 'Avant Garde', sans-serif; text-anchor: middle" x="78.763591" y="161.524822" transform="rotate(-0 78.763591 161.524822)">1500</text>
     </g>
    </g>
    <g id="xtick_3">
     <g id="line2d_5">
      <path d="M 111.474076 146.538197 
L 111.474076 21.037 
" clip-path="url(#peb2eedbd34)" style="fill: none; stroke: #b0b0b0; stroke-width: 0.6; stroke-linecap: square"/>
     </g>
     <g id="line2d_6">
      <g>
       <use xlink:href="#m618911774d" x="111.474076" y="146.538197" style="stroke: #000000"/>
      </g>
     </g>
     <g id="text_3">
      <text style="font: 8.8px 'DejaVu Sans', 'Bitstream Vera Sans', 'Computer Modern Sans Serif', 'Lucida Grande', 'Verdana', 'Geneva', 'Lucid', 'Arial', 'Helvetica', 'Avant Garde', sans-serif; text-anchor: middle" x="111.474076" y="161.524822" transform="rotate(-0 111.474076 161.524822)">2000</text>
     </g>
    </g>
    <g id="xtick_4">
     <g id="line2d_7">
      <path d="M 144.184562 146.538197 
L 144.184562 21.037 
" clip-path="url(#peb2eedbd34)" style="fill: none; stroke: #b0b0b0; stroke-width: 0.6; stroke-linecap: square"/>
     </g>
     <g id="line2d_8">
      <g>
       <use xlink:href="#m618911774d" x="144.184562" y="146.538197" style="stroke: #000000"/>
      </g>
     </g>
     <g id="text_4">
      <text style="font: 8.8px 'DejaVu Sans', 'Bitstream Vera Sans', 'Computer Modern Sans Serif', 'Lucida Grande', 'Verdana', 'Geneva', 'Lucid', 'Arial', 'Helvetica', 'Avant Garde', sans-serif; text-anchor: middle" x="144.184562" y="161.524822" transform="rotate(-0 144.184562 161.524822)">2500</text>
     </g>
    </g>
    <g id="xtick_5">
     <g id="line2d_9">
      <path d="M 176.895047 146.538197 
L 176.895047 21.037 
" clip-path="url(#peb2eedbd34)" style="fill: none; stroke: #b0b0b0; stroke-width: 0.6; stroke-linecap: square"/>
     </g>
     <g id="line2d_10">
      <g>
       <use xlink:href="#m618911774d" x="176.895047" y="146.538197" style="stroke: #000000"/>
      </g>
     </g>
     <g id="text_5">
      <text style="font: 8.8px 'DejaVu Sans', 'Bitstream Vera Sans', 'Computer Modern Sans Serif', 'Lucida Grande', 'Verdana', 'Geneva', 'Lucid', 'Arial', 'Helvetica', 'Avant Garde', sans-serif; text-anchor: middle" x="176.895047" y="161.524822" transform="rotate(-0 176.895047 161.524822)">3000</text>
     </g>
    </g>
    <g id="xtick_6">
     <g id="line2d_11">
      <path d="M 39.511008 146.538197 
L 39.511008 21.037 
" clip-path="url(#peb2eedbd34)" style="fill: none; stroke: #b0b0b0; stroke-width: 0.3; stroke-linecap: square"/>
     </g>
     <g id="line2d_12">
      <defs>
       <path id="m5f37e25fd2" d="M 0 0 
L 0 3.2 
" style="stroke: #000000; stroke-width: 0.8"/>
      </defs>
      <g>
       <use xlink:href="#m5f37e25fd2" x="39.511008" y="146.538197" style="stroke: #000000; stroke-width: 0.8"/>
      </g>
     </g>
    </g>
    <g id="xtick_7">
     <g id="line2d_13">
      <path d="M 52.595202 146.538197 
L 52.595202 21.037 
" clip-path="url(#peb2eedbd34)" style="fill: none; stroke: #b0b0b0; stroke-width: 0.3; stroke-linecap: square"/>
     </g>
     <g id="line2d_14">
      <g>
       <use xlink:href="#m5f37e25fd2" x="52.595202" y="146.538197" style="stroke: #000000; stroke-width: 0.8"/>
      </g>
     </g>
    </g>
    <g id="xtick_8">
     <g id="line2d_15">
      <path d="M 59.137299 146.538197 
L 59.137299 21.037 
" clip-path="url(#peb2eedbd34)" style="fill: none; stroke: #b0b0b0; stroke-width: 0.3; stroke-linecap: square"/>
     </g>
     <g id="line2d_16">
      <g>
       <use xlink:href="#m5f37e25fd2" x="59.137299" y="146.538197" style="stroke: #000000; stroke-width: 0.8"/>
      </g>
     </g>
    </g>
    <g id="xtick_9">
     <g id="line2d_17">
      <path d="M 65.679397 146.538197 
L 65.679397 21.037 
" clip-path="url(#peb2eedbd34)" style="fill: none; stroke: #b0b0b0; stroke-width: 0.3; stroke-linecap: square"/>
     </g>
     <g id="line2d_18">
      <g>
       <use xlink:href="#m5f37e25fd2" x="65.679397" y="146.538197" style="stroke: #000000; stroke-width: 0.8"/>
      </g>
     </g>
    </g>
    <g id="xtick_10">
     <g id="line2d_19">
      <path d="M 72.221494 146.538197 
L 72.221494 21.037 
" clip-path="url(#peb2eedbd34)" style="fill: none; stroke: #b0b0b0; stroke-width: 0.3; stroke-linecap: square"/>
     </g>
     <g id="line2d_20">
      <g>
       <use xlink:href="#m5f37e25fd2" x="72.221494" y="146.538197" style="stroke: #000000; stroke-width: 0.8"/>
      </g>
     </g>
    </g>
    <g id="xtick_11">
     <g id="line2d_21">
      <path d="M 85.305688 146.538197 
L 85.305688 21.037 
" clip-path="url(#peb2eedbd34)" style="fill: none; stroke: #b0b0b0; stroke-width: 0.3; stroke-linecap: square"/>
     </g>
     <g id="line2d_22">
      <g>
       <use xlink:href="#m5f37e25fd2" x="85.305688" y="146.538197" style="stroke: #000000; stroke-width: 0.8"/>
      </g>
     </g>
    </g>
    <g id="xtick_12">
     <g id="line2d_23">
      <path d="M 91.847785 146.538197 
L 91.847785 21.037 
" clip-path="url(#peb2eedbd34)" style="fill: none; stroke: #b0b0b0; stroke-width: 0.3; stroke-linecap: square"/>
     </g>
     <g id="line2d_24">
      <g>
       <use xlink:href="#m5f37e25fd2" x="91.847785" y="146.538197" style="stroke: #000000; stroke-width: 0.8"/>
      </g>
     </g>
    </g>
    <g id="xtick_13">
     <g id="line2d_25">
      <path d="M 98.389882 146.538197 
L 98.389882 21.037 
" clip-path="url(#peb2eedbd34)" style="fill: none; stroke: #b0b0b0; stroke-width: 0.3; stroke-linecap: square"/>
     </g>
     <g id="line2d_26">
      <g>
       <use xlink:href="#m5f37e25fd2" x="98.389882" y="146.538197" style="stroke: #000000; stroke-width: 0.8"/>
      </g>
     </g>
    </g>
    <g id="xtick_14">
     <g id="line2d_27">
      <path d="M 104.931979 146.538197 
L 104.931979 21.037 
" clip-path="url(#peb2eedbd34)" style="fill: none; stroke: #b0b0b0; stroke-width: 0.3; stroke-linecap: square"/>
     </g>
     <g id="line2d_28">
      <g>
       <use xlink:href="#m5f37e25fd2" x="104.931979" y="146.538197" style="stroke: #000000; stroke-width: 0.8"/>
      </g>
     </g>
    </g>
    <g id="xtick_15">
     <g id="line2d_29">
      <path d="M 118.016173 146.538197 
L 118.016173 21.037 
" clip-path="url(#peb2eedbd34)" style="fill: none; stroke: #b0b0b0; stroke-width: 0.3; stroke-linecap: square"/>
     </g>
     <g id="line2d_30">
      <g>
       <use xlink:href="#m5f37e25fd2" x="118.016173" y="146.538197" style="stroke: #000000; stroke-width: 0.8"/>
      </g>
     </g>
    </g>
    <g id="xtick_16">
     <g id="line2d_31">
      <path d="M 124.55827 146.538197 
L 124.55827 21.037 
" clip-path="url(#peb2eedbd34)" style="fill: none; stroke: #b0b0b0; stroke-width: 0.3; stroke-linecap: square"/>
     </g>
     <g id="line2d_32">
      <g>
       <use xlink:href="#m5f37e25fd2" x="124.55827" y="146.538197" style="stroke: #000000; stroke-width: 0.8"/>
      </g>
     </g>
    </g>
    <g id="xtick_17">
     <g id="line2d_33">
      <path d="M 131.100367 146.538197 
L 131.100367 21.037 
" clip-path="url(#peb2eedbd34)" style="fill: none; stroke: #b0b0b0; stroke-width: 0.3; stroke-linecap: square"/>
     </g>
     <g id="line2d_34">
      <g>
       <use xlink:href="#m5f37e25fd2" x="131.100367" y="146.538197" style="stroke: #000000; stroke-width: 0.8"/>
      </g>
     </g>
    </g>
    <g id="xtick_18">
     <g id="line2d_35">
      <path d="M 137.642464 146.538197 
L 137.642464 21.037 
" clip-path="url(#peb2eedbd34)" style="fill: none; stroke: #b0b0b0; stroke-width: 0.3; stroke-linecap: square"/>
     </g>
     <g id="line2d_36">
      <g>
       <use xlink:href="#m5f37e25fd2" x="137.642464" y="146.538197" style="stroke: #000000; stroke-width: 0.8"/>
      </g>
     </g>
    </g>
    <g id="xtick_19">
     <g id="line2d_37">
      <path d="M 150.726659 146.538197 
L 150.726659 21.037 
" clip-path="url(#peb2eedbd34)" style="fill: none; stroke: #b0b0b0; stroke-width: 0.3; stroke-linecap: square"/>
     </g>
     <g id="line2d_38">
      <g>
       <use xlink:href="#m5f37e25fd2" x="150.726659" y="146.538197" style="stroke: #000000; stroke-width: 0.8"/>
      </g>
     </g>
    </g>
    <g id="xtick_20">
     <g id="line2d_39">
      <path d="M 157.268756 146.538197 
L 157.268756 21.037 
" clip-path="url(#peb2eedbd34)" style="fill: none; stroke: #b0b0b0; stroke-width: 0.3; stroke-linecap: square"/>
     </g>
     <g id="line2d_40">
      <g>
       <use xlink:href="#m5f37e25fd2" x="157.268756" y="146.538197" style="stroke: #000000; stroke-width: 0.8"/>
      </g>
     </g>
    </g>
    <g id="xtick_21">
     <g id="line2d_41">
      <path d="M 163.810853 146.538197 
L 163.810853 21.037 
" clip-path="url(#peb2eedbd34)" style="fill: none; stroke: #b0b0b0; stroke-width: 0.3; stroke-linecap: square"/>
     </g>
     <g id="line2d_42">
      <g>
       <use xlink:href="#m5f37e25fd2" x="163.810853" y="146.538197" style="stroke: #000000; stroke-width: 0.8"/>
      </g>
     </g>
    </g>
    <g id="xtick_22">
     <g id="line2d_43">
      <path d="M 170.35295 146.538197 
L 170.35295 21.037 
" clip-path="url(#peb2eedbd34)" style="fill: none; stroke: #b0b0b0; stroke-width: 0.3; stroke-linecap: square"/>
     </g>
     <g id="line2d_44">
      <g>
       <use xlink:href="#m5f37e25fd2" x="170.35295" y="146.538197" style="stroke: #000000; stroke-width: 0.8"/>
      </g>
     </g>
    </g>
    <g id="xtick_23">
     <g id="line2d_45">
      <path d="M 183.437144 146.538197 
L 183.437144 21.037 
" clip-path="url(#peb2eedbd34)" style="fill: none; stroke: #b0b0b0; stroke-width: 0.3; stroke-linecap: square"/>
     </g>
     <g id="line2d_46">
      <g>
       <use xlink:href="#m5f37e25fd2" x="183.437144" y="146.538197" style="stroke: #000000; stroke-width: 0.8"/>
      </g>
     </g>
    </g>
    <g id="xtick_24">
     <g id="line2d_47">
      <path d="M 189.979241 146.538197 
L 189.979241 21.037 
" clip-path="url(#peb2eedbd34)" style="fill: none; stroke: #b0b0b0; stroke-width: 0.3; stroke-linecap: square"/>
     </g>
     <g id="line2d_48">
      <g>
       <use xlink:href="#m5f37e25fd2" x="189.979241" y="146.538197" style="stroke: #000000; stroke-width: 0.8"/>
      </g>
     </g>
    </g>
    <g id="text_6">
     <text style="font: 9.6px 'DejaVu Sans', 'Bitstream Vera Sans', 'Computer Modern Sans Serif', 'Lucida Grande', 'Verdana', 'Geneva', 'Lucid', 'Arial', 'Helvetica', 'Avant Garde', sans-serif; text-anchor: middle" x="113.1096" y="174.649447" transform="rotate(-0 113.1096 174.649447)">Wavelength (nm)</text>
    </g>
   </g>
   <g id="matplotlib.axis_2">
    <g id="ytick_1">
     <g id="line2d_49">
      <path d="M 35.58575 144.97068 
L 190.633451 144.97068 
" clip-path="url(#peb2eedbd34)" style="fill: none; stroke: #b0b0b0; stroke-width: 0.6; stroke-linecap: square"/>
     </g>
     <g id="line2d_50">
      <defs>
       <path id="m4f2595b26d" d="M 0 0 
L -4.8 0 
" style="stroke: #000000"/>
      </defs>
      <g>
       <use xlink:href="#m4f2595b26d" x="35.58575" y="144.97068" style="stroke: #000000"/>
      </g>
     </g>
     <g id="text_7">
      <text style="font: 8.8px 'DejaVu Sans', 'Bitstream Vera Sans', 'Computer Modern Sans Serif', 'Lucida Grande', 'Verdana', 'Geneva', 'Lucid', 'Arial', 'Helvetica', 'Avant Garde', sans-serif; text-anchor: end" x="27.28575" y="148.313992" transform="rotate(-0 27.28575 148.313992)">0.4</text>
     </g>
    </g>
    <g id="ytick_2">
     <g id="line2d_51">
      <path d="M 35.58575 125.265833 
L 190.633451 125.265833 
" clip-path="url(#peb2eedbd34)" style="fill: none; stroke: #b0b0b0; stroke-width: 0.6; stroke-linecap: square"/>
     </g>
     <g id="line2d_52">
      <g>
       <use xlink:href="#m4f2595b26d" x="35.58575" y="125.265833" style="stroke: #000000"/>
      </g>
     </g>
     <g id="text_8">
      <text style="font: 8.8px 'DejaVu Sans', 'Bitstream Vera Sans', 'Computer Modern Sans Serif', 'Lucida Grande', 'Verdana', 'Geneva', 'Lucid', 'Arial', 'Helvetica', 'Avant Garde', sans-serif; text-anchor: end" x="27.28575" y="128.609146" transform="rotate(-0 27.28575 128.609146)">0.5</text>
     </g>
    </g>
    <g id="ytick_3">
     <g id="line2d_53">
      <path d="M 35.58575 105.560987 
L 190.633451 105.560987 
" clip-path="url(#peb2eedbd34)" style="fill: none; stroke: #b0b0b0; stroke-width: 0.6; stroke-linecap: square"/>
     </g>
     <g id="line2d_54">
      <g>
       <use xlink:href="#m4f2595b26d" x="35.58575" y="105.560987" style="stroke: #000000"/>
      </g>
     </g>
     <g id="text_9">
      <text style="font: 8.8px 'DejaVu Sans', 'Bitstream Vera Sans', 'Computer Modern Sans Serif', 'Lucida Grande', 'Verdana', 'Geneva', 'Lucid', 'Arial', 'Helvetica', 'Avant Garde', sans-serif; text-anchor: end" x="27.28575" y="108.904299" transform="rotate(-0 27.28575 108.904299)">0.6</text>
     </g>
    </g>
    <g id="ytick_4">
     <g id="line2d_55">
      <path d="M 35.58575 85.85614 
L 190.633451 85.85614 
" clip-path="url(#peb2eedbd34)" style="fill: none; stroke: #b0b0b0; stroke-width: 0.6; stroke-linecap: square"/>
     </g>
     <g id="line2d_56">
      <g>
       <use xlink:href="#m4f2595b26d" x="35.58575" y="85.85614" style="stroke: #000000"/>
      </g>
     </g>
     <g id="text_10">
      <text style="font: 8.8px 'DejaVu Sans', 'Bitstream Vera Sans', 'Computer Modern Sans Serif', 'Lucida Grande', 'Verdana', 'Geneva', 'Lucid', 'Arial', 'Helvetica', 'Avant Garde', sans-serif; text-anchor: end" x="27.28575" y="89.199452" transform="rotate(-0 27.28575 89.199452)">0.7</text>
     </g>
    </g>
    <g id="ytick_5">
     <g id="line2d_57">
      <path d="M 35.58575 66.151293 
L 190.633451 66.151293 
" clip-path="url(#peb2eedbd34)" style="fill: none; stroke: #b0b0b0; stroke-width: 0.6; stroke-linecap: square"/>
     </g>
     <g id="line2d_58">
      <g>
       <use xlink:href="#m4f2595b26d" x="35.58575" y="66.151293" style="stroke: #000000"/>
      </g>
     </g>
     <g id="text_11">
      <text style="font: 8.8px 'DejaVu Sans', 'Bitstream Vera Sans', 'Computer Modern Sans Serif', 'Lucida Grande', 'Verdana', 'Geneva', 'Lucid', 'Arial', 'Helvetica', 'Avant Garde', sans-serif; text-anchor: end" x="27.28575" y="69.494606" transform="rotate(-0 27.28575 69.494606)">0.8</text>
     </g>
    </g>
    <g id="ytick_6">
     <g id="line2d_59">
      <path d="M 35.58575 46.446447 
L 190.633451 46.446447 
" clip-path="url(#peb2eedbd34)" style="fill: none; stroke: #b0b0b0; stroke-width: 0.6; stroke-linecap: square"/>
     </g>
     <g id="line2d_60">
      <g>
       <use xlink:href="#m4f2595b26d" x="35.58575" y="46.446447" style="stroke: #000000"/>
      </g>
     </g>
     <g id="text_12">
      <text style="font: 8.8px 'DejaVu Sans', 'Bitstream Vera Sans', 'Computer Modern Sans Serif', 'Lucida Grande', 'Verdana', 'Geneva', 'Lucid', 'Arial', 'Helvetica', 'Avant Garde', sans-serif; text-anchor: end" x="27.28575" y="49.789759" transform="rotate(-0 27.28575 49.789759)">0.9</text>
     </g>
    </g>
    <g id="ytick_7">
     <g id="line2d_61">
      <path d="M 35.58575 26.7416 
L 190.633451 26.7416 
" clip-path="url(#peb2eedbd34)" style="fill: none; stroke: #b0b0b0; stroke-width: 0.6; stroke-linecap: square"/>
     </g>
     <g id="line2d_62">
      <g>
       <use xlink:href="#m4f2595b26d" x="35.58575" y="26.7416" style="stroke: #000000"/>
      </g>
     </g>
     <g id="text_13">
      <text style="font: 8.8px 'DejaVu Sans', 'Bitstream Vera Sans', 'Computer Modern Sans Serif', 'Lucida Grande', 'Verdana', 'Geneva', 'Lucid', 'Arial', 'Helvetica', 'Avant Garde', sans-serif; text-anchor: end" x="27.28575" y="30.084912" transform="rotate(-0 27.28575 30.084912)">1.0</text>
     </g>
    </g>
    <g id="text_14">
     <text style="font: 9.6px 'DejaVu Sans', 'Bitstream Vera Sans', 'Computer Modern Sans Serif', 'Lucida Grande', 'Verdana', 'Geneva', 'Lucid', 'Arial', 'Helvetica', 'Avant Garde', sans-serif; text-anchor: middle" x="7.2945" y="83.787598" transform="rotate(-90 7.2945 83.787598)">Reflectance</text>
    </g>
   </g>
   <g id="line2d_63">
    <path d="M 36.23996 26.7416 
L 39.64185 55.576996 
L 41.146533 70.522065 
L 43.109162 93.74184 
L 44.548423 109.900139 
L 45.464317 118.965985 
L 46.249368 125.541536 
L 47.03442 130.688245 
L 48.081155 136.337501 
L 48.539102 137.697157 
L 48.800786 138.418284 
L 49.258733 139.624548 
L 49.520417 139.927316 
L 49.71668 140.200276 
L 49.978364 140.833597 
L 50.043785 140.742585 
L 50.43631 140.341516 
L 50.763415 140.353707 
L 50.959678 140.45814 
L 51.940993 138.454936 
L 54.034464 131.781621 
L 54.557832 130.113842 
L 54.950357 129.291401 
L 55.604567 127.287366 
L 56.193356 125.805842 
L 56.782145 124.458213 
L 57.043828 124.203656 
L 57.240091 123.9772 
L 57.632617 123.368757 
L 57.894301 123.090833 
L 58.221406 122.502102 
L 58.548511 122.454802 
L 59.660667 121.319032 
L 59.987772 121.15515 
L 60.838245 120.426858 
L 61.361612 119.809019 
L 62.342927 118.812812 
L 62.800874 118.119403 
L 63.324242 117.285868 
L 63.716767 116.688771 
L 65.156029 113.78627 
L 66.071922 111.120298 
L 66.464448 110.117109 
L 67.380342 107.326518 
L 67.707447 106.297125 
L 68.099972 104.377559 
L 68.361656 103.567304 
L 68.819603 101.717079 
L 69.212129 100.409416 
L 69.866339 97.624677 
L 70.455127 94.892357 
L 71.567284 89.7223 
L 72.025231 88.172885 
L 72.810282 83.711678 
L 73.464492 80.506465 
L 74.445807 75.323281 
L 75.165437 71.629346 
L 76.408436 65.629766 
L 77.520592 59.878969 
L 79.286958 51.799394 
L 79.614063 50.364157 
L 80.137431 48.167514 
L 80.529957 46.700216 
L 81.053325 44.558354 
L 82.034639 40.993508 
L 82.623428 38.973698 
L 82.885112 38.26503 
L 83.343059 36.981017 
L 84.455215 33.929455 
L 84.847741 33.164576 
L 85.174846 32.65904 
L 85.305688 32.532978 
L 85.763635 31.183044 
L 86.875791 29.774907 
L 87.006633 29.63989 
L 87.857106 28.501661 
L 88.380473 28.03924 
L 88.642157 27.624701 
L 89.034683 27.727276 
L 89.230946 27.864697 
L 89.688893 27.055018 
L 90.212261 26.789284 
L 91.455259 26.766017 
L 91.651522 26.785123 
L 92.17489 26.84769 
L 92.89452 26.7416 
L 93.810414 26.846441 
L 94.20294 26.994601 
L 94.595466 26.825021 
L 95.053412 26.760796 
L 95.249675 26.799543 
L 95.57678 26.849182 
L 96.165569 26.774643 
L 96.492674 26.873643 
L 96.819779 26.813437 
L 97.146884 27.064515 
L 97.670251 26.89545 
L 98.586145 26.918524 
L 98.847829 26.940816 
L 99.436617 26.852847 
L 99.698301 27.297476 
L 100.025406 26.7416 
L 100.352511 27.511778 
L 100.417932 27.421776 
L 100.745037 27.071091 
L 101.202984 27.036107 
L 101.922614 26.870095 
L 102.053456 26.940067 
L 102.380561 27.156308 
L 103.034771 26.773361 
L 103.62356 26.96077 
L 104.016085 26.825073 
L 104.604874 27.402972 
L 105.389926 27.006872 
L 105.586189 26.7416 
L 105.978715 27.485993 
L 106.305819 27.349569 
L 106.567503 26.938181 
L 106.632924 27.00087 
L 107.352555 27.571711 
L 107.614239 27.55331 
L 107.941344 27.35371 
L 108.530132 27.592074 
L 108.988079 27.566773 
L 109.249763 27.50376 
L 109.70771 27.609925 
L 110.165657 27.483351 
L 110.558183 27.16529 
L 111.277813 27.38295 
L 111.539497 27.569122 
L 112.717075 27.294559 
L 113.567547 27.454303 
L 113.894652 27.268679 
L 114.614283 27.394951 
L 115.07223 27.49923 
L 115.661018 27.501572 
L 116.44607 27.425908 
L 116.838596 27.587044 
L 117.81991 27.395696 
L 118.539541 27.339348 
L 118.997488 27.281429 
L 119.455435 27.417082 
L 119.717118 27.526525 
L 120.175065 27.408535 
L 120.894696 27.548964 
L 121.483485 27.70495 
L 121.745169 27.689984 
L 122.072273 27.874712 
L 122.857325 28.484392 
L 123.315272 28.542356 
L 123.773219 28.398253 
L 124.55827 28.525485 
L 124.950796 28.675835 
L 125.277901 28.473132 
L 125.801269 28.714738 
L 126.193795 28.70023 
L 126.58632 28.532325 
L 126.978846 28.792639 
L 127.24053 28.857878 
L 127.567635 29.056467 
L 127.89474 28.837106 
L 128.352687 28.939525 
L 129.072317 28.802908 
L 129.595685 28.812718 
L 130.904104 28.857264 
L 131.231209 28.655461 
L 131.689156 28.580621 
L 131.819998 28.633166 
L 132.212524 28.919506 
L 132.866734 28.94499 
L 133.128417 28.979425 
L 133.455522 28.841171 
L 133.782627 29.104352 
L 134.109732 29.073743 
L 134.698521 29.340623 
L 135.156468 29.346264 
L 135.483572 29.443832 
L 135.876098 29.490632 
L 136.203203 29.511199 
L 136.66115 29.503555 
L 137.053676 29.802225 
L 137.380781 29.642093 
L 137.642464 29.324761 
L 137.969569 29.958911 
L 138.03499 29.921217 
L 138.362095 29.801444 
L 139.016305 30.024571 
L 139.408831 29.651309 
L 139.670515 29.731365 
L 140.128461 30.10381 
L 140.390145 30.291272 
L 140.848092 30.622698 
L 140.978934 30.603511 
L 141.306039 30.433346 
L 141.698565 30.76637 
L 142.09109 31.14703 
L 142.549037 31.350041 
L 142.876142 30.855117 
L 142.941563 30.948303 
L 143.334089 31.375752 
L 143.661194 31.594734 
L 143.988299 31.778262 
L 144.249982 31.830545 
L 144.642508 32.214728 
L 145.296718 32.553977 
L 145.558402 32.599374 
L 145.885507 32.47902 
L 146.343454 33.108091 
L 146.408875 33.018315 
L 146.670558 32.975381 
L 147.324768 33.091295 
L 147.45561 32.994733 
L 147.717294 33.137285 
L 147.913557 32.927841 
L 148.371504 32.921024 
L 148.764029 32.797965 
L 148.894871 32.55564 
L 149.025713 32.89937 
L 149.156555 32.452864 
L 149.287397 32.520928 
L 149.418239 32.338009 
L 149.549081 32.459763 
L 149.876186 31.945326 
L 149.941607 32.031815 
L 150.007028 31.97209 
L 150.203291 31.794109 
L 150.268712 31.88075 
L 150.399554 32.283299 
L 150.595817 30.785676 
L 150.661238 30.802549 
L 150.857501 31.071742 
L 150.988342 30.918795 
L 151.053763 31.094424 
L 151.119184 31.044441 
L 151.315447 30.378303 
L 151.380868 30.403084 
L 151.577131 30.205758 
L 151.773394 30.057935 
L 151.838815 30.193075 
L 151.969657 29.713744 
L 152.035078 29.741584 
L 152.100499 29.902713 
L 152.296762 29.294091 
L 152.558446 29.226195 
L 152.623867 28.998471 
L 152.689288 29.11621 
L 152.82013 28.791412 
L 152.885551 28.503226 
L 152.950972 28.709787 
L 153.081814 28.782603 
L 153.736023 28.211356 
L 153.997707 27.880995 
L 154.19397 28.033038 
L 154.455654 27.638552 
L 154.521075 27.68262 
L 154.651917 27.861905 
L 154.84818 27.33348 
L 155.044443 27.585204 
L 155.109864 27.448597 
L 155.240706 27.166043 
L 155.371548 27.594541 
L 155.56781 26.7416 
L 155.764073 27.208867 
L 156.091178 26.7416 
L 156.287441 26.915249 
L 156.679967 26.781082 
L 156.941651 27.040253 
L 157.137914 26.761413 
L 157.465019 27.211414 
L 157.53044 27.076854 
L 157.595861 27.134186 
L 157.922965 27.630456 
L 157.988386 27.643231 
L 158.184649 27.270125 
L 158.511754 27.558754 
L 158.642596 27.824026 
L 158.773438 27.304144 
L 158.90428 27.667269 
L 158.969701 27.595078 
L 159.100543 27.248634 
L 159.427648 27.72277 
L 159.623911 28.150304 
L 159.689332 28.040491 
L 159.885595 28.560266 
L 159.951015 28.405578 
L 160.147278 28.066634 
L 160.93233 29.76823 
L 161.128593 29.192514 
L 161.455698 29.852596 
L 161.58654 29.897849 
L 161.848224 30.139067 
L 162.175328 30.384436 
L 162.633275 31.207194 
L 162.829538 31.112941 
L 163.091222 31.374638 
L 163.222064 31.330539 
L 164.072537 32.332086 
L 164.2688 32.100337 
L 164.465062 32.184623 
L 165.250114 32.306141 
L 165.446377 32.359803 
L 165.969745 32.56238 
L 166.231429 32.569064 
L 166.951059 32.581625 
L 167.343585 32.709499 
L 167.605269 32.473701 
L 167.997795 32.642761 
L 168.455742 32.591482 
L 168.652005 32.578625 
L 169.04453 32.379372 
L 169.371635 32.423473 
L 169.567898 32.341982 
L 170.156687 32.317997 
L 170.614634 32.05647 
L 171.00716 32.12431 
L 171.203422 32.127436 
L 171.595948 32.086007 
L 171.792211 32.038777 
L 171.988474 32.08718 
L 172.250158 31.94208 
L 172.511842 31.952337 
L 172.838947 31.90428 
L 173.231473 31.980735 
L 173.623998 31.939541 
L 174.147366 31.968113 
L 174.278208 31.891408 
L 174.539892 32.075566 
L 174.736155 32.212749 
L 175.259523 32.142679 
L 175.717469 32.261262 
L 176.044574 32.280662 
L 176.306258 32.384701 
L 176.567942 32.277133 
L 176.829626 32.356536 
L 177.549257 32.312819 
L 177.876361 32.247925 
L 178.138045 32.062106 
L 178.595992 32.104432 
L 179.838991 31.704803 
L 180.166095 31.569311 
L 180.362358 31.626023 
L 180.624042 31.422355 
L 180.820305 31.484273 
L 181.212831 31.314235 
L 181.343673 31.285374 
L 181.605357 31.152412 
L 181.867041 31.133241 
L 182.586671 30.838028 
L 182.913776 30.653534 
L 183.306302 30.617622 
L 184.745563 29.970258 
L 185.007247 29.859434 
L 185.334352 29.676879 
L 186.184825 29.312493 
L 186.577351 28.990234 
L 186.773614 28.905429 
L 187.362402 28.490698 
L 187.558665 28.360981 
L 188.409138 27.725097 
L 188.997927 27.410814 
L 189.91382 26.7416 
L 189.91382 26.7416 
" clip-path="url(#peb2eedbd34)" style="fill: none; stroke: #1f77b4; stroke-width: 0.5; stroke-linecap: square"/>
   </g>
   <g id="line2d_64"/>
   <g id="patch_3">
    <path d="M 35.58575 146.538197 
L 35.58575 21.037 
" style="fill: none; stroke: #000000; stroke-linejoin: miter; stroke-linecap: square"/>
   </g>
   <g id="patch_4">
    <path d="M 190.633451 146.538197 
L 190.633451 21.037 
" style="fill: none; stroke: #000000; stroke-linejoin: miter; stroke-linecap: square"/>
   </g>
   <g id="patch_5">
    <path d="M 35.58575 146.538197 
L 190.633451 146.538197 
" style="fill: none; stroke: #000000; stroke-linejoin: miter; stroke-linecap: square"/>
   </g>
   <g id="patch_6">
    <path d="M 35.58575 21.037 
L 190.633451 21.037 
" style="fill: none; stroke: #000000; stroke-linejoin: miter; stroke-linecap: square"/>
   </g>
   <g id="text_15">
    <text style="font: 8px 'DejaVu Sans', 'Bitstream Vera Sans', 'Computer Modern Sans Serif', 'Lucida Grande', 'Verdana', 'Geneva', 'Lucid', 'Arial', 'Helvetica', 'Avant Garde', sans-serif" transform="translate(62.512725 6.07875)">Laboratory Iron oxides &amp; </text>
    <text style="font: 8px 'DejaVu Sans', 'Bitstream Vera Sans', 'Computer Modern Sans Serif', 'Lucida Grande', 'Verdana', 'Geneva', 'Lucid', 'Arial', 'Helvetica', 'Avant Garde', sans-serif" transform="translate(58.3146 15.037)"> primary silicates Forsterite</text>
   </g>
   <g id="legend_1">
    <g id="patch_7">
     <path d="M 197.934405 89.091036 
L 270.975967 89.091036 
Q 272.175967 89.091036 272.175967 87.891036 
L 272.175967 79.684161 
Q 272.175967 78.484161 270.975967 78.484161 
L 197.934405 78.484161 
Q 196.734405 78.484161 196.734405 79.684161 
L 196.734405 87.891036 
Q 196.734405 89.091036 197.934405 89.091036 
z
" style="fill: #ffffff; opacity: 0.8; stroke: #cccccc; stroke-width: 0.8; stroke-linejoin: miter"/>
    </g>
    <g id="line2d_65">
     <path d="M 199.134405 83.343223 
L 205.134405 83.343223 
L 211.134405 83.343223 
" style="fill: none; stroke: #1f77b4; stroke-width: 1.2; stroke-linecap: square"/>
    </g>
    <g id="text_16">
     <text style="font: 6px 'DejaVu Sans', 'Bitstream Vera Sans', 'Computer Modern Sans Serif', 'Lucida Grande', 'Verdana', 'Geneva', 'Lucid', 'Arial', 'Helvetica', 'Avant Garde', sans-serif; text-anchor: start" x="215.934405" y="85.443223" transform="rotate(-0 215.934405 85.443223)">Forsterite LASC02</text>
    </g>
   </g>
  </g>
 </g>
 <defs>
  <clipPath id="peb2eedbd34">
   <rect x="35.58575" y="21.037" width="155.047701" height="125.501197"/>
  </clipPath>
 </defs>
</svg>
