<?xml version="1.0" encoding="utf-8" standalone="no"?>
<!DOCTYPE svg PUBLIC "-//W3C//DTD SVG 1.1//EN"
  "http://www.w3.org/Graphics/SVG/1.1/DTD/svg11.dtd">
<svg xmlns:xlink="http://www.w3.org/1999/xlink" width="272.405767pt" height="176.645947pt" viewBox="0 0 272.405767 176.645947" xmlns="http://www.w3.org/2000/svg" version="1.1">
 <metadata>
  <rdf:RDF xmlns:dc="http://purl.org/dc/elements/1.1/" xmlns:cc="http://creativecommons.org/ns#" xmlns:rdf="http://www.w3.org/1999/02/22-rdf-syntax-ns#">
   <cc:Work>
    <dc:type rdf:resource="http://purl.org/dc/dcmitype/StillImage"/>
    <dc:date>2025-02-12T17:07:54.433202</dc:date>
    <dc:format>image/svg+xml</dc:format>
    <dc:creator>
     <cc:Agent>
      <dc:title>Matplotlib v3.6.2, https://matplotlib.org/</dc:title>
     </cc:Agent>
    </dc:creator>
   </cc:Work>
  </rdf:RDF>
 </metadata>
 <defs>
  <style type="text/css">*{stroke-linejoin: round; stroke-linecap: butt}</style>
 </defs>
 <g id="figure_1">
  <g id="patch_1">
   <path d="M -0 176.645947 
L 272.405767 176.645947 
L 272.405767 0 
L -0 0 
z
" style="fill: #ffffff"/>
  </g>
  <g id="axes_1">
   <g id="patch_2">
    <path d="M 35.58575 146.538197 
L 199.123451 146.538197 
L 199.123451 21.037 
L 35.58575 21.037 
z
" style="fill: #ffffff"/>
   </g>
   <g id="matplotlib.axis_1">
    <g id="xtick_1">
     <g id="line2d_1">
      <path d="M 46.62627 146.538197 
L 46.62627 21.037 
" clip-path="url(#p7b2dbe523a)" style="fill: none; stroke: #b0b0b0; stroke-width: 0.6; stroke-linecap: square"/>
     </g>
     <g id="line2d_2">
      <defs>
       <path id="ma5f4e38969" d="M 0 0 
L 0 4.8 
" style="stroke: #000000"/>
      </defs>
      <g>
       <use xlink:href="#ma5f4e38969" x="46.62627" y="146.538197" style="stroke: #000000"/>
      </g>
     </g>
     <g id="text_1">
      <text style="font: 8.8px 'DejaVu Sans', 'Bitstream Vera Sans', 'Computer Modern Sans Serif', 'Lucida Grande', 'Verdana', 'Geneva', 'Lucid', 'Arial', 'Helvetica', 'Avant Garde', sans-serif; text-anchor: middle" x="46.62627" y="161.524822" transform="rotate(-0 46.62627 161.524822)">1000</text>
     </g>
    </g>
    <g id="xtick_2">
     <g id="line2d_3">
      <path d="M 81.127895 146.538197 
L 81.127895 21.037 
" clip-path="url(#p7b2dbe523a)" style="fill: none; stroke: #b0b0b0; stroke-width: 0.6; stroke-linecap: square"/>
     </g>
     <g id="line2d_4">
      <g>
       <use xlink:href="#ma5f4e38969" x="81.127895" y="146.538197" style="stroke: #000000"/>
      </g>
     </g>
     <g id="text_2">
      <text style="font: 8.8px 'DejaVu Sans', 'Bitstream Vera Sans', 'Computer Modern Sans Serif', 'Lucida Grande', 'Verdana', 'Geneva', 'Lucid', 'Arial', 'Helvetica', 'Avant Garde', sans-serif; text-anchor: middle" x="81.127895" y="161.524822" transform="rotate(-0 81.127895 161.524822)">1500</text>
     </g>
    </g>
    <g id="xtick_3">
     <g id="line2d_5">
      <path d="M 115.629519 146.538197 
L 115.629519 21.037 
" clip-path="url(#p7b2dbe523a)" style="fill: none; stroke: #b0b0b0; stroke-width: 0.6; stroke-linecap: square"/>
     </g>
     <g id="line2d_6">
      <g>
       <use xlink:href="#ma5f4e38969" x="115.629519" y="146.538197" style="stroke: #000000"/>
      </g>
     </g>
     <g id="text_3">
      <text style="font: 8.8px 'DejaVu Sans', 'Bitstream Vera Sans', 'Computer Modern Sans Serif', 'Lucida Grande', 'Verdana', 'Geneva', 'Lucid', 'Arial', 'Helvetica', 'Avant Garde', sans-serif; text-anchor: middle" x="115.629519" y="161.524822" transform="rotate(-0 115.629519 161.524822)">2000</text>
     </g>
    </g>
    <g id="xtick_4">
     <g id="line2d_7">
      <path d="M 150.131144 146.538197 
L 150.131144 21.037 
" clip-path="url(#p7b2dbe523a)" style="fill: none; stroke: #b0b0b0; stroke-width: 0.6; stroke-linecap: square"/>
     </g>
     <g id="line2d_8">
      <g>
       <use xlink:href="#ma5f4e38969" x="150.131144" y="146.538197" style="stroke: #000000"/>
      </g>
     </g>
     <g id="text_4">
      <text style="font: 8.8px 'DejaVu Sans', 'Bitstream Vera Sans', 'Computer Modern Sans Serif', 'Lucida Grande', 'Verdana', 'Geneva', 'Lucid', 'Arial', 'Helvetica', 'Avant Garde', sans-serif; text-anchor: middle" x="150.131144" y="161.524822" transform="rotate(-0 150.131144 161.524822)">2500</text>
     </g>
    </g>
    <g id="xtick_5">
     <g id="line2d_9">
      <path d="M 184.632768 146.538197 
L 184.632768 21.037 
" clip-path="url(#p7b2dbe523a)" style="fill: none; stroke: #b0b0b0; stroke-width: 0.6; stroke-linecap: square"/>
     </g>
     <g id="line2d_10">
      <g>
       <use xlink:href="#ma5f4e38969" x="184.632768" y="146.538197" style="stroke: #000000"/>
      </g>
     </g>
     <g id="text_5">
      <text style="font: 8.8px 'DejaVu Sans', 'Bitstream Vera Sans', 'Computer Modern Sans Serif', 'Lucida Grande', 'Verdana', 'Geneva', 'Lucid', 'Arial', 'Helvetica', 'Avant Garde', sans-serif; text-anchor: middle" x="184.632768" y="161.524822" transform="rotate(-0 184.632768 161.524822)">3000</text>
     </g>
    </g>
    <g id="xtick_6">
     <g id="line2d_11">
      <path d="M 39.725945 146.538197 
L 39.725945 21.037 
" clip-path="url(#p7b2dbe523a)" style="fill: none; stroke: #b0b0b0; stroke-width: 0.3; stroke-linecap: square"/>
     </g>
     <g id="line2d_12">
      <defs>
       <path id="m1d7c3f6608" d="M 0 0 
L 0 3.2 
" style="stroke: #000000; stroke-width: 0.8"/>
      </defs>
      <g>
       <use xlink:href="#m1d7c3f6608" x="39.725945" y="146.538197" style="stroke: #000000; stroke-width: 0.8"/>
      </g>
     </g>
    </g>
    <g id="xtick_7">
     <g id="line2d_13">
      <path d="M 53.526595 146.538197 
L 53.526595 21.037 
" clip-path="url(#p7b2dbe523a)" style="fill: none; stroke: #b0b0b0; stroke-width: 0.3; stroke-linecap: square"/>
     </g>
     <g id="line2d_14">
      <g>
       <use xlink:href="#m1d7c3f6608" x="53.526595" y="146.538197" style="stroke: #000000; stroke-width: 0.8"/>
      </g>
     </g>
    </g>
    <g id="xtick_8">
     <g id="line2d_15">
      <path d="M 60.42692 146.538197 
L 60.42692 21.037 
" clip-path="url(#p7b2dbe523a)" style="fill: none; stroke: #b0b0b0; stroke-width: 0.3; stroke-linecap: square"/>
     </g>
     <g id="line2d_16">
      <g>
       <use xlink:href="#m1d7c3f6608" x="60.42692" y="146.538197" style="stroke: #000000; stroke-width: 0.8"/>
      </g>
     </g>
    </g>
    <g id="xtick_9">
     <g id="line2d_17">
      <path d="M 67.327245 146.538197 
L 67.327245 21.037 
" clip-path="url(#p7b2dbe523a)" style="fill: none; stroke: #b0b0b0; stroke-width: 0.3; stroke-linecap: square"/>
     </g>
     <g id="line2d_18">
      <g>
       <use xlink:href="#m1d7c3f6608" x="67.327245" y="146.538197" style="stroke: #000000; stroke-width: 0.8"/>
      </g>
     </g>
    </g>
    <g id="xtick_10">
     <g id="line2d_19">
      <path d="M 74.22757 146.538197 
L 74.22757 21.037 
" clip-path="url(#p7b2dbe523a)" style="fill: none; stroke: #b0b0b0; stroke-width: 0.3; stroke-linecap: square"/>
     </g>
     <g id="line2d_20">
      <g>
       <use xlink:href="#m1d7c3f6608" x="74.22757" y="146.538197" style="stroke: #000000; stroke-width: 0.8"/>
      </g>
     </g>
    </g>
    <g id="xtick_11">
     <g id="line2d_21">
      <path d="M 88.028219 146.538197 
L 88.028219 21.037 
" clip-path="url(#p7b2dbe523a)" style="fill: none; stroke: #b0b0b0; stroke-width: 0.3; stroke-linecap: square"/>
     </g>
     <g id="line2d_22">
      <g>
       <use xlink:href="#m1d7c3f6608" x="88.028219" y="146.538197" style="stroke: #000000; stroke-width: 0.8"/>
      </g>
     </g>
    </g>
    <g id="xtick_12">
     <g id="line2d_23">
      <path d="M 94.928544 146.538197 
L 94.928544 21.037 
" clip-path="url(#p7b2dbe523a)" style="fill: none; stroke: #b0b0b0; stroke-width: 0.3; stroke-linecap: square"/>
     </g>
     <g id="line2d_24">
      <g>
       <use xlink:href="#m1d7c3f6608" x="94.928544" y="146.538197" style="stroke: #000000; stroke-width: 0.8"/>
      </g>
     </g>
    </g>
    <g id="xtick_13">
     <g id="line2d_25">
      <path d="M 101.828869 146.538197 
L 101.828869 21.037 
" clip-path="url(#p7b2dbe523a)" style="fill: none; stroke: #b0b0b0; stroke-width: 0.3; stroke-linecap: square"/>
     </g>
     <g id="line2d_26">
      <g>
       <use xlink:href="#m1d7c3f6608" x="101.828869" y="146.538197" style="stroke: #000000; stroke-width: 0.8"/>
      </g>
     </g>
    </g>
    <g id="xtick_14">
     <g id="line2d_27">
      <path d="M 108.729194 146.538197 
L 108.729194 21.037 
" clip-path="url(#p7b2dbe523a)" style="fill: none; stroke: #b0b0b0; stroke-width: 0.3; stroke-linecap: square"/>
     </g>
     <g id="line2d_28">
      <g>
       <use xlink:href="#m1d7c3f6608" x="108.729194" y="146.538197" style="stroke: #000000; stroke-width: 0.8"/>
      </g>
     </g>
    </g>
    <g id="xtick_15">
     <g id="line2d_29">
      <path d="M 122.529844 146.538197 
L 122.529844 21.037 
" clip-path="url(#p7b2dbe523a)" style="fill: none; stroke: #b0b0b0; stroke-width: 0.3; stroke-linecap: square"/>
     </g>
     <g id="line2d_30">
      <g>
       <use xlink:href="#m1d7c3f6608" x="122.529844" y="146.538197" style="stroke: #000000; stroke-width: 0.8"/>
      </g>
     </g>
    </g>
    <g id="xtick_16">
     <g id="line2d_31">
      <path d="M 129.430169 146.538197 
L 129.430169 21.037 
" clip-path="url(#p7b2dbe523a)" style="fill: none; stroke: #b0b0b0; stroke-width: 0.3; stroke-linecap: square"/>
     </g>
     <g id="line2d_32">
      <g>
       <use xlink:href="#m1d7c3f6608" x="129.430169" y="146.538197" style="stroke: #000000; stroke-width: 0.8"/>
      </g>
     </g>
    </g>
    <g id="xtick_17">
     <g id="line2d_33">
      <path d="M 136.330494 146.538197 
L 136.330494 21.037 
" clip-path="url(#p7b2dbe523a)" style="fill: none; stroke: #b0b0b0; stroke-width: 0.3; stroke-linecap: square"/>
     </g>
     <g id="line2d_34">
      <g>
       <use xlink:href="#m1d7c3f6608" x="136.330494" y="146.538197" style="stroke: #000000; stroke-width: 0.8"/>
      </g>
     </g>
    </g>
    <g id="xtick_18">
     <g id="line2d_35">
      <path d="M 143.230819 146.538197 
L 143.230819 21.037 
" clip-path="url(#p7b2dbe523a)" style="fill: none; stroke: #b0b0b0; stroke-width: 0.3; stroke-linecap: square"/>
     </g>
     <g id="line2d_36">
      <g>
       <use xlink:href="#m1d7c3f6608" x="143.230819" y="146.538197" style="stroke: #000000; stroke-width: 0.8"/>
      </g>
     </g>
    </g>
    <g id="xtick_19">
     <g id="line2d_37">
      <path d="M 157.031469 146.538197 
L 157.031469 21.037 
" clip-path="url(#p7b2dbe523a)" style="fill: none; stroke: #b0b0b0; stroke-width: 0.3; stroke-linecap: square"/>
     </g>
     <g id="line2d_38">
      <g>
       <use xlink:href="#m1d7c3f6608" x="157.031469" y="146.538197" style="stroke: #000000; stroke-width: 0.8"/>
      </g>
     </g>
    </g>
    <g id="xtick_20">
     <g id="line2d_39">
      <path d="M 163.931794 146.538197 
L 163.931794 21.037 
" clip-path="url(#p7b2dbe523a)" style="fill: none; stroke: #b0b0b0; stroke-width: 0.3; stroke-linecap: square"/>
     </g>
     <g id="line2d_40">
      <g>
       <use xlink:href="#m1d7c3f6608" x="163.931794" y="146.538197" style="stroke: #000000; stroke-width: 0.8"/>
      </g>
     </g>
    </g>
    <g id="xtick_21">
     <g id="line2d_41">
      <path d="M 170.832119 146.538197 
L 170.832119 21.037 
" clip-path="url(#p7b2dbe523a)" style="fill: none; stroke: #b0b0b0; stroke-width: 0.3; stroke-linecap: square"/>
     </g>
     <g id="line2d_42">
      <g>
       <use xlink:href="#m1d7c3f6608" x="170.832119" y="146.538197" style="stroke: #000000; stroke-width: 0.8"/>
      </g>
     </g>
    </g>
    <g id="xtick_22">
     <g id="line2d_43">
      <path d="M 177.732444 146.538197 
L 177.732444 21.037 
" clip-path="url(#p7b2dbe523a)" style="fill: none; stroke: #b0b0b0; stroke-width: 0.3; stroke-linecap: square"/>
     </g>
     <g id="line2d_44">
      <g>
       <use xlink:href="#m1d7c3f6608" x="177.732444" y="146.538197" style="stroke: #000000; stroke-width: 0.8"/>
      </g>
     </g>
    </g>
    <g id="xtick_23">
     <g id="line2d_45">
      <path d="M 191.533093 146.538197 
L 191.533093 21.037 
" clip-path="url(#p7b2dbe523a)" style="fill: none; stroke: #b0b0b0; stroke-width: 0.3; stroke-linecap: square"/>
     </g>
     <g id="line2d_46">
      <g>
       <use xlink:href="#m1d7c3f6608" x="191.533093" y="146.538197" style="stroke: #000000; stroke-width: 0.8"/>
      </g>
     </g>
    </g>
    <g id="xtick_24">
     <g id="line2d_47">
      <path d="M 198.433418 146.538197 
L 198.433418 21.037 
" clip-path="url(#p7b2dbe523a)" style="fill: none; stroke: #b0b0b0; stroke-width: 0.3; stroke-linecap: square"/>
     </g>
     <g id="line2d_48">
      <g>
       <use xlink:href="#m1d7c3f6608" x="198.433418" y="146.538197" style="stroke: #000000; stroke-width: 0.8"/>
      </g>
     </g>
    </g>
    <g id="text_6">
     <text style="font: 9.6px 'DejaVu Sans', 'Bitstream Vera Sans', 'Computer Modern Sans Serif', 'Lucida Grande', 'Verdana', 'Geneva', 'Lucid', 'Arial', 'Helvetica', 'Avant Garde', sans-serif; text-anchor: middle" x="117.3546" y="174.649447" transform="rotate(-0 117.3546 174.649447)">Wavelength (nm)</text>
    </g>
   </g>
   <g id="matplotlib.axis_2">
    <g id="ytick_1">
     <g id="line2d_49">
      <path d="M 35.58575 143.563439 
L 199.123451 143.563439 
" clip-path="url(#p7b2dbe523a)" style="fill: none; stroke: #b0b0b0; stroke-width: 0.6; stroke-linecap: square"/>
     </g>
     <g id="line2d_50">
      <defs>
       <path id="m51b74f675f" d="M 0 0 
L -4.8 0 
" style="stroke: #000000"/>
      </defs>
      <g>
       <use xlink:href="#m51b74f675f" x="35.58575" y="143.563439" style="stroke: #000000"/>
      </g>
     </g>
     <g id="text_7">
      <text style="font: 8.8px 'DejaVu Sans', 'Bitstream Vera Sans', 'Computer Modern Sans Serif', 'Lucida Grande', 'Verdana', 'Geneva', 'Lucid', 'Arial', 'Helvetica', 'Avant Garde', sans-serif; text-anchor: end" x="27.28575" y="146.906752" transform="rotate(-0 27.28575 146.906752)">0.2</text>
     </g>
    </g>
    <g id="ytick_2">
     <g id="line2d_51">
      <path d="M 35.58575 114.35798 
L 199.123451 114.35798 
" clip-path="url(#p7b2dbe523a)" style="fill: none; stroke: #b0b0b0; stroke-width: 0.6; stroke-linecap: square"/>
     </g>
     <g id="line2d_52">
      <g>
       <use xlink:href="#m51b74f675f" x="35.58575" y="114.35798" style="stroke: #000000"/>
      </g>
     </g>
     <g id="text_8">
      <text style="font: 8.8px 'DejaVu Sans', 'Bitstream Vera Sans', 'Computer Modern Sans Serif', 'Lucida Grande', 'Verdana', 'Geneva', 'Lucid', 'Arial', 'Helvetica', 'Avant Garde', sans-serif; text-anchor: end" x="27.28575" y="117.701292" transform="rotate(-0 27.28575 117.701292)">0.4</text>
     </g>
    </g>
    <g id="ytick_3">
     <g id="line2d_53">
      <path d="M 35.58575 85.15252 
L 199.123451 85.15252 
" clip-path="url(#p7b2dbe523a)" style="fill: none; stroke: #b0b0b0; stroke-width: 0.6; stroke-linecap: square"/>
     </g>
     <g id="line2d_54">
      <g>
       <use xlink:href="#m51b74f675f" x="35.58575" y="85.15252" style="stroke: #000000"/>
      </g>
     </g>
     <g id="text_9">
      <text style="font: 8.8px 'DejaVu Sans', 'Bitstream Vera Sans', 'Computer Modern Sans Serif', 'Lucida Grande', 'Verdana', 'Geneva', 'Lucid', 'Arial', 'Helvetica', 'Avant Garde', sans-serif; text-anchor: end" x="27.28575" y="88.495832" transform="rotate(-0 27.28575 88.495832)">0.6</text>
     </g>
    </g>
    <g id="ytick_4">
     <g id="line2d_55">
      <path d="M 35.58575 55.94706 
L 199.123451 55.94706 
" clip-path="url(#p7b2dbe523a)" style="fill: none; stroke: #b0b0b0; stroke-width: 0.6; stroke-linecap: square"/>
     </g>
     <g id="line2d_56">
      <g>
       <use xlink:href="#m51b74f675f" x="35.58575" y="55.94706" style="stroke: #000000"/>
      </g>
     </g>
     <g id="text_10">
      <text style="font: 8.8px 'DejaVu Sans', 'Bitstream Vera Sans', 'Computer Modern Sans Serif', 'Lucida Grande', 'Verdana', 'Geneva', 'Lucid', 'Arial', 'Helvetica', 'Avant Garde', sans-serif; text-anchor: end" x="27.28575" y="59.290372" transform="rotate(-0 27.28575 59.290372)">0.8</text>
     </g>
    </g>
    <g id="ytick_5">
     <g id="line2d_57">
      <path d="M 35.58575 26.7416 
L 199.123451 26.7416 
" clip-path="url(#p7b2dbe523a)" style="fill: none; stroke: #b0b0b0; stroke-width: 0.6; stroke-linecap: square"/>
     </g>
     <g id="line2d_58">
      <g>
       <use xlink:href="#m51b74f675f" x="35.58575" y="26.7416" style="stroke: #000000"/>
      </g>
     </g>
     <g id="text_11">
      <text style="font: 8.8px 'DejaVu Sans', 'Bitstream Vera Sans', 'Computer Modern Sans Serif', 'Lucida Grande', 'Verdana', 'Geneva', 'Lucid', 'Arial', 'Helvetica', 'Avant Garde', sans-serif; text-anchor: end" x="27.28575" y="30.084912" transform="rotate(-0 27.28575 30.084912)">1.0</text>
     </g>
    </g>
    <g id="text_12">
     <text style="font: 9.6px 'DejaVu Sans', 'Bitstream Vera Sans', 'Computer Modern Sans Serif', 'Lucida Grande', 'Verdana', 'Geneva', 'Lucid', 'Arial', 'Helvetica', 'Avant Garde', sans-serif; text-anchor: middle" x="7.2945" y="83.787598" transform="rotate(-90 7.2945 83.787598)">Reflectance</text>
    </g>
   </g>
   <g id="line2d_59">
    <path d="M 36.275782 26.7416 
L 36.689802 26.806807 
L 36.965815 27.051654 
L 37.793854 30.522663 
L 39.035912 33.121155 
L 39.587938 35.499256 
L 40.277971 38.809905 
L 40.829997 41.218995 
L 41.865046 47.11994 
L 43.45212 53.725263 
L 43.590127 54.177596 
L 44.694179 59.331515 
L 45.039195 60.769437 
L 45.315208 61.345089 
L 46.074244 63.658641 
L 46.350257 64.182079 
L 47.454309 67.859775 
L 47.799325 68.131184 
L 48.006335 68.153723 
L 48.765371 69.612181 
L 49.041384 69.599214 
L 49.524406 70.331216 
L 49.869423 70.589146 
L 50.145436 70.758673 
L 50.490452 70.591289 
L 50.835468 70.829597 
L 51.73251 69.93422 
L 52.077527 69.565746 
L 52.215533 69.533998 
L 52.491546 69.659778 
L 53.043572 68.179456 
L 53.319585 67.538771 
L 54.009618 65.153652 
L 55.11367 61.472673 
L 56.286725 57.641428 
L 57.942803 51.276895 
L 58.287819 49.969919 
L 58.908848 47.024674 
L 59.943897 41.435938 
L 60.288913 40.011228 
L 60.840939 38.07568 
L 61.254959 36.155273 
L 61.668978 34.822861 
L 62.56602 31.61739 
L 63.049043 30.802256 
L 63.601069 29.842293 
L 64.498111 28.333751 
L 64.636118 28.195966 
L 65.119141 28.313438 
L 65.464157 28.385708 
L 65.671167 28.331662 
L 66.016183 28.169655 
L 66.568209 28.556145 
L 66.706215 28.522706 
L 66.982228 28.271816 
L 67.534254 28.889745 
L 67.741264 29.109509 
L 68.224287 29.838277 
L 68.776313 30.263618 
L 69.121329 30.173899 
L 69.811362 31.040376 
L 70.225381 31.603111 
L 70.984417 31.886619 
L 71.46744 31.737474 
L 72.019466 32.03575 
L 72.226475 32.163814 
L 72.709498 33.093967 
L 72.985511 33.55607 
L 73.261524 33.71723 
L 73.60654 33.656642 
L 74.22757 33.965736 
L 74.710592 33.533062 
L 74.917602 33.511149 
L 75.607635 34.534887 
L 76.021654 34.720505 
L 76.711687 35.356698 
L 77.056703 35.464375 
L 78.505771 37.03027 
L 79.1268 37.564275 
L 79.609823 38.697395 
L 80.023843 39.586395 
L 80.230852 39.78012 
L 80.437862 39.887843 
L 82.09394 46.058694 
L 82.50796 47.670115 
L 83.474005 52.158195 
L 83.888024 54.595762 
L 83.957028 54.561109 
L 84.233041 54.422978 
L 84.716063 52.741613 
L 85.751112 48.051677 
L 86.372141 46.400626 
L 87.752206 43.14499 
L 88.787255 41.543152 
L 89.270278 41.179528 
L 89.546291 40.992344 
L 90.029314 40.378083 
L 90.512336 39.798869 
L 90.857353 39.583267 
L 91.754395 38.416394 
L 92.306421 37.938262 
L 93.410473 37.98101 
L 93.686486 37.980541 
L 93.893496 37.893049 
L 94.583528 35.237797 
L 94.928544 34.438917 
L 94.997548 34.492074 
L 95.549574 34.783818 
L 95.756583 34.745236 
L 96.1016 34.493732 
L 96.791632 33.511934 
L 97.895684 31.793289 
L 98.2407 31.518582 
L 98.44771 31.478856 
L 98.792726 31.561606 
L 99.482759 31.18043 
L 99.896778 31.319612 
L 100.310798 31.133951 
L 100.448804 31.036426 
L 101.00083 29.115182 
L 101.138837 28.815845 
L 101.20784 28.880068 
L 101.62186 29.162577 
L 102.173886 29.204476 
L 103.001925 32.631714 
L 103.691957 36.499237 
L 104.243983 37.984394 
L 105.624048 30.291714 
L 105.693051 30.309019 
L 106.52109 30.610155 
L 107.280126 31.019131 
L 107.694145 31.122946 
L 109.07421 27.275729 
L 109.833246 27.478246 
L 110.523279 28.330569 
L 111.213311 30.744935 
L 111.903344 35.644282 
L 112.524373 35.702776 
L 113.559422 28.576041 
L 113.904438 26.7416 
L 113.973441 26.768846 
L 114.732477 26.987404 
L 115.353506 26.952347 
L 115.974535 27.549689 
L 116.043539 27.468556 
L 116.664568 26.7416 
L 117.3546 28.403588 
L 118.113636 27.155808 
L 118.872672 27.343661 
L 119.631708 27.069337 
L 120.252737 26.774936 
L 122.322834 27.204785 
L 122.943864 26.795613 
L 123.633896 27.227821 
L 124.392932 26.7416 
L 125.63499 26.7416 
L 126.532033 28.323046 
L 127.015055 28.781674 
L 127.843094 31.482054 
L 128.671133 32.879062 
L 129.154156 34.05153 
L 130.603224 40.452036 
L 131.224253 46.916298 
L 131.914286 60.736629 
L 132.811328 87.670975 
L 133.225348 96.307731 
L 134.467406 80.980575 
L 134.605413 79.468218 
L 135.364448 85.093392 
L 136.123484 96.418364 
L 137.710559 129.258918 
L 138.331588 136.990366 
L 138.745608 140.833597 
L 138.814611 140.545652 
L 139.43564 137.940053 
L 140.263679 116.531734 
L 141.781751 64.780022 
L 142.540786 49.848152 
L 143.437829 38.115584 
L 144.610884 29.491842 
L 146.128955 26.7416 
L 147.785033 26.843213 
L 148.337059 27.846197 
L 150.062141 31.376134 
L 150.545163 31.715366 
L 151.925228 32.570356 
L 152.201241 32.38569 
L 154.133332 26.7416 
L 154.133332 26.7416 
" clip-path="url(#p7b2dbe523a)" style="fill: none; stroke: #1f77b4; stroke-width: 0.5; stroke-linecap: square"/>
   </g>
   <g id="line2d_60"/>
   <g id="patch_3">
    <path d="M 35.58575 146.538197 
L 35.58575 21.037 
" style="fill: none; stroke: #000000; stroke-linejoin: miter; stroke-linecap: square"/>
   </g>
   <g id="patch_4">
    <path d="M 199.123451 146.538197 
L 199.123451 21.037 
" style="fill: none; stroke: #000000; stroke-linejoin: miter; stroke-linecap: square"/>
   </g>
   <g id="patch_5">
    <path d="M 35.58575 146.538197 
L 199.123451 146.538197 
" style="fill: none; stroke: #000000; stroke-linejoin: miter; stroke-linecap: square"/>
   </g>
   <g id="patch_6">
    <path d="M 35.58575 21.037 
L 199.123451 21.037 
" style="fill: none; stroke: #000000; stroke-linejoin: miter; stroke-linecap: square"/>
   </g>
   <g id="text_13">
    <text style="font: 8px 'DejaVu Sans', 'Bitstream Vera Sans', 'Computer Modern Sans Serif', 'Lucida Grande', 'Verdana', 'Geneva', 'Lucid', 'Arial', 'Helvetica', 'Avant Garde', sans-serif" transform="translate(56.990225 6.07875)">Laboratory Hydrated silicates </text>
    <text style="font: 8px 'DejaVu Sans', 'Bitstream Vera Sans', 'Computer Modern Sans Serif', 'Lucida Grande', 'Verdana', 'Geneva', 'Lucid', 'Arial', 'Helvetica', 'Avant Garde', sans-serif" transform="translate(80.933975 15.037)"> &amp; halides Epidote</text>
   </g>
   <g id="legend_1">
    <g id="patch_7">
     <path d="M 206.594205 89.091036 
L 271.205767 89.091036 
Q 272.405767 89.091036 272.405767 87.891036 
L 272.405767 79.684161 
Q 272.405767 78.484161 271.205767 78.484161 
L 206.594205 78.484161 
Q 205.394205 78.484161 205.394205 79.684161 
L 205.394205 87.891036 
Q 205.394205 89.091036 206.594205 89.091036 
z
" style="fill: #ffffff; opacity: 0.8; stroke: #cccccc; stroke-width: 0.8; stroke-linejoin: miter"/>
    </g>
    <g id="line2d_61">
     <path d="M 207.794205 83.343223 
L 213.794205 83.343223 
L 219.794205 83.343223 
" style="fill: none; stroke: #1f77b4; stroke-width: 1.2; stroke-linecap: square"/>
    </g>
    <g id="text_14">
     <text style="font: 6px 'DejaVu Sans', 'Bitstream Vera Sans', 'Computer Modern Sans Serif', 'Lucida Grande', 'Verdana', 'Geneva', 'Lucid', 'Arial', 'Helvetica', 'Avant Garde', sans-serif; text-anchor: start" x="224.594205" y="85.443223" transform="rotate(-0 224.594205 85.443223)">Epidote GDS26</text>
    </g>
   </g>
  </g>
 </g>
 <defs>
  <clipPath id="p7b2dbe523a">
   <rect x="35.58575" y="21.037" width="163.537701" height="125.501197"/>
  </clipPath>
 </defs>
</svg>
