<?xml version="1.0" encoding="utf-8" standalone="no"?>
<!DOCTYPE svg PUBLIC "-//W3C//DTD SVG 1.1//EN"
  "http://www.w3.org/Graphics/SVG/1.1/DTD/svg11.dtd">
<svg xmlns:xlink="http://www.w3.org/1999/xlink" width="271.782292pt" height="176.855697pt" viewBox="0 0 271.782292 176.855697" xmlns="http://www.w3.org/2000/svg" version="1.1">
 <metadata>
  <rdf:RDF xmlns:dc="http://purl.org/dc/elements/1.1/" xmlns:cc="http://creativecommons.org/ns#" xmlns:rdf="http://www.w3.org/1999/02/22-rdf-syntax-ns#">
   <cc:Work>
    <dc:type rdf:resource="http://purl.org/dc/dcmitype/StillImage"/>
    <dc:date>2025-02-12T17:07:53.479508</dc:date>
    <dc:format>image/svg+xml</dc:format>
    <dc:creator>
     <cc:Agent>
      <dc:title>Matplotlib v3.6.2, https://matplotlib.org/</dc:title>
     </cc:Agent>
    </dc:creator>
   </cc:Work>
  </rdf:RDF>
 </metadata>
 <defs>
  <style type="text/css">*{stroke-linejoin: round; stroke-linecap: butt}</style>
 </defs>
 <g id="figure_1">
  <g id="patch_1">
   <path d="M -0 176.855697 
L 271.782292 176.855697 
L 271.782292 0 
L -0 0 
z
" style="fill: #ffffff"/>
  </g>
  <g id="axes_1">
   <g id="patch_2">
    <path d="M 35.58575 146.747947 
L 170.293451 146.747947 
L 170.293451 12.07875 
L 35.58575 12.07875 
z
" style="fill: #ffffff"/>
   </g>
   <g id="matplotlib.axis_1">
    <g id="xtick_1">
     <g id="line2d_1">
      <path d="M 44.679941 146.747947 
L 44.679941 12.07875 
" clip-path="url(#p2eef5451e6)" style="fill: none; stroke: #b0b0b0; stroke-width: 0.6; stroke-linecap: square"/>
     </g>
     <g id="line2d_2">
      <defs>
       <path id="m31722c254e" d="M 0 0 
L 0 4.8 
" style="stroke: #000000"/>
      </defs>
      <g>
       <use xlink:href="#m31722c254e" x="44.679941" y="146.747947" style="stroke: #000000"/>
      </g>
     </g>
     <g id="text_1">
      <text style="font: 8.8px 'DejaVu Sans', 'Bitstream Vera Sans', 'Computer Modern Sans Serif', 'Lucida Grande', 'Verdana', 'Geneva', 'Lucid', 'Arial', 'Helvetica', 'Avant Garde', sans-serif; text-anchor: middle" x="44.679941" y="161.734572" transform="rotate(-0 44.679941 161.734572)">1000</text>
     </g>
    </g>
    <g id="xtick_2">
     <g id="line2d_3">
      <path d="M 73.099287 146.747947 
L 73.099287 12.07875 
" clip-path="url(#p2eef5451e6)" style="fill: none; stroke: #b0b0b0; stroke-width: 0.6; stroke-linecap: square"/>
     </g>
     <g id="line2d_4">
      <g>
       <use xlink:href="#m31722c254e" x="73.099287" y="146.747947" style="stroke: #000000"/>
      </g>
     </g>
     <g id="text_2">
      <text style="font: 8.8px 'DejaVu Sans', 'Bitstream Vera Sans', 'Computer Modern Sans Serif', 'Lucida Grande', 'Verdana', 'Geneva', 'Lucid', 'Arial', 'Helvetica', 'Avant Garde', sans-serif; text-anchor: middle" x="73.099287" y="161.734572" transform="rotate(-0 73.099287 161.734572)">1500</text>
     </g>
    </g>
    <g id="xtick_3">
     <g id="line2d_5">
      <path d="M 101.518633 146.747947 
L 101.518633 12.07875 
" clip-path="url(#p2eef5451e6)" style="fill: none; stroke: #b0b0b0; stroke-width: 0.6; stroke-linecap: square"/>
     </g>
     <g id="line2d_6">
      <g>
       <use xlink:href="#m31722c254e" x="101.518633" y="146.747947" style="stroke: #000000"/>
      </g>
     </g>
     <g id="text_3">
      <text style="font: 8.8px 'DejaVu Sans', 'Bitstream Vera Sans', 'Computer Modern Sans Serif', 'Lucida Grande', 'Verdana', 'Geneva', 'Lucid', 'Arial', 'Helvetica', 'Avant Garde', sans-serif; text-anchor: middle" x="101.518633" y="161.734572" transform="rotate(-0 101.518633 161.734572)">2000</text>
     </g>
    </g>
    <g id="xtick_4">
     <g id="line2d_7">
      <path d="M 129.937979 146.747947 
L 129.937979 12.07875 
" clip-path="url(#p2eef5451e6)" style="fill: none; stroke: #b0b0b0; stroke-width: 0.6; stroke-linecap: square"/>
     </g>
     <g id="line2d_8">
      <g>
       <use xlink:href="#m31722c254e" x="129.937979" y="146.747947" style="stroke: #000000"/>
      </g>
     </g>
     <g id="text_4">
      <text style="font: 8.8px 'DejaVu Sans', 'Bitstream Vera Sans', 'Computer Modern Sans Serif', 'Lucida Grande', 'Verdana', 'Geneva', 'Lucid', 'Arial', 'Helvetica', 'Avant Garde', sans-serif; text-anchor: middle" x="129.937979" y="161.734572" transform="rotate(-0 129.937979 161.734572)">2500</text>
     </g>
    </g>
    <g id="xtick_5">
     <g id="line2d_9">
      <path d="M 158.357325 146.747947 
L 158.357325 12.07875 
" clip-path="url(#p2eef5451e6)" style="fill: none; stroke: #b0b0b0; stroke-width: 0.6; stroke-linecap: square"/>
     </g>
     <g id="line2d_10">
      <g>
       <use xlink:href="#m31722c254e" x="158.357325" y="146.747947" style="stroke: #000000"/>
      </g>
     </g>
     <g id="text_5">
      <text style="font: 8.8px 'DejaVu Sans', 'Bitstream Vera Sans', 'Computer Modern Sans Serif', 'Lucida Grande', 'Verdana', 'Geneva', 'Lucid', 'Arial', 'Helvetica', 'Avant Garde', sans-serif; text-anchor: middle" x="158.357325" y="161.734572" transform="rotate(-0 158.357325 161.734572)">3000</text>
     </g>
    </g>
    <g id="xtick_6">
     <g id="line2d_11">
      <path d="M 38.996072 146.747947 
L 38.996072 12.07875 
" clip-path="url(#p2eef5451e6)" style="fill: none; stroke: #b0b0b0; stroke-width: 0.3; stroke-linecap: square"/>
     </g>
     <g id="line2d_12">
      <defs>
       <path id="m441505d0e9" d="M 0 0 
L 0 3.2 
" style="stroke: #000000; stroke-width: 0.8"/>
      </defs>
      <g>
       <use xlink:href="#m441505d0e9" x="38.996072" y="146.747947" style="stroke: #000000; stroke-width: 0.8"/>
      </g>
     </g>
    </g>
    <g id="xtick_7">
     <g id="line2d_13">
      <path d="M 50.36381 146.747947 
L 50.36381 12.07875 
" clip-path="url(#p2eef5451e6)" style="fill: none; stroke: #b0b0b0; stroke-width: 0.3; stroke-linecap: square"/>
     </g>
     <g id="line2d_14">
      <g>
       <use xlink:href="#m441505d0e9" x="50.36381" y="146.747947" style="stroke: #000000; stroke-width: 0.8"/>
      </g>
     </g>
    </g>
    <g id="xtick_8">
     <g id="line2d_15">
      <path d="M 56.047679 146.747947 
L 56.047679 12.07875 
" clip-path="url(#p2eef5451e6)" style="fill: none; stroke: #b0b0b0; stroke-width: 0.3; stroke-linecap: square"/>
     </g>
     <g id="line2d_16">
      <g>
       <use xlink:href="#m441505d0e9" x="56.047679" y="146.747947" style="stroke: #000000; stroke-width: 0.8"/>
      </g>
     </g>
    </g>
    <g id="xtick_9">
     <g id="line2d_17">
      <path d="M 61.731548 146.747947 
L 61.731548 12.07875 
" clip-path="url(#p2eef5451e6)" style="fill: none; stroke: #b0b0b0; stroke-width: 0.3; stroke-linecap: square"/>
     </g>
     <g id="line2d_18">
      <g>
       <use xlink:href="#m441505d0e9" x="61.731548" y="146.747947" style="stroke: #000000; stroke-width: 0.8"/>
      </g>
     </g>
    </g>
    <g id="xtick_10">
     <g id="line2d_19">
      <path d="M 67.415418 146.747947 
L 67.415418 12.07875 
" clip-path="url(#p2eef5451e6)" style="fill: none; stroke: #b0b0b0; stroke-width: 0.3; stroke-linecap: square"/>
     </g>
     <g id="line2d_20">
      <g>
       <use xlink:href="#m441505d0e9" x="67.415418" y="146.747947" style="stroke: #000000; stroke-width: 0.8"/>
      </g>
     </g>
    </g>
    <g id="xtick_11">
     <g id="line2d_21">
      <path d="M 78.783156 146.747947 
L 78.783156 12.07875 
" clip-path="url(#p2eef5451e6)" style="fill: none; stroke: #b0b0b0; stroke-width: 0.3; stroke-linecap: square"/>
     </g>
     <g id="line2d_22">
      <g>
       <use xlink:href="#m441505d0e9" x="78.783156" y="146.747947" style="stroke: #000000; stroke-width: 0.8"/>
      </g>
     </g>
    </g>
    <g id="xtick_12">
     <g id="line2d_23">
      <path d="M 84.467025 146.747947 
L 84.467025 12.07875 
" clip-path="url(#p2eef5451e6)" style="fill: none; stroke: #b0b0b0; stroke-width: 0.3; stroke-linecap: square"/>
     </g>
     <g id="line2d_24">
      <g>
       <use xlink:href="#m441505d0e9" x="84.467025" y="146.747947" style="stroke: #000000; stroke-width: 0.8"/>
      </g>
     </g>
    </g>
    <g id="xtick_13">
     <g id="line2d_25">
      <path d="M 90.150895 146.747947 
L 90.150895 12.07875 
" clip-path="url(#p2eef5451e6)" style="fill: none; stroke: #b0b0b0; stroke-width: 0.3; stroke-linecap: square"/>
     </g>
     <g id="line2d_26">
      <g>
       <use xlink:href="#m441505d0e9" x="90.150895" y="146.747947" style="stroke: #000000; stroke-width: 0.8"/>
      </g>
     </g>
    </g>
    <g id="xtick_14">
     <g id="line2d_27">
      <path d="M 95.834764 146.747947 
L 95.834764 12.07875 
" clip-path="url(#p2eef5451e6)" style="fill: none; stroke: #b0b0b0; stroke-width: 0.3; stroke-linecap: square"/>
     </g>
     <g id="line2d_28">
      <g>
       <use xlink:href="#m441505d0e9" x="95.834764" y="146.747947" style="stroke: #000000; stroke-width: 0.8"/>
      </g>
     </g>
    </g>
    <g id="xtick_15">
     <g id="line2d_29">
      <path d="M 107.202502 146.747947 
L 107.202502 12.07875 
" clip-path="url(#p2eef5451e6)" style="fill: none; stroke: #b0b0b0; stroke-width: 0.3; stroke-linecap: square"/>
     </g>
     <g id="line2d_30">
      <g>
       <use xlink:href="#m441505d0e9" x="107.202502" y="146.747947" style="stroke: #000000; stroke-width: 0.8"/>
      </g>
     </g>
    </g>
    <g id="xtick_16">
     <g id="line2d_31">
      <path d="M 112.886372 146.747947 
L 112.886372 12.07875 
" clip-path="url(#p2eef5451e6)" style="fill: none; stroke: #b0b0b0; stroke-width: 0.3; stroke-linecap: square"/>
     </g>
     <g id="line2d_32">
      <g>
       <use xlink:href="#m441505d0e9" x="112.886372" y="146.747947" style="stroke: #000000; stroke-width: 0.8"/>
      </g>
     </g>
    </g>
    <g id="xtick_17">
     <g id="line2d_33">
      <path d="M 118.570241 146.747947 
L 118.570241 12.07875 
" clip-path="url(#p2eef5451e6)" style="fill: none; stroke: #b0b0b0; stroke-width: 0.3; stroke-linecap: square"/>
     </g>
     <g id="line2d_34">
      <g>
       <use xlink:href="#m441505d0e9" x="118.570241" y="146.747947" style="stroke: #000000; stroke-width: 0.8"/>
      </g>
     </g>
    </g>
    <g id="xtick_18">
     <g id="line2d_35">
      <path d="M 124.25411 146.747947 
L 124.25411 12.07875 
" clip-path="url(#p2eef5451e6)" style="fill: none; stroke: #b0b0b0; stroke-width: 0.3; stroke-linecap: square"/>
     </g>
     <g id="line2d_36">
      <g>
       <use xlink:href="#m441505d0e9" x="124.25411" y="146.747947" style="stroke: #000000; stroke-width: 0.8"/>
      </g>
     </g>
    </g>
    <g id="xtick_19">
     <g id="line2d_37">
      <path d="M 135.621848 146.747947 
L 135.621848 12.07875 
" clip-path="url(#p2eef5451e6)" style="fill: none; stroke: #b0b0b0; stroke-width: 0.3; stroke-linecap: square"/>
     </g>
     <g id="line2d_38">
      <g>
       <use xlink:href="#m441505d0e9" x="135.621848" y="146.747947" style="stroke: #000000; stroke-width: 0.8"/>
      </g>
     </g>
    </g>
    <g id="xtick_20">
     <g id="line2d_39">
      <path d="M 141.305718 146.747947 
L 141.305718 12.07875 
" clip-path="url(#p2eef5451e6)" style="fill: none; stroke: #b0b0b0; stroke-width: 0.3; stroke-linecap: square"/>
     </g>
     <g id="line2d_40">
      <g>
       <use xlink:href="#m441505d0e9" x="141.305718" y="146.747947" style="stroke: #000000; stroke-width: 0.8"/>
      </g>
     </g>
    </g>
    <g id="xtick_21">
     <g id="line2d_41">
      <path d="M 146.989587 146.747947 
L 146.989587 12.07875 
" clip-path="url(#p2eef5451e6)" style="fill: none; stroke: #b0b0b0; stroke-width: 0.3; stroke-linecap: square"/>
     </g>
     <g id="line2d_42">
      <g>
       <use xlink:href="#m441505d0e9" x="146.989587" y="146.747947" style="stroke: #000000; stroke-width: 0.8"/>
      </g>
     </g>
    </g>
    <g id="xtick_22">
     <g id="line2d_43">
      <path d="M 152.673456 146.747947 
L 152.673456 12.07875 
" clip-path="url(#p2eef5451e6)" style="fill: none; stroke: #b0b0b0; stroke-width: 0.3; stroke-linecap: square"/>
     </g>
     <g id="line2d_44">
      <g>
       <use xlink:href="#m441505d0e9" x="152.673456" y="146.747947" style="stroke: #000000; stroke-width: 0.8"/>
      </g>
     </g>
    </g>
    <g id="xtick_23">
     <g id="line2d_45">
      <path d="M 164.041195 146.747947 
L 164.041195 12.07875 
" clip-path="url(#p2eef5451e6)" style="fill: none; stroke: #b0b0b0; stroke-width: 0.3; stroke-linecap: square"/>
     </g>
     <g id="line2d_46">
      <g>
       <use xlink:href="#m441505d0e9" x="164.041195" y="146.747947" style="stroke: #000000; stroke-width: 0.8"/>
      </g>
     </g>
    </g>
    <g id="xtick_24">
     <g id="line2d_47">
      <path d="M 169.725064 146.747947 
L 169.725064 12.07875 
" clip-path="url(#p2eef5451e6)" style="fill: none; stroke: #b0b0b0; stroke-width: 0.3; stroke-linecap: square"/>
     </g>
     <g id="line2d_48">
      <g>
       <use xlink:href="#m441505d0e9" x="169.725064" y="146.747947" style="stroke: #000000; stroke-width: 0.8"/>
      </g>
     </g>
    </g>
    <g id="text_6">
     <text style="font: 9.6px 'DejaVu Sans', 'Bitstream Vera Sans', 'Computer Modern Sans Serif', 'Lucida Grande', 'Verdana', 'Geneva', 'Lucid', 'Arial', 'Helvetica', 'Avant Garde', sans-serif; text-anchor: middle" x="102.9396" y="174.859197" transform="rotate(-0 102.9396 174.859197)">Wavelength (nm)</text>
    </g>
   </g>
   <g id="matplotlib.axis_2">
    <g id="ytick_1">
     <g id="line2d_49">
      <path d="M 35.58575 124.029603 
L 170.293451 124.029603 
" clip-path="url(#p2eef5451e6)" style="fill: none; stroke: #b0b0b0; stroke-width: 0.6; stroke-linecap: square"/>
     </g>
     <g id="line2d_50">
      <defs>
       <path id="m97c7fbd0a2" d="M 0 0 
L -4.8 0 
" style="stroke: #000000"/>
      </defs>
      <g>
       <use xlink:href="#m97c7fbd0a2" x="35.58575" y="124.029603" style="stroke: #000000"/>
      </g>
     </g>
     <g id="text_7">
      <text style="font: 8.8px 'DejaVu Sans', 'Bitstream Vera Sans', 'Computer Modern Sans Serif', 'Lucida Grande', 'Verdana', 'Geneva', 'Lucid', 'Arial', 'Helvetica', 'Avant Garde', sans-serif; text-anchor: end" x="27.28575" y="127.372916" transform="rotate(-0 27.28575 127.372916)">0.2</text>
     </g>
    </g>
    <g id="ytick_2">
     <g id="line2d_51">
      <path d="M 35.58575 97.572222 
L 170.293451 97.572222 
" clip-path="url(#p2eef5451e6)" style="fill: none; stroke: #b0b0b0; stroke-width: 0.6; stroke-linecap: square"/>
     </g>
     <g id="line2d_52">
      <g>
       <use xlink:href="#m97c7fbd0a2" x="35.58575" y="97.572222" style="stroke: #000000"/>
      </g>
     </g>
     <g id="text_8">
      <text style="font: 8.8px 'DejaVu Sans', 'Bitstream Vera Sans', 'Computer Modern Sans Serif', 'Lucida Grande', 'Verdana', 'Geneva', 'Lucid', 'Arial', 'Helvetica', 'Avant Garde', sans-serif; text-anchor: end" x="27.28575" y="100.915534" transform="rotate(-0 27.28575 100.915534)">0.4</text>
     </g>
    </g>
    <g id="ytick_3">
     <g id="line2d_53">
      <path d="M 35.58575 71.11484 
L 170.293451 71.11484 
" clip-path="url(#p2eef5451e6)" style="fill: none; stroke: #b0b0b0; stroke-width: 0.6; stroke-linecap: square"/>
     </g>
     <g id="line2d_54">
      <g>
       <use xlink:href="#m97c7fbd0a2" x="35.58575" y="71.11484" style="stroke: #000000"/>
      </g>
     </g>
     <g id="text_9">
      <text style="font: 8.8px 'DejaVu Sans', 'Bitstream Vera Sans', 'Computer Modern Sans Serif', 'Lucida Grande', 'Verdana', 'Geneva', 'Lucid', 'Arial', 'Helvetica', 'Avant Garde', sans-serif; text-anchor: end" x="27.28575" y="74.458153" transform="rotate(-0 27.28575 74.458153)">0.6</text>
     </g>
    </g>
    <g id="ytick_4">
     <g id="line2d_55">
      <path d="M 35.58575 44.657459 
L 170.293451 44.657459 
" clip-path="url(#p2eef5451e6)" style="fill: none; stroke: #b0b0b0; stroke-width: 0.6; stroke-linecap: square"/>
     </g>
     <g id="line2d_56">
      <g>
       <use xlink:href="#m97c7fbd0a2" x="35.58575" y="44.657459" style="stroke: #000000"/>
      </g>
     </g>
     <g id="text_10">
      <text style="font: 8.8px 'DejaVu Sans', 'Bitstream Vera Sans', 'Computer Modern Sans Serif', 'Lucida Grande', 'Verdana', 'Geneva', 'Lucid', 'Arial', 'Helvetica', 'Avant Garde', sans-serif; text-anchor: end" x="27.28575" y="48.000771" transform="rotate(-0 27.28575 48.000771)">0.8</text>
     </g>
    </g>
    <g id="ytick_5">
     <g id="line2d_57">
      <path d="M 35.58575 18.200077 
L 170.293451 18.200077 
" clip-path="url(#p2eef5451e6)" style="fill: none; stroke: #b0b0b0; stroke-width: 0.6; stroke-linecap: square"/>
     </g>
     <g id="line2d_58">
      <g>
       <use xlink:href="#m97c7fbd0a2" x="35.58575" y="18.200077" style="stroke: #000000"/>
      </g>
     </g>
     <g id="text_11">
      <text style="font: 8.8px 'DejaVu Sans', 'Bitstream Vera Sans', 'Computer Modern Sans Serif', 'Lucida Grande', 'Verdana', 'Geneva', 'Lucid', 'Arial', 'Helvetica', 'Avant Garde', sans-serif; text-anchor: end" x="27.28575" y="21.54339" transform="rotate(-0 27.28575 21.54339)">1.0</text>
     </g>
    </g>
    <g id="text_12">
     <text style="font: 9.6px 'DejaVu Sans', 'Bitstream Vera Sans', 'Computer Modern Sans Serif', 'Lucida Grande', 'Verdana', 'Geneva', 'Lucid', 'Arial', 'Helvetica', 'Avant Garde', sans-serif; text-anchor: middle" x="7.2945" y="79.413348" transform="rotate(-90 7.2945 79.413348)">Reflectance</text>
    </g>
   </g>
   <g id="line2d_59">
    <path d="M 36.154137 18.200077 
L 36.722524 18.250854 
L 37.120395 18.766317 
L 37.404588 18.90896 
L 37.631943 19.034839 
L 38.20033 18.712222 
L 38.484523 18.795119 
L 38.711878 19.067671 
L 38.768717 18.985926 
L 39.05291 18.683379 
L 39.393942 18.947767 
L 39.678136 19.187915 
L 39.962329 19.253267 
L 40.246523 19.347883 
L 40.530716 19.195048 
L 40.758071 18.876661 
L 40.985426 18.257084 
L 41.269619 19.262063 
L 41.326458 19.245614 
L 41.781167 19.013845 
L 41.894845 19.007943 
L 42.633748 19.35874 
L 42.747425 19.408338 
L 43.202135 19.751335 
L 43.258973 19.776292 
L 43.656844 18.996518 
L 43.941038 18.95673 
L 44.111554 19.014923 
L 44.395747 19.815077 
L 44.452586 19.677622 
L 44.907296 18.859038 
L 44.964134 18.791783 
L 45.248328 19.709409 
L 45.305166 19.644701 
L 45.532521 19.386099 
L 45.816715 20.021757 
L 45.873553 19.909697 
L 46.100908 19.461862 
L 46.157747 19.540852 
L 46.385102 19.856529 
L 46.669295 19.23348 
L 46.726134 19.299904 
L 46.953488 19.565362 
L 47.010327 19.500541 
L 47.237682 19.241489 
L 47.521875 20.126488 
L 47.578714 20.104059 
L 47.862908 20.066772 
L 48.090262 20.27598 
L 48.488133 19.628481 
L 48.772327 19.586967 
L 48.942843 19.645266 
L 49.227036 18.905486 
L 49.51123 20.008629 
L 49.568068 19.882923 
L 49.9091 19.356392 
L 50.136455 19.397218 
L 50.420649 19.673331 
L 50.704842 19.579551 
L 51.443745 20.110545 
L 51.614261 20.207481 
L 51.841616 20.127189 
L 52.239487 19.688689 
L 52.353164 19.643345 
L 52.694196 20.198925 
L 52.921551 20.143189 
L 53.205745 21.061395 
L 53.262583 20.877965 
L 53.603615 20.151392 
L 53.774132 20.161134 
L 54.058325 19.474196 
L 54.399357 20.41874 
L 54.740389 20.265799 
L 54.910905 20.096576 
L 54.967744 20.167222 
L 55.195099 20.449556 
L 55.59297 19.873862 
L 55.820324 19.781552 
L 56.388711 18.747441 
L 56.672905 18.220798 
L 57.184453 18.505198 
L 57.696001 19.06634 
L 57.75284 19.14541 
L 57.809679 19.042549 
L 58.321227 18.238184 
L 59.173807 18.746816 
L 59.742194 18.200077 
L 60.026388 19.340549 
L 60.083226 19.178647 
L 60.310581 18.53131 
L 60.36742 18.554058 
L 60.878968 18.876066 
L 61.22 19.106121 
L 61.447355 18.964892 
L 61.788387 19.554624 
L 62.015742 19.477025 
L 62.299935 18.702214 
L 62.584129 19.56903 
L 62.640968 19.518398 
L 62.868322 19.315953 
L 63.152516 19.916032 
L 63.209354 19.809204 
L 63.436709 19.382068 
L 63.493548 19.433179 
L 63.777741 19.595812 
L 64.232451 19.386624 
L 64.346128 19.475739 
L 64.573483 19.874367 
L 64.630322 19.75178 
L 64.857677 19.261636 
L 64.914515 19.339308 
L 65.14187 19.649866 
L 65.539741 21.219768 
L 65.99445 21.849494 
L 66.051289 21.795411 
L 66.278644 21.57917 
L 66.733353 26.43069 
L 67.017547 28.416614 
L 67.358579 32.013102 
L 68.154321 40.60038 
L 68.267998 40.789232 
L 68.60903 37.789524 
L 69.006901 32.62168 
L 69.688965 27.641638 
L 70.257352 26.090943 
L 70.598384 26.594992 
L 70.882578 26.43463 
L 71.22361 26.032694 
L 71.394126 25.9878 
L 71.848836 24.07777 
L 72.417223 23.031709 
L 73.042448 22.189769 
L 73.269803 21.984495 
L 73.440319 21.68589 
L 73.667674 20.965158 
L 73.724513 21.041413 
L 73.951867 21.346307 
L 74.008706 21.276365 
L 74.747609 20.51818 
L 75.031802 20.464041 
L 75.14548 20.355928 
L 75.657028 19.503972 
L 75.941222 20.264788 
L 75.99806 20.218947 
L 76.566447 19.855751 
L 76.793802 20.094299 
L 77.362189 18.767834 
L 77.646382 19.717227 
L 77.703221 19.562336 
L 77.930576 18.943025 
L 77.987414 19.047796 
L 78.214769 19.466712 
L 78.271608 19.378643 
L 78.783156 18.512101 
L 78.839995 18.578444 
L 79.06735 18.843707 
L 79.124188 18.761856 
L 79.408382 18.466226 
L 80.090446 18.948678 
L 80.260962 19.103918 
L 80.658833 19.031732 
L 80.829349 18.956133 
L 81.056704 18.567987 
L 81.113543 18.673978 
L 81.340897 19.09777 
L 81.397736 19.032348 
L 81.738768 18.786873 
L 82.022962 18.747824 
L 82.932381 18.335935 
L 83.102897 18.357474 
L 83.443929 18.246438 
L 84.069155 18.426088 
L 84.296509 18.389462 
L 85.035412 18.581041 
L 85.319606 18.200077 
L 85.603799 18.86312 
L 85.660638 18.756645 
L 86.00167 18.351575 
L 86.285864 18.513403 
L 86.570057 18.712019 
L 86.85425 18.820399 
L 87.195283 18.987149 
L 87.422637 18.920679 
L 87.934186 18.702995 
L 88.275218 18.939636 
L 88.673089 18.966448 
L 88.957282 18.931216 
L 89.696185 18.848704 
L 89.92354 18.949964 
L 90.435088 18.764784 
L 90.946636 18.966168 
L 91.060314 18.875476 
L 91.287668 18.492862 
L 91.344507 18.564891 
L 91.571862 18.853233 
L 91.628701 18.796337 
L 91.969733 18.580851 
L 92.140249 18.599279 
L 92.594958 19.38259 
L 93.106507 19.675872 
L 93.277023 19.494937 
L 94.129603 21.894435 
L 94.925345 34.38452 
L 95.1527 40.716817 
L 95.777925 63.318 
L 96.062119 69.631972 
L 96.118957 70.735661 
L 96.175796 70.319929 
L 96.459989 67.513579 
L 97.596763 46.771535 
L 97.994634 43.690423 
L 98.61986 41.365606 
L 98.960892 40.526532 
L 99.415601 39.2331 
L 100.722891 34.025214 
L 102.200697 27.196487 
L 102.598568 25.470884 
L 102.825923 24.778506 
L 104.24689 21.621552 
L 104.531084 21.340122 
L 104.7016 21.195933 
L 105.55418 20.004601 
L 105.952051 20.035548 
L 106.179406 20.036217 
L 106.747793 19.891528 
L 106.975148 19.891883 
L 107.486696 19.350889 
L 107.827728 19.387368 
L 108.452954 18.522753 
L 108.737147 18.429827 
L 109.02134 18.388392 
L 109.532889 18.207851 
L 109.93076 18.294431 
L 110.214953 18.555678 
L 110.669663 19.127192 
L 111.294888 21.919817 
L 112.374823 30.195303 
L 113.170565 38.686833 
L 113.284242 38.589268 
L 113.454758 38.442708 
L 113.909468 33.818509 
L 114.364178 28.893015 
L 115.55779 23.103303 
L 116.069338 20.244135 
L 116.524048 18.893742 
L 116.751403 18.646779 
L 117.149273 18.200077 
L 117.206112 18.296818 
L 117.547144 18.695642 
L 117.774499 18.785287 
L 118.17237 19.447009 
L 118.570241 20.140686 
L 118.911273 20.303501 
L 119.934369 22.068282 
L 120.048047 22.208122 
L 120.900627 24.303362 
L 121.980562 27.896258 
L 122.492111 28.944299 
L 122.889981 29.624552 
L 124.25411 33.384669 
L 124.765658 34.959177 
L 125.675077 37.949463 
L 126.357142 40.267166 
L 127.096045 42.66842 
L 127.493915 43.532162 
L 127.72127 43.787018 
L 128.119141 44.542737 
L 128.346496 44.867001 
L 128.687528 45.328569 
L 129.653786 46.166815 
L 130.33585 47.898179 
L 131.245269 49.459221 
L 131.472624 49.676605 
L 131.756817 49.842757 
L 132.09785 50.323804 
L 132.211527 50.526031 
L 132.268366 50.4338 
L 132.552559 50.094554 
L 132.893591 50.189404 
L 133.348301 49.799839 
L 133.405139 49.817132 
L 133.689333 49.453893 
L 134.541913 49.102118 
L 134.712429 49.345122 
L 134.882945 48.944759 
L 134.939784 49.008284 
L 135.053462 48.948618 
L 135.167139 48.737639 
L 135.223978 48.840897 
L 135.394494 49.317076 
L 135.508171 48.759483 
L 135.56501 48.821925 
L 135.792365 49.238371 
L 135.962881 49.582793 
L 136.019719 49.517879 
L 136.133397 49.460682 
L 136.360751 49.653571 
L 136.815461 50.23843 
L 136.8723 50.164672 
L 136.985977 50.083373 
L 137.383848 50.869989 
L 137.554364 51.023303 
L 137.838557 51.420853 
L 138.520622 52.613723 
L 139.48688 56.405855 
L 139.827912 59.542225 
L 140.282621 67.687672 
L 140.566815 77.891273 
L 141.362556 110.090685 
L 141.760427 116.338035 
L 142.556169 126.318001 
L 143.067717 134.406319 
L 143.465588 137.911657 
L 143.977136 140.114689 
L 144.318168 140.598099 
L 144.488684 140.471628 
L 144.943394 139.314364 
L 145.284426 137.455136 
L 145.739136 134.369072 
L 146.478039 126.805084 
L 147.216942 116.242238 
L 148.183199 102.532281 
L 148.694748 97.729194 
L 149.604167 91.897678 
L 151.252489 86.653829 
L 152.95765 81.764978 
L 153.639714 79.99793 
L 156.197455 72.792698 
L 156.822681 70.784081 
L 158.471003 65.828103 
L 159.323583 63.211351 
L 162.50655 53.440926 
L 162.904421 52.146797 
L 163.529646 49.682194 
L 164.382227 45.667373 
L 166.598936 34.512601 
L 168.929322 22.015081 
L 169.668225 18.200077 
L 169.668225 18.200077 
" clip-path="url(#p2eef5451e6)" style="fill: none; stroke: #1f77b4; stroke-width: 0.5; stroke-linecap: square"/>
   </g>
   <g id="line2d_60"/>
   <g id="patch_3">
    <path d="M 35.58575 146.747947 
L 35.58575 12.07875 
" style="fill: none; stroke: #000000; stroke-linejoin: miter; stroke-linecap: square"/>
   </g>
   <g id="patch_4">
    <path d="M 170.293451 146.747947 
L 170.293451 12.07875 
" style="fill: none; stroke: #000000; stroke-linejoin: miter; stroke-linecap: square"/>
   </g>
   <g id="patch_5">
    <path d="M 35.58575 146.747947 
L 170.293451 146.747947 
" style="fill: none; stroke: #000000; stroke-linejoin: miter; stroke-linecap: square"/>
   </g>
   <g id="patch_6">
    <path d="M 35.58575 12.07875 
L 170.293451 12.07875 
" style="fill: none; stroke: #000000; stroke-linejoin: miter; stroke-linecap: square"/>
   </g>
   <g id="text_13">
    <text style="font: 8px 'DejaVu Sans', 'Bitstream Vera Sans', 'Computer Modern Sans Serif', 'Lucida Grande', 'Verdana', 'Geneva', 'Lucid', 'Arial', 'Helvetica', 'Avant Garde', sans-serif; text-anchor: middle" x="102.9396" y="6.07875" transform="rotate(-0 102.9396 6.07875)">Laboratory Phyllosilicate Montmorillonite</text>
   </g>
   <g id="legend_1">
    <g id="patch_7">
     <path d="M 177.187605 84.716786 
L 270.582292 84.716786 
Q 271.782292 84.716786 271.782292 83.516786 
L 271.782292 75.309911 
Q 271.782292 74.109911 270.582292 74.109911 
L 177.187605 74.109911 
Q 175.987605 74.109911 175.987605 75.309911 
L 175.987605 83.516786 
Q 175.987605 84.716786 177.187605 84.716786 
z
" style="fill: #ffffff; opacity: 0.8; stroke: #cccccc; stroke-width: 0.8; stroke-linejoin: miter"/>
    </g>
    <g id="line2d_61">
     <path d="M 178.387605 78.968973 
L 184.387605 78.968973 
L 190.387605 78.968973 
" style="fill: none; stroke: #1f77b4; stroke-width: 1.2; stroke-linecap: square"/>
    </g>
    <g id="text_14">
     <text style="font: 6px 'DejaVu Sans', 'Bitstream Vera Sans', 'Computer Modern Sans Serif', 'Lucida Grande', 'Verdana', 'Geneva', 'Lucid', 'Arial', 'Helvetica', 'Avant Garde', sans-serif; text-anchor: start" x="195.187605" y="81.068973" transform="rotate(-0 195.187605 81.068973)">Montmorillonite LAMO02</text>
    </g>
   </g>
  </g>
 </g>
 <defs>
  <clipPath id="p2eef5451e6">
   <rect x="35.58575" y="12.07875" width="134.707701" height="134.669197"/>
  </clipPath>
 </defs>
</svg>
