<?xml version="1.0" encoding="utf-8" standalone="no"?>
<!DOCTYPE svg PUBLIC "-//W3C//DTD SVG 1.1//EN"
  "http://www.w3.org/Graphics/SVG/1.1/DTD/svg11.dtd">
<svg xmlns:xlink="http://www.w3.org/1999/xlink" width="272.116605pt" height="176.855697pt" viewBox="0 0 272.116605 176.855697" xmlns="http://www.w3.org/2000/svg" version="1.1">
 <metadata>
  <rdf:RDF xmlns:dc="http://purl.org/dc/elements/1.1/" xmlns:cc="http://creativecommons.org/ns#" xmlns:rdf="http://www.w3.org/1999/02/22-rdf-syntax-ns#">
   <cc:Work>
    <dc:type rdf:resource="http://purl.org/dc/dcmitype/StillImage"/>
    <dc:date>2025-02-12T17:07:54.158720</dc:date>
    <dc:format>image/svg+xml</dc:format>
    <dc:creator>
     <cc:Agent>
      <dc:title>Matplotlib v3.6.2, https://matplotlib.org/</dc:title>
     </cc:Agent>
    </dc:creator>
   </cc:Work>
  </rdf:RDF>
 </metadata>
 <defs>
  <style type="text/css">*{stroke-linejoin: round; stroke-linecap: butt}</style>
 </defs>
 <g id="figure_1">
  <g id="patch_1">
   <path d="M -0 176.855697 
L 272.116605 176.855697 
L 272.116605 0 
L -0 0 
z
" style="fill: #ffffff"/>
  </g>
  <g id="axes_1">
   <g id="patch_2">
    <path d="M 35.58575 146.747947 
L 184.243451 146.747947 
L 184.243451 12.07875 
L 35.58575 12.07875 
z
" style="fill: #ffffff"/>
   </g>
   <g id="matplotlib.axis_1">
    <g id="xtick_1">
     <g id="line2d_1">
      <path d="M 45.621713 146.747947 
L 45.621713 12.07875 
" clip-path="url(#pc5291f7077)" style="fill: none; stroke: #b0b0b0; stroke-width: 0.6; stroke-linecap: square"/>
     </g>
     <g id="line2d_2">
      <defs>
       <path id="mdfa37338bd" d="M 0 0 
L 0 4.8 
" style="stroke: #000000"/>
      </defs>
      <g>
       <use xlink:href="#mdfa37338bd" x="45.621713" y="146.747947" style="stroke: #000000"/>
      </g>
     </g>
     <g id="text_1">
      <text style="font: 8.8px 'DejaVu Sans', 'Bitstream Vera Sans', 'Computer Modern Sans Serif', 'Lucida Grande', 'Verdana', 'Geneva', 'Lucid', 'Arial', 'Helvetica', 'Avant Garde', sans-serif; text-anchor: middle" x="45.621713" y="161.734572" transform="rotate(-0 45.621713 161.734572)">1000</text>
     </g>
    </g>
    <g id="xtick_2">
     <g id="line2d_3">
      <path d="M 76.984097 146.747947 
L 76.984097 12.07875 
" clip-path="url(#pc5291f7077)" style="fill: none; stroke: #b0b0b0; stroke-width: 0.6; stroke-linecap: square"/>
     </g>
     <g id="line2d_4">
      <g>
       <use xlink:href="#mdfa37338bd" x="76.984097" y="146.747947" style="stroke: #000000"/>
      </g>
     </g>
     <g id="text_2">
      <text style="font: 8.8px 'DejaVu Sans', 'Bitstream Vera Sans', 'Computer Modern Sans Serif', 'Lucida Grande', 'Verdana', 'Geneva', 'Lucid', 'Arial', 'Helvetica', 'Avant Garde', sans-serif; text-anchor: middle" x="76.984097" y="161.734572" transform="rotate(-0 76.984097 161.734572)">1500</text>
     </g>
    </g>
    <g id="xtick_3">
     <g id="line2d_5">
      <path d="M 108.346481 146.747947 
L 108.346481 12.07875 
" clip-path="url(#pc5291f7077)" style="fill: none; stroke: #b0b0b0; stroke-width: 0.6; stroke-linecap: square"/>
     </g>
     <g id="line2d_6">
      <g>
       <use xlink:href="#mdfa37338bd" x="108.346481" y="146.747947" style="stroke: #000000"/>
      </g>
     </g>
     <g id="text_3">
      <text style="font: 8.8px 'DejaVu Sans', 'Bitstream Vera Sans', 'Computer Modern Sans Serif', 'Lucida Grande', 'Verdana', 'Geneva', 'Lucid', 'Arial', 'Helvetica', 'Avant Garde', sans-serif; text-anchor: middle" x="108.346481" y="161.734572" transform="rotate(-0 108.346481 161.734572)">2000</text>
     </g>
    </g>
    <g id="xtick_4">
     <g id="line2d_7">
      <path d="M 139.708865 146.747947 
L 139.708865 12.07875 
" clip-path="url(#pc5291f7077)" style="fill: none; stroke: #b0b0b0; stroke-width: 0.6; stroke-linecap: square"/>
     </g>
     <g id="line2d_8">
      <g>
       <use xlink:href="#mdfa37338bd" x="139.708865" y="146.747947" style="stroke: #000000"/>
      </g>
     </g>
     <g id="text_4">
      <text style="font: 8.8px 'DejaVu Sans', 'Bitstream Vera Sans', 'Computer Modern Sans Serif', 'Lucida Grande', 'Verdana', 'Geneva', 'Lucid', 'Arial', 'Helvetica', 'Avant Garde', sans-serif; text-anchor: middle" x="139.708865" y="161.734572" transform="rotate(-0 139.708865 161.734572)">2500</text>
     </g>
    </g>
    <g id="xtick_5">
     <g id="line2d_9">
      <path d="M 171.071249 146.747947 
L 171.071249 12.07875 
" clip-path="url(#pc5291f7077)" style="fill: none; stroke: #b0b0b0; stroke-width: 0.6; stroke-linecap: square"/>
     </g>
     <g id="line2d_10">
      <g>
       <use xlink:href="#mdfa37338bd" x="171.071249" y="146.747947" style="stroke: #000000"/>
      </g>
     </g>
     <g id="text_5">
      <text style="font: 8.8px 'DejaVu Sans', 'Bitstream Vera Sans', 'Computer Modern Sans Serif', 'Lucida Grande', 'Verdana', 'Geneva', 'Lucid', 'Arial', 'Helvetica', 'Avant Garde', sans-serif; text-anchor: middle" x="171.071249" y="161.734572" transform="rotate(-0 171.071249 161.734572)">3000</text>
     </g>
    </g>
    <g id="xtick_6">
     <g id="line2d_11">
      <path d="M 39.349236 146.747947 
L 39.349236 12.07875 
" clip-path="url(#pc5291f7077)" style="fill: none; stroke: #b0b0b0; stroke-width: 0.3; stroke-linecap: square"/>
     </g>
     <g id="line2d_12">
      <defs>
       <path id="m47a5194b41" d="M 0 0 
L 0 3.2 
" style="stroke: #000000; stroke-width: 0.8"/>
      </defs>
      <g>
       <use xlink:href="#m47a5194b41" x="39.349236" y="146.747947" style="stroke: #000000; stroke-width: 0.8"/>
      </g>
     </g>
    </g>
    <g id="xtick_7">
     <g id="line2d_13">
      <path d="M 51.89419 146.747947 
L 51.89419 12.07875 
" clip-path="url(#pc5291f7077)" style="fill: none; stroke: #b0b0b0; stroke-width: 0.3; stroke-linecap: square"/>
     </g>
     <g id="line2d_14">
      <g>
       <use xlink:href="#m47a5194b41" x="51.89419" y="146.747947" style="stroke: #000000; stroke-width: 0.8"/>
      </g>
     </g>
    </g>
    <g id="xtick_8">
     <g id="line2d_15">
      <path d="M 58.166667 146.747947 
L 58.166667 12.07875 
" clip-path="url(#pc5291f7077)" style="fill: none; stroke: #b0b0b0; stroke-width: 0.3; stroke-linecap: square"/>
     </g>
     <g id="line2d_16">
      <g>
       <use xlink:href="#m47a5194b41" x="58.166667" y="146.747947" style="stroke: #000000; stroke-width: 0.8"/>
      </g>
     </g>
    </g>
    <g id="xtick_9">
     <g id="line2d_17">
      <path d="M 64.439143 146.747947 
L 64.439143 12.07875 
" clip-path="url(#pc5291f7077)" style="fill: none; stroke: #b0b0b0; stroke-width: 0.3; stroke-linecap: square"/>
     </g>
     <g id="line2d_18">
      <g>
       <use xlink:href="#m47a5194b41" x="64.439143" y="146.747947" style="stroke: #000000; stroke-width: 0.8"/>
      </g>
     </g>
    </g>
    <g id="xtick_10">
     <g id="line2d_19">
      <path d="M 70.71162 146.747947 
L 70.71162 12.07875 
" clip-path="url(#pc5291f7077)" style="fill: none; stroke: #b0b0b0; stroke-width: 0.3; stroke-linecap: square"/>
     </g>
     <g id="line2d_20">
      <g>
       <use xlink:href="#m47a5194b41" x="70.71162" y="146.747947" style="stroke: #000000; stroke-width: 0.8"/>
      </g>
     </g>
    </g>
    <g id="xtick_11">
     <g id="line2d_21">
      <path d="M 83.256574 146.747947 
L 83.256574 12.07875 
" clip-path="url(#pc5291f7077)" style="fill: none; stroke: #b0b0b0; stroke-width: 0.3; stroke-linecap: square"/>
     </g>
     <g id="line2d_22">
      <g>
       <use xlink:href="#m47a5194b41" x="83.256574" y="146.747947" style="stroke: #000000; stroke-width: 0.8"/>
      </g>
     </g>
    </g>
    <g id="xtick_12">
     <g id="line2d_23">
      <path d="M 89.529051 146.747947 
L 89.529051 12.07875 
" clip-path="url(#pc5291f7077)" style="fill: none; stroke: #b0b0b0; stroke-width: 0.3; stroke-linecap: square"/>
     </g>
     <g id="line2d_24">
      <g>
       <use xlink:href="#m47a5194b41" x="89.529051" y="146.747947" style="stroke: #000000; stroke-width: 0.8"/>
      </g>
     </g>
    </g>
    <g id="xtick_13">
     <g id="line2d_25">
      <path d="M 95.801528 146.747947 
L 95.801528 12.07875 
" clip-path="url(#pc5291f7077)" style="fill: none; stroke: #b0b0b0; stroke-width: 0.3; stroke-linecap: square"/>
     </g>
     <g id="line2d_26">
      <g>
       <use xlink:href="#m47a5194b41" x="95.801528" y="146.747947" style="stroke: #000000; stroke-width: 0.8"/>
      </g>
     </g>
    </g>
    <g id="xtick_14">
     <g id="line2d_27">
      <path d="M 102.074004 146.747947 
L 102.074004 12.07875 
" clip-path="url(#pc5291f7077)" style="fill: none; stroke: #b0b0b0; stroke-width: 0.3; stroke-linecap: square"/>
     </g>
     <g id="line2d_28">
      <g>
       <use xlink:href="#m47a5194b41" x="102.074004" y="146.747947" style="stroke: #000000; stroke-width: 0.8"/>
      </g>
     </g>
    </g>
    <g id="xtick_15">
     <g id="line2d_29">
      <path d="M 114.618958 146.747947 
L 114.618958 12.07875 
" clip-path="url(#pc5291f7077)" style="fill: none; stroke: #b0b0b0; stroke-width: 0.3; stroke-linecap: square"/>
     </g>
     <g id="line2d_30">
      <g>
       <use xlink:href="#m47a5194b41" x="114.618958" y="146.747947" style="stroke: #000000; stroke-width: 0.8"/>
      </g>
     </g>
    </g>
    <g id="xtick_16">
     <g id="line2d_31">
      <path d="M 120.891435 146.747947 
L 120.891435 12.07875 
" clip-path="url(#pc5291f7077)" style="fill: none; stroke: #b0b0b0; stroke-width: 0.3; stroke-linecap: square"/>
     </g>
     <g id="line2d_32">
      <g>
       <use xlink:href="#m47a5194b41" x="120.891435" y="146.747947" style="stroke: #000000; stroke-width: 0.8"/>
      </g>
     </g>
    </g>
    <g id="xtick_17">
     <g id="line2d_33">
      <path d="M 127.163912 146.747947 
L 127.163912 12.07875 
" clip-path="url(#pc5291f7077)" style="fill: none; stroke: #b0b0b0; stroke-width: 0.3; stroke-linecap: square"/>
     </g>
     <g id="line2d_34">
      <g>
       <use xlink:href="#m47a5194b41" x="127.163912" y="146.747947" style="stroke: #000000; stroke-width: 0.8"/>
      </g>
     </g>
    </g>
    <g id="xtick_18">
     <g id="line2d_35">
      <path d="M 133.436388 146.747947 
L 133.436388 12.07875 
" clip-path="url(#pc5291f7077)" style="fill: none; stroke: #b0b0b0; stroke-width: 0.3; stroke-linecap: square"/>
     </g>
     <g id="line2d_36">
      <g>
       <use xlink:href="#m47a5194b41" x="133.436388" y="146.747947" style="stroke: #000000; stroke-width: 0.8"/>
      </g>
     </g>
    </g>
    <g id="xtick_19">
     <g id="line2d_37">
      <path d="M 145.981342 146.747947 
L 145.981342 12.07875 
" clip-path="url(#pc5291f7077)" style="fill: none; stroke: #b0b0b0; stroke-width: 0.3; stroke-linecap: square"/>
     </g>
     <g id="line2d_38">
      <g>
       <use xlink:href="#m47a5194b41" x="145.981342" y="146.747947" style="stroke: #000000; stroke-width: 0.8"/>
      </g>
     </g>
    </g>
    <g id="xtick_20">
     <g id="line2d_39">
      <path d="M 152.253819 146.747947 
L 152.253819 12.07875 
" clip-path="url(#pc5291f7077)" style="fill: none; stroke: #b0b0b0; stroke-width: 0.3; stroke-linecap: square"/>
     </g>
     <g id="line2d_40">
      <g>
       <use xlink:href="#m47a5194b41" x="152.253819" y="146.747947" style="stroke: #000000; stroke-width: 0.8"/>
      </g>
     </g>
    </g>
    <g id="xtick_21">
     <g id="line2d_41">
      <path d="M 158.526296 146.747947 
L 158.526296 12.07875 
" clip-path="url(#pc5291f7077)" style="fill: none; stroke: #b0b0b0; stroke-width: 0.3; stroke-linecap: square"/>
     </g>
     <g id="line2d_42">
      <g>
       <use xlink:href="#m47a5194b41" x="158.526296" y="146.747947" style="stroke: #000000; stroke-width: 0.8"/>
      </g>
     </g>
    </g>
    <g id="xtick_22">
     <g id="line2d_43">
      <path d="M 164.798773 146.747947 
L 164.798773 12.07875 
" clip-path="url(#pc5291f7077)" style="fill: none; stroke: #b0b0b0; stroke-width: 0.3; stroke-linecap: square"/>
     </g>
     <g id="line2d_44">
      <g>
       <use xlink:href="#m47a5194b41" x="164.798773" y="146.747947" style="stroke: #000000; stroke-width: 0.8"/>
      </g>
     </g>
    </g>
    <g id="xtick_23">
     <g id="line2d_45">
      <path d="M 177.343726 146.747947 
L 177.343726 12.07875 
" clip-path="url(#pc5291f7077)" style="fill: none; stroke: #b0b0b0; stroke-width: 0.3; stroke-linecap: square"/>
     </g>
     <g id="line2d_46">
      <g>
       <use xlink:href="#m47a5194b41" x="177.343726" y="146.747947" style="stroke: #000000; stroke-width: 0.8"/>
      </g>
     </g>
    </g>
    <g id="xtick_24">
     <g id="line2d_47">
      <path d="M 183.616203 146.747947 
L 183.616203 12.07875 
" clip-path="url(#pc5291f7077)" style="fill: none; stroke: #b0b0b0; stroke-width: 0.3; stroke-linecap: square"/>
     </g>
     <g id="line2d_48">
      <g>
       <use xlink:href="#m47a5194b41" x="183.616203" y="146.747947" style="stroke: #000000; stroke-width: 0.8"/>
      </g>
     </g>
    </g>
    <g id="text_6">
     <text style="font: 9.6px 'DejaVu Sans', 'Bitstream Vera Sans', 'Computer Modern Sans Serif', 'Lucida Grande', 'Verdana', 'Geneva', 'Lucid', 'Arial', 'Helvetica', 'Avant Garde', sans-serif; text-anchor: middle" x="109.9146" y="174.859197" transform="rotate(-0 109.9146 174.859197)">Wavelength (nm)</text>
    </g>
   </g>
   <g id="matplotlib.axis_2">
    <g id="ytick_1">
     <g id="line2d_49">
      <path d="M 35.58575 137.503662 
L 184.243451 137.503662 
" clip-path="url(#pc5291f7077)" style="fill: none; stroke: #b0b0b0; stroke-width: 0.6; stroke-linecap: square"/>
     </g>
     <g id="line2d_50">
      <defs>
       <path id="mde987ea471" d="M 0 0 
L -4.8 0 
" style="stroke: #000000"/>
      </defs>
      <g>
       <use xlink:href="#mde987ea471" x="35.58575" y="137.503662" style="stroke: #000000"/>
      </g>
     </g>
     <g id="text_7">
      <text style="font: 8.8px 'DejaVu Sans', 'Bitstream Vera Sans', 'Computer Modern Sans Serif', 'Lucida Grande', 'Verdana', 'Geneva', 'Lucid', 'Arial', 'Helvetica', 'Avant Garde', sans-serif; text-anchor: end" x="27.28575" y="140.846975" transform="rotate(-0 27.28575 140.846975)">0.2</text>
     </g>
    </g>
    <g id="ytick_2">
     <g id="line2d_51">
      <path d="M 35.58575 107.677766 
L 184.243451 107.677766 
" clip-path="url(#pc5291f7077)" style="fill: none; stroke: #b0b0b0; stroke-width: 0.6; stroke-linecap: square"/>
     </g>
     <g id="line2d_52">
      <g>
       <use xlink:href="#mde987ea471" x="35.58575" y="107.677766" style="stroke: #000000"/>
      </g>
     </g>
     <g id="text_8">
      <text style="font: 8.8px 'DejaVu Sans', 'Bitstream Vera Sans', 'Computer Modern Sans Serif', 'Lucida Grande', 'Verdana', 'Geneva', 'Lucid', 'Arial', 'Helvetica', 'Avant Garde', sans-serif; text-anchor: end" x="27.28575" y="111.021078" transform="rotate(-0 27.28575 111.021078)">0.4</text>
     </g>
    </g>
    <g id="ytick_3">
     <g id="line2d_53">
      <path d="M 35.58575 77.85187 
L 184.243451 77.85187 
" clip-path="url(#pc5291f7077)" style="fill: none; stroke: #b0b0b0; stroke-width: 0.6; stroke-linecap: square"/>
     </g>
     <g id="line2d_54">
      <g>
       <use xlink:href="#mde987ea471" x="35.58575" y="77.85187" style="stroke: #000000"/>
      </g>
     </g>
     <g id="text_9">
      <text style="font: 8.8px 'DejaVu Sans', 'Bitstream Vera Sans', 'Computer Modern Sans Serif', 'Lucida Grande', 'Verdana', 'Geneva', 'Lucid', 'Arial', 'Helvetica', 'Avant Garde', sans-serif; text-anchor: end" x="27.28575" y="81.195182" transform="rotate(-0 27.28575 81.195182)">0.6</text>
     </g>
    </g>
    <g id="ytick_4">
     <g id="line2d_55">
      <path d="M 35.58575 48.025973 
L 184.243451 48.025973 
" clip-path="url(#pc5291f7077)" style="fill: none; stroke: #b0b0b0; stroke-width: 0.6; stroke-linecap: square"/>
     </g>
     <g id="line2d_56">
      <g>
       <use xlink:href="#mde987ea471" x="35.58575" y="48.025973" style="stroke: #000000"/>
      </g>
     </g>
     <g id="text_10">
      <text style="font: 8.8px 'DejaVu Sans', 'Bitstream Vera Sans', 'Computer Modern Sans Serif', 'Lucida Grande', 'Verdana', 'Geneva', 'Lucid', 'Arial', 'Helvetica', 'Avant Garde', sans-serif; text-anchor: end" x="27.28575" y="51.369286" transform="rotate(-0 27.28575 51.369286)">0.8</text>
     </g>
    </g>
    <g id="ytick_5">
     <g id="line2d_57">
      <path d="M 35.58575 18.200077 
L 184.243451 18.200077 
" clip-path="url(#pc5291f7077)" style="fill: none; stroke: #b0b0b0; stroke-width: 0.6; stroke-linecap: square"/>
     </g>
     <g id="line2d_58">
      <g>
       <use xlink:href="#mde987ea471" x="35.58575" y="18.200077" style="stroke: #000000"/>
      </g>
     </g>
     <g id="text_11">
      <text style="font: 8.8px 'DejaVu Sans', 'Bitstream Vera Sans', 'Computer Modern Sans Serif', 'Lucida Grande', 'Verdana', 'Geneva', 'Lucid', 'Arial', 'Helvetica', 'Avant Garde', sans-serif; text-anchor: end" x="27.28575" y="21.54339" transform="rotate(-0 27.28575 21.54339)">1.0</text>
     </g>
    </g>
    <g id="text_12">
     <text style="font: 9.6px 'DejaVu Sans', 'Bitstream Vera Sans', 'Computer Modern Sans Serif', 'Lucida Grande', 'Verdana', 'Geneva', 'Lucid', 'Arial', 'Helvetica', 'Avant Garde', sans-serif; text-anchor: middle" x="7.2945" y="79.413348" transform="rotate(-90 7.2945 79.413348)">Reflectance</text>
    </g>
   </g>
   <g id="line2d_59">
    <path d="M 36.212998 18.200077 
L 36.526622 18.631139 
L 36.589346 18.544904 
L 36.840245 18.200077 
L 36.90297 18.287067 
L 37.216594 18.598021 
L 37.718392 18.408235 
L 37.843842 18.447187 
L 38.34564 18.729037 
L 38.659264 18.721663 
L 39.161062 18.771812 
L 39.411961 18.850441 
L 39.725585 18.796411 
L 39.976484 19.158749 
L 40.039209 19.108798 
L 40.352832 18.943667 
L 40.854631 19.116614 
L 41.670053 19.135851 
L 41.920952 19.0179 
L 42.2973 19.144419 
L 42.924548 19.05209 
L 43.426346 19.067401 
L 44.116318 19.001941 
L 44.429942 19.123459 
L 44.743566 19.025166 
L 45.119915 19.164472 
L 45.496263 19.18996 
L 45.684438 19.171485 
L 46.123511 18.872466 
L 46.938933 18.708558 
L 47.315282 18.754468 
L 47.628906 18.685937 
L 48.130704 18.6915 
L 48.569777 18.585781 
L 49.259749 18.642853 
L 49.573373 18.521818 
L 50.075171 18.360101 
L 50.765144 18.457355 
L 51.329667 18.344249 
L 51.76874 18.427581 
L 52.458713 18.234629 
L 52.709612 18.21928 
L 54.465905 18.304217 
L 54.779529 18.237005 
L 55.218602 18.370057 
L 57.16307 18.32324 
L 57.476694 18.302578 
L 57.853043 18.350345 
L 58.292116 18.42265 
L 58.793914 18.317376 
L 59.295712 18.577494 
L 59.672061 18.536188 
L 61.052006 18.311161 
L 61.804703 18.290192 
L 62.055602 18.241332 
L 62.494676 18.21493 
L 62.68285 18.272945 
L 63.184648 18.481941 
L 64.00007 18.218282 
L 64.313694 18.262107 
L 64.940942 18.366017 
L 65.944538 18.223801 
L 66.509061 18.249322 
L 67.449932 18.294024 
L 67.95173 18.494129 
L 68.202629 18.312629 
L 68.578978 18.845221 
L 68.892602 18.766993 
L 69.331675 18.89229 
L 69.457125 18.879296 
L 69.833473 20.656175 
L 70.147097 20.71609 
L 70.899795 21.97226 
L 71.338868 23.339594 
L 71.401593 23.291697 
L 71.652492 23.0999 
L 72.15429 23.818644 
L 74.349657 25.34847 
L 74.663281 25.488845 
L 74.91418 25.530209 
L 75.227804 25.543795 
L 75.666877 25.692868 
L 76.733198 25.769245 
L 77.109547 25.759006 
L 77.42317 25.806881 
L 79.242189 25.137481 
L 80.245785 24.3294 
L 80.559409 23.980332 
L 81.061207 23.660312 
L 81.62573 22.982497 
L 81.939354 22.685268 
L 83.005675 21.95373 
L 83.444748 21.600181 
L 83.821097 21.334068 
L 84.26017 21.014248 
L 84.636519 20.734447 
L 85.075592 20.560596 
L 85.514666 20.417489 
L 85.828289 20.586036 
L 86.267363 20.352999 
L 86.455537 20.257609 
L 86.706436 19.975692 
L 86.769161 20.055435 
L 87.02006 20.374778 
L 87.082785 20.312859 
L 87.647308 19.882077 
L 88.086381 19.972255 
L 88.588179 19.822381 
L 89.152702 19.944579 
L 89.340876 19.855672 
L 90.030849 19.502593 
L 90.469922 19.469541 
L 91.536243 19.197942 
L 92.288941 18.786664 
L 92.728014 18.531691 
L 93.982509 18.221719 
L 94.421583 18.281929 
L 95.425179 18.245298 
L 96.428775 18.320812 
L 96.805124 18.522094 
L 97.181472 18.442505 
L 98.373243 18.846701 
L 98.937766 19.686449 
L 99.314115 19.541416 
L 100.192261 18.200077 
L 100.631335 19.372069 
L 101.760381 24.246486 
L 102.450353 28.339005 
L 103.579399 34.476811 
L 103.830298 35.266163 
L 104.332096 36.269795 
L 105.084793 37.220446 
L 105.523867 37.612871 
L 106.652912 38.303519 
L 107.217435 38.370119 
L 108.534655 37.3235 
L 109.851876 36.161687 
L 110.165499 35.946137 
L 110.416399 35.686935 
L 110.792747 35.095791 
L 111.106371 34.765784 
L 111.419995 34.370465 
L 112.486316 32.759531 
L 116.563426 24.599454 
L 117.755196 21.323928 
L 118.319719 19.943352 
L 118.884242 19.119168 
L 119.38604 18.608307 
L 119.950563 18.200077 
L 120.577811 18.271113 
L 121.330508 19.079044 
L 122.208655 21.105201 
L 122.835903 23.451901 
L 123.46315 26.208433 
L 124.466747 31.182537 
L 124.968545 33.056448 
L 125.972141 34.836306 
L 127.038462 37.194038 
L 127.602985 37.827847 
L 127.791159 37.744207 
L 128.418407 35.074608 
L 130.174701 23.059142 
L 130.4256 22.658259 
L 130.739223 22.562027 
L 130.927398 22.611054 
L 131.491921 24.240689 
L 132.244618 26.037046 
L 134.37726 33.727479 
L 135.380856 39.16542 
L 136.447177 46.019609 
L 137.199875 49.437303 
L 139.708865 54.984777 
L 140.022489 54.963243 
L 140.461563 53.14293 
L 140.837911 50.232005 
L 141.276985 45.169158 
L 142.719654 25.927744 
L 143.158728 23.724087 
L 143.284177 23.457715 
L 143.97415 21.292928 
L 144.036874 21.175199 
L 144.225049 20.543706 
L 144.287773 20.579449 
L 144.413223 20.113215 
L 144.475948 20.138511 
L 144.538672 20.114685 
L 144.601397 19.887377 
L 144.664122 19.990835 
L 144.789572 20.016243 
L 145.103195 19.39513 
L 145.16592 19.708637 
L 145.29137 19.427641 
L 145.479544 19.55466 
L 145.604994 19.179942 
L 145.730443 18.200077 
L 145.981342 19.597752 
L 146.357691 18.62192 
L 146.420416 18.665829 
L 146.545865 19.120289 
L 146.60859 19.065958 
L 146.734039 18.888125 
L 146.796764 18.994204 
L 147.110388 18.200077 
L 147.173113 18.426557 
L 147.235838 18.604925 
L 147.298562 18.467634 
L 147.361287 18.236156 
L 147.486737 18.752396 
L 147.549461 18.691081 
L 147.612186 18.660515 
L 147.737636 18.351433 
L 147.863085 18.692847 
L 147.988535 18.200077 
L 148.113984 18.728787 
L 148.176709 18.684655 
L 148.239434 18.731628 
L 148.427608 18.997292 
L 148.615782 19.162891 
L 148.741232 19.329329 
L 148.803957 19.549057 
L 148.866681 19.432984 
L 148.929406 19.461139 
L 149.431204 20.918915 
L 149.682103 21.441198 
L 149.744828 21.351788 
L 149.933003 22.002443 
L 149.995727 22.295641 
L 150.058452 22.148957 
L 150.121177 22.088254 
L 150.183902 22.165715 
L 151.062048 27.276727 
L 151.940195 37.371153 
L 153.069241 56.583692 
L 153.32014 58.65414 
L 153.633764 59.175325 
L 153.947388 61.925823 
L 155.201883 83.319026 
L 155.703681 90.912752 
L 156.017305 93.948614 
L 156.707278 99.104217 
L 157.5227 105.858609 
L 158.087222 110.315275 
L 158.965369 117.105349 
L 159.404443 120.712667 
L 159.780791 122.378531 
L 160.219865 122.767283 
L 160.345314 122.838094 
L 160.596213 123.116842 
L 160.658938 123.071505 
L 160.784387 123.376148 
L 161.160736 124.582294 
L 161.286186 124.692988 
L 162.038883 126.912915 
L 162.603406 128.537295 
L 162.854305 129.225073 
L 163.167929 130.296332 
L 163.607002 131.563419 
L 165.049672 135.23115 
L 165.55147 136.528673 
L 166.86869 138.833791 
L 167.182314 139.345943 
L 167.495938 139.846375 
L 168.060461 140.30896 
L 168.813158 140.56153 
L 169.565855 139.960755 
L 169.691305 139.879066 
L 170.193103 138.537492 
L 170.506727 137.727259 
L 171.133974 135.792863 
L 174.960185 121.514886 
L 175.273809 120.534006 
L 175.587433 119.354341 
L 175.712882 118.970692 
L 176.904653 113.395298 
L 177.65735 109.370996 
L 179.162745 98.496953 
L 179.539093 94.32472 
L 180.229066 86.34842 
L 180.793589 78.65828 
L 182.236258 54.107443 
L 182.926231 37.718745 
L 183.490754 20.662249 
L 183.553478 18.200077 
L 183.553478 18.200077 
" clip-path="url(#pc5291f7077)" style="fill: none; stroke: #1f77b4; stroke-width: 0.5; stroke-linecap: square"/>
   </g>
   <g id="line2d_60"/>
   <g id="patch_3">
    <path d="M 35.58575 146.747947 
L 35.58575 12.07875 
" style="fill: none; stroke: #000000; stroke-linejoin: miter; stroke-linecap: square"/>
   </g>
   <g id="patch_4">
    <path d="M 184.243451 146.747947 
L 184.243451 12.07875 
" style="fill: none; stroke: #000000; stroke-linejoin: miter; stroke-linecap: square"/>
   </g>
   <g id="patch_5">
    <path d="M 35.58575 146.747947 
L 184.243451 146.747947 
" style="fill: none; stroke: #000000; stroke-linejoin: miter; stroke-linecap: square"/>
   </g>
   <g id="patch_6">
    <path d="M 35.58575 12.07875 
L 184.243451 12.07875 
" style="fill: none; stroke: #000000; stroke-linejoin: miter; stroke-linecap: square"/>
   </g>
   <g id="text_13">
    <text style="font: 8px 'DejaVu Sans', 'Bitstream Vera Sans', 'Computer Modern Sans Serif', 'Lucida Grande', 'Verdana', 'Geneva', 'Lucid', 'Arial', 'Helvetica', 'Avant Garde', sans-serif; text-anchor: middle" x="109.9146" y="6.07875" transform="rotate(-0 109.9146 6.07875)">Laboratory Carbonates Magnesite</text>
   </g>
   <g id="legend_1">
    <g id="patch_7">
     <path d="M 191.416605 84.716786 
L 270.916605 84.716786 
Q 272.116605 84.716786 272.116605 83.516786 
L 272.116605 75.309911 
Q 272.116605 74.109911 270.916605 74.109911 
L 191.416605 74.109911 
Q 190.216605 74.109911 190.216605 75.309911 
L 190.216605 83.516786 
Q 190.216605 84.716786 191.416605 84.716786 
z
" style="fill: #ffffff; opacity: 0.8; stroke: #cccccc; stroke-width: 0.8; stroke-linejoin: miter"/>
    </g>
    <g id="line2d_61">
     <path d="M 192.616605 78.968973 
L 198.616605 78.968973 
L 204.616605 78.968973 
" style="fill: none; stroke: #1f77b4; stroke-width: 1.2; stroke-linecap: square"/>
    </g>
    <g id="text_14">
     <text style="font: 6px 'DejaVu Sans', 'Bitstream Vera Sans', 'Computer Modern Sans Serif', 'Lucida Grande', 'Verdana', 'Geneva', 'Lucid', 'Arial', 'Helvetica', 'Avant Garde', sans-serif; text-anchor: start" x="209.416605" y="81.068973" transform="rotate(-0 209.416605 81.068973)">Magnesite F1CC06B</text>
    </g>
   </g>
  </g>
 </g>
 <defs>
  <clipPath id="pc5291f7077">
   <rect x="35.58575" y="12.07875" width="148.657701" height="134.669197"/>
  </clipPath>
 </defs>
</svg>
