<?xml version="1.0" encoding="utf-8" standalone="no"?>
<!DOCTYPE svg PUBLIC "-//W3C//DTD SVG 1.1//EN"
  "http://www.w3.org/Graphics/SVG/1.1/DTD/svg11.dtd">
<svg xmlns:xlink="http://www.w3.org/1999/xlink" width="272.320605pt" height="176.855697pt" viewBox="0 0 272.320605 176.855697" xmlns="http://www.w3.org/2000/svg" version="1.1">
 <metadata>
  <rdf:RDF xmlns:dc="http://purl.org/dc/elements/1.1/" xmlns:cc="http://creativecommons.org/ns#" xmlns:rdf="http://www.w3.org/1999/02/22-rdf-syntax-ns#">
   <cc:Work>
    <dc:type rdf:resource="http://purl.org/dc/dcmitype/StillImage"/>
    <dc:date>2025-02-12T17:07:53.705001</dc:date>
    <dc:format>image/svg+xml</dc:format>
    <dc:creator>
     <cc:Agent>
      <dc:title>Matplotlib v3.6.2, https://matplotlib.org/</dc:title>
     </cc:Agent>
    </dc:creator>
   </cc:Work>
  </rdf:RDF>
 </metadata>
 <defs>
  <style type="text/css">*{stroke-linejoin: round; stroke-linecap: butt}</style>
 </defs>
 <g id="figure_1">
  <g id="patch_1">
   <path d="M -0 176.855697 
L 272.320605 176.855697 
L 272.320605 0 
L -0 0 
z
" style="fill: #ffffff"/>
  </g>
  <g id="axes_1">
   <g id="patch_2">
    <path d="M 35.58575 146.747947 
L 192.943451 146.747947 
L 192.943451 12.07875 
L 35.58575 12.07875 
z
" style="fill: #ffffff"/>
   </g>
   <g id="matplotlib.axis_1">
    <g id="xtick_1">
     <g id="line2d_1">
      <path d="M 46.209055 146.747947 
L 46.209055 12.07875 
" clip-path="url(#p3cd35783a8)" style="fill: none; stroke: #b0b0b0; stroke-width: 0.6; stroke-linecap: square"/>
     </g>
     <g id="line2d_2">
      <defs>
       <path id="m2e63bd89db" d="M 0 0 
L 0 4.8 
" style="stroke: #000000"/>
      </defs>
      <g>
       <use xlink:href="#m2e63bd89db" x="46.209055" y="146.747947" style="stroke: #000000"/>
      </g>
     </g>
     <g id="text_1">
      <text style="font: 8.8px 'DejaVu Sans', 'Bitstream Vera Sans', 'Computer Modern Sans Serif', 'Lucida Grande', 'Verdana', 'Geneva', 'Lucid', 'Arial', 'Helvetica', 'Avant Garde', sans-serif; text-anchor: middle" x="46.209055" y="161.734572" transform="rotate(-0 46.209055 161.734572)">1000</text>
     </g>
    </g>
    <g id="xtick_2">
     <g id="line2d_3">
      <path d="M 79.406882 146.747947 
L 79.406882 12.07875 
" clip-path="url(#p3cd35783a8)" style="fill: none; stroke: #b0b0b0; stroke-width: 0.6; stroke-linecap: square"/>
     </g>
     <g id="line2d_4">
      <g>
       <use xlink:href="#m2e63bd89db" x="79.406882" y="146.747947" style="stroke: #000000"/>
      </g>
     </g>
     <g id="text_2">
      <text style="font: 8.8px 'DejaVu Sans', 'Bitstream Vera Sans', 'Computer Modern Sans Serif', 'Lucida Grande', 'Verdana', 'Geneva', 'Lucid', 'Arial', 'Helvetica', 'Avant Garde', sans-serif; text-anchor: middle" x="79.406882" y="161.734572" transform="rotate(-0 79.406882 161.734572)">1500</text>
     </g>
    </g>
    <g id="xtick_3">
     <g id="line2d_5">
      <path d="M 112.604709 146.747947 
L 112.604709 12.07875 
" clip-path="url(#p3cd35783a8)" style="fill: none; stroke: #b0b0b0; stroke-width: 0.6; stroke-linecap: square"/>
     </g>
     <g id="line2d_6">
      <g>
       <use xlink:href="#m2e63bd89db" x="112.604709" y="146.747947" style="stroke: #000000"/>
      </g>
     </g>
     <g id="text_3">
      <text style="font: 8.8px 'DejaVu Sans', 'Bitstream Vera Sans', 'Computer Modern Sans Serif', 'Lucida Grande', 'Verdana', 'Geneva', 'Lucid', 'Arial', 'Helvetica', 'Avant Garde', sans-serif; text-anchor: middle" x="112.604709" y="161.734572" transform="rotate(-0 112.604709 161.734572)">2000</text>
     </g>
    </g>
    <g id="xtick_4">
     <g id="line2d_7">
      <path d="M 145.802536 146.747947 
L 145.802536 12.07875 
" clip-path="url(#p3cd35783a8)" style="fill: none; stroke: #b0b0b0; stroke-width: 0.6; stroke-linecap: square"/>
     </g>
     <g id="line2d_8">
      <g>
       <use xlink:href="#m2e63bd89db" x="145.802536" y="146.747947" style="stroke: #000000"/>
      </g>
     </g>
     <g id="text_4">
      <text style="font: 8.8px 'DejaVu Sans', 'Bitstream Vera Sans', 'Computer Modern Sans Serif', 'Lucida Grande', 'Verdana', 'Geneva', 'Lucid', 'Arial', 'Helvetica', 'Avant Garde', sans-serif; text-anchor: middle" x="145.802536" y="161.734572" transform="rotate(-0 145.802536 161.734572)">2500</text>
     </g>
    </g>
    <g id="xtick_5">
     <g id="line2d_9">
      <path d="M 179.000363 146.747947 
L 179.000363 12.07875 
" clip-path="url(#p3cd35783a8)" style="fill: none; stroke: #b0b0b0; stroke-width: 0.6; stroke-linecap: square"/>
     </g>
     <g id="line2d_10">
      <g>
       <use xlink:href="#m2e63bd89db" x="179.000363" y="146.747947" style="stroke: #000000"/>
      </g>
     </g>
     <g id="text_5">
      <text style="font: 8.8px 'DejaVu Sans', 'Bitstream Vera Sans', 'Computer Modern Sans Serif', 'Lucida Grande', 'Verdana', 'Geneva', 'Lucid', 'Arial', 'Helvetica', 'Avant Garde', sans-serif; text-anchor: middle" x="179.000363" y="161.734572" transform="rotate(-0 179.000363 161.734572)">3000</text>
     </g>
    </g>
    <g id="xtick_6">
     <g id="line2d_11">
      <path d="M 39.569489 146.747947 
L 39.569489 12.07875 
" clip-path="url(#p3cd35783a8)" style="fill: none; stroke: #b0b0b0; stroke-width: 0.3; stroke-linecap: square"/>
     </g>
     <g id="line2d_12">
      <defs>
       <path id="mcd334b4420" d="M 0 0 
L 0 3.2 
" style="stroke: #000000; stroke-width: 0.8"/>
      </defs>
      <g>
       <use xlink:href="#mcd334b4420" x="39.569489" y="146.747947" style="stroke: #000000; stroke-width: 0.8"/>
      </g>
     </g>
    </g>
    <g id="xtick_7">
     <g id="line2d_13">
      <path d="M 52.84862 146.747947 
L 52.84862 12.07875 
" clip-path="url(#p3cd35783a8)" style="fill: none; stroke: #b0b0b0; stroke-width: 0.3; stroke-linecap: square"/>
     </g>
     <g id="line2d_14">
      <g>
       <use xlink:href="#mcd334b4420" x="52.84862" y="146.747947" style="stroke: #000000; stroke-width: 0.8"/>
      </g>
     </g>
    </g>
    <g id="xtick_8">
     <g id="line2d_15">
      <path d="M 59.488186 146.747947 
L 59.488186 12.07875 
" clip-path="url(#p3cd35783a8)" style="fill: none; stroke: #b0b0b0; stroke-width: 0.3; stroke-linecap: square"/>
     </g>
     <g id="line2d_16">
      <g>
       <use xlink:href="#mcd334b4420" x="59.488186" y="146.747947" style="stroke: #000000; stroke-width: 0.8"/>
      </g>
     </g>
    </g>
    <g id="xtick_9">
     <g id="line2d_17">
      <path d="M 66.127751 146.747947 
L 66.127751 12.07875 
" clip-path="url(#p3cd35783a8)" style="fill: none; stroke: #b0b0b0; stroke-width: 0.3; stroke-linecap: square"/>
     </g>
     <g id="line2d_18">
      <g>
       <use xlink:href="#mcd334b4420" x="66.127751" y="146.747947" style="stroke: #000000; stroke-width: 0.8"/>
      </g>
     </g>
    </g>
    <g id="xtick_10">
     <g id="line2d_19">
      <path d="M 72.767316 146.747947 
L 72.767316 12.07875 
" clip-path="url(#p3cd35783a8)" style="fill: none; stroke: #b0b0b0; stroke-width: 0.3; stroke-linecap: square"/>
     </g>
     <g id="line2d_20">
      <g>
       <use xlink:href="#mcd334b4420" x="72.767316" y="146.747947" style="stroke: #000000; stroke-width: 0.8"/>
      </g>
     </g>
    </g>
    <g id="xtick_11">
     <g id="line2d_21">
      <path d="M 86.046447 146.747947 
L 86.046447 12.07875 
" clip-path="url(#p3cd35783a8)" style="fill: none; stroke: #b0b0b0; stroke-width: 0.3; stroke-linecap: square"/>
     </g>
     <g id="line2d_22">
      <g>
       <use xlink:href="#mcd334b4420" x="86.046447" y="146.747947" style="stroke: #000000; stroke-width: 0.8"/>
      </g>
     </g>
    </g>
    <g id="xtick_12">
     <g id="line2d_23">
      <path d="M 92.686013 146.747947 
L 92.686013 12.07875 
" clip-path="url(#p3cd35783a8)" style="fill: none; stroke: #b0b0b0; stroke-width: 0.3; stroke-linecap: square"/>
     </g>
     <g id="line2d_24">
      <g>
       <use xlink:href="#mcd334b4420" x="92.686013" y="146.747947" style="stroke: #000000; stroke-width: 0.8"/>
      </g>
     </g>
    </g>
    <g id="xtick_13">
     <g id="line2d_25">
      <path d="M 99.325578 146.747947 
L 99.325578 12.07875 
" clip-path="url(#p3cd35783a8)" style="fill: none; stroke: #b0b0b0; stroke-width: 0.3; stroke-linecap: square"/>
     </g>
     <g id="line2d_26">
      <g>
       <use xlink:href="#mcd334b4420" x="99.325578" y="146.747947" style="stroke: #000000; stroke-width: 0.8"/>
      </g>
     </g>
    </g>
    <g id="xtick_14">
     <g id="line2d_27">
      <path d="M 105.965144 146.747947 
L 105.965144 12.07875 
" clip-path="url(#p3cd35783a8)" style="fill: none; stroke: #b0b0b0; stroke-width: 0.3; stroke-linecap: square"/>
     </g>
     <g id="line2d_28">
      <g>
       <use xlink:href="#mcd334b4420" x="105.965144" y="146.747947" style="stroke: #000000; stroke-width: 0.8"/>
      </g>
     </g>
    </g>
    <g id="xtick_15">
     <g id="line2d_29">
      <path d="M 119.244274 146.747947 
L 119.244274 12.07875 
" clip-path="url(#p3cd35783a8)" style="fill: none; stroke: #b0b0b0; stroke-width: 0.3; stroke-linecap: square"/>
     </g>
     <g id="line2d_30">
      <g>
       <use xlink:href="#mcd334b4420" x="119.244274" y="146.747947" style="stroke: #000000; stroke-width: 0.8"/>
      </g>
     </g>
    </g>
    <g id="xtick_16">
     <g id="line2d_31">
      <path d="M 125.88384 146.747947 
L 125.88384 12.07875 
" clip-path="url(#p3cd35783a8)" style="fill: none; stroke: #b0b0b0; stroke-width: 0.3; stroke-linecap: square"/>
     </g>
     <g id="line2d_32">
      <g>
       <use xlink:href="#mcd334b4420" x="125.88384" y="146.747947" style="stroke: #000000; stroke-width: 0.8"/>
      </g>
     </g>
    </g>
    <g id="xtick_17">
     <g id="line2d_33">
      <path d="M 132.523405 146.747947 
L 132.523405 12.07875 
" clip-path="url(#p3cd35783a8)" style="fill: none; stroke: #b0b0b0; stroke-width: 0.3; stroke-linecap: square"/>
     </g>
     <g id="line2d_34">
      <g>
       <use xlink:href="#mcd334b4420" x="132.523405" y="146.747947" style="stroke: #000000; stroke-width: 0.8"/>
      </g>
     </g>
    </g>
    <g id="xtick_18">
     <g id="line2d_35">
      <path d="M 139.162971 146.747947 
L 139.162971 12.07875 
" clip-path="url(#p3cd35783a8)" style="fill: none; stroke: #b0b0b0; stroke-width: 0.3; stroke-linecap: square"/>
     </g>
     <g id="line2d_36">
      <g>
       <use xlink:href="#mcd334b4420" x="139.162971" y="146.747947" style="stroke: #000000; stroke-width: 0.8"/>
      </g>
     </g>
    </g>
    <g id="xtick_19">
     <g id="line2d_37">
      <path d="M 152.442102 146.747947 
L 152.442102 12.07875 
" clip-path="url(#p3cd35783a8)" style="fill: none; stroke: #b0b0b0; stroke-width: 0.3; stroke-linecap: square"/>
     </g>
     <g id="line2d_38">
      <g>
       <use xlink:href="#mcd334b4420" x="152.442102" y="146.747947" style="stroke: #000000; stroke-width: 0.8"/>
      </g>
     </g>
    </g>
    <g id="xtick_20">
     <g id="line2d_39">
      <path d="M 159.081667 146.747947 
L 159.081667 12.07875 
" clip-path="url(#p3cd35783a8)" style="fill: none; stroke: #b0b0b0; stroke-width: 0.3; stroke-linecap: square"/>
     </g>
     <g id="line2d_40">
      <g>
       <use xlink:href="#mcd334b4420" x="159.081667" y="146.747947" style="stroke: #000000; stroke-width: 0.8"/>
      </g>
     </g>
    </g>
    <g id="xtick_21">
     <g id="line2d_41">
      <path d="M 165.721233 146.747947 
L 165.721233 12.07875 
" clip-path="url(#p3cd35783a8)" style="fill: none; stroke: #b0b0b0; stroke-width: 0.3; stroke-linecap: square"/>
     </g>
     <g id="line2d_42">
      <g>
       <use xlink:href="#mcd334b4420" x="165.721233" y="146.747947" style="stroke: #000000; stroke-width: 0.8"/>
      </g>
     </g>
    </g>
    <g id="xtick_22">
     <g id="line2d_43">
      <path d="M 172.360798 146.747947 
L 172.360798 12.07875 
" clip-path="url(#p3cd35783a8)" style="fill: none; stroke: #b0b0b0; stroke-width: 0.3; stroke-linecap: square"/>
     </g>
     <g id="line2d_44">
      <g>
       <use xlink:href="#mcd334b4420" x="172.360798" y="146.747947" style="stroke: #000000; stroke-width: 0.8"/>
      </g>
     </g>
    </g>
    <g id="xtick_23">
     <g id="line2d_45">
      <path d="M 185.639929 146.747947 
L 185.639929 12.07875 
" clip-path="url(#p3cd35783a8)" style="fill: none; stroke: #b0b0b0; stroke-width: 0.3; stroke-linecap: square"/>
     </g>
     <g id="line2d_46">
      <g>
       <use xlink:href="#mcd334b4420" x="185.639929" y="146.747947" style="stroke: #000000; stroke-width: 0.8"/>
      </g>
     </g>
    </g>
    <g id="xtick_24">
     <g id="line2d_47">
      <path d="M 192.279494 146.747947 
L 192.279494 12.07875 
" clip-path="url(#p3cd35783a8)" style="fill: none; stroke: #b0b0b0; stroke-width: 0.3; stroke-linecap: square"/>
     </g>
     <g id="line2d_48">
      <g>
       <use xlink:href="#mcd334b4420" x="192.279494" y="146.747947" style="stroke: #000000; stroke-width: 0.8"/>
      </g>
     </g>
    </g>
    <g id="text_6">
     <text style="font: 9.6px 'DejaVu Sans', 'Bitstream Vera Sans', 'Computer Modern Sans Serif', 'Lucida Grande', 'Verdana', 'Geneva', 'Lucid', 'Arial', 'Helvetica', 'Avant Garde', sans-serif; text-anchor: middle" x="114.2646" y="174.859197" transform="rotate(-0 114.2646 174.859197)">Wavelength (nm)</text>
    </g>
   </g>
   <g id="matplotlib.axis_2">
    <g id="ytick_1">
     <g id="line2d_49">
      <path d="M 35.58575 128.709952 
L 192.943451 128.709952 
" clip-path="url(#p3cd35783a8)" style="fill: none; stroke: #b0b0b0; stroke-width: 0.6; stroke-linecap: square"/>
     </g>
     <g id="line2d_50">
      <defs>
       <path id="m1c7d22f876" d="M 0 0 
L -4.8 0 
" style="stroke: #000000"/>
      </defs>
      <g>
       <use xlink:href="#m1c7d22f876" x="35.58575" y="128.709952" style="stroke: #000000"/>
      </g>
     </g>
     <g id="text_7">
      <text style="font: 8.8px 'DejaVu Sans', 'Bitstream Vera Sans', 'Computer Modern Sans Serif', 'Lucida Grande', 'Verdana', 'Geneva', 'Lucid', 'Arial', 'Helvetica', 'Avant Garde', sans-serif; text-anchor: end" x="27.28575" y="132.053265" transform="rotate(-0 27.28575 132.053265)">0.2</text>
     </g>
    </g>
    <g id="ytick_2">
     <g id="line2d_51">
      <path d="M 35.58575 101.082484 
L 192.943451 101.082484 
" clip-path="url(#p3cd35783a8)" style="fill: none; stroke: #b0b0b0; stroke-width: 0.6; stroke-linecap: square"/>
     </g>
     <g id="line2d_52">
      <g>
       <use xlink:href="#m1c7d22f876" x="35.58575" y="101.082484" style="stroke: #000000"/>
      </g>
     </g>
     <g id="text_8">
      <text style="font: 8.8px 'DejaVu Sans', 'Bitstream Vera Sans', 'Computer Modern Sans Serif', 'Lucida Grande', 'Verdana', 'Geneva', 'Lucid', 'Arial', 'Helvetica', 'Avant Garde', sans-serif; text-anchor: end" x="27.28575" y="104.425796" transform="rotate(-0 27.28575 104.425796)">0.4</text>
     </g>
    </g>
    <g id="ytick_3">
     <g id="line2d_53">
      <path d="M 35.58575 73.455015 
L 192.943451 73.455015 
" clip-path="url(#p3cd35783a8)" style="fill: none; stroke: #b0b0b0; stroke-width: 0.6; stroke-linecap: square"/>
     </g>
     <g id="line2d_54">
      <g>
       <use xlink:href="#m1c7d22f876" x="35.58575" y="73.455015" style="stroke: #000000"/>
      </g>
     </g>
     <g id="text_9">
      <text style="font: 8.8px 'DejaVu Sans', 'Bitstream Vera Sans', 'Computer Modern Sans Serif', 'Lucida Grande', 'Verdana', 'Geneva', 'Lucid', 'Arial', 'Helvetica', 'Avant Garde', sans-serif; text-anchor: end" x="27.28575" y="76.798327" transform="rotate(-0 27.28575 76.798327)">0.6</text>
     </g>
    </g>
    <g id="ytick_4">
     <g id="line2d_55">
      <path d="M 35.58575 45.827546 
L 192.943451 45.827546 
" clip-path="url(#p3cd35783a8)" style="fill: none; stroke: #b0b0b0; stroke-width: 0.6; stroke-linecap: square"/>
     </g>
     <g id="line2d_56">
      <g>
       <use xlink:href="#m1c7d22f876" x="35.58575" y="45.827546" style="stroke: #000000"/>
      </g>
     </g>
     <g id="text_10">
      <text style="font: 8.8px 'DejaVu Sans', 'Bitstream Vera Sans', 'Computer Modern Sans Serif', 'Lucida Grande', 'Verdana', 'Geneva', 'Lucid', 'Arial', 'Helvetica', 'Avant Garde', sans-serif; text-anchor: end" x="27.28575" y="49.170858" transform="rotate(-0 27.28575 49.170858)">0.8</text>
     </g>
    </g>
    <g id="ytick_5">
     <g id="line2d_57">
      <path d="M 35.58575 18.200077 
L 192.943451 18.200077 
" clip-path="url(#p3cd35783a8)" style="fill: none; stroke: #b0b0b0; stroke-width: 0.6; stroke-linecap: square"/>
     </g>
     <g id="line2d_58">
      <g>
       <use xlink:href="#m1c7d22f876" x="35.58575" y="18.200077" style="stroke: #000000"/>
      </g>
     </g>
     <g id="text_11">
      <text style="font: 8.8px 'DejaVu Sans', 'Bitstream Vera Sans', 'Computer Modern Sans Serif', 'Lucida Grande', 'Verdana', 'Geneva', 'Lucid', 'Arial', 'Helvetica', 'Avant Garde', sans-serif; text-anchor: end" x="27.28575" y="21.54339" transform="rotate(-0 27.28575 21.54339)">1.0</text>
     </g>
    </g>
    <g id="text_12">
     <text style="font: 9.6px 'DejaVu Sans', 'Bitstream Vera Sans', 'Computer Modern Sans Serif', 'Lucida Grande', 'Verdana', 'Geneva', 'Lucid', 'Arial', 'Helvetica', 'Avant Garde', sans-serif; text-anchor: middle" x="7.2945" y="79.413348" transform="rotate(-90 7.2945 79.413348)">Reflectance</text>
    </g>
   </g>
   <g id="line2d_59">
    <path d="M 36.249707 18.200077 
L 36.847267 18.213335 
L 36.913663 18.200077 
L 37.245641 19.152959 
L 37.312037 19.126165 
L 37.776807 18.841228 
L 38.175181 18.615299 
L 38.241576 18.588443 
L 38.573554 19.368953 
L 39.038324 18.430547 
L 39.436698 18.368327 
L 39.702281 18.503141 
L 40.034259 18.89315 
L 40.233446 19.217715 
L 40.565424 18.553439 
L 40.63182 18.62983 
L 41.229381 19.166064 
L 41.69415 19.319348 
L 41.959733 19.415163 
L 42.225315 19.182821 
L 42.756481 21.773845 
L 42.889272 22.166153 
L 43.22125 20.346641 
L 43.287646 20.47659 
L 43.752415 21.196705 
L 43.885207 21.330249 
L 43.951602 21.242204 
L 44.681955 20.39498 
L 45.013933 20.366038 
L 45.345911 20.326491 
L 45.611494 20.337181 
L 46.009868 20.081725 
L 46.27545 20.049766 
L 46.74022 19.808363 
L 46.939407 19.71038 
L 47.470572 19.27449 
L 47.603363 19.280872 
L 47.935342 19.41134 
L 48.466507 18.98425 
L 48.599298 18.947949 
L 48.997672 19.018325 
L 49.728024 18.805869 
L 49.993607 18.721238 
L 50.25919 18.622736 
L 50.591168 18.737658 
L 50.989542 18.52835 
L 51.32152 18.484999 
L 51.653498 18.407476 
L 52.251059 18.501649 
L 52.583038 18.338624 
L 52.915016 18.479295 
L 53.246994 18.225148 
L 54.309325 18.52358 
L 54.84049 18.574966 
L 55.371655 19.619177 
L 55.504446 19.77536 
L 56.301194 22.579926 
L 56.500381 22.892157 
L 56.566777 22.8305 
L 56.898755 22.404293 
L 57.42992 21.240725 
L 58.226668 20.093434 
L 58.558646 20.070477 
L 58.95702 19.821 
L 59.222603 19.761394 
L 59.687373 19.406752 
L 59.952955 19.43389 
L 60.152142 19.534703 
L 60.48412 18.881876 
L 60.550516 18.928717 
L 60.816099 19.116104 
L 61.148077 18.604456 
L 61.214473 18.658155 
L 61.546451 18.80037 
L 61.944825 18.512329 
L 62.343199 18.626541 
L 62.542386 18.618153 
L 62.94076 18.256048 
L 63.206342 18.258427 
L 63.53832 18.415815 
L 63.803903 18.200077 
L 64.268673 18.765662 
L 64.733442 18.961494 
L 64.799838 18.999651 
L 65.264607 18.303289 
L 65.463794 18.200077 
L 65.862168 18.977887 
L 66.791708 18.966564 
L 67.256477 19.808602 
L 68.252412 22.159432 
L 69.248347 24.131753 
L 70.310677 26.496604 
L 70.443469 26.567913 
L 71.041029 29.479806 
L 71.173821 30.615133 
L 71.439403 33.605702 
L 71.837777 49.373391 
L 72.10336 68.005565 
L 72.169756 65.888422 
L 72.700921 52.068189 
L 72.767316 50.7308 
L 72.833712 51.468749 
L 73.497669 57.645213 
L 73.763251 58.295318 
L 74.161625 56.458736 
L 75.290351 48.575869 
L 75.755121 46.426779 
L 76.286286 45.083231 
L 76.485473 44.91583 
L 76.817451 44.967066 
L 77.083034 44.700468 
L 77.680595 41.869544 
L 78.875717 35.744924 
L 79.606069 33.212037 
L 82.461082 26.261461 
L 82.925852 25.535833 
L 83.125039 25.263578 
L 84.054578 23.444127 
L 84.718534 23.002512 
L 85.249699 22.121945 
L 85.648073 21.56551 
L 85.913656 21.345003 
L 86.112843 21.149886 
L 86.378426 20.677532 
L 86.444821 20.726633 
L 86.710404 20.923174 
L 87.440756 20.049626 
L 87.772734 19.769414 
L 88.038317 19.88344 
L 88.503087 19.121493 
L 89.034252 18.833923 
L 89.36623 18.303714 
L 89.432626 18.368176 
L 89.831 18.617046 
L 90.362165 18.494971 
L 90.760539 18.326187 
L 91.158913 18.41375 
L 91.557287 18.432548 
L 91.756474 18.417969 
L 92.154847 18.217392 
L 92.951595 18.210062 
L 93.150782 18.267326 
L 94.744278 19.186955 
L 97.068126 21.899751 
L 97.400104 22.145045 
L 97.864874 22.687371 
L 98.728017 23.335949 
L 99.458369 23.766961 
L 99.723952 23.739966 
L 100.188722 24.099293 
L 100.719887 24.192461 
L 100.98547 23.928788 
L 101.649426 25.158152 
L 102.0478 25.0705 
L 102.446174 25.762199 
L 102.844548 27.016379 
L 103.309317 29.143348 
L 103.774087 33.960048 
L 104.637231 47.469507 
L 105.56677 79.87244 
L 105.965144 91.803901 
L 106.297122 95.94605 
L 106.363518 95.742351 
L 106.6291 94.926003 
L 107.293057 86.976467 
L 107.957013 77.707707 
L 108.687365 72.242227 
L 109.351322 69.138867 
L 109.816092 67.305737 
L 110.812026 61.976198 
L 112.007148 54.198214 
L 113.733435 42.806772 
L 114.928557 36.645557 
L 116.057283 32.81819 
L 117.584383 29.348078 
L 118.115548 28.956266 
L 118.447527 28.774202 
L 118.713109 28.459096 
L 119.111483 27.625268 
L 119.31067 27.284345 
L 119.576253 27.278305 
L 120.041022 26.182919 
L 120.306605 25.92026 
L 120.704979 25.32089 
L 121.036957 24.991753 
L 121.501727 24.092712 
L 122.298475 22.576721 
L 122.696848 22.101352 
L 123.028827 21.688315 
L 123.427201 21.481027 
L 123.759179 21.335138 
L 124.091157 21.179296 
L 124.290344 20.925817 
L 124.887905 19.665428 
L 125.817444 18.972753 
L 126.016631 18.900683 
L 126.282214 18.817211 
L 126.94617 18.200077 
L 127.344544 18.310127 
L 127.742918 18.524006 
L 128.008501 18.696033 
L 128.274083 18.870898 
L 129.004436 18.366107 
L 129.270018 18.258948 
L 129.867579 18.826347 
L 130.597931 22.535791 
L 130.996305 26.732073 
L 131.328284 32.850648 
L 132.058636 47.653792 
L 132.191427 48.878275 
L 132.257823 48.563926 
L 132.523405 47.30159 
L 132.855384 49.539657 
L 133.452944 63.637029 
L 133.51934 64.780641 
L 133.585736 64.357087 
L 133.851318 62.656105 
L 134.980045 35.656596 
L 135.444814 31.876334 
L 135.577605 31.457087 
L 135.843188 31.445049 
L 136.241562 32.225253 
L 136.905519 34.698603 
L 137.370288 39.310231 
L 138.233432 48.945759 
L 138.499014 50.392045 
L 138.56541 50.305862 
L 138.830992 49.959666 
L 139.362158 44.95718 
L 139.62774 42.76211 
L 139.826927 41.808862 
L 139.893323 41.882088 
L 140.158906 42.176258 
L 141.088445 46.952991 
L 141.486819 48.761791 
L 141.61961 48.707947 
L 141.818797 48.626826 
L 142.947523 53.022706 
L 143.279501 54.5018 
L 143.810667 55.591814 
L 143.877062 55.478678 
L 144.142645 55.024075 
L 144.209041 55.076793 
L 144.474623 55.288629 
L 145.271371 57.62946 
L 145.736141 58.297263 
L 145.935328 58.616613 
L 146.66568 60.189578 
L 146.864867 60.644509 
L 147.196845 60.805961 
L 147.993593 61.971543 
L 148.126384 61.95973 
L 148.458362 61.283526 
L 148.790341 62.429656 
L 148.856736 62.393127 
L 149.387902 62.07748 
L 149.587089 61.753067 
L 149.919067 61.878639 
L 150.251045 61.050815 
L 150.317441 61.086308 
L 150.383836 61.193809 
L 150.583023 60.877272 
L 150.715815 61.127344 
L 150.915002 60.687655 
L 151.114189 60.346502 
L 151.24698 60.443109 
L 151.844541 59.242262 
L 151.910936 59.31366 
L 152.043728 59.752487 
L 152.110123 59.684171 
L 152.30931 58.443702 
L 152.508497 58.880529 
L 152.840476 58.680779 
L 153.039663 57.985326 
L 153.172454 58.074449 
L 153.438036 57.989436 
L 153.570828 58.237808 
L 153.703619 57.917136 
L 153.83641 58.103283 
L 153.969202 57.606096 
L 154.433971 58.370641 
L 154.566763 58.081354 
L 154.633158 57.894182 
L 154.898741 58.347355 
L 155.429906 59.321125 
L 156.29305 62.451029 
L 156.691424 66.008969 
L 157.288984 76.091137 
L 158.550502 103.99355 
L 158.816084 105.657712 
L 159.214458 107.372223 
L 159.413645 110.123134 
L 159.679228 118.110249 
L 160.276789 138.336334 
L 160.475976 140.62662 
L 160.542371 140.620763 
L 160.675163 139.644607 
L 161.007141 133.977293 
L 161.471911 125.740978 
L 161.671098 124.670138 
L 161.870285 124.292738 
L 162.003076 124.085265 
L 162.534241 124.961439 
L 162.799824 125.42605 
L 162.866219 125.314468 
L 163.065406 125.236513 
L 163.198198 125.222185 
L 163.662967 124.661416 
L 164.127737 124.138102 
L 164.260528 124.184865 
L 164.791693 123.57033 
L 164.99088 123.51186 
L 165.190067 123.28648 
L 166.98275 120.259781 
L 167.248333 119.81571 
L 169.107411 117.6449 
L 169.306598 117.484827 
L 170.103346 116.4226 
L 170.302533 116.249762 
L 170.50172 115.973838 
L 170.700907 115.833319 
L 171.232072 115.040838 
L 171.696841 114.519526 
L 171.896028 114.466862 
L 172.161611 114.230121 
L 172.360798 114.093083 
L 174.551855 111.825121 
L 174.751041 111.574061 
L 174.883833 111.459344 
L 176.676515 108.387637 
L 177.008494 107.798007 
L 177.340472 107.100132 
L 177.738846 105.882164 
L 179.066759 102.185747 
L 181.722585 91.95061 
L 182.054563 90.660508 
L 183.249685 85.783842 
L 183.980037 83.047432 
L 184.378411 81.79775 
L 184.843181 79.908036 
L 185.241555 78.190594 
L 187.499007 64.779039 
L 187.963777 60.875953 
L 188.82692 53.58333 
L 190.35402 38.969459 
L 192.080307 19.915893 
L 192.213099 18.200077 
L 192.213099 18.200077 
" clip-path="url(#p3cd35783a8)" style="fill: none; stroke: #1f77b4; stroke-width: 0.5; stroke-linecap: square"/>
   </g>
   <g id="line2d_60"/>
   <g id="patch_3">
    <path d="M 35.58575 146.747947 
L 35.58575 12.07875 
" style="fill: none; stroke: #000000; stroke-linejoin: miter; stroke-linecap: square"/>
   </g>
   <g id="patch_4">
    <path d="M 192.943451 146.747947 
L 192.943451 12.07875 
" style="fill: none; stroke: #000000; stroke-linejoin: miter; stroke-linecap: square"/>
   </g>
   <g id="patch_5">
    <path d="M 35.58575 146.747947 
L 192.943451 146.747947 
" style="fill: none; stroke: #000000; stroke-linejoin: miter; stroke-linecap: square"/>
   </g>
   <g id="patch_6">
    <path d="M 35.58575 12.07875 
L 192.943451 12.07875 
" style="fill: none; stroke: #000000; stroke-linejoin: miter; stroke-linecap: square"/>
   </g>
   <g id="text_13">
    <text style="font: 8px 'DejaVu Sans', 'Bitstream Vera Sans', 'Computer Modern Sans Serif', 'Lucida Grande', 'Verdana', 'Geneva', 'Lucid', 'Arial', 'Helvetica', 'Avant Garde', sans-serif; text-anchor: middle" x="114.2646" y="6.07875" transform="rotate(-0 114.2646 6.07875)">Laboratory Phyllosilicate Saponite</text>
   </g>
   <g id="legend_1">
    <g id="patch_7">
     <path d="M 200.290605 84.716786 
L 271.120605 84.716786 
Q 272.320605 84.716786 272.320605 83.516786 
L 272.320605 75.309911 
Q 272.320605 74.109911 271.120605 74.109911 
L 200.290605 74.109911 
Q 199.090605 74.109911 199.090605 75.309911 
L 199.090605 83.516786 
Q 199.090605 84.716786 200.290605 84.716786 
z
" style="fill: #ffffff; opacity: 0.8; stroke: #cccccc; stroke-width: 0.8; stroke-linejoin: miter"/>
    </g>
    <g id="line2d_61">
     <path d="M 201.490605 78.968973 
L 207.490605 78.968973 
L 213.490605 78.968973 
" style="fill: none; stroke: #1f77b4; stroke-width: 1.2; stroke-linecap: square"/>
    </g>
    <g id="text_14">
     <text style="font: 6px 'DejaVu Sans', 'Bitstream Vera Sans', 'Computer Modern Sans Serif', 'Lucida Grande', 'Verdana', 'Geneva', 'Lucid', 'Arial', 'Helvetica', 'Avant Garde', sans-serif; text-anchor: start" x="218.290605" y="81.068973" transform="rotate(-0 218.290605 81.068973)">Saponite LASA58</text>
    </g>
   </g>
  </g>
 </g>
 <defs>
  <clipPath id="p3cd35783a8">
   <rect x="35.58575" y="12.07875" width="157.357701" height="134.669197"/>
  </clipPath>
 </defs>
</svg>
