<?xml version="1.0" encoding="utf-8" standalone="no"?>
<!DOCTYPE svg PUBLIC "-//W3C//DTD SVG 1.1//EN"
  "http://www.w3.org/Graphics/SVG/1.1/DTD/svg11.dtd">
<svg xmlns:xlink="http://www.w3.org/1999/xlink" width="272.511592pt" height="176.855697pt" viewBox="0 0 272.511592 176.855697" xmlns="http://www.w3.org/2000/svg" version="1.1">
 <metadata>
  <rdf:RDF xmlns:dc="http://purl.org/dc/elements/1.1/" xmlns:cc="http://creativecommons.org/ns#" xmlns:rdf="http://www.w3.org/1999/02/22-rdf-syntax-ns#">
   <cc:Work>
    <dc:type rdf:resource="http://purl.org/dc/dcmitype/StillImage"/>
    <dc:date>2025-02-12T17:07:53.146203</dc:date>
    <dc:format>image/svg+xml</dc:format>
    <dc:creator>
     <cc:Agent>
      <dc:title>Matplotlib v3.6.2, https://matplotlib.org/</dc:title>
     </cc:Agent>
    </dc:creator>
   </cc:Work>
  </rdf:RDF>
 </metadata>
 <defs>
  <style type="text/css">*{stroke-linejoin: round; stroke-linecap: butt}</style>
 </defs>
 <g id="figure_1">
  <g id="patch_1">
   <path d="M -0 176.855697 
L 272.511592 176.855697 
L 272.511592 0 
L -0 0 
z
" style="fill: #ffffff"/>
  </g>
  <g id="axes_1">
   <g id="patch_2">
    <path d="M 35.58575 146.747947 
L 209.383451 146.747947 
L 209.383451 12.07875 
L 35.58575 12.07875 
z
" style="fill: #ffffff"/>
   </g>
   <g id="matplotlib.axis_1">
    <g id="xtick_1">
     <g id="line2d_1">
      <path d="M 47.318928 146.747947 
L 47.318928 12.07875 
" clip-path="url(#pe19e6490ff)" style="fill: none; stroke: #b0b0b0; stroke-width: 0.6; stroke-linecap: square"/>
     </g>
     <g id="line2d_2">
      <defs>
       <path id="ma38671a2f8" d="M 0 0 
L 0 4.8 
" style="stroke: #000000"/>
      </defs>
      <g>
       <use xlink:href="#ma38671a2f8" x="47.318928" y="146.747947" style="stroke: #000000"/>
      </g>
     </g>
     <g id="text_1">
      <text style="font: 8.8px 'DejaVu Sans', 'Bitstream Vera Sans', 'Computer Modern Sans Serif', 'Lucida Grande', 'Verdana', 'Geneva', 'Lucid', 'Arial', 'Helvetica', 'Avant Garde', sans-serif; text-anchor: middle" x="47.318928" y="161.734572" transform="rotate(-0 47.318928 161.734572)">1000</text>
     </g>
    </g>
    <g id="xtick_2">
     <g id="line2d_3">
      <path d="M 83.98511 146.747947 
L 83.98511 12.07875 
" clip-path="url(#pe19e6490ff)" style="fill: none; stroke: #b0b0b0; stroke-width: 0.6; stroke-linecap: square"/>
     </g>
     <g id="line2d_4">
      <g>
       <use xlink:href="#ma38671a2f8" x="83.98511" y="146.747947" style="stroke: #000000"/>
      </g>
     </g>
     <g id="text_2">
      <text style="font: 8.8px 'DejaVu Sans', 'Bitstream Vera Sans', 'Computer Modern Sans Serif', 'Lucida Grande', 'Verdana', 'Geneva', 'Lucid', 'Arial', 'Helvetica', 'Avant Garde', sans-serif; text-anchor: middle" x="83.98511" y="161.734572" transform="rotate(-0 83.98511 161.734572)">1500</text>
     </g>
    </g>
    <g id="xtick_3">
     <g id="line2d_5">
      <path d="M 120.651291 146.747947 
L 120.651291 12.07875 
" clip-path="url(#pe19e6490ff)" style="fill: none; stroke: #b0b0b0; stroke-width: 0.6; stroke-linecap: square"/>
     </g>
     <g id="line2d_6">
      <g>
       <use xlink:href="#ma38671a2f8" x="120.651291" y="146.747947" style="stroke: #000000"/>
      </g>
     </g>
     <g id="text_3">
      <text style="font: 8.8px 'DejaVu Sans', 'Bitstream Vera Sans', 'Computer Modern Sans Serif', 'Lucida Grande', 'Verdana', 'Geneva', 'Lucid', 'Arial', 'Helvetica', 'Avant Garde', sans-serif; text-anchor: middle" x="120.651291" y="161.734572" transform="rotate(-0 120.651291 161.734572)">2000</text>
     </g>
    </g>
    <g id="xtick_4">
     <g id="line2d_7">
      <path d="M 157.317473 146.747947 
L 157.317473 12.07875 
" clip-path="url(#pe19e6490ff)" style="fill: none; stroke: #b0b0b0; stroke-width: 0.6; stroke-linecap: square"/>
     </g>
     <g id="line2d_8">
      <g>
       <use xlink:href="#ma38671a2f8" x="157.317473" y="146.747947" style="stroke: #000000"/>
      </g>
     </g>
     <g id="text_4">
      <text style="font: 8.8px 'DejaVu Sans', 'Bitstream Vera Sans', 'Computer Modern Sans Serif', 'Lucida Grande', 'Verdana', 'Geneva', 'Lucid', 'Arial', 'Helvetica', 'Avant Garde', sans-serif; text-anchor: middle" x="157.317473" y="161.734572" transform="rotate(-0 157.317473 161.734572)">2500</text>
     </g>
    </g>
    <g id="xtick_5">
     <g id="line2d_9">
      <path d="M 193.983655 146.747947 
L 193.983655 12.07875 
" clip-path="url(#pe19e6490ff)" style="fill: none; stroke: #b0b0b0; stroke-width: 0.6; stroke-linecap: square"/>
     </g>
     <g id="line2d_10">
      <g>
       <use xlink:href="#ma38671a2f8" x="193.983655" y="146.747947" style="stroke: #000000"/>
      </g>
     </g>
     <g id="text_5">
      <text style="font: 8.8px 'DejaVu Sans', 'Bitstream Vera Sans', 'Computer Modern Sans Serif', 'Lucida Grande', 'Verdana', 'Geneva', 'Lucid', 'Arial', 'Helvetica', 'Avant Garde', sans-serif; text-anchor: middle" x="193.983655" y="161.734572" transform="rotate(-0 193.983655 161.734572)">3000</text>
     </g>
    </g>
    <g id="xtick_6">
     <g id="line2d_11">
      <path d="M 39.985692 146.747947 
L 39.985692 12.07875 
" clip-path="url(#pe19e6490ff)" style="fill: none; stroke: #b0b0b0; stroke-width: 0.3; stroke-linecap: square"/>
     </g>
     <g id="line2d_12">
      <defs>
       <path id="mac0e12be83" d="M 0 0 
L 0 3.2 
" style="stroke: #000000; stroke-width: 0.8"/>
      </defs>
      <g>
       <use xlink:href="#mac0e12be83" x="39.985692" y="146.747947" style="stroke: #000000; stroke-width: 0.8"/>
      </g>
     </g>
    </g>
    <g id="xtick_7">
     <g id="line2d_13">
      <path d="M 54.652164 146.747947 
L 54.652164 12.07875 
" clip-path="url(#pe19e6490ff)" style="fill: none; stroke: #b0b0b0; stroke-width: 0.3; stroke-linecap: square"/>
     </g>
     <g id="line2d_14">
      <g>
       <use xlink:href="#mac0e12be83" x="54.652164" y="146.747947" style="stroke: #000000; stroke-width: 0.8"/>
      </g>
     </g>
    </g>
    <g id="xtick_8">
     <g id="line2d_15">
      <path d="M 61.985401 146.747947 
L 61.985401 12.07875 
" clip-path="url(#pe19e6490ff)" style="fill: none; stroke: #b0b0b0; stroke-width: 0.3; stroke-linecap: square"/>
     </g>
     <g id="line2d_16">
      <g>
       <use xlink:href="#mac0e12be83" x="61.985401" y="146.747947" style="stroke: #000000; stroke-width: 0.8"/>
      </g>
     </g>
    </g>
    <g id="xtick_9">
     <g id="line2d_17">
      <path d="M 69.318637 146.747947 
L 69.318637 12.07875 
" clip-path="url(#pe19e6490ff)" style="fill: none; stroke: #b0b0b0; stroke-width: 0.3; stroke-linecap: square"/>
     </g>
     <g id="line2d_18">
      <g>
       <use xlink:href="#mac0e12be83" x="69.318637" y="146.747947" style="stroke: #000000; stroke-width: 0.8"/>
      </g>
     </g>
    </g>
    <g id="xtick_10">
     <g id="line2d_19">
      <path d="M 76.651873 146.747947 
L 76.651873 12.07875 
" clip-path="url(#pe19e6490ff)" style="fill: none; stroke: #b0b0b0; stroke-width: 0.3; stroke-linecap: square"/>
     </g>
     <g id="line2d_20">
      <g>
       <use xlink:href="#mac0e12be83" x="76.651873" y="146.747947" style="stroke: #000000; stroke-width: 0.8"/>
      </g>
     </g>
    </g>
    <g id="xtick_11">
     <g id="line2d_21">
      <path d="M 91.318346 146.747947 
L 91.318346 12.07875 
" clip-path="url(#pe19e6490ff)" style="fill: none; stroke: #b0b0b0; stroke-width: 0.3; stroke-linecap: square"/>
     </g>
     <g id="line2d_22">
      <g>
       <use xlink:href="#mac0e12be83" x="91.318346" y="146.747947" style="stroke: #000000; stroke-width: 0.8"/>
      </g>
     </g>
    </g>
    <g id="xtick_12">
     <g id="line2d_23">
      <path d="M 98.651582 146.747947 
L 98.651582 12.07875 
" clip-path="url(#pe19e6490ff)" style="fill: none; stroke: #b0b0b0; stroke-width: 0.3; stroke-linecap: square"/>
     </g>
     <g id="line2d_24">
      <g>
       <use xlink:href="#mac0e12be83" x="98.651582" y="146.747947" style="stroke: #000000; stroke-width: 0.8"/>
      </g>
     </g>
    </g>
    <g id="xtick_13">
     <g id="line2d_25">
      <path d="M 105.984819 146.747947 
L 105.984819 12.07875 
" clip-path="url(#pe19e6490ff)" style="fill: none; stroke: #b0b0b0; stroke-width: 0.3; stroke-linecap: square"/>
     </g>
     <g id="line2d_26">
      <g>
       <use xlink:href="#mac0e12be83" x="105.984819" y="146.747947" style="stroke: #000000; stroke-width: 0.8"/>
      </g>
     </g>
    </g>
    <g id="xtick_14">
     <g id="line2d_27">
      <path d="M 113.318055 146.747947 
L 113.318055 12.07875 
" clip-path="url(#pe19e6490ff)" style="fill: none; stroke: #b0b0b0; stroke-width: 0.3; stroke-linecap: square"/>
     </g>
     <g id="line2d_28">
      <g>
       <use xlink:href="#mac0e12be83" x="113.318055" y="146.747947" style="stroke: #000000; stroke-width: 0.8"/>
      </g>
     </g>
    </g>
    <g id="xtick_15">
     <g id="line2d_29">
      <path d="M 127.984528 146.747947 
L 127.984528 12.07875 
" clip-path="url(#pe19e6490ff)" style="fill: none; stroke: #b0b0b0; stroke-width: 0.3; stroke-linecap: square"/>
     </g>
     <g id="line2d_30">
      <g>
       <use xlink:href="#mac0e12be83" x="127.984528" y="146.747947" style="stroke: #000000; stroke-width: 0.8"/>
      </g>
     </g>
    </g>
    <g id="xtick_16">
     <g id="line2d_31">
      <path d="M 135.317764 146.747947 
L 135.317764 12.07875 
" clip-path="url(#pe19e6490ff)" style="fill: none; stroke: #b0b0b0; stroke-width: 0.3; stroke-linecap: square"/>
     </g>
     <g id="line2d_32">
      <g>
       <use xlink:href="#mac0e12be83" x="135.317764" y="146.747947" style="stroke: #000000; stroke-width: 0.8"/>
      </g>
     </g>
    </g>
    <g id="xtick_17">
     <g id="line2d_33">
      <path d="M 142.651 146.747947 
L 142.651 12.07875 
" clip-path="url(#pe19e6490ff)" style="fill: none; stroke: #b0b0b0; stroke-width: 0.3; stroke-linecap: square"/>
     </g>
     <g id="line2d_34">
      <g>
       <use xlink:href="#mac0e12be83" x="142.651" y="146.747947" style="stroke: #000000; stroke-width: 0.8"/>
      </g>
     </g>
    </g>
    <g id="xtick_18">
     <g id="line2d_35">
      <path d="M 149.984237 146.747947 
L 149.984237 12.07875 
" clip-path="url(#pe19e6490ff)" style="fill: none; stroke: #b0b0b0; stroke-width: 0.3; stroke-linecap: square"/>
     </g>
     <g id="line2d_36">
      <g>
       <use xlink:href="#mac0e12be83" x="149.984237" y="146.747947" style="stroke: #000000; stroke-width: 0.8"/>
      </g>
     </g>
    </g>
    <g id="xtick_19">
     <g id="line2d_37">
      <path d="M 164.650709 146.747947 
L 164.650709 12.07875 
" clip-path="url(#pe19e6490ff)" style="fill: none; stroke: #b0b0b0; stroke-width: 0.3; stroke-linecap: square"/>
     </g>
     <g id="line2d_38">
      <g>
       <use xlink:href="#mac0e12be83" x="164.650709" y="146.747947" style="stroke: #000000; stroke-width: 0.8"/>
      </g>
     </g>
    </g>
    <g id="xtick_20">
     <g id="line2d_39">
      <path d="M 171.983946 146.747947 
L 171.983946 12.07875 
" clip-path="url(#pe19e6490ff)" style="fill: none; stroke: #b0b0b0; stroke-width: 0.3; stroke-linecap: square"/>
     </g>
     <g id="line2d_40">
      <g>
       <use xlink:href="#mac0e12be83" x="171.983946" y="146.747947" style="stroke: #000000; stroke-width: 0.8"/>
      </g>
     </g>
    </g>
    <g id="xtick_21">
     <g id="line2d_41">
      <path d="M 179.317182 146.747947 
L 179.317182 12.07875 
" clip-path="url(#pe19e6490ff)" style="fill: none; stroke: #b0b0b0; stroke-width: 0.3; stroke-linecap: square"/>
     </g>
     <g id="line2d_42">
      <g>
       <use xlink:href="#mac0e12be83" x="179.317182" y="146.747947" style="stroke: #000000; stroke-width: 0.8"/>
      </g>
     </g>
    </g>
    <g id="xtick_22">
     <g id="line2d_43">
      <path d="M 186.650418 146.747947 
L 186.650418 12.07875 
" clip-path="url(#pe19e6490ff)" style="fill: none; stroke: #b0b0b0; stroke-width: 0.3; stroke-linecap: square"/>
     </g>
     <g id="line2d_44">
      <g>
       <use xlink:href="#mac0e12be83" x="186.650418" y="146.747947" style="stroke: #000000; stroke-width: 0.8"/>
      </g>
     </g>
    </g>
    <g id="xtick_23">
     <g id="line2d_45">
      <path d="M 201.316891 146.747947 
L 201.316891 12.07875 
" clip-path="url(#pe19e6490ff)" style="fill: none; stroke: #b0b0b0; stroke-width: 0.3; stroke-linecap: square"/>
     </g>
     <g id="line2d_46">
      <g>
       <use xlink:href="#mac0e12be83" x="201.316891" y="146.747947" style="stroke: #000000; stroke-width: 0.8"/>
      </g>
     </g>
    </g>
    <g id="xtick_24">
     <g id="line2d_47">
      <path d="M 208.650127 146.747947 
L 208.650127 12.07875 
" clip-path="url(#pe19e6490ff)" style="fill: none; stroke: #b0b0b0; stroke-width: 0.3; stroke-linecap: square"/>
     </g>
     <g id="line2d_48">
      <g>
       <use xlink:href="#mac0e12be83" x="208.650127" y="146.747947" style="stroke: #000000; stroke-width: 0.8"/>
      </g>
     </g>
    </g>
    <g id="text_6">
     <text style="font: 9.6px 'DejaVu Sans', 'Bitstream Vera Sans', 'Computer Modern Sans Serif', 'Lucida Grande', 'Verdana', 'Geneva', 'Lucid', 'Arial', 'Helvetica', 'Avant Garde', sans-serif; text-anchor: middle" x="122.4846" y="174.859197" transform="rotate(-0 122.4846 174.859197)">Wavelength (nm)</text>
    </g>
   </g>
   <g id="matplotlib.axis_2">
    <g id="ytick_1">
     <g id="line2d_49">
      <path d="M 35.58575 138.868502 
L 209.383451 138.868502 
" clip-path="url(#pe19e6490ff)" style="fill: none; stroke: #b0b0b0; stroke-width: 0.6; stroke-linecap: square"/>
     </g>
     <g id="line2d_50">
      <defs>
       <path id="m6865d7486b" d="M 0 0 
L -4.8 0 
" style="stroke: #000000"/>
      </defs>
      <g>
       <use xlink:href="#m6865d7486b" x="35.58575" y="138.868502" style="stroke: #000000"/>
      </g>
     </g>
     <g id="text_7">
      <text style="font: 8.8px 'DejaVu Sans', 'Bitstream Vera Sans', 'Computer Modern Sans Serif', 'Lucida Grande', 'Verdana', 'Geneva', 'Lucid', 'Arial', 'Helvetica', 'Avant Garde', sans-serif; text-anchor: end" x="27.28575" y="142.211815" transform="rotate(-0 27.28575 142.211815)">0.2</text>
     </g>
    </g>
    <g id="ytick_2">
     <g id="line2d_51">
      <path d="M 35.58575 108.701396 
L 209.383451 108.701396 
" clip-path="url(#pe19e6490ff)" style="fill: none; stroke: #b0b0b0; stroke-width: 0.6; stroke-linecap: square"/>
     </g>
     <g id="line2d_52">
      <g>
       <use xlink:href="#m6865d7486b" x="35.58575" y="108.701396" style="stroke: #000000"/>
      </g>
     </g>
     <g id="text_8">
      <text style="font: 8.8px 'DejaVu Sans', 'Bitstream Vera Sans', 'Computer Modern Sans Serif', 'Lucida Grande', 'Verdana', 'Geneva', 'Lucid', 'Arial', 'Helvetica', 'Avant Garde', sans-serif; text-anchor: end" x="27.28575" y="112.044709" transform="rotate(-0 27.28575 112.044709)">0.4</text>
     </g>
    </g>
    <g id="ytick_3">
     <g id="line2d_53">
      <path d="M 35.58575 78.53429 
L 209.383451 78.53429 
" clip-path="url(#pe19e6490ff)" style="fill: none; stroke: #b0b0b0; stroke-width: 0.6; stroke-linecap: square"/>
     </g>
     <g id="line2d_54">
      <g>
       <use xlink:href="#m6865d7486b" x="35.58575" y="78.53429" style="stroke: #000000"/>
      </g>
     </g>
     <g id="text_9">
      <text style="font: 8.8px 'DejaVu Sans', 'Bitstream Vera Sans', 'Computer Modern Sans Serif', 'Lucida Grande', 'Verdana', 'Geneva', 'Lucid', 'Arial', 'Helvetica', 'Avant Garde', sans-serif; text-anchor: end" x="27.28575" y="81.877602" transform="rotate(-0 27.28575 81.877602)">0.6</text>
     </g>
    </g>
    <g id="ytick_4">
     <g id="line2d_55">
      <path d="M 35.58575 48.367183 
L 209.383451 48.367183 
" clip-path="url(#pe19e6490ff)" style="fill: none; stroke: #b0b0b0; stroke-width: 0.6; stroke-linecap: square"/>
     </g>
     <g id="line2d_56">
      <g>
       <use xlink:href="#m6865d7486b" x="35.58575" y="48.367183" style="stroke: #000000"/>
      </g>
     </g>
     <g id="text_10">
      <text style="font: 8.8px 'DejaVu Sans', 'Bitstream Vera Sans', 'Computer Modern Sans Serif', 'Lucida Grande', 'Verdana', 'Geneva', 'Lucid', 'Arial', 'Helvetica', 'Avant Garde', sans-serif; text-anchor: end" x="27.28575" y="51.710496" transform="rotate(-0 27.28575 51.710496)">0.8</text>
     </g>
    </g>
    <g id="ytick_5">
     <g id="line2d_57">
      <path d="M 35.58575 18.200077 
L 209.383451 18.200077 
" clip-path="url(#pe19e6490ff)" style="fill: none; stroke: #b0b0b0; stroke-width: 0.6; stroke-linecap: square"/>
     </g>
     <g id="line2d_58">
      <g>
       <use xlink:href="#m6865d7486b" x="35.58575" y="18.200077" style="stroke: #000000"/>
      </g>
     </g>
     <g id="text_11">
      <text style="font: 8.8px 'DejaVu Sans', 'Bitstream Vera Sans', 'Computer Modern Sans Serif', 'Lucida Grande', 'Verdana', 'Geneva', 'Lucid', 'Arial', 'Helvetica', 'Avant Garde', sans-serif; text-anchor: end" x="27.28575" y="21.54339" transform="rotate(-0 27.28575 21.54339)">1.0</text>
     </g>
    </g>
    <g id="text_12">
     <text style="font: 9.6px 'DejaVu Sans', 'Bitstream Vera Sans', 'Computer Modern Sans Serif', 'Lucida Grande', 'Verdana', 'Geneva', 'Lucid', 'Arial', 'Helvetica', 'Avant Garde', sans-serif; text-anchor: middle" x="7.2945" y="79.413348" transform="rotate(-90 7.2945 79.413348)">Reflectance</text>
    </g>
   </g>
   <g id="line2d_59">
    <path d="M 36.319074 18.200077 
L 36.8324 19.796148 
L 37.199062 20.202362 
L 37.492391 20.370555 
L 38.005718 21.294365 
L 38.152383 21.624909 
L 38.225715 21.558001 
L 38.519045 21.291059 
L 39.032371 22.632826 
L 39.325701 22.972782 
L 39.692362 23.572953 
L 40.059024 23.730834 
L 40.425686 24.194938 
L 40.792348 24.263661 
L 41.232342 24.768405 
L 41.525671 25.157035 
L 41.819001 25.178482 
L 42.258995 25.817604 
L 42.625657 25.809251 
L 43.065651 26.19583 
L 43.65231 26.492072 
L 44.312301 27.191978 
L 44.605631 27.277446 
L 45.045625 27.232121 
L 45.265622 27.268824 
L 46.14561 27.705054 
L 46.658937 28.043894 
L 47.245596 28.459749 
L 48.712243 29.277666 
L 49.592231 30.20532 
L 49.885561 30.042677 
L 50.765549 30.954005 
L 51.058879 31.218332 
L 51.498873 31.897406 
L 52.525526 32.560346 
L 52.818855 32.339816 
L 53.25885 33.186266 
L 53.772176 33.274635 
L 53.992173 33.353004 
L 54.432167 33.756942 
L 55.312156 34.05853 
L 55.45882 34.05699 
L 55.898815 33.824846 
L 56.338809 33.753532 
L 56.485474 33.700873 
L 56.925468 34.262393 
L 57.732124 34.15713 
L 58.025453 34.228465 
L 58.465447 33.999426 
L 58.832109 33.943714 
L 59.198771 33.816173 
L 59.4921 33.753157 
L 59.932095 33.508357 
L 60.372089 33.635696 
L 60.518753 33.707471 
L 61.178745 32.604129 
L 61.325409 32.529673 
L 61.765404 32.524234 
L 62.718724 31.970348 
L 63.158719 31.228993 
L 63.598713 31.313404 
L 63.892042 31.166485 
L 64.405369 30.67121 
L 64.772031 30.587177 
L 64.992028 30.477687 
L 65.432022 29.971994 
L 65.872016 29.655607 
L 66.31201 29.365416 
L 66.532007 29.346893 
L 66.752004 29.375156 
L 67.191999 28.754917 
L 67.55866 28.753486 
L 68.805311 27.721953 
L 69.025308 27.71203 
L 69.758631 26.930127 
L 70.125293 26.560757 
L 70.491955 26.628146 
L 71.518608 25.899402 
L 71.958602 25.109727 
L 72.251932 25.046311 
L 72.618593 25.605527 
L 72.985255 25.052074 
L 73.351917 25.628874 
L 74.085241 24.373339 
L 74.598567 24.29506 
L 74.818564 24.165131 
L 75.185226 24.895747 
L 75.551888 23.517473 
L 75.62522 23.662122 
L 75.991882 24.612322 
L 76.578541 27.122013 
L 77.1652 28.801575 
L 77.751859 30.483422 
L 77.825191 30.33162 
L 78.191853 29.400458 
L 79.438503 24.360727 
L 79.805165 23.942903 
L 80.391824 23.327686 
L 80.90515 22.751954 
L 81.638474 22.408615 
L 81.785139 22.4568 
L 82.298465 21.528819 
L 82.665127 21.385959 
L 83.251786 21.339521 
L 83.69178 20.790033 
L 83.98511 20.909529 
L 84.498436 20.388028 
L 84.865098 20.237706 
L 85.378425 19.926589 
L 85.598422 19.951936 
L 86.111748 20.26832 
L 86.185081 20.32604 
L 86.918404 19.175233 
L 87.358398 19.381262 
L 87.72506 19.243031 
L 88.091722 19.341005 
L 88.531716 19.138549 
L 89.045043 19.221546 
L 89.338372 19.216888 
L 89.558369 19.096676 
L 89.925031 18.701601 
L 90.658355 18.721688 
L 91.171681 18.627977 
L 91.318346 18.561378 
L 91.685008 19.200695 
L 92.125002 18.343497 
L 92.491664 18.400026 
L 92.858326 18.65085 
L 93.224987 18.639793 
L 93.591649 18.810884 
L 94.324973 18.249309 
L 94.691635 18.396716 
L 95.058297 18.263558 
L 95.424958 18.493712 
L 95.79162 18.438038 
L 96.231614 18.785994 
L 96.524944 19.044223 
L 96.964938 18.948242 
L 97.258267 18.957734 
L 97.624929 18.768134 
L 97.991591 18.920109 
L 98.358253 18.638574 
L 98.724915 18.591496 
L 99.091577 18.29579 
L 99.604903 18.379121 
L 100.558224 18.383334 
L 101.291547 18.613018 
L 101.658209 18.220943 
L 102.024871 18.356923 
L 102.318201 18.779453 
L 102.391533 18.725113 
L 102.831527 18.494759 
L 103.491518 18.515519 
L 103.85818 18.605108 
L 104.224842 18.513314 
L 104.664836 18.679706 
L 105.691489 18.596966 
L 105.984819 18.253986 
L 106.424813 18.675223 
L 106.864807 18.498759 
L 107.231469 18.323533 
L 107.451466 18.306976 
L 107.818128 18.930964 
L 108.331454 18.27308 
L 108.551451 18.200077 
L 109.064778 18.901652 
L 109.43144 18.982919 
L 110.091431 18.980971 
L 110.824755 18.945093 
L 111.118084 18.200077 
L 111.631411 21.019152 
L 111.998072 21.700741 
L 112.21807 21.83961 
L 112.731396 24.346394 
L 114.051379 32.618643 
L 115.298029 29.62277 
L 115.811355 28.389354 
L 116.178017 27.652309 
L 116.471347 27.33398 
L 117.351335 26.498241 
L 117.791329 25.912322 
L 118.084659 25.940473 
L 118.597985 24.920269 
L 121.091285 22.290518 
L 121.677944 21.428823 
L 123.071259 20.028996 
L 123.511253 19.820838 
L 123.657918 19.665962 
L 124.02458 19.15597 
L 124.391242 19.134922 
L 124.684571 18.80439 
L 124.757904 18.877374 
L 125.051233 19.169262 
L 125.491227 18.758276 
L 125.931221 18.821623 
L 126.224551 18.646136 
L 126.591213 18.200077 
L 127.031207 18.302149 
L 127.544533 18.533828 
L 128.204525 18.602322 
L 128.497854 18.656008 
L 129.011181 18.816641 
L 129.817837 18.849133 
L 130.257831 18.293715 
L 131.137819 18.312579 
L 131.504481 18.207818 
L 131.724478 18.283902 
L 132.09114 18.608131 
L 132.531134 18.638019 
L 132.824464 18.88651 
L 133.851117 20.859181 
L 136.344417 31.966131 
L 136.564414 32.450533 
L 136.857744 32.73149 
L 137.151073 32.578595 
L 137.6644 30.676565 
L 138.251058 28.070003 
L 139.571041 25.272288 
L 140.084368 23.342247 
L 140.671026 20.974374 
L 141.69768 18.282159 
L 142.504336 18.320231 
L 142.797665 18.581295 
L 143.164327 19.195807 
L 143.750986 20.829184 
L 145.144301 25.406906 
L 145.510962 26.50016 
L 146.170954 27.962825 
L 146.464283 28.170035 
L 146.68428 28.201075 
L 147.564269 26.470852 
L 148.737586 24.343181 
L 148.957584 24.187643 
L 149.837572 23.023102 
L 150.057569 22.985259 
L 150.424231 23.108651 
L 150.937557 22.841276 
L 151.084222 22.817942 
L 152.25754 25.237583 
L 152.917531 26.123672 
L 153.577522 26.243997 
L 153.724187 26.200148 
L 154.530843 25.316237 
L 154.824173 24.743444 
L 155.484164 24.785941 
L 156.070823 23.925584 
L 156.510817 23.409472 
L 156.730814 23.279973 
L 157.317473 23.152569 
L 157.977464 21.78328 
L 158.490791 21.134451 
L 158.78412 21.31206 
L 159.297447 20.199215 
L 159.737441 19.722035 
L 159.957438 19.498404 
L 160.177435 19.299751 
L 160.250767 19.376595 
L 160.617429 19.035621 
L 160.837426 19.091865 
L 161.204088 18.784545 
L 161.57075 18.636353 
L 161.717415 18.571186 
L 161.937412 18.806012 
L 162.157409 18.419782 
L 162.230741 18.483486 
L 162.450738 18.847949 
L 162.670735 18.613314 
L 162.8174 18.817307 
L 162.964065 18.856973 
L 163.037397 18.942168 
L 163.184062 18.758142 
L 163.477391 19.1066 
L 163.550724 19.018447 
L 163.697389 18.792283 
L 163.844053 19.203774 
L 164.137383 19.102032 
L 164.35738 19.768272 
L 164.504045 18.731358 
L 164.577377 18.75515 
L 164.870706 19.597801 
L 165.090703 19.525694 
L 165.310701 19.322308 
L 165.457365 19.281971 
L 165.60403 19.305605 
L 165.897359 19.332495 
L 166.410686 18.63071 
L 166.484018 18.754725 
L 166.630683 18.992998 
L 166.85068 18.652845 
L 166.924012 18.725561 
L 167.437339 18.200077 
L 168.317327 18.246862 
L 168.757322 18.776473 
L 168.903986 18.99066 
L 169.710642 21.36334 
L 170.223969 26.132051 
L 171.030625 35.429595 
L 171.543951 46.693087 
L 172.497272 68.21269 
L 173.303928 88.709651 
L 174.477246 121.599048 
L 175.063905 130.135058 
L 175.577231 135.000448 
L 176.237223 139.481842 
L 176.530552 140.501113 
L 176.750549 140.618884 
L 177.117211 140.1398 
L 177.41054 139.299303 
L 177.70387 137.609309 
L 178.363861 131.556791 
L 179.977173 113.429728 
L 182.690471 81.158165 
L 183.423794 75.152254 
L 184.23045 71.037923 
L 184.743777 69.593484 
L 185.403768 68.238862 
L 186.577086 66.86054 
L 187.383742 66.019754 
L 188.483727 64.598837 
L 189.070386 63.635838 
L 190.170372 61.84741 
L 191.05036 60.058818 
L 191.417022 59.339886 
L 191.710351 58.814319 
L 191.930348 58.426555 
L 192.443675 57.440139 
L 193.030334 56.552191 
L 193.396996 55.958719 
L 193.616993 55.77558 
L 193.83699 55.529846 
L 194.350316 54.747588 
L 194.790311 54.30687 
L 195.230305 53.713891 
L 195.670299 53.134188 
L 195.963628 52.663015 
L 196.110293 52.446408 
L 196.403623 51.925164 
L 196.696952 51.647727 
L 197.796937 49.590642 
L 198.163599 48.931083 
L 198.82359 47.666596 
L 200.290238 44.47165 
L 201.536888 41.18832 
L 202.270212 39.148295 
L 203.663526 35.026336 
L 204.543515 32.18648 
L 205.056841 30.742375 
L 208.576795 18.200077 
L 208.576795 18.200077 
" clip-path="url(#pe19e6490ff)" style="fill: none; stroke: #1f77b4; stroke-width: 0.5; stroke-linecap: square"/>
   </g>
   <g id="line2d_60"/>
   <g id="patch_3">
    <path d="M 35.58575 146.747947 
L 35.58575 12.07875 
" style="fill: none; stroke: #000000; stroke-linejoin: miter; stroke-linecap: square"/>
   </g>
   <g id="patch_4">
    <path d="M 209.383451 146.747947 
L 209.383451 12.07875 
" style="fill: none; stroke: #000000; stroke-linejoin: miter; stroke-linecap: square"/>
   </g>
   <g id="patch_5">
    <path d="M 35.58575 146.747947 
L 209.383451 146.747947 
" style="fill: none; stroke: #000000; stroke-linejoin: miter; stroke-linecap: square"/>
   </g>
   <g id="patch_6">
    <path d="M 35.58575 12.07875 
L 209.383451 12.07875 
" style="fill: none; stroke: #000000; stroke-linejoin: miter; stroke-linecap: square"/>
   </g>
   <g id="text_13">
    <text style="font: 8px 'DejaVu Sans', 'Bitstream Vera Sans', 'Computer Modern Sans Serif', 'Lucida Grande', 'Verdana', 'Geneva', 'Lucid', 'Arial', 'Helvetica', 'Avant Garde', sans-serif; text-anchor: middle" x="122.4846" y="6.07875" transform="rotate(-0 122.4846 6.07875)">Laboratory Phyllosilicate Illite</text>
   </g>
   <g id="legend_1">
    <g id="patch_7">
     <path d="M 217.059405 84.716786 
L 271.311592 84.716786 
Q 272.511592 84.716786 272.511592 83.516786 
L 272.511592 75.309911 
Q 272.511592 74.109911 271.311592 74.109911 
L 217.059405 74.109911 
Q 215.859405 74.109911 215.859405 75.309911 
L 215.859405 83.516786 
Q 215.859405 84.716786 217.059405 84.716786 
z
" style="fill: #ffffff; opacity: 0.8; stroke: #cccccc; stroke-width: 0.8; stroke-linejoin: miter"/>
    </g>
    <g id="line2d_61">
     <path d="M 218.259405 78.968973 
L 224.259405 78.968973 
L 230.259405 78.968973 
" style="fill: none; stroke: #1f77b4; stroke-width: 1.2; stroke-linecap: square"/>
    </g>
    <g id="text_14">
     <text style="font: 6px 'DejaVu Sans', 'Bitstream Vera Sans', 'Computer Modern Sans Serif', 'Lucida Grande', 'Verdana', 'Geneva', 'Lucid', 'Arial', 'Helvetica', 'Avant Garde', sans-serif; text-anchor: start" x="235.059405" y="81.068973" transform="rotate(-0 235.059405 81.068973)">Illite LAIL02</text>
    </g>
   </g>
  </g>
 </g>
 <defs>
  <clipPath id="pe19e6490ff">
   <rect x="35.58575" y="12.07875" width="173.797701" height="134.669197"/>
  </clipPath>
 </defs>
</svg>
