<?xml version="1.0" encoding="utf-8" standalone="no"?>
<!DOCTYPE svg PUBLIC "-//W3C//DTD SVG 1.1//EN"
  "http://www.w3.org/Graphics/SVG/1.1/DTD/svg11.dtd">
<svg xmlns:xlink="http://www.w3.org/1999/xlink" width="272.651505pt" height="176.855697pt" viewBox="0 0 272.651505 176.855697" xmlns="http://www.w3.org/2000/svg" version="1.1">
 <metadata>
  <rdf:RDF xmlns:dc="http://purl.org/dc/elements/1.1/" xmlns:cc="http://creativecommons.org/ns#" xmlns:rdf="http://www.w3.org/1999/02/22-rdf-syntax-ns#">
   <cc:Work>
    <dc:type rdf:resource="http://purl.org/dc/dcmitype/StillImage"/>
    <dc:date>2025-02-12T17:07:53.936331</dc:date>
    <dc:format>image/svg+xml</dc:format>
    <dc:creator>
     <cc:Agent>
      <dc:title>Matplotlib v3.6.2, https://matplotlib.org/</dc:title>
     </cc:Agent>
    </dc:creator>
   </cc:Work>
  </rdf:RDF>
 </metadata>
 <defs>
  <style type="text/css">*{stroke-linejoin: round; stroke-linecap: butt}</style>
 </defs>
 <g id="figure_1">
  <g id="patch_1">
   <path d="M -0 176.855697 
L 272.651505 176.855697 
L 272.651505 0 
L -0 0 
z
" style="fill: #ffffff"/>
  </g>
  <g id="axes_1">
   <g id="patch_2">
    <path d="M 35.58575 146.747947 
L 210.613451 146.747947 
L 210.613451 12.07875 
L 35.58575 12.07875 
z
" style="fill: #ffffff"/>
   </g>
   <g id="matplotlib.axis_1">
    <g id="xtick_1">
     <g id="line2d_1">
      <path d="M 47.401966 146.747947 
L 47.401966 12.07875 
" clip-path="url(#pfea2f501b4)" style="fill: none; stroke: #b0b0b0; stroke-width: 0.6; stroke-linecap: square"/>
     </g>
     <g id="line2d_2">
      <defs>
       <path id="me71fde95de" d="M 0 0 
L 0 4.8 
" style="stroke: #000000"/>
      </defs>
      <g>
       <use xlink:href="#me71fde95de" x="47.401966" y="146.747947" style="stroke: #000000"/>
      </g>
     </g>
     <g id="text_1">
      <text style="font: 8.8px 'DejaVu Sans', 'Bitstream Vera Sans', 'Computer Modern Sans Serif', 'Lucida Grande', 'Verdana', 'Geneva', 'Lucid', 'Arial', 'Helvetica', 'Avant Garde', sans-serif; text-anchor: middle" x="47.401966" y="161.734572" transform="rotate(-0 47.401966 161.734572)">1000</text>
     </g>
    </g>
    <g id="xtick_2">
     <g id="line2d_3">
      <path d="M 84.327641 146.747947 
L 84.327641 12.07875 
" clip-path="url(#pfea2f501b4)" style="fill: none; stroke: #b0b0b0; stroke-width: 0.6; stroke-linecap: square"/>
     </g>
     <g id="line2d_4">
      <g>
       <use xlink:href="#me71fde95de" x="84.327641" y="146.747947" style="stroke: #000000"/>
      </g>
     </g>
     <g id="text_2">
      <text style="font: 8.8px 'DejaVu Sans', 'Bitstream Vera Sans', 'Computer Modern Sans Serif', 'Lucida Grande', 'Verdana', 'Geneva', 'Lucid', 'Arial', 'Helvetica', 'Avant Garde', sans-serif; text-anchor: middle" x="84.327641" y="161.734572" transform="rotate(-0 84.327641 161.734572)">1500</text>
     </g>
    </g>
    <g id="xtick_3">
     <g id="line2d_5">
      <path d="M 121.253317 146.747947 
L 121.253317 12.07875 
" clip-path="url(#pfea2f501b4)" style="fill: none; stroke: #b0b0b0; stroke-width: 0.6; stroke-linecap: square"/>
     </g>
     <g id="line2d_6">
      <g>
       <use xlink:href="#me71fde95de" x="121.253317" y="146.747947" style="stroke: #000000"/>
      </g>
     </g>
     <g id="text_3">
      <text style="font: 8.8px 'DejaVu Sans', 'Bitstream Vera Sans', 'Computer Modern Sans Serif', 'Lucida Grande', 'Verdana', 'Geneva', 'Lucid', 'Arial', 'Helvetica', 'Avant Garde', sans-serif; text-anchor: middle" x="121.253317" y="161.734572" transform="rotate(-0 121.253317 161.734572)">2000</text>
     </g>
    </g>
    <g id="xtick_4">
     <g id="line2d_7">
      <path d="M 158.178992 146.747947 
L 158.178992 12.07875 
" clip-path="url(#pfea2f501b4)" style="fill: none; stroke: #b0b0b0; stroke-width: 0.6; stroke-linecap: square"/>
     </g>
     <g id="line2d_8">
      <g>
       <use xlink:href="#me71fde95de" x="158.178992" y="146.747947" style="stroke: #000000"/>
      </g>
     </g>
     <g id="text_4">
      <text style="font: 8.8px 'DejaVu Sans', 'Bitstream Vera Sans', 'Computer Modern Sans Serif', 'Lucida Grande', 'Verdana', 'Geneva', 'Lucid', 'Arial', 'Helvetica', 'Avant Garde', sans-serif; text-anchor: middle" x="158.178992" y="161.734572" transform="rotate(-0 158.178992 161.734572)">2500</text>
     </g>
    </g>
    <g id="xtick_5">
     <g id="line2d_9">
      <path d="M 195.104667 146.747947 
L 195.104667 12.07875 
" clip-path="url(#pfea2f501b4)" style="fill: none; stroke: #b0b0b0; stroke-width: 0.6; stroke-linecap: square"/>
     </g>
     <g id="line2d_10">
      <g>
       <use xlink:href="#me71fde95de" x="195.104667" y="146.747947" style="stroke: #000000"/>
      </g>
     </g>
     <g id="text_5">
      <text style="font: 8.8px 'DejaVu Sans', 'Bitstream Vera Sans', 'Computer Modern Sans Serif', 'Lucida Grande', 'Verdana', 'Geneva', 'Lucid', 'Arial', 'Helvetica', 'Avant Garde', sans-serif; text-anchor: middle" x="195.104667" y="161.734572" transform="rotate(-0 195.104667 161.734572)">3000</text>
     </g>
    </g>
    <g id="xtick_6">
     <g id="line2d_11">
      <path d="M 40.016831 146.747947 
L 40.016831 12.07875 
" clip-path="url(#pfea2f501b4)" style="fill: none; stroke: #b0b0b0; stroke-width: 0.3; stroke-linecap: square"/>
     </g>
     <g id="line2d_12">
      <defs>
       <path id="m0a7fe8c670" d="M 0 0 
L 0 3.2 
" style="stroke: #000000; stroke-width: 0.8"/>
      </defs>
      <g>
       <use xlink:href="#m0a7fe8c670" x="40.016831" y="146.747947" style="stroke: #000000; stroke-width: 0.8"/>
      </g>
     </g>
    </g>
    <g id="xtick_7">
     <g id="line2d_13">
      <path d="M 54.787101 146.747947 
L 54.787101 12.07875 
" clip-path="url(#pfea2f501b4)" style="fill: none; stroke: #b0b0b0; stroke-width: 0.3; stroke-linecap: square"/>
     </g>
     <g id="line2d_14">
      <g>
       <use xlink:href="#m0a7fe8c670" x="54.787101" y="146.747947" style="stroke: #000000; stroke-width: 0.8"/>
      </g>
     </g>
    </g>
    <g id="xtick_8">
     <g id="line2d_15">
      <path d="M 62.172236 146.747947 
L 62.172236 12.07875 
" clip-path="url(#pfea2f501b4)" style="fill: none; stroke: #b0b0b0; stroke-width: 0.3; stroke-linecap: square"/>
     </g>
     <g id="line2d_16">
      <g>
       <use xlink:href="#m0a7fe8c670" x="62.172236" y="146.747947" style="stroke: #000000; stroke-width: 0.8"/>
      </g>
     </g>
    </g>
    <g id="xtick_9">
     <g id="line2d_17">
      <path d="M 69.557371 146.747947 
L 69.557371 12.07875 
" clip-path="url(#pfea2f501b4)" style="fill: none; stroke: #b0b0b0; stroke-width: 0.3; stroke-linecap: square"/>
     </g>
     <g id="line2d_18">
      <g>
       <use xlink:href="#m0a7fe8c670" x="69.557371" y="146.747947" style="stroke: #000000; stroke-width: 0.8"/>
      </g>
     </g>
    </g>
    <g id="xtick_10">
     <g id="line2d_19">
      <path d="M 76.942506 146.747947 
L 76.942506 12.07875 
" clip-path="url(#pfea2f501b4)" style="fill: none; stroke: #b0b0b0; stroke-width: 0.3; stroke-linecap: square"/>
     </g>
     <g id="line2d_20">
      <g>
       <use xlink:href="#m0a7fe8c670" x="76.942506" y="146.747947" style="stroke: #000000; stroke-width: 0.8"/>
      </g>
     </g>
    </g>
    <g id="xtick_11">
     <g id="line2d_21">
      <path d="M 91.712776 146.747947 
L 91.712776 12.07875 
" clip-path="url(#pfea2f501b4)" style="fill: none; stroke: #b0b0b0; stroke-width: 0.3; stroke-linecap: square"/>
     </g>
     <g id="line2d_22">
      <g>
       <use xlink:href="#m0a7fe8c670" x="91.712776" y="146.747947" style="stroke: #000000; stroke-width: 0.8"/>
      </g>
     </g>
    </g>
    <g id="xtick_12">
     <g id="line2d_23">
      <path d="M 99.097911 146.747947 
L 99.097911 12.07875 
" clip-path="url(#pfea2f501b4)" style="fill: none; stroke: #b0b0b0; stroke-width: 0.3; stroke-linecap: square"/>
     </g>
     <g id="line2d_24">
      <g>
       <use xlink:href="#m0a7fe8c670" x="99.097911" y="146.747947" style="stroke: #000000; stroke-width: 0.8"/>
      </g>
     </g>
    </g>
    <g id="xtick_13">
     <g id="line2d_25">
      <path d="M 106.483047 146.747947 
L 106.483047 12.07875 
" clip-path="url(#pfea2f501b4)" style="fill: none; stroke: #b0b0b0; stroke-width: 0.3; stroke-linecap: square"/>
     </g>
     <g id="line2d_26">
      <g>
       <use xlink:href="#m0a7fe8c670" x="106.483047" y="146.747947" style="stroke: #000000; stroke-width: 0.8"/>
      </g>
     </g>
    </g>
    <g id="xtick_14">
     <g id="line2d_27">
      <path d="M 113.868182 146.747947 
L 113.868182 12.07875 
" clip-path="url(#pfea2f501b4)" style="fill: none; stroke: #b0b0b0; stroke-width: 0.3; stroke-linecap: square"/>
     </g>
     <g id="line2d_28">
      <g>
       <use xlink:href="#m0a7fe8c670" x="113.868182" y="146.747947" style="stroke: #000000; stroke-width: 0.8"/>
      </g>
     </g>
    </g>
    <g id="xtick_15">
     <g id="line2d_29">
      <path d="M 128.638452 146.747947 
L 128.638452 12.07875 
" clip-path="url(#pfea2f501b4)" style="fill: none; stroke: #b0b0b0; stroke-width: 0.3; stroke-linecap: square"/>
     </g>
     <g id="line2d_30">
      <g>
       <use xlink:href="#m0a7fe8c670" x="128.638452" y="146.747947" style="stroke: #000000; stroke-width: 0.8"/>
      </g>
     </g>
    </g>
    <g id="xtick_16">
     <g id="line2d_31">
      <path d="M 136.023587 146.747947 
L 136.023587 12.07875 
" clip-path="url(#pfea2f501b4)" style="fill: none; stroke: #b0b0b0; stroke-width: 0.3; stroke-linecap: square"/>
     </g>
     <g id="line2d_32">
      <g>
       <use xlink:href="#m0a7fe8c670" x="136.023587" y="146.747947" style="stroke: #000000; stroke-width: 0.8"/>
      </g>
     </g>
    </g>
    <g id="xtick_17">
     <g id="line2d_33">
      <path d="M 143.408722 146.747947 
L 143.408722 12.07875 
" clip-path="url(#pfea2f501b4)" style="fill: none; stroke: #b0b0b0; stroke-width: 0.3; stroke-linecap: square"/>
     </g>
     <g id="line2d_34">
      <g>
       <use xlink:href="#m0a7fe8c670" x="143.408722" y="146.747947" style="stroke: #000000; stroke-width: 0.8"/>
      </g>
     </g>
    </g>
    <g id="xtick_18">
     <g id="line2d_35">
      <path d="M 150.793857 146.747947 
L 150.793857 12.07875 
" clip-path="url(#pfea2f501b4)" style="fill: none; stroke: #b0b0b0; stroke-width: 0.3; stroke-linecap: square"/>
     </g>
     <g id="line2d_36">
      <g>
       <use xlink:href="#m0a7fe8c670" x="150.793857" y="146.747947" style="stroke: #000000; stroke-width: 0.8"/>
      </g>
     </g>
    </g>
    <g id="xtick_19">
     <g id="line2d_37">
      <path d="M 165.564127 146.747947 
L 165.564127 12.07875 
" clip-path="url(#pfea2f501b4)" style="fill: none; stroke: #b0b0b0; stroke-width: 0.3; stroke-linecap: square"/>
     </g>
     <g id="line2d_38">
      <g>
       <use xlink:href="#m0a7fe8c670" x="165.564127" y="146.747947" style="stroke: #000000; stroke-width: 0.8"/>
      </g>
     </g>
    </g>
    <g id="xtick_20">
     <g id="line2d_39">
      <path d="M 172.949262 146.747947 
L 172.949262 12.07875 
" clip-path="url(#pfea2f501b4)" style="fill: none; stroke: #b0b0b0; stroke-width: 0.3; stroke-linecap: square"/>
     </g>
     <g id="line2d_40">
      <g>
       <use xlink:href="#m0a7fe8c670" x="172.949262" y="146.747947" style="stroke: #000000; stroke-width: 0.8"/>
      </g>
     </g>
    </g>
    <g id="xtick_21">
     <g id="line2d_41">
      <path d="M 180.334397 146.747947 
L 180.334397 12.07875 
" clip-path="url(#pfea2f501b4)" style="fill: none; stroke: #b0b0b0; stroke-width: 0.3; stroke-linecap: square"/>
     </g>
     <g id="line2d_42">
      <g>
       <use xlink:href="#m0a7fe8c670" x="180.334397" y="146.747947" style="stroke: #000000; stroke-width: 0.8"/>
      </g>
     </g>
    </g>
    <g id="xtick_22">
     <g id="line2d_43">
      <path d="M 187.719532 146.747947 
L 187.719532 12.07875 
" clip-path="url(#pfea2f501b4)" style="fill: none; stroke: #b0b0b0; stroke-width: 0.3; stroke-linecap: square"/>
     </g>
     <g id="line2d_44">
      <g>
       <use xlink:href="#m0a7fe8c670" x="187.719532" y="146.747947" style="stroke: #000000; stroke-width: 0.8"/>
      </g>
     </g>
    </g>
    <g id="xtick_23">
     <g id="line2d_45">
      <path d="M 202.489802 146.747947 
L 202.489802 12.07875 
" clip-path="url(#pfea2f501b4)" style="fill: none; stroke: #b0b0b0; stroke-width: 0.3; stroke-linecap: square"/>
     </g>
     <g id="line2d_46">
      <g>
       <use xlink:href="#m0a7fe8c670" x="202.489802" y="146.747947" style="stroke: #000000; stroke-width: 0.8"/>
      </g>
     </g>
    </g>
    <g id="xtick_24">
     <g id="line2d_47">
      <path d="M 209.874937 146.747947 
L 209.874937 12.07875 
" clip-path="url(#pfea2f501b4)" style="fill: none; stroke: #b0b0b0; stroke-width: 0.3; stroke-linecap: square"/>
     </g>
     <g id="line2d_48">
      <g>
       <use xlink:href="#m0a7fe8c670" x="209.874937" y="146.747947" style="stroke: #000000; stroke-width: 0.8"/>
      </g>
     </g>
    </g>
    <g id="text_6">
     <text style="font: 9.6px 'DejaVu Sans', 'Bitstream Vera Sans', 'Computer Modern Sans Serif', 'Lucida Grande', 'Verdana', 'Geneva', 'Lucid', 'Arial', 'Helvetica', 'Avant Garde', sans-serif; text-anchor: middle" x="123.0996" y="174.859197" transform="rotate(-0 123.0996 174.859197)">Wavelength (nm)</text>
    </g>
   </g>
   <g id="matplotlib.axis_2">
    <g id="ytick_1">
     <g id="line2d_49">
      <path d="M 35.58575 136.884548 
L 210.613451 136.884548 
" clip-path="url(#pfea2f501b4)" style="fill: none; stroke: #b0b0b0; stroke-width: 0.6; stroke-linecap: square"/>
     </g>
     <g id="line2d_50">
      <defs>
       <path id="m37ef30631d" d="M 0 0 
L -4.8 0 
" style="stroke: #000000"/>
      </defs>
      <g>
       <use xlink:href="#m37ef30631d" x="35.58575" y="136.884548" style="stroke: #000000"/>
      </g>
     </g>
     <g id="text_7">
      <text style="font: 8.8px 'DejaVu Sans', 'Bitstream Vera Sans', 'Computer Modern Sans Serif', 'Lucida Grande', 'Verdana', 'Geneva', 'Lucid', 'Arial', 'Helvetica', 'Avant Garde', sans-serif; text-anchor: end" x="27.28575" y="140.227861" transform="rotate(-0 27.28575 140.227861)">0.2</text>
     </g>
    </g>
    <g id="ytick_2">
     <g id="line2d_51">
      <path d="M 35.58575 107.21343 
L 210.613451 107.21343 
" clip-path="url(#pfea2f501b4)" style="fill: none; stroke: #b0b0b0; stroke-width: 0.6; stroke-linecap: square"/>
     </g>
     <g id="line2d_52">
      <g>
       <use xlink:href="#m37ef30631d" x="35.58575" y="107.21343" style="stroke: #000000"/>
      </g>
     </g>
     <g id="text_8">
      <text style="font: 8.8px 'DejaVu Sans', 'Bitstream Vera Sans', 'Computer Modern Sans Serif', 'Lucida Grande', 'Verdana', 'Geneva', 'Lucid', 'Arial', 'Helvetica', 'Avant Garde', sans-serif; text-anchor: end" x="27.28575" y="110.556743" transform="rotate(-0 27.28575 110.556743)">0.4</text>
     </g>
    </g>
    <g id="ytick_3">
     <g id="line2d_53">
      <path d="M 35.58575 77.542313 
L 210.613451 77.542313 
" clip-path="url(#pfea2f501b4)" style="fill: none; stroke: #b0b0b0; stroke-width: 0.6; stroke-linecap: square"/>
     </g>
     <g id="line2d_54">
      <g>
       <use xlink:href="#m37ef30631d" x="35.58575" y="77.542313" style="stroke: #000000"/>
      </g>
     </g>
     <g id="text_9">
      <text style="font: 8.8px 'DejaVu Sans', 'Bitstream Vera Sans', 'Computer Modern Sans Serif', 'Lucida Grande', 'Verdana', 'Geneva', 'Lucid', 'Arial', 'Helvetica', 'Avant Garde', sans-serif; text-anchor: end" x="27.28575" y="80.885625" transform="rotate(-0 27.28575 80.885625)">0.6</text>
     </g>
    </g>
    <g id="ytick_4">
     <g id="line2d_55">
      <path d="M 35.58575 47.871195 
L 210.613451 47.871195 
" clip-path="url(#pfea2f501b4)" style="fill: none; stroke: #b0b0b0; stroke-width: 0.6; stroke-linecap: square"/>
     </g>
     <g id="line2d_56">
      <g>
       <use xlink:href="#m37ef30631d" x="35.58575" y="47.871195" style="stroke: #000000"/>
      </g>
     </g>
     <g id="text_10">
      <text style="font: 8.8px 'DejaVu Sans', 'Bitstream Vera Sans', 'Computer Modern Sans Serif', 'Lucida Grande', 'Verdana', 'Geneva', 'Lucid', 'Arial', 'Helvetica', 'Avant Garde', sans-serif; text-anchor: end" x="27.28575" y="51.214507" transform="rotate(-0 27.28575 51.214507)">0.8</text>
     </g>
    </g>
    <g id="ytick_5">
     <g id="line2d_57">
      <path d="M 35.58575 18.200077 
L 210.613451 18.200077 
" clip-path="url(#pfea2f501b4)" style="fill: none; stroke: #b0b0b0; stroke-width: 0.6; stroke-linecap: square"/>
     </g>
     <g id="line2d_58">
      <g>
       <use xlink:href="#m37ef30631d" x="35.58575" y="18.200077" style="stroke: #000000"/>
      </g>
     </g>
     <g id="text_11">
      <text style="font: 8.8px 'DejaVu Sans', 'Bitstream Vera Sans', 'Computer Modern Sans Serif', 'Lucida Grande', 'Verdana', 'Geneva', 'Lucid', 'Arial', 'Helvetica', 'Avant Garde', sans-serif; text-anchor: end" x="27.28575" y="21.54339" transform="rotate(-0 27.28575 21.54339)">1.0</text>
     </g>
    </g>
    <g id="text_12">
     <text style="font: 9.6px 'DejaVu Sans', 'Bitstream Vera Sans', 'Computer Modern Sans Serif', 'Lucida Grande', 'Verdana', 'Geneva', 'Lucid', 'Arial', 'Helvetica', 'Avant Garde', sans-serif; text-anchor: middle" x="7.2945" y="79.413348" transform="rotate(-90 7.2945 79.413348)">Reflectance</text>
    </g>
   </g>
   <g id="line2d_59">
    <path d="M 36.324264 18.200077 
L 37.432034 18.399719 
L 37.948993 18.539252 
L 38.761358 19.206014 
L 39.647574 20.077142 
L 39.721426 19.993159 
L 40.386088 19.32351 
L 41.346155 19.432839 
L 41.936966 19.536743 
L 42.306223 19.463779 
L 42.67548 19.810453 
L 42.970885 20.452343 
L 43.709399 26.761565 
L 44.226358 21.879249 
L 44.595615 20.496908 
L 44.964872 20.165534 
L 45.186426 20.105207 
L 45.99879 21.017605 
L 46.737304 20.966302 
L 47.401966 21.450688 
L 48.214331 21.232626 
L 49.026696 21.856319 
L 49.543655 21.843849 
L 49.986763 21.820455 
L 50.799128 21.237582 
L 51.168385 21.461378 
L 51.46379 21.853151 
L 51.537642 21.794008 
L 51.98075 21.57128 
L 52.350007 21.517561 
L 53.310074 21.107576 
L 53.827034 21.2531 
L 54.122439 21.093379 
L 54.491696 20.72398 
L 54.860952 20.725535 
L 55.451763 20.403327 
L 55.747169 20.220543 
L 56.042574 20.105645 
L 56.559534 19.970848 
L 57.815007 19.561453 
L 58.479669 19.331294 
L 58.996628 19.231412 
L 59.292034 19.237254 
L 59.956696 18.884486 
L 60.473655 18.899817 
L 60.769061 18.691603 
L 61.138317 18.217952 
L 61.950682 18.277377 
L 62.763047 18.584813 
L 62.984601 18.561045 
L 63.353858 18.312826 
L 64.166223 18.530875 
L 64.461628 18.720276 
L 65.200142 18.354416 
L 65.790952 18.228315 
L 66.012506 18.256851 
L 66.75102 18.603543 
L 67.046425 19.228884 
L 67.784939 21.794346 
L 68.080344 22.089828 
L 68.523452 19.333184 
L 68.818858 19.124323 
L 69.335817 20.046447 
L 69.557371 20.228397 
L 70.148182 19.018957 
L 70.295885 18.813737 
L 70.812844 19.423595 
L 71.403655 19.603708 
L 71.920614 19.076711 
L 72.289871 19.107308 
L 73.32379 19.428016 
L 73.619196 19.419819 
L 74.43156 20.483739 
L 74.726966 20.636849 
L 75.096223 21.893044 
L 75.465479 25.811545 
L 75.908587 52.743913 
L 76.277844 84.956443 
L 76.57325 89.467618 
L 77.090209 41.231953 
L 77.385614 30.864401 
L 77.754871 28.638036 
L 78.124128 28.203009 
L 78.419533 28.306167 
L 79.379601 26.959008 
L 79.89656 26.408999 
L 80.708925 24.233588 
L 81.373587 23.487031 
L 81.816695 23.477443 
L 82.407506 22.854051 
L 82.702912 22.491238 
L 83.662979 21.359901 
L 84.106087 21.264994 
L 84.549195 21.076074 
L 86.026222 20.891884 
L 86.321628 21.23982 
L 87.060141 22.253396 
L 87.281695 22.291884 
L 88.09406 20.658755 
L 88.61102 20.27072 
L 89.20183 20.155557 
L 89.71879 20.088297 
L 90.457303 19.90288 
L 90.82656 19.959482 
L 91.34352 20.024011 
L 92.008182 19.76735 
L 92.377439 19.675442 
L 92.894398 19.689956 
L 93.485209 19.680914 
L 93.854466 19.706281 
L 94.814533 19.735418 
L 95.405344 19.694475 
L 95.848452 19.714434 
L 96.29156 19.496349 
L 96.734668 19.654871 
L 97.768587 20.127118 
L 97.990141 20.13871 
L 99.097911 18.200077 
L 99.245614 18.323325 
L 99.910276 19.016206 
L 100.353384 19.511567 
L 100.944195 19.665754 
L 101.387303 19.580823 
L 101.830411 18.812033 
L 102.051965 18.283624 
L 102.125817 18.36236 
L 102.568925 18.690281 
L 102.86433 18.607794 
L 103.233587 18.215889 
L 103.750547 18.424588 
L 105.00602 19.232392 
L 105.522979 18.340203 
L 105.744533 18.200077 
L 106.704601 19.152801 
L 107.369263 19.577572 
L 107.664668 19.823074 
L 108.32933 20.880758 
L 109.141695 19.542284 
L 109.95406 19.61364 
L 110.618722 19.361084 
L 111.357236 19.815606 
L 112.095749 21.117034 
L 112.834263 24.243304 
L 113.79433 32.197257 
L 114.237438 34.984388 
L 114.31129 34.921646 
L 114.975952 34.354995 
L 115.862168 30.737813 
L 117.191492 28.448136 
L 118.077709 27.267305 
L 118.742371 25.990494 
L 119.480884 25.857634 
L 120.219398 25.290116 
L 120.957911 25.736227 
L 121.696425 26.917 
L 122.361087 26.627852 
L 123.321154 20.430433 
L 123.838114 18.200077 
L 123.911965 18.31643 
L 124.798181 19.509841 
L 125.315141 19.840082 
L 126.053654 22.475455 
L 126.792168 35.507852 
L 126.866019 35.273318 
L 127.604533 32.652221 
L 128.5646 26.784922 
L 129.007708 24.747775 
L 129.820073 27.378882 
L 130.632438 31.91313 
L 131.223249 33.288022 
L 132.404871 24.771258 
L 132.700276 23.014689 
L 132.774127 23.174483 
L 133.512641 24.954332 
L 134.177303 27.975713 
L 135.063519 20.855913 
L 135.875884 18.932945 
L 136.392843 18.200077 
L 136.466695 18.287174 
L 137.131357 19.080596 
L 138.091425 34.014944 
L 138.608384 38.701149 
L 139.346898 27.511959 
L 140.159262 37.023351 
L 140.971627 55.167328 
L 141.710141 81.666231 
L 142.448654 113.623794 
L 143.630276 129.576955 
L 144.516492 140.62662 
L 145.402708 95.471202 
L 146.141222 51.450856 
L 146.732033 41.405143 
L 147.618249 54.682741 
L 148.20906 58.447452 
L 149.169127 90.793227 
L 149.686087 101.673885 
L 149.759938 100.815366 
L 150.203046 94.380466 
L 151.089262 74.546302 
L 152.123181 49.590802 
L 152.270884 47.490003 
L 152.344735 47.923803 
L 153.969465 57.023677 
L 155.594195 61.450267 
L 156.185005 56.284281 
L 158.105141 37.147446 
L 158.474397 35.983036 
L 160.099127 31.120048 
L 160.689938 28.343661 
L 162.46237 18.200077 
L 162.46237 18.200077 
" clip-path="url(#pfea2f501b4)" style="fill: none; stroke: #1f77b4; stroke-width: 0.5; stroke-linecap: square"/>
   </g>
   <g id="line2d_60"/>
   <g id="patch_3">
    <path d="M 35.58575 146.747947 
L 35.58575 12.07875 
" style="fill: none; stroke: #000000; stroke-linejoin: miter; stroke-linecap: square"/>
   </g>
   <g id="patch_4">
    <path d="M 210.613451 146.747947 
L 210.613451 12.07875 
" style="fill: none; stroke: #000000; stroke-linejoin: miter; stroke-linecap: square"/>
   </g>
   <g id="patch_5">
    <path d="M 35.58575 146.747947 
L 210.613451 146.747947 
" style="fill: none; stroke: #000000; stroke-linejoin: miter; stroke-linecap: square"/>
   </g>
   <g id="patch_6">
    <path d="M 35.58575 12.07875 
L 210.613451 12.07875 
" style="fill: none; stroke: #000000; stroke-linejoin: miter; stroke-linecap: square"/>
   </g>
   <g id="text_13">
    <text style="font: 8px 'DejaVu Sans', 'Bitstream Vera Sans', 'Computer Modern Sans Serif', 'Lucida Grande', 'Verdana', 'Geneva', 'Lucid', 'Arial', 'Helvetica', 'Avant Garde', sans-serif; text-anchor: middle" x="123.0996" y="6.07875" transform="rotate(-0 123.0996 6.07875)">Laboratory Phyllosilicate Talc</text>
   </g>
   <g id="legend_1">
    <g id="patch_7">
     <path d="M 218.314005 84.716786 
L 271.451505 84.716786 
Q 272.651505 84.716786 272.651505 83.516786 
L 272.651505 75.309911 
Q 272.651505 74.109911 271.451505 74.109911 
L 218.314005 74.109911 
Q 217.114005 74.109911 217.114005 75.309911 
L 217.114005 83.516786 
Q 217.114005 84.716786 218.314005 84.716786 
z
" style="fill: #ffffff; opacity: 0.8; stroke: #cccccc; stroke-width: 0.8; stroke-linejoin: miter"/>
    </g>
    <g id="line2d_61">
     <path d="M 219.514005 78.968973 
L 225.514005 78.968973 
L 231.514005 78.968973 
" style="fill: none; stroke: #1f77b4; stroke-width: 1.2; stroke-linecap: square"/>
    </g>
    <g id="text_14">
     <text style="font: 6px 'DejaVu Sans', 'Bitstream Vera Sans', 'Computer Modern Sans Serif', 'Lucida Grande', 'Verdana', 'Geneva', 'Lucid', 'Arial', 'Helvetica', 'Avant Garde', sans-serif; text-anchor: start" x="236.314005" y="81.068973" transform="rotate(-0 236.314005 81.068973)">Talc GDS23</text>
    </g>
   </g>
  </g>
 </g>
 <defs>
  <clipPath id="pfea2f501b4">
   <rect x="35.58575" y="12.07875" width="175.027701" height="134.669197"/>
  </clipPath>
 </defs>
</svg>
