<?xml version="1.0" encoding="utf-8" standalone="no"?>
<!DOCTYPE svg PUBLIC "-//W3C//DTD SVG 1.1//EN"
  "http://www.w3.org/Graphics/SVG/1.1/DTD/svg11.dtd">
<svg xmlns:xlink="http://www.w3.org/1999/xlink" width="272.263642pt" height="176.855697pt" viewBox="0 0 272.263642 176.855697" xmlns="http://www.w3.org/2000/svg" version="1.1">
 <metadata>
  <rdf:RDF xmlns:dc="http://purl.org/dc/elements/1.1/" xmlns:cc="http://creativecommons.org/ns#" xmlns:rdf="http://www.w3.org/1999/02/22-rdf-syntax-ns#">
   <cc:Work>
    <dc:type rdf:resource="http://purl.org/dc/dcmitype/StillImage"/>
    <dc:date>2025-02-12T17:07:53.258336</dc:date>
    <dc:format>image/svg+xml</dc:format>
    <dc:creator>
     <cc:Agent>
      <dc:title>Matplotlib v3.6.2, https://matplotlib.org/</dc:title>
     </cc:Agent>
    </dc:creator>
   </cc:Work>
  </rdf:RDF>
 </metadata>
 <defs>
  <style type="text/css">*{stroke-linejoin: round; stroke-linecap: butt}</style>
 </defs>
 <g id="figure_1">
  <g id="patch_1">
   <path d="M -0 176.855697 
L 272.263642 176.855697 
L 272.263642 0 
L -0 0 
z
" style="fill: #ffffff"/>
  </g>
  <g id="axes_1">
   <g id="patch_2">
    <path d="M 35.58575 146.747947 
L 193.423451 146.747947 
L 193.423451 12.07875 
L 35.58575 12.07875 
z
" style="fill: #ffffff"/>
   </g>
   <g id="matplotlib.axis_1">
    <g id="xtick_1">
     <g id="line2d_1">
      <path d="M 46.24146 146.747947 
L 46.24146 12.07875 
" clip-path="url(#p4854893a81)" style="fill: none; stroke: #b0b0b0; stroke-width: 0.6; stroke-linecap: square"/>
     </g>
     <g id="line2d_2">
      <defs>
       <path id="mc00d17b8ed" d="M 0 0 
L 0 4.8 
" style="stroke: #000000"/>
      </defs>
      <g>
       <use xlink:href="#mc00d17b8ed" x="46.24146" y="146.747947" style="stroke: #000000"/>
      </g>
     </g>
     <g id="text_1">
      <text style="font: 8.8px 'DejaVu Sans', 'Bitstream Vera Sans', 'Computer Modern Sans Serif', 'Lucida Grande', 'Verdana', 'Geneva', 'Lucid', 'Arial', 'Helvetica', 'Avant Garde', sans-serif; text-anchor: middle" x="46.24146" y="161.734572" transform="rotate(-0 46.24146 161.734572)">1000</text>
     </g>
    </g>
    <g id="xtick_2">
     <g id="line2d_3">
      <path d="M 79.540553 146.747947 
L 79.540553 12.07875 
" clip-path="url(#p4854893a81)" style="fill: none; stroke: #b0b0b0; stroke-width: 0.6; stroke-linecap: square"/>
     </g>
     <g id="line2d_4">
      <g>
       <use xlink:href="#mc00d17b8ed" x="79.540553" y="146.747947" style="stroke: #000000"/>
      </g>
     </g>
     <g id="text_2">
      <text style="font: 8.8px 'DejaVu Sans', 'Bitstream Vera Sans', 'Computer Modern Sans Serif', 'Lucida Grande', 'Verdana', 'Geneva', 'Lucid', 'Arial', 'Helvetica', 'Avant Garde', sans-serif; text-anchor: middle" x="79.540553" y="161.734572" transform="rotate(-0 79.540553 161.734572)">1500</text>
     </g>
    </g>
    <g id="xtick_3">
     <g id="line2d_5">
      <path d="M 112.839646 146.747947 
L 112.839646 12.07875 
" clip-path="url(#p4854893a81)" style="fill: none; stroke: #b0b0b0; stroke-width: 0.6; stroke-linecap: square"/>
     </g>
     <g id="line2d_6">
      <g>
       <use xlink:href="#mc00d17b8ed" x="112.839646" y="146.747947" style="stroke: #000000"/>
      </g>
     </g>
     <g id="text_3">
      <text style="font: 8.8px 'DejaVu Sans', 'Bitstream Vera Sans', 'Computer Modern Sans Serif', 'Lucida Grande', 'Verdana', 'Geneva', 'Lucid', 'Arial', 'Helvetica', 'Avant Garde', sans-serif; text-anchor: middle" x="112.839646" y="161.734572" transform="rotate(-0 112.839646 161.734572)">2000</text>
     </g>
    </g>
    <g id="xtick_4">
     <g id="line2d_7">
      <path d="M 146.138739 146.747947 
L 146.138739 12.07875 
" clip-path="url(#p4854893a81)" style="fill: none; stroke: #b0b0b0; stroke-width: 0.6; stroke-linecap: square"/>
     </g>
     <g id="line2d_8">
      <g>
       <use xlink:href="#mc00d17b8ed" x="146.138739" y="146.747947" style="stroke: #000000"/>
      </g>
     </g>
     <g id="text_4">
      <text style="font: 8.8px 'DejaVu Sans', 'Bitstream Vera Sans', 'Computer Modern Sans Serif', 'Lucida Grande', 'Verdana', 'Geneva', 'Lucid', 'Arial', 'Helvetica', 'Avant Garde', sans-serif; text-anchor: middle" x="146.138739" y="161.734572" transform="rotate(-0 146.138739 161.734572)">2500</text>
     </g>
    </g>
    <g id="xtick_5">
     <g id="line2d_9">
      <path d="M 179.437832 146.747947 
L 179.437832 12.07875 
" clip-path="url(#p4854893a81)" style="fill: none; stroke: #b0b0b0; stroke-width: 0.6; stroke-linecap: square"/>
     </g>
     <g id="line2d_10">
      <g>
       <use xlink:href="#mc00d17b8ed" x="179.437832" y="146.747947" style="stroke: #000000"/>
      </g>
     </g>
     <g id="text_5">
      <text style="font: 8.8px 'DejaVu Sans', 'Bitstream Vera Sans', 'Computer Modern Sans Serif', 'Lucida Grande', 'Verdana', 'Geneva', 'Lucid', 'Arial', 'Helvetica', 'Avant Garde', sans-serif; text-anchor: middle" x="179.437832" y="161.734572" transform="rotate(-0 179.437832 161.734572)">3000</text>
     </g>
    </g>
    <g id="xtick_6">
     <g id="line2d_11">
      <path d="M 39.581641 146.747947 
L 39.581641 12.07875 
" clip-path="url(#p4854893a81)" style="fill: none; stroke: #b0b0b0; stroke-width: 0.3; stroke-linecap: square"/>
     </g>
     <g id="line2d_12">
      <defs>
       <path id="m7dd9cafe6a" d="M 0 0 
L 0 3.2 
" style="stroke: #000000; stroke-width: 0.8"/>
      </defs>
      <g>
       <use xlink:href="#m7dd9cafe6a" x="39.581641" y="146.747947" style="stroke: #000000; stroke-width: 0.8"/>
      </g>
     </g>
    </g>
    <g id="xtick_7">
     <g id="line2d_13">
      <path d="M 52.901278 146.747947 
L 52.901278 12.07875 
" clip-path="url(#p4854893a81)" style="fill: none; stroke: #b0b0b0; stroke-width: 0.3; stroke-linecap: square"/>
     </g>
     <g id="line2d_14">
      <g>
       <use xlink:href="#m7dd9cafe6a" x="52.901278" y="146.747947" style="stroke: #000000; stroke-width: 0.8"/>
      </g>
     </g>
    </g>
    <g id="xtick_8">
     <g id="line2d_15">
      <path d="M 59.561097 146.747947 
L 59.561097 12.07875 
" clip-path="url(#p4854893a81)" style="fill: none; stroke: #b0b0b0; stroke-width: 0.3; stroke-linecap: square"/>
     </g>
     <g id="line2d_16">
      <g>
       <use xlink:href="#m7dd9cafe6a" x="59.561097" y="146.747947" style="stroke: #000000; stroke-width: 0.8"/>
      </g>
     </g>
    </g>
    <g id="xtick_9">
     <g id="line2d_17">
      <path d="M 66.220916 146.747947 
L 66.220916 12.07875 
" clip-path="url(#p4854893a81)" style="fill: none; stroke: #b0b0b0; stroke-width: 0.3; stroke-linecap: square"/>
     </g>
     <g id="line2d_18">
      <g>
       <use xlink:href="#m7dd9cafe6a" x="66.220916" y="146.747947" style="stroke: #000000; stroke-width: 0.8"/>
      </g>
     </g>
    </g>
    <g id="xtick_10">
     <g id="line2d_19">
      <path d="M 72.880734 146.747947 
L 72.880734 12.07875 
" clip-path="url(#p4854893a81)" style="fill: none; stroke: #b0b0b0; stroke-width: 0.3; stroke-linecap: square"/>
     </g>
     <g id="line2d_20">
      <g>
       <use xlink:href="#m7dd9cafe6a" x="72.880734" y="146.747947" style="stroke: #000000; stroke-width: 0.8"/>
      </g>
     </g>
    </g>
    <g id="xtick_11">
     <g id="line2d_21">
      <path d="M 86.200371 146.747947 
L 86.200371 12.07875 
" clip-path="url(#p4854893a81)" style="fill: none; stroke: #b0b0b0; stroke-width: 0.3; stroke-linecap: square"/>
     </g>
     <g id="line2d_22">
      <g>
       <use xlink:href="#m7dd9cafe6a" x="86.200371" y="146.747947" style="stroke: #000000; stroke-width: 0.8"/>
      </g>
     </g>
    </g>
    <g id="xtick_12">
     <g id="line2d_23">
      <path d="M 92.86019 146.747947 
L 92.86019 12.07875 
" clip-path="url(#p4854893a81)" style="fill: none; stroke: #b0b0b0; stroke-width: 0.3; stroke-linecap: square"/>
     </g>
     <g id="line2d_24">
      <g>
       <use xlink:href="#m7dd9cafe6a" x="92.86019" y="146.747947" style="stroke: #000000; stroke-width: 0.8"/>
      </g>
     </g>
    </g>
    <g id="xtick_13">
     <g id="line2d_25">
      <path d="M 99.520009 146.747947 
L 99.520009 12.07875 
" clip-path="url(#p4854893a81)" style="fill: none; stroke: #b0b0b0; stroke-width: 0.3; stroke-linecap: square"/>
     </g>
     <g id="line2d_26">
      <g>
       <use xlink:href="#m7dd9cafe6a" x="99.520009" y="146.747947" style="stroke: #000000; stroke-width: 0.8"/>
      </g>
     </g>
    </g>
    <g id="xtick_14">
     <g id="line2d_27">
      <path d="M 106.179827 146.747947 
L 106.179827 12.07875 
" clip-path="url(#p4854893a81)" style="fill: none; stroke: #b0b0b0; stroke-width: 0.3; stroke-linecap: square"/>
     </g>
     <g id="line2d_28">
      <g>
       <use xlink:href="#m7dd9cafe6a" x="106.179827" y="146.747947" style="stroke: #000000; stroke-width: 0.8"/>
      </g>
     </g>
    </g>
    <g id="xtick_15">
     <g id="line2d_29">
      <path d="M 119.499464 146.747947 
L 119.499464 12.07875 
" clip-path="url(#p4854893a81)" style="fill: none; stroke: #b0b0b0; stroke-width: 0.3; stroke-linecap: square"/>
     </g>
     <g id="line2d_30">
      <g>
       <use xlink:href="#m7dd9cafe6a" x="119.499464" y="146.747947" style="stroke: #000000; stroke-width: 0.8"/>
      </g>
     </g>
    </g>
    <g id="xtick_16">
     <g id="line2d_31">
      <path d="M 126.159283 146.747947 
L 126.159283 12.07875 
" clip-path="url(#p4854893a81)" style="fill: none; stroke: #b0b0b0; stroke-width: 0.3; stroke-linecap: square"/>
     </g>
     <g id="line2d_32">
      <g>
       <use xlink:href="#m7dd9cafe6a" x="126.159283" y="146.747947" style="stroke: #000000; stroke-width: 0.8"/>
      </g>
     </g>
    </g>
    <g id="xtick_17">
     <g id="line2d_33">
      <path d="M 132.819102 146.747947 
L 132.819102 12.07875 
" clip-path="url(#p4854893a81)" style="fill: none; stroke: #b0b0b0; stroke-width: 0.3; stroke-linecap: square"/>
     </g>
     <g id="line2d_34">
      <g>
       <use xlink:href="#m7dd9cafe6a" x="132.819102" y="146.747947" style="stroke: #000000; stroke-width: 0.8"/>
      </g>
     </g>
    </g>
    <g id="xtick_18">
     <g id="line2d_35">
      <path d="M 139.47892 146.747947 
L 139.47892 12.07875 
" clip-path="url(#p4854893a81)" style="fill: none; stroke: #b0b0b0; stroke-width: 0.3; stroke-linecap: square"/>
     </g>
     <g id="line2d_36">
      <g>
       <use xlink:href="#m7dd9cafe6a" x="139.47892" y="146.747947" style="stroke: #000000; stroke-width: 0.8"/>
      </g>
     </g>
    </g>
    <g id="xtick_19">
     <g id="line2d_37">
      <path d="M 152.798557 146.747947 
L 152.798557 12.07875 
" clip-path="url(#p4854893a81)" style="fill: none; stroke: #b0b0b0; stroke-width: 0.3; stroke-linecap: square"/>
     </g>
     <g id="line2d_38">
      <g>
       <use xlink:href="#m7dd9cafe6a" x="152.798557" y="146.747947" style="stroke: #000000; stroke-width: 0.8"/>
      </g>
     </g>
    </g>
    <g id="xtick_20">
     <g id="line2d_39">
      <path d="M 159.458376 146.747947 
L 159.458376 12.07875 
" clip-path="url(#p4854893a81)" style="fill: none; stroke: #b0b0b0; stroke-width: 0.3; stroke-linecap: square"/>
     </g>
     <g id="line2d_40">
      <g>
       <use xlink:href="#m7dd9cafe6a" x="159.458376" y="146.747947" style="stroke: #000000; stroke-width: 0.8"/>
      </g>
     </g>
    </g>
    <g id="xtick_21">
     <g id="line2d_41">
      <path d="M 166.118195 146.747947 
L 166.118195 12.07875 
" clip-path="url(#p4854893a81)" style="fill: none; stroke: #b0b0b0; stroke-width: 0.3; stroke-linecap: square"/>
     </g>
     <g id="line2d_42">
      <g>
       <use xlink:href="#m7dd9cafe6a" x="166.118195" y="146.747947" style="stroke: #000000; stroke-width: 0.8"/>
      </g>
     </g>
    </g>
    <g id="xtick_22">
     <g id="line2d_43">
      <path d="M 172.778013 146.747947 
L 172.778013 12.07875 
" clip-path="url(#p4854893a81)" style="fill: none; stroke: #b0b0b0; stroke-width: 0.3; stroke-linecap: square"/>
     </g>
     <g id="line2d_44">
      <g>
       <use xlink:href="#m7dd9cafe6a" x="172.778013" y="146.747947" style="stroke: #000000; stroke-width: 0.8"/>
      </g>
     </g>
    </g>
    <g id="xtick_23">
     <g id="line2d_45">
      <path d="M 186.09765 146.747947 
L 186.09765 12.07875 
" clip-path="url(#p4854893a81)" style="fill: none; stroke: #b0b0b0; stroke-width: 0.3; stroke-linecap: square"/>
     </g>
     <g id="line2d_46">
      <g>
       <use xlink:href="#m7dd9cafe6a" x="186.09765" y="146.747947" style="stroke: #000000; stroke-width: 0.8"/>
      </g>
     </g>
    </g>
    <g id="xtick_24">
     <g id="line2d_47">
      <path d="M 192.757469 146.747947 
L 192.757469 12.07875 
" clip-path="url(#p4854893a81)" style="fill: none; stroke: #b0b0b0; stroke-width: 0.3; stroke-linecap: square"/>
     </g>
     <g id="line2d_48">
      <g>
       <use xlink:href="#m7dd9cafe6a" x="192.757469" y="146.747947" style="stroke: #000000; stroke-width: 0.8"/>
      </g>
     </g>
    </g>
    <g id="text_6">
     <text style="font: 9.6px 'DejaVu Sans', 'Bitstream Vera Sans', 'Computer Modern Sans Serif', 'Lucida Grande', 'Verdana', 'Geneva', 'Lucid', 'Arial', 'Helvetica', 'Avant Garde', sans-serif; text-anchor: middle" x="114.5046" y="174.859197" transform="rotate(-0 114.5046 174.859197)">Wavelength (nm)</text>
    </g>
   </g>
   <g id="matplotlib.axis_2">
    <g id="ytick_1">
     <g id="line2d_49">
      <path d="M 35.58575 145.505253 
L 193.423451 145.505253 
" clip-path="url(#p4854893a81)" style="fill: none; stroke: #b0b0b0; stroke-width: 0.6; stroke-linecap: square"/>
     </g>
     <g id="line2d_50">
      <defs>
       <path id="mbb9be7461d" d="M 0 0 
L -4.8 0 
" style="stroke: #000000"/>
      </defs>
      <g>
       <use xlink:href="#mbb9be7461d" x="35.58575" y="145.505253" style="stroke: #000000"/>
      </g>
     </g>
     <g id="text_7">
      <text style="font: 8.8px 'DejaVu Sans', 'Bitstream Vera Sans', 'Computer Modern Sans Serif', 'Lucida Grande', 'Verdana', 'Geneva', 'Lucid', 'Arial', 'Helvetica', 'Avant Garde', sans-serif; text-anchor: end" x="27.28575" y="148.848565" transform="rotate(-0 27.28575 148.848565)">0.0</text>
     </g>
    </g>
    <g id="ytick_2">
     <g id="line2d_51">
      <path d="M 35.58575 120.044218 
L 193.423451 120.044218 
" clip-path="url(#p4854893a81)" style="fill: none; stroke: #b0b0b0; stroke-width: 0.6; stroke-linecap: square"/>
     </g>
     <g id="line2d_52">
      <g>
       <use xlink:href="#mbb9be7461d" x="35.58575" y="120.044218" style="stroke: #000000"/>
      </g>
     </g>
     <g id="text_8">
      <text style="font: 8.8px 'DejaVu Sans', 'Bitstream Vera Sans', 'Computer Modern Sans Serif', 'Lucida Grande', 'Verdana', 'Geneva', 'Lucid', 'Arial', 'Helvetica', 'Avant Garde', sans-serif; text-anchor: end" x="27.28575" y="123.38753" transform="rotate(-0 27.28575 123.38753)">0.2</text>
     </g>
    </g>
    <g id="ytick_3">
     <g id="line2d_53">
      <path d="M 35.58575 94.583183 
L 193.423451 94.583183 
" clip-path="url(#p4854893a81)" style="fill: none; stroke: #b0b0b0; stroke-width: 0.6; stroke-linecap: square"/>
     </g>
     <g id="line2d_54">
      <g>
       <use xlink:href="#mbb9be7461d" x="35.58575" y="94.583183" style="stroke: #000000"/>
      </g>
     </g>
     <g id="text_9">
      <text style="font: 8.8px 'DejaVu Sans', 'Bitstream Vera Sans', 'Computer Modern Sans Serif', 'Lucida Grande', 'Verdana', 'Geneva', 'Lucid', 'Arial', 'Helvetica', 'Avant Garde', sans-serif; text-anchor: end" x="27.28575" y="97.926495" transform="rotate(-0 27.28575 97.926495)">0.4</text>
     </g>
    </g>
    <g id="ytick_4">
     <g id="line2d_55">
      <path d="M 35.58575 69.122147 
L 193.423451 69.122147 
" clip-path="url(#p4854893a81)" style="fill: none; stroke: #b0b0b0; stroke-width: 0.6; stroke-linecap: square"/>
     </g>
     <g id="line2d_56">
      <g>
       <use xlink:href="#mbb9be7461d" x="35.58575" y="69.122147" style="stroke: #000000"/>
      </g>
     </g>
     <g id="text_10">
      <text style="font: 8.8px 'DejaVu Sans', 'Bitstream Vera Sans', 'Computer Modern Sans Serif', 'Lucida Grande', 'Verdana', 'Geneva', 'Lucid', 'Arial', 'Helvetica', 'Avant Garde', sans-serif; text-anchor: end" x="27.28575" y="72.46546" transform="rotate(-0 27.28575 72.46546)">0.6</text>
     </g>
    </g>
    <g id="ytick_5">
     <g id="line2d_57">
      <path d="M 35.58575 43.661112 
L 193.423451 43.661112 
" clip-path="url(#p4854893a81)" style="fill: none; stroke: #b0b0b0; stroke-width: 0.6; stroke-linecap: square"/>
     </g>
     <g id="line2d_58">
      <g>
       <use xlink:href="#mbb9be7461d" x="35.58575" y="43.661112" style="stroke: #000000"/>
      </g>
     </g>
     <g id="text_11">
      <text style="font: 8.8px 'DejaVu Sans', 'Bitstream Vera Sans', 'Computer Modern Sans Serif', 'Lucida Grande', 'Verdana', 'Geneva', 'Lucid', 'Arial', 'Helvetica', 'Avant Garde', sans-serif; text-anchor: end" x="27.28575" y="47.004425" transform="rotate(-0 27.28575 47.004425)">0.8</text>
     </g>
    </g>
    <g id="ytick_6">
     <g id="line2d_59">
      <path d="M 35.58575 18.200077 
L 193.423451 18.200077 
" clip-path="url(#p4854893a81)" style="fill: none; stroke: #b0b0b0; stroke-width: 0.6; stroke-linecap: square"/>
     </g>
     <g id="line2d_60">
      <g>
       <use xlink:href="#mbb9be7461d" x="35.58575" y="18.200077" style="stroke: #000000"/>
      </g>
     </g>
     <g id="text_12">
      <text style="font: 8.8px 'DejaVu Sans', 'Bitstream Vera Sans', 'Computer Modern Sans Serif', 'Lucida Grande', 'Verdana', 'Geneva', 'Lucid', 'Arial', 'Helvetica', 'Avant Garde', sans-serif; text-anchor: end" x="27.28575" y="21.54339" transform="rotate(-0 27.28575 21.54339)">1.0</text>
     </g>
    </g>
    <g id="text_13">
     <text style="font: 9.6px 'DejaVu Sans', 'Bitstream Vera Sans', 'Computer Modern Sans Serif', 'Lucida Grande', 'Verdana', 'Geneva', 'Lucid', 'Arial', 'Helvetica', 'Avant Garde', sans-serif; text-anchor: middle" x="7.2945" y="79.413348" transform="rotate(-90 7.2945 79.413348)">Reflectance</text>
    </g>
   </g>
   <g id="line2d_61">
    <path d="M 36.251732 18.200077 
L 37.117508 18.564329 
L 37.383901 18.499669 
L 38.049883 18.519242 
L 38.249677 18.294958 
L 38.649267 19.177531 
L 39.848034 18.984263 
L 40.980203 19.16293 
L 41.246596 18.803831 
L 41.313194 18.888979 
L 41.646185 19.219246 
L 42.045774 19.238206 
L 42.511961 19.348167 
L 42.91155 19.405744 
L 43.244541 20.069482 
L 43.31114 20.028563 
L 43.644131 19.942527 
L 43.910523 20.252866 
L 43.977121 20.188463 
L 44.310112 19.779478 
L 44.709701 19.129175 
L 45.375683 18.978379 
L 45.708674 19.175334 
L 45.908469 19.203745 
L 46.24146 18.636321 
L 46.308058 18.722202 
L 46.707647 19.093116 
L 47.307031 19.15776 
L 47.640022 18.858547 
L 47.973013 18.999976 
L 48.372602 18.788849 
L 48.971985 18.7829 
L 49.504771 18.724191 
L 49.970958 18.6556 
L 50.903333 18.633427 
L 51.36952 18.973321 
L 51.968904 18.955345 
L 52.301895 18.476995 
L 53.034475 18.67201 
L 53.367466 18.68596 
L 53.633858 18.695567 
L 53.900251 18.39741 
L 53.966849 18.474007 
L 54.233242 18.780326 
L 54.566233 18.200077 
L 54.632831 18.262042 
L 55.232215 18.708257 
L 55.631804 18.358197 
L 56.297786 18.618363 
L 57.563151 18.314323 
L 57.96274 18.576051 
L 59.028311 18.299547 
L 59.294704 18.411177 
L 59.627695 18.30151 
L 60.227079 18.667726 
L 60.56007 18.200077 
L 60.626668 18.280403 
L 61.092855 18.676905 
L 61.29265 18.83749 
L 61.625641 19.281152 
L 61.958632 19.387519 
L 62.225024 19.786396 
L 62.291623 19.721282 
L 62.691212 19.43864 
L 62.957604 19.308256 
L 63.290595 18.930133 
L 63.756783 18.893732 
L 63.956577 18.886321 
L 64.356166 19.266368 
L 64.689157 19.56831 
L 64.95555 19.65771 
L 65.754728 20.810749 
L 66.154317 21.63929 
L 66.753701 22.453294 
L 67.15329 22.671314 
L 67.353085 22.834474 
L 68.085665 23.476135 
L 68.884843 23.82728 
L 69.284432 24.297525 
L 69.617423 25.485073 
L 70.017012 27.68427 
L 70.216807 28.149938 
L 70.283405 28.101679 
L 70.549798 27.908609 
L 70.949387 28.858047 
L 71.282378 30.778292 
L 72.547743 43.350243 
L 73.546716 39.549786 
L 73.879707 54.050358 
L 74.479091 32.069059 
L 74.678885 28.85097 
L 75.211671 24.578459 
L 75.744456 23.174732 
L 75.877653 22.940313 
L 75.944251 22.979344 
L 76.210643 23.135494 
L 76.810027 22.028472 
L 77.009822 21.902027 
L 77.542607 21.680126 
L 78.275187 20.805273 
L 78.741375 20.656683 
L 79.207562 20.427796 
L 79.540553 20.919366 
L 80.00674 20.09174 
L 80.73932 19.708865 
L 81.138909 19.772796 
L 81.272106 19.737272 
L 81.871489 19.346878 
L 82.271078 19.314444 
L 82.737266 18.868214 
L 82.93706 18.862816 
L 83.270051 19.121484 
L 83.736238 18.945986 
L 84.269024 18.714452 
L 84.535417 18.911496 
L 84.868408 18.325659 
L 84.935006 18.413998 
L 85.267997 18.740691 
L 86.533362 18.33092 
L 87.132746 18.224727 
L 87.265942 18.271365 
L 87.665531 18.549098 
L 88.264915 18.616193 
L 88.531308 18.898032 
L 88.864299 18.218206 
L 88.930897 18.305644 
L 89.263888 18.63381 
L 90.129664 18.252061 
L 90.262861 18.233836 
L 90.595852 18.49476 
L 90.862244 18.998285 
L 90.928843 18.906257 
L 91.461628 18.356108 
L 91.594824 18.335242 
L 92.327404 18.514353 
L 92.660395 18.303586 
L 93.992359 18.361635 
L 94.192154 18.579113 
L 94.258752 18.50334 
L 94.591743 18.246719 
L 94.924734 18.409137 
L 95.257725 18.349432 
L 95.590716 18.440709 
L 95.923707 18.268783 
L 96.256697 18.519544 
L 96.722885 18.456115 
L 97.322268 18.664047 
L 99.053821 19.701467 
L 99.187018 19.841381 
L 99.253616 19.758348 
L 99.520009 19.425843 
L 99.586607 19.509613 
L 99.852999 19.845067 
L 99.919598 19.78905 
L 100.252589 19.606503 
L 100.58558 19.730236 
L 101.517954 19.181742 
L 101.917543 19.378402 
L 102.383731 19.19329 
L 103.182909 19.085262 
L 103.5159 18.200077 
L 103.582498 18.242923 
L 103.915489 18.57646 
L 105.047658 21.534235 
L 105.314051 22.249912 
L 105.913434 22.955252 
L 106.646014 25.278555 
L 106.845809 26.563492 
L 106.912407 26.478191 
L 107.511791 25.570402 
L 107.578389 25.711462 
L 107.844782 26.276744 
L 108.444165 25.035034 
L 108.777156 24.681473 
L 109.110147 24.244743 
L 109.443138 23.966048 
L 109.576335 23.789879 
L 110.308915 22.531671 
L 110.575307 22.297323 
L 111.374486 21.121746 
L 111.707477 20.925666 
L 111.907271 20.772411 
L 112.639851 19.75511 
L 113.439029 19.333724 
L 114.171609 18.689963 
L 114.571199 18.302875 
L 115.303779 18.397643 
L 115.96976 18.209063 
L 116.569144 18.273755 
L 116.902135 18.557091 
L 117.168528 18.508741 
L 117.634715 19.50033 
L 118.367295 20.046236 
L 118.500492 20.055911 
L 119.033277 21.048523 
L 119.366268 21.268777 
L 119.632661 21.451599 
L 119.832455 21.657712 
L 120.565035 24.708018 
L 120.898026 24.699753 
L 121.164419 24.512924 
L 121.630606 25.870392 
L 121.896999 27.208172 
L 122.363186 31.631148 
L 122.762775 37.41075 
L 123.561954 48.66362 
L 123.894945 50.17538 
L 124.694123 49.967119 
L 125.027114 49.861744 
L 125.226908 49.952335 
L 125.559899 50.635209 
L 126.159283 53.306669 
L 126.62547 62.783464 
L 126.825265 68.517027 
L 127.224854 57.279689 
L 127.691041 39.101387 
L 127.957434 34.394646 
L 128.290425 31.705057 
L 128.490219 30.806339 
L 128.556818 30.898161 
L 128.82321 31.266377 
L 128.889809 31.168422 
L 129.289398 30.400902 
L 129.688987 29.555444 
L 129.888781 29.382453 
L 130.28837 29.561799 
L 130.954352 30.295763 
L 131.753531 32.322808 
L 131.953325 32.813725 
L 133.351887 37.229772 
L 134.017869 39.856944 
L 134.284262 40.209154 
L 134.617253 40.239148 
L 134.883645 40.060067 
L 135.483029 38.786813 
L 135.549627 38.970268 
L 135.882618 40.103284 
L 136.681796 44.319551 
L 136.814993 44.825903 
L 136.881591 44.69496 
L 137.28118 44.111387 
L 137.480975 44.023567 
L 137.880564 45.589392 
L 138.479947 48.909602 
L 138.879536 47.813554 
L 139.811911 42.992995 
L 140.278098 42.431579 
L 140.477893 42.390096 
L 140.94408 43.654429 
L 141.943053 47.839424 
L 142.342642 50.191767 
L 142.808829 51.748117 
L 144.27399 53.258218 
L 144.540382 53.874251 
L 145.539355 57.758188 
L 145.872346 57.768109 
L 146.138739 58.056789 
L 146.205337 57.98032 
L 146.47173 57.673554 
L 146.871319 58.584135 
L 147.137712 58.578437 
L 147.670497 59.477556 
L 147.93689 59.870443 
L 148.269881 60.301801 
L 148.536273 60.44354 
L 148.935863 61.051769 
L 149.202255 61.474786 
L 149.668443 61.464607 
L 150.068032 61.710741 
L 150.734014 63.5756 
L 151.067005 64.5122 
L 151.266799 64.644122 
L 151.466594 64.878926 
L 151.732986 65.295843 
L 151.866183 65.216041 
L 152.33237 66.037182 
L 152.532165 66.582563 
L 152.665361 66.156824 
L 152.731959 66.214283 
L 153.131548 67.1706 
L 153.264745 67.302565 
L 153.397941 67.27283 
L 153.597736 67.709834 
L 153.79753 67.985897 
L 154.197119 68.910802 
L 154.463512 69.375103 
L 154.929699 71.33333 
L 155.062896 71.893749 
L 156.394859 80.594808 
L 156.994243 86.335778 
L 157.46043 92.636569 
L 158.526001 112.420607 
L 159.724769 138.222792 
L 159.991161 140.153149 
L 160.124358 140.322193 
L 160.257554 139.98679 
L 160.523947 138.459872 
L 160.79034 137.05749 
L 160.923536 137.131441 
L 161.123331 137.863256 
L 161.389723 138.530361 
L 161.656116 138.344719 
L 161.989107 138.62066 
L 162.122303 138.406153 
L 162.521892 136.102393 
L 162.788285 134.790513 
L 162.921482 134.968673 
L 163.121276 136.088212 
L 163.520865 140.62662 
L 163.587463 140.577173 
L 163.72066 138.750707 
L 164.519838 122.277121 
L 164.919427 119.919175 
L 165.518811 113.221977 
L 166.784176 105.111809 
L 167.38356 102.773864 
L 169.048515 97.229554 
L 172.112031 88.648203 
L 172.844611 87.227464 
L 172.91121 87.277631 
L 173.111004 87.647162 
L 173.310799 88.723722 
L 173.64379 90.76418 
L 173.710388 90.827873 
L 173.843584 90.243304 
L 174.109977 86.918754 
L 174.642762 80.664541 
L 175.175548 77.20987 
L 175.84153 74.434143 
L 177.573083 68.843812 
L 179.637626 61.799237 
L 180.370206 59.159785 
L 181.369179 55.816618 
L 182.101759 53.465783 
L 183.034134 50.371491 
L 183.700116 48.212409 
L 187.296418 36.604448 
L 188.228792 33.34348 
L 189.360961 29.448929 
L 192.690871 18.200077 
L 192.690871 18.200077 
" clip-path="url(#p4854893a81)" style="fill: none; stroke: #1f77b4; stroke-width: 0.5; stroke-linecap: square"/>
   </g>
   <g id="line2d_62"/>
   <g id="patch_3">
    <path d="M 35.58575 146.747947 
L 35.58575 12.07875 
" style="fill: none; stroke: #000000; stroke-linejoin: miter; stroke-linecap: square"/>
   </g>
   <g id="patch_4">
    <path d="M 193.423451 146.747947 
L 193.423451 12.07875 
" style="fill: none; stroke: #000000; stroke-linejoin: miter; stroke-linecap: square"/>
   </g>
   <g id="patch_5">
    <path d="M 35.58575 146.747947 
L 193.423451 146.747947 
" style="fill: none; stroke: #000000; stroke-linejoin: miter; stroke-linecap: square"/>
   </g>
   <g id="patch_6">
    <path d="M 35.58575 12.07875 
L 193.423451 12.07875 
" style="fill: none; stroke: #000000; stroke-linejoin: miter; stroke-linecap: square"/>
   </g>
   <g id="text_14">
    <text style="font: 8px 'DejaVu Sans', 'Bitstream Vera Sans', 'Computer Modern Sans Serif', 'Lucida Grande', 'Verdana', 'Geneva', 'Lucid', 'Arial', 'Helvetica', 'Avant Garde', sans-serif; text-anchor: middle" x="114.5046" y="6.07875" transform="rotate(-0 114.5046 6.07875)">Laboratory Phyllosilicate Kaolinite</text>
   </g>
   <g id="legend_1">
    <g id="patch_7">
     <path d="M 200.780205 84.716786 
L 271.063642 84.716786 
Q 272.263642 84.716786 272.263642 83.516786 
L 272.263642 75.309911 
Q 272.263642 74.109911 271.063642 74.109911 
L 200.780205 74.109911 
Q 199.580205 74.109911 199.580205 75.309911 
L 199.580205 83.516786 
Q 199.580205 84.716786 200.780205 84.716786 
z
" style="fill: #ffffff; opacity: 0.8; stroke: #cccccc; stroke-width: 0.8; stroke-linejoin: miter"/>
    </g>
    <g id="line2d_63">
     <path d="M 201.980205 78.968973 
L 207.980205 78.968973 
L 213.980205 78.968973 
" style="fill: none; stroke: #1f77b4; stroke-width: 1.2; stroke-linecap: square"/>
    </g>
    <g id="text_15">
     <text style="font: 6px 'DejaVu Sans', 'Bitstream Vera Sans', 'Computer Modern Sans Serif', 'Lucida Grande', 'Verdana', 'Geneva', 'Lucid', 'Arial', 'Helvetica', 'Avant Garde', sans-serif; text-anchor: start" x="218.780205" y="81.068973" transform="rotate(-0 218.780205 81.068973)">Kaolinite LAKA04</text>
    </g>
   </g>
  </g>
 </g>
 <defs>
  <clipPath id="p4854893a81">
   <rect x="35.58575" y="12.07875" width="157.837701" height="134.669197"/>
  </clipPath>
 </defs>
</svg>
