<?xml version="1.0" encoding="utf-8" standalone="no"?>
<!DOCTYPE svg PUBLIC "-//W3C//DTD SVG 1.1//EN"
  "http://www.w3.org/Graphics/SVG/1.1/DTD/svg11.dtd">
<svg xmlns:xlink="http://www.w3.org/1999/xlink" width="272.867092pt" height="177.409447pt" viewBox="0 0 272.867092 177.409447" xmlns="http://www.w3.org/2000/svg" version="1.1">
 <metadata>
  <rdf:RDF xmlns:dc="http://purl.org/dc/elements/1.1/" xmlns:cc="http://creativecommons.org/ns#" xmlns:rdf="http://www.w3.org/1999/02/22-rdf-syntax-ns#">
   <cc:Work>
    <dc:type rdf:resource="http://purl.org/dc/dcmitype/StillImage"/>
    <dc:date>2025-02-15T18:14:22.381562</dc:date>
    <dc:format>image/svg+xml</dc:format>
    <dc:creator>
     <cc:Agent>
      <dc:title>Matplotlib v3.6.2, https://matplotlib.org/</dc:title>
     </cc:Agent>
    </dc:creator>
   </cc:Work>
  </rdf:RDF>
 </metadata>
 <defs>
  <style type="text/css">*{stroke-linejoin: round; stroke-linecap: butt}</style>
 </defs>
 <g id="figure_1">
  <g id="patch_1">
   <path d="M 0 177.409447 
L 272.867092 177.409447 
L 272.867092 0 
L 0 0 
z
" style="fill: #ffffff"/>
  </g>
  <g id="axes_1">
   <g id="patch_2">
    <path d="M 36.279125 145.084197 
L 221.026826 145.084197 
L 221.026826 12.5975 
L 36.279125 12.5975 
z
" style="fill: #ffffff"/>
   </g>
   <g id="matplotlib.axis_1">
    <g id="xtick_1">
     <g id="line2d_1">
      <path d="M 48.751544 145.084197 
L 48.751544 12.5975 
" clip-path="url(#paf83901c00)" style="fill: none; stroke: #b0b0b0; stroke-width: 0.6; stroke-linecap: square"/>
     </g>
     <g id="line2d_2">
      <defs>
       <path id="m193b7f3a88" d="M 0 0 
L 0 4.8 
" style="stroke: #000000"/>
      </defs>
      <g>
       <use xlink:href="#m193b7f3a88" x="48.751544" y="145.084197" style="stroke: #000000"/>
      </g>
     </g>
     <g id="text_1">
      <text style="font: 8.8px 'Futura', sans-serif; text-anchor: middle" x="48.751544" y="160.641447" transform="rotate(-0 48.751544 160.641447)">1000</text>
     </g>
    </g>
    <g id="xtick_2">
     <g id="line2d_3">
      <path d="M 87.727852 145.084197 
L 87.727852 12.5975 
" clip-path="url(#paf83901c00)" style="fill: none; stroke: #b0b0b0; stroke-width: 0.6; stroke-linecap: square"/>
     </g>
     <g id="line2d_4">
      <g>
       <use xlink:href="#m193b7f3a88" x="87.727852" y="145.084197" style="stroke: #000000"/>
      </g>
     </g>
     <g id="text_2">
      <text style="font: 8.8px 'Futura', sans-serif; text-anchor: middle" x="87.727852" y="160.641447" transform="rotate(-0 87.727852 160.641447)">1500</text>
     </g>
    </g>
    <g id="xtick_3">
     <g id="line2d_5">
      <path d="M 126.70416 145.084197 
L 126.70416 12.5975 
" clip-path="url(#paf83901c00)" style="fill: none; stroke: #b0b0b0; stroke-width: 0.6; stroke-linecap: square"/>
     </g>
     <g id="line2d_6">
      <g>
       <use xlink:href="#m193b7f3a88" x="126.70416" y="145.084197" style="stroke: #000000"/>
      </g>
     </g>
     <g id="text_3">
      <text style="font: 8.8px 'Futura', sans-serif; text-anchor: middle" x="126.70416" y="160.641447" transform="rotate(-0 126.70416 160.641447)">2000</text>
     </g>
    </g>
    <g id="xtick_4">
     <g id="line2d_7">
      <path d="M 165.680468 145.084197 
L 165.680468 12.5975 
" clip-path="url(#paf83901c00)" style="fill: none; stroke: #b0b0b0; stroke-width: 0.6; stroke-linecap: square"/>
     </g>
     <g id="line2d_8">
      <g>
       <use xlink:href="#m193b7f3a88" x="165.680468" y="145.084197" style="stroke: #000000"/>
      </g>
     </g>
     <g id="text_4">
      <text style="font: 8.8px 'Futura', sans-serif; text-anchor: middle" x="165.680468" y="160.641447" transform="rotate(-0 165.680468 160.641447)">2500</text>
     </g>
    </g>
    <g id="xtick_5">
     <g id="line2d_9">
      <path d="M 204.656776 145.084197 
L 204.656776 12.5975 
" clip-path="url(#paf83901c00)" style="fill: none; stroke: #b0b0b0; stroke-width: 0.6; stroke-linecap: square"/>
     </g>
     <g id="line2d_10">
      <g>
       <use xlink:href="#m193b7f3a88" x="204.656776" y="145.084197" style="stroke: #000000"/>
      </g>
     </g>
     <g id="text_5">
      <text style="font: 8.8px 'Futura', sans-serif; text-anchor: middle" x="204.656776" y="160.641447" transform="rotate(-0 204.656776 160.641447)">3000</text>
     </g>
    </g>
    <g id="xtick_6">
     <g id="line2d_11">
      <path d="M 40.956282 145.084197 
L 40.956282 12.5975 
" clip-path="url(#paf83901c00)" style="fill: none; stroke: #b0b0b0; stroke-width: 0.3; stroke-linecap: square"/>
     </g>
     <g id="line2d_12">
      <defs>
       <path id="m0e0df9d497" d="M 0 0 
L 0 3.2 
" style="stroke: #000000; stroke-width: 0.8"/>
      </defs>
      <g>
       <use xlink:href="#m0e0df9d497" x="40.956282" y="145.084197" style="stroke: #000000; stroke-width: 0.8"/>
      </g>
     </g>
    </g>
    <g id="xtick_7">
     <g id="line2d_13">
      <path d="M 56.546805 145.084197 
L 56.546805 12.5975 
" clip-path="url(#paf83901c00)" style="fill: none; stroke: #b0b0b0; stroke-width: 0.3; stroke-linecap: square"/>
     </g>
     <g id="line2d_14">
      <g>
       <use xlink:href="#m0e0df9d497" x="56.546805" y="145.084197" style="stroke: #000000; stroke-width: 0.8"/>
      </g>
     </g>
    </g>
    <g id="xtick_8">
     <g id="line2d_15">
      <path d="M 64.342067 145.084197 
L 64.342067 12.5975 
" clip-path="url(#paf83901c00)" style="fill: none; stroke: #b0b0b0; stroke-width: 0.3; stroke-linecap: square"/>
     </g>
     <g id="line2d_16">
      <g>
       <use xlink:href="#m0e0df9d497" x="64.342067" y="145.084197" style="stroke: #000000; stroke-width: 0.8"/>
      </g>
     </g>
    </g>
    <g id="xtick_9">
     <g id="line2d_17">
      <path d="M 72.137329 145.084197 
L 72.137329 12.5975 
" clip-path="url(#paf83901c00)" style="fill: none; stroke: #b0b0b0; stroke-width: 0.3; stroke-linecap: square"/>
     </g>
     <g id="line2d_18">
      <g>
       <use xlink:href="#m0e0df9d497" x="72.137329" y="145.084197" style="stroke: #000000; stroke-width: 0.8"/>
      </g>
     </g>
    </g>
    <g id="xtick_10">
     <g id="line2d_19">
      <path d="M 79.93259 145.084197 
L 79.93259 12.5975 
" clip-path="url(#paf83901c00)" style="fill: none; stroke: #b0b0b0; stroke-width: 0.3; stroke-linecap: square"/>
     </g>
     <g id="line2d_20">
      <g>
       <use xlink:href="#m0e0df9d497" x="79.93259" y="145.084197" style="stroke: #000000; stroke-width: 0.8"/>
      </g>
     </g>
    </g>
    <g id="xtick_11">
     <g id="line2d_21">
      <path d="M 95.523113 145.084197 
L 95.523113 12.5975 
" clip-path="url(#paf83901c00)" style="fill: none; stroke: #b0b0b0; stroke-width: 0.3; stroke-linecap: square"/>
     </g>
     <g id="line2d_22">
      <g>
       <use xlink:href="#m0e0df9d497" x="95.523113" y="145.084197" style="stroke: #000000; stroke-width: 0.8"/>
      </g>
     </g>
    </g>
    <g id="xtick_12">
     <g id="line2d_23">
      <path d="M 103.318375 145.084197 
L 103.318375 12.5975 
" clip-path="url(#paf83901c00)" style="fill: none; stroke: #b0b0b0; stroke-width: 0.3; stroke-linecap: square"/>
     </g>
     <g id="line2d_24">
      <g>
       <use xlink:href="#m0e0df9d497" x="103.318375" y="145.084197" style="stroke: #000000; stroke-width: 0.8"/>
      </g>
     </g>
    </g>
    <g id="xtick_13">
     <g id="line2d_25">
      <path d="M 111.113637 145.084197 
L 111.113637 12.5975 
" clip-path="url(#paf83901c00)" style="fill: none; stroke: #b0b0b0; stroke-width: 0.3; stroke-linecap: square"/>
     </g>
     <g id="line2d_26">
      <g>
       <use xlink:href="#m0e0df9d497" x="111.113637" y="145.084197" style="stroke: #000000; stroke-width: 0.8"/>
      </g>
     </g>
    </g>
    <g id="xtick_14">
     <g id="line2d_27">
      <path d="M 118.908898 145.084197 
L 118.908898 12.5975 
" clip-path="url(#paf83901c00)" style="fill: none; stroke: #b0b0b0; stroke-width: 0.3; stroke-linecap: square"/>
     </g>
     <g id="line2d_28">
      <g>
       <use xlink:href="#m0e0df9d497" x="118.908898" y="145.084197" style="stroke: #000000; stroke-width: 0.8"/>
      </g>
     </g>
    </g>
    <g id="xtick_15">
     <g id="line2d_29">
      <path d="M 134.499422 145.084197 
L 134.499422 12.5975 
" clip-path="url(#paf83901c00)" style="fill: none; stroke: #b0b0b0; stroke-width: 0.3; stroke-linecap: square"/>
     </g>
     <g id="line2d_30">
      <g>
       <use xlink:href="#m0e0df9d497" x="134.499422" y="145.084197" style="stroke: #000000; stroke-width: 0.8"/>
      </g>
     </g>
    </g>
    <g id="xtick_16">
     <g id="line2d_31">
      <path d="M 142.294683 145.084197 
L 142.294683 12.5975 
" clip-path="url(#paf83901c00)" style="fill: none; stroke: #b0b0b0; stroke-width: 0.3; stroke-linecap: square"/>
     </g>
     <g id="line2d_32">
      <g>
       <use xlink:href="#m0e0df9d497" x="142.294683" y="145.084197" style="stroke: #000000; stroke-width: 0.8"/>
      </g>
     </g>
    </g>
    <g id="xtick_17">
     <g id="line2d_33">
      <path d="M 150.089945 145.084197 
L 150.089945 12.5975 
" clip-path="url(#paf83901c00)" style="fill: none; stroke: #b0b0b0; stroke-width: 0.3; stroke-linecap: square"/>
     </g>
     <g id="line2d_34">
      <g>
       <use xlink:href="#m0e0df9d497" x="150.089945" y="145.084197" style="stroke: #000000; stroke-width: 0.8"/>
      </g>
     </g>
    </g>
    <g id="xtick_18">
     <g id="line2d_35">
      <path d="M 157.885207 145.084197 
L 157.885207 12.5975 
" clip-path="url(#paf83901c00)" style="fill: none; stroke: #b0b0b0; stroke-width: 0.3; stroke-linecap: square"/>
     </g>
     <g id="line2d_36">
      <g>
       <use xlink:href="#m0e0df9d497" x="157.885207" y="145.084197" style="stroke: #000000; stroke-width: 0.8"/>
      </g>
     </g>
    </g>
    <g id="xtick_19">
     <g id="line2d_37">
      <path d="M 173.47573 145.084197 
L 173.47573 12.5975 
" clip-path="url(#paf83901c00)" style="fill: none; stroke: #b0b0b0; stroke-width: 0.3; stroke-linecap: square"/>
     </g>
     <g id="line2d_38">
      <g>
       <use xlink:href="#m0e0df9d497" x="173.47573" y="145.084197" style="stroke: #000000; stroke-width: 0.8"/>
      </g>
     </g>
    </g>
    <g id="xtick_20">
     <g id="line2d_39">
      <path d="M 181.270991 145.084197 
L 181.270991 12.5975 
" clip-path="url(#paf83901c00)" style="fill: none; stroke: #b0b0b0; stroke-width: 0.3; stroke-linecap: square"/>
     </g>
     <g id="line2d_40">
      <g>
       <use xlink:href="#m0e0df9d497" x="181.270991" y="145.084197" style="stroke: #000000; stroke-width: 0.8"/>
      </g>
     </g>
    </g>
    <g id="xtick_21">
     <g id="line2d_41">
      <path d="M 189.066253 145.084197 
L 189.066253 12.5975 
" clip-path="url(#paf83901c00)" style="fill: none; stroke: #b0b0b0; stroke-width: 0.3; stroke-linecap: square"/>
     </g>
     <g id="line2d_42">
      <g>
       <use xlink:href="#m0e0df9d497" x="189.066253" y="145.084197" style="stroke: #000000; stroke-width: 0.8"/>
      </g>
     </g>
    </g>
    <g id="xtick_22">
     <g id="line2d_43">
      <path d="M 196.861515 145.084197 
L 196.861515 12.5975 
" clip-path="url(#paf83901c00)" style="fill: none; stroke: #b0b0b0; stroke-width: 0.3; stroke-linecap: square"/>
     </g>
     <g id="line2d_44">
      <g>
       <use xlink:href="#m0e0df9d497" x="196.861515" y="145.084197" style="stroke: #000000; stroke-width: 0.8"/>
      </g>
     </g>
    </g>
    <g id="xtick_23">
     <g id="line2d_45">
      <path d="M 212.452038 145.084197 
L 212.452038 12.5975 
" clip-path="url(#paf83901c00)" style="fill: none; stroke: #b0b0b0; stroke-width: 0.3; stroke-linecap: square"/>
     </g>
     <g id="line2d_46">
      <g>
       <use xlink:href="#m0e0df9d497" x="212.452038" y="145.084197" style="stroke: #000000; stroke-width: 0.8"/>
      </g>
     </g>
    </g>
    <g id="xtick_24">
     <g id="line2d_47">
      <path d="M 220.2473 145.084197 
L 220.2473 12.5975 
" clip-path="url(#paf83901c00)" style="fill: none; stroke: #b0b0b0; stroke-width: 0.3; stroke-linecap: square"/>
     </g>
     <g id="line2d_48">
      <g>
       <use xlink:href="#m0e0df9d497" x="220.2473" y="145.084197" style="stroke: #000000; stroke-width: 0.8"/>
      </g>
     </g>
    </g>
    <g id="text_6">
     <text style="font: 9.6px 'Futura', sans-serif; text-anchor: middle" x="128.652975" y="174.914947" transform="rotate(-0 128.652975 174.914947)">Wavelength (nm)</text>
    </g>
   </g>
   <g id="matplotlib.axis_2">
    <g id="ytick_1">
     <g id="line2d_49">
      <path d="M 36.279125 145.084197 
L 221.026826 145.084197 
" clip-path="url(#paf83901c00)" style="fill: none; stroke: #b0b0b0; stroke-width: 0.6; stroke-linecap: square"/>
     </g>
     <g id="line2d_50">
      <defs>
       <path id="mb3be77a60f" d="M 0 0 
L -4.8 0 
" style="stroke: #000000"/>
      </defs>
      <g>
       <use xlink:href="#mb3be77a60f" x="36.279125" y="145.084197" style="stroke: #000000"/>
      </g>
     </g>
     <g id="text_7">
      <text style="font: 8.8px 'Futura', sans-serif; text-anchor: end" x="27.979125" y="148.712822" transform="rotate(-0 27.979125 148.712822)">0.0</text>
     </g>
    </g>
    <g id="ytick_2">
     <g id="line2d_51">
      <path d="M 36.279125 116.732312 
L 221.026826 116.732312 
" clip-path="url(#paf83901c00)" style="fill: none; stroke: #b0b0b0; stroke-width: 0.6; stroke-linecap: square"/>
     </g>
     <g id="line2d_52">
      <g>
       <use xlink:href="#mb3be77a60f" x="36.279125" y="116.732312" style="stroke: #000000"/>
      </g>
     </g>
     <g id="text_8">
      <text style="font: 8.8px 'Futura', sans-serif; text-anchor: end" x="27.979125" y="120.360937" transform="rotate(-0 27.979125 120.360937)">0.2</text>
     </g>
    </g>
    <g id="ytick_3">
     <g id="line2d_53">
      <path d="M 36.279125 88.380427 
L 221.026826 88.380427 
" clip-path="url(#paf83901c00)" style="fill: none; stroke: #b0b0b0; stroke-width: 0.6; stroke-linecap: square"/>
     </g>
     <g id="line2d_54">
      <g>
       <use xlink:href="#mb3be77a60f" x="36.279125" y="88.380427" style="stroke: #000000"/>
      </g>
     </g>
     <g id="text_9">
      <text style="font: 8.8px 'Futura', sans-serif; text-anchor: end" x="27.979125" y="92.009052" transform="rotate(-0 27.979125 92.009052)">0.4</text>
     </g>
    </g>
    <g id="ytick_4">
     <g id="line2d_55">
      <path d="M 36.279125 60.028542 
L 221.026826 60.028542 
" clip-path="url(#paf83901c00)" style="fill: none; stroke: #b0b0b0; stroke-width: 0.6; stroke-linecap: square"/>
     </g>
     <g id="line2d_56">
      <g>
       <use xlink:href="#mb3be77a60f" x="36.279125" y="60.028542" style="stroke: #000000"/>
      </g>
     </g>
     <g id="text_10">
      <text style="font: 8.8px 'Futura', sans-serif; text-anchor: end" x="27.979125" y="63.657167" transform="rotate(-0 27.979125 63.657167)">0.6</text>
     </g>
    </g>
    <g id="ytick_5">
     <g id="line2d_57">
      <path d="M 36.279125 31.676657 
L 221.026826 31.676657 
" clip-path="url(#paf83901c00)" style="fill: none; stroke: #b0b0b0; stroke-width: 0.6; stroke-linecap: square"/>
     </g>
     <g id="line2d_58">
      <g>
       <use xlink:href="#mb3be77a60f" x="36.279125" y="31.676657" style="stroke: #000000"/>
      </g>
     </g>
     <g id="text_11">
      <text style="font: 8.8px 'Futura', sans-serif; text-anchor: end" x="27.979125" y="35.305282" transform="rotate(-0 27.979125 35.305282)">0.8</text>
     </g>
    </g>
    <g id="text_12">
     <text style="font: 9.6px 'Futura', sans-serif; text-anchor: middle" x="7.917" y="78.840848" transform="rotate(-90 7.917 78.840848)">Reflectance</text>
    </g>
   </g>
   <g id="line2d_59">
    <path d="M 37.058651 13.909249 
L 38.539751 14.07244 
L 39.942898 14.006421 
L 40.644472 13.995495 
L 42.047619 14.497361 
L 42.437382 14.737052 
L 42.905097 14.926301 
L 43.372813 14.543903 
L 43.684624 14.554083 
L 44.46415 15.595444 
L 45.009818 15.922611 
L 45.711392 16.066601 
L 46.101155 16.35766 
L 46.56887 16.88826 
L 46.958633 16.922151 
L 47.426349 16.666759 
L 49.453117 15.223604 
L 51.32398 14.721074 
L 52.80508 14.530051 
L 53.272795 14.624855 
L 53.818464 14.509841 
L 54.753895 14.49688 
L 55.143658 14.518223 
L 55.611374 14.458928 
L 55.923184 14.601894 
L 56.624758 15.03639 
L 58.027905 15.593367 
L 58.18381 15.506641 
L 58.495621 15.209563 
L 59.509005 16.441082 
L 60.522389 18.234454 
L 61.769631 23.249986 
L 62.003488 23.216607 
L 63.094825 19.678563 
L 63.328683 19.343687 
L 63.718446 19.058174 
L 64.497972 18.909072 
L 64.809783 18.989719 
L 66.290882 17.883321 
L 66.758598 17.724858 
L 67.148361 17.768025 
L 67.616077 17.389 
L 69.097176 17.196385 
L 69.720797 17.540206 
L 69.876703 17.566476 
L 70.344418 17.499589 
L 72.059376 18.21631 
L 72.605044 18.762443 
L 73.774333 20.357788 
L 74.320002 22.006485 
L 75.567244 26.302686 
L 75.723149 26.381774 
L 76.580628 26.011249 
L 76.892438 26.019842 
L 77.282201 26.393176 
L 77.749917 27.491765 
L 78.217633 29.372846 
L 78.45149 30.758142 
L 79.386922 37.768928 
L 79.776685 39.084502 
L 80.088495 40.119784 
L 80.400306 41.762319 
L 81.959358 54.41145 
L 82.271169 54.673148 
L 82.89479 51.527314 
L 84.6877 40.992108 
L 84.99951 40.330713 
L 85.623131 41.85347 
L 85.779036 42.319468 
L 86.168799 41.532252 
L 86.79242 38.000633 
L 88.117615 33.373108 
L 88.897141 31.616351 
L 89.676667 31.063862 
L 90.456193 31.36584 
L 90.923909 31.223562 
L 91.313672 30.630143 
L 92.249104 28.509818 
L 93.02863 27.301436 
L 94.042014 26.118923 
L 94.431777 25.94017 
L 94.82154 25.949471 
L 95.445161 25.149585 
L 95.912877 24.589553 
L 96.536497 24.542246 
L 96.926261 24.312294 
L 97.316024 24.134604 
L 97.705787 23.934798 
L 98.329408 23.625549 
L 98.875076 23.638635 
L 99.498697 23.40248 
L 99.810507 23.267355 
L 101.993181 25.564088 
L 103.084517 26.600488 
L 103.708138 27.620843 
L 104.721522 30.019331 
L 105.345143 31.694634 
L 106.982148 37.51103 
L 107.683722 39.450192 
L 108.385295 40.886083 
L 109.320727 41.349379 
L 109.554584 41.425399 
L 110.957731 38.772451 
L 112.282926 35.701432 
L 113.140405 35.143958 
L 113.919931 35.68129 
L 114.933315 37.856803 
L 115.634888 39.975232 
L 116.336462 42.954896 
L 117.193941 48.845599 
L 117.973467 56.801598 
L 118.67504 67.056224 
L 119.766377 90.700978 
L 120.15614 98.601048 
L 120.857714 102.13886 
L 121.793145 89.919417 
L 122.884482 83.204666 
L 123.508103 78.314618 
L 124.131724 73.595337 
L 125.612823 67.727576 
L 126.626207 60.424563 
L 127.327781 55.252692 
L 128.18526 51.658163 
L 128.808881 49.870689 
L 129.588407 48.772172 
L 130.367933 48.333203 
L 131.069507 48.37917 
L 132.394701 49.984778 
L 132.940369 50.87383 
L 134.889185 54.077466 
L 136.136427 53.890581 
L 136.52619 53.845007 
L 137.305716 54.173532 
L 138.007289 53.811289 
L 140.11201 56.064331 
L 140.657678 56.699042 
L 142.138778 58.544091 
L 142.840352 59.410426 
L 143.69783 60.87697 
L 144.399404 61.412435 
L 145.100977 61.540927 
L 146.036409 62.562012 
L 146.893888 64.096072 
L 147.439556 65.120541 
L 148.45294 65.212566 
L 148.998608 65.296294 
L 149.778134 64.847569 
L 150.557661 65.182423 
L 151.804902 64.873149 
L 152.03876 64.843177 
L 153.286002 66.795212 
L 153.753718 67.790717 
L 154.689149 70.70601 
L 155.702533 74.094154 
L 156.248202 76.027723 
L 158.041112 83.558386 
L 159.989927 93.123225 
L 161.315122 98.516929 
L 163.108032 103.669998 
L 163.731653 104.375486 
L 165.368658 105.840609 
L 165.992279 105.221361 
L 168.72062 102.084632 
L 170.20172 100.583356 
L 170.20172 100.583356 
" clip-path="url(#paf83901c00)" style="fill: none; stroke: #1f77b4; stroke-width: 0.5; stroke-linecap: square"/>
   </g>
   <g id="line2d_60"/>
   <g id="patch_3">
    <path d="M 36.279125 145.084197 
L 36.279125 12.5975 
" style="fill: none; stroke: #000000; stroke-linejoin: miter; stroke-linecap: square"/>
   </g>
   <g id="patch_4">
    <path d="M 36.279125 145.084197 
L 221.026826 145.084197 
" style="fill: none; stroke: #000000; stroke-linejoin: miter; stroke-linecap: square"/>
   </g>
   <g id="text_13">
    <text style="font: 8px 'Futura', sans-serif; text-anchor: middle" x="128.652975" y="6.5975" transform="rotate(-0 128.652975 6.5975)">Bassanite</text>
   </g>
   <g id="legend_1">
    <g id="patch_5">
     <path d="M 228.92178 84.491161 
L 271.667092 84.491161 
Q 272.867092 84.491161 272.867092 83.291161 
L 272.867092 74.390536 
Q 272.867092 73.190536 271.667092 73.190536 
L 228.92178 73.190536 
Q 227.72178 73.190536 227.72178 74.390536 
L 227.72178 83.291161 
Q 227.72178 84.491161 228.92178 84.491161 
z
" style="fill: #ffffff; opacity: 0.8; stroke: #cccccc; stroke-width: 0.8; stroke-linejoin: miter"/>
    </g>
    <g id="line2d_61">
     <path d="M 230.12178 78.438661 
L 236.12178 78.438661 
L 242.12178 78.438661 
" style="fill: none; stroke: #1f77b4; stroke-width: 1.2; stroke-linecap: square"/>
    </g>
    <g id="text_14">
     <text style="font: 6px 'Futura', sans-serif; text-anchor: start" x="246.92178" y="80.538661" transform="rotate(-0 246.92178 80.538661)">GDS145</text>
    </g>
   </g>
  </g>
 </g>
 <defs>
  <clipPath id="paf83901c00">
   <rect x="36.279125" y="12.5975" width="184.747701" height="132.486697"/>
  </clipPath>
 </defs>
</svg>
