<?xml version="1.0" encoding="utf-8" standalone="no"?>
<!DOCTYPE svg PUBLIC "-//W3C//DTD SVG 1.1//EN"
  "http://www.w3.org/Graphics/SVG/1.1/DTD/svg11.dtd">
<svg xmlns:xlink="http://www.w3.org/1999/xlink" width="272.119855pt" height="176.855697pt" viewBox="0 0 272.119855 176.855697" xmlns="http://www.w3.org/2000/svg" version="1.1">
 <metadata>
  <rdf:RDF xmlns:dc="http://purl.org/dc/elements/1.1/" xmlns:cc="http://creativecommons.org/ns#" xmlns:rdf="http://www.w3.org/1999/02/22-rdf-syntax-ns#">
   <cc:Work>
    <dc:type rdf:resource="http://purl.org/dc/dcmitype/StillImage"/>
    <dc:date>2025-02-13T12:52:24.650710</dc:date>
    <dc:format>image/svg+xml</dc:format>
    <dc:creator>
     <cc:Agent>
      <dc:title>Matplotlib v3.6.2, https://matplotlib.org/</dc:title>
     </cc:Agent>
    </dc:creator>
   </cc:Work>
  </rdf:RDF>
 </metadata>
 <defs>
  <style type="text/css">*{stroke-linejoin: round; stroke-linecap: butt}</style>
 </defs>
 <g id="figure_1">
  <g id="patch_1">
   <path d="M 0 176.855697 
L 272.119855 176.855697 
L 272.119855 0 
L 0 0 
z
" style="fill: #ffffff"/>
  </g>
  <g id="axes_1">
   <g id="patch_2">
    <path d="M 41.18475 146.747947 
L 189.242451 146.747947 
L 189.242451 12.07875 
L 41.18475 12.07875 
z
" style="fill: #ffffff"/>
   </g>
   <g id="matplotlib.axis_1">
    <g id="xtick_1">
     <g id="line2d_1">
      <path d="M 51.180207 146.747947 
L 51.180207 12.07875 
" clip-path="url(#pe7cf727f98)" style="fill: none; stroke: #b0b0b0; stroke-width: 0.6; stroke-linecap: square"/>
     </g>
     <g id="line2d_2">
      <defs>
       <path id="m38c1889ea8" d="M 0 0 
L 0 4.8 
" style="stroke: #000000"/>
      </defs>
      <g>
       <use xlink:href="#m38c1889ea8" x="51.180207" y="146.747947" style="stroke: #000000"/>
      </g>
     </g>
     <g id="text_1">
      <text style="font: 8.8px 'DejaVu Sans', 'Bitstream Vera Sans', 'Computer Modern Sans Serif', 'Lucida Grande', 'Verdana', 'Geneva', 'Lucid', 'Arial', 'Helvetica', 'Avant Garde', sans-serif; text-anchor: middle" x="51.180207" y="161.734572" transform="rotate(-0 51.180207 161.734572)">1000</text>
     </g>
    </g>
    <g id="xtick_2">
     <g id="line2d_3">
      <path d="M 82.416008 146.747947 
L 82.416008 12.07875 
" clip-path="url(#pe7cf727f98)" style="fill: none; stroke: #b0b0b0; stroke-width: 0.6; stroke-linecap: square"/>
     </g>
     <g id="line2d_4">
      <g>
       <use xlink:href="#m38c1889ea8" x="82.416008" y="146.747947" style="stroke: #000000"/>
      </g>
     </g>
     <g id="text_2">
      <text style="font: 8.8px 'DejaVu Sans', 'Bitstream Vera Sans', 'Computer Modern Sans Serif', 'Lucida Grande', 'Verdana', 'Geneva', 'Lucid', 'Arial', 'Helvetica', 'Avant Garde', sans-serif; text-anchor: middle" x="82.416008" y="161.734572" transform="rotate(-0 82.416008 161.734572)">1500</text>
     </g>
    </g>
    <g id="xtick_3">
     <g id="line2d_5">
      <path d="M 113.65181 146.747947 
L 113.65181 12.07875 
" clip-path="url(#pe7cf727f98)" style="fill: none; stroke: #b0b0b0; stroke-width: 0.6; stroke-linecap: square"/>
     </g>
     <g id="line2d_6">
      <g>
       <use xlink:href="#m38c1889ea8" x="113.65181" y="146.747947" style="stroke: #000000"/>
      </g>
     </g>
     <g id="text_3">
      <text style="font: 8.8px 'DejaVu Sans', 'Bitstream Vera Sans', 'Computer Modern Sans Serif', 'Lucida Grande', 'Verdana', 'Geneva', 'Lucid', 'Arial', 'Helvetica', 'Avant Garde', sans-serif; text-anchor: middle" x="113.65181" y="161.734572" transform="rotate(-0 113.65181 161.734572)">2000</text>
     </g>
    </g>
    <g id="xtick_4">
     <g id="line2d_7">
      <path d="M 144.887612 146.747947 
L 144.887612 12.07875 
" clip-path="url(#pe7cf727f98)" style="fill: none; stroke: #b0b0b0; stroke-width: 0.6; stroke-linecap: square"/>
     </g>
     <g id="line2d_8">
      <g>
       <use xlink:href="#m38c1889ea8" x="144.887612" y="146.747947" style="stroke: #000000"/>
      </g>
     </g>
     <g id="text_4">
      <text style="font: 8.8px 'DejaVu Sans', 'Bitstream Vera Sans', 'Computer Modern Sans Serif', 'Lucida Grande', 'Verdana', 'Geneva', 'Lucid', 'Arial', 'Helvetica', 'Avant Garde', sans-serif; text-anchor: middle" x="144.887612" y="161.734572" transform="rotate(-0 144.887612 161.734572)">2500</text>
     </g>
    </g>
    <g id="xtick_5">
     <g id="line2d_9">
      <path d="M 176.123414 146.747947 
L 176.123414 12.07875 
" clip-path="url(#pe7cf727f98)" style="fill: none; stroke: #b0b0b0; stroke-width: 0.6; stroke-linecap: square"/>
     </g>
     <g id="line2d_10">
      <g>
       <use xlink:href="#m38c1889ea8" x="176.123414" y="146.747947" style="stroke: #000000"/>
      </g>
     </g>
     <g id="text_5">
      <text style="font: 8.8px 'DejaVu Sans', 'Bitstream Vera Sans', 'Computer Modern Sans Serif', 'Lucida Grande', 'Verdana', 'Geneva', 'Lucid', 'Arial', 'Helvetica', 'Avant Garde', sans-serif; text-anchor: middle" x="176.123414" y="161.734572" transform="rotate(-0 176.123414 161.734572)">3000</text>
     </g>
    </g>
    <g id="xtick_6">
     <g id="line2d_11">
      <path d="M 44.933046 146.747947 
L 44.933046 12.07875 
" clip-path="url(#pe7cf727f98)" style="fill: none; stroke: #b0b0b0; stroke-width: 0.3; stroke-linecap: square"/>
     </g>
     <g id="line2d_12">
      <defs>
       <path id="me6223b5d0a" d="M 0 0 
L 0 3.2 
" style="stroke: #000000; stroke-width: 0.8"/>
      </defs>
      <g>
       <use xlink:href="#me6223b5d0a" x="44.933046" y="146.747947" style="stroke: #000000; stroke-width: 0.8"/>
      </g>
     </g>
    </g>
    <g id="xtick_7">
     <g id="line2d_13">
      <path d="M 57.427367 146.747947 
L 57.427367 12.07875 
" clip-path="url(#pe7cf727f98)" style="fill: none; stroke: #b0b0b0; stroke-width: 0.3; stroke-linecap: square"/>
     </g>
     <g id="line2d_14">
      <g>
       <use xlink:href="#me6223b5d0a" x="57.427367" y="146.747947" style="stroke: #000000; stroke-width: 0.8"/>
      </g>
     </g>
    </g>
    <g id="xtick_8">
     <g id="line2d_15">
      <path d="M 63.674527 146.747947 
L 63.674527 12.07875 
" clip-path="url(#pe7cf727f98)" style="fill: none; stroke: #b0b0b0; stroke-width: 0.3; stroke-linecap: square"/>
     </g>
     <g id="line2d_16">
      <g>
       <use xlink:href="#me6223b5d0a" x="63.674527" y="146.747947" style="stroke: #000000; stroke-width: 0.8"/>
      </g>
     </g>
    </g>
    <g id="xtick_9">
     <g id="line2d_17">
      <path d="M 69.921688 146.747947 
L 69.921688 12.07875 
" clip-path="url(#pe7cf727f98)" style="fill: none; stroke: #b0b0b0; stroke-width: 0.3; stroke-linecap: square"/>
     </g>
     <g id="line2d_18">
      <g>
       <use xlink:href="#me6223b5d0a" x="69.921688" y="146.747947" style="stroke: #000000; stroke-width: 0.8"/>
      </g>
     </g>
    </g>
    <g id="xtick_10">
     <g id="line2d_19">
      <path d="M 76.168848 146.747947 
L 76.168848 12.07875 
" clip-path="url(#pe7cf727f98)" style="fill: none; stroke: #b0b0b0; stroke-width: 0.3; stroke-linecap: square"/>
     </g>
     <g id="line2d_20">
      <g>
       <use xlink:href="#me6223b5d0a" x="76.168848" y="146.747947" style="stroke: #000000; stroke-width: 0.8"/>
      </g>
     </g>
    </g>
    <g id="xtick_11">
     <g id="line2d_21">
      <path d="M 88.663169 146.747947 
L 88.663169 12.07875 
" clip-path="url(#pe7cf727f98)" style="fill: none; stroke: #b0b0b0; stroke-width: 0.3; stroke-linecap: square"/>
     </g>
     <g id="line2d_22">
      <g>
       <use xlink:href="#me6223b5d0a" x="88.663169" y="146.747947" style="stroke: #000000; stroke-width: 0.8"/>
      </g>
     </g>
    </g>
    <g id="xtick_12">
     <g id="line2d_23">
      <path d="M 94.910329 146.747947 
L 94.910329 12.07875 
" clip-path="url(#pe7cf727f98)" style="fill: none; stroke: #b0b0b0; stroke-width: 0.3; stroke-linecap: square"/>
     </g>
     <g id="line2d_24">
      <g>
       <use xlink:href="#me6223b5d0a" x="94.910329" y="146.747947" style="stroke: #000000; stroke-width: 0.8"/>
      </g>
     </g>
    </g>
    <g id="xtick_13">
     <g id="line2d_25">
      <path d="M 101.15749 146.747947 
L 101.15749 12.07875 
" clip-path="url(#pe7cf727f98)" style="fill: none; stroke: #b0b0b0; stroke-width: 0.3; stroke-linecap: square"/>
     </g>
     <g id="line2d_26">
      <g>
       <use xlink:href="#me6223b5d0a" x="101.15749" y="146.747947" style="stroke: #000000; stroke-width: 0.8"/>
      </g>
     </g>
    </g>
    <g id="xtick_14">
     <g id="line2d_27">
      <path d="M 107.40465 146.747947 
L 107.40465 12.07875 
" clip-path="url(#pe7cf727f98)" style="fill: none; stroke: #b0b0b0; stroke-width: 0.3; stroke-linecap: square"/>
     </g>
     <g id="line2d_28">
      <g>
       <use xlink:href="#me6223b5d0a" x="107.40465" y="146.747947" style="stroke: #000000; stroke-width: 0.8"/>
      </g>
     </g>
    </g>
    <g id="xtick_15">
     <g id="line2d_29">
      <path d="M 119.898971 146.747947 
L 119.898971 12.07875 
" clip-path="url(#pe7cf727f98)" style="fill: none; stroke: #b0b0b0; stroke-width: 0.3; stroke-linecap: square"/>
     </g>
     <g id="line2d_30">
      <g>
       <use xlink:href="#me6223b5d0a" x="119.898971" y="146.747947" style="stroke: #000000; stroke-width: 0.8"/>
      </g>
     </g>
    </g>
    <g id="xtick_16">
     <g id="line2d_31">
      <path d="M 126.146131 146.747947 
L 126.146131 12.07875 
" clip-path="url(#pe7cf727f98)" style="fill: none; stroke: #b0b0b0; stroke-width: 0.3; stroke-linecap: square"/>
     </g>
     <g id="line2d_32">
      <g>
       <use xlink:href="#me6223b5d0a" x="126.146131" y="146.747947" style="stroke: #000000; stroke-width: 0.8"/>
      </g>
     </g>
    </g>
    <g id="xtick_17">
     <g id="line2d_33">
      <path d="M 132.393291 146.747947 
L 132.393291 12.07875 
" clip-path="url(#pe7cf727f98)" style="fill: none; stroke: #b0b0b0; stroke-width: 0.3; stroke-linecap: square"/>
     </g>
     <g id="line2d_34">
      <g>
       <use xlink:href="#me6223b5d0a" x="132.393291" y="146.747947" style="stroke: #000000; stroke-width: 0.8"/>
      </g>
     </g>
    </g>
    <g id="xtick_18">
     <g id="line2d_35">
      <path d="M 138.640452 146.747947 
L 138.640452 12.07875 
" clip-path="url(#pe7cf727f98)" style="fill: none; stroke: #b0b0b0; stroke-width: 0.3; stroke-linecap: square"/>
     </g>
     <g id="line2d_36">
      <g>
       <use xlink:href="#me6223b5d0a" x="138.640452" y="146.747947" style="stroke: #000000; stroke-width: 0.8"/>
      </g>
     </g>
    </g>
    <g id="xtick_19">
     <g id="line2d_37">
      <path d="M 151.134773 146.747947 
L 151.134773 12.07875 
" clip-path="url(#pe7cf727f98)" style="fill: none; stroke: #b0b0b0; stroke-width: 0.3; stroke-linecap: square"/>
     </g>
     <g id="line2d_38">
      <g>
       <use xlink:href="#me6223b5d0a" x="151.134773" y="146.747947" style="stroke: #000000; stroke-width: 0.8"/>
      </g>
     </g>
    </g>
    <g id="xtick_20">
     <g id="line2d_39">
      <path d="M 157.381933 146.747947 
L 157.381933 12.07875 
" clip-path="url(#pe7cf727f98)" style="fill: none; stroke: #b0b0b0; stroke-width: 0.3; stroke-linecap: square"/>
     </g>
     <g id="line2d_40">
      <g>
       <use xlink:href="#me6223b5d0a" x="157.381933" y="146.747947" style="stroke: #000000; stroke-width: 0.8"/>
      </g>
     </g>
    </g>
    <g id="xtick_21">
     <g id="line2d_41">
      <path d="M 163.629093 146.747947 
L 163.629093 12.07875 
" clip-path="url(#pe7cf727f98)" style="fill: none; stroke: #b0b0b0; stroke-width: 0.3; stroke-linecap: square"/>
     </g>
     <g id="line2d_42">
      <g>
       <use xlink:href="#me6223b5d0a" x="163.629093" y="146.747947" style="stroke: #000000; stroke-width: 0.8"/>
      </g>
     </g>
    </g>
    <g id="xtick_22">
     <g id="line2d_43">
      <path d="M 169.876254 146.747947 
L 169.876254 12.07875 
" clip-path="url(#pe7cf727f98)" style="fill: none; stroke: #b0b0b0; stroke-width: 0.3; stroke-linecap: square"/>
     </g>
     <g id="line2d_44">
      <g>
       <use xlink:href="#me6223b5d0a" x="169.876254" y="146.747947" style="stroke: #000000; stroke-width: 0.8"/>
      </g>
     </g>
    </g>
    <g id="xtick_23">
     <g id="line2d_45">
      <path d="M 182.370574 146.747947 
L 182.370574 12.07875 
" clip-path="url(#pe7cf727f98)" style="fill: none; stroke: #b0b0b0; stroke-width: 0.3; stroke-linecap: square"/>
     </g>
     <g id="line2d_46">
      <g>
       <use xlink:href="#me6223b5d0a" x="182.370574" y="146.747947" style="stroke: #000000; stroke-width: 0.8"/>
      </g>
     </g>
    </g>
    <g id="xtick_24">
     <g id="line2d_47">
      <path d="M 188.617735 146.747947 
L 188.617735 12.07875 
" clip-path="url(#pe7cf727f98)" style="fill: none; stroke: #b0b0b0; stroke-width: 0.3; stroke-linecap: square"/>
     </g>
     <g id="line2d_48">
      <g>
       <use xlink:href="#me6223b5d0a" x="188.617735" y="146.747947" style="stroke: #000000; stroke-width: 0.8"/>
      </g>
     </g>
    </g>
    <g id="text_6">
     <text style="font: 9.6px 'DejaVu Sans', 'Bitstream Vera Sans', 'Computer Modern Sans Serif', 'Lucida Grande', 'Verdana', 'Geneva', 'Lucid', 'Arial', 'Helvetica', 'Avant Garde', sans-serif; text-anchor: middle" x="115.2136" y="174.859197" transform="rotate(-0 115.2136 174.859197)">Wavelength (nm)</text>
    </g>
   </g>
   <g id="matplotlib.axis_2">
    <g id="ytick_1">
     <g id="line2d_49">
      <path d="M 41.18475 138.407022 
L 189.242451 138.407022 
" clip-path="url(#pe7cf727f98)" style="fill: none; stroke: #b0b0b0; stroke-width: 0.6; stroke-linecap: square"/>
     </g>
     <g id="line2d_50">
      <defs>
       <path id="ma442d37e4c" d="M 0 0 
L -4.8 0 
" style="stroke: #000000"/>
      </defs>
      <g>
       <use xlink:href="#ma442d37e4c" x="41.18475" y="138.407022" style="stroke: #000000"/>
      </g>
     </g>
     <g id="text_7">
      <text style="font: 8.8px 'DejaVu Sans', 'Bitstream Vera Sans', 'Computer Modern Sans Serif', 'Lucida Grande', 'Verdana', 'Geneva', 'Lucid', 'Arial', 'Helvetica', 'Avant Garde', sans-serif; text-anchor: end" x="32.88475" y="141.750335" transform="rotate(-0 32.88475 141.750335)">0.30</text>
     </g>
    </g>
    <g id="ytick_2">
     <g id="line2d_51">
      <path d="M 41.18475 116.601792 
L 189.242451 116.601792 
" clip-path="url(#pe7cf727f98)" style="fill: none; stroke: #b0b0b0; stroke-width: 0.6; stroke-linecap: square"/>
     </g>
     <g id="line2d_52">
      <g>
       <use xlink:href="#ma442d37e4c" x="41.18475" y="116.601792" style="stroke: #000000"/>
      </g>
     </g>
     <g id="text_8">
      <text style="font: 8.8px 'DejaVu Sans', 'Bitstream Vera Sans', 'Computer Modern Sans Serif', 'Lucida Grande', 'Verdana', 'Geneva', 'Lucid', 'Arial', 'Helvetica', 'Avant Garde', sans-serif; text-anchor: end" x="32.88475" y="119.945105" transform="rotate(-0 32.88475 119.945105)">0.35</text>
     </g>
    </g>
    <g id="ytick_3">
     <g id="line2d_53">
      <path d="M 41.18475 94.796563 
L 189.242451 94.796563 
" clip-path="url(#pe7cf727f98)" style="fill: none; stroke: #b0b0b0; stroke-width: 0.6; stroke-linecap: square"/>
     </g>
     <g id="line2d_54">
      <g>
       <use xlink:href="#ma442d37e4c" x="41.18475" y="94.796563" style="stroke: #000000"/>
      </g>
     </g>
     <g id="text_9">
      <text style="font: 8.8px 'DejaVu Sans', 'Bitstream Vera Sans', 'Computer Modern Sans Serif', 'Lucida Grande', 'Verdana', 'Geneva', 'Lucid', 'Arial', 'Helvetica', 'Avant Garde', sans-serif; text-anchor: end" x="32.88475" y="98.139875" transform="rotate(-0 32.88475 98.139875)">0.40</text>
     </g>
    </g>
    <g id="ytick_4">
     <g id="line2d_55">
      <path d="M 41.18475 72.991333 
L 189.242451 72.991333 
" clip-path="url(#pe7cf727f98)" style="fill: none; stroke: #b0b0b0; stroke-width: 0.6; stroke-linecap: square"/>
     </g>
     <g id="line2d_56">
      <g>
       <use xlink:href="#ma442d37e4c" x="41.18475" y="72.991333" style="stroke: #000000"/>
      </g>
     </g>
     <g id="text_10">
      <text style="font: 8.8px 'DejaVu Sans', 'Bitstream Vera Sans', 'Computer Modern Sans Serif', 'Lucida Grande', 'Verdana', 'Geneva', 'Lucid', 'Arial', 'Helvetica', 'Avant Garde', sans-serif; text-anchor: end" x="32.88475" y="76.334645" transform="rotate(-0 32.88475 76.334645)">0.45</text>
     </g>
    </g>
    <g id="ytick_5">
     <g id="line2d_57">
      <path d="M 41.18475 51.186103 
L 189.242451 51.186103 
" clip-path="url(#pe7cf727f98)" style="fill: none; stroke: #b0b0b0; stroke-width: 0.6; stroke-linecap: square"/>
     </g>
     <g id="line2d_58">
      <g>
       <use xlink:href="#ma442d37e4c" x="41.18475" y="51.186103" style="stroke: #000000"/>
      </g>
     </g>
     <g id="text_11">
      <text style="font: 8.8px 'DejaVu Sans', 'Bitstream Vera Sans', 'Computer Modern Sans Serif', 'Lucida Grande', 'Verdana', 'Geneva', 'Lucid', 'Arial', 'Helvetica', 'Avant Garde', sans-serif; text-anchor: end" x="32.88475" y="54.529415" transform="rotate(-0 32.88475 54.529415)">0.50</text>
     </g>
    </g>
    <g id="ytick_6">
     <g id="line2d_59">
      <path d="M 41.18475 29.380873 
L 189.242451 29.380873 
" clip-path="url(#pe7cf727f98)" style="fill: none; stroke: #b0b0b0; stroke-width: 0.6; stroke-linecap: square"/>
     </g>
     <g id="line2d_60">
      <g>
       <use xlink:href="#ma442d37e4c" x="41.18475" y="29.380873" style="stroke: #000000"/>
      </g>
     </g>
     <g id="text_12">
      <text style="font: 8.8px 'DejaVu Sans', 'Bitstream Vera Sans', 'Computer Modern Sans Serif', 'Lucida Grande', 'Verdana', 'Geneva', 'Lucid', 'Arial', 'Helvetica', 'Avant Garde', sans-serif; text-anchor: end" x="32.88475" y="32.724186" transform="rotate(-0 32.88475 32.724186)">0.55</text>
     </g>
    </g>
    <g id="text_13">
     <text style="font: 9.6px 'DejaVu Sans', 'Bitstream Vera Sans', 'Computer Modern Sans Serif', 'Lucida Grande', 'Verdana', 'Geneva', 'Lucid', 'Arial', 'Helvetica', 'Avant Garde', sans-serif; text-anchor: middle" x="7.2945" y="79.413348" transform="rotate(-90 7.2945 79.413348)">Reflectance</text>
    </g>
   </g>
   <g id="line2d_61">
    <path d="M 41.809466 88.808251 
L 42.434182 91.388635 
L 43.12137 91.200268 
L 43.871029 91.861534 
L 43.995972 91.843775 
L 44.620688 90.510614 
L 45.307876 90.977202 
L 45.807649 91.509036 
L 45.87012 91.55432 
L 46.557308 90.407497 
L 46.994609 90.213564 
L 47.244496 89.937063 
L 47.494382 89.677454 
L 48.056626 89.73978 
L 48.368984 88.764971 
L 48.431456 88.80549 
L 48.743814 89.089364 
L 48.9937 89.576551 
L 49.680888 87.870163 
L 50.180661 87.13957 
L 50.867849 86.383153 
L 50.93032 86.490311 
L 51.30515 86.962723 
L 51.617508 86.980861 
L 51.867394 86.975275 
L 52.242224 87.259835 
L 52.429639 87.292354 
L 52.86694 86.561157 
L 53.116826 86.594094 
L 53.554128 86.959294 
L 53.866486 86.956217 
L 54.116372 86.811192 
L 54.366258 86.656773 
L 54.741088 86.711256 
L 55.240861 86.675779 
L 55.61569 87.202035 
L 55.99052 87.27316 
L 56.36535 87.436258 
L 56.490293 87.449734 
L 56.927594 86.822603 
L 57.177481 86.674581 
L 58.114555 85.46995 
L 58.676799 85.710159 
L 59.1141 84.721046 
L 60.238589 83.561819 
L 60.800834 82.44236 
L 61.612964 81.162581 
L 61.925322 80.803234 
L 62.112737 80.802766 
L 62.674982 78.986151 
L 63.174755 77.472183 
L 63.487113 77.1521 
L 63.674527 77.132355 
L 64.799016 73.96983 
L 66.235863 70.420038 
L 66.673164 69.352624 
L 67.110466 68.712892 
L 68.04754 65.888971 
L 68.422369 65.047874 
L 68.984614 63.200179 
L 69.421915 62.571333 
L 70.234046 60.552275 
L 70.79629 59.078301 
L 71.046177 58.392368 
L 71.421006 57.560824 
L 71.920779 56.450262 
L 72.483023 54.886729 
L 72.920325 54.022714 
L 73.295154 52.793756 
L 73.420098 52.573242 
L 73.669984 52.604809 
L 74.107285 51.37256 
L 74.2947 51.16406 
L 74.607058 52.168177 
L 74.66953 52.065109 
L 74.919416 51.652836 
L 74.981888 51.713113 
L 75.231774 51.954222 
L 75.731547 56.030576 
L 75.85649 57.346375 
L 76.23132 73.252184 
L 76.793564 107.109695 
L 77.168394 91.421465 
L 77.730638 59.025877 
L 78.230411 52.234173 
L 79.042542 46.8372 
L 79.479843 45.126716 
L 80.354446 43.365658 
L 80.604332 42.70192 
L 81.041633 41.125299 
L 81.916236 39.303098 
L 82.166122 39.079988 
L 82.728366 39.272103 
L 83.103196 38.243911 
L 83.665441 38.33843 
L 83.977799 37.678524 
L 84.352628 38.446018 
L 84.914873 38.36237 
L 85.414645 36.631335 
L 85.727003 35.764601 
L 86.226776 34.490325 
L 86.789021 34.213672 
L 87.601152 32.107374 
L 87.91351 31.297889 
L 88.413282 30.133764 
L 88.788112 29.802072 
L 88.975527 29.804958 
L 89.787658 27.573057 
L 90.849675 25.637752 
L 91.224505 25.486224 
L 91.849221 24.405373 
L 92.286522 23.689752 
L 92.973709 23.12752 
L 93.348539 22.996568 
L 93.78584 22.863038 
L 93.973255 22.702707 
L 94.473028 21.024996 
L 94.722914 20.687627 
L 95.097744 20.31213 
L 95.34763 20.1076 
L 95.597517 20.136126 
L 95.972346 20.46841 
L 96.284704 20.400826 
L 96.534591 20.177326 
L 97.096835 19.343261 
L 98.096381 18.632059 
L 98.783569 19.000012 
L 99.095927 18.988736 
L 100.157944 18.573983 
L 100.470302 18.508021 
L 100.657717 18.373773 
L 100.907603 18.248665 
L 101.469848 18.819069 
L 102.906694 20.480903 
L 103.593882 21.142878 
L 104.156127 21.723498 
L 104.780843 21.931095 
L 105.343087 21.968209 
L 105.905331 22.386404 
L 106.467576 23.53711 
L 106.530047 23.446797 
L 107.092292 22.63398 
L 107.717008 24.492437 
L 107.77948 24.469749 
L 108.341724 24.265588 
L 109.153855 25.487653 
L 109.591156 25.738608 
L 110.215872 27.941432 
L 110.278344 27.903517 
L 110.90306 27.639305 
L 112.277435 29.467911 
L 113.027094 31.165788 
L 113.339452 31.69401 
L 113.401924 31.617744 
L 114.02664 30.74855 
L 115.276072 26.837717 
L 116.400561 22.244285 
L 116.525504 22.003551 
L 117.275163 21.948501 
L 117.774936 22.055528 
L 118.524595 21.479795 
L 119.08684 21.437134 
L 119.649084 21.815272 
L 120.398744 23.40921 
L 120.898516 25.08819 
L 121.523232 29.457602 
L 122.522778 45.948351 
L 122.897608 51.24985 
L 123.647267 59.721798 
L 124.084568 66.72852 
L 125.396472 99.02312 
L 126.458489 134.620985 
L 127.333092 99.306703 
L 127.832864 79.580579 
L 128.332637 75.72519 
L 129.269711 95.05295 
L 129.644541 102.928749 
L 130.206785 104.052973 
L 130.956445 95.279404 
L 131.456217 93.819737 
L 132.705649 117.732658 
L 133.767667 124.128309 
L 134.017553 126.391948 
L 134.767212 136.889638 
L 135.204514 140.62662 
L 135.266985 140.345753 
L 136.079116 136.240814 
L 136.578889 132.426638 
L 137.141133 126.626259 
L 137.703378 126.56927 
L 138.453037 129.237894 
L 138.95281 130.777351 
L 141.139316 136.524269 
L 141.201788 136.360578 
L 143.825595 129.785314 
L 144.637726 128.054214 
L 145.012555 128.267187 
L 148.510965 131.859589 
L 148.510965 131.859589 
" clip-path="url(#pe7cf727f98)" style="fill: none; stroke: #1f77b4; stroke-width: 0.5; stroke-linecap: square"/>
   </g>
   <g id="line2d_62"/>
   <g id="patch_3">
    <path d="M 41.18475 146.747947 
L 41.18475 12.07875 
" style="fill: none; stroke: #000000; stroke-linejoin: miter; stroke-linecap: square"/>
   </g>
   <g id="patch_4">
    <path d="M 189.242451 146.747947 
L 189.242451 12.07875 
" style="fill: none; stroke: #000000; stroke-linejoin: miter; stroke-linecap: square"/>
   </g>
   <g id="patch_5">
    <path d="M 41.18475 146.747947 
L 189.242451 146.747947 
" style="fill: none; stroke: #000000; stroke-linejoin: miter; stroke-linecap: square"/>
   </g>
   <g id="patch_6">
    <path d="M 41.18475 12.07875 
L 189.242451 12.07875 
" style="fill: none; stroke: #000000; stroke-linejoin: miter; stroke-linecap: square"/>
   </g>
   <g id="text_14">
    <text style="font: 8px 'DejaVu Sans', 'Bitstream Vera Sans', 'Computer Modern Sans Serif', 'Lucida Grande', 'Verdana', 'Geneva', 'Lucid', 'Arial', 'Helvetica', 'Avant Garde', sans-serif; text-anchor: middle" x="115.2136" y="6.07875" transform="rotate(-0 115.2136 6.07875)">Laboratory Phyllosilicate Margarite</text>
   </g>
   <g id="legend_1">
    <g id="patch_7">
     <path d="M 196.403605 84.716786 
L 270.919855 84.716786 
Q 272.119855 84.716786 272.119855 83.516786 
L 272.119855 75.309911 
Q 272.119855 74.109911 270.919855 74.109911 
L 196.403605 74.109911 
Q 195.203605 74.109911 195.203605 75.309911 
L 195.203605 83.516786 
Q 195.203605 84.716786 196.403605 84.716786 
z
" style="fill: #ffffff; opacity: 0.8; stroke: #cccccc; stroke-width: 0.8; stroke-linejoin: miter"/>
    </g>
    <g id="line2d_63">
     <path d="M 197.603605 78.968973 
L 203.603605 78.968973 
L 209.603605 78.968973 
" style="fill: none; stroke: #1f77b4; stroke-width: 1.2; stroke-linecap: square"/>
    </g>
    <g id="text_15">
     <text style="font: 6px 'DejaVu Sans', 'Bitstream Vera Sans', 'Computer Modern Sans Serif', 'Lucida Grande', 'Verdana', 'Geneva', 'Lucid', 'Arial', 'Helvetica', 'Avant Garde', sans-serif; text-anchor: start" x="214.403605" y="81.068973" transform="rotate(-0 214.403605 81.068973)">Margarite GDS106</text>
    </g>
   </g>
  </g>
 </g>
 <defs>
  <clipPath id="pe7cf727f98">
   <rect x="41.18475" y="12.07875" width="148.057701" height="134.669197"/>
  </clipPath>
 </defs>
</svg>
