<?xml version="1.0" encoding="utf-8" standalone="no"?>
<!DOCTYPE svg PUBLIC "-//W3C//DTD SVG 1.1//EN"
  "http://www.w3.org/Graphics/SVG/1.1/DTD/svg11.dtd">
<svg xmlns:xlink="http://www.w3.org/1999/xlink" width="272.263642pt" height="176.855697pt" viewBox="0 0 272.263642 176.855697" xmlns="http://www.w3.org/2000/svg" version="1.1">
 <metadata>
  <rdf:RDF xmlns:dc="http://purl.org/dc/elements/1.1/" xmlns:cc="http://creativecommons.org/ns#" xmlns:rdf="http://www.w3.org/1999/02/22-rdf-syntax-ns#">
   <cc:Work>
    <dc:type rdf:resource="http://purl.org/dc/dcmitype/StillImage"/>
    <dc:date>2025-02-13T12:37:02.437635</dc:date>
    <dc:format>image/svg+xml</dc:format>
    <dc:creator>
     <cc:Agent>
      <dc:title>Matplotlib v3.6.2, https://matplotlib.org/</dc:title>
     </cc:Agent>
    </dc:creator>
   </cc:Work>
  </rdf:RDF>
 </metadata>
 <defs>
  <style type="text/css">*{stroke-linejoin: round; stroke-linecap: butt}</style>
 </defs>
 <g id="figure_1">
  <g id="patch_1">
   <path d="M -0 176.855697 
L 272.263642 176.855697 
L 272.263642 0 
L -0 0 
z
" style="fill: #ffffff"/>
  </g>
  <g id="axes_1">
   <g id="patch_2">
    <path d="M 35.58575 146.747947 
L 193.423451 146.747947 
L 193.423451 12.07875 
L 35.58575 12.07875 
z
" style="fill: #ffffff"/>
   </g>
   <g id="matplotlib.axis_1">
    <g id="xtick_1">
     <g id="line2d_1">
      <path d="M 46.24146 146.747947 
L 46.24146 12.07875 
" clip-path="url(#p7415e2e785)" style="fill: none; stroke: #b0b0b0; stroke-width: 0.6; stroke-linecap: square"/>
     </g>
     <g id="line2d_2">
      <defs>
       <path id="mb3f5091e82" d="M 0 0 
L 0 4.8 
" style="stroke: #000000"/>
      </defs>
      <g>
       <use xlink:href="#mb3f5091e82" x="46.24146" y="146.747947" style="stroke: #000000"/>
      </g>
     </g>
     <g id="text_1">
      <text style="font: 8.8px 'DejaVu Sans', 'Bitstream Vera Sans', 'Computer Modern Sans Serif', 'Lucida Grande', 'Verdana', 'Geneva', 'Lucid', 'Arial', 'Helvetica', 'Avant Garde', sans-serif; text-anchor: middle" x="46.24146" y="161.734572" transform="rotate(-0 46.24146 161.734572)">1000</text>
     </g>
    </g>
    <g id="xtick_2">
     <g id="line2d_3">
      <path d="M 79.540553 146.747947 
L 79.540553 12.07875 
" clip-path="url(#p7415e2e785)" style="fill: none; stroke: #b0b0b0; stroke-width: 0.6; stroke-linecap: square"/>
     </g>
     <g id="line2d_4">
      <g>
       <use xlink:href="#mb3f5091e82" x="79.540553" y="146.747947" style="stroke: #000000"/>
      </g>
     </g>
     <g id="text_2">
      <text style="font: 8.8px 'DejaVu Sans', 'Bitstream Vera Sans', 'Computer Modern Sans Serif', 'Lucida Grande', 'Verdana', 'Geneva', 'Lucid', 'Arial', 'Helvetica', 'Avant Garde', sans-serif; text-anchor: middle" x="79.540553" y="161.734572" transform="rotate(-0 79.540553 161.734572)">1500</text>
     </g>
    </g>
    <g id="xtick_3">
     <g id="line2d_5">
      <path d="M 112.839646 146.747947 
L 112.839646 12.07875 
" clip-path="url(#p7415e2e785)" style="fill: none; stroke: #b0b0b0; stroke-width: 0.6; stroke-linecap: square"/>
     </g>
     <g id="line2d_6">
      <g>
       <use xlink:href="#mb3f5091e82" x="112.839646" y="146.747947" style="stroke: #000000"/>
      </g>
     </g>
     <g id="text_3">
      <text style="font: 8.8px 'DejaVu Sans', 'Bitstream Vera Sans', 'Computer Modern Sans Serif', 'Lucida Grande', 'Verdana', 'Geneva', 'Lucid', 'Arial', 'Helvetica', 'Avant Garde', sans-serif; text-anchor: middle" x="112.839646" y="161.734572" transform="rotate(-0 112.839646 161.734572)">2000</text>
     </g>
    </g>
    <g id="xtick_4">
     <g id="line2d_7">
      <path d="M 146.138739 146.747947 
L 146.138739 12.07875 
" clip-path="url(#p7415e2e785)" style="fill: none; stroke: #b0b0b0; stroke-width: 0.6; stroke-linecap: square"/>
     </g>
     <g id="line2d_8">
      <g>
       <use xlink:href="#mb3f5091e82" x="146.138739" y="146.747947" style="stroke: #000000"/>
      </g>
     </g>
     <g id="text_4">
      <text style="font: 8.8px 'DejaVu Sans', 'Bitstream Vera Sans', 'Computer Modern Sans Serif', 'Lucida Grande', 'Verdana', 'Geneva', 'Lucid', 'Arial', 'Helvetica', 'Avant Garde', sans-serif; text-anchor: middle" x="146.138739" y="161.734572" transform="rotate(-0 146.138739 161.734572)">2500</text>
     </g>
    </g>
    <g id="xtick_5">
     <g id="line2d_9">
      <path d="M 179.437832 146.747947 
L 179.437832 12.07875 
" clip-path="url(#p7415e2e785)" style="fill: none; stroke: #b0b0b0; stroke-width: 0.6; stroke-linecap: square"/>
     </g>
     <g id="line2d_10">
      <g>
       <use xlink:href="#mb3f5091e82" x="179.437832" y="146.747947" style="stroke: #000000"/>
      </g>
     </g>
     <g id="text_5">
      <text style="font: 8.8px 'DejaVu Sans', 'Bitstream Vera Sans', 'Computer Modern Sans Serif', 'Lucida Grande', 'Verdana', 'Geneva', 'Lucid', 'Arial', 'Helvetica', 'Avant Garde', sans-serif; text-anchor: middle" x="179.437832" y="161.734572" transform="rotate(-0 179.437832 161.734572)">3000</text>
     </g>
    </g>
    <g id="xtick_6">
     <g id="line2d_11">
      <path d="M 39.581641 146.747947 
L 39.581641 12.07875 
" clip-path="url(#p7415e2e785)" style="fill: none; stroke: #b0b0b0; stroke-width: 0.3; stroke-linecap: square"/>
     </g>
     <g id="line2d_12">
      <defs>
       <path id="m8cc3c8ae3e" d="M 0 0 
L 0 3.2 
" style="stroke: #000000; stroke-width: 0.8"/>
      </defs>
      <g>
       <use xlink:href="#m8cc3c8ae3e" x="39.581641" y="146.747947" style="stroke: #000000; stroke-width: 0.8"/>
      </g>
     </g>
    </g>
    <g id="xtick_7">
     <g id="line2d_13">
      <path d="M 52.901278 146.747947 
L 52.901278 12.07875 
" clip-path="url(#p7415e2e785)" style="fill: none; stroke: #b0b0b0; stroke-width: 0.3; stroke-linecap: square"/>
     </g>
     <g id="line2d_14">
      <g>
       <use xlink:href="#m8cc3c8ae3e" x="52.901278" y="146.747947" style="stroke: #000000; stroke-width: 0.8"/>
      </g>
     </g>
    </g>
    <g id="xtick_8">
     <g id="line2d_15">
      <path d="M 59.561097 146.747947 
L 59.561097 12.07875 
" clip-path="url(#p7415e2e785)" style="fill: none; stroke: #b0b0b0; stroke-width: 0.3; stroke-linecap: square"/>
     </g>
     <g id="line2d_16">
      <g>
       <use xlink:href="#m8cc3c8ae3e" x="59.561097" y="146.747947" style="stroke: #000000; stroke-width: 0.8"/>
      </g>
     </g>
    </g>
    <g id="xtick_9">
     <g id="line2d_17">
      <path d="M 66.220916 146.747947 
L 66.220916 12.07875 
" clip-path="url(#p7415e2e785)" style="fill: none; stroke: #b0b0b0; stroke-width: 0.3; stroke-linecap: square"/>
     </g>
     <g id="line2d_18">
      <g>
       <use xlink:href="#m8cc3c8ae3e" x="66.220916" y="146.747947" style="stroke: #000000; stroke-width: 0.8"/>
      </g>
     </g>
    </g>
    <g id="xtick_10">
     <g id="line2d_19">
      <path d="M 72.880734 146.747947 
L 72.880734 12.07875 
" clip-path="url(#p7415e2e785)" style="fill: none; stroke: #b0b0b0; stroke-width: 0.3; stroke-linecap: square"/>
     </g>
     <g id="line2d_20">
      <g>
       <use xlink:href="#m8cc3c8ae3e" x="72.880734" y="146.747947" style="stroke: #000000; stroke-width: 0.8"/>
      </g>
     </g>
    </g>
    <g id="xtick_11">
     <g id="line2d_21">
      <path d="M 86.200371 146.747947 
L 86.200371 12.07875 
" clip-path="url(#p7415e2e785)" style="fill: none; stroke: #b0b0b0; stroke-width: 0.3; stroke-linecap: square"/>
     </g>
     <g id="line2d_22">
      <g>
       <use xlink:href="#m8cc3c8ae3e" x="86.200371" y="146.747947" style="stroke: #000000; stroke-width: 0.8"/>
      </g>
     </g>
    </g>
    <g id="xtick_12">
     <g id="line2d_23">
      <path d="M 92.86019 146.747947 
L 92.86019 12.07875 
" clip-path="url(#p7415e2e785)" style="fill: none; stroke: #b0b0b0; stroke-width: 0.3; stroke-linecap: square"/>
     </g>
     <g id="line2d_24">
      <g>
       <use xlink:href="#m8cc3c8ae3e" x="92.86019" y="146.747947" style="stroke: #000000; stroke-width: 0.8"/>
      </g>
     </g>
    </g>
    <g id="xtick_13">
     <g id="line2d_25">
      <path d="M 99.520009 146.747947 
L 99.520009 12.07875 
" clip-path="url(#p7415e2e785)" style="fill: none; stroke: #b0b0b0; stroke-width: 0.3; stroke-linecap: square"/>
     </g>
     <g id="line2d_26">
      <g>
       <use xlink:href="#m8cc3c8ae3e" x="99.520009" y="146.747947" style="stroke: #000000; stroke-width: 0.8"/>
      </g>
     </g>
    </g>
    <g id="xtick_14">
     <g id="line2d_27">
      <path d="M 106.179827 146.747947 
L 106.179827 12.07875 
" clip-path="url(#p7415e2e785)" style="fill: none; stroke: #b0b0b0; stroke-width: 0.3; stroke-linecap: square"/>
     </g>
     <g id="line2d_28">
      <g>
       <use xlink:href="#m8cc3c8ae3e" x="106.179827" y="146.747947" style="stroke: #000000; stroke-width: 0.8"/>
      </g>
     </g>
    </g>
    <g id="xtick_15">
     <g id="line2d_29">
      <path d="M 119.499464 146.747947 
L 119.499464 12.07875 
" clip-path="url(#p7415e2e785)" style="fill: none; stroke: #b0b0b0; stroke-width: 0.3; stroke-linecap: square"/>
     </g>
     <g id="line2d_30">
      <g>
       <use xlink:href="#m8cc3c8ae3e" x="119.499464" y="146.747947" style="stroke: #000000; stroke-width: 0.8"/>
      </g>
     </g>
    </g>
    <g id="xtick_16">
     <g id="line2d_31">
      <path d="M 126.159283 146.747947 
L 126.159283 12.07875 
" clip-path="url(#p7415e2e785)" style="fill: none; stroke: #b0b0b0; stroke-width: 0.3; stroke-linecap: square"/>
     </g>
     <g id="line2d_32">
      <g>
       <use xlink:href="#m8cc3c8ae3e" x="126.159283" y="146.747947" style="stroke: #000000; stroke-width: 0.8"/>
      </g>
     </g>
    </g>
    <g id="xtick_17">
     <g id="line2d_33">
      <path d="M 132.819102 146.747947 
L 132.819102 12.07875 
" clip-path="url(#p7415e2e785)" style="fill: none; stroke: #b0b0b0; stroke-width: 0.3; stroke-linecap: square"/>
     </g>
     <g id="line2d_34">
      <g>
       <use xlink:href="#m8cc3c8ae3e" x="132.819102" y="146.747947" style="stroke: #000000; stroke-width: 0.8"/>
      </g>
     </g>
    </g>
    <g id="xtick_18">
     <g id="line2d_35">
      <path d="M 139.47892 146.747947 
L 139.47892 12.07875 
" clip-path="url(#p7415e2e785)" style="fill: none; stroke: #b0b0b0; stroke-width: 0.3; stroke-linecap: square"/>
     </g>
     <g id="line2d_36">
      <g>
       <use xlink:href="#m8cc3c8ae3e" x="139.47892" y="146.747947" style="stroke: #000000; stroke-width: 0.8"/>
      </g>
     </g>
    </g>
    <g id="xtick_19">
     <g id="line2d_37">
      <path d="M 152.798557 146.747947 
L 152.798557 12.07875 
" clip-path="url(#p7415e2e785)" style="fill: none; stroke: #b0b0b0; stroke-width: 0.3; stroke-linecap: square"/>
     </g>
     <g id="line2d_38">
      <g>
       <use xlink:href="#m8cc3c8ae3e" x="152.798557" y="146.747947" style="stroke: #000000; stroke-width: 0.8"/>
      </g>
     </g>
    </g>
    <g id="xtick_20">
     <g id="line2d_39">
      <path d="M 159.458376 146.747947 
L 159.458376 12.07875 
" clip-path="url(#p7415e2e785)" style="fill: none; stroke: #b0b0b0; stroke-width: 0.3; stroke-linecap: square"/>
     </g>
     <g id="line2d_40">
      <g>
       <use xlink:href="#m8cc3c8ae3e" x="159.458376" y="146.747947" style="stroke: #000000; stroke-width: 0.8"/>
      </g>
     </g>
    </g>
    <g id="xtick_21">
     <g id="line2d_41">
      <path d="M 166.118195 146.747947 
L 166.118195 12.07875 
" clip-path="url(#p7415e2e785)" style="fill: none; stroke: #b0b0b0; stroke-width: 0.3; stroke-linecap: square"/>
     </g>
     <g id="line2d_42">
      <g>
       <use xlink:href="#m8cc3c8ae3e" x="166.118195" y="146.747947" style="stroke: #000000; stroke-width: 0.8"/>
      </g>
     </g>
    </g>
    <g id="xtick_22">
     <g id="line2d_43">
      <path d="M 172.778013 146.747947 
L 172.778013 12.07875 
" clip-path="url(#p7415e2e785)" style="fill: none; stroke: #b0b0b0; stroke-width: 0.3; stroke-linecap: square"/>
     </g>
     <g id="line2d_44">
      <g>
       <use xlink:href="#m8cc3c8ae3e" x="172.778013" y="146.747947" style="stroke: #000000; stroke-width: 0.8"/>
      </g>
     </g>
    </g>
    <g id="xtick_23">
     <g id="line2d_45">
      <path d="M 186.09765 146.747947 
L 186.09765 12.07875 
" clip-path="url(#p7415e2e785)" style="fill: none; stroke: #b0b0b0; stroke-width: 0.3; stroke-linecap: square"/>
     </g>
     <g id="line2d_46">
      <g>
       <use xlink:href="#m8cc3c8ae3e" x="186.09765" y="146.747947" style="stroke: #000000; stroke-width: 0.8"/>
      </g>
     </g>
    </g>
    <g id="xtick_24">
     <g id="line2d_47">
      <path d="M 192.757469 146.747947 
L 192.757469 12.07875 
" clip-path="url(#p7415e2e785)" style="fill: none; stroke: #b0b0b0; stroke-width: 0.3; stroke-linecap: square"/>
     </g>
     <g id="line2d_48">
      <g>
       <use xlink:href="#m8cc3c8ae3e" x="192.757469" y="146.747947" style="stroke: #000000; stroke-width: 0.8"/>
      </g>
     </g>
    </g>
    <g id="text_6">
     <text style="font: 9.6px 'DejaVu Sans', 'Bitstream Vera Sans', 'Computer Modern Sans Serif', 'Lucida Grande', 'Verdana', 'Geneva', 'Lucid', 'Arial', 'Helvetica', 'Avant Garde', sans-serif; text-anchor: middle" x="114.5046" y="174.859197" transform="rotate(-0 114.5046 174.859197)">Wavelength (nm)</text>
    </g>
   </g>
   <g id="matplotlib.axis_2">
    <g id="ytick_1">
     <g id="line2d_49">
      <path d="M 35.58575 143.477807 
L 193.423451 143.477807 
" clip-path="url(#p7415e2e785)" style="fill: none; stroke: #b0b0b0; stroke-width: 0.6; stroke-linecap: square"/>
     </g>
     <g id="line2d_50">
      <defs>
       <path id="me8c61f290b" d="M 0 0 
L -4.8 0 
" style="stroke: #000000"/>
      </defs>
      <g>
       <use xlink:href="#me8c61f290b" x="35.58575" y="143.477807" style="stroke: #000000"/>
      </g>
     </g>
     <g id="text_7">
      <text style="font: 8.8px 'DejaVu Sans', 'Bitstream Vera Sans', 'Computer Modern Sans Serif', 'Lucida Grande', 'Verdana', 'Geneva', 'Lucid', 'Arial', 'Helvetica', 'Avant Garde', sans-serif; text-anchor: end" x="27.28575" y="146.821119" transform="rotate(-0 27.28575 146.821119)">0.0</text>
     </g>
    </g>
    <g id="ytick_2">
     <g id="line2d_51">
      <path d="M 35.58575 117.11193 
L 193.423451 117.11193 
" clip-path="url(#p7415e2e785)" style="fill: none; stroke: #b0b0b0; stroke-width: 0.6; stroke-linecap: square"/>
     </g>
     <g id="line2d_52">
      <g>
       <use xlink:href="#me8c61f290b" x="35.58575" y="117.11193" style="stroke: #000000"/>
      </g>
     </g>
     <g id="text_8">
      <text style="font: 8.8px 'DejaVu Sans', 'Bitstream Vera Sans', 'Computer Modern Sans Serif', 'Lucida Grande', 'Verdana', 'Geneva', 'Lucid', 'Arial', 'Helvetica', 'Avant Garde', sans-serif; text-anchor: end" x="27.28575" y="120.455242" transform="rotate(-0 27.28575 120.455242)">0.2</text>
     </g>
    </g>
    <g id="ytick_3">
     <g id="line2d_53">
      <path d="M 35.58575 90.746052 
L 193.423451 90.746052 
" clip-path="url(#p7415e2e785)" style="fill: none; stroke: #b0b0b0; stroke-width: 0.6; stroke-linecap: square"/>
     </g>
     <g id="line2d_54">
      <g>
       <use xlink:href="#me8c61f290b" x="35.58575" y="90.746052" style="stroke: #000000"/>
      </g>
     </g>
     <g id="text_9">
      <text style="font: 8.8px 'DejaVu Sans', 'Bitstream Vera Sans', 'Computer Modern Sans Serif', 'Lucida Grande', 'Verdana', 'Geneva', 'Lucid', 'Arial', 'Helvetica', 'Avant Garde', sans-serif; text-anchor: end" x="27.28575" y="94.089365" transform="rotate(-0 27.28575 94.089365)">0.4</text>
     </g>
    </g>
    <g id="ytick_4">
     <g id="line2d_55">
      <path d="M 35.58575 64.380175 
L 193.423451 64.380175 
" clip-path="url(#p7415e2e785)" style="fill: none; stroke: #b0b0b0; stroke-width: 0.6; stroke-linecap: square"/>
     </g>
     <g id="line2d_56">
      <g>
       <use xlink:href="#me8c61f290b" x="35.58575" y="64.380175" style="stroke: #000000"/>
      </g>
     </g>
     <g id="text_10">
      <text style="font: 8.8px 'DejaVu Sans', 'Bitstream Vera Sans', 'Computer Modern Sans Serif', 'Lucida Grande', 'Verdana', 'Geneva', 'Lucid', 'Arial', 'Helvetica', 'Avant Garde', sans-serif; text-anchor: end" x="27.28575" y="67.723488" transform="rotate(-0 27.28575 67.723488)">0.6</text>
     </g>
    </g>
    <g id="ytick_5">
     <g id="line2d_57">
      <path d="M 35.58575 38.014298 
L 193.423451 38.014298 
" clip-path="url(#p7415e2e785)" style="fill: none; stroke: #b0b0b0; stroke-width: 0.6; stroke-linecap: square"/>
     </g>
     <g id="line2d_58">
      <g>
       <use xlink:href="#me8c61f290b" x="35.58575" y="38.014298" style="stroke: #000000"/>
      </g>
     </g>
     <g id="text_11">
      <text style="font: 8.8px 'DejaVu Sans', 'Bitstream Vera Sans', 'Computer Modern Sans Serif', 'Lucida Grande', 'Verdana', 'Geneva', 'Lucid', 'Arial', 'Helvetica', 'Avant Garde', sans-serif; text-anchor: end" x="27.28575" y="41.357611" transform="rotate(-0 27.28575 41.357611)">0.8</text>
     </g>
    </g>
    <g id="text_12">
     <text style="font: 9.6px 'DejaVu Sans', 'Bitstream Vera Sans', 'Computer Modern Sans Serif', 'Lucida Grande', 'Verdana', 'Geneva', 'Lucid', 'Arial', 'Helvetica', 'Avant Garde', sans-serif; text-anchor: middle" x="7.2945" y="79.413348" transform="rotate(-90 7.2945 79.413348)">Reflectance</text>
    </g>
   </g>
   <g id="line2d_59">
    <path d="M 36.251732 20.006934 
L 37.117508 20.284509 
L 37.383901 20.198452 
L 38.049883 20.159194 
L 38.249677 19.923879 
L 38.649267 20.746312 
L 39.848034 20.454069 
L 40.980203 20.529263 
L 41.246596 20.15656 
L 41.313194 20.233627 
L 41.646185 20.526131 
L 42.045774 20.509835 
L 42.511961 20.576409 
L 42.91155 20.59779 
L 43.244541 21.215809 
L 43.31114 21.170169 
L 43.644131 21.057505 
L 43.910523 21.337092 
L 43.977121 21.26854 
L 44.310112 20.840858 
L 44.709701 20.171745 
L 45.375683 19.966567 
L 45.708674 20.12985 
L 45.908469 20.140208 
L 46.24146 19.556998 
L 46.308058 19.635067 
L 46.707647 19.962583 
L 47.307031 19.973579 
L 47.640022 19.652049 
L 47.973013 19.761309 
L 48.372602 19.519957 
L 48.971985 19.461815 
L 49.504771 19.35783 
L 49.970958 19.249943 
L 50.903333 19.146742 
L 51.36952 19.439196 
L 51.968904 19.369324 
L 52.301895 18.871065 
L 53.034475 18.998357 
L 53.367466 18.982958 
L 53.633858 18.969119 
L 53.900251 18.653047 
L 53.966849 18.722441 
L 54.233242 19.000017 
L 54.566233 18.400856 
L 54.632831 18.458649 
L 55.232215 18.869376 
L 55.631804 18.506847 
L 56.297786 18.731772 
L 57.563151 18.374226 
L 57.96274 18.61318 
L 58.961713 18.250911 
L 59.294704 18.419155 
L 59.627695 18.320701 
L 60.227079 18.698 
L 60.56007 18.247404 
L 60.626668 18.330668 
L 61.092855 18.750337 
L 61.29265 18.92095 
L 61.692239 19.384142 
L 61.958632 19.503921 
L 62.225024 19.912808 
L 62.291623 19.853009 
L 62.691212 19.600474 
L 62.957604 19.489208 
L 63.290595 19.138833 
L 63.756783 19.132666 
L 63.956577 19.138071 
L 64.356166 19.536566 
L 64.689157 19.854037 
L 64.95555 19.958602 
L 65.754728 21.140269 
L 66.154317 21.977963 
L 66.753701 22.813394 
L 67.15329 23.051792 
L 67.353085 23.224041 
L 68.085665 23.897876 
L 68.884843 24.290725 
L 69.284432 24.775625 
L 69.617423 25.958661 
L 70.017012 28.135634 
L 70.216807 28.60326 
L 70.283405 28.55994 
L 70.549798 28.386664 
L 70.949387 29.339241 
L 71.282378 31.237341 
L 72.547743 43.601623 
L 73.546716 39.939011 
L 73.879707 54.124116 
L 74.479091 32.681931 
L 74.678885 29.550431 
L 75.145072 25.844999 
L 75.411465 24.805943 
L 75.744456 24.072231 
L 75.877653 23.851601 
L 75.944251 23.893787 
L 76.210643 24.062532 
L 76.810027 23.019341 
L 77.009822 22.908368 
L 77.542607 22.724988 
L 78.275187 21.91764 
L 78.741375 21.801971 
L 79.207562 21.608134 
L 79.540553 22.107896 
L 80.00674 21.330944 
L 80.73932 21.004244 
L 81.138909 21.091674 
L 81.272106 21.065494 
L 81.871489 20.723426 
L 82.271078 20.717148 
L 82.737266 20.312644 
L 82.93706 20.320079 
L 83.336649 20.584633 
L 83.736238 20.451668 
L 84.269024 20.260464 
L 84.535417 20.468862 
L 84.868408 19.920846 
L 84.935006 20.010912 
L 85.267997 20.349451 
L 86.533362 20.03211 
L 87.132746 19.967278 
L 87.265942 20.02349 
L 87.665531 20.333132 
L 88.264915 20.458419 
L 88.531308 20.758361 
L 88.864299 20.132963 
L 88.930897 20.224399 
L 89.263888 20.575828 
L 90.129664 20.293236 
L 90.262861 20.295873 
L 90.595852 20.616117 
L 90.862244 21.157144 
L 90.928843 21.081659 
L 91.39503 20.688594 
L 91.594824 20.66518 
L 92.327404 20.987083 
L 92.660395 20.851592 
L 94.058957 21.26192 
L 94.192154 21.428445 
L 94.258752 21.369123 
L 94.591743 21.202838 
L 94.991332 21.492386 
L 95.257725 21.563097 
L 95.590716 21.781302 
L 95.857108 21.655586 
L 96.323296 22.125215 
L 96.722885 22.24845 
L 97.388867 22.747794 
L 99.120419 24.456806 
L 99.187018 24.549509 
L 99.253616 24.49741 
L 99.520009 24.289012 
L 99.919598 24.791232 
L 100.252589 24.751471 
L 100.58558 25.000602 
L 101.517954 24.856405 
L 101.917543 25.200457 
L 102.383731 25.213084 
L 103.182909 25.431443 
L 103.5159 24.738949 
L 103.582498 24.821737 
L 103.915489 25.346283 
L 105.114256 29.116345 
L 105.314051 29.636147 
L 105.980033 30.873152 
L 106.646014 33.242629 
L 106.845809 34.540857 
L 106.912407 34.502785 
L 107.511791 34.034895 
L 107.578389 34.203927 
L 107.844782 34.880055 
L 107.91138 34.770425 
L 108.377567 34.168414 
L 108.710558 34.012037 
L 109.110147 33.804539 
L 109.37654 33.757869 
L 109.576335 33.679851 
L 110.308915 33.000039 
L 110.575307 32.955348 
L 111.307887 32.417113 
L 111.707477 32.437598 
L 111.907271 32.426921 
L 112.639851 31.986689 
L 113.505628 32.1239 
L 114.704395 32.052946 
L 115.436975 32.529402 
L 116.036359 32.798017 
L 116.569144 33.208852 
L 116.968733 33.748933 
L 117.168528 33.870112 
L 117.701313 35.183315 
L 118.433893 36.15558 
L 118.56709 36.390764 
L 119.099875 37.571749 
L 119.432866 37.962804 
L 119.765857 38.463414 
L 119.899053 38.873431 
L 120.631634 41.743489 
L 121.031223 41.940285 
L 121.164419 41.958637 
L 121.697204 43.705347 
L 121.963597 45.23193 
L 122.429785 49.43431 
L 122.762775 53.819268 
L 123.561954 63.618177 
L 123.894945 65.05567 
L 124.760721 65.344454 
L 125.027114 65.448628 
L 125.226908 65.637302 
L 125.559899 66.383507 
L 126.159283 68.886633 
L 126.62547 76.785451 
L 126.825265 81.500461 
L 127.224854 72.666072 
L 127.691041 58.373978 
L 127.957434 54.787375 
L 128.290425 52.868306 
L 128.490219 52.290496 
L 128.556818 52.40938 
L 128.889809 52.853015 
L 129.222799 52.623286 
L 129.622389 52.159352 
L 129.888781 52.134804 
L 130.421567 52.739328 
L 130.954352 53.591231 
L 132.15312 56.818314 
L 133.351887 60.561738 
L 134.084467 63.155848 
L 134.284262 63.433507 
L 134.750449 63.722981 
L 134.883645 63.700121 
L 135.483029 63.121338 
L 135.549627 63.302129 
L 135.949216 64.706321 
L 136.748395 68.245679 
L 136.814993 68.474798 
L 136.881591 68.41761 
L 137.214582 68.207762 
L 137.480975 68.283378 
L 137.947162 70.047809 
L 138.479947 72.483862 
L 138.812938 72.153888 
L 139.811911 68.956236 
L 140.2115 68.805712 
L 140.544491 69.078336 
L 141.010678 70.36117 
L 142.009651 74.132331 
L 142.40924 75.874063 
L 142.808829 77.009959 
L 144.407186 79.127851 
L 144.60698 79.696905 
L 145.605953 82.735492 
L 145.872346 82.893581 
L 146.205337 83.215327 
L 146.47173 83.144771 
L 146.937917 84.012892 
L 147.20431 84.244383 
L 147.737095 85.083768 
L 148.070086 85.652639 
L 148.336479 85.919334 
L 148.66947 86.278532 
L 149.069059 86.978922 
L 149.268853 87.160712 
L 149.801639 87.459226 
L 150.13463 87.871592 
L 150.467621 88.656506 
L 150.667415 89.055361 
L 151.000406 89.866289 
L 151.200201 90.179675 
L 152.33237 91.689703 
L 152.532165 92.139914 
L 152.665361 91.926514 
L 152.798557 92.168108 
L 153.264745 92.952667 
L 153.397941 92.996099 
L 153.664334 93.447645 
L 153.864128 93.800568 
L 154.063923 94.183893 
L 154.396914 94.660794 
L 155.062896 96.714663 
L 156.528056 103.50739 
L 156.927645 106.097132 
L 157.46043 110.653945 
L 158.526001 123.148926 
L 159.724769 139.055576 
L 159.991161 140.236345 
L 160.124358 140.342875 
L 160.324152 139.975742 
L 160.856938 138.396352 
L 160.923536 138.453205 
L 161.189929 139.072622 
L 161.389723 139.312158 
L 161.656116 139.212753 
L 162.055705 139.351248 
L 162.188902 139.094018 
L 162.788285 137.168675 
L 162.921482 137.282017 
L 163.121276 137.951647 
L 163.520865 140.62662 
L 163.587463 140.599695 
L 163.72066 139.538406 
L 164.519838 130.04224 
L 164.919427 128.739825 
L 165.518811 124.998459 
L 166.717578 120.839424 
L 167.250364 119.734429 
L 168.449131 117.730144 
L 169.514702 116.340945 
L 170.646871 114.782586 
L 171.312853 113.913511 
L 172.778013 112.687695 
L 172.91121 112.73525 
L 173.111004 112.999845 
L 173.310799 113.635145 
L 173.64379 114.81713 
L 173.710388 114.872368 
L 173.843584 114.610791 
L 174.109977 112.967979 
L 174.642762 109.91868 
L 175.10895 108.503441 
L 175.708333 107.360019 
L 176.307717 106.53911 
L 176.840502 105.878872 
L 178.77185 103.859894 
L 180.436805 101.698967 
L 182.634545 99.439262 
L 183.233928 98.815756 
L 185.165276 97.137182 
L 186.430641 96.150909 
L 187.829203 94.968667 
L 188.29539 94.522126 
L 190.093541 93.149206 
L 191.758496 92.083588 
L 192.690871 91.401836 
L 192.690871 91.401836 
" clip-path="url(#p7415e2e785)" style="fill: none; stroke: #1f77b4; stroke-width: 0.5; stroke-linecap: square"/>
   </g>
   <g id="line2d_60"/>
   <g id="patch_3">
    <path d="M 35.58575 146.747947 
L 35.58575 12.07875 
" style="fill: none; stroke: #000000; stroke-linejoin: miter; stroke-linecap: square"/>
   </g>
   <g id="patch_4">
    <path d="M 193.423451 146.747947 
L 193.423451 12.07875 
" style="fill: none; stroke: #000000; stroke-linejoin: miter; stroke-linecap: square"/>
   </g>
   <g id="patch_5">
    <path d="M 35.58575 146.747947 
L 193.423451 146.747947 
" style="fill: none; stroke: #000000; stroke-linejoin: miter; stroke-linecap: square"/>
   </g>
   <g id="patch_6">
    <path d="M 35.58575 12.07875 
L 193.423451 12.07875 
" style="fill: none; stroke: #000000; stroke-linejoin: miter; stroke-linecap: square"/>
   </g>
   <g id="text_13">
    <text style="font: 8px 'DejaVu Sans', 'Bitstream Vera Sans', 'Computer Modern Sans Serif', 'Lucida Grande', 'Verdana', 'Geneva', 'Lucid', 'Arial', 'Helvetica', 'Avant Garde', sans-serif; text-anchor: middle" x="114.5046" y="6.07875" transform="rotate(-0 114.5046 6.07875)">Laboratory Phyllosilicate Kaolinite</text>
   </g>
   <g id="legend_1">
    <g id="patch_7">
     <path d="M 200.780205 84.716786 
L 271.063642 84.716786 
Q 272.263642 84.716786 272.263642 83.516786 
L 272.263642 75.309911 
Q 272.263642 74.109911 271.063642 74.109911 
L 200.780205 74.109911 
Q 199.580205 74.109911 199.580205 75.309911 
L 199.580205 83.516786 
Q 199.580205 84.716786 200.780205 84.716786 
z
" style="fill: #ffffff; opacity: 0.8; stroke: #cccccc; stroke-width: 0.8; stroke-linejoin: miter"/>
    </g>
    <g id="line2d_61">
     <path d="M 201.980205 78.968973 
L 207.980205 78.968973 
L 213.980205 78.968973 
" style="fill: none; stroke: #1f77b4; stroke-width: 1.2; stroke-linecap: square"/>
    </g>
    <g id="text_14">
     <text style="font: 6px 'DejaVu Sans', 'Bitstream Vera Sans', 'Computer Modern Sans Serif', 'Lucida Grande', 'Verdana', 'Geneva', 'Lucid', 'Arial', 'Helvetica', 'Avant Garde', sans-serif; text-anchor: start" x="218.780205" y="81.068973" transform="rotate(-0 218.780205 81.068973)">Kaolinite LAKA04</text>
    </g>
   </g>
  </g>
 </g>
 <defs>
  <clipPath id="p7415e2e785">
   <rect x="35.58575" y="12.07875" width="157.837701" height="134.669197"/>
  </clipPath>
 </defs>
</svg>
