<?xml version="1.0" encoding="utf-8" standalone="no"?>
<!DOCTYPE svg PUBLIC "-//W3C//DTD SVG 1.1//EN"
  "http://www.w3.org/Graphics/SVG/1.1/DTD/svg11.dtd">
<svg xmlns:xlink="http://www.w3.org/1999/xlink" width="272.14668pt" height="176.855697pt" viewBox="0 0 272.14668 176.855697" xmlns="http://www.w3.org/2000/svg" version="1.1">
 <metadata>
  <rdf:RDF xmlns:dc="http://purl.org/dc/elements/1.1/" xmlns:cc="http://creativecommons.org/ns#" xmlns:rdf="http://www.w3.org/1999/02/22-rdf-syntax-ns#">
   <cc:Work>
    <dc:type rdf:resource="http://purl.org/dc/dcmitype/StillImage"/>
    <dc:date>2025-02-13T12:52:25.641046</dc:date>
    <dc:format>image/svg+xml</dc:format>
    <dc:creator>
     <cc:Agent>
      <dc:title>Matplotlib v3.6.2, https://matplotlib.org/</dc:title>
     </cc:Agent>
    </dc:creator>
   </cc:Work>
  </rdf:RDF>
 </metadata>
 <defs>
  <style type="text/css">*{stroke-linejoin: round; stroke-linecap: butt}</style>
 </defs>
 <g id="figure_1">
  <g id="patch_1">
   <path d="M -0 176.855697 
L 272.14668 176.855697 
L 272.14668 0 
L -0 0 
z
" style="fill: #ffffff"/>
  </g>
  <g id="axes_1">
   <g id="patch_2">
    <path d="M 35.58575 146.747947 
L 187.153451 146.747947 
L 187.153451 12.07875 
L 35.58575 12.07875 
z
" style="fill: #ffffff"/>
   </g>
   <g id="matplotlib.axis_1">
    <g id="xtick_1">
     <g id="line2d_1">
      <path d="M 45.818169 146.747947 
L 45.818169 12.07875 
" clip-path="url(#p37740d9765)" style="fill: none; stroke: #b0b0b0; stroke-width: 0.6; stroke-linecap: square"/>
     </g>
     <g id="line2d_2">
      <defs>
       <path id="mee58683a7d" d="M 0 0 
L 0 4.8 
" style="stroke: #000000"/>
      </defs>
      <g>
       <use xlink:href="#mee58683a7d" x="45.818169" y="146.747947" style="stroke: #000000"/>
      </g>
     </g>
     <g id="text_1">
      <text style="font: 8.8px 'DejaVu Sans', 'Bitstream Vera Sans', 'Computer Modern Sans Serif', 'Lucida Grande', 'Verdana', 'Geneva', 'Lucid', 'Arial', 'Helvetica', 'Avant Garde', sans-serif; text-anchor: middle" x="45.818169" y="161.734572" transform="rotate(-0 45.818169 161.734572)">1000</text>
     </g>
    </g>
    <g id="xtick_2">
     <g id="line2d_3">
      <path d="M 77.794477 146.747947 
L 77.794477 12.07875 
" clip-path="url(#p37740d9765)" style="fill: none; stroke: #b0b0b0; stroke-width: 0.6; stroke-linecap: square"/>
     </g>
     <g id="line2d_4">
      <g>
       <use xlink:href="#mee58683a7d" x="77.794477" y="146.747947" style="stroke: #000000"/>
      </g>
     </g>
     <g id="text_2">
      <text style="font: 8.8px 'DejaVu Sans', 'Bitstream Vera Sans', 'Computer Modern Sans Serif', 'Lucida Grande', 'Verdana', 'Geneva', 'Lucid', 'Arial', 'Helvetica', 'Avant Garde', sans-serif; text-anchor: middle" x="77.794477" y="161.734572" transform="rotate(-0 77.794477 161.734572)">1500</text>
     </g>
    </g>
    <g id="xtick_3">
     <g id="line2d_5">
      <path d="M 109.770785 146.747947 
L 109.770785 12.07875 
" clip-path="url(#p37740d9765)" style="fill: none; stroke: #b0b0b0; stroke-width: 0.6; stroke-linecap: square"/>
     </g>
     <g id="line2d_6">
      <g>
       <use xlink:href="#mee58683a7d" x="109.770785" y="146.747947" style="stroke: #000000"/>
      </g>
     </g>
     <g id="text_3">
      <text style="font: 8.8px 'DejaVu Sans', 'Bitstream Vera Sans', 'Computer Modern Sans Serif', 'Lucida Grande', 'Verdana', 'Geneva', 'Lucid', 'Arial', 'Helvetica', 'Avant Garde', sans-serif; text-anchor: middle" x="109.770785" y="161.734572" transform="rotate(-0 109.770785 161.734572)">2000</text>
     </g>
    </g>
    <g id="xtick_4">
     <g id="line2d_7">
      <path d="M 141.747093 146.747947 
L 141.747093 12.07875 
" clip-path="url(#p37740d9765)" style="fill: none; stroke: #b0b0b0; stroke-width: 0.6; stroke-linecap: square"/>
     </g>
     <g id="line2d_8">
      <g>
       <use xlink:href="#mee58683a7d" x="141.747093" y="146.747947" style="stroke: #000000"/>
      </g>
     </g>
     <g id="text_4">
      <text style="font: 8.8px 'DejaVu Sans', 'Bitstream Vera Sans', 'Computer Modern Sans Serif', 'Lucida Grande', 'Verdana', 'Geneva', 'Lucid', 'Arial', 'Helvetica', 'Avant Garde', sans-serif; text-anchor: middle" x="141.747093" y="161.734572" transform="rotate(-0 141.747093 161.734572)">2500</text>
     </g>
    </g>
    <g id="xtick_5">
     <g id="line2d_9">
      <path d="M 173.723401 146.747947 
L 173.723401 12.07875 
" clip-path="url(#p37740d9765)" style="fill: none; stroke: #b0b0b0; stroke-width: 0.6; stroke-linecap: square"/>
     </g>
     <g id="line2d_10">
      <g>
       <use xlink:href="#mee58683a7d" x="173.723401" y="146.747947" style="stroke: #000000"/>
      </g>
     </g>
     <g id="text_5">
      <text style="font: 8.8px 'DejaVu Sans', 'Bitstream Vera Sans', 'Computer Modern Sans Serif', 'Lucida Grande', 'Verdana', 'Geneva', 'Lucid', 'Arial', 'Helvetica', 'Avant Garde', sans-serif; text-anchor: middle" x="173.723401" y="161.734572" transform="rotate(-0 173.723401 161.734572)">3000</text>
     </g>
    </g>
    <g id="xtick_6">
     <g id="line2d_11">
      <path d="M 39.422907 146.747947 
L 39.422907 12.07875 
" clip-path="url(#p37740d9765)" style="fill: none; stroke: #b0b0b0; stroke-width: 0.3; stroke-linecap: square"/>
     </g>
     <g id="line2d_12">
      <defs>
       <path id="m16c42ec17d" d="M 0 0 
L 0 3.2 
" style="stroke: #000000; stroke-width: 0.8"/>
      </defs>
      <g>
       <use xlink:href="#m16c42ec17d" x="39.422907" y="146.747947" style="stroke: #000000; stroke-width: 0.8"/>
      </g>
     </g>
    </g>
    <g id="xtick_7">
     <g id="line2d_13">
      <path d="M 52.21343 146.747947 
L 52.21343 12.07875 
" clip-path="url(#p37740d9765)" style="fill: none; stroke: #b0b0b0; stroke-width: 0.3; stroke-linecap: square"/>
     </g>
     <g id="line2d_14">
      <g>
       <use xlink:href="#m16c42ec17d" x="52.21343" y="146.747947" style="stroke: #000000; stroke-width: 0.8"/>
      </g>
     </g>
    </g>
    <g id="xtick_8">
     <g id="line2d_15">
      <path d="M 58.608692 146.747947 
L 58.608692 12.07875 
" clip-path="url(#p37740d9765)" style="fill: none; stroke: #b0b0b0; stroke-width: 0.3; stroke-linecap: square"/>
     </g>
     <g id="line2d_16">
      <g>
       <use xlink:href="#m16c42ec17d" x="58.608692" y="146.747947" style="stroke: #000000; stroke-width: 0.8"/>
      </g>
     </g>
    </g>
    <g id="xtick_9">
     <g id="line2d_17">
      <path d="M 65.003954 146.747947 
L 65.003954 12.07875 
" clip-path="url(#p37740d9765)" style="fill: none; stroke: #b0b0b0; stroke-width: 0.3; stroke-linecap: square"/>
     </g>
     <g id="line2d_18">
      <g>
       <use xlink:href="#m16c42ec17d" x="65.003954" y="146.747947" style="stroke: #000000; stroke-width: 0.8"/>
      </g>
     </g>
    </g>
    <g id="xtick_10">
     <g id="line2d_19">
      <path d="M 71.399215 146.747947 
L 71.399215 12.07875 
" clip-path="url(#p37740d9765)" style="fill: none; stroke: #b0b0b0; stroke-width: 0.3; stroke-linecap: square"/>
     </g>
     <g id="line2d_20">
      <g>
       <use xlink:href="#m16c42ec17d" x="71.399215" y="146.747947" style="stroke: #000000; stroke-width: 0.8"/>
      </g>
     </g>
    </g>
    <g id="xtick_11">
     <g id="line2d_21">
      <path d="M 84.189738 146.747947 
L 84.189738 12.07875 
" clip-path="url(#p37740d9765)" style="fill: none; stroke: #b0b0b0; stroke-width: 0.3; stroke-linecap: square"/>
     </g>
     <g id="line2d_22">
      <g>
       <use xlink:href="#m16c42ec17d" x="84.189738" y="146.747947" style="stroke: #000000; stroke-width: 0.8"/>
      </g>
     </g>
    </g>
    <g id="xtick_12">
     <g id="line2d_23">
      <path d="M 90.585 146.747947 
L 90.585 12.07875 
" clip-path="url(#p37740d9765)" style="fill: none; stroke: #b0b0b0; stroke-width: 0.3; stroke-linecap: square"/>
     </g>
     <g id="line2d_24">
      <g>
       <use xlink:href="#m16c42ec17d" x="90.585" y="146.747947" style="stroke: #000000; stroke-width: 0.8"/>
      </g>
     </g>
    </g>
    <g id="xtick_13">
     <g id="line2d_25">
      <path d="M 96.980262 146.747947 
L 96.980262 12.07875 
" clip-path="url(#p37740d9765)" style="fill: none; stroke: #b0b0b0; stroke-width: 0.3; stroke-linecap: square"/>
     </g>
     <g id="line2d_26">
      <g>
       <use xlink:href="#m16c42ec17d" x="96.980262" y="146.747947" style="stroke: #000000; stroke-width: 0.8"/>
      </g>
     </g>
    </g>
    <g id="xtick_14">
     <g id="line2d_27">
      <path d="M 103.375523 146.747947 
L 103.375523 12.07875 
" clip-path="url(#p37740d9765)" style="fill: none; stroke: #b0b0b0; stroke-width: 0.3; stroke-linecap: square"/>
     </g>
     <g id="line2d_28">
      <g>
       <use xlink:href="#m16c42ec17d" x="103.375523" y="146.747947" style="stroke: #000000; stroke-width: 0.8"/>
      </g>
     </g>
    </g>
    <g id="xtick_15">
     <g id="line2d_29">
      <path d="M 116.166047 146.747947 
L 116.166047 12.07875 
" clip-path="url(#p37740d9765)" style="fill: none; stroke: #b0b0b0; stroke-width: 0.3; stroke-linecap: square"/>
     </g>
     <g id="line2d_30">
      <g>
       <use xlink:href="#m16c42ec17d" x="116.166047" y="146.747947" style="stroke: #000000; stroke-width: 0.8"/>
      </g>
     </g>
    </g>
    <g id="xtick_16">
     <g id="line2d_31">
      <path d="M 122.561308 146.747947 
L 122.561308 12.07875 
" clip-path="url(#p37740d9765)" style="fill: none; stroke: #b0b0b0; stroke-width: 0.3; stroke-linecap: square"/>
     </g>
     <g id="line2d_32">
      <g>
       <use xlink:href="#m16c42ec17d" x="122.561308" y="146.747947" style="stroke: #000000; stroke-width: 0.8"/>
      </g>
     </g>
    </g>
    <g id="xtick_17">
     <g id="line2d_33">
      <path d="M 128.95657 146.747947 
L 128.95657 12.07875 
" clip-path="url(#p37740d9765)" style="fill: none; stroke: #b0b0b0; stroke-width: 0.3; stroke-linecap: square"/>
     </g>
     <g id="line2d_34">
      <g>
       <use xlink:href="#m16c42ec17d" x="128.95657" y="146.747947" style="stroke: #000000; stroke-width: 0.8"/>
      </g>
     </g>
    </g>
    <g id="xtick_18">
     <g id="line2d_35">
      <path d="M 135.351832 146.747947 
L 135.351832 12.07875 
" clip-path="url(#p37740d9765)" style="fill: none; stroke: #b0b0b0; stroke-width: 0.3; stroke-linecap: square"/>
     </g>
     <g id="line2d_36">
      <g>
       <use xlink:href="#m16c42ec17d" x="135.351832" y="146.747947" style="stroke: #000000; stroke-width: 0.8"/>
      </g>
     </g>
    </g>
    <g id="xtick_19">
     <g id="line2d_37">
      <path d="M 148.142355 146.747947 
L 148.142355 12.07875 
" clip-path="url(#p37740d9765)" style="fill: none; stroke: #b0b0b0; stroke-width: 0.3; stroke-linecap: square"/>
     </g>
     <g id="line2d_38">
      <g>
       <use xlink:href="#m16c42ec17d" x="148.142355" y="146.747947" style="stroke: #000000; stroke-width: 0.8"/>
      </g>
     </g>
    </g>
    <g id="xtick_20">
     <g id="line2d_39">
      <path d="M 154.537616 146.747947 
L 154.537616 12.07875 
" clip-path="url(#p37740d9765)" style="fill: none; stroke: #b0b0b0; stroke-width: 0.3; stroke-linecap: square"/>
     </g>
     <g id="line2d_40">
      <g>
       <use xlink:href="#m16c42ec17d" x="154.537616" y="146.747947" style="stroke: #000000; stroke-width: 0.8"/>
      </g>
     </g>
    </g>
    <g id="xtick_21">
     <g id="line2d_41">
      <path d="M 160.932878 146.747947 
L 160.932878 12.07875 
" clip-path="url(#p37740d9765)" style="fill: none; stroke: #b0b0b0; stroke-width: 0.3; stroke-linecap: square"/>
     </g>
     <g id="line2d_42">
      <g>
       <use xlink:href="#m16c42ec17d" x="160.932878" y="146.747947" style="stroke: #000000; stroke-width: 0.8"/>
      </g>
     </g>
    </g>
    <g id="xtick_22">
     <g id="line2d_43">
      <path d="M 167.32814 146.747947 
L 167.32814 12.07875 
" clip-path="url(#p37740d9765)" style="fill: none; stroke: #b0b0b0; stroke-width: 0.3; stroke-linecap: square"/>
     </g>
     <g id="line2d_44">
      <g>
       <use xlink:href="#m16c42ec17d" x="167.32814" y="146.747947" style="stroke: #000000; stroke-width: 0.8"/>
      </g>
     </g>
    </g>
    <g id="xtick_23">
     <g id="line2d_45">
      <path d="M 180.118663 146.747947 
L 180.118663 12.07875 
" clip-path="url(#p37740d9765)" style="fill: none; stroke: #b0b0b0; stroke-width: 0.3; stroke-linecap: square"/>
     </g>
     <g id="line2d_46">
      <g>
       <use xlink:href="#m16c42ec17d" x="180.118663" y="146.747947" style="stroke: #000000; stroke-width: 0.8"/>
      </g>
     </g>
    </g>
    <g id="xtick_24">
     <g id="line2d_47">
      <path d="M 186.513925 146.747947 
L 186.513925 12.07875 
" clip-path="url(#p37740d9765)" style="fill: none; stroke: #b0b0b0; stroke-width: 0.3; stroke-linecap: square"/>
     </g>
     <g id="line2d_48">
      <g>
       <use xlink:href="#m16c42ec17d" x="186.513925" y="146.747947" style="stroke: #000000; stroke-width: 0.8"/>
      </g>
     </g>
    </g>
    <g id="text_6">
     <text style="font: 9.6px 'DejaVu Sans', 'Bitstream Vera Sans', 'Computer Modern Sans Serif', 'Lucida Grande', 'Verdana', 'Geneva', 'Lucid', 'Arial', 'Helvetica', 'Avant Garde', sans-serif; text-anchor: middle" x="111.3696" y="174.859197" transform="rotate(-0 111.3696 174.859197)">Wavelength (nm)</text>
    </g>
   </g>
   <g id="matplotlib.axis_2">
    <g id="ytick_1">
     <g id="line2d_49">
      <path d="M 35.58575 145.014058 
L 187.153451 145.014058 
" clip-path="url(#p37740d9765)" style="fill: none; stroke: #b0b0b0; stroke-width: 0.6; stroke-linecap: square"/>
     </g>
     <g id="line2d_50">
      <defs>
       <path id="m4a25677505" d="M 0 0 
L -4.8 0 
" style="stroke: #000000"/>
      </defs>
      <g>
       <use xlink:href="#m4a25677505" x="35.58575" y="145.014058" style="stroke: #000000"/>
      </g>
     </g>
     <g id="text_7">
      <text style="font: 8.8px 'DejaVu Sans', 'Bitstream Vera Sans', 'Computer Modern Sans Serif', 'Lucida Grande', 'Verdana', 'Geneva', 'Lucid', 'Arial', 'Helvetica', 'Avant Garde', sans-serif; text-anchor: end" x="27.28575" y="148.357371" transform="rotate(-0 27.28575 148.357371)">0.0</text>
     </g>
    </g>
    <g id="ytick_2">
     <g id="line2d_51">
      <path d="M 35.58575 121.218844 
L 187.153451 121.218844 
" clip-path="url(#p37740d9765)" style="fill: none; stroke: #b0b0b0; stroke-width: 0.6; stroke-linecap: square"/>
     </g>
     <g id="line2d_52">
      <g>
       <use xlink:href="#m4a25677505" x="35.58575" y="121.218844" style="stroke: #000000"/>
      </g>
     </g>
     <g id="text_8">
      <text style="font: 8.8px 'DejaVu Sans', 'Bitstream Vera Sans', 'Computer Modern Sans Serif', 'Lucida Grande', 'Verdana', 'Geneva', 'Lucid', 'Arial', 'Helvetica', 'Avant Garde', sans-serif; text-anchor: end" x="27.28575" y="124.562157" transform="rotate(-0 27.28575 124.562157)">0.1</text>
     </g>
    </g>
    <g id="ytick_3">
     <g id="line2d_53">
      <path d="M 35.58575 97.42363 
L 187.153451 97.42363 
" clip-path="url(#p37740d9765)" style="fill: none; stroke: #b0b0b0; stroke-width: 0.6; stroke-linecap: square"/>
     </g>
     <g id="line2d_54">
      <g>
       <use xlink:href="#m4a25677505" x="35.58575" y="97.42363" style="stroke: #000000"/>
      </g>
     </g>
     <g id="text_9">
      <text style="font: 8.8px 'DejaVu Sans', 'Bitstream Vera Sans', 'Computer Modern Sans Serif', 'Lucida Grande', 'Verdana', 'Geneva', 'Lucid', 'Arial', 'Helvetica', 'Avant Garde', sans-serif; text-anchor: end" x="27.28575" y="100.766942" transform="rotate(-0 27.28575 100.766942)">0.2</text>
     </g>
    </g>
    <g id="ytick_4">
     <g id="line2d_55">
      <path d="M 35.58575 73.628415 
L 187.153451 73.628415 
" clip-path="url(#p37740d9765)" style="fill: none; stroke: #b0b0b0; stroke-width: 0.6; stroke-linecap: square"/>
     </g>
     <g id="line2d_56">
      <g>
       <use xlink:href="#m4a25677505" x="35.58575" y="73.628415" style="stroke: #000000"/>
      </g>
     </g>
     <g id="text_10">
      <text style="font: 8.8px 'DejaVu Sans', 'Bitstream Vera Sans', 'Computer Modern Sans Serif', 'Lucida Grande', 'Verdana', 'Geneva', 'Lucid', 'Arial', 'Helvetica', 'Avant Garde', sans-serif; text-anchor: end" x="27.28575" y="76.971728" transform="rotate(-0 27.28575 76.971728)">0.3</text>
     </g>
    </g>
    <g id="ytick_5">
     <g id="line2d_57">
      <path d="M 35.58575 49.833201 
L 187.153451 49.833201 
" clip-path="url(#p37740d9765)" style="fill: none; stroke: #b0b0b0; stroke-width: 0.6; stroke-linecap: square"/>
     </g>
     <g id="line2d_58">
      <g>
       <use xlink:href="#m4a25677505" x="35.58575" y="49.833201" style="stroke: #000000"/>
      </g>
     </g>
     <g id="text_11">
      <text style="font: 8.8px 'DejaVu Sans', 'Bitstream Vera Sans', 'Computer Modern Sans Serif', 'Lucida Grande', 'Verdana', 'Geneva', 'Lucid', 'Arial', 'Helvetica', 'Avant Garde', sans-serif; text-anchor: end" x="27.28575" y="53.176514" transform="rotate(-0 27.28575 53.176514)">0.4</text>
     </g>
    </g>
    <g id="ytick_6">
     <g id="line2d_59">
      <path d="M 35.58575 26.037987 
L 187.153451 26.037987 
" clip-path="url(#p37740d9765)" style="fill: none; stroke: #b0b0b0; stroke-width: 0.6; stroke-linecap: square"/>
     </g>
     <g id="line2d_60">
      <g>
       <use xlink:href="#m4a25677505" x="35.58575" y="26.037987" style="stroke: #000000"/>
      </g>
     </g>
     <g id="text_12">
      <text style="font: 8.8px 'DejaVu Sans', 'Bitstream Vera Sans', 'Computer Modern Sans Serif', 'Lucida Grande', 'Verdana', 'Geneva', 'Lucid', 'Arial', 'Helvetica', 'Avant Garde', sans-serif; text-anchor: end" x="27.28575" y="29.381299" transform="rotate(-0 27.28575 29.381299)">0.5</text>
     </g>
    </g>
    <g id="text_13">
     <text style="font: 9.6px 'DejaVu Sans', 'Bitstream Vera Sans', 'Computer Modern Sans Serif', 'Lucida Grande', 'Verdana', 'Geneva', 'Lucid', 'Arial', 'Helvetica', 'Avant Garde', sans-serif; text-anchor: middle" x="7.2945" y="79.413348" transform="rotate(-90 7.2945 79.413348)">Reflectance</text>
    </g>
   </g>
   <g id="line2d_61">
    <path d="M 36.225276 48.509233 
L 37.184565 49.32351 
L 38.52757 49.947799 
L 39.103144 49.966691 
L 39.678717 49.597155 
L 39.934528 49.612954 
L 40.126386 49.576403 
L 40.574054 49.254118 
L 40.893817 49.040773 
L 41.021722 48.928746 
L 41.341485 49.495069 
L 41.853106 48.562821 
L 42.108917 48.416052 
L 42.492633 48.273712 
L 42.748443 48.009394 
L 44.794927 45.304305 
L 46.457695 44.394332 
L 46.84141 44.32651 
L 47.672794 43.585339 
L 47.8007 43.617036 
L 48.05651 43.92866 
L 48.120463 43.869742 
L 48.568131 43.592241 
L 49.015799 43.591954 
L 49.335563 44.087368 
L 49.655326 43.235981 
L 49.719278 43.36476 
L 49.975089 43.879877 
L 50.039041 43.790693 
L 50.358804 43.448327 
L 51.318094 43.5604 
L 51.701809 43.433337 
L 52.085525 43.250018 
L 52.469241 43.104869 
L 52.725051 43.078787 
L 52.852956 43.082974 
L 53.17272 42.447878 
L 53.236672 42.498086 
L 53.556435 42.656087 
L 54.707582 41.769716 
L 54.771535 41.677866 
L 54.835488 41.733357 
L 55.091298 41.955322 
L 55.411061 41.397084 
L 55.475014 41.482462 
L 55.730824 41.823973 
L 55.794777 41.727649 
L 56.562208 40.74162 
L 57.777308 39.721856 
L 58.288929 39.100132 
L 58.608692 39.24243 
L 59.184265 38.327072 
L 60.079602 37.476681 
L 60.847033 37.139885 
L 62.317944 35.290374 
L 62.445849 35.095632 
L 62.509801 35.140796 
L 62.765612 35.321454 
L 63.405138 34.47601 
L 63.724901 34.665176 
L 64.236522 33.959178 
L 64.42838 33.726128 
L 64.940001 32.863026 
L 65.195811 32.695841 
L 65.579527 32.632258 
L 65.707432 32.541122 
L 66.730674 31.264464 
L 67.242295 30.972165 
L 67.689963 30.727023 
L 67.945774 30.68172 
L 68.265537 30.412595 
L 68.649253 30.73069 
L 68.969016 30.979014 
L 69.224826 30.881833 
L 69.8004 30.347061 
L 70.375973 40.751951 
L 70.567831 42.576853 
L 70.951547 43.532418 
L 71.079452 43.731154 
L 71.655026 36.47233 
L 72.102694 33.201158 
L 72.678267 30.641409 
L 73.125936 29.779879 
L 73.509652 28.951664 
L 74.21313 27.716738 
L 74.724751 26.992363 
L 75.620088 26.125411 
L 76.003804 26.029755 
L 76.195661 26.06987 
L 76.835188 24.938885 
L 77.218903 24.805443 
L 77.730524 24.319259 
L 78.625861 23.619152 
L 78.881671 23.43479 
L 79.201434 23.33561 
L 79.649103 23.152391 
L 80.032818 22.968405 
L 80.480487 22.729784 
L 80.864202 22.463665 
L 81.631634 22.12962 
L 82.079302 21.655239 
L 83.038591 21.248622 
L 83.294402 21.062118 
L 83.614165 21.217317 
L 84.381596 20.808465 
L 84.573454 20.794852 
L 85.149028 20.205774 
L 85.596696 20.326761 
L 87.131559 19.600622 
L 87.515274 19.47622 
L 87.835038 19.493206 
L 88.282706 19.233795 
L 88.538516 19.168263 
L 89.11409 19.027536 
L 89.625711 18.742139 
L 90.009427 18.811857 
L 90.648953 18.428994 
L 91.032668 18.65143 
L 92.311721 18.436174 
L 92.887294 18.276078 
L 93.207057 18.553814 
L 93.654726 18.469439 
L 93.910536 18.575471 
L 94.230299 18.683645 
L 94.614015 18.69493 
L 96.020972 19.014823 
L 96.468641 18.756552 
L 98.323267 18.776312 
L 98.64303 18.845792 
L 99.026745 18.495425 
L 99.538366 18.518699 
L 100.049987 19.136567 
L 100.433703 19.280383 
L 100.625561 19.405691 
L 100.945324 19.580162 
L 101.137182 19.590442 
L 101.456945 18.806615 
L 102.096471 21.46954 
L 102.608092 22.333353 
L 102.79995 22.919003 
L 104.142955 28.900266 
L 104.398765 29.085487 
L 104.782481 29.555587 
L 105.038291 29.525843 
L 105.549912 29.240106 
L 105.74177 29.098336 
L 106.061533 28.943195 
L 106.701059 28.989117 
L 107.084775 28.909163 
L 107.276633 28.89303 
L 107.916159 29.204845 
L 108.747543 29.361225 
L 108.875448 29.301022 
L 109.64288 28.404706 
L 109.962643 28.128823 
L 110.218453 27.862411 
L 110.857979 27.079362 
L 111.241695 26.803669 
L 111.497506 26.61064 
L 112.264937 25.886222 
L 112.712605 25.493885 
L 113.543989 24.261574 
L 113.671895 24.196805 
L 114.503279 24.45056 
L 114.631184 24.44875 
L 114.886994 24.235732 
L 114.950947 24.312828 
L 115.27071 24.796777 
L 115.782331 25.936669 
L 116.102094 26.292024 
L 116.74162 26.776877 
L 117.636957 26.943061 
L 117.828815 26.957433 
L 118.21253 27.309124 
L 118.660199 27.264628 
L 118.788104 27.161072 
L 119.17182 26.503086 
L 119.555535 25.802931 
L 120.067156 25.269302 
L 120.514825 25.407845 
L 120.706682 25.318282 
L 120.962493 24.962684 
L 121.026445 25.063812 
L 121.346209 25.455713 
L 121.921782 25.437873 
L 122.689213 25.9351 
L 122.881071 25.826447 
L 123.58455 27.214613 
L 123.904313 27.606279 
L 124.415934 29.253862 
L 124.607792 30.360959 
L 125.503129 35.71712 
L 126.27056 37.247628 
L 126.398465 37.202702 
L 126.846134 39.842589 
L 127.229849 42.281979 
L 127.549612 43.188482 
L 127.997281 44.3396 
L 129.276333 50.322196 
L 130.107717 57.718221 
L 130.491433 60.767909 
L 130.683291 61.408002 
L 130.939101 61.694593 
L 131.194911 61.549728 
L 131.514675 60.23766 
L 132.665822 48.126178 
L 132.921632 47.225767 
L 133.11349 46.877834 
L 133.561158 48.072829 
L 134.136732 49.946561 
L 135.287879 51.650439 
L 135.351832 51.762038 
L 135.415784 51.70631 
L 135.671595 51.483398 
L 135.735547 51.569109 
L 136.630884 52.918014 
L 137.52622 55.322807 
L 137.718078 55.710765 
L 137.909936 55.884803 
L 137.973889 55.803232 
L 138.421557 55.063056 
L 139.061083 53.939493 
L 139.252941 53.857162 
L 139.572704 54.230601 
L 140.084325 55.867717 
L 141.107567 59.359616 
L 141.491283 60.445485 
L 142.066856 62.999994 
L 142.386619 63.569047 
L 142.450572 63.505653 
L 142.770335 63.091293 
L 143.921482 60.460479 
L 144.049387 60.400902 
L 144.944724 60.635142 
L 145.136582 60.933943 
L 145.648203 61.610689 
L 145.840061 61.398828 
L 146.543539 59.999219 
L 146.927255 59.374335 
L 147.247018 58.951477 
L 147.630734 58.138735 
L 147.886544 57.69249 
L 148.142355 57.484052 
L 148.845834 57.303829 
L 149.613265 57.120188 
L 149.869075 57.188907 
L 150.316744 57.781766 
L 150.636507 58.643323 
L 151.084175 60.833997 
L 151.915559 65.982185 
L 152.235322 67.979671 
L 152.491133 70.226777 
L 152.810896 75.326507 
L 153.130659 84.491098 
L 154.537616 134.093726 
L 154.793427 138.008099 
L 155.177143 140.249472 
L 155.369 140.62662 
L 155.496906 140.511629 
L 155.816669 139.798555 
L 156.32829 138.367762 
L 157.735247 135.514254 
L 158.502679 133.318156 
L 159.0143 132.386064 
L 159.525921 131.783556 
L 160.037541 131.206014 
L 160.48521 130.615117 
L 161.444499 129.483085 
L 162.020073 128.5747 
L 163.107267 126.78 
L 164.64213 124.67023 
L 165.665372 123.410789 
L 165.985135 123.052571 
L 166.880471 122.150133 
L 167.456045 121.542133 
L 168.351382 120.745979 
L 171.932728 116.824386 
L 172.508302 116.162398 
L 177.240795 110.860248 
L 177.688464 110.448029 
L 178.200084 109.95628 
L 179.607042 108.828719 
L 179.862853 108.652929 
L 182.293052 106.700751 
L 182.868625 106.176797 
L 185.043014 104.236895 
L 186.449972 103.124937 
L 186.449972 103.124937 
" clip-path="url(#p37740d9765)" style="fill: none; stroke: #1f77b4; stroke-width: 0.5; stroke-linecap: square"/>
   </g>
   <g id="line2d_62"/>
   <g id="patch_3">
    <path d="M 35.58575 146.747947 
L 35.58575 12.07875 
" style="fill: none; stroke: #000000; stroke-linejoin: miter; stroke-linecap: square"/>
   </g>
   <g id="patch_4">
    <path d="M 187.153451 146.747947 
L 187.153451 12.07875 
" style="fill: none; stroke: #000000; stroke-linejoin: miter; stroke-linecap: square"/>
   </g>
   <g id="patch_5">
    <path d="M 35.58575 146.747947 
L 187.153451 146.747947 
" style="fill: none; stroke: #000000; stroke-linejoin: miter; stroke-linecap: square"/>
   </g>
   <g id="patch_6">
    <path d="M 35.58575 12.07875 
L 187.153451 12.07875 
" style="fill: none; stroke: #000000; stroke-linejoin: miter; stroke-linecap: square"/>
   </g>
   <g id="text_14">
    <text style="font: 8px 'DejaVu Sans', 'Bitstream Vera Sans', 'Computer Modern Sans Serif', 'Lucida Grande', 'Verdana', 'Geneva', 'Lucid', 'Arial', 'Helvetica', 'Avant Garde', sans-serif; text-anchor: middle" x="111.3696" y="6.07875" transform="rotate(-0 111.3696 6.07875)">Laboratory Phyllosilicate Serpentine</text>
   </g>
   <g id="legend_1">
    <g id="patch_7">
     <path d="M 194.384805 84.716786 
L 270.94668 84.716786 
Q 272.14668 84.716786 272.14668 83.516786 
L 272.14668 75.309911 
Q 272.14668 74.109911 270.94668 74.109911 
L 194.384805 74.109911 
Q 193.184805 74.109911 193.184805 75.309911 
L 193.184805 83.516786 
Q 193.184805 84.716786 194.384805 84.716786 
z
" style="fill: #ffffff; opacity: 0.8; stroke: #cccccc; stroke-width: 0.8; stroke-linejoin: miter"/>
    </g>
    <g id="line2d_63">
     <path d="M 195.584805 78.968973 
L 201.584805 78.968973 
L 207.584805 78.968973 
" style="fill: none; stroke: #1f77b4; stroke-width: 1.2; stroke-linecap: square"/>
    </g>
    <g id="text_15">
     <text style="font: 6px 'DejaVu Sans', 'Bitstream Vera Sans', 'Computer Modern Sans Serif', 'Lucida Grande', 'Verdana', 'Geneva', 'Lucid', 'Arial', 'Helvetica', 'Avant Garde', sans-serif; text-anchor: start" x="212.384805" y="81.068973" transform="rotate(-0 212.384805 81.068973)">Serpentine LALZ01</text>
    </g>
   </g>
  </g>
 </g>
 <defs>
  <clipPath id="p37740d9765">
   <rect x="35.58575" y="12.07875" width="151.567701" height="134.669197"/>
  </clipPath>
 </defs>
</svg>
