<?xml version="1.0" encoding="utf-8" standalone="no"?>
<!DOCTYPE svg PUBLIC "-//W3C//DTD SVG 1.1//EN"
  "http://www.w3.org/Graphics/SVG/1.1/DTD/svg11.dtd">
<svg xmlns:xlink="http://www.w3.org/1999/xlink" width="272.405767pt" height="176.645947pt" viewBox="0 0 272.405767 176.645947" xmlns="http://www.w3.org/2000/svg" version="1.1">
 <metadata>
  <rdf:RDF xmlns:dc="http://purl.org/dc/elements/1.1/" xmlns:cc="http://creativecommons.org/ns#" xmlns:rdf="http://www.w3.org/1999/02/22-rdf-syntax-ns#">
   <cc:Work>
    <dc:type rdf:resource="http://purl.org/dc/dcmitype/StillImage"/>
    <dc:date>2025-02-13T12:52:26.931693</dc:date>
    <dc:format>image/svg+xml</dc:format>
    <dc:creator>
     <cc:Agent>
      <dc:title>Matplotlib v3.6.2, https://matplotlib.org/</dc:title>
     </cc:Agent>
    </dc:creator>
   </cc:Work>
  </rdf:RDF>
 </metadata>
 <defs>
  <style type="text/css">*{stroke-linejoin: round; stroke-linecap: butt}</style>
 </defs>
 <g id="figure_1">
  <g id="patch_1">
   <path d="M -0 176.645947 
L 272.405767 176.645947 
L 272.405767 0 
L -0 0 
z
" style="fill: #ffffff"/>
  </g>
  <g id="axes_1">
   <g id="patch_2">
    <path d="M 35.58575 146.538197 
L 199.123451 146.538197 
L 199.123451 21.037 
L 35.58575 21.037 
z
" style="fill: #ffffff"/>
   </g>
   <g id="matplotlib.axis_1">
    <g id="xtick_1">
     <g id="line2d_1">
      <path d="M 46.62627 146.538197 
L 46.62627 21.037 
" clip-path="url(#pfe1cfe6db1)" style="fill: none; stroke: #b0b0b0; stroke-width: 0.6; stroke-linecap: square"/>
     </g>
     <g id="line2d_2">
      <defs>
       <path id="mf51dce0294" d="M 0 0 
L 0 4.8 
" style="stroke: #000000"/>
      </defs>
      <g>
       <use xlink:href="#mf51dce0294" x="46.62627" y="146.538197" style="stroke: #000000"/>
      </g>
     </g>
     <g id="text_1">
      <text style="font: 8.8px 'DejaVu Sans', 'Bitstream Vera Sans', 'Computer Modern Sans Serif', 'Lucida Grande', 'Verdana', 'Geneva', 'Lucid', 'Arial', 'Helvetica', 'Avant Garde', sans-serif; text-anchor: middle" x="46.62627" y="161.524822" transform="rotate(-0 46.62627 161.524822)">1000</text>
     </g>
    </g>
    <g id="xtick_2">
     <g id="line2d_3">
      <path d="M 81.127895 146.538197 
L 81.127895 21.037 
" clip-path="url(#pfe1cfe6db1)" style="fill: none; stroke: #b0b0b0; stroke-width: 0.6; stroke-linecap: square"/>
     </g>
     <g id="line2d_4">
      <g>
       <use xlink:href="#mf51dce0294" x="81.127895" y="146.538197" style="stroke: #000000"/>
      </g>
     </g>
     <g id="text_2">
      <text style="font: 8.8px 'DejaVu Sans', 'Bitstream Vera Sans', 'Computer Modern Sans Serif', 'Lucida Grande', 'Verdana', 'Geneva', 'Lucid', 'Arial', 'Helvetica', 'Avant Garde', sans-serif; text-anchor: middle" x="81.127895" y="161.524822" transform="rotate(-0 81.127895 161.524822)">1500</text>
     </g>
    </g>
    <g id="xtick_3">
     <g id="line2d_5">
      <path d="M 115.629519 146.538197 
L 115.629519 21.037 
" clip-path="url(#pfe1cfe6db1)" style="fill: none; stroke: #b0b0b0; stroke-width: 0.6; stroke-linecap: square"/>
     </g>
     <g id="line2d_6">
      <g>
       <use xlink:href="#mf51dce0294" x="115.629519" y="146.538197" style="stroke: #000000"/>
      </g>
     </g>
     <g id="text_3">
      <text style="font: 8.8px 'DejaVu Sans', 'Bitstream Vera Sans', 'Computer Modern Sans Serif', 'Lucida Grande', 'Verdana', 'Geneva', 'Lucid', 'Arial', 'Helvetica', 'Avant Garde', sans-serif; text-anchor: middle" x="115.629519" y="161.524822" transform="rotate(-0 115.629519 161.524822)">2000</text>
     </g>
    </g>
    <g id="xtick_4">
     <g id="line2d_7">
      <path d="M 150.131144 146.538197 
L 150.131144 21.037 
" clip-path="url(#pfe1cfe6db1)" style="fill: none; stroke: #b0b0b0; stroke-width: 0.6; stroke-linecap: square"/>
     </g>
     <g id="line2d_8">
      <g>
       <use xlink:href="#mf51dce0294" x="150.131144" y="146.538197" style="stroke: #000000"/>
      </g>
     </g>
     <g id="text_4">
      <text style="font: 8.8px 'DejaVu Sans', 'Bitstream Vera Sans', 'Computer Modern Sans Serif', 'Lucida Grande', 'Verdana', 'Geneva', 'Lucid', 'Arial', 'Helvetica', 'Avant Garde', sans-serif; text-anchor: middle" x="150.131144" y="161.524822" transform="rotate(-0 150.131144 161.524822)">2500</text>
     </g>
    </g>
    <g id="xtick_5">
     <g id="line2d_9">
      <path d="M 184.632768 146.538197 
L 184.632768 21.037 
" clip-path="url(#pfe1cfe6db1)" style="fill: none; stroke: #b0b0b0; stroke-width: 0.6; stroke-linecap: square"/>
     </g>
     <g id="line2d_10">
      <g>
       <use xlink:href="#mf51dce0294" x="184.632768" y="146.538197" style="stroke: #000000"/>
      </g>
     </g>
     <g id="text_5">
      <text style="font: 8.8px 'DejaVu Sans', 'Bitstream Vera Sans', 'Computer Modern Sans Serif', 'Lucida Grande', 'Verdana', 'Geneva', 'Lucid', 'Arial', 'Helvetica', 'Avant Garde', sans-serif; text-anchor: middle" x="184.632768" y="161.524822" transform="rotate(-0 184.632768 161.524822)">3000</text>
     </g>
    </g>
    <g id="xtick_6">
     <g id="line2d_11">
      <path d="M 39.725945 146.538197 
L 39.725945 21.037 
" clip-path="url(#pfe1cfe6db1)" style="fill: none; stroke: #b0b0b0; stroke-width: 0.3; stroke-linecap: square"/>
     </g>
     <g id="line2d_12">
      <defs>
       <path id="maa42127e5d" d="M 0 0 
L 0 3.2 
" style="stroke: #000000; stroke-width: 0.8"/>
      </defs>
      <g>
       <use xlink:href="#maa42127e5d" x="39.725945" y="146.538197" style="stroke: #000000; stroke-width: 0.8"/>
      </g>
     </g>
    </g>
    <g id="xtick_7">
     <g id="line2d_13">
      <path d="M 53.526595 146.538197 
L 53.526595 21.037 
" clip-path="url(#pfe1cfe6db1)" style="fill: none; stroke: #b0b0b0; stroke-width: 0.3; stroke-linecap: square"/>
     </g>
     <g id="line2d_14">
      <g>
       <use xlink:href="#maa42127e5d" x="53.526595" y="146.538197" style="stroke: #000000; stroke-width: 0.8"/>
      </g>
     </g>
    </g>
    <g id="xtick_8">
     <g id="line2d_15">
      <path d="M 60.42692 146.538197 
L 60.42692 21.037 
" clip-path="url(#pfe1cfe6db1)" style="fill: none; stroke: #b0b0b0; stroke-width: 0.3; stroke-linecap: square"/>
     </g>
     <g id="line2d_16">
      <g>
       <use xlink:href="#maa42127e5d" x="60.42692" y="146.538197" style="stroke: #000000; stroke-width: 0.8"/>
      </g>
     </g>
    </g>
    <g id="xtick_9">
     <g id="line2d_17">
      <path d="M 67.327245 146.538197 
L 67.327245 21.037 
" clip-path="url(#pfe1cfe6db1)" style="fill: none; stroke: #b0b0b0; stroke-width: 0.3; stroke-linecap: square"/>
     </g>
     <g id="line2d_18">
      <g>
       <use xlink:href="#maa42127e5d" x="67.327245" y="146.538197" style="stroke: #000000; stroke-width: 0.8"/>
      </g>
     </g>
    </g>
    <g id="xtick_10">
     <g id="line2d_19">
      <path d="M 74.22757 146.538197 
L 74.22757 21.037 
" clip-path="url(#pfe1cfe6db1)" style="fill: none; stroke: #b0b0b0; stroke-width: 0.3; stroke-linecap: square"/>
     </g>
     <g id="line2d_20">
      <g>
       <use xlink:href="#maa42127e5d" x="74.22757" y="146.538197" style="stroke: #000000; stroke-width: 0.8"/>
      </g>
     </g>
    </g>
    <g id="xtick_11">
     <g id="line2d_21">
      <path d="M 88.028219 146.538197 
L 88.028219 21.037 
" clip-path="url(#pfe1cfe6db1)" style="fill: none; stroke: #b0b0b0; stroke-width: 0.3; stroke-linecap: square"/>
     </g>
     <g id="line2d_22">
      <g>
       <use xlink:href="#maa42127e5d" x="88.028219" y="146.538197" style="stroke: #000000; stroke-width: 0.8"/>
      </g>
     </g>
    </g>
    <g id="xtick_12">
     <g id="line2d_23">
      <path d="M 94.928544 146.538197 
L 94.928544 21.037 
" clip-path="url(#pfe1cfe6db1)" style="fill: none; stroke: #b0b0b0; stroke-width: 0.3; stroke-linecap: square"/>
     </g>
     <g id="line2d_24">
      <g>
       <use xlink:href="#maa42127e5d" x="94.928544" y="146.538197" style="stroke: #000000; stroke-width: 0.8"/>
      </g>
     </g>
    </g>
    <g id="xtick_13">
     <g id="line2d_25">
      <path d="M 101.828869 146.538197 
L 101.828869 21.037 
" clip-path="url(#pfe1cfe6db1)" style="fill: none; stroke: #b0b0b0; stroke-width: 0.3; stroke-linecap: square"/>
     </g>
     <g id="line2d_26">
      <g>
       <use xlink:href="#maa42127e5d" x="101.828869" y="146.538197" style="stroke: #000000; stroke-width: 0.8"/>
      </g>
     </g>
    </g>
    <g id="xtick_14">
     <g id="line2d_27">
      <path d="M 108.729194 146.538197 
L 108.729194 21.037 
" clip-path="url(#pfe1cfe6db1)" style="fill: none; stroke: #b0b0b0; stroke-width: 0.3; stroke-linecap: square"/>
     </g>
     <g id="line2d_28">
      <g>
       <use xlink:href="#maa42127e5d" x="108.729194" y="146.538197" style="stroke: #000000; stroke-width: 0.8"/>
      </g>
     </g>
    </g>
    <g id="xtick_15">
     <g id="line2d_29">
      <path d="M 122.529844 146.538197 
L 122.529844 21.037 
" clip-path="url(#pfe1cfe6db1)" style="fill: none; stroke: #b0b0b0; stroke-width: 0.3; stroke-linecap: square"/>
     </g>
     <g id="line2d_30">
      <g>
       <use xlink:href="#maa42127e5d" x="122.529844" y="146.538197" style="stroke: #000000; stroke-width: 0.8"/>
      </g>
     </g>
    </g>
    <g id="xtick_16">
     <g id="line2d_31">
      <path d="M 129.430169 146.538197 
L 129.430169 21.037 
" clip-path="url(#pfe1cfe6db1)" style="fill: none; stroke: #b0b0b0; stroke-width: 0.3; stroke-linecap: square"/>
     </g>
     <g id="line2d_32">
      <g>
       <use xlink:href="#maa42127e5d" x="129.430169" y="146.538197" style="stroke: #000000; stroke-width: 0.8"/>
      </g>
     </g>
    </g>
    <g id="xtick_17">
     <g id="line2d_33">
      <path d="M 136.330494 146.538197 
L 136.330494 21.037 
" clip-path="url(#pfe1cfe6db1)" style="fill: none; stroke: #b0b0b0; stroke-width: 0.3; stroke-linecap: square"/>
     </g>
     <g id="line2d_34">
      <g>
       <use xlink:href="#maa42127e5d" x="136.330494" y="146.538197" style="stroke: #000000; stroke-width: 0.8"/>
      </g>
     </g>
    </g>
    <g id="xtick_18">
     <g id="line2d_35">
      <path d="M 143.230819 146.538197 
L 143.230819 21.037 
" clip-path="url(#pfe1cfe6db1)" style="fill: none; stroke: #b0b0b0; stroke-width: 0.3; stroke-linecap: square"/>
     </g>
     <g id="line2d_36">
      <g>
       <use xlink:href="#maa42127e5d" x="143.230819" y="146.538197" style="stroke: #000000; stroke-width: 0.8"/>
      </g>
     </g>
    </g>
    <g id="xtick_19">
     <g id="line2d_37">
      <path d="M 157.031469 146.538197 
L 157.031469 21.037 
" clip-path="url(#pfe1cfe6db1)" style="fill: none; stroke: #b0b0b0; stroke-width: 0.3; stroke-linecap: square"/>
     </g>
     <g id="line2d_38">
      <g>
       <use xlink:href="#maa42127e5d" x="157.031469" y="146.538197" style="stroke: #000000; stroke-width: 0.8"/>
      </g>
     </g>
    </g>
    <g id="xtick_20">
     <g id="line2d_39">
      <path d="M 163.931794 146.538197 
L 163.931794 21.037 
" clip-path="url(#pfe1cfe6db1)" style="fill: none; stroke: #b0b0b0; stroke-width: 0.3; stroke-linecap: square"/>
     </g>
     <g id="line2d_40">
      <g>
       <use xlink:href="#maa42127e5d" x="163.931794" y="146.538197" style="stroke: #000000; stroke-width: 0.8"/>
      </g>
     </g>
    </g>
    <g id="xtick_21">
     <g id="line2d_41">
      <path d="M 170.832119 146.538197 
L 170.832119 21.037 
" clip-path="url(#pfe1cfe6db1)" style="fill: none; stroke: #b0b0b0; stroke-width: 0.3; stroke-linecap: square"/>
     </g>
     <g id="line2d_42">
      <g>
       <use xlink:href="#maa42127e5d" x="170.832119" y="146.538197" style="stroke: #000000; stroke-width: 0.8"/>
      </g>
     </g>
    </g>
    <g id="xtick_22">
     <g id="line2d_43">
      <path d="M 177.732444 146.538197 
L 177.732444 21.037 
" clip-path="url(#pfe1cfe6db1)" style="fill: none; stroke: #b0b0b0; stroke-width: 0.3; stroke-linecap: square"/>
     </g>
     <g id="line2d_44">
      <g>
       <use xlink:href="#maa42127e5d" x="177.732444" y="146.538197" style="stroke: #000000; stroke-width: 0.8"/>
      </g>
     </g>
    </g>
    <g id="xtick_23">
     <g id="line2d_45">
      <path d="M 191.533093 146.538197 
L 191.533093 21.037 
" clip-path="url(#pfe1cfe6db1)" style="fill: none; stroke: #b0b0b0; stroke-width: 0.3; stroke-linecap: square"/>
     </g>
     <g id="line2d_46">
      <g>
       <use xlink:href="#maa42127e5d" x="191.533093" y="146.538197" style="stroke: #000000; stroke-width: 0.8"/>
      </g>
     </g>
    </g>
    <g id="xtick_24">
     <g id="line2d_47">
      <path d="M 198.433418 146.538197 
L 198.433418 21.037 
" clip-path="url(#pfe1cfe6db1)" style="fill: none; stroke: #b0b0b0; stroke-width: 0.3; stroke-linecap: square"/>
     </g>
     <g id="line2d_48">
      <g>
       <use xlink:href="#maa42127e5d" x="198.433418" y="146.538197" style="stroke: #000000; stroke-width: 0.8"/>
      </g>
     </g>
    </g>
    <g id="text_6">
     <text style="font: 9.6px 'DejaVu Sans', 'Bitstream Vera Sans', 'Computer Modern Sans Serif', 'Lucida Grande', 'Verdana', 'Geneva', 'Lucid', 'Arial', 'Helvetica', 'Avant Garde', sans-serif; text-anchor: middle" x="117.3546" y="174.649447" transform="rotate(-0 117.3546 174.649447)">Wavelength (nm)</text>
    </g>
   </g>
   <g id="matplotlib.axis_2">
    <g id="ytick_1">
     <g id="line2d_49">
      <path d="M 35.58575 126.829387 
L 199.123451 126.829387 
" clip-path="url(#pfe1cfe6db1)" style="fill: none; stroke: #b0b0b0; stroke-width: 0.6; stroke-linecap: square"/>
     </g>
     <g id="line2d_50">
      <defs>
       <path id="m0e91d07867" d="M 0 0 
L -4.8 0 
" style="stroke: #000000"/>
      </defs>
      <g>
       <use xlink:href="#m0e91d07867" x="35.58575" y="126.829387" style="stroke: #000000"/>
      </g>
     </g>
     <g id="text_7">
      <text style="font: 8.8px 'DejaVu Sans', 'Bitstream Vera Sans', 'Computer Modern Sans Serif', 'Lucida Grande', 'Verdana', 'Geneva', 'Lucid', 'Arial', 'Helvetica', 'Avant Garde', sans-serif; text-anchor: end" x="27.28575" y="130.1727" transform="rotate(-0 27.28575 130.1727)">0.2</text>
     </g>
    </g>
    <g id="ytick_2">
     <g id="line2d_51">
      <path d="M 35.58575 105.732959 
L 199.123451 105.732959 
" clip-path="url(#pfe1cfe6db1)" style="fill: none; stroke: #b0b0b0; stroke-width: 0.6; stroke-linecap: square"/>
     </g>
     <g id="line2d_52">
      <g>
       <use xlink:href="#m0e91d07867" x="35.58575" y="105.732959" style="stroke: #000000"/>
      </g>
     </g>
     <g id="text_8">
      <text style="font: 8.8px 'DejaVu Sans', 'Bitstream Vera Sans', 'Computer Modern Sans Serif', 'Lucida Grande', 'Verdana', 'Geneva', 'Lucid', 'Arial', 'Helvetica', 'Avant Garde', sans-serif; text-anchor: end" x="27.28575" y="109.076272" transform="rotate(-0 27.28575 109.076272)">0.3</text>
     </g>
    </g>
    <g id="ytick_3">
     <g id="line2d_53">
      <path d="M 35.58575 84.636531 
L 199.123451 84.636531 
" clip-path="url(#pfe1cfe6db1)" style="fill: none; stroke: #b0b0b0; stroke-width: 0.6; stroke-linecap: square"/>
     </g>
     <g id="line2d_54">
      <g>
       <use xlink:href="#m0e91d07867" x="35.58575" y="84.636531" style="stroke: #000000"/>
      </g>
     </g>
     <g id="text_9">
      <text style="font: 8.8px 'DejaVu Sans', 'Bitstream Vera Sans', 'Computer Modern Sans Serif', 'Lucida Grande', 'Verdana', 'Geneva', 'Lucid', 'Arial', 'Helvetica', 'Avant Garde', sans-serif; text-anchor: end" x="27.28575" y="87.979843" transform="rotate(-0 27.28575 87.979843)">0.4</text>
     </g>
    </g>
    <g id="ytick_4">
     <g id="line2d_55">
      <path d="M 35.58575 63.540102 
L 199.123451 63.540102 
" clip-path="url(#pfe1cfe6db1)" style="fill: none; stroke: #b0b0b0; stroke-width: 0.6; stroke-linecap: square"/>
     </g>
     <g id="line2d_56">
      <g>
       <use xlink:href="#m0e91d07867" x="35.58575" y="63.540102" style="stroke: #000000"/>
      </g>
     </g>
     <g id="text_10">
      <text style="font: 8.8px 'DejaVu Sans', 'Bitstream Vera Sans', 'Computer Modern Sans Serif', 'Lucida Grande', 'Verdana', 'Geneva', 'Lucid', 'Arial', 'Helvetica', 'Avant Garde', sans-serif; text-anchor: end" x="27.28575" y="66.883415" transform="rotate(-0 27.28575 66.883415)">0.5</text>
     </g>
    </g>
    <g id="ytick_5">
     <g id="line2d_57">
      <path d="M 35.58575 42.443674 
L 199.123451 42.443674 
" clip-path="url(#pfe1cfe6db1)" style="fill: none; stroke: #b0b0b0; stroke-width: 0.6; stroke-linecap: square"/>
     </g>
     <g id="line2d_58">
      <g>
       <use xlink:href="#m0e91d07867" x="35.58575" y="42.443674" style="stroke: #000000"/>
      </g>
     </g>
     <g id="text_11">
      <text style="font: 8.8px 'DejaVu Sans', 'Bitstream Vera Sans', 'Computer Modern Sans Serif', 'Lucida Grande', 'Verdana', 'Geneva', 'Lucid', 'Arial', 'Helvetica', 'Avant Garde', sans-serif; text-anchor: end" x="27.28575" y="45.786987" transform="rotate(-0 27.28575 45.786987)">0.6</text>
     </g>
    </g>
    <g id="ytick_6">
     <g id="line2d_59">
      <path d="M 35.58575 21.347246 
L 199.123451 21.347246 
" clip-path="url(#pfe1cfe6db1)" style="fill: none; stroke: #b0b0b0; stroke-width: 0.6; stroke-linecap: square"/>
     </g>
     <g id="line2d_60">
      <g>
       <use xlink:href="#m0e91d07867" x="35.58575" y="21.347246" style="stroke: #000000"/>
      </g>
     </g>
     <g id="text_12">
      <text style="font: 8.8px 'DejaVu Sans', 'Bitstream Vera Sans', 'Computer Modern Sans Serif', 'Lucida Grande', 'Verdana', 'Geneva', 'Lucid', 'Arial', 'Helvetica', 'Avant Garde', sans-serif; text-anchor: end" x="27.28575" y="24.690558" transform="rotate(-0 27.28575 24.690558)">0.7</text>
     </g>
    </g>
    <g id="text_13">
     <text style="font: 9.6px 'DejaVu Sans', 'Bitstream Vera Sans', 'Computer Modern Sans Serif', 'Lucida Grande', 'Verdana', 'Geneva', 'Lucid', 'Arial', 'Helvetica', 'Avant Garde', sans-serif; text-anchor: middle" x="7.2945" y="83.787598" transform="rotate(-90 7.2945 83.787598)">Reflectance</text>
    </g>
   </g>
   <g id="line2d_61">
    <path d="M 36.275782 114.554733 
L 36.965815 113.939886 
L 37.724851 114.415825 
L 39.035912 114.134004 
L 39.518935 114.43521 
L 40.208968 115.124898 
L 40.760994 115.490485 
L 41.796042 116.988772 
L 43.45212 118.413025 
L 43.590127 118.486424 
L 44.556172 119.535086 
L 44.970192 120.122875 
L 45.384211 120.191777 
L 46.074244 120.557491 
L 46.350257 120.57225 
L 47.454309 121.371717 
L 47.868328 121.1837 
L 48.144341 121.114699 
L 48.765371 121.185116 
L 49.17939 120.992899 
L 49.524406 120.953673 
L 50.904471 120.13632 
L 52.698556 117.922637 
L 53.181579 117.054068 
L 54.354634 114.126697 
L 57.045761 107.15825 
L 57.66679 105.242584 
L 58.356822 103.372053 
L 59.874894 97.739204 
L 60.357916 96.164943 
L 60.909942 94.458767 
L 61.323962 93.109772 
L 61.806985 91.680001 
L 62.77303 89.045585 
L 63.463063 87.603068 
L 64.843128 85.099406 
L 66.568209 83.493903 
L 66.775219 83.219747 
L 67.120235 82.862917 
L 67.534254 82.681958 
L 67.810267 82.606514 
L 68.155284 82.567327 
L 68.845316 82.124461 
L 69.190332 81.780493 
L 69.811362 81.62788 
L 70.225381 81.550273 
L 71.05342 80.861074 
L 71.605446 80.286513 
L 72.088469 79.920404 
L 72.295479 79.850402 
L 72.640495 79.915832 
L 72.916508 79.998589 
L 73.330527 79.706585 
L 73.744547 79.322618 
L 74.22757 78.97841 
L 74.848599 78.059975 
L 74.986605 77.994242 
L 75.538631 77.975254 
L 75.745641 77.851002 
L 76.159661 77.636111 
L 76.711687 77.400848 
L 77.194709 77.099728 
L 78.574774 76.710629 
L 79.1268 76.500499 
L 79.54082 76.734653 
L 79.885836 76.981631 
L 80.161849 76.991878 
L 80.437862 76.824859 
L 82.09394 79.581898 
L 82.438956 80.208732 
L 83.266995 81.986189 
L 83.888024 84.067642 
L 83.957028 83.983472 
L 84.302044 83.445808 
L 84.785067 81.698024 
L 85.820115 77.450654 
L 86.648154 75.12043 
L 87.683203 72.351134 
L 89.063268 69.532545 
L 89.753301 68.517221 
L 90.650343 66.855216 
L 90.926356 66.383787 
L 92.099411 64.115967 
L 92.375424 63.776482 
L 93.893496 62.255949 
L 94.652531 59.267998 
L 94.997548 58.45466 
L 95.549574 58.134555 
L 95.825587 57.803273 
L 96.239606 57.075896 
L 96.998642 55.356071 
L 98.171697 52.849659 
L 98.585717 52.416225 
L 98.792726 52.218052 
L 99.551762 51.156428 
L 99.896778 50.883319 
L 100.448804 50.078385 
L 101.069834 47.691561 
L 101.20784 47.475278 
L 101.62186 47.281973 
L 102.173886 46.74173 
L 102.932921 48.511707 
L 103.691957 51.452124 
L 104.243983 52.19293 
L 105.762055 43.984032 
L 106.659097 43.392738 
L 107.280126 43.028871 
L 107.694145 42.695095 
L 109.143214 37.744114 
L 109.902249 37.179041 
L 110.454275 37.118087 
L 111.144308 38.296854 
L 111.83434 42.596914 
L 111.903344 42.534195 
L 112.524373 41.969738 
L 113.628425 33.863331 
L 113.973441 32.16234 
L 114.80148 31.608395 
L 115.422509 31.09018 
L 115.974535 31.096497 
L 116.664568 29.705612 
L 116.733571 29.814004 
L 117.3546 30.789567 
L 118.182639 29.011318 
L 118.872672 28.662918 
L 119.769714 27.64901 
L 120.183734 27.173975 
L 122.322834 27.278001 
L 122.943864 26.796653 
L 123.633896 27.24196 
L 124.392932 26.80533 
L 125.63499 26.943458 
L 126.601036 29.506161 
L 127.084059 30.604695 
L 127.912098 33.867795 
L 128.80914 36.252389 
L 129.223159 37.756761 
L 130.603224 44.809942 
L 131.224253 51.416463 
L 131.983289 67.097367 
L 132.811328 90.430594 
L 133.225348 98.625003 
L 133.294351 97.808678 
L 134.398403 85.943866 
L 134.605413 84.007643 
L 135.364448 89.591503 
L 136.123484 100.250573 
L 137.641556 129.366185 
L 138.331588 137.339251 
L 138.745608 140.833597 
L 138.814611 140.594745 
L 139.43564 138.445017 
L 140.263679 119.970711 
L 141.712747 77.249692 
L 142.540786 63.734975 
L 143.437829 54.517257 
L 144.541881 48.603156 
L 144.74889 48.248375 
L 145.990949 47.412476 
L 147.785033 51.490371 
L 148.958089 56.9084 
L 150.200147 62.344164 
L 152.201241 68.876398 
L 154.133332 70.73071 
L 154.133332 70.73071 
" clip-path="url(#pfe1cfe6db1)" style="fill: none; stroke: #1f77b4; stroke-width: 0.5; stroke-linecap: square"/>
   </g>
   <g id="line2d_62"/>
   <g id="patch_3">
    <path d="M 35.58575 146.538197 
L 35.58575 21.037 
" style="fill: none; stroke: #000000; stroke-linejoin: miter; stroke-linecap: square"/>
   </g>
   <g id="patch_4">
    <path d="M 199.123451 146.538197 
L 199.123451 21.037 
" style="fill: none; stroke: #000000; stroke-linejoin: miter; stroke-linecap: square"/>
   </g>
   <g id="patch_5">
    <path d="M 35.58575 146.538197 
L 199.123451 146.538197 
" style="fill: none; stroke: #000000; stroke-linejoin: miter; stroke-linecap: square"/>
   </g>
   <g id="patch_6">
    <path d="M 35.58575 21.037 
L 199.123451 21.037 
" style="fill: none; stroke: #000000; stroke-linejoin: miter; stroke-linecap: square"/>
   </g>
   <g id="text_14">
    <text style="font: 8px 'DejaVu Sans', 'Bitstream Vera Sans', 'Computer Modern Sans Serif', 'Lucida Grande', 'Verdana', 'Geneva', 'Lucid', 'Arial', 'Helvetica', 'Avant Garde', sans-serif" transform="translate(56.990225 6.07875)">Laboratory Hydrated silicates </text>
    <text style="font: 8px 'DejaVu Sans', 'Bitstream Vera Sans', 'Computer Modern Sans Serif', 'Lucida Grande', 'Verdana', 'Geneva', 'Lucid', 'Arial', 'Helvetica', 'Avant Garde', sans-serif" transform="translate(80.933975 15.037)"> &amp; halides Epidote</text>
   </g>
   <g id="legend_1">
    <g id="patch_7">
     <path d="M 206.594205 89.091036 
L 271.205767 89.091036 
Q 272.405767 89.091036 272.405767 87.891036 
L 272.405767 79.684161 
Q 272.405767 78.484161 271.205767 78.484161 
L 206.594205 78.484161 
Q 205.394205 78.484161 205.394205 79.684161 
L 205.394205 87.891036 
Q 205.394205 89.091036 206.594205 89.091036 
z
" style="fill: #ffffff; opacity: 0.8; stroke: #cccccc; stroke-width: 0.8; stroke-linejoin: miter"/>
    </g>
    <g id="line2d_63">
     <path d="M 207.794205 83.343223 
L 213.794205 83.343223 
L 219.794205 83.343223 
" style="fill: none; stroke: #1f77b4; stroke-width: 1.2; stroke-linecap: square"/>
    </g>
    <g id="text_15">
     <text style="font: 6px 'DejaVu Sans', 'Bitstream Vera Sans', 'Computer Modern Sans Serif', 'Lucida Grande', 'Verdana', 'Geneva', 'Lucid', 'Arial', 'Helvetica', 'Avant Garde', sans-serif; text-anchor: start" x="224.594205" y="85.443223" transform="rotate(-0 224.594205 85.443223)">Epidote GDS26</text>
    </g>
   </g>
  </g>
 </g>
 <defs>
  <clipPath id="pfe1cfe6db1">
   <rect x="35.58575" y="21.037" width="163.537701" height="125.501197"/>
  </clipPath>
 </defs>
</svg>
