<?xml version="1.0" encoding="utf-8" standalone="no"?>
<!DOCTYPE svg PUBLIC "-//W3C//DTD SVG 1.1//EN"
  "http://www.w3.org/Graphics/SVG/1.1/DTD/svg11.dtd">
<svg xmlns:xlink="http://www.w3.org/1999/xlink" width="272.320605pt" height="176.855697pt" viewBox="0 0 272.320605 176.855697" xmlns="http://www.w3.org/2000/svg" version="1.1">
 <metadata>
  <rdf:RDF xmlns:dc="http://purl.org/dc/elements/1.1/" xmlns:cc="http://creativecommons.org/ns#" xmlns:rdf="http://www.w3.org/1999/02/22-rdf-syntax-ns#">
   <cc:Work>
    <dc:type rdf:resource="http://purl.org/dc/dcmitype/StillImage"/>
    <dc:date>2025-02-13T12:52:25.390915</dc:date>
    <dc:format>image/svg+xml</dc:format>
    <dc:creator>
     <cc:Agent>
      <dc:title>Matplotlib v3.6.2, https://matplotlib.org/</dc:title>
     </cc:Agent>
    </dc:creator>
   </cc:Work>
  </rdf:RDF>
 </metadata>
 <defs>
  <style type="text/css">*{stroke-linejoin: round; stroke-linecap: butt}</style>
 </defs>
 <g id="figure_1">
  <g id="patch_1">
   <path d="M -0 176.855697 
L 272.320605 176.855697 
L 272.320605 0 
L -0 0 
z
" style="fill: #ffffff"/>
  </g>
  <g id="axes_1">
   <g id="patch_2">
    <path d="M 35.58575 146.747947 
L 192.943451 146.747947 
L 192.943451 12.07875 
L 35.58575 12.07875 
z
" style="fill: #ffffff"/>
   </g>
   <g id="matplotlib.axis_1">
    <g id="xtick_1">
     <g id="line2d_1">
      <path d="M 46.209055 146.747947 
L 46.209055 12.07875 
" clip-path="url(#p375b3d1d87)" style="fill: none; stroke: #b0b0b0; stroke-width: 0.6; stroke-linecap: square"/>
     </g>
     <g id="line2d_2">
      <defs>
       <path id="m0de9e89e22" d="M 0 0 
L 0 4.8 
" style="stroke: #000000"/>
      </defs>
      <g>
       <use xlink:href="#m0de9e89e22" x="46.209055" y="146.747947" style="stroke: #000000"/>
      </g>
     </g>
     <g id="text_1">
      <text style="font: 8.8px 'DejaVu Sans', 'Bitstream Vera Sans', 'Computer Modern Sans Serif', 'Lucida Grande', 'Verdana', 'Geneva', 'Lucid', 'Arial', 'Helvetica', 'Avant Garde', sans-serif; text-anchor: middle" x="46.209055" y="161.734572" transform="rotate(-0 46.209055 161.734572)">1000</text>
     </g>
    </g>
    <g id="xtick_2">
     <g id="line2d_3">
      <path d="M 79.406882 146.747947 
L 79.406882 12.07875 
" clip-path="url(#p375b3d1d87)" style="fill: none; stroke: #b0b0b0; stroke-width: 0.6; stroke-linecap: square"/>
     </g>
     <g id="line2d_4">
      <g>
       <use xlink:href="#m0de9e89e22" x="79.406882" y="146.747947" style="stroke: #000000"/>
      </g>
     </g>
     <g id="text_2">
      <text style="font: 8.8px 'DejaVu Sans', 'Bitstream Vera Sans', 'Computer Modern Sans Serif', 'Lucida Grande', 'Verdana', 'Geneva', 'Lucid', 'Arial', 'Helvetica', 'Avant Garde', sans-serif; text-anchor: middle" x="79.406882" y="161.734572" transform="rotate(-0 79.406882 161.734572)">1500</text>
     </g>
    </g>
    <g id="xtick_3">
     <g id="line2d_5">
      <path d="M 112.604709 146.747947 
L 112.604709 12.07875 
" clip-path="url(#p375b3d1d87)" style="fill: none; stroke: #b0b0b0; stroke-width: 0.6; stroke-linecap: square"/>
     </g>
     <g id="line2d_6">
      <g>
       <use xlink:href="#m0de9e89e22" x="112.604709" y="146.747947" style="stroke: #000000"/>
      </g>
     </g>
     <g id="text_3">
      <text style="font: 8.8px 'DejaVu Sans', 'Bitstream Vera Sans', 'Computer Modern Sans Serif', 'Lucida Grande', 'Verdana', 'Geneva', 'Lucid', 'Arial', 'Helvetica', 'Avant Garde', sans-serif; text-anchor: middle" x="112.604709" y="161.734572" transform="rotate(-0 112.604709 161.734572)">2000</text>
     </g>
    </g>
    <g id="xtick_4">
     <g id="line2d_7">
      <path d="M 145.802536 146.747947 
L 145.802536 12.07875 
" clip-path="url(#p375b3d1d87)" style="fill: none; stroke: #b0b0b0; stroke-width: 0.6; stroke-linecap: square"/>
     </g>
     <g id="line2d_8">
      <g>
       <use xlink:href="#m0de9e89e22" x="145.802536" y="146.747947" style="stroke: #000000"/>
      </g>
     </g>
     <g id="text_4">
      <text style="font: 8.8px 'DejaVu Sans', 'Bitstream Vera Sans', 'Computer Modern Sans Serif', 'Lucida Grande', 'Verdana', 'Geneva', 'Lucid', 'Arial', 'Helvetica', 'Avant Garde', sans-serif; text-anchor: middle" x="145.802536" y="161.734572" transform="rotate(-0 145.802536 161.734572)">2500</text>
     </g>
    </g>
    <g id="xtick_5">
     <g id="line2d_9">
      <path d="M 179.000363 146.747947 
L 179.000363 12.07875 
" clip-path="url(#p375b3d1d87)" style="fill: none; stroke: #b0b0b0; stroke-width: 0.6; stroke-linecap: square"/>
     </g>
     <g id="line2d_10">
      <g>
       <use xlink:href="#m0de9e89e22" x="179.000363" y="146.747947" style="stroke: #000000"/>
      </g>
     </g>
     <g id="text_5">
      <text style="font: 8.8px 'DejaVu Sans', 'Bitstream Vera Sans', 'Computer Modern Sans Serif', 'Lucida Grande', 'Verdana', 'Geneva', 'Lucid', 'Arial', 'Helvetica', 'Avant Garde', sans-serif; text-anchor: middle" x="179.000363" y="161.734572" transform="rotate(-0 179.000363 161.734572)">3000</text>
     </g>
    </g>
    <g id="xtick_6">
     <g id="line2d_11">
      <path d="M 39.569489 146.747947 
L 39.569489 12.07875 
" clip-path="url(#p375b3d1d87)" style="fill: none; stroke: #b0b0b0; stroke-width: 0.3; stroke-linecap: square"/>
     </g>
     <g id="line2d_12">
      <defs>
       <path id="mdcfb0a0a68" d="M 0 0 
L 0 3.2 
" style="stroke: #000000; stroke-width: 0.8"/>
      </defs>
      <g>
       <use xlink:href="#mdcfb0a0a68" x="39.569489" y="146.747947" style="stroke: #000000; stroke-width: 0.8"/>
      </g>
     </g>
    </g>
    <g id="xtick_7">
     <g id="line2d_13">
      <path d="M 52.84862 146.747947 
L 52.84862 12.07875 
" clip-path="url(#p375b3d1d87)" style="fill: none; stroke: #b0b0b0; stroke-width: 0.3; stroke-linecap: square"/>
     </g>
     <g id="line2d_14">
      <g>
       <use xlink:href="#mdcfb0a0a68" x="52.84862" y="146.747947" style="stroke: #000000; stroke-width: 0.8"/>
      </g>
     </g>
    </g>
    <g id="xtick_8">
     <g id="line2d_15">
      <path d="M 59.488186 146.747947 
L 59.488186 12.07875 
" clip-path="url(#p375b3d1d87)" style="fill: none; stroke: #b0b0b0; stroke-width: 0.3; stroke-linecap: square"/>
     </g>
     <g id="line2d_16">
      <g>
       <use xlink:href="#mdcfb0a0a68" x="59.488186" y="146.747947" style="stroke: #000000; stroke-width: 0.8"/>
      </g>
     </g>
    </g>
    <g id="xtick_9">
     <g id="line2d_17">
      <path d="M 66.127751 146.747947 
L 66.127751 12.07875 
" clip-path="url(#p375b3d1d87)" style="fill: none; stroke: #b0b0b0; stroke-width: 0.3; stroke-linecap: square"/>
     </g>
     <g id="line2d_18">
      <g>
       <use xlink:href="#mdcfb0a0a68" x="66.127751" y="146.747947" style="stroke: #000000; stroke-width: 0.8"/>
      </g>
     </g>
    </g>
    <g id="xtick_10">
     <g id="line2d_19">
      <path d="M 72.767316 146.747947 
L 72.767316 12.07875 
" clip-path="url(#p375b3d1d87)" style="fill: none; stroke: #b0b0b0; stroke-width: 0.3; stroke-linecap: square"/>
     </g>
     <g id="line2d_20">
      <g>
       <use xlink:href="#mdcfb0a0a68" x="72.767316" y="146.747947" style="stroke: #000000; stroke-width: 0.8"/>
      </g>
     </g>
    </g>
    <g id="xtick_11">
     <g id="line2d_21">
      <path d="M 86.046447 146.747947 
L 86.046447 12.07875 
" clip-path="url(#p375b3d1d87)" style="fill: none; stroke: #b0b0b0; stroke-width: 0.3; stroke-linecap: square"/>
     </g>
     <g id="line2d_22">
      <g>
       <use xlink:href="#mdcfb0a0a68" x="86.046447" y="146.747947" style="stroke: #000000; stroke-width: 0.8"/>
      </g>
     </g>
    </g>
    <g id="xtick_12">
     <g id="line2d_23">
      <path d="M 92.686013 146.747947 
L 92.686013 12.07875 
" clip-path="url(#p375b3d1d87)" style="fill: none; stroke: #b0b0b0; stroke-width: 0.3; stroke-linecap: square"/>
     </g>
     <g id="line2d_24">
      <g>
       <use xlink:href="#mdcfb0a0a68" x="92.686013" y="146.747947" style="stroke: #000000; stroke-width: 0.8"/>
      </g>
     </g>
    </g>
    <g id="xtick_13">
     <g id="line2d_25">
      <path d="M 99.325578 146.747947 
L 99.325578 12.07875 
" clip-path="url(#p375b3d1d87)" style="fill: none; stroke: #b0b0b0; stroke-width: 0.3; stroke-linecap: square"/>
     </g>
     <g id="line2d_26">
      <g>
       <use xlink:href="#mdcfb0a0a68" x="99.325578" y="146.747947" style="stroke: #000000; stroke-width: 0.8"/>
      </g>
     </g>
    </g>
    <g id="xtick_14">
     <g id="line2d_27">
      <path d="M 105.965144 146.747947 
L 105.965144 12.07875 
" clip-path="url(#p375b3d1d87)" style="fill: none; stroke: #b0b0b0; stroke-width: 0.3; stroke-linecap: square"/>
     </g>
     <g id="line2d_28">
      <g>
       <use xlink:href="#mdcfb0a0a68" x="105.965144" y="146.747947" style="stroke: #000000; stroke-width: 0.8"/>
      </g>
     </g>
    </g>
    <g id="xtick_15">
     <g id="line2d_29">
      <path d="M 119.244274 146.747947 
L 119.244274 12.07875 
" clip-path="url(#p375b3d1d87)" style="fill: none; stroke: #b0b0b0; stroke-width: 0.3; stroke-linecap: square"/>
     </g>
     <g id="line2d_30">
      <g>
       <use xlink:href="#mdcfb0a0a68" x="119.244274" y="146.747947" style="stroke: #000000; stroke-width: 0.8"/>
      </g>
     </g>
    </g>
    <g id="xtick_16">
     <g id="line2d_31">
      <path d="M 125.88384 146.747947 
L 125.88384 12.07875 
" clip-path="url(#p375b3d1d87)" style="fill: none; stroke: #b0b0b0; stroke-width: 0.3; stroke-linecap: square"/>
     </g>
     <g id="line2d_32">
      <g>
       <use xlink:href="#mdcfb0a0a68" x="125.88384" y="146.747947" style="stroke: #000000; stroke-width: 0.8"/>
      </g>
     </g>
    </g>
    <g id="xtick_17">
     <g id="line2d_33">
      <path d="M 132.523405 146.747947 
L 132.523405 12.07875 
" clip-path="url(#p375b3d1d87)" style="fill: none; stroke: #b0b0b0; stroke-width: 0.3; stroke-linecap: square"/>
     </g>
     <g id="line2d_34">
      <g>
       <use xlink:href="#mdcfb0a0a68" x="132.523405" y="146.747947" style="stroke: #000000; stroke-width: 0.8"/>
      </g>
     </g>
    </g>
    <g id="xtick_18">
     <g id="line2d_35">
      <path d="M 139.162971 146.747947 
L 139.162971 12.07875 
" clip-path="url(#p375b3d1d87)" style="fill: none; stroke: #b0b0b0; stroke-width: 0.3; stroke-linecap: square"/>
     </g>
     <g id="line2d_36">
      <g>
       <use xlink:href="#mdcfb0a0a68" x="139.162971" y="146.747947" style="stroke: #000000; stroke-width: 0.8"/>
      </g>
     </g>
    </g>
    <g id="xtick_19">
     <g id="line2d_37">
      <path d="M 152.442102 146.747947 
L 152.442102 12.07875 
" clip-path="url(#p375b3d1d87)" style="fill: none; stroke: #b0b0b0; stroke-width: 0.3; stroke-linecap: square"/>
     </g>
     <g id="line2d_38">
      <g>
       <use xlink:href="#mdcfb0a0a68" x="152.442102" y="146.747947" style="stroke: #000000; stroke-width: 0.8"/>
      </g>
     </g>
    </g>
    <g id="xtick_20">
     <g id="line2d_39">
      <path d="M 159.081667 146.747947 
L 159.081667 12.07875 
" clip-path="url(#p375b3d1d87)" style="fill: none; stroke: #b0b0b0; stroke-width: 0.3; stroke-linecap: square"/>
     </g>
     <g id="line2d_40">
      <g>
       <use xlink:href="#mdcfb0a0a68" x="159.081667" y="146.747947" style="stroke: #000000; stroke-width: 0.8"/>
      </g>
     </g>
    </g>
    <g id="xtick_21">
     <g id="line2d_41">
      <path d="M 165.721233 146.747947 
L 165.721233 12.07875 
" clip-path="url(#p375b3d1d87)" style="fill: none; stroke: #b0b0b0; stroke-width: 0.3; stroke-linecap: square"/>
     </g>
     <g id="line2d_42">
      <g>
       <use xlink:href="#mdcfb0a0a68" x="165.721233" y="146.747947" style="stroke: #000000; stroke-width: 0.8"/>
      </g>
     </g>
    </g>
    <g id="xtick_22">
     <g id="line2d_43">
      <path d="M 172.360798 146.747947 
L 172.360798 12.07875 
" clip-path="url(#p375b3d1d87)" style="fill: none; stroke: #b0b0b0; stroke-width: 0.3; stroke-linecap: square"/>
     </g>
     <g id="line2d_44">
      <g>
       <use xlink:href="#mdcfb0a0a68" x="172.360798" y="146.747947" style="stroke: #000000; stroke-width: 0.8"/>
      </g>
     </g>
    </g>
    <g id="xtick_23">
     <g id="line2d_45">
      <path d="M 185.639929 146.747947 
L 185.639929 12.07875 
" clip-path="url(#p375b3d1d87)" style="fill: none; stroke: #b0b0b0; stroke-width: 0.3; stroke-linecap: square"/>
     </g>
     <g id="line2d_46">
      <g>
       <use xlink:href="#mdcfb0a0a68" x="185.639929" y="146.747947" style="stroke: #000000; stroke-width: 0.8"/>
      </g>
     </g>
    </g>
    <g id="xtick_24">
     <g id="line2d_47">
      <path d="M 192.279494 146.747947 
L 192.279494 12.07875 
" clip-path="url(#p375b3d1d87)" style="fill: none; stroke: #b0b0b0; stroke-width: 0.3; stroke-linecap: square"/>
     </g>
     <g id="line2d_48">
      <g>
       <use xlink:href="#mdcfb0a0a68" x="192.279494" y="146.747947" style="stroke: #000000; stroke-width: 0.8"/>
      </g>
     </g>
    </g>
    <g id="text_6">
     <text style="font: 9.6px 'DejaVu Sans', 'Bitstream Vera Sans', 'Computer Modern Sans Serif', 'Lucida Grande', 'Verdana', 'Geneva', 'Lucid', 'Arial', 'Helvetica', 'Avant Garde', sans-serif; text-anchor: middle" x="114.2646" y="174.859197" transform="rotate(-0 114.2646 174.859197)">Wavelength (nm)</text>
    </g>
   </g>
   <g id="matplotlib.axis_2">
    <g id="ytick_1">
     <g id="line2d_49">
      <path d="M 35.58575 119.411874 
L 192.943451 119.411874 
" clip-path="url(#p375b3d1d87)" style="fill: none; stroke: #b0b0b0; stroke-width: 0.6; stroke-linecap: square"/>
     </g>
     <g id="line2d_50">
      <defs>
       <path id="m9da6bf5f7d" d="M 0 0 
L -4.8 0 
" style="stroke: #000000"/>
      </defs>
      <g>
       <use xlink:href="#m9da6bf5f7d" x="35.58575" y="119.411874" style="stroke: #000000"/>
      </g>
     </g>
     <g id="text_7">
      <text style="font: 8.8px 'DejaVu Sans', 'Bitstream Vera Sans', 'Computer Modern Sans Serif', 'Lucida Grande', 'Verdana', 'Geneva', 'Lucid', 'Arial', 'Helvetica', 'Avant Garde', sans-serif; text-anchor: end" x="27.28575" y="122.755187" transform="rotate(-0 27.28575 122.755187)">0.2</text>
     </g>
    </g>
    <g id="ytick_2">
     <g id="line2d_51">
      <path d="M 35.58575 91.100248 
L 192.943451 91.100248 
" clip-path="url(#p375b3d1d87)" style="fill: none; stroke: #b0b0b0; stroke-width: 0.6; stroke-linecap: square"/>
     </g>
     <g id="line2d_52">
      <g>
       <use xlink:href="#m9da6bf5f7d" x="35.58575" y="91.100248" style="stroke: #000000"/>
      </g>
     </g>
     <g id="text_8">
      <text style="font: 8.8px 'DejaVu Sans', 'Bitstream Vera Sans', 'Computer Modern Sans Serif', 'Lucida Grande', 'Verdana', 'Geneva', 'Lucid', 'Arial', 'Helvetica', 'Avant Garde', sans-serif; text-anchor: end" x="27.28575" y="94.44356" transform="rotate(-0 27.28575 94.44356)">0.4</text>
     </g>
    </g>
    <g id="ytick_3">
     <g id="line2d_53">
      <path d="M 35.58575 62.788622 
L 192.943451 62.788622 
" clip-path="url(#p375b3d1d87)" style="fill: none; stroke: #b0b0b0; stroke-width: 0.6; stroke-linecap: square"/>
     </g>
     <g id="line2d_54">
      <g>
       <use xlink:href="#m9da6bf5f7d" x="35.58575" y="62.788622" style="stroke: #000000"/>
      </g>
     </g>
     <g id="text_9">
      <text style="font: 8.8px 'DejaVu Sans', 'Bitstream Vera Sans', 'Computer Modern Sans Serif', 'Lucida Grande', 'Verdana', 'Geneva', 'Lucid', 'Arial', 'Helvetica', 'Avant Garde', sans-serif; text-anchor: end" x="27.28575" y="66.131934" transform="rotate(-0 27.28575 66.131934)">0.6</text>
     </g>
    </g>
    <g id="ytick_4">
     <g id="line2d_55">
      <path d="M 35.58575 34.476996 
L 192.943451 34.476996 
" clip-path="url(#p375b3d1d87)" style="fill: none; stroke: #b0b0b0; stroke-width: 0.6; stroke-linecap: square"/>
     </g>
     <g id="line2d_56">
      <g>
       <use xlink:href="#m9da6bf5f7d" x="35.58575" y="34.476996" style="stroke: #000000"/>
      </g>
     </g>
     <g id="text_10">
      <text style="font: 8.8px 'DejaVu Sans', 'Bitstream Vera Sans', 'Computer Modern Sans Serif', 'Lucida Grande', 'Verdana', 'Geneva', 'Lucid', 'Arial', 'Helvetica', 'Avant Garde', sans-serif; text-anchor: end" x="27.28575" y="37.820308" transform="rotate(-0 27.28575 37.820308)">0.8</text>
     </g>
    </g>
    <g id="text_11">
     <text style="font: 9.6px 'DejaVu Sans', 'Bitstream Vera Sans', 'Computer Modern Sans Serif', 'Lucida Grande', 'Verdana', 'Geneva', 'Lucid', 'Arial', 'Helvetica', 'Avant Garde', sans-serif; text-anchor: middle" x="7.2945" y="79.413348" transform="rotate(-90 7.2945 79.413348)">Reflectance</text>
    </g>
   </g>
   <g id="line2d_57">
    <path d="M 36.249707 18.438741 
L 36.847267 18.236372 
L 36.913663 18.200077 
L 37.245641 19.095146 
L 37.312037 19.070345 
L 37.776807 18.805434 
L 38.175181 18.595535 
L 38.241576 18.570678 
L 38.573554 19.304085 
L 39.038324 18.426512 
L 39.436698 18.370115 
L 39.702281 18.497802 
L 40.100654 18.966813 
L 40.233446 19.170316 
L 40.565424 18.549154 
L 40.63182 18.621094 
L 41.229381 19.126711 
L 41.69415 19.27266 
L 41.959733 19.363767 
L 42.225315 19.14724 
L 42.756481 21.578729 
L 42.889272 21.947122 
L 43.22125 20.243046 
L 43.287646 20.365181 
L 43.752415 21.042445 
L 43.885207 21.168262 
L 43.951602 21.086046 
L 44.681955 20.295365 
L 45.013933 20.269828 
L 45.345911 20.234352 
L 45.611494 20.245646 
L 46.009868 20.008113 
L 46.341846 19.931983 
L 46.74022 19.755403 
L 46.939407 19.664524 
L 47.470572 19.258537 
L 47.603363 19.265161 
L 47.935342 19.389047 
L 48.466507 18.991329 
L 48.599298 18.957951 
L 48.997672 19.025839 
L 49.79442 18.835164 
L 49.993607 18.752239 
L 50.25919 18.661215 
L 50.591168 18.770528 
L 50.989542 18.57631 
L 51.32152 18.537298 
L 51.653498 18.466264 
L 52.251059 18.557421 
L 52.583038 18.406267 
L 52.915016 18.539703 
L 53.246994 18.306527 
L 54.309325 18.64502 
L 54.84049 18.722562 
L 55.371655 19.729554 
L 55.504446 19.883059 
L 56.301194 22.551348 
L 56.500381 22.854223 
L 56.566777 22.800091 
L 56.898755 22.419159 
L 57.42992 21.359399 
L 58.226668 20.329903 
L 58.558646 20.326621 
L 58.95702 20.115244 
L 59.222603 20.074108 
L 59.687373 19.768228 
L 59.952955 19.808201 
L 60.152142 19.91335 
L 60.48412 19.321778 
L 60.550516 19.3692 
L 60.816099 19.558889 
L 61.148077 19.09939 
L 61.214473 19.153212 
L 61.546451 19.304372 
L 61.944825 19.057496 
L 62.343199 19.18617 
L 62.542386 19.189368 
L 62.94076 18.873525 
L 63.206342 18.890486 
L 63.53832 19.05574 
L 63.803903 18.869223 
L 64.268673 19.510564 
L 64.866234 19.757866 
L 65.264607 19.324245 
L 65.463794 19.277194 
L 65.862168 20.102274 
L 66.791708 20.329396 
L 67.256477 21.228371 
L 68.252412 23.655133 
L 69.314742 25.886542 
L 70.377073 28.211749 
L 70.443469 28.260616 
L 71.041029 31.082315 
L 71.173821 32.157279 
L 71.439403 34.966927 
L 71.837777 49.532383 
L 72.10336 66.680054 
L 72.169756 64.748776 
L 72.700921 52.173655 
L 72.767316 50.961153 
L 72.833712 51.650259 
L 73.497669 57.430647 
L 73.763251 58.073883 
L 74.161625 56.468563 
L 75.290351 49.492687 
L 75.755121 47.628737 
L 76.286286 46.515156 
L 76.485473 46.404174 
L 76.817451 46.519572 
L 77.083034 46.332489 
L 77.680595 43.888684 
L 78.809321 38.827247 
L 79.606069 36.476592 
L 82.328291 31.097213 
L 82.925852 30.349078 
L 83.125039 30.153359 
L 83.988182 28.836666 
L 84.187369 28.718464 
L 84.718534 28.520652 
L 85.249699 27.866091 
L 85.648073 27.469102 
L 85.84726 27.356763 
L 86.112843 27.21518 
L 86.378426 26.861168 
L 86.444821 26.92167 
L 86.776799 27.094655 
L 87.37436 26.622926 
L 87.772734 26.406484 
L 88.038317 26.575221 
L 88.503087 26.017426 
L 89.034252 25.898287 
L 89.36623 25.513814 
L 89.432626 25.587934 
L 89.831 25.910349 
L 90.42856 25.920798 
L 90.760539 25.891834 
L 91.225308 26.076398 
L 91.557287 26.19021 
L 91.756474 26.228487 
L 92.088452 26.153971 
L 93.748343 27.519496 
L 94.213113 28.06996 
L 98.595226 34.599701 
L 99.458369 35.584832 
L 99.723952 35.726193 
L 100.255117 36.37543 
L 100.786283 36.70764 
L 100.98547 36.664497 
L 101.715822 38.113004 
L 102.0478 38.272311 
L 102.51257 39.272757 
L 102.910944 40.62192 
L 103.309317 42.416424 
L 103.840483 47.475344 
L 104.637231 58.263153 
L 105.56677 85.221112 
L 105.965144 95.093743 
L 106.297122 98.565315 
L 106.363518 98.418264 
L 106.6291 97.830061 
L 107.293057 91.586219 
L 107.957013 84.327967 
L 108.62097 80.476875 
L 109.284926 78.131965 
L 109.816092 76.713071 
L 110.812026 72.900484 
L 112.007148 67.302146 
L 113.600644 59.757017 
L 114.862161 55.341504 
L 115.260535 54.340288 
L 116.322866 52.472485 
L 117.186009 51.400864 
L 117.517987 51.09119 
L 117.78357 51.001216 
L 118.049153 51.029077 
L 118.513922 51.116872 
L 118.713109 51.034316 
L 119.045088 50.730984 
L 119.31067 50.505648 
L 119.576253 50.660912 
L 119.974627 50.112151 
L 120.306605 50.083669 
L 120.704979 49.878293 
L 121.036957 49.835795 
L 121.435331 49.520775 
L 122.232079 48.822351 
L 122.696848 48.720576 
L 122.962431 48.594755 
L 123.493596 48.725328 
L 123.759179 48.824165 
L 124.223949 48.939987 
L 124.821509 48.363878 
L 125.020696 48.346184 
L 126.614192 48.55393 
L 126.94617 48.59793 
L 127.41094 49.145393 
L 128.274083 50.314459 
L 129.40281 51.057361 
L 129.933975 52.164261 
L 130.664327 55.706582 
L 130.996305 58.563907 
L 131.394679 64.252334 
L 132.058636 73.880323 
L 132.191427 74.82644 
L 132.257823 74.670443 
L 132.523405 74.046458 
L 132.855384 75.842402 
L 133.452944 85.773926 
L 133.51934 86.58681 
L 133.585736 86.352842 
L 133.851318 85.416973 
L 134.980045 68.54964 
L 135.378418 66.737554 
L 135.51121 66.327146 
L 135.577605 66.391528 
L 135.975979 66.926339 
L 136.374353 67.968746 
L 136.971914 70.203494 
L 137.370288 73.18454 
L 138.233432 80.063356 
L 138.56541 81.201879 
L 138.830992 81.210712 
L 139.362158 78.556217 
L 139.62774 77.434396 
L 139.826927 77.026962 
L 139.893323 77.132961 
L 140.225301 77.851312 
L 141.221236 81.768792 
L 141.61961 82.829289 
L 141.818797 82.952022 
L 143.080314 87.117538 
L 143.345897 87.806444 
L 143.877062 88.733198 
L 144.209041 88.767087 
L 144.541019 89.286548 
L 145.404162 91.346532 
L 146.267306 92.771141 
L 146.66568 93.633571 
L 146.931262 94.099638 
L 147.263241 94.500021 
L 148.059988 95.686141 
L 148.19278 95.710006 
L 148.458362 95.612271 
L 148.923132 96.549073 
L 150.051858 96.984845 
L 150.251045 96.851308 
L 150.516628 96.972958 
L 150.649419 97.122658 
L 150.715815 97.246188 
L 150.78221 97.137951 
L 151.180584 97.226352 
L 151.379771 97.385968 
L 151.512562 97.210697 
L 151.578958 97.276516 
L 151.711749 97.234405 
L 151.844541 97.123572 
L 152.110123 97.559232 
L 152.242915 97.026071 
L 152.30931 97.071414 
L 152.574893 97.488714 
L 152.906871 97.516146 
L 153.039663 97.408922 
L 153.305245 97.652342 
L 153.504432 97.817001 
L 153.570828 97.954963 
L 153.637223 97.896946 
L 153.770015 97.973912 
L 153.83641 98.09544 
L 153.969202 97.94915 
L 154.500367 98.705883 
L 154.633158 98.617307 
L 155.230719 99.640932 
L 155.429906 99.947516 
L 156.359445 102.423283 
L 156.757819 104.663267 
L 157.35538 110.195125 
L 158.417711 122.46179 
L 158.749689 124.018966 
L 159.148063 124.843129 
L 159.34725 125.845848 
L 159.612832 129.071117 
L 160.343185 140.068501 
L 160.542371 140.62662 
L 160.675163 140.203569 
L 161.007141 137.709893 
L 161.471911 134.135166 
L 161.671098 133.710054 
L 162.069472 133.616572 
L 162.268658 133.823671 
L 162.467845 133.980892 
L 162.866219 134.291808 
L 164.127737 134.107465 
L 164.326924 134.140794 
L 164.858089 134.062284 
L 165.256463 133.996276 
L 165.854024 133.791647 
L 168.244267 133.002872 
L 170.833698 132.666713 
L 171.099281 132.62346 
L 174.286272 132.648697 
L 177.207681 132.157321 
L 178.535594 131.517384 
L 179.531529 131.012997 
L 179.996298 130.757674 
L 180.925837 130.101321 
L 182.519333 129.022244 
L 183.050498 128.805305 
L 183.78085 128.473471 
L 185.108764 127.96085 
L 186.038303 127.401648 
L 187.366216 126.235576 
L 188.428546 125.049928 
L 189.358085 123.974143 
L 192.213099 120.348346 
L 192.213099 120.348346 
" clip-path="url(#p375b3d1d87)" style="fill: none; stroke: #1f77b4; stroke-width: 0.5; stroke-linecap: square"/>
   </g>
   <g id="line2d_58"/>
   <g id="patch_3">
    <path d="M 35.58575 146.747947 
L 35.58575 12.07875 
" style="fill: none; stroke: #000000; stroke-linejoin: miter; stroke-linecap: square"/>
   </g>
   <g id="patch_4">
    <path d="M 192.943451 146.747947 
L 192.943451 12.07875 
" style="fill: none; stroke: #000000; stroke-linejoin: miter; stroke-linecap: square"/>
   </g>
   <g id="patch_5">
    <path d="M 35.58575 146.747947 
L 192.943451 146.747947 
" style="fill: none; stroke: #000000; stroke-linejoin: miter; stroke-linecap: square"/>
   </g>
   <g id="patch_6">
    <path d="M 35.58575 12.07875 
L 192.943451 12.07875 
" style="fill: none; stroke: #000000; stroke-linejoin: miter; stroke-linecap: square"/>
   </g>
   <g id="text_12">
    <text style="font: 8px 'DejaVu Sans', 'Bitstream Vera Sans', 'Computer Modern Sans Serif', 'Lucida Grande', 'Verdana', 'Geneva', 'Lucid', 'Arial', 'Helvetica', 'Avant Garde', sans-serif; text-anchor: middle" x="114.2646" y="6.07875" transform="rotate(-0 114.2646 6.07875)">Laboratory Phyllosilicate Saponite</text>
   </g>
   <g id="legend_1">
    <g id="patch_7">
     <path d="M 200.290605 84.716786 
L 271.120605 84.716786 
Q 272.320605 84.716786 272.320605 83.516786 
L 272.320605 75.309911 
Q 272.320605 74.109911 271.120605 74.109911 
L 200.290605 74.109911 
Q 199.090605 74.109911 199.090605 75.309911 
L 199.090605 83.516786 
Q 199.090605 84.716786 200.290605 84.716786 
z
" style="fill: #ffffff; opacity: 0.8; stroke: #cccccc; stroke-width: 0.8; stroke-linejoin: miter"/>
    </g>
    <g id="line2d_59">
     <path d="M 201.490605 78.968973 
L 207.490605 78.968973 
L 213.490605 78.968973 
" style="fill: none; stroke: #1f77b4; stroke-width: 1.2; stroke-linecap: square"/>
    </g>
    <g id="text_13">
     <text style="font: 6px 'DejaVu Sans', 'Bitstream Vera Sans', 'Computer Modern Sans Serif', 'Lucida Grande', 'Verdana', 'Geneva', 'Lucid', 'Arial', 'Helvetica', 'Avant Garde', sans-serif; text-anchor: start" x="218.290605" y="81.068973" transform="rotate(-0 218.290605 81.068973)">Saponite LASA58</text>
    </g>
   </g>
  </g>
 </g>
 <defs>
  <clipPath id="p375b3d1d87">
   <rect x="35.58575" y="12.07875" width="157.357701" height="134.669197"/>
  </clipPath>
 </defs>
</svg>
