<?xml version="1.0" encoding="utf-8" standalone="no"?>
<!DOCTYPE svg PUBLIC "-//W3C//DTD SVG 1.1//EN"
  "http://www.w3.org/Graphics/SVG/1.1/DTD/svg11.dtd">
<svg xmlns:xlink="http://www.w3.org/1999/xlink" width="271.784617pt" height="176.645947pt" viewBox="0 0 271.784617 176.645947" xmlns="http://www.w3.org/2000/svg" version="1.1">
 <metadata>
  <rdf:RDF xmlns:dc="http://purl.org/dc/elements/1.1/" xmlns:cc="http://creativecommons.org/ns#" xmlns:rdf="http://www.w3.org/1999/02/22-rdf-syntax-ns#">
   <cc:Work>
    <dc:type rdf:resource="http://purl.org/dc/dcmitype/StillImage"/>
    <dc:date>2025-02-13T12:52:21.664771</dc:date>
    <dc:format>image/svg+xml</dc:format>
    <dc:creator>
     <cc:Agent>
      <dc:title>Matplotlib v3.6.2, https://matplotlib.org/</dc:title>
     </cc:Agent>
    </dc:creator>
   </cc:Work>
  </rdf:RDF>
 </metadata>
 <defs>
  <style type="text/css">*{stroke-linejoin: round; stroke-linecap: butt}</style>
 </defs>
 <g id="figure_1">
  <g id="patch_1">
   <path d="M -0 176.645947 
L 271.784617 176.645947 
L 271.784617 0 
L -0 0 
z
" style="fill: #ffffff"/>
  </g>
  <g id="axes_1">
   <g id="patch_2">
    <path d="M 35.58575 146.538197 
L 171.253451 146.538197 
L 171.253451 21.037 
L 35.58575 21.037 
z
" style="fill: #ffffff"/>
   </g>
   <g id="matplotlib.axis_1">
    <g id="xtick_1">
     <g id="line2d_1">
      <path d="M 44.744751 146.538197 
L 44.744751 21.037 
" clip-path="url(#p046191691a)" style="fill: none; stroke: #b0b0b0; stroke-width: 0.6; stroke-linecap: square"/>
     </g>
     <g id="line2d_2">
      <defs>
       <path id="m1b98dfb7c7" d="M 0 0 
L 0 4.8 
" style="stroke: #000000"/>
      </defs>
      <g>
       <use xlink:href="#m1b98dfb7c7" x="44.744751" y="146.538197" style="stroke: #000000"/>
      </g>
     </g>
     <g id="text_1">
      <text style="font: 8.8px 'DejaVu Sans', 'Bitstream Vera Sans', 'Computer Modern Sans Serif', 'Lucida Grande', 'Verdana', 'Geneva', 'Lucid', 'Arial', 'Helvetica', 'Avant Garde', sans-serif; text-anchor: middle" x="44.744751" y="161.524822" transform="rotate(-0 44.744751 161.524822)">1000</text>
     </g>
    </g>
    <g id="xtick_2">
     <g id="line2d_3">
      <path d="M 73.366629 146.538197 
L 73.366629 21.037 
" clip-path="url(#p046191691a)" style="fill: none; stroke: #b0b0b0; stroke-width: 0.6; stroke-linecap: square"/>
     </g>
     <g id="line2d_4">
      <g>
       <use xlink:href="#m1b98dfb7c7" x="73.366629" y="146.538197" style="stroke: #000000"/>
      </g>
     </g>
     <g id="text_2">
      <text style="font: 8.8px 'DejaVu Sans', 'Bitstream Vera Sans', 'Computer Modern Sans Serif', 'Lucida Grande', 'Verdana', 'Geneva', 'Lucid', 'Arial', 'Helvetica', 'Avant Garde', sans-serif; text-anchor: middle" x="73.366629" y="161.524822" transform="rotate(-0 73.366629 161.524822)">1500</text>
     </g>
    </g>
    <g id="xtick_3">
     <g id="line2d_5">
      <path d="M 101.988507 146.538197 
L 101.988507 21.037 
" clip-path="url(#p046191691a)" style="fill: none; stroke: #b0b0b0; stroke-width: 0.6; stroke-linecap: square"/>
     </g>
     <g id="line2d_6">
      <g>
       <use xlink:href="#m1b98dfb7c7" x="101.988507" y="146.538197" style="stroke: #000000"/>
      </g>
     </g>
     <g id="text_3">
      <text style="font: 8.8px 'DejaVu Sans', 'Bitstream Vera Sans', 'Computer Modern Sans Serif', 'Lucida Grande', 'Verdana', 'Geneva', 'Lucid', 'Arial', 'Helvetica', 'Avant Garde', sans-serif; text-anchor: middle" x="101.988507" y="161.524822" transform="rotate(-0 101.988507 161.524822)">2000</text>
     </g>
    </g>
    <g id="xtick_4">
     <g id="line2d_7">
      <path d="M 130.610384 146.538197 
L 130.610384 21.037 
" clip-path="url(#p046191691a)" style="fill: none; stroke: #b0b0b0; stroke-width: 0.6; stroke-linecap: square"/>
     </g>
     <g id="line2d_8">
      <g>
       <use xlink:href="#m1b98dfb7c7" x="130.610384" y="146.538197" style="stroke: #000000"/>
      </g>
     </g>
     <g id="text_4">
      <text style="font: 8.8px 'DejaVu Sans', 'Bitstream Vera Sans', 'Computer Modern Sans Serif', 'Lucida Grande', 'Verdana', 'Geneva', 'Lucid', 'Arial', 'Helvetica', 'Avant Garde', sans-serif; text-anchor: middle" x="130.610384" y="161.524822" transform="rotate(-0 130.610384 161.524822)">2500</text>
     </g>
    </g>
    <g id="xtick_5">
     <g id="line2d_9">
      <path d="M 159.232262 146.538197 
L 159.232262 21.037 
" clip-path="url(#p046191691a)" style="fill: none; stroke: #b0b0b0; stroke-width: 0.6; stroke-linecap: square"/>
     </g>
     <g id="line2d_10">
      <g>
       <use xlink:href="#m1b98dfb7c7" x="159.232262" y="146.538197" style="stroke: #000000"/>
      </g>
     </g>
     <g id="text_5">
      <text style="font: 8.8px 'DejaVu Sans', 'Bitstream Vera Sans', 'Computer Modern Sans Serif', 'Lucida Grande', 'Verdana', 'Geneva', 'Lucid', 'Arial', 'Helvetica', 'Avant Garde', sans-serif; text-anchor: middle" x="159.232262" y="161.524822" transform="rotate(-0 159.232262 161.524822)">3000</text>
     </g>
    </g>
    <g id="xtick_6">
     <g id="line2d_11">
      <path d="M 39.020375 146.538197 
L 39.020375 21.037 
" clip-path="url(#p046191691a)" style="fill: none; stroke: #b0b0b0; stroke-width: 0.3; stroke-linecap: square"/>
     </g>
     <g id="line2d_12">
      <defs>
       <path id="m4d47278aa1" d="M 0 0 
L 0 3.2 
" style="stroke: #000000; stroke-width: 0.8"/>
      </defs>
      <g>
       <use xlink:href="#m4d47278aa1" x="39.020375" y="146.538197" style="stroke: #000000; stroke-width: 0.8"/>
      </g>
     </g>
    </g>
    <g id="xtick_7">
     <g id="line2d_13">
      <path d="M 50.469126 146.538197 
L 50.469126 21.037 
" clip-path="url(#p046191691a)" style="fill: none; stroke: #b0b0b0; stroke-width: 0.3; stroke-linecap: square"/>
     </g>
     <g id="line2d_14">
      <g>
       <use xlink:href="#m4d47278aa1" x="50.469126" y="146.538197" style="stroke: #000000; stroke-width: 0.8"/>
      </g>
     </g>
    </g>
    <g id="xtick_8">
     <g id="line2d_15">
      <path d="M 56.193502 146.538197 
L 56.193502 21.037 
" clip-path="url(#p046191691a)" style="fill: none; stroke: #b0b0b0; stroke-width: 0.3; stroke-linecap: square"/>
     </g>
     <g id="line2d_16">
      <g>
       <use xlink:href="#m4d47278aa1" x="56.193502" y="146.538197" style="stroke: #000000; stroke-width: 0.8"/>
      </g>
     </g>
    </g>
    <g id="xtick_9">
     <g id="line2d_17">
      <path d="M 61.917878 146.538197 
L 61.917878 21.037 
" clip-path="url(#p046191691a)" style="fill: none; stroke: #b0b0b0; stroke-width: 0.3; stroke-linecap: square"/>
     </g>
     <g id="line2d_18">
      <g>
       <use xlink:href="#m4d47278aa1" x="61.917878" y="146.538197" style="stroke: #000000; stroke-width: 0.8"/>
      </g>
     </g>
    </g>
    <g id="xtick_10">
     <g id="line2d_19">
      <path d="M 67.642253 146.538197 
L 67.642253 21.037 
" clip-path="url(#p046191691a)" style="fill: none; stroke: #b0b0b0; stroke-width: 0.3; stroke-linecap: square"/>
     </g>
     <g id="line2d_20">
      <g>
       <use xlink:href="#m4d47278aa1" x="67.642253" y="146.538197" style="stroke: #000000; stroke-width: 0.8"/>
      </g>
     </g>
    </g>
    <g id="xtick_11">
     <g id="line2d_21">
      <path d="M 79.091004 146.538197 
L 79.091004 21.037 
" clip-path="url(#p046191691a)" style="fill: none; stroke: #b0b0b0; stroke-width: 0.3; stroke-linecap: square"/>
     </g>
     <g id="line2d_22">
      <g>
       <use xlink:href="#m4d47278aa1" x="79.091004" y="146.538197" style="stroke: #000000; stroke-width: 0.8"/>
      </g>
     </g>
    </g>
    <g id="xtick_12">
     <g id="line2d_23">
      <path d="M 84.81538 146.538197 
L 84.81538 21.037 
" clip-path="url(#p046191691a)" style="fill: none; stroke: #b0b0b0; stroke-width: 0.3; stroke-linecap: square"/>
     </g>
     <g id="line2d_24">
      <g>
       <use xlink:href="#m4d47278aa1" x="84.81538" y="146.538197" style="stroke: #000000; stroke-width: 0.8"/>
      </g>
     </g>
    </g>
    <g id="xtick_13">
     <g id="line2d_25">
      <path d="M 90.539755 146.538197 
L 90.539755 21.037 
" clip-path="url(#p046191691a)" style="fill: none; stroke: #b0b0b0; stroke-width: 0.3; stroke-linecap: square"/>
     </g>
     <g id="line2d_26">
      <g>
       <use xlink:href="#m4d47278aa1" x="90.539755" y="146.538197" style="stroke: #000000; stroke-width: 0.8"/>
      </g>
     </g>
    </g>
    <g id="xtick_14">
     <g id="line2d_27">
      <path d="M 96.264131 146.538197 
L 96.264131 21.037 
" clip-path="url(#p046191691a)" style="fill: none; stroke: #b0b0b0; stroke-width: 0.3; stroke-linecap: square"/>
     </g>
     <g id="line2d_28">
      <g>
       <use xlink:href="#m4d47278aa1" x="96.264131" y="146.538197" style="stroke: #000000; stroke-width: 0.8"/>
      </g>
     </g>
    </g>
    <g id="xtick_15">
     <g id="line2d_29">
      <path d="M 107.712882 146.538197 
L 107.712882 21.037 
" clip-path="url(#p046191691a)" style="fill: none; stroke: #b0b0b0; stroke-width: 0.3; stroke-linecap: square"/>
     </g>
     <g id="line2d_30">
      <g>
       <use xlink:href="#m4d47278aa1" x="107.712882" y="146.538197" style="stroke: #000000; stroke-width: 0.8"/>
      </g>
     </g>
    </g>
    <g id="xtick_16">
     <g id="line2d_31">
      <path d="M 113.437258 146.538197 
L 113.437258 21.037 
" clip-path="url(#p046191691a)" style="fill: none; stroke: #b0b0b0; stroke-width: 0.3; stroke-linecap: square"/>
     </g>
     <g id="line2d_32">
      <g>
       <use xlink:href="#m4d47278aa1" x="113.437258" y="146.538197" style="stroke: #000000; stroke-width: 0.8"/>
      </g>
     </g>
    </g>
    <g id="xtick_17">
     <g id="line2d_33">
      <path d="M 119.161633 146.538197 
L 119.161633 21.037 
" clip-path="url(#p046191691a)" style="fill: none; stroke: #b0b0b0; stroke-width: 0.3; stroke-linecap: square"/>
     </g>
     <g id="line2d_34">
      <g>
       <use xlink:href="#m4d47278aa1" x="119.161633" y="146.538197" style="stroke: #000000; stroke-width: 0.8"/>
      </g>
     </g>
    </g>
    <g id="xtick_18">
     <g id="line2d_35">
      <path d="M 124.886009 146.538197 
L 124.886009 21.037 
" clip-path="url(#p046191691a)" style="fill: none; stroke: #b0b0b0; stroke-width: 0.3; stroke-linecap: square"/>
     </g>
     <g id="line2d_36">
      <g>
       <use xlink:href="#m4d47278aa1" x="124.886009" y="146.538197" style="stroke: #000000; stroke-width: 0.8"/>
      </g>
     </g>
    </g>
    <g id="xtick_19">
     <g id="line2d_37">
      <path d="M 136.33476 146.538197 
L 136.33476 21.037 
" clip-path="url(#p046191691a)" style="fill: none; stroke: #b0b0b0; stroke-width: 0.3; stroke-linecap: square"/>
     </g>
     <g id="line2d_38">
      <g>
       <use xlink:href="#m4d47278aa1" x="136.33476" y="146.538197" style="stroke: #000000; stroke-width: 0.8"/>
      </g>
     </g>
    </g>
    <g id="xtick_20">
     <g id="line2d_39">
      <path d="M 142.059135 146.538197 
L 142.059135 21.037 
" clip-path="url(#p046191691a)" style="fill: none; stroke: #b0b0b0; stroke-width: 0.3; stroke-linecap: square"/>
     </g>
     <g id="line2d_40">
      <g>
       <use xlink:href="#m4d47278aa1" x="142.059135" y="146.538197" style="stroke: #000000; stroke-width: 0.8"/>
      </g>
     </g>
    </g>
    <g id="xtick_21">
     <g id="line2d_41">
      <path d="M 147.783511 146.538197 
L 147.783511 21.037 
" clip-path="url(#p046191691a)" style="fill: none; stroke: #b0b0b0; stroke-width: 0.3; stroke-linecap: square"/>
     </g>
     <g id="line2d_42">
      <g>
       <use xlink:href="#m4d47278aa1" x="147.783511" y="146.538197" style="stroke: #000000; stroke-width: 0.8"/>
      </g>
     </g>
    </g>
    <g id="xtick_22">
     <g id="line2d_43">
      <path d="M 153.507887 146.538197 
L 153.507887 21.037 
" clip-path="url(#p046191691a)" style="fill: none; stroke: #b0b0b0; stroke-width: 0.3; stroke-linecap: square"/>
     </g>
     <g id="line2d_44">
      <g>
       <use xlink:href="#m4d47278aa1" x="153.507887" y="146.538197" style="stroke: #000000; stroke-width: 0.8"/>
      </g>
     </g>
    </g>
    <g id="xtick_23">
     <g id="line2d_45">
      <path d="M 164.956638 146.538197 
L 164.956638 21.037 
" clip-path="url(#p046191691a)" style="fill: none; stroke: #b0b0b0; stroke-width: 0.3; stroke-linecap: square"/>
     </g>
     <g id="line2d_46">
      <g>
       <use xlink:href="#m4d47278aa1" x="164.956638" y="146.538197" style="stroke: #000000; stroke-width: 0.8"/>
      </g>
     </g>
    </g>
    <g id="xtick_24">
     <g id="line2d_47">
      <path d="M 170.681013 146.538197 
L 170.681013 21.037 
" clip-path="url(#p046191691a)" style="fill: none; stroke: #b0b0b0; stroke-width: 0.3; stroke-linecap: square"/>
     </g>
     <g id="line2d_48">
      <g>
       <use xlink:href="#m4d47278aa1" x="170.681013" y="146.538197" style="stroke: #000000; stroke-width: 0.8"/>
      </g>
     </g>
    </g>
    <g id="text_6">
     <text style="font: 9.6px 'DejaVu Sans', 'Bitstream Vera Sans', 'Computer Modern Sans Serif', 'Lucida Grande', 'Verdana', 'Geneva', 'Lucid', 'Arial', 'Helvetica', 'Avant Garde', sans-serif; text-anchor: middle" x="103.4196" y="174.649447" transform="rotate(-0 103.4196 174.649447)">Wavelength (nm)</text>
    </g>
   </g>
   <g id="matplotlib.axis_2">
    <g id="ytick_1">
     <g id="line2d_49">
      <path d="M 35.58575 144.041269 
L 171.253451 144.041269 
" clip-path="url(#p046191691a)" style="fill: none; stroke: #b0b0b0; stroke-width: 0.6; stroke-linecap: square"/>
     </g>
     <g id="line2d_50">
      <defs>
       <path id="m07e91ba303" d="M 0 0 
L -4.8 0 
" style="stroke: #000000"/>
      </defs>
      <g>
       <use xlink:href="#m07e91ba303" x="35.58575" y="144.041269" style="stroke: #000000"/>
      </g>
     </g>
     <g id="text_7">
      <text style="font: 8.8px 'DejaVu Sans', 'Bitstream Vera Sans', 'Computer Modern Sans Serif', 'Lucida Grande', 'Verdana', 'Geneva', 'Lucid', 'Arial', 'Helvetica', 'Avant Garde', sans-serif; text-anchor: end" x="27.28575" y="147.384581" transform="rotate(-0 27.28575 147.384581)">0.1</text>
     </g>
    </g>
    <g id="ytick_2">
     <g id="line2d_51">
      <path d="M 35.58575 121.954431 
L 171.253451 121.954431 
" clip-path="url(#p046191691a)" style="fill: none; stroke: #b0b0b0; stroke-width: 0.6; stroke-linecap: square"/>
     </g>
     <g id="line2d_52">
      <g>
       <use xlink:href="#m07e91ba303" x="35.58575" y="121.954431" style="stroke: #000000"/>
      </g>
     </g>
     <g id="text_8">
      <text style="font: 8.8px 'DejaVu Sans', 'Bitstream Vera Sans', 'Computer Modern Sans Serif', 'Lucida Grande', 'Verdana', 'Geneva', 'Lucid', 'Arial', 'Helvetica', 'Avant Garde', sans-serif; text-anchor: end" x="27.28575" y="125.297743" transform="rotate(-0 27.28575 125.297743)">0.2</text>
     </g>
    </g>
    <g id="ytick_3">
     <g id="line2d_53">
      <path d="M 35.58575 99.867592 
L 171.253451 99.867592 
" clip-path="url(#p046191691a)" style="fill: none; stroke: #b0b0b0; stroke-width: 0.6; stroke-linecap: square"/>
     </g>
     <g id="line2d_54">
      <g>
       <use xlink:href="#m07e91ba303" x="35.58575" y="99.867592" style="stroke: #000000"/>
      </g>
     </g>
     <g id="text_9">
      <text style="font: 8.8px 'DejaVu Sans', 'Bitstream Vera Sans', 'Computer Modern Sans Serif', 'Lucida Grande', 'Verdana', 'Geneva', 'Lucid', 'Arial', 'Helvetica', 'Avant Garde', sans-serif; text-anchor: end" x="27.28575" y="103.210905" transform="rotate(-0 27.28575 103.210905)">0.3</text>
     </g>
    </g>
    <g id="ytick_4">
     <g id="line2d_55">
      <path d="M 35.58575 77.780754 
L 171.253451 77.780754 
" clip-path="url(#p046191691a)" style="fill: none; stroke: #b0b0b0; stroke-width: 0.6; stroke-linecap: square"/>
     </g>
     <g id="line2d_56">
      <g>
       <use xlink:href="#m07e91ba303" x="35.58575" y="77.780754" style="stroke: #000000"/>
      </g>
     </g>
     <g id="text_10">
      <text style="font: 8.8px 'DejaVu Sans', 'Bitstream Vera Sans', 'Computer Modern Sans Serif', 'Lucida Grande', 'Verdana', 'Geneva', 'Lucid', 'Arial', 'Helvetica', 'Avant Garde', sans-serif; text-anchor: end" x="27.28575" y="81.124067" transform="rotate(-0 27.28575 81.124067)">0.4</text>
     </g>
    </g>
    <g id="ytick_5">
     <g id="line2d_57">
      <path d="M 35.58575 55.693916 
L 171.253451 55.693916 
" clip-path="url(#p046191691a)" style="fill: none; stroke: #b0b0b0; stroke-width: 0.6; stroke-linecap: square"/>
     </g>
     <g id="line2d_58">
      <g>
       <use xlink:href="#m07e91ba303" x="35.58575" y="55.693916" style="stroke: #000000"/>
      </g>
     </g>
     <g id="text_11">
      <text style="font: 8.8px 'DejaVu Sans', 'Bitstream Vera Sans', 'Computer Modern Sans Serif', 'Lucida Grande', 'Verdana', 'Geneva', 'Lucid', 'Arial', 'Helvetica', 'Avant Garde', sans-serif; text-anchor: end" x="27.28575" y="59.037229" transform="rotate(-0 27.28575 59.037229)">0.5</text>
     </g>
    </g>
    <g id="ytick_6">
     <g id="line2d_59">
      <path d="M 35.58575 33.607078 
L 171.253451 33.607078 
" clip-path="url(#p046191691a)" style="fill: none; stroke: #b0b0b0; stroke-width: 0.6; stroke-linecap: square"/>
     </g>
     <g id="line2d_60">
      <g>
       <use xlink:href="#m07e91ba303" x="35.58575" y="33.607078" style="stroke: #000000"/>
      </g>
     </g>
     <g id="text_12">
      <text style="font: 8.8px 'DejaVu Sans', 'Bitstream Vera Sans', 'Computer Modern Sans Serif', 'Lucida Grande', 'Verdana', 'Geneva', 'Lucid', 'Arial', 'Helvetica', 'Avant Garde', sans-serif; text-anchor: end" x="27.28575" y="36.950391" transform="rotate(-0 27.28575 36.950391)">0.6</text>
     </g>
    </g>
    <g id="text_13">
     <text style="font: 9.6px 'DejaVu Sans', 'Bitstream Vera Sans', 'Computer Modern Sans Serif', 'Lucida Grande', 'Verdana', 'Geneva', 'Lucid', 'Arial', 'Helvetica', 'Avant Garde', sans-serif; text-anchor: middle" x="7.2945" y="83.787598" transform="rotate(-90 7.2945 83.787598)">Reflectance</text>
    </g>
   </g>
   <g id="line2d_61">
    <path d="M 36.158188 130.925221 
L 37.074088 135.437119 
L 37.532038 136.989913 
L 38.104475 138.8646 
L 38.33345 139.213616 
L 38.619669 139.69427 
L 38.963132 140.175321 
L 39.192107 140.575578 
L 39.306594 140.801129 
L 39.363838 140.764377 
L 39.650057 140.660613 
L 39.936275 140.773167 
L 40.966663 139.831738 
L 41.023907 139.796841 
L 42.340513 135.583643 
L 42.798463 133.232059 
L 43.599876 127.669841 
L 44.515776 119.327244 
L 45.775138 103.147974 
L 48.980789 56.61083 
L 49.896689 47.229581 
L 50.640858 41.462877 
L 51.499514 36.522585 
L 52.472658 33.128902 
L 53.045095 31.55941 
L 54.247214 29.344188 
L 54.533433 29.115057 
L 54.876896 28.595749 
L 55.163114 28.344841 
L 55.621064 27.825627 
L 56.651452 27.356058 
L 56.76594 27.425853 
L 57.109402 26.856726 
L 57.452865 26.873945 
L 57.796327 26.792713 
L 60.200565 26.969759 
L 61.001977 27.646147 
L 61.173709 27.775796 
L 61.631659 28.029708 
L 62.089609 28.626317 
L 62.318584 28.862646 
L 62.547559 29.007493 
L 63.348971 30.553357 
L 64.608334 33.464001 
L 65.352503 35.921112 
L 66.211159 38.520735 
L 66.611866 40.003337 
L 66.783597 40.248376 
L 67.470522 45.716186 
L 67.756741 45.981096 
L 67.985716 46.040861 
L 68.214691 46.268802 
L 68.729884 48.56133 
L 69.245078 50.439152 
L 70.561685 56.496154 
L 77.946129 91.621474 
L 80.522098 101.817195 
L 84.81538 114.154465 
L 85.330574 115.112723 
L 86.303717 117.116177 
L 87.620324 119.563444 
L 88.47898 120.932739 
L 88.93693 121.492815 
L 90.482512 123.516633 
L 90.654243 123.627861 
L 91.341168 124.118321 
L 92.199824 124.641428 
L 92.486043 124.866582 
L 93.344699 125.31384 
L 93.859893 125.446316 
L 94.088868 125.431032 
L 94.71855 125.25871 
L 95.119256 125.186838 
L 95.577206 124.994993 
L 96.035156 124.874045 
L 96.836568 124.389727 
L 97.294519 124.118101 
L 97.523494 123.774784 
L 97.866956 123.330176 
L 98.267662 122.981691 
L 99.240806 121.986855 
L 100.729144 119.639686 
L 101.759531 117.616178 
L 102.5037 115.853471 
L 103.4196 113.619079 
L 104.678963 110.320058 
L 105.594863 107.488304 
L 105.881082 106.599619 
L 109.086732 95.29663 
L 109.20122 94.94916 
L 110.174364 90.940977 
L 116.98637 64.876342 
L 118.016758 61.945377 
L 118.417464 61.521483 
L 118.589196 61.478679 
L 119.447852 59.305115 
L 120.02029 59.898807 
L 120.649971 56.734029 
L 121.107921 54.782081 
L 121.279652 54.03281 
L 121.737602 52.152287 
L 122.424527 50.548877 
L 122.882477 49.553112 
L 123.454915 48.913475 
L 123.798377 48.56831 
L 124.14184 48.643575 
L 124.428059 48.473947 
L 124.59979 48.301009 
L 125.05774 46.608321 
L 125.572934 45.708011 
L 125.744665 45.741802 
L 126.145371 45.133079 
L 126.717809 45.029985 
L 127.748197 44.443597 
L 128.148903 44.4403 
L 128.606853 44.252484 
L 128.950315 44.100868 
L 129.522753 43.392255 
L 129.923459 43.268795 
L 130.381409 43.077103 
L 130.782116 43.077469 
L 131.011091 42.911588 
L 131.240066 42.73515 
L 131.698016 42.79791 
L 131.869747 42.677594 
L 132.213209 42.474949 
L 132.556672 42.33431 
L 132.842891 42.153091 
L 133.12911 42.203504 
L 133.300841 41.947119 
L 133.415328 41.975709 
L 133.472572 41.873046 
L 133.529816 41.980151 
L 133.644303 42.016057 
L 133.758791 41.779367 
L 133.816035 41.823726 
L 134.04501 41.831551 
L 134.159497 41.998131 
L 134.50296 41.417611 
L 134.617447 41.58329 
L 134.731935 41.176698 
L 134.789178 41.27118 
L 134.846422 41.430443 
L 134.96091 41.026927 
L 135.075397 41.161738 
L 135.189885 40.931903 
L 135.304372 41.000278 
L 135.361616 40.883346 
L 135.41886 41.045876 
L 135.590591 40.306289 
L 135.647835 40.401085 
L 135.87681 40.084123 
L 135.934054 40.20948 
L 136.048541 40.805515 
L 136.220272 38.989704 
L 136.277516 39.160699 
L 136.392004 39.530953 
L 136.449247 39.490611 
L 136.563735 39.416275 
L 136.620979 39.589598 
L 136.678222 39.491049 
L 136.79271 38.848738 
L 136.849954 38.860955 
L 136.964441 38.843319 
L 137.25066 38.588995 
L 137.307904 38.804428 
L 137.422391 38.261752 
L 137.479635 38.302273 
L 137.536879 38.558282 
L 137.70861 37.817798 
L 137.880341 38.276838 
L 137.994829 37.75627 
L 138.109316 38.080108 
L 138.223804 37.376536 
L 138.281048 37.537621 
L 138.853485 37.399867 
L 139.139704 37.208643 
L 139.311435 37.423514 
L 139.368679 37.395907 
L 139.483166 37.197009 
L 139.54041 37.270666 
L 139.597654 37.200021 
L 139.712141 37.255803 
L 139.826629 37.393411 
L 139.941116 37.318036 
L 140.112848 37.973751 
L 140.170091 37.813799 
L 140.227335 37.462347 
L 140.284579 37.516378 
L 140.399067 38.433173 
L 140.513554 37.738949 
L 140.628042 38.526896 
L 140.857017 39.66835 
L 141.085992 41.646556 
L 141.543942 49.097949 
L 142.001892 61.758611 
L 142.574329 79.904607 
L 142.860548 83.967456 
L 143.032279 86.5303 
L 143.261254 97.904751 
L 143.375742 94.812007 
L 143.661961 85.57097 
L 143.719204 85.269575 
L 143.776448 85.34706 
L 143.948179 87.944313 
L 144.005423 87.300729 
L 144.291642 82.087287 
L 144.348886 81.984316 
L 144.520617 80.612707 
L 144.577861 80.713394 
L 144.692348 81.133575 
L 144.749592 80.955823 
L 145.035811 79.954712 
L 145.207542 79.804007 
L 145.264786 79.807488 
L 145.436517 78.653681 
L 145.608248 78.751851 
L 146.982098 75.892018 
L 147.039342 75.860949 
L 147.61178 74.052923 
L 148.871142 71.320795 
L 149.787042 70.280402 
L 150.073261 70.347031 
L 150.531211 70.828882 
L 150.702943 70.679862 
L 151.160893 69.642009 
L 151.73333 68.463438 
L 152.19128 68.012912 
L 152.706474 67.797937 
L 153.049937 67.566624 
L 153.393399 67.371762 
L 153.794105 67.178845 
L 153.908593 67.176305 
L 154.252055 67.039028 
L 154.48103 67.012939 
L 154.652762 67.048738 
L 154.824493 67.050094 
L 155.167955 66.917699 
L 155.454174 66.904561 
L 155.854881 66.867525 
L 156.141099 66.810921 
L 159.34675 66.684068 
L 159.632968 66.646727 
L 159.919187 66.616645 
L 160.26265 66.507455 
L 160.892331 66.332784 
L 161.693744 66.207731 
L 161.865475 66.249714 
L 162.151694 66.086117 
L 162.437912 66.184074 
L 162.953106 66.133899 
L 163.353813 66.225126 
L 163.697275 66.249651 
L 164.269713 66.306247 
L 164.784906 66.239035 
L 165.185613 66.289381 
L 167.074657 66.211494 
L 167.532607 66.188293 
L 167.761582 66.15189 
L 168.391263 66.151114 
L 169.078188 66.035088 
L 169.478894 66.030569 
L 169.936844 65.939572 
L 170.623769 65.915194 
L 170.623769 65.915194 
" clip-path="url(#p046191691a)" style="fill: none; stroke: #1f77b4; stroke-width: 0.5; stroke-linecap: square"/>
   </g>
   <g id="line2d_62"/>
   <g id="patch_3">
    <path d="M 35.58575 146.538197 
L 35.58575 21.037 
" style="fill: none; stroke: #000000; stroke-linejoin: miter; stroke-linecap: square"/>
   </g>
   <g id="patch_4">
    <path d="M 171.253451 146.538197 
L 171.253451 21.037 
" style="fill: none; stroke: #000000; stroke-linejoin: miter; stroke-linecap: square"/>
   </g>
   <g id="patch_5">
    <path d="M 35.58575 146.538197 
L 171.253451 146.538197 
" style="fill: none; stroke: #000000; stroke-linejoin: miter; stroke-linecap: square"/>
   </g>
   <g id="patch_6">
    <path d="M 35.58575 21.037 
L 171.253451 21.037 
" style="fill: none; stroke: #000000; stroke-linejoin: miter; stroke-linecap: square"/>
   </g>
   <g id="text_14">
    <text style="font: 8px 'DejaVu Sans', 'Bitstream Vera Sans', 'Computer Modern Sans Serif', 'Lucida Grande', 'Verdana', 'Geneva', 'Lucid', 'Arial', 'Helvetica', 'Avant Garde', sans-serif" transform="translate(52.822725 6.07875)">Laboratory Iron oxides &amp; </text>
    <text style="font: 8px 'DejaVu Sans', 'Bitstream Vera Sans', 'Computer Modern Sans Serif', 'Lucida Grande', 'Verdana', 'Geneva', 'Lucid', 'Arial', 'Helvetica', 'Avant Garde', sans-serif" transform="translate(37.942725 15.037)"> primary silicates Orthopyroxene</text>
   </g>
   <g id="legend_1">
    <g id="patch_7">
     <path d="M 178.166805 89.091036 
L 270.584617 89.091036 
Q 271.784617 89.091036 271.784617 87.891036 
L 271.784617 79.684161 
Q 271.784617 78.484161 270.584617 78.484161 
L 178.166805 78.484161 
Q 176.966805 78.484161 176.966805 79.684161 
L 176.966805 87.891036 
Q 176.966805 89.091036 178.166805 89.091036 
z
" style="fill: #ffffff; opacity: 0.8; stroke: #cccccc; stroke-width: 0.8; stroke-linejoin: miter"/>
    </g>
    <g id="line2d_63">
     <path d="M 179.366805 83.343223 
L 185.366805 83.343223 
L 191.366805 83.343223 
" style="fill: none; stroke: #1f77b4; stroke-width: 1.2; stroke-linecap: square"/>
    </g>
    <g id="text_15">
     <text style="font: 6px 'DejaVu Sans', 'Bitstream Vera Sans', 'Computer Modern Sans Serif', 'Lucida Grande', 'Verdana', 'Geneva', 'Lucid', 'Arial', 'Helvetica', 'Avant Garde', sans-serif; text-anchor: start" x="196.166805" y="85.443223" transform="rotate(-0 196.166805 85.443223)">Orthopyroxene LAPP47B</text>
    </g>
   </g>
  </g>
 </g>
 <defs>
  <clipPath id="p046191691a">
   <rect x="35.58575" y="21.037" width="135.667701" height="125.501197"/>
  </clipPath>
 </defs>
</svg>
