<?xml version="1.0" encoding="utf-8" standalone="no"?>
<!DOCTYPE svg PUBLIC "-//W3C//DTD SVG 1.1//EN"
  "http://www.w3.org/Graphics/SVG/1.1/DTD/svg11.dtd">
<svg xmlns:xlink="http://www.w3.org/1999/xlink" width="272.042567pt" height="176.645947pt" viewBox="0 0 272.042567 176.645947" xmlns="http://www.w3.org/2000/svg" version="1.1">
 <metadata>
  <rdf:RDF xmlns:dc="http://purl.org/dc/elements/1.1/" xmlns:cc="http://creativecommons.org/ns#" xmlns:rdf="http://www.w3.org/1999/02/22-rdf-syntax-ns#">
   <cc:Work>
    <dc:type rdf:resource="http://purl.org/dc/dcmitype/StillImage"/>
    <dc:date>2025-02-13T12:36:59.903421</dc:date>
    <dc:format>image/svg+xml</dc:format>
    <dc:creator>
     <cc:Agent>
      <dc:title>Matplotlib v3.6.2, https://matplotlib.org/</dc:title>
     </cc:Agent>
    </dc:creator>
   </cc:Work>
  </rdf:RDF>
 </metadata>
 <defs>
  <style type="text/css">*{stroke-linejoin: round; stroke-linecap: butt}</style>
 </defs>
 <g id="figure_1">
  <g id="patch_1">
   <path d="M 0 176.645947 
L 272.042567 176.645947 
L 272.042567 0 
L 0 0 
z
" style="fill: #ffffff"/>
  </g>
  <g id="axes_1">
   <g id="patch_2">
    <path d="M 41.18475 146.538197 
L 185.612451 146.538197 
L 185.612451 21.037 
L 41.18475 21.037 
z
" style="fill: #ffffff"/>
   </g>
   <g id="matplotlib.axis_1">
    <g id="xtick_1">
     <g id="line2d_1">
      <path d="M 50.935143 146.538197 
L 50.935143 21.037 
" clip-path="url(#p4266019873)" style="fill: none; stroke: #b0b0b0; stroke-width: 0.6; stroke-linecap: square"/>
     </g>
     <g id="line2d_2">
      <defs>
       <path id="mc53fe7b730" d="M 0 0 
L 0 4.8 
" style="stroke: #000000"/>
      </defs>
      <g>
       <use xlink:href="#mc53fe7b730" x="50.935143" y="146.538197" style="stroke: #000000"/>
      </g>
     </g>
     <g id="text_1">
      <text style="font: 8.8px 'DejaVu Sans', 'Bitstream Vera Sans', 'Computer Modern Sans Serif', 'Lucida Grande', 'Verdana', 'Geneva', 'Lucid', 'Arial', 'Helvetica', 'Avant Garde', sans-serif; text-anchor: middle" x="50.935143" y="161.524822" transform="rotate(-0 50.935143 161.524822)">1000</text>
     </g>
    </g>
    <g id="xtick_2">
     <g id="line2d_3">
      <path d="M 81.405122 146.538197 
L 81.405122 21.037 
" clip-path="url(#p4266019873)" style="fill: none; stroke: #b0b0b0; stroke-width: 0.6; stroke-linecap: square"/>
     </g>
     <g id="line2d_4">
      <g>
       <use xlink:href="#mc53fe7b730" x="81.405122" y="146.538197" style="stroke: #000000"/>
      </g>
     </g>
     <g id="text_2">
      <text style="font: 8.8px 'DejaVu Sans', 'Bitstream Vera Sans', 'Computer Modern Sans Serif', 'Lucida Grande', 'Verdana', 'Geneva', 'Lucid', 'Arial', 'Helvetica', 'Avant Garde', sans-serif; text-anchor: middle" x="81.405122" y="161.524822" transform="rotate(-0 81.405122 161.524822)">1500</text>
     </g>
    </g>
    <g id="xtick_3">
     <g id="line2d_5">
      <path d="M 111.875101 146.538197 
L 111.875101 21.037 
" clip-path="url(#p4266019873)" style="fill: none; stroke: #b0b0b0; stroke-width: 0.6; stroke-linecap: square"/>
     </g>
     <g id="line2d_6">
      <g>
       <use xlink:href="#mc53fe7b730" x="111.875101" y="146.538197" style="stroke: #000000"/>
      </g>
     </g>
     <g id="text_3">
      <text style="font: 8.8px 'DejaVu Sans', 'Bitstream Vera Sans', 'Computer Modern Sans Serif', 'Lucida Grande', 'Verdana', 'Geneva', 'Lucid', 'Arial', 'Helvetica', 'Avant Garde', sans-serif; text-anchor: middle" x="111.875101" y="161.524822" transform="rotate(-0 111.875101 161.524822)">2000</text>
     </g>
    </g>
    <g id="xtick_4">
     <g id="line2d_7">
      <path d="M 142.345081 146.538197 
L 142.345081 21.037 
" clip-path="url(#p4266019873)" style="fill: none; stroke: #b0b0b0; stroke-width: 0.6; stroke-linecap: square"/>
     </g>
     <g id="line2d_8">
      <g>
       <use xlink:href="#mc53fe7b730" x="142.345081" y="146.538197" style="stroke: #000000"/>
      </g>
     </g>
     <g id="text_4">
      <text style="font: 8.8px 'DejaVu Sans', 'Bitstream Vera Sans', 'Computer Modern Sans Serif', 'Lucida Grande', 'Verdana', 'Geneva', 'Lucid', 'Arial', 'Helvetica', 'Avant Garde', sans-serif; text-anchor: middle" x="142.345081" y="161.524822" transform="rotate(-0 142.345081 161.524822)">2500</text>
     </g>
    </g>
    <g id="xtick_5">
     <g id="line2d_9">
      <path d="M 172.81506 146.538197 
L 172.81506 21.037 
" clip-path="url(#p4266019873)" style="fill: none; stroke: #b0b0b0; stroke-width: 0.6; stroke-linecap: square"/>
     </g>
     <g id="line2d_10">
      <g>
       <use xlink:href="#mc53fe7b730" x="172.81506" y="146.538197" style="stroke: #000000"/>
      </g>
     </g>
     <g id="text_5">
      <text style="font: 8.8px 'DejaVu Sans', 'Bitstream Vera Sans', 'Computer Modern Sans Serif', 'Lucida Grande', 'Verdana', 'Geneva', 'Lucid', 'Arial', 'Helvetica', 'Avant Garde', sans-serif; text-anchor: middle" x="172.81506" y="161.524822" transform="rotate(-0 172.81506 161.524822)">3000</text>
     </g>
    </g>
    <g id="xtick_6">
     <g id="line2d_11">
      <path d="M 44.841147 146.538197 
L 44.841147 21.037 
" clip-path="url(#p4266019873)" style="fill: none; stroke: #b0b0b0; stroke-width: 0.3; stroke-linecap: square"/>
     </g>
     <g id="line2d_12">
      <defs>
       <path id="mda370005ea" d="M 0 0 
L 0 3.2 
" style="stroke: #000000; stroke-width: 0.8"/>
      </defs>
      <g>
       <use xlink:href="#mda370005ea" x="44.841147" y="146.538197" style="stroke: #000000; stroke-width: 0.8"/>
      </g>
     </g>
    </g>
    <g id="xtick_7">
     <g id="line2d_13">
      <path d="M 57.029139 146.538197 
L 57.029139 21.037 
" clip-path="url(#p4266019873)" style="fill: none; stroke: #b0b0b0; stroke-width: 0.3; stroke-linecap: square"/>
     </g>
     <g id="line2d_14">
      <g>
       <use xlink:href="#mda370005ea" x="57.029139" y="146.538197" style="stroke: #000000; stroke-width: 0.8"/>
      </g>
     </g>
    </g>
    <g id="xtick_8">
     <g id="line2d_15">
      <path d="M 63.123135 146.538197 
L 63.123135 21.037 
" clip-path="url(#p4266019873)" style="fill: none; stroke: #b0b0b0; stroke-width: 0.3; stroke-linecap: square"/>
     </g>
     <g id="line2d_16">
      <g>
       <use xlink:href="#mda370005ea" x="63.123135" y="146.538197" style="stroke: #000000; stroke-width: 0.8"/>
      </g>
     </g>
    </g>
    <g id="xtick_9">
     <g id="line2d_17">
      <path d="M 69.217131 146.538197 
L 69.217131 21.037 
" clip-path="url(#p4266019873)" style="fill: none; stroke: #b0b0b0; stroke-width: 0.3; stroke-linecap: square"/>
     </g>
     <g id="line2d_18">
      <g>
       <use xlink:href="#mda370005ea" x="69.217131" y="146.538197" style="stroke: #000000; stroke-width: 0.8"/>
      </g>
     </g>
    </g>
    <g id="xtick_10">
     <g id="line2d_19">
      <path d="M 75.311127 146.538197 
L 75.311127 21.037 
" clip-path="url(#p4266019873)" style="fill: none; stroke: #b0b0b0; stroke-width: 0.3; stroke-linecap: square"/>
     </g>
     <g id="line2d_20">
      <g>
       <use xlink:href="#mda370005ea" x="75.311127" y="146.538197" style="stroke: #000000; stroke-width: 0.8"/>
      </g>
     </g>
    </g>
    <g id="xtick_11">
     <g id="line2d_21">
      <path d="M 87.499118 146.538197 
L 87.499118 21.037 
" clip-path="url(#p4266019873)" style="fill: none; stroke: #b0b0b0; stroke-width: 0.3; stroke-linecap: square"/>
     </g>
     <g id="line2d_22">
      <g>
       <use xlink:href="#mda370005ea" x="87.499118" y="146.538197" style="stroke: #000000; stroke-width: 0.8"/>
      </g>
     </g>
    </g>
    <g id="xtick_12">
     <g id="line2d_23">
      <path d="M 93.593114 146.538197 
L 93.593114 21.037 
" clip-path="url(#p4266019873)" style="fill: none; stroke: #b0b0b0; stroke-width: 0.3; stroke-linecap: square"/>
     </g>
     <g id="line2d_24">
      <g>
       <use xlink:href="#mda370005ea" x="93.593114" y="146.538197" style="stroke: #000000; stroke-width: 0.8"/>
      </g>
     </g>
    </g>
    <g id="xtick_13">
     <g id="line2d_25">
      <path d="M 99.68711 146.538197 
L 99.68711 21.037 
" clip-path="url(#p4266019873)" style="fill: none; stroke: #b0b0b0; stroke-width: 0.3; stroke-linecap: square"/>
     </g>
     <g id="line2d_26">
      <g>
       <use xlink:href="#mda370005ea" x="99.68711" y="146.538197" style="stroke: #000000; stroke-width: 0.8"/>
      </g>
     </g>
    </g>
    <g id="xtick_14">
     <g id="line2d_27">
      <path d="M 105.781106 146.538197 
L 105.781106 21.037 
" clip-path="url(#p4266019873)" style="fill: none; stroke: #b0b0b0; stroke-width: 0.3; stroke-linecap: square"/>
     </g>
     <g id="line2d_28">
      <g>
       <use xlink:href="#mda370005ea" x="105.781106" y="146.538197" style="stroke: #000000; stroke-width: 0.8"/>
      </g>
     </g>
    </g>
    <g id="xtick_15">
     <g id="line2d_29">
      <path d="M 117.969097 146.538197 
L 117.969097 21.037 
" clip-path="url(#p4266019873)" style="fill: none; stroke: #b0b0b0; stroke-width: 0.3; stroke-linecap: square"/>
     </g>
     <g id="line2d_30">
      <g>
       <use xlink:href="#mda370005ea" x="117.969097" y="146.538197" style="stroke: #000000; stroke-width: 0.8"/>
      </g>
     </g>
    </g>
    <g id="xtick_16">
     <g id="line2d_31">
      <path d="M 124.063093 146.538197 
L 124.063093 21.037 
" clip-path="url(#p4266019873)" style="fill: none; stroke: #b0b0b0; stroke-width: 0.3; stroke-linecap: square"/>
     </g>
     <g id="line2d_32">
      <g>
       <use xlink:href="#mda370005ea" x="124.063093" y="146.538197" style="stroke: #000000; stroke-width: 0.8"/>
      </g>
     </g>
    </g>
    <g id="xtick_17">
     <g id="line2d_33">
      <path d="M 130.157089 146.538197 
L 130.157089 21.037 
" clip-path="url(#p4266019873)" style="fill: none; stroke: #b0b0b0; stroke-width: 0.3; stroke-linecap: square"/>
     </g>
     <g id="line2d_34">
      <g>
       <use xlink:href="#mda370005ea" x="130.157089" y="146.538197" style="stroke: #000000; stroke-width: 0.8"/>
      </g>
     </g>
    </g>
    <g id="xtick_18">
     <g id="line2d_35">
      <path d="M 136.251085 146.538197 
L 136.251085 21.037 
" clip-path="url(#p4266019873)" style="fill: none; stroke: #b0b0b0; stroke-width: 0.3; stroke-linecap: square"/>
     </g>
     <g id="line2d_36">
      <g>
       <use xlink:href="#mda370005ea" x="136.251085" y="146.538197" style="stroke: #000000; stroke-width: 0.8"/>
      </g>
     </g>
    </g>
    <g id="xtick_19">
     <g id="line2d_37">
      <path d="M 148.439076 146.538197 
L 148.439076 21.037 
" clip-path="url(#p4266019873)" style="fill: none; stroke: #b0b0b0; stroke-width: 0.3; stroke-linecap: square"/>
     </g>
     <g id="line2d_38">
      <g>
       <use xlink:href="#mda370005ea" x="148.439076" y="146.538197" style="stroke: #000000; stroke-width: 0.8"/>
      </g>
     </g>
    </g>
    <g id="xtick_20">
     <g id="line2d_39">
      <path d="M 154.533072 146.538197 
L 154.533072 21.037 
" clip-path="url(#p4266019873)" style="fill: none; stroke: #b0b0b0; stroke-width: 0.3; stroke-linecap: square"/>
     </g>
     <g id="line2d_40">
      <g>
       <use xlink:href="#mda370005ea" x="154.533072" y="146.538197" style="stroke: #000000; stroke-width: 0.8"/>
      </g>
     </g>
    </g>
    <g id="xtick_21">
     <g id="line2d_41">
      <path d="M 160.627068 146.538197 
L 160.627068 21.037 
" clip-path="url(#p4266019873)" style="fill: none; stroke: #b0b0b0; stroke-width: 0.3; stroke-linecap: square"/>
     </g>
     <g id="line2d_42">
      <g>
       <use xlink:href="#mda370005ea" x="160.627068" y="146.538197" style="stroke: #000000; stroke-width: 0.8"/>
      </g>
     </g>
    </g>
    <g id="xtick_22">
     <g id="line2d_43">
      <path d="M 166.721064 146.538197 
L 166.721064 21.037 
" clip-path="url(#p4266019873)" style="fill: none; stroke: #b0b0b0; stroke-width: 0.3; stroke-linecap: square"/>
     </g>
     <g id="line2d_44">
      <g>
       <use xlink:href="#mda370005ea" x="166.721064" y="146.538197" style="stroke: #000000; stroke-width: 0.8"/>
      </g>
     </g>
    </g>
    <g id="xtick_23">
     <g id="line2d_45">
      <path d="M 178.909055 146.538197 
L 178.909055 21.037 
" clip-path="url(#p4266019873)" style="fill: none; stroke: #b0b0b0; stroke-width: 0.3; stroke-linecap: square"/>
     </g>
     <g id="line2d_46">
      <g>
       <use xlink:href="#mda370005ea" x="178.909055" y="146.538197" style="stroke: #000000; stroke-width: 0.8"/>
      </g>
     </g>
    </g>
    <g id="xtick_24">
     <g id="line2d_47">
      <path d="M 185.003051 146.538197 
L 185.003051 21.037 
" clip-path="url(#p4266019873)" style="fill: none; stroke: #b0b0b0; stroke-width: 0.3; stroke-linecap: square"/>
     </g>
     <g id="line2d_48">
      <g>
       <use xlink:href="#mda370005ea" x="185.003051" y="146.538197" style="stroke: #000000; stroke-width: 0.8"/>
      </g>
     </g>
    </g>
    <g id="text_6">
     <text style="font: 9.6px 'DejaVu Sans', 'Bitstream Vera Sans', 'Computer Modern Sans Serif', 'Lucida Grande', 'Verdana', 'Geneva', 'Lucid', 'Arial', 'Helvetica', 'Avant Garde', sans-serif; text-anchor: middle" x="113.3986" y="174.649447" transform="rotate(-0 113.3986 174.649447)">Wavelength (nm)</text>
    </g>
   </g>
   <g id="matplotlib.axis_2">
    <g id="ytick_1">
     <g id="line2d_49">
      <path d="M 41.18475 113.837916 
L 185.612451 113.837916 
" clip-path="url(#p4266019873)" style="fill: none; stroke: #b0b0b0; stroke-width: 0.6; stroke-linecap: square"/>
     </g>
     <g id="line2d_50">
      <defs>
       <path id="mbb96aa1029" d="M 0 0 
L -4.8 0 
" style="stroke: #000000"/>
      </defs>
      <g>
       <use xlink:href="#mbb96aa1029" x="41.18475" y="113.837916" style="stroke: #000000"/>
      </g>
     </g>
     <g id="text_7">
      <text style="font: 8.8px 'DejaVu Sans', 'Bitstream Vera Sans', 'Computer Modern Sans Serif', 'Lucida Grande', 'Verdana', 'Geneva', 'Lucid', 'Arial', 'Helvetica', 'Avant Garde', sans-serif; text-anchor: end" x="32.88475" y="117.181229" transform="rotate(-0 32.88475 117.181229)">0.30</text>
     </g>
    </g>
    <g id="ytick_2">
     <g id="line2d_51">
      <path d="M 41.18475 79.38049 
L 185.612451 79.38049 
" clip-path="url(#p4266019873)" style="fill: none; stroke: #b0b0b0; stroke-width: 0.6; stroke-linecap: square"/>
     </g>
     <g id="line2d_52">
      <g>
       <use xlink:href="#mbb96aa1029" x="41.18475" y="79.38049" style="stroke: #000000"/>
      </g>
     </g>
     <g id="text_8">
      <text style="font: 8.8px 'DejaVu Sans', 'Bitstream Vera Sans', 'Computer Modern Sans Serif', 'Lucida Grande', 'Verdana', 'Geneva', 'Lucid', 'Arial', 'Helvetica', 'Avant Garde', sans-serif; text-anchor: end" x="32.88475" y="82.723803" transform="rotate(-0 32.88475 82.723803)">0.32</text>
     </g>
    </g>
    <g id="ytick_3">
     <g id="line2d_53">
      <path d="M 41.18475 44.923065 
L 185.612451 44.923065 
" clip-path="url(#p4266019873)" style="fill: none; stroke: #b0b0b0; stroke-width: 0.6; stroke-linecap: square"/>
     </g>
     <g id="line2d_54">
      <g>
       <use xlink:href="#mbb96aa1029" x="41.18475" y="44.923065" style="stroke: #000000"/>
      </g>
     </g>
     <g id="text_9">
      <text style="font: 8.8px 'DejaVu Sans', 'Bitstream Vera Sans', 'Computer Modern Sans Serif', 'Lucida Grande', 'Verdana', 'Geneva', 'Lucid', 'Arial', 'Helvetica', 'Avant Garde', sans-serif; text-anchor: end" x="32.88475" y="48.266377" transform="rotate(-0 32.88475 48.266377)">0.34</text>
     </g>
    </g>
    <g id="text_10">
     <text style="font: 9.6px 'DejaVu Sans', 'Bitstream Vera Sans', 'Computer Modern Sans Serif', 'Lucida Grande', 'Verdana', 'Geneva', 'Lucid', 'Arial', 'Helvetica', 'Avant Garde', sans-serif; text-anchor: middle" x="7.2945" y="83.787598" transform="rotate(-90 7.2945 83.787598)">Reflectance</text>
    </g>
   </g>
   <g id="line2d_55">
    <path d="M 41.79415 60.103272 
L 42.098849 60.747659 
L 42.525429 59.778357 
L 42.769189 59.616054 
L 43.012949 59.210835 
L 43.317649 60.310041 
L 43.378588 60.198395 
L 43.622348 59.751812 
L 44.109868 61.077041 
L 44.841147 62.079409 
L 45.145847 61.877826 
L 45.572427 62.70792 
L 45.816187 62.669688 
L 46.059947 62.363709 
L 46.425586 63.322988 
L 46.669346 64.706813 
L 46.730286 64.617913 
L 46.974046 64.262314 
L 47.766265 68.132209 
L 48.010025 69.233469 
L 48.192845 69.513631 
L 48.680365 71.621726 
L 48.863185 72.338099 
L 49.838224 78.462567 
L 50.021044 78.615556 
L 50.447624 81.789411 
L 50.996083 86.551065 
L 51.239843 87.233345 
L 51.910183 92.016359 
L 52.214882 93.366408 
L 52.824282 97.1843 
L 53.128982 98.298304 
L 54.043081 104.137445 
L 54.713421 106.769316 
L 55.14 109.083841 
L 55.62752 111.557536 
L 55.93222 112.791124 
L 56.480679 115.294415 
L 56.724439 115.414359 
L 57.577599 118.395236 
L 57.943238 119.464805 
L 58.552638 121.459888 
L 58.918278 122.328594 
L 59.283918 123.720654 
L 59.527677 124.184089 
L 60.198017 126.180558 
L 60.380837 126.37181 
L 60.929296 128.415805 
L 61.051176 128.941974 
L 61.416816 130.674517 
L 61.721516 131.077652 
L 61.904336 131.130363 
L 62.391855 132.649946 
L 63.123135 135.549522 
L 63.184075 135.532989 
L 63.427835 135.466856 
L 63.732535 136.579822 
L 63.793474 136.476104 
L 64.037234 136.061232 
L 64.707574 137.982234 
L 65.256033 138.230325 
L 65.804493 139.390509 
L 66.048253 139.551775 
L 66.292013 139.744054 
L 66.840472 140.222297 
L 67.084232 140.168569 
L 67.388932 140.833597 
L 67.449872 140.774324 
L 67.754572 140.596504 
L 67.998332 140.833597 
L 68.059272 140.753652 
L 68.485851 140.024535 
L 69.095251 138.929118 
L 69.278071 138.797827 
L 69.64371 137.965352 
L 70.49687 135.434446 
L 70.80157 134.863145 
L 71.045329 134.060963 
L 71.106269 134.149524 
L 71.350029 134.503767 
L 71.776609 132.621346 
L 72.020369 131.989765 
L 72.386009 130.679693 
L 72.629768 130.132154 
L 73.056348 128.843422 
L 73.178228 128.62013 
L 73.726688 124.304689 
L 73.848568 123.700311 
L 74.092327 123.599715 
L 74.518907 121.469901 
L 74.762667 120.171556 
L 75.006427 120.097126 
L 75.433006 117.371169 
L 75.615826 117.078622 
L 76.468986 111.606458 
L 76.590866 111.116129 
L 77.687785 105.442701 
L 77.809665 104.885868 
L 78.723764 99.504309 
L 79.089404 98.134306 
L 79.820683 94.875989 
L 80.003503 93.773692 
L 80.917603 88.09098 
L 81.222302 86.966985 
L 81.405122 86.673421 
L 82.319222 81.821779 
L 82.623922 81.334201 
L 83.050501 78.250644 
L 83.294261 77.65521 
L 83.659901 76.444378 
L 83.842721 76.203496 
L 84.20836 73.196412 
L 84.51306 73.055489 
L 85.06152 71.896322 
L 85.36622 69.298236 
L 85.42716 69.547026 
L 85.670919 70.542185 
L 86.097499 68.577057 
L 86.341259 68.001976 
L 86.585019 67.061983 
L 86.645959 67.157773 
L 86.889719 67.540934 
L 87.681938 64.301224 
L 88.535097 61.447119 
L 88.778857 61.395424 
L 89.083557 61.530525 
L 89.632017 60.835511 
L 89.692957 60.957488 
L 89.936717 61.445394 
L 90.241416 59.738051 
L 90.302356 59.992684 
L 90.546116 61.011216 
L 91.155516 58.471715 
L 91.460215 59.756998 
L 91.521155 59.691871 
L 91.764915 59.431364 
L 92.313375 56.913203 
L 92.374315 56.573111 
L 92.435255 56.609987 
L 92.800895 56.948375 
L 92.983714 57.234698 
L 94.080634 54.759277 
L 94.202514 54.60904 
L 94.263454 54.662111 
L 94.568153 54.813056 
L 94.872853 54.600784 
L 95.116613 54.733091 
L 95.421313 53.554659 
L 95.482253 53.630804 
L 95.847892 53.946415 
L 96.213532 53.87408 
L 96.457292 53.845141 
L 96.640112 53.890613 
L 97.066692 54.720675 
L 97.493271 54.763765 
L 97.615151 54.858867 
L 97.858911 55.265442 
L 97.919851 55.206867 
L 98.163611 54.972567 
L 98.224551 55.044584 
L 98.468311 55.332653 
L 98.529251 55.273041 
L 98.89489 54.807172 
L 99.07771 54.466043 
L 99.13865 54.568723 
L 99.62617 55.190333 
L 99.74805 55.204813 
L 100.11369 54.878851 
L 100.357449 54.634528 
L 100.601209 54.695198 
L 100.905909 56.04764 
L 100.966849 55.932554 
L 101.332489 55.458429 
L 101.880948 55.42603 
L 102.124708 55.847803 
L 102.185648 55.807137 
L 102.551288 55.655504 
L 102.916928 55.592472 
L 103.099747 55.598335 
L 103.343507 55.833991 
L 103.648207 54.9605 
L 104.257607 56.943517 
L 104.562306 55.348159 
L 104.623246 55.538015 
L 105.049826 56.574487 
L 105.171706 56.759187 
L 105.476406 55.527355 
L 105.963926 56.930773 
L 106.085805 57.14166 
L 106.390505 55.69962 
L 106.451445 55.808852 
L 106.878025 56.386356 
L 107.365545 56.629621 
L 107.609304 56.731614 
L 107.914004 56.150999 
L 107.974944 56.20372 
L 108.218704 56.414607 
L 108.279644 56.334323 
L 108.828104 55.687554 
L 109.132803 56.72648 
L 109.193743 56.639983 
L 109.742203 55.9908 
L 110.046903 56.414607 
L 110.351602 55.498037 
L 110.412542 55.643109 
L 110.656302 56.223396 
L 110.717242 56.178602 
L 111.021942 56.042146 
L 111.326642 56.164102 
L 111.814161 55.641733 
L 112.118861 55.393292 
L 112.484501 55.199976 
L 113.093901 55.641034 
L 113.7033 55.296454 
L 114.008 55.448078 
L 114.3127 54.347178 
L 114.37364 54.435728 
L 114.739279 54.800282 
L 114.983039 54.931583 
L 115.226799 55.394678 
L 115.287739 55.359527 
L 115.836199 55.12419 
L 116.140899 55.53249 
L 116.445598 54.354058 
L 116.506538 54.395062 
L 116.872178 54.528766 
L 117.115938 54.385091 
L 117.664397 53.552913 
L 118.212857 54.084278 
L 118.334737 54.059807 
L 118.883197 53.568419 
L 119.187896 53.881987 
L 119.492596 52.805219 
L 119.553536 52.947528 
L 119.797296 53.516766 
L 119.858236 53.464383 
L 120.162936 53.313437 
L 120.406696 53.547778 
L 120.772335 52.824864 
L 121.381735 52.838265 
L 121.747375 52.64118 
L 122.052074 52.586733 
L 122.417714 52.455463 
L 122.600534 52.364848 
L 122.966174 52.018204 
L 123.148994 51.979942 
L 123.575573 50.582028 
L 124.124033 50.116149 
L 124.367793 50.172629 
L 124.794373 48.969048 
L 125.099072 48.588649 
L 125.342832 48.265439 
L 125.586592 48.299902 
L 125.891292 47.762365 
L 125.952232 47.841273 
L 126.195992 48.156905 
L 126.622571 47.035312 
L 126.866331 46.973615 
L 127.110091 47.243775 
L 127.536671 46.111513 
L 128.93829 44.804193 
L 129.608629 43.338709 
L 130.278969 41.920452 
L 130.705549 41.844656 
L 131.071188 41.658199 
L 131.558708 40.898429 
L 131.802468 40.790233 
L 132.107168 40.886732 
L 132.411867 40.98321 
L 132.838447 40.74202 
L 132.899387 40.695162 
L 133.204087 41.53764 
L 133.691606 40.376409 
L 133.996306 40.108323 
L 134.240066 39.890536 
L 134.483826 39.467058 
L 134.727586 38.682826 
L 134.788526 38.733474 
L 135.032286 38.936063 
L 135.458865 38.048472 
L 135.641685 37.890308 
L 136.372965 35.481379 
L 136.799544 34.763969 
L 136.921424 34.707807 
L 137.165184 34.789138 
L 137.835524 33.690631 
L 138.688683 33.014584 
L 139.419963 31.278272 
L 139.602782 31.322696 
L 140.029362 30.665596 
L 140.273122 30.403374 
L 140.516882 29.772112 
L 140.821582 31.097033 
L 141.187221 29.775254 
L 141.552861 29.864821 
L 141.735681 30.001267 
L 142.223201 28.637087 
L 142.345081 28.187074 
L 142.40602 28.246573 
L 142.64978 28.48457 
L 142.95448 27.32642 
L 143.25918 28.642098 
L 143.32012 28.530976 
L 143.868579 27.339615 
L 143.990459 27.448468 
L 144.173279 27.611747 
L 144.295159 26.7416 
L 144.417039 27.805872 
L 144.538919 28.829394 
L 144.721739 27.483804 
L 144.843619 27.538995 
L 145.026439 28.247801 
L 145.148319 27.566141 
L 145.270198 28.61597 
L 145.453018 30.155044 
L 145.696778 28.101502 
L 145.879598 29.077342 
L 145.940538 28.941057 
L 146.123358 27.480625 
L 146.367118 28.636349 
L 146.610878 29.548774 
L 146.732757 30.218954 
L 146.854637 31.205357 
L 147.037457 28.989757 
L 147.159337 30.25015 
L 147.220277 29.961185 
L 147.342157 29.424977 
L 147.524977 31.543603 
L 147.646857 30.922932 
L 147.707797 31.736641 
L 147.768737 31.697611 
L 148.012497 29.236415 
L 148.073437 29.46221 
L 148.195316 32.048421 
L 148.256256 31.97156 
L 148.439076 30.038472 
L 148.500016 30.271739 
L 148.743776 32.329458 
L 148.804716 32.313143 
L 148.926596 31.7486 
L 148.987536 30.965463 
L 149.048476 31.087393 
L 149.170356 31.286001 
L 149.292236 29.991068 
L 149.353176 30.057281 
L 149.535996 32.043455 
L 149.596936 31.611093 
L 149.779755 30.179025 
L 149.840695 30.052788 
L 149.901635 30.178882 
L 150.206335 32.194377 
L 150.389155 30.949921 
L 150.511035 29.401259 
L 150.693855 31.574162 
L 150.754795 31.495052 
L 150.937615 30.818021 
L 150.998555 31.142145 
L 151.120434 32.28469 
L 151.181374 32.002002 
L 151.486074 29.85109 
L 151.547014 30.231769 
L 151.790774 32.346155 
L 151.851714 32.665632 
L 151.912654 32.597222 
L 152.217354 31.322563 
L 152.278294 31.375222 
L 152.522054 33.364618 
L 152.704873 32.269241 
L 152.765813 32.384894 
L 152.826753 33.14196 
L 152.948633 31.739565 
L 153.009573 31.818833 
L 153.192393 33.672406 
L 153.253333 33.585044 
L 153.436153 32.98766 
L 153.740853 35.096297 
L 153.801793 35.008872 
L 153.923673 34.412415 
L 153.984613 34.526049 
L 154.228372 35.234988 
L 154.289312 35.09392 
L 154.411192 35.044897 
L 154.533072 35.101166 
L 154.654952 35.69038 
L 154.776832 35.48333 
L 154.898712 36.227908 
L 154.959652 36.163162 
L 155.020592 35.95107 
L 155.081532 36.002514 
L 155.447172 37.62303 
L 155.508111 37.7833 
L 155.690931 37.138185 
L 155.934691 38.408253 
L 156.056571 37.551792 
L 156.117511 37.59083 
L 156.361271 39.027247 
L 156.605031 40.047098 
L 156.726911 40.701807 
L 156.787851 40.656658 
L 156.848791 40.676065 
L 157.09255 42.766652 
L 157.15349 42.460036 
L 157.27537 41.583108 
L 157.33631 41.734561 
L 157.58007 43.284097 
L 157.88477 44.943482 
L 157.94571 44.909263 
L 158.12853 45.699033 
L 158.18947 45.764664 
L 158.25041 45.685985 
L 158.31135 45.509153 
L 158.372289 45.661513 
L 158.676989 48.058362 
L 158.798869 48.035742 
L 158.859809 48.27354 
L 158.981689 49.086868 
L 159.103569 48.715133 
L 159.286389 49.767509 
L 159.347329 49.713391 
L 159.408269 49.678245 
L 159.530149 50.29324 
L 159.712969 51.471778 
L 159.773909 51.398436 
L 159.834848 51.150368 
L 159.895788 51.36367 
L 160.200488 52.899544 
L 160.261428 52.832288 
L 160.383308 52.576409 
L 160.627068 53.507372 
L 160.931768 54.950259 
L 160.992708 54.893389 
L 161.053648 54.871176 
L 161.175528 55.341431 
L 161.236468 55.224245 
L 161.297407 55.326226 
L 161.419287 55.828378 
L 161.480227 55.752937 
L 161.602107 55.726104 
L 162.394327 60.054814 
L 162.455267 60.132749 
L 162.516207 60.051063 
L 162.638087 59.971586 
L 162.759966 59.594065 
L 162.942786 60.691763 
L 163.186546 62.419204 
L 163.308426 62.492895 
L 164.039706 65.329081 
L 164.100646 65.229315 
L 164.161586 65.088049 
L 164.831925 68.36095 
L 164.953805 68.001779 
L 165.014745 68.066784 
L 165.441325 70.006828 
L 165.746024 71.197455 
L 165.928844 71.701628 
L 166.111664 70.551875 
L 166.172604 70.668503 
L 166.660124 72.492439 
L 166.903884 72.753322 
L 167.086704 72.58586 
L 167.269523 73.789588 
L 167.391403 73.532447 
L 167.452343 73.658494 
L 167.696103 74.13236 
L 167.878923 74.484068 
L 168.061743 73.880798 
L 168.122683 74.026448 
L 168.305503 74.843366 
L 168.366443 74.771761 
L 168.488323 74.810678 
L 168.732082 76.115791 
L 168.914902 75.865717 
L 169.097722 76.249619 
L 169.158662 76.120671 
L 169.219602 76.162075 
L 169.463362 76.698383 
L 169.768062 76.992027 
L 169.889942 76.904216 
L 170.011822 76.842557 
L 170.194641 77.447183 
L 170.255581 77.418997 
L 170.438401 77.272988 
L 170.621221 77.628761 
L 170.743101 77.352969 
L 170.804041 77.429987 
L 170.986861 78.168465 
L 171.047801 78.119919 
L 171.291561 77.827443 
L 171.352501 77.597932 
L 171.413441 77.732932 
L 171.6572 79.079767 
L 171.71814 78.803379 
L 171.90096 78.382457 
L 172.08378 78.559656 
L 172.20566 78.48246 
L 172.63224 79.797802 
L 172.69318 79.586662 
L 172.75412 79.690021 
L 172.81506 79.955395 
L 172.876 79.839961 
L 173.119759 78.951065 
L 173.180699 79.188981 
L 173.241639 79.550377 
L 173.302579 79.504012 
L 173.424459 79.296022 
L 173.485399 79.41407 
L 173.668219 80.14502 
L 173.790099 79.742694 
L 173.972919 80.144657 
L 174.155739 79.615917 
L 174.216679 79.66615 
L 174.338559 80.171244 
L 174.521378 79.718045 
L 174.704198 79.8354 
L 174.826078 80.246108 
L 175.008898 81.060488 
L 175.069838 81.037029 
L 175.313598 79.913328 
L 175.679238 80.674113 
L 175.922997 81.138307 
L 176.044877 80.575254 
L 176.105817 80.648995 
L 176.288637 80.82852 
L 176.593337 80.116457 
L 176.837097 80.611813 
L 177.019917 80.373379 
L 177.202737 80.812821 
L 177.446496 81.319695 
L 177.812136 81.519231 
L 178.055896 80.608208 
L 178.116836 80.654084 
L 178.299656 81.201056 
L 178.482476 81.62855 
L 178.665296 81.04129 
L 178.787175 80.783842 
L 178.848115 80.817365 
L 179.335635 81.998149 
L 179.396575 81.957624 
L 179.823155 80.79411 
L 179.945035 81.043828 
L 180.066915 81.335076 
L 180.127855 81.296914 
L 180.249734 81.216697 
L 180.310674 81.237189 
L 180.554434 81.845795 
L 180.676314 82.007298 
L 180.737254 81.949867 
L 180.981014 80.965936 
L 181.041954 81.121944 
L 181.224774 81.484822 
L 181.407594 81.625939 
L 181.468534 81.598148 
L 181.773233 80.787918 
L 181.895113 80.722137 
L 182.321693 81.29232 
L 182.443573 81.16557 
L 182.565453 81.036322 
L 182.687333 81.206049 
L 182.870153 81.690578 
L 182.931093 81.557558 
L 183.235792 80.953701 
L 183.479552 81.935429 
L 183.906132 81.629707 
L 184.149892 81.034077 
L 184.271772 81.153751 
L 184.393652 81.43898 
L 184.454592 81.35324 
L 184.637411 80.960288 
L 184.942111 82.633191 
L 184.942111 82.633191 
" clip-path="url(#p4266019873)" style="fill: none; stroke: #1f77b4; stroke-width: 0.5; stroke-linecap: square"/>
   </g>
   <g id="line2d_56"/>
   <g id="patch_3">
    <path d="M 41.18475 146.538197 
L 41.18475 21.037 
" style="fill: none; stroke: #000000; stroke-linejoin: miter; stroke-linecap: square"/>
   </g>
   <g id="patch_4">
    <path d="M 185.612451 146.538197 
L 185.612451 21.037 
" style="fill: none; stroke: #000000; stroke-linejoin: miter; stroke-linecap: square"/>
   </g>
   <g id="patch_5">
    <path d="M 41.18475 146.538197 
L 185.612451 146.538197 
" style="fill: none; stroke: #000000; stroke-linejoin: miter; stroke-linecap: square"/>
   </g>
   <g id="patch_6">
    <path d="M 41.18475 21.037 
L 185.612451 21.037 
" style="fill: none; stroke: #000000; stroke-linejoin: miter; stroke-linecap: square"/>
   </g>
   <g id="text_11">
    <text style="font: 8px 'DejaVu Sans', 'Bitstream Vera Sans', 'Computer Modern Sans Serif', 'Lucida Grande', 'Verdana', 'Geneva', 'Lucid', 'Arial', 'Helvetica', 'Avant Garde', sans-serif" transform="translate(62.801725 6.07875)">Laboratory Iron oxides &amp; </text>
    <text style="font: 8px 'DejaVu Sans', 'Bitstream Vera Sans', 'Computer Modern Sans Serif', 'Lucida Grande', 'Verdana', 'Geneva', 'Lucid', 'Arial', 'Helvetica', 'Avant Garde', sans-serif" transform="translate(55.36985 15.037)"> primary silicates Plagioclase</text>
   </g>
   <g id="legend_1">
    <g id="patch_7">
     <path d="M 192.701005 89.091036 
L 270.842567 89.091036 
Q 272.042567 89.091036 272.042567 87.891036 
L 272.042567 79.684161 
Q 272.042567 78.484161 270.842567 78.484161 
L 192.701005 78.484161 
Q 191.501005 78.484161 191.501005 79.684161 
L 191.501005 87.891036 
Q 191.501005 89.091036 192.701005 89.091036 
z
" style="fill: #ffffff; opacity: 0.8; stroke: #cccccc; stroke-width: 0.8; stroke-linejoin: miter"/>
    </g>
    <g id="line2d_57">
     <path d="M 193.901005 83.343223 
L 199.901005 83.343223 
L 205.901005 83.343223 
" style="fill: none; stroke: #1f77b4; stroke-width: 1.2; stroke-linecap: square"/>
    </g>
    <g id="text_12">
     <text style="font: 6px 'DejaVu Sans', 'Bitstream Vera Sans', 'Computer Modern Sans Serif', 'Lucida Grande', 'Verdana', 'Geneva', 'Lucid', 'Arial', 'Helvetica', 'Avant Garde', sans-serif; text-anchor: start" x="210.701005" y="85.443223" transform="rotate(-0 210.701005 85.443223)">Plagioclase NCLS04</text>
    </g>
   </g>
  </g>
 </g>
 <defs>
  <clipPath id="p4266019873">
   <rect x="41.18475" y="21.037" width="144.427701" height="125.501197"/>
  </clipPath>
 </defs>
</svg>
