<?xml version="1.0" encoding="utf-8" standalone="no"?>
<!DOCTYPE svg PUBLIC "-//W3C//DTD SVG 1.1//EN"
  "http://www.w3.org/Graphics/SVG/1.1/DTD/svg11.dtd">
<svg xmlns:xlink="http://www.w3.org/1999/xlink" width="272.32173pt" height="176.855697pt" viewBox="0 0 272.32173 176.855697" xmlns="http://www.w3.org/2000/svg" version="1.1">
 <metadata>
  <rdf:RDF xmlns:dc="http://purl.org/dc/elements/1.1/" xmlns:cc="http://creativecommons.org/ns#" xmlns:rdf="http://www.w3.org/1999/02/22-rdf-syntax-ns#">
   <cc:Work>
    <dc:type rdf:resource="http://purl.org/dc/dcmitype/StillImage"/>
    <dc:date>2025-02-13T12:52:23.338947</dc:date>
    <dc:format>image/svg+xml</dc:format>
    <dc:creator>
     <cc:Agent>
      <dc:title>Matplotlib v3.6.2, https://matplotlib.org/</dc:title>
     </cc:Agent>
    </dc:creator>
   </cc:Work>
  </rdf:RDF>
 </metadata>
 <defs>
  <style type="text/css">*{stroke-linejoin: round; stroke-linecap: butt}</style>
 </defs>
 <g id="figure_1">
  <g id="patch_1">
   <path d="M -0 176.855697 
L 272.32173 176.855697 
L 272.32173 0 
L -0 0 
z
" style="fill: #ffffff"/>
  </g>
  <g id="axes_1">
   <g id="patch_2">
    <path d="M 35.58575 146.747947 
L 193.093451 146.747947 
L 193.093451 12.07875 
L 35.58575 12.07875 
z
" style="fill: #ffffff"/>
   </g>
   <g id="matplotlib.axis_1">
    <g id="xtick_1">
     <g id="line2d_1">
      <path d="M 46.219181 146.747947 
L 46.219181 12.07875 
" clip-path="url(#p3ccab08d4c)" style="fill: none; stroke: #b0b0b0; stroke-width: 0.6; stroke-linecap: square"/>
     </g>
     <g id="line2d_2">
      <defs>
       <path id="m34050a8a18" d="M 0 0 
L 0 4.8 
" style="stroke: #000000"/>
      </defs>
      <g>
       <use xlink:href="#m34050a8a18" x="46.219181" y="146.747947" style="stroke: #000000"/>
      </g>
     </g>
     <g id="text_1">
      <text style="font: 8.8px 'DejaVu Sans', 'Bitstream Vera Sans', 'Computer Modern Sans Serif', 'Lucida Grande', 'Verdana', 'Geneva', 'Lucid', 'Arial', 'Helvetica', 'Avant Garde', sans-serif; text-anchor: middle" x="46.219181" y="161.734572" transform="rotate(-0 46.219181 161.734572)">1000</text>
     </g>
    </g>
    <g id="xtick_2">
     <g id="line2d_3">
      <path d="M 79.448654 146.747947 
L 79.448654 12.07875 
" clip-path="url(#p3ccab08d4c)" style="fill: none; stroke: #b0b0b0; stroke-width: 0.6; stroke-linecap: square"/>
     </g>
     <g id="line2d_4">
      <g>
       <use xlink:href="#m34050a8a18" x="79.448654" y="146.747947" style="stroke: #000000"/>
      </g>
     </g>
     <g id="text_2">
      <text style="font: 8.8px 'DejaVu Sans', 'Bitstream Vera Sans', 'Computer Modern Sans Serif', 'Lucida Grande', 'Verdana', 'Geneva', 'Lucid', 'Arial', 'Helvetica', 'Avant Garde', sans-serif; text-anchor: middle" x="79.448654" y="161.734572" transform="rotate(-0 79.448654 161.734572)">1500</text>
     </g>
    </g>
    <g id="xtick_3">
     <g id="line2d_5">
      <path d="M 112.678127 146.747947 
L 112.678127 12.07875 
" clip-path="url(#p3ccab08d4c)" style="fill: none; stroke: #b0b0b0; stroke-width: 0.6; stroke-linecap: square"/>
     </g>
     <g id="line2d_6">
      <g>
       <use xlink:href="#m34050a8a18" x="112.678127" y="146.747947" style="stroke: #000000"/>
      </g>
     </g>
     <g id="text_3">
      <text style="font: 8.8px 'DejaVu Sans', 'Bitstream Vera Sans', 'Computer Modern Sans Serif', 'Lucida Grande', 'Verdana', 'Geneva', 'Lucid', 'Arial', 'Helvetica', 'Avant Garde', sans-serif; text-anchor: middle" x="112.678127" y="161.734572" transform="rotate(-0 112.678127 161.734572)">2000</text>
     </g>
    </g>
    <g id="xtick_4">
     <g id="line2d_7">
      <path d="M 145.907599 146.747947 
L 145.907599 12.07875 
" clip-path="url(#p3ccab08d4c)" style="fill: none; stroke: #b0b0b0; stroke-width: 0.6; stroke-linecap: square"/>
     </g>
     <g id="line2d_8">
      <g>
       <use xlink:href="#m34050a8a18" x="145.907599" y="146.747947" style="stroke: #000000"/>
      </g>
     </g>
     <g id="text_4">
      <text style="font: 8.8px 'DejaVu Sans', 'Bitstream Vera Sans', 'Computer Modern Sans Serif', 'Lucida Grande', 'Verdana', 'Geneva', 'Lucid', 'Arial', 'Helvetica', 'Avant Garde', sans-serif; text-anchor: middle" x="145.907599" y="161.734572" transform="rotate(-0 145.907599 161.734572)">2500</text>
     </g>
    </g>
    <g id="xtick_5">
     <g id="line2d_9">
      <path d="M 179.137072 146.747947 
L 179.137072 12.07875 
" clip-path="url(#p3ccab08d4c)" style="fill: none; stroke: #b0b0b0; stroke-width: 0.6; stroke-linecap: square"/>
     </g>
     <g id="line2d_10">
      <g>
       <use xlink:href="#m34050a8a18" x="179.137072" y="146.747947" style="stroke: #000000"/>
      </g>
     </g>
     <g id="text_5">
      <text style="font: 8.8px 'DejaVu Sans', 'Bitstream Vera Sans', 'Computer Modern Sans Serif', 'Lucida Grande', 'Verdana', 'Geneva', 'Lucid', 'Arial', 'Helvetica', 'Avant Garde', sans-serif; text-anchor: middle" x="179.137072" y="161.734572" transform="rotate(-0 179.137072 161.734572)">3000</text>
     </g>
    </g>
    <g id="xtick_6">
     <g id="line2d_11">
      <path d="M 39.573287 146.747947 
L 39.573287 12.07875 
" clip-path="url(#p3ccab08d4c)" style="fill: none; stroke: #b0b0b0; stroke-width: 0.3; stroke-linecap: square"/>
     </g>
     <g id="line2d_12">
      <defs>
       <path id="m3818bfa461" d="M 0 0 
L 0 3.2 
" style="stroke: #000000; stroke-width: 0.8"/>
      </defs>
      <g>
       <use xlink:href="#m3818bfa461" x="39.573287" y="146.747947" style="stroke: #000000; stroke-width: 0.8"/>
      </g>
     </g>
    </g>
    <g id="xtick_7">
     <g id="line2d_13">
      <path d="M 52.865076 146.747947 
L 52.865076 12.07875 
" clip-path="url(#p3ccab08d4c)" style="fill: none; stroke: #b0b0b0; stroke-width: 0.3; stroke-linecap: square"/>
     </g>
     <g id="line2d_14">
      <g>
       <use xlink:href="#m3818bfa461" x="52.865076" y="146.747947" style="stroke: #000000; stroke-width: 0.8"/>
      </g>
     </g>
    </g>
    <g id="xtick_8">
     <g id="line2d_15">
      <path d="M 59.51097 146.747947 
L 59.51097 12.07875 
" clip-path="url(#p3ccab08d4c)" style="fill: none; stroke: #b0b0b0; stroke-width: 0.3; stroke-linecap: square"/>
     </g>
     <g id="line2d_16">
      <g>
       <use xlink:href="#m3818bfa461" x="59.51097" y="146.747947" style="stroke: #000000; stroke-width: 0.8"/>
      </g>
     </g>
    </g>
    <g id="xtick_9">
     <g id="line2d_17">
      <path d="M 66.156865 146.747947 
L 66.156865 12.07875 
" clip-path="url(#p3ccab08d4c)" style="fill: none; stroke: #b0b0b0; stroke-width: 0.3; stroke-linecap: square"/>
     </g>
     <g id="line2d_18">
      <g>
       <use xlink:href="#m3818bfa461" x="66.156865" y="146.747947" style="stroke: #000000; stroke-width: 0.8"/>
      </g>
     </g>
    </g>
    <g id="xtick_10">
     <g id="line2d_19">
      <path d="M 72.802759 146.747947 
L 72.802759 12.07875 
" clip-path="url(#p3ccab08d4c)" style="fill: none; stroke: #b0b0b0; stroke-width: 0.3; stroke-linecap: square"/>
     </g>
     <g id="line2d_20">
      <g>
       <use xlink:href="#m3818bfa461" x="72.802759" y="146.747947" style="stroke: #000000; stroke-width: 0.8"/>
      </g>
     </g>
    </g>
    <g id="xtick_11">
     <g id="line2d_21">
      <path d="M 86.094549 146.747947 
L 86.094549 12.07875 
" clip-path="url(#p3ccab08d4c)" style="fill: none; stroke: #b0b0b0; stroke-width: 0.3; stroke-linecap: square"/>
     </g>
     <g id="line2d_22">
      <g>
       <use xlink:href="#m3818bfa461" x="86.094549" y="146.747947" style="stroke: #000000; stroke-width: 0.8"/>
      </g>
     </g>
    </g>
    <g id="xtick_12">
     <g id="line2d_23">
      <path d="M 92.740443 146.747947 
L 92.740443 12.07875 
" clip-path="url(#p3ccab08d4c)" style="fill: none; stroke: #b0b0b0; stroke-width: 0.3; stroke-linecap: square"/>
     </g>
     <g id="line2d_24">
      <g>
       <use xlink:href="#m3818bfa461" x="92.740443" y="146.747947" style="stroke: #000000; stroke-width: 0.8"/>
      </g>
     </g>
    </g>
    <g id="xtick_13">
     <g id="line2d_25">
      <path d="M 99.386338 146.747947 
L 99.386338 12.07875 
" clip-path="url(#p3ccab08d4c)" style="fill: none; stroke: #b0b0b0; stroke-width: 0.3; stroke-linecap: square"/>
     </g>
     <g id="line2d_26">
      <g>
       <use xlink:href="#m3818bfa461" x="99.386338" y="146.747947" style="stroke: #000000; stroke-width: 0.8"/>
      </g>
     </g>
    </g>
    <g id="xtick_14">
     <g id="line2d_27">
      <path d="M 106.032232 146.747947 
L 106.032232 12.07875 
" clip-path="url(#p3ccab08d4c)" style="fill: none; stroke: #b0b0b0; stroke-width: 0.3; stroke-linecap: square"/>
     </g>
     <g id="line2d_28">
      <g>
       <use xlink:href="#m3818bfa461" x="106.032232" y="146.747947" style="stroke: #000000; stroke-width: 0.8"/>
      </g>
     </g>
    </g>
    <g id="xtick_15">
     <g id="line2d_29">
      <path d="M 119.324021 146.747947 
L 119.324021 12.07875 
" clip-path="url(#p3ccab08d4c)" style="fill: none; stroke: #b0b0b0; stroke-width: 0.3; stroke-linecap: square"/>
     </g>
     <g id="line2d_30">
      <g>
       <use xlink:href="#m3818bfa461" x="119.324021" y="146.747947" style="stroke: #000000; stroke-width: 0.8"/>
      </g>
     </g>
    </g>
    <g id="xtick_16">
     <g id="line2d_31">
      <path d="M 125.969916 146.747947 
L 125.969916 12.07875 
" clip-path="url(#p3ccab08d4c)" style="fill: none; stroke: #b0b0b0; stroke-width: 0.3; stroke-linecap: square"/>
     </g>
     <g id="line2d_32">
      <g>
       <use xlink:href="#m3818bfa461" x="125.969916" y="146.747947" style="stroke: #000000; stroke-width: 0.8"/>
      </g>
     </g>
    </g>
    <g id="xtick_17">
     <g id="line2d_33">
      <path d="M 132.61581 146.747947 
L 132.61581 12.07875 
" clip-path="url(#p3ccab08d4c)" style="fill: none; stroke: #b0b0b0; stroke-width: 0.3; stroke-linecap: square"/>
     </g>
     <g id="line2d_34">
      <g>
       <use xlink:href="#m3818bfa461" x="132.61581" y="146.747947" style="stroke: #000000; stroke-width: 0.8"/>
      </g>
     </g>
    </g>
    <g id="xtick_18">
     <g id="line2d_35">
      <path d="M 139.261705 146.747947 
L 139.261705 12.07875 
" clip-path="url(#p3ccab08d4c)" style="fill: none; stroke: #b0b0b0; stroke-width: 0.3; stroke-linecap: square"/>
     </g>
     <g id="line2d_36">
      <g>
       <use xlink:href="#m3818bfa461" x="139.261705" y="146.747947" style="stroke: #000000; stroke-width: 0.8"/>
      </g>
     </g>
    </g>
    <g id="xtick_19">
     <g id="line2d_37">
      <path d="M 152.553494 146.747947 
L 152.553494 12.07875 
" clip-path="url(#p3ccab08d4c)" style="fill: none; stroke: #b0b0b0; stroke-width: 0.3; stroke-linecap: square"/>
     </g>
     <g id="line2d_38">
      <g>
       <use xlink:href="#m3818bfa461" x="152.553494" y="146.747947" style="stroke: #000000; stroke-width: 0.8"/>
      </g>
     </g>
    </g>
    <g id="xtick_20">
     <g id="line2d_39">
      <path d="M 159.199389 146.747947 
L 159.199389 12.07875 
" clip-path="url(#p3ccab08d4c)" style="fill: none; stroke: #b0b0b0; stroke-width: 0.3; stroke-linecap: square"/>
     </g>
     <g id="line2d_40">
      <g>
       <use xlink:href="#m3818bfa461" x="159.199389" y="146.747947" style="stroke: #000000; stroke-width: 0.8"/>
      </g>
     </g>
    </g>
    <g id="xtick_21">
     <g id="line2d_41">
      <path d="M 165.845283 146.747947 
L 165.845283 12.07875 
" clip-path="url(#p3ccab08d4c)" style="fill: none; stroke: #b0b0b0; stroke-width: 0.3; stroke-linecap: square"/>
     </g>
     <g id="line2d_42">
      <g>
       <use xlink:href="#m3818bfa461" x="165.845283" y="146.747947" style="stroke: #000000; stroke-width: 0.8"/>
      </g>
     </g>
    </g>
    <g id="xtick_22">
     <g id="line2d_43">
      <path d="M 172.491178 146.747947 
L 172.491178 12.07875 
" clip-path="url(#p3ccab08d4c)" style="fill: none; stroke: #b0b0b0; stroke-width: 0.3; stroke-linecap: square"/>
     </g>
     <g id="line2d_44">
      <g>
       <use xlink:href="#m3818bfa461" x="172.491178" y="146.747947" style="stroke: #000000; stroke-width: 0.8"/>
      </g>
     </g>
    </g>
    <g id="xtick_23">
     <g id="line2d_45">
      <path d="M 185.782967 146.747947 
L 185.782967 12.07875 
" clip-path="url(#p3ccab08d4c)" style="fill: none; stroke: #b0b0b0; stroke-width: 0.3; stroke-linecap: square"/>
     </g>
     <g id="line2d_46">
      <g>
       <use xlink:href="#m3818bfa461" x="185.782967" y="146.747947" style="stroke: #000000; stroke-width: 0.8"/>
      </g>
     </g>
    </g>
    <g id="xtick_24">
     <g id="line2d_47">
      <path d="M 192.428861 146.747947 
L 192.428861 12.07875 
" clip-path="url(#p3ccab08d4c)" style="fill: none; stroke: #b0b0b0; stroke-width: 0.3; stroke-linecap: square"/>
     </g>
     <g id="line2d_48">
      <g>
       <use xlink:href="#m3818bfa461" x="192.428861" y="146.747947" style="stroke: #000000; stroke-width: 0.8"/>
      </g>
     </g>
    </g>
    <g id="text_6">
     <text style="font: 9.6px 'DejaVu Sans', 'Bitstream Vera Sans', 'Computer Modern Sans Serif', 'Lucida Grande', 'Verdana', 'Geneva', 'Lucid', 'Arial', 'Helvetica', 'Avant Garde', sans-serif; text-anchor: middle" x="114.3396" y="174.859197" transform="rotate(-0 114.3396 174.859197)">Wavelength (nm)</text>
    </g>
   </g>
   <g id="matplotlib.axis_2">
    <g id="ytick_1">
     <g id="line2d_49">
      <path d="M 35.58575 141.886791 
L 193.093451 141.886791 
" clip-path="url(#p3ccab08d4c)" style="fill: none; stroke: #b0b0b0; stroke-width: 0.6; stroke-linecap: square"/>
     </g>
     <g id="line2d_50">
      <defs>
       <path id="m4e5abcbeb9" d="M 0 0 
L -4.8 0 
" style="stroke: #000000"/>
      </defs>
      <g>
       <use xlink:href="#m4e5abcbeb9" x="35.58575" y="141.886791" style="stroke: #000000"/>
      </g>
     </g>
     <g id="text_7">
      <text style="font: 8.8px 'DejaVu Sans', 'Bitstream Vera Sans', 'Computer Modern Sans Serif', 'Lucida Grande', 'Verdana', 'Geneva', 'Lucid', 'Arial', 'Helvetica', 'Avant Garde', sans-serif; text-anchor: end" x="27.28575" y="145.230103" transform="rotate(-0 27.28575 145.230103)">0.0</text>
     </g>
    </g>
    <g id="ytick_2">
     <g id="line2d_51">
      <path d="M 35.58575 113.031073 
L 193.093451 113.031073 
" clip-path="url(#p3ccab08d4c)" style="fill: none; stroke: #b0b0b0; stroke-width: 0.6; stroke-linecap: square"/>
     </g>
     <g id="line2d_52">
      <g>
       <use xlink:href="#m4e5abcbeb9" x="35.58575" y="113.031073" style="stroke: #000000"/>
      </g>
     </g>
     <g id="text_8">
      <text style="font: 8.8px 'DejaVu Sans', 'Bitstream Vera Sans', 'Computer Modern Sans Serif', 'Lucida Grande', 'Verdana', 'Geneva', 'Lucid', 'Arial', 'Helvetica', 'Avant Garde', sans-serif; text-anchor: end" x="27.28575" y="116.374385" transform="rotate(-0 27.28575 116.374385)">0.2</text>
     </g>
    </g>
    <g id="ytick_3">
     <g id="line2d_53">
      <path d="M 35.58575 84.175355 
L 193.093451 84.175355 
" clip-path="url(#p3ccab08d4c)" style="fill: none; stroke: #b0b0b0; stroke-width: 0.6; stroke-linecap: square"/>
     </g>
     <g id="line2d_54">
      <g>
       <use xlink:href="#m4e5abcbeb9" x="35.58575" y="84.175355" style="stroke: #000000"/>
      </g>
     </g>
     <g id="text_9">
      <text style="font: 8.8px 'DejaVu Sans', 'Bitstream Vera Sans', 'Computer Modern Sans Serif', 'Lucida Grande', 'Verdana', 'Geneva', 'Lucid', 'Arial', 'Helvetica', 'Avant Garde', sans-serif; text-anchor: end" x="27.28575" y="87.518667" transform="rotate(-0 27.28575 87.518667)">0.4</text>
     </g>
    </g>
    <g id="ytick_4">
     <g id="line2d_55">
      <path d="M 35.58575 55.319637 
L 193.093451 55.319637 
" clip-path="url(#p3ccab08d4c)" style="fill: none; stroke: #b0b0b0; stroke-width: 0.6; stroke-linecap: square"/>
     </g>
     <g id="line2d_56">
      <g>
       <use xlink:href="#m4e5abcbeb9" x="35.58575" y="55.319637" style="stroke: #000000"/>
      </g>
     </g>
     <g id="text_10">
      <text style="font: 8.8px 'DejaVu Sans', 'Bitstream Vera Sans', 'Computer Modern Sans Serif', 'Lucida Grande', 'Verdana', 'Geneva', 'Lucid', 'Arial', 'Helvetica', 'Avant Garde', sans-serif; text-anchor: end" x="27.28575" y="58.662949" transform="rotate(-0 27.28575 58.662949)">0.6</text>
     </g>
    </g>
    <g id="ytick_5">
     <g id="line2d_57">
      <path d="M 35.58575 26.463918 
L 193.093451 26.463918 
" clip-path="url(#p3ccab08d4c)" style="fill: none; stroke: #b0b0b0; stroke-width: 0.6; stroke-linecap: square"/>
     </g>
     <g id="line2d_58">
      <g>
       <use xlink:href="#m4e5abcbeb9" x="35.58575" y="26.463918" style="stroke: #000000"/>
      </g>
     </g>
     <g id="text_11">
      <text style="font: 8.8px 'DejaVu Sans', 'Bitstream Vera Sans', 'Computer Modern Sans Serif', 'Lucida Grande', 'Verdana', 'Geneva', 'Lucid', 'Arial', 'Helvetica', 'Avant Garde', sans-serif; text-anchor: end" x="27.28575" y="29.807231" transform="rotate(-0 27.28575 29.807231)">0.8</text>
     </g>
    </g>
    <g id="text_12">
     <text style="font: 9.6px 'DejaVu Sans', 'Bitstream Vera Sans', 'Computer Modern Sans Serif', 'Lucida Grande', 'Verdana', 'Geneva', 'Lucid', 'Arial', 'Helvetica', 'Avant Garde', sans-serif; text-anchor: middle" x="7.2945" y="79.413348" transform="rotate(-90 7.2945 79.413348)">Reflectance</text>
    </g>
   </g>
   <g id="line2d_59">
    <path d="M 36.250339 18.787865 
L 36.715552 18.629619 
L 36.981388 18.581457 
L 37.247224 18.270053 
L 37.313683 18.339566 
L 37.645977 18.564523 
L 38.11119 18.303839 
L 38.509944 18.320921 
L 38.842238 18.484563 
L 39.041615 18.472587 
L 39.37391 18.451262 
L 39.706205 18.500058 
L 40.703089 18.372372 
L 41.965809 18.373147 
L 42.431021 18.611326 
L 44.557708 20.141196 
L 45.089379 20.285823 
L 45.355215 20.360042 
L 46.28564 20.777639 
L 46.684394 20.569592 
L 47.149607 20.671424 
L 47.614819 20.759865 
L 48.877539 20.354734 
L 49.542129 20.045541 
L 51.602356 18.707155 
L 52.466322 18.441511 
L 53.330288 18.292066 
L 54.260714 18.259979 
L 54.659467 18.274581 
L 55.523434 18.878763 
L 56.121564 19.792099 
L 57.716579 22.491638 
L 59.178676 24.312296 
L 59.643888 25.34896 
L 60.507855 26.364367 
L 61.903492 28.298363 
L 63.432048 30.104068 
L 63.897261 30.401339 
L 64.56185 30.821709 
L 65.159981 31.243581 
L 65.758111 31.626465 
L 66.356242 32.000495 
L 67.353126 32.796275 
L 67.951256 33.487687 
L 68.482928 34.3245 
L 69.346894 36.537823 
L 69.878566 37.921256 
L 71.54004 41.335 
L 72.736301 46.845951 
L 73.201513 50.257683 
L 74.464233 60.31932 
L 75.394658 65.119474 
L 76.458001 69.205587 
L 77.853639 72.793418 
L 79.448654 74.734773 
L 80.31262 76.414667 
L 80.844292 77.620433 
L 82.705142 82.321489 
L 82.83806 82.303224 
L 83.702027 81.571184 
L 83.967862 81.505046 
L 84.366616 81.555025 
L 84.76537 81.759267 
L 85.297041 82.291249 
L 85.828713 82.847153 
L 86.293925 83.337442 
L 86.62622 83.649949 
L 87.224351 83.908873 
L 87.556645 83.936169 
L 87.955399 83.897907 
L 88.221235 83.830097 
L 88.619988 83.456212 
L 89.284578 82.796367 
L 89.749791 82.602572 
L 90.281462 82.659591 
L 90.879593 82.644705 
L 92.541066 82.819165 
L 93.272115 82.927374 
L 93.604409 82.88083 
L 94.069622 82.633303 
L 95.996931 80.872326 
L 97.126734 79.545686 
L 97.857782 78.774343 
L 99.85155 76.382088 
L 100.449681 75.678269 
L 101.11427 75.179929 
L 101.845319 75.128539 
L 102.576367 75.819 
L 103.04158 76.569131 
L 103.772628 78.489538 
L 104.104923 79.930911 
L 106.231609 97.038484 
L 106.896198 102.372232 
L 107.494329 105.805282 
L 107.893083 107.129588 
L 108.557672 108.368479 
L 108.956426 109.408497 
L 109.421638 111.06219 
L 110.285605 114.066675 
L 110.484982 114.353241 
L 110.750817 114.498183 
L 111.282489 114.106554 
L 112.146455 113.147246 
L 112.744586 112.532273 
L 113.143339 112.511554 
L 113.542093 112.8019 
L 113.940847 113.34687 
L 114.273141 114.031357 
L 114.738354 115.287618 
L 116.067533 118.836266 
L 116.599205 119.579474 
L 116.86504 119.724619 
L 117.197335 119.757081 
L 120.121529 119.572952 
L 120.719659 120.067048 
L 121.384249 120.646471 
L 121.716543 120.68081 
L 122.048838 120.338119 
L 122.447592 119.088379 
L 122.912804 116.550084 
L 123.378017 113.077935 
L 124.44136 105.636391 
L 124.973032 103.137025 
L 125.70408 101.032549 
L 126.169293 100.349505 
L 126.634505 100.023061 
L 127.564931 99.668912 
L 127.963684 99.326049 
L 129.691617 97.785097 
L 130.09037 97.816665 
L 130.422665 98.071202 
L 130.954337 98.85931 
L 132.150598 101.460479 
L 132.61581 101.985103 
L 134.144366 103.503924 
L 134.609579 104.348529 
L 135.340627 106.004735 
L 136.271052 108.718441 
L 137.467313 112.887227 
L 138.065444 115.64237 
L 139.128787 120.709723 
L 139.261705 121.078211 
L 139.328164 121.040063 
L 139.594 120.887474 
L 140.989638 116.264096 
L 141.45485 115.899591 
L 141.720686 115.919847 
L 142.252357 116.269982 
L 144.711338 119.061686 
L 146.239894 121.18982 
L 146.838025 121.709097 
L 147.103861 121.958636 
L 147.502614 122.231661 
L 148.632416 122.678 
L 149.03117 122.892949 
L 150.227431 123.432867 
L 150.426808 123.536545 
L 150.559726 123.510826 
L 150.759103 123.726655 
L 150.89202 123.804955 
L 151.689528 124.483607 
L 151.822446 124.543175 
L 152.15474 124.788635 
L 152.287658 124.945283 
L 152.420576 125.227863 
L 152.686412 125.325264 
L 154.214968 126.640836 
L 154.414345 126.719764 
L 154.746639 127.041963 
L 155.145393 127.165272 
L 155.544147 127.396939 
L 155.809982 127.424744 
L 156.60749 127.602833 
L 157.272079 127.774058 
L 157.471456 127.957809 
L 157.604374 127.948123 
L 158.268963 128.511092 
L 158.534799 128.700943 
L 159.797519 130.400082 
L 160.595026 131.698047 
L 161.392534 133.238896 
L 164.117351 138.176908 
L 164.516104 138.441658 
L 165.114235 138.986791 
L 165.579447 139.144547 
L 166.111119 139.351854 
L 166.376955 139.427515 
L 169.965738 140.34177 
L 171.560752 140.503586 
L 172.225342 140.539883 
L 174.8837 140.592627 
L 175.681207 140.580989 
L 176.279338 140.566481 
L 179.402908 140.446993 
L 181.130841 140.400561 
L 188.10903 140.001768 
L 189.238832 139.917841 
L 191.365518 139.802448 
L 192.362402 139.747765 
L 192.362402 139.747765 
" clip-path="url(#p3ccab08d4c)" style="fill: none; stroke: #1f77b4; stroke-width: 0.5; stroke-linecap: square"/>
   </g>
   <g id="line2d_60"/>
   <g id="patch_3">
    <path d="M 35.58575 146.747947 
L 35.58575 12.07875 
" style="fill: none; stroke: #000000; stroke-linejoin: miter; stroke-linecap: square"/>
   </g>
   <g id="patch_4">
    <path d="M 193.093451 146.747947 
L 193.093451 12.07875 
" style="fill: none; stroke: #000000; stroke-linejoin: miter; stroke-linecap: square"/>
   </g>
   <g id="patch_5">
    <path d="M 35.58575 146.747947 
L 193.093451 146.747947 
" style="fill: none; stroke: #000000; stroke-linejoin: miter; stroke-linecap: square"/>
   </g>
   <g id="patch_6">
    <path d="M 35.58575 12.07875 
L 193.093451 12.07875 
" style="fill: none; stroke: #000000; stroke-linejoin: miter; stroke-linecap: square"/>
   </g>
   <g id="text_13">
    <text style="font: 8px 'DejaVu Sans', 'Bitstream Vera Sans', 'Computer Modern Sans Serif', 'Lucida Grande', 'Verdana', 'Geneva', 'Lucid', 'Arial', 'Helvetica', 'Avant Garde', sans-serif; text-anchor: middle" x="114.3396" y="6.07875" transform="rotate(-0 114.3396 6.07875)">Laboratory Sulfates Kieserite</text>
   </g>
   <g id="legend_1">
    <g id="patch_7">
     <path d="M 200.443605 84.716786 
L 271.12173 84.716786 
Q 272.32173 84.716786 272.32173 83.516786 
L 272.32173 75.309911 
Q 272.32173 74.109911 271.12173 74.109911 
L 200.443605 74.109911 
Q 199.243605 74.109911 199.243605 75.309911 
L 199.243605 83.516786 
Q 199.243605 84.716786 200.443605 84.716786 
z
" style="fill: #ffffff; opacity: 0.8; stroke: #cccccc; stroke-width: 0.8; stroke-linejoin: miter"/>
    </g>
    <g id="line2d_61">
     <path d="M 201.643605 78.968973 
L 207.643605 78.968973 
L 213.643605 78.968973 
" style="fill: none; stroke: #1f77b4; stroke-width: 1.2; stroke-linecap: square"/>
    </g>
    <g id="text_14">
     <text style="font: 6px 'DejaVu Sans', 'Bitstream Vera Sans', 'Computer Modern Sans Serif', 'Lucida Grande', 'Verdana', 'Geneva', 'Lucid', 'Arial', 'Helvetica', 'Avant Garde', sans-serif; text-anchor: start" x="218.443605" y="81.068973" transform="rotate(-0 218.443605 81.068973)">Kieserite F1CC15</text>
    </g>
   </g>
  </g>
 </g>
 <defs>
  <clipPath id="p3ccab08d4c">
   <rect x="35.58575" y="12.07875" width="157.507701" height="134.669197"/>
  </clipPath>
 </defs>
</svg>
