<?xml version="1.0" encoding="utf-8" standalone="no"?>
<!DOCTYPE svg PUBLIC "-//W3C//DTD SVG 1.1//EN"
  "http://www.w3.org/Graphics/SVG/1.1/DTD/svg11.dtd">
<svg xmlns:xlink="http://www.w3.org/1999/xlink" width="272.308042pt" height="176.855697pt" viewBox="0 0 272.308042 176.855697" xmlns="http://www.w3.org/2000/svg" version="1.1">
 <metadata>
  <rdf:RDF xmlns:dc="http://purl.org/dc/elements/1.1/" xmlns:cc="http://creativecommons.org/ns#" xmlns:rdf="http://www.w3.org/1999/02/22-rdf-syntax-ns#">
   <cc:Work>
    <dc:type rdf:resource="http://purl.org/dc/dcmitype/StillImage"/>
    <dc:date>2025-02-13T12:52:22.379290</dc:date>
    <dc:format>image/svg+xml</dc:format>
    <dc:creator>
     <cc:Agent>
      <dc:title>Matplotlib v3.6.2, https://matplotlib.org/</dc:title>
     </cc:Agent>
    </dc:creator>
   </cc:Work>
  </rdf:RDF>
 </metadata>
 <defs>
  <style type="text/css">*{stroke-linejoin: round; stroke-linecap: butt}</style>
 </defs>
 <g id="figure_1">
  <g id="patch_1">
   <path d="M -0 176.855697 
L 272.308042 176.855697 
L 272.308042 0 
L -0 0 
z
" style="fill: #ffffff"/>
  </g>
  <g id="axes_1">
   <g id="patch_2">
    <path d="M 35.58575 146.747947 
L 194.143451 146.747947 
L 194.143451 12.07875 
L 35.58575 12.07875 
z
" style="fill: #ffffff"/>
   </g>
   <g id="matplotlib.axis_1">
    <g id="xtick_1">
     <g id="line2d_1">
      <path d="M 46.290067 146.747947 
L 46.290067 12.07875 
" clip-path="url(#p75cd0324cc)" style="fill: none; stroke: #b0b0b0; stroke-width: 0.6; stroke-linecap: square"/>
     </g>
     <g id="line2d_2">
      <defs>
       <path id="m21ad4bfa2d" d="M 0 0 
L 0 4.8 
" style="stroke: #000000"/>
      </defs>
      <g>
       <use xlink:href="#m21ad4bfa2d" x="46.290067" y="146.747947" style="stroke: #000000"/>
      </g>
     </g>
     <g id="text_1">
      <text style="font: 8.8px 'DejaVu Sans', 'Bitstream Vera Sans', 'Computer Modern Sans Serif', 'Lucida Grande', 'Verdana', 'Geneva', 'Lucid', 'Arial', 'Helvetica', 'Avant Garde', sans-serif; text-anchor: middle" x="46.290067" y="161.734572" transform="rotate(-0 46.290067 161.734572)">1000</text>
     </g>
    </g>
    <g id="xtick_2">
     <g id="line2d_3">
      <path d="M 79.741059 146.747947 
L 79.741059 12.07875 
" clip-path="url(#p75cd0324cc)" style="fill: none; stroke: #b0b0b0; stroke-width: 0.6; stroke-linecap: square"/>
     </g>
     <g id="line2d_4">
      <g>
       <use xlink:href="#m21ad4bfa2d" x="79.741059" y="146.747947" style="stroke: #000000"/>
      </g>
     </g>
     <g id="text_2">
      <text style="font: 8.8px 'DejaVu Sans', 'Bitstream Vera Sans', 'Computer Modern Sans Serif', 'Lucida Grande', 'Verdana', 'Geneva', 'Lucid', 'Arial', 'Helvetica', 'Avant Garde', sans-serif; text-anchor: middle" x="79.741059" y="161.734572" transform="rotate(-0 79.741059 161.734572)">1500</text>
     </g>
    </g>
    <g id="xtick_3">
     <g id="line2d_5">
      <path d="M 113.192051 146.747947 
L 113.192051 12.07875 
" clip-path="url(#p75cd0324cc)" style="fill: none; stroke: #b0b0b0; stroke-width: 0.6; stroke-linecap: square"/>
     </g>
     <g id="line2d_6">
      <g>
       <use xlink:href="#m21ad4bfa2d" x="113.192051" y="146.747947" style="stroke: #000000"/>
      </g>
     </g>
     <g id="text_3">
      <text style="font: 8.8px 'DejaVu Sans', 'Bitstream Vera Sans', 'Computer Modern Sans Serif', 'Lucida Grande', 'Verdana', 'Geneva', 'Lucid', 'Arial', 'Helvetica', 'Avant Garde', sans-serif; text-anchor: middle" x="113.192051" y="161.734572" transform="rotate(-0 113.192051 161.734572)">2000</text>
     </g>
    </g>
    <g id="xtick_4">
     <g id="line2d_7">
      <path d="M 146.643043 146.747947 
L 146.643043 12.07875 
" clip-path="url(#p75cd0324cc)" style="fill: none; stroke: #b0b0b0; stroke-width: 0.6; stroke-linecap: square"/>
     </g>
     <g id="line2d_8">
      <g>
       <use xlink:href="#m21ad4bfa2d" x="146.643043" y="146.747947" style="stroke: #000000"/>
      </g>
     </g>
     <g id="text_4">
      <text style="font: 8.8px 'DejaVu Sans', 'Bitstream Vera Sans', 'Computer Modern Sans Serif', 'Lucida Grande', 'Verdana', 'Geneva', 'Lucid', 'Arial', 'Helvetica', 'Avant Garde', sans-serif; text-anchor: middle" x="146.643043" y="161.734572" transform="rotate(-0 146.643043 161.734572)">2500</text>
     </g>
    </g>
    <g id="xtick_5">
     <g id="line2d_9">
      <path d="M 180.094034 146.747947 
L 180.094034 12.07875 
" clip-path="url(#p75cd0324cc)" style="fill: none; stroke: #b0b0b0; stroke-width: 0.6; stroke-linecap: square"/>
     </g>
     <g id="line2d_10">
      <g>
       <use xlink:href="#m21ad4bfa2d" x="180.094034" y="146.747947" style="stroke: #000000"/>
      </g>
     </g>
     <g id="text_5">
      <text style="font: 8.8px 'DejaVu Sans', 'Bitstream Vera Sans', 'Computer Modern Sans Serif', 'Lucida Grande', 'Verdana', 'Geneva', 'Lucid', 'Arial', 'Helvetica', 'Avant Garde', sans-serif; text-anchor: middle" x="180.094034" y="161.734572" transform="rotate(-0 180.094034 161.734572)">3000</text>
     </g>
    </g>
    <g id="xtick_6">
     <g id="line2d_11">
      <path d="M 39.599869 146.747947 
L 39.599869 12.07875 
" clip-path="url(#p75cd0324cc)" style="fill: none; stroke: #b0b0b0; stroke-width: 0.3; stroke-linecap: square"/>
     </g>
     <g id="line2d_12">
      <defs>
       <path id="ma182ba005b" d="M 0 0 
L 0 3.2 
" style="stroke: #000000; stroke-width: 0.8"/>
      </defs>
      <g>
       <use xlink:href="#ma182ba005b" x="39.599869" y="146.747947" style="stroke: #000000; stroke-width: 0.8"/>
      </g>
     </g>
    </g>
    <g id="xtick_7">
     <g id="line2d_13">
      <path d="M 52.980266 146.747947 
L 52.980266 12.07875 
" clip-path="url(#p75cd0324cc)" style="fill: none; stroke: #b0b0b0; stroke-width: 0.3; stroke-linecap: square"/>
     </g>
     <g id="line2d_14">
      <g>
       <use xlink:href="#ma182ba005b" x="52.980266" y="146.747947" style="stroke: #000000; stroke-width: 0.8"/>
      </g>
     </g>
    </g>
    <g id="xtick_8">
     <g id="line2d_15">
      <path d="M 59.670464 146.747947 
L 59.670464 12.07875 
" clip-path="url(#p75cd0324cc)" style="fill: none; stroke: #b0b0b0; stroke-width: 0.3; stroke-linecap: square"/>
     </g>
     <g id="line2d_16">
      <g>
       <use xlink:href="#ma182ba005b" x="59.670464" y="146.747947" style="stroke: #000000; stroke-width: 0.8"/>
      </g>
     </g>
    </g>
    <g id="xtick_9">
     <g id="line2d_17">
      <path d="M 66.360662 146.747947 
L 66.360662 12.07875 
" clip-path="url(#p75cd0324cc)" style="fill: none; stroke: #b0b0b0; stroke-width: 0.3; stroke-linecap: square"/>
     </g>
     <g id="line2d_18">
      <g>
       <use xlink:href="#ma182ba005b" x="66.360662" y="146.747947" style="stroke: #000000; stroke-width: 0.8"/>
      </g>
     </g>
    </g>
    <g id="xtick_10">
     <g id="line2d_19">
      <path d="M 73.050861 146.747947 
L 73.050861 12.07875 
" clip-path="url(#p75cd0324cc)" style="fill: none; stroke: #b0b0b0; stroke-width: 0.3; stroke-linecap: square"/>
     </g>
     <g id="line2d_20">
      <g>
       <use xlink:href="#ma182ba005b" x="73.050861" y="146.747947" style="stroke: #000000; stroke-width: 0.8"/>
      </g>
     </g>
    </g>
    <g id="xtick_11">
     <g id="line2d_21">
      <path d="M 86.431257 146.747947 
L 86.431257 12.07875 
" clip-path="url(#p75cd0324cc)" style="fill: none; stroke: #b0b0b0; stroke-width: 0.3; stroke-linecap: square"/>
     </g>
     <g id="line2d_22">
      <g>
       <use xlink:href="#ma182ba005b" x="86.431257" y="146.747947" style="stroke: #000000; stroke-width: 0.8"/>
      </g>
     </g>
    </g>
    <g id="xtick_12">
     <g id="line2d_23">
      <path d="M 93.121456 146.747947 
L 93.121456 12.07875 
" clip-path="url(#p75cd0324cc)" style="fill: none; stroke: #b0b0b0; stroke-width: 0.3; stroke-linecap: square"/>
     </g>
     <g id="line2d_24">
      <g>
       <use xlink:href="#ma182ba005b" x="93.121456" y="146.747947" style="stroke: #000000; stroke-width: 0.8"/>
      </g>
     </g>
    </g>
    <g id="xtick_13">
     <g id="line2d_25">
      <path d="M 99.811654 146.747947 
L 99.811654 12.07875 
" clip-path="url(#p75cd0324cc)" style="fill: none; stroke: #b0b0b0; stroke-width: 0.3; stroke-linecap: square"/>
     </g>
     <g id="line2d_26">
      <g>
       <use xlink:href="#ma182ba005b" x="99.811654" y="146.747947" style="stroke: #000000; stroke-width: 0.8"/>
      </g>
     </g>
    </g>
    <g id="xtick_14">
     <g id="line2d_27">
      <path d="M 106.501852 146.747947 
L 106.501852 12.07875 
" clip-path="url(#p75cd0324cc)" style="fill: none; stroke: #b0b0b0; stroke-width: 0.3; stroke-linecap: square"/>
     </g>
     <g id="line2d_28">
      <g>
       <use xlink:href="#ma182ba005b" x="106.501852" y="146.747947" style="stroke: #000000; stroke-width: 0.8"/>
      </g>
     </g>
    </g>
    <g id="xtick_15">
     <g id="line2d_29">
      <path d="M 119.882249 146.747947 
L 119.882249 12.07875 
" clip-path="url(#p75cd0324cc)" style="fill: none; stroke: #b0b0b0; stroke-width: 0.3; stroke-linecap: square"/>
     </g>
     <g id="line2d_30">
      <g>
       <use xlink:href="#ma182ba005b" x="119.882249" y="146.747947" style="stroke: #000000; stroke-width: 0.8"/>
      </g>
     </g>
    </g>
    <g id="xtick_16">
     <g id="line2d_31">
      <path d="M 126.572447 146.747947 
L 126.572447 12.07875 
" clip-path="url(#p75cd0324cc)" style="fill: none; stroke: #b0b0b0; stroke-width: 0.3; stroke-linecap: square"/>
     </g>
     <g id="line2d_32">
      <g>
       <use xlink:href="#ma182ba005b" x="126.572447" y="146.747947" style="stroke: #000000; stroke-width: 0.8"/>
      </g>
     </g>
    </g>
    <g id="xtick_17">
     <g id="line2d_33">
      <path d="M 133.262646 146.747947 
L 133.262646 12.07875 
" clip-path="url(#p75cd0324cc)" style="fill: none; stroke: #b0b0b0; stroke-width: 0.3; stroke-linecap: square"/>
     </g>
     <g id="line2d_34">
      <g>
       <use xlink:href="#ma182ba005b" x="133.262646" y="146.747947" style="stroke: #000000; stroke-width: 0.8"/>
      </g>
     </g>
    </g>
    <g id="xtick_18">
     <g id="line2d_35">
      <path d="M 139.952844 146.747947 
L 139.952844 12.07875 
" clip-path="url(#p75cd0324cc)" style="fill: none; stroke: #b0b0b0; stroke-width: 0.3; stroke-linecap: square"/>
     </g>
     <g id="line2d_36">
      <g>
       <use xlink:href="#ma182ba005b" x="139.952844" y="146.747947" style="stroke: #000000; stroke-width: 0.8"/>
      </g>
     </g>
    </g>
    <g id="xtick_19">
     <g id="line2d_37">
      <path d="M 153.333241 146.747947 
L 153.333241 12.07875 
" clip-path="url(#p75cd0324cc)" style="fill: none; stroke: #b0b0b0; stroke-width: 0.3; stroke-linecap: square"/>
     </g>
     <g id="line2d_38">
      <g>
       <use xlink:href="#ma182ba005b" x="153.333241" y="146.747947" style="stroke: #000000; stroke-width: 0.8"/>
      </g>
     </g>
    </g>
    <g id="xtick_20">
     <g id="line2d_39">
      <path d="M 160.023439 146.747947 
L 160.023439 12.07875 
" clip-path="url(#p75cd0324cc)" style="fill: none; stroke: #b0b0b0; stroke-width: 0.3; stroke-linecap: square"/>
     </g>
     <g id="line2d_40">
      <g>
       <use xlink:href="#ma182ba005b" x="160.023439" y="146.747947" style="stroke: #000000; stroke-width: 0.8"/>
      </g>
     </g>
    </g>
    <g id="xtick_21">
     <g id="line2d_41">
      <path d="M 166.713638 146.747947 
L 166.713638 12.07875 
" clip-path="url(#p75cd0324cc)" style="fill: none; stroke: #b0b0b0; stroke-width: 0.3; stroke-linecap: square"/>
     </g>
     <g id="line2d_42">
      <g>
       <use xlink:href="#ma182ba005b" x="166.713638" y="146.747947" style="stroke: #000000; stroke-width: 0.8"/>
      </g>
     </g>
    </g>
    <g id="xtick_22">
     <g id="line2d_43">
      <path d="M 173.403836 146.747947 
L 173.403836 12.07875 
" clip-path="url(#p75cd0324cc)" style="fill: none; stroke: #b0b0b0; stroke-width: 0.3; stroke-linecap: square"/>
     </g>
     <g id="line2d_44">
      <g>
       <use xlink:href="#ma182ba005b" x="173.403836" y="146.747947" style="stroke: #000000; stroke-width: 0.8"/>
      </g>
     </g>
    </g>
    <g id="xtick_23">
     <g id="line2d_45">
      <path d="M 186.784233 146.747947 
L 186.784233 12.07875 
" clip-path="url(#p75cd0324cc)" style="fill: none; stroke: #b0b0b0; stroke-width: 0.3; stroke-linecap: square"/>
     </g>
     <g id="line2d_46">
      <g>
       <use xlink:href="#ma182ba005b" x="186.784233" y="146.747947" style="stroke: #000000; stroke-width: 0.8"/>
      </g>
     </g>
    </g>
    <g id="xtick_24">
     <g id="line2d_47">
      <path d="M 193.474431 146.747947 
L 193.474431 12.07875 
" clip-path="url(#p75cd0324cc)" style="fill: none; stroke: #b0b0b0; stroke-width: 0.3; stroke-linecap: square"/>
     </g>
     <g id="line2d_48">
      <g>
       <use xlink:href="#ma182ba005b" x="193.474431" y="146.747947" style="stroke: #000000; stroke-width: 0.8"/>
      </g>
     </g>
    </g>
    <g id="text_6">
     <text style="font: 9.6px 'DejaVu Sans', 'Bitstream Vera Sans', 'Computer Modern Sans Serif', 'Lucida Grande', 'Verdana', 'Geneva', 'Lucid', 'Arial', 'Helvetica', 'Avant Garde', sans-serif; text-anchor: middle" x="114.8646" y="174.859197" transform="rotate(-0 114.8646 174.859197)">Wavelength (nm)</text>
    </g>
   </g>
   <g id="matplotlib.axis_2">
    <g id="ytick_1">
     <g id="line2d_49">
      <path d="M 35.58575 142.622344 
L 194.143451 142.622344 
" clip-path="url(#p75cd0324cc)" style="fill: none; stroke: #b0b0b0; stroke-width: 0.6; stroke-linecap: square"/>
     </g>
     <g id="line2d_50">
      <defs>
       <path id="md36857dde4" d="M 0 0 
L -4.8 0 
" style="stroke: #000000"/>
      </defs>
      <g>
       <use xlink:href="#md36857dde4" x="35.58575" y="142.622344" style="stroke: #000000"/>
      </g>
     </g>
     <g id="text_7">
      <text style="font: 8.8px 'DejaVu Sans', 'Bitstream Vera Sans', 'Computer Modern Sans Serif', 'Lucida Grande', 'Verdana', 'Geneva', 'Lucid', 'Arial', 'Helvetica', 'Avant Garde', sans-serif; text-anchor: end" x="27.28575" y="145.965656" transform="rotate(-0 27.28575 145.965656)">0.0</text>
     </g>
    </g>
    <g id="ytick_2">
     <g id="line2d_51">
      <path d="M 35.58575 114.779351 
L 194.143451 114.779351 
" clip-path="url(#p75cd0324cc)" style="fill: none; stroke: #b0b0b0; stroke-width: 0.6; stroke-linecap: square"/>
     </g>
     <g id="line2d_52">
      <g>
       <use xlink:href="#md36857dde4" x="35.58575" y="114.779351" style="stroke: #000000"/>
      </g>
     </g>
     <g id="text_8">
      <text style="font: 8.8px 'DejaVu Sans', 'Bitstream Vera Sans', 'Computer Modern Sans Serif', 'Lucida Grande', 'Verdana', 'Geneva', 'Lucid', 'Arial', 'Helvetica', 'Avant Garde', sans-serif; text-anchor: end" x="27.28575" y="118.122663" transform="rotate(-0 27.28575 118.122663)">0.2</text>
     </g>
    </g>
    <g id="ytick_3">
     <g id="line2d_53">
      <path d="M 35.58575 86.936357 
L 194.143451 86.936357 
" clip-path="url(#p75cd0324cc)" style="fill: none; stroke: #b0b0b0; stroke-width: 0.6; stroke-linecap: square"/>
     </g>
     <g id="line2d_54">
      <g>
       <use xlink:href="#md36857dde4" x="35.58575" y="86.936357" style="stroke: #000000"/>
      </g>
     </g>
     <g id="text_9">
      <text style="font: 8.8px 'DejaVu Sans', 'Bitstream Vera Sans', 'Computer Modern Sans Serif', 'Lucida Grande', 'Verdana', 'Geneva', 'Lucid', 'Arial', 'Helvetica', 'Avant Garde', sans-serif; text-anchor: end" x="27.28575" y="90.27967" transform="rotate(-0 27.28575 90.27967)">0.4</text>
     </g>
    </g>
    <g id="ytick_4">
     <g id="line2d_55">
      <path d="M 35.58575 59.093364 
L 194.143451 59.093364 
" clip-path="url(#p75cd0324cc)" style="fill: none; stroke: #b0b0b0; stroke-width: 0.6; stroke-linecap: square"/>
     </g>
     <g id="line2d_56">
      <g>
       <use xlink:href="#md36857dde4" x="35.58575" y="59.093364" style="stroke: #000000"/>
      </g>
     </g>
     <g id="text_10">
      <text style="font: 8.8px 'DejaVu Sans', 'Bitstream Vera Sans', 'Computer Modern Sans Serif', 'Lucida Grande', 'Verdana', 'Geneva', 'Lucid', 'Arial', 'Helvetica', 'Avant Garde', sans-serif; text-anchor: end" x="27.28575" y="62.436676" transform="rotate(-0 27.28575 62.436676)">0.6</text>
     </g>
    </g>
    <g id="ytick_5">
     <g id="line2d_57">
      <path d="M 35.58575 31.25037 
L 194.143451 31.25037 
" clip-path="url(#p75cd0324cc)" style="fill: none; stroke: #b0b0b0; stroke-width: 0.6; stroke-linecap: square"/>
     </g>
     <g id="line2d_58">
      <g>
       <use xlink:href="#md36857dde4" x="35.58575" y="31.25037" style="stroke: #000000"/>
      </g>
     </g>
     <g id="text_11">
      <text style="font: 8.8px 'DejaVu Sans', 'Bitstream Vera Sans', 'Computer Modern Sans Serif', 'Lucida Grande', 'Verdana', 'Geneva', 'Lucid', 'Arial', 'Helvetica', 'Avant Garde', sans-serif; text-anchor: end" x="27.28575" y="34.593683" transform="rotate(-0 27.28575 34.593683)">0.8</text>
     </g>
    </g>
    <g id="text_12">
     <text style="font: 9.6px 'DejaVu Sans', 'Bitstream Vera Sans', 'Computer Modern Sans Serif', 'Lucida Grande', 'Verdana', 'Geneva', 'Lucid', 'Arial', 'Helvetica', 'Avant Garde', sans-serif; text-anchor: middle" x="7.2945" y="79.413348" transform="rotate(-90 7.2945 79.413348)">Reflectance</text>
    </g>
   </g>
   <g id="line2d_59">
    <path d="M 36.25477 21.299983 
L 36.723084 21.201859 
L 37.59281 21.494186 
L 38.128025 21.343581 
L 38.395633 21.439306 
L 38.663241 21.538372 
L 39.064653 21.4515 
L 40.201987 21.58562 
L 40.603399 21.536646 
L 41.071713 21.154057 
L 41.807634 20.996132 
L 42.275948 20.784885 
L 42.744262 21.082083 
L 43.747792 21.104716 
L 44.617518 21.772753 
L 45.219636 22.684891 
L 45.955557 23.90093 
L 46.356969 24.064096 
L 47.025989 23.373339 
L 48.430931 20.129127 
L 49.099951 19.646749 
L 49.635167 19.419746 
L 50.237284 19.359575 
L 50.43799 19.291803 
L 50.973206 19.097881 
L 51.976736 18.94335 
L 52.511952 19.009757 
L 53.247874 18.982968 
L 53.44858 18.958327 
L 53.849991 18.921325 
L 54.117599 18.870151 
L 55.455639 18.256851 
L 56.325365 18.310895 
L 56.860581 18.395898 
L 57.195091 18.448412 
L 57.596503 18.478148 
L 57.931012 18.561568 
L 58.399326 18.615997 
L 58.934542 18.706099 
L 59.269052 18.920738 
L 59.469758 18.969519 
L 59.737366 19.050573 
L 60.54019 19.84073 
L 60.8747 20.33497 
L 61.20921 21.100346 
L 61.744426 22.223362 
L 63.149367 24.327657 
L 63.416975 25.277243 
L 64.152897 29.046459 
L 64.353603 29.051054 
L 65.089525 25.126864 
L 65.758545 21.709104 
L 66.159956 21.196854 
L 66.695172 21.127495 
L 67.096584 21.488563 
L 67.431094 22.415814 
L 67.765604 23.657892 
L 68.100114 23.869332 
L 68.367722 24.249108 
L 68.836036 26.723823 
L 69.036742 27.091183 
L 69.438154 26.526248 
L 70.240977 26.582159 
L 70.441683 26.322411 
L 71.043801 24.73372 
L 71.110703 24.859709 
L 71.445213 25.367148 
L 71.712821 25.381069 
L 72.248037 26.834499 
L 72.448743 27.285052 
L 73.050861 29.650375 
L 73.719881 35.117063 
L 74.121292 40.480321 
L 74.455802 51.72048 
L 74.72341 67.630861 
L 74.790312 66.79326 
L 75.124822 61.843667 
L 75.72694 47.851612 
L 75.793842 47.956665 
L 76.06145 48.376875 
L 76.663568 54.243587 
L 76.931176 56.197804 
L 77.131882 57.009957 
L 77.39949 57.106073 
L 77.734 61.489251 
L 78.202313 77.63649 
L 78.403019 79.885674 
L 78.871333 55.568579 
L 79.205843 49.193563 
L 79.674157 46.469851 
L 79.874863 45.144052 
L 80.343177 40.759032 
L 80.610785 38.949377 
L 81.079099 36.995076 
L 81.547413 36.015588 
L 81.948825 35.675293 
L 82.216432 35.222455 
L 82.550942 34.740632 
L 82.952354 34.540244 
L 83.286864 34.425808 
L 83.554472 34.318168 
L 83.82208 34.201284 
L 84.424198 34.344424 
L 85.227022 34.600659 
L 85.695336 34.826777 
L 86.029846 34.812523 
L 86.431257 34.750654 
L 86.832669 35.544957 
L 87.568591 35.340924 
L 88.772827 35.753558 
L 89.508749 35.868605 
L 90.110867 36.355385 
L 90.57918 36.627685 
L 91.382004 37.710973 
L 92.853848 39.746159 
L 93.121456 39.852186 
L 94.258789 42.629577 
L 94.794005 45.136229 
L 97.068673 60.39898 
L 97.470085 61.793998 
L 97.804595 61.838964 
L 98.540516 56.893213 
L 99.142634 50.208528 
L 99.744752 44.285456 
L 100.01236 43.041433 
L 100.34687 42.134251 
L 100.68138 41.69553 
L 101.149694 41.433949 
L 102.353929 41.893245 
L 102.755341 42.373482 
L 104.561695 44.853931 
L 107.10397 54.580795 
L 107.839892 57.4136 
L 108.44201 58.807222 
L 109.044128 59.626836 
L 109.378638 60.106851 
L 110.047658 61.428084 
L 110.582873 62.370344 
L 110.917383 62.63608 
L 111.854011 62.009643 
L 112.255423 62.617393 
L 112.723737 64.201494 
L 113.794169 68.260277 
L 113.994875 68.501955 
L 114.262483 68.589498 
L 114.663894 68.350659 
L 114.931502 68.397713 
L 115.332914 68.913587 
L 116.737856 71.742296 
L 117.273072 72.709147 
L 117.674484 72.879768 
L 118.343504 72.692857 
L 118.611111 72.65321 
L 118.945621 72.973429 
L 119.347033 73.971323 
L 119.882249 76.183949 
L 120.551269 80.499031 
L 122.090015 95.155092 
L 123.361152 101.493422 
L 123.695662 103.838715 
L 123.896368 104.543014 
L 123.96327 104.498722 
L 124.230878 104.321553 
L 124.565388 105.01203 
L 124.899898 103.654268 
L 125.234408 104.811201 
L 125.30131 104.649383 
L 125.568918 104.00211 
L 126.572447 91.630376 
L 126.639349 92.321412 
L 127.241467 98.373921 
L 127.642879 92.248408 
L 128.311899 76.249673 
L 128.780213 71.79709 
L 129.114723 70.332126 
L 129.649939 69.030806 
L 129.984449 68.623479 
L 131.188684 69.249884 
L 131.7239 69.63917 
L 132.05841 70.116465 
L 132.326018 70.411786 
L 132.794332 71.813481 
L 133.262646 73.853276 
L 133.73096 78.477391 
L 134.667587 90.339677 
L 134.935195 90.331529 
L 135.671117 84.09309 
L 136.273235 79.262223 
L 136.741549 77.919053 
L 137.076059 77.769379 
L 137.276765 77.798845 
L 137.745079 79.387801 
L 138.079589 81.407801 
L 138.481001 85.349778 
L 139.216922 95.07942 
L 139.551432 98.203768 
L 139.752138 99.160832 
L 140.086648 99.856971 
L 140.421158 100.250998 
L 140.688766 100.884219 
L 141.090178 102.892938 
L 141.959904 108.325549 
L 142.294414 108.836992 
L 143.164139 104.986325 
L 143.297943 104.775026 
L 143.364845 104.831298 
L 143.632453 105.056386 
L 144.635983 109.455085 
L 145.171199 106.961212 
L 145.505709 105.570517 
L 145.639513 105.177448 
L 146.040925 107.414557 
L 147.445866 119.256401 
L 147.646572 119.767288 
L 148.047984 117.534735 
L 148.850808 110.393993 
L 150.055044 106.230519 
L 150.25575 106.245314 
L 150.991671 107.725317 
L 151.125475 107.816456 
L 151.259279 107.539242 
L 151.393083 107.346936 
L 151.526887 107.473139 
L 151.593789 107.207108 
L 151.660691 107.245468 
L 151.794495 107.348107 
L 151.861397 107.229854 
L 152.062103 107.626001 
L 152.262809 107.430582 
L 152.396613 107.32203 
L 152.463515 107.369186 
L 152.864927 105.378086 
L 153.065633 103.278892 
L 153.132535 103.538689 
L 153.199437 103.475083 
L 153.667751 101.897254 
L 153.734653 101.85932 
L 153.935359 102.454226 
L 154.202967 101.441641 
L 154.537477 99.388899 
L 154.671281 99.5458 
L 154.805085 99.223936 
L 154.938888 99.389215 
L 156.076222 95.858435 
L 156.276928 95.550916 
L 156.410732 95.61199 
L 156.611438 96.866692 
L 157.548066 103.543289 
L 157.614968 103.733616 
L 157.748772 103.563523 
L 157.882576 104.231609 
L 158.01638 104.816408 
L 158.083282 104.703993 
L 158.484694 106.567631 
L 158.819204 107.457277 
L 158.886106 107.390073 
L 159.622027 105.615703 
L 159.688929 105.656496 
L 160.224145 108.119182 
L 160.625557 110.882419 
L 160.893165 112.823984 
L 161.227675 115.543934 
L 163.368538 129.923639 
L 163.836852 131.522772 
L 164.238264 133.649389 
L 164.840382 136.364923 
L 165.308696 137.409167 
L 168.787599 140.620834 
L 168.921403 140.475233 
L 169.122109 139.640362 
L 169.590423 137.168317 
L 169.724227 137.174648 
L 169.858031 137.356884 
L 170.259443 138.390363 
L 170.393247 138.139384 
L 170.527051 136.906169 
L 170.794659 131.534707 
L 171.062266 126.882209 
L 171.19607 126.441942 
L 171.329874 127.215983 
L 171.931992 133.5586 
L 172.333404 135.19233 
L 172.801718 136.202338 
L 174.005954 137.117444 
L 174.340464 137.10197 
L 174.674974 137.267654 
L 174.87568 137.235548 
L 175.343993 137.356902 
L 175.812307 137.417094 
L 176.079915 137.48844 
L 178.755995 137.324703 
L 179.224308 137.192169 
L 179.62572 137.142184 
L 180.027132 136.995165 
L 180.227838 136.959257 
L 180.495446 136.985378 
L 180.896858 137.042764 
L 181.432074 136.90466 
L 182.770114 136.659131 
L 185.780703 136.658321 
L 186.650429 136.386511 
L 187.653958 135.963802 
L 189.259606 135.810753 
L 190.06243 135.565655 
L 190.865254 135.433942 
L 192.738509 134.989722 
L 193.407529 134.849599 
L 193.407529 134.849599 
" clip-path="url(#p75cd0324cc)" style="fill: none; stroke: #1f77b4; stroke-width: 0.5; stroke-linecap: square"/>
   </g>
   <g id="line2d_60"/>
   <g id="patch_3">
    <path d="M 35.58575 146.747947 
L 35.58575 12.07875 
" style="fill: none; stroke: #000000; stroke-linejoin: miter; stroke-linecap: square"/>
   </g>
   <g id="patch_4">
    <path d="M 194.143451 146.747947 
L 194.143451 12.07875 
" style="fill: none; stroke: #000000; stroke-linejoin: miter; stroke-linecap: square"/>
   </g>
   <g id="patch_5">
    <path d="M 35.58575 146.747947 
L 194.143451 146.747947 
" style="fill: none; stroke: #000000; stroke-linejoin: miter; stroke-linecap: square"/>
   </g>
   <g id="patch_6">
    <path d="M 35.58575 12.07875 
L 194.143451 12.07875 
" style="fill: none; stroke: #000000; stroke-linejoin: miter; stroke-linecap: square"/>
   </g>
   <g id="text_13">
    <text style="font: 8px 'DejaVu Sans', 'Bitstream Vera Sans', 'Computer Modern Sans Serif', 'Lucida Grande', 'Verdana', 'Geneva', 'Lucid', 'Arial', 'Helvetica', 'Avant Garde', sans-serif; text-anchor: middle" x="114.8646" y="6.07875" transform="rotate(-0 114.8646 6.07875)">Laboratory Sulfates Alunite</text>
   </g>
   <g id="legend_1">
    <g id="patch_7">
     <path d="M 201.514605 84.716786 
L 271.108042 84.716786 
Q 272.308042 84.716786 272.308042 83.516786 
L 272.308042 75.309911 
Q 272.308042 74.109911 271.108042 74.109911 
L 201.514605 74.109911 
Q 200.314605 74.109911 200.314605 75.309911 
L 200.314605 83.516786 
Q 200.314605 84.716786 201.514605 84.716786 
z
" style="fill: #ffffff; opacity: 0.8; stroke: #cccccc; stroke-width: 0.8; stroke-linejoin: miter"/>
    </g>
    <g id="line2d_61">
     <path d="M 202.714605 78.968973 
L 208.714605 78.968973 
L 214.714605 78.968973 
" style="fill: none; stroke: #1f77b4; stroke-width: 1.2; stroke-linecap: square"/>
    </g>
    <g id="text_14">
     <text style="font: 6px 'DejaVu Sans', 'Bitstream Vera Sans', 'Computer Modern Sans Serif', 'Lucida Grande', 'Verdana', 'Geneva', 'Lucid', 'Arial', 'Helvetica', 'Avant Garde', sans-serif; text-anchor: start" x="219.514605" y="81.068973" transform="rotate(-0 219.514605 81.068973)">Alunite F1CC08B</text>
    </g>
   </g>
  </g>
 </g>
 <defs>
  <clipPath id="p75cd0324cc">
   <rect x="35.58575" y="12.07875" width="158.557701" height="134.669197"/>
  </clipPath>
 </defs>
</svg>
