<?xml version="1.0" encoding="utf-8" standalone="no"?>
<!DOCTYPE svg PUBLIC "-//W3C//DTD SVG 1.1//EN"
  "http://www.w3.org/Graphics/SVG/1.1/DTD/svg11.dtd">
<svg xmlns:xlink="http://www.w3.org/1999/xlink" width="272.402905pt" height="176.855697pt" viewBox="0 0 272.402905 176.855697" xmlns="http://www.w3.org/2000/svg" version="1.1">
 <metadata>
  <rdf:RDF xmlns:dc="http://purl.org/dc/elements/1.1/" xmlns:cc="http://creativecommons.org/ns#" xmlns:rdf="http://www.w3.org/1999/02/22-rdf-syntax-ns#">
   <cc:Work>
    <dc:type rdf:resource="http://purl.org/dc/dcmitype/StillImage"/>
    <dc:date>2025-02-13T12:37:04.168606</dc:date>
    <dc:format>image/svg+xml</dc:format>
    <dc:creator>
     <cc:Agent>
      <dc:title>Matplotlib v3.6.2, https://matplotlib.org/</dc:title>
     </cc:Agent>
    </dc:creator>
   </cc:Work>
  </rdf:RDF>
 </metadata>
 <defs>
  <style type="text/css">*{stroke-linejoin: round; stroke-linecap: butt}</style>
 </defs>
 <g id="figure_1">
  <g id="patch_1">
   <path d="M 0 176.855697 
L 272.402905 176.855697 
L 272.402905 0 
L 0 0 
z
" style="fill: #ffffff"/>
  </g>
  <g id="axes_1">
   <g id="patch_2">
    <path d="M 41.18475 146.747947 
L 197.582451 146.747947 
L 197.582451 12.07875 
L 41.18475 12.07875 
z
" style="fill: #ffffff"/>
   </g>
   <g id="matplotlib.axis_1">
    <g id="xtick_1">
     <g id="line2d_1">
      <path d="M 51.743245 146.747947 
L 51.743245 12.07875 
" clip-path="url(#p324c8ed5bc)" style="fill: none; stroke: #b0b0b0; stroke-width: 0.6; stroke-linecap: square"/>
     </g>
     <g id="line2d_2">
      <defs>
       <path id="m1fc241b9b3" d="M 0 0 
L 0 4.8 
" style="stroke: #000000"/>
      </defs>
      <g>
       <use xlink:href="#m1fc241b9b3" x="51.743245" y="146.747947" style="stroke: #000000"/>
      </g>
     </g>
     <g id="text_1">
      <text style="font: 8.8px 'DejaVu Sans', 'Bitstream Vera Sans', 'Computer Modern Sans Serif', 'Lucida Grande', 'Verdana', 'Geneva', 'Lucid', 'Arial', 'Helvetica', 'Avant Garde', sans-serif; text-anchor: middle" x="51.743245" y="161.734572" transform="rotate(-0 51.743245 161.734572)">1000</text>
     </g>
    </g>
    <g id="xtick_2">
     <g id="line2d_3">
      <path d="M 84.73854 146.747947 
L 84.73854 12.07875 
" clip-path="url(#p324c8ed5bc)" style="fill: none; stroke: #b0b0b0; stroke-width: 0.6; stroke-linecap: square"/>
     </g>
     <g id="line2d_4">
      <g>
       <use xlink:href="#m1fc241b9b3" x="84.73854" y="146.747947" style="stroke: #000000"/>
      </g>
     </g>
     <g id="text_2">
      <text style="font: 8.8px 'DejaVu Sans', 'Bitstream Vera Sans', 'Computer Modern Sans Serif', 'Lucida Grande', 'Verdana', 'Geneva', 'Lucid', 'Arial', 'Helvetica', 'Avant Garde', sans-serif; text-anchor: middle" x="84.73854" y="161.734572" transform="rotate(-0 84.73854 161.734572)">1500</text>
     </g>
    </g>
    <g id="xtick_3">
     <g id="line2d_5">
      <path d="M 117.733836 146.747947 
L 117.733836 12.07875 
" clip-path="url(#p324c8ed5bc)" style="fill: none; stroke: #b0b0b0; stroke-width: 0.6; stroke-linecap: square"/>
     </g>
     <g id="line2d_6">
      <g>
       <use xlink:href="#m1fc241b9b3" x="117.733836" y="146.747947" style="stroke: #000000"/>
      </g>
     </g>
     <g id="text_3">
      <text style="font: 8.8px 'DejaVu Sans', 'Bitstream Vera Sans', 'Computer Modern Sans Serif', 'Lucida Grande', 'Verdana', 'Geneva', 'Lucid', 'Arial', 'Helvetica', 'Avant Garde', sans-serif; text-anchor: middle" x="117.733836" y="161.734572" transform="rotate(-0 117.733836 161.734572)">2000</text>
     </g>
    </g>
    <g id="xtick_4">
     <g id="line2d_7">
      <path d="M 150.729131 146.747947 
L 150.729131 12.07875 
" clip-path="url(#p324c8ed5bc)" style="fill: none; stroke: #b0b0b0; stroke-width: 0.6; stroke-linecap: square"/>
     </g>
     <g id="line2d_8">
      <g>
       <use xlink:href="#m1fc241b9b3" x="150.729131" y="146.747947" style="stroke: #000000"/>
      </g>
     </g>
     <g id="text_4">
      <text style="font: 8.8px 'DejaVu Sans', 'Bitstream Vera Sans', 'Computer Modern Sans Serif', 'Lucida Grande', 'Verdana', 'Geneva', 'Lucid', 'Arial', 'Helvetica', 'Avant Garde', sans-serif; text-anchor: middle" x="150.729131" y="161.734572" transform="rotate(-0 150.729131 161.734572)">2500</text>
     </g>
    </g>
    <g id="xtick_5">
     <g id="line2d_9">
      <path d="M 183.724427 146.747947 
L 183.724427 12.07875 
" clip-path="url(#p324c8ed5bc)" style="fill: none; stroke: #b0b0b0; stroke-width: 0.6; stroke-linecap: square"/>
     </g>
     <g id="line2d_10">
      <g>
       <use xlink:href="#m1fc241b9b3" x="183.724427" y="146.747947" style="stroke: #000000"/>
      </g>
     </g>
     <g id="text_5">
      <text style="font: 8.8px 'DejaVu Sans', 'Bitstream Vera Sans', 'Computer Modern Sans Serif', 'Lucida Grande', 'Verdana', 'Geneva', 'Lucid', 'Arial', 'Helvetica', 'Avant Garde', sans-serif; text-anchor: middle" x="183.724427" y="161.734572" transform="rotate(-0 183.724427 161.734572)">3000</text>
     </g>
    </g>
    <g id="xtick_6">
     <g id="line2d_11">
      <path d="M 45.144185 146.747947 
L 45.144185 12.07875 
" clip-path="url(#p324c8ed5bc)" style="fill: none; stroke: #b0b0b0; stroke-width: 0.3; stroke-linecap: square"/>
     </g>
     <g id="line2d_12">
      <defs>
       <path id="m1bddf46a27" d="M 0 0 
L 0 3.2 
" style="stroke: #000000; stroke-width: 0.8"/>
      </defs>
      <g>
       <use xlink:href="#m1bddf46a27" x="45.144185" y="146.747947" style="stroke: #000000; stroke-width: 0.8"/>
      </g>
     </g>
    </g>
    <g id="xtick_7">
     <g id="line2d_13">
      <path d="M 58.342304 146.747947 
L 58.342304 12.07875 
" clip-path="url(#p324c8ed5bc)" style="fill: none; stroke: #b0b0b0; stroke-width: 0.3; stroke-linecap: square"/>
     </g>
     <g id="line2d_14">
      <g>
       <use xlink:href="#m1bddf46a27" x="58.342304" y="146.747947" style="stroke: #000000; stroke-width: 0.8"/>
      </g>
     </g>
    </g>
    <g id="xtick_8">
     <g id="line2d_15">
      <path d="M 64.941363 146.747947 
L 64.941363 12.07875 
" clip-path="url(#p324c8ed5bc)" style="fill: none; stroke: #b0b0b0; stroke-width: 0.3; stroke-linecap: square"/>
     </g>
     <g id="line2d_16">
      <g>
       <use xlink:href="#m1bddf46a27" x="64.941363" y="146.747947" style="stroke: #000000; stroke-width: 0.8"/>
      </g>
     </g>
    </g>
    <g id="xtick_9">
     <g id="line2d_17">
      <path d="M 71.540422 146.747947 
L 71.540422 12.07875 
" clip-path="url(#p324c8ed5bc)" style="fill: none; stroke: #b0b0b0; stroke-width: 0.3; stroke-linecap: square"/>
     </g>
     <g id="line2d_18">
      <g>
       <use xlink:href="#m1bddf46a27" x="71.540422" y="146.747947" style="stroke: #000000; stroke-width: 0.8"/>
      </g>
     </g>
    </g>
    <g id="xtick_10">
     <g id="line2d_19">
      <path d="M 78.139481 146.747947 
L 78.139481 12.07875 
" clip-path="url(#p324c8ed5bc)" style="fill: none; stroke: #b0b0b0; stroke-width: 0.3; stroke-linecap: square"/>
     </g>
     <g id="line2d_20">
      <g>
       <use xlink:href="#m1bddf46a27" x="78.139481" y="146.747947" style="stroke: #000000; stroke-width: 0.8"/>
      </g>
     </g>
    </g>
    <g id="xtick_11">
     <g id="line2d_21">
      <path d="M 91.337599 146.747947 
L 91.337599 12.07875 
" clip-path="url(#p324c8ed5bc)" style="fill: none; stroke: #b0b0b0; stroke-width: 0.3; stroke-linecap: square"/>
     </g>
     <g id="line2d_22">
      <g>
       <use xlink:href="#m1bddf46a27" x="91.337599" y="146.747947" style="stroke: #000000; stroke-width: 0.8"/>
      </g>
     </g>
    </g>
    <g id="xtick_12">
     <g id="line2d_23">
      <path d="M 97.936658 146.747947 
L 97.936658 12.07875 
" clip-path="url(#p324c8ed5bc)" style="fill: none; stroke: #b0b0b0; stroke-width: 0.3; stroke-linecap: square"/>
     </g>
     <g id="line2d_24">
      <g>
       <use xlink:href="#m1bddf46a27" x="97.936658" y="146.747947" style="stroke: #000000; stroke-width: 0.8"/>
      </g>
     </g>
    </g>
    <g id="xtick_13">
     <g id="line2d_25">
      <path d="M 104.535717 146.747947 
L 104.535717 12.07875 
" clip-path="url(#p324c8ed5bc)" style="fill: none; stroke: #b0b0b0; stroke-width: 0.3; stroke-linecap: square"/>
     </g>
     <g id="line2d_26">
      <g>
       <use xlink:href="#m1bddf46a27" x="104.535717" y="146.747947" style="stroke: #000000; stroke-width: 0.8"/>
      </g>
     </g>
    </g>
    <g id="xtick_14">
     <g id="line2d_27">
      <path d="M 111.134777 146.747947 
L 111.134777 12.07875 
" clip-path="url(#p324c8ed5bc)" style="fill: none; stroke: #b0b0b0; stroke-width: 0.3; stroke-linecap: square"/>
     </g>
     <g id="line2d_28">
      <g>
       <use xlink:href="#m1bddf46a27" x="111.134777" y="146.747947" style="stroke: #000000; stroke-width: 0.8"/>
      </g>
     </g>
    </g>
    <g id="xtick_15">
     <g id="line2d_29">
      <path d="M 124.332895 146.747947 
L 124.332895 12.07875 
" clip-path="url(#p324c8ed5bc)" style="fill: none; stroke: #b0b0b0; stroke-width: 0.3; stroke-linecap: square"/>
     </g>
     <g id="line2d_30">
      <g>
       <use xlink:href="#m1bddf46a27" x="124.332895" y="146.747947" style="stroke: #000000; stroke-width: 0.8"/>
      </g>
     </g>
    </g>
    <g id="xtick_16">
     <g id="line2d_31">
      <path d="M 130.931954 146.747947 
L 130.931954 12.07875 
" clip-path="url(#p324c8ed5bc)" style="fill: none; stroke: #b0b0b0; stroke-width: 0.3; stroke-linecap: square"/>
     </g>
     <g id="line2d_32">
      <g>
       <use xlink:href="#m1bddf46a27" x="130.931954" y="146.747947" style="stroke: #000000; stroke-width: 0.8"/>
      </g>
     </g>
    </g>
    <g id="xtick_17">
     <g id="line2d_33">
      <path d="M 137.531013 146.747947 
L 137.531013 12.07875 
" clip-path="url(#p324c8ed5bc)" style="fill: none; stroke: #b0b0b0; stroke-width: 0.3; stroke-linecap: square"/>
     </g>
     <g id="line2d_34">
      <g>
       <use xlink:href="#m1bddf46a27" x="137.531013" y="146.747947" style="stroke: #000000; stroke-width: 0.8"/>
      </g>
     </g>
    </g>
    <g id="xtick_18">
     <g id="line2d_35">
      <path d="M 144.130072 146.747947 
L 144.130072 12.07875 
" clip-path="url(#p324c8ed5bc)" style="fill: none; stroke: #b0b0b0; stroke-width: 0.3; stroke-linecap: square"/>
     </g>
     <g id="line2d_36">
      <g>
       <use xlink:href="#m1bddf46a27" x="144.130072" y="146.747947" style="stroke: #000000; stroke-width: 0.8"/>
      </g>
     </g>
    </g>
    <g id="xtick_19">
     <g id="line2d_37">
      <path d="M 157.32819 146.747947 
L 157.32819 12.07875 
" clip-path="url(#p324c8ed5bc)" style="fill: none; stroke: #b0b0b0; stroke-width: 0.3; stroke-linecap: square"/>
     </g>
     <g id="line2d_38">
      <g>
       <use xlink:href="#m1bddf46a27" x="157.32819" y="146.747947" style="stroke: #000000; stroke-width: 0.8"/>
      </g>
     </g>
    </g>
    <g id="xtick_20">
     <g id="line2d_39">
      <path d="M 163.927249 146.747947 
L 163.927249 12.07875 
" clip-path="url(#p324c8ed5bc)" style="fill: none; stroke: #b0b0b0; stroke-width: 0.3; stroke-linecap: square"/>
     </g>
     <g id="line2d_40">
      <g>
       <use xlink:href="#m1bddf46a27" x="163.927249" y="146.747947" style="stroke: #000000; stroke-width: 0.8"/>
      </g>
     </g>
    </g>
    <g id="xtick_21">
     <g id="line2d_41">
      <path d="M 170.526308 146.747947 
L 170.526308 12.07875 
" clip-path="url(#p324c8ed5bc)" style="fill: none; stroke: #b0b0b0; stroke-width: 0.3; stroke-linecap: square"/>
     </g>
     <g id="line2d_42">
      <g>
       <use xlink:href="#m1bddf46a27" x="170.526308" y="146.747947" style="stroke: #000000; stroke-width: 0.8"/>
      </g>
     </g>
    </g>
    <g id="xtick_22">
     <g id="line2d_43">
      <path d="M 177.125368 146.747947 
L 177.125368 12.07875 
" clip-path="url(#p324c8ed5bc)" style="fill: none; stroke: #b0b0b0; stroke-width: 0.3; stroke-linecap: square"/>
     </g>
     <g id="line2d_44">
      <g>
       <use xlink:href="#m1bddf46a27" x="177.125368" y="146.747947" style="stroke: #000000; stroke-width: 0.8"/>
      </g>
     </g>
    </g>
    <g id="xtick_23">
     <g id="line2d_45">
      <path d="M 190.323486 146.747947 
L 190.323486 12.07875 
" clip-path="url(#p324c8ed5bc)" style="fill: none; stroke: #b0b0b0; stroke-width: 0.3; stroke-linecap: square"/>
     </g>
     <g id="line2d_46">
      <g>
       <use xlink:href="#m1bddf46a27" x="190.323486" y="146.747947" style="stroke: #000000; stroke-width: 0.8"/>
      </g>
     </g>
    </g>
    <g id="xtick_24">
     <g id="line2d_47">
      <path d="M 196.922545 146.747947 
L 196.922545 12.07875 
" clip-path="url(#p324c8ed5bc)" style="fill: none; stroke: #b0b0b0; stroke-width: 0.3; stroke-linecap: square"/>
     </g>
     <g id="line2d_48">
      <g>
       <use xlink:href="#m1bddf46a27" x="196.922545" y="146.747947" style="stroke: #000000; stroke-width: 0.8"/>
      </g>
     </g>
    </g>
    <g id="text_6">
     <text style="font: 9.6px 'DejaVu Sans', 'Bitstream Vera Sans', 'Computer Modern Sans Serif', 'Lucida Grande', 'Verdana', 'Geneva', 'Lucid', 'Arial', 'Helvetica', 'Avant Garde', sans-serif; text-anchor: middle" x="119.3836" y="174.859197" transform="rotate(-0 119.3836 174.859197)">Wavelength (nm)</text>
    </g>
   </g>
   <g id="matplotlib.axis_2">
    <g id="ytick_1">
     <g id="line2d_49">
      <path d="M 41.18475 140.614606 
L 197.582451 140.614606 
" clip-path="url(#p324c8ed5bc)" style="fill: none; stroke: #b0b0b0; stroke-width: 0.6; stroke-linecap: square"/>
     </g>
     <g id="line2d_50">
      <defs>
       <path id="mff2c597bc7" d="M 0 0 
L -4.8 0 
" style="stroke: #000000"/>
      </defs>
      <g>
       <use xlink:href="#mff2c597bc7" x="41.18475" y="140.614606" style="stroke: #000000"/>
      </g>
     </g>
     <g id="text_7">
      <text style="font: 8.8px 'DejaVu Sans', 'Bitstream Vera Sans', 'Computer Modern Sans Serif', 'Lucida Grande', 'Verdana', 'Geneva', 'Lucid', 'Arial', 'Helvetica', 'Avant Garde', sans-serif; text-anchor: end" x="32.88475" y="143.957919" transform="rotate(-0 32.88475 143.957919)">0.60</text>
     </g>
    </g>
    <g id="ytick_2">
     <g id="line2d_51">
      <path d="M 41.18475 120.308369 
L 197.582451 120.308369 
" clip-path="url(#p324c8ed5bc)" style="fill: none; stroke: #b0b0b0; stroke-width: 0.6; stroke-linecap: square"/>
     </g>
     <g id="line2d_52">
      <g>
       <use xlink:href="#mff2c597bc7" x="41.18475" y="120.308369" style="stroke: #000000"/>
      </g>
     </g>
     <g id="text_8">
      <text style="font: 8.8px 'DejaVu Sans', 'Bitstream Vera Sans', 'Computer Modern Sans Serif', 'Lucida Grande', 'Verdana', 'Geneva', 'Lucid', 'Arial', 'Helvetica', 'Avant Garde', sans-serif; text-anchor: end" x="32.88475" y="123.651682" transform="rotate(-0 32.88475 123.651682)">0.65</text>
     </g>
    </g>
    <g id="ytick_3">
     <g id="line2d_53">
      <path d="M 41.18475 100.002132 
L 197.582451 100.002132 
" clip-path="url(#p324c8ed5bc)" style="fill: none; stroke: #b0b0b0; stroke-width: 0.6; stroke-linecap: square"/>
     </g>
     <g id="line2d_54">
      <g>
       <use xlink:href="#mff2c597bc7" x="41.18475" y="100.002132" style="stroke: #000000"/>
      </g>
     </g>
     <g id="text_9">
      <text style="font: 8.8px 'DejaVu Sans', 'Bitstream Vera Sans', 'Computer Modern Sans Serif', 'Lucida Grande', 'Verdana', 'Geneva', 'Lucid', 'Arial', 'Helvetica', 'Avant Garde', sans-serif; text-anchor: end" x="32.88475" y="103.345445" transform="rotate(-0 32.88475 103.345445)">0.70</text>
     </g>
    </g>
    <g id="ytick_4">
     <g id="line2d_55">
      <path d="M 41.18475 79.695896 
L 197.582451 79.695896 
" clip-path="url(#p324c8ed5bc)" style="fill: none; stroke: #b0b0b0; stroke-width: 0.6; stroke-linecap: square"/>
     </g>
     <g id="line2d_56">
      <g>
       <use xlink:href="#mff2c597bc7" x="41.18475" y="79.695896" style="stroke: #000000"/>
      </g>
     </g>
     <g id="text_10">
      <text style="font: 8.8px 'DejaVu Sans', 'Bitstream Vera Sans', 'Computer Modern Sans Serif', 'Lucida Grande', 'Verdana', 'Geneva', 'Lucid', 'Arial', 'Helvetica', 'Avant Garde', sans-serif; text-anchor: end" x="32.88475" y="83.039208" transform="rotate(-0 32.88475 83.039208)">0.75</text>
     </g>
    </g>
    <g id="ytick_5">
     <g id="line2d_57">
      <path d="M 41.18475 59.389659 
L 197.582451 59.389659 
" clip-path="url(#p324c8ed5bc)" style="fill: none; stroke: #b0b0b0; stroke-width: 0.6; stroke-linecap: square"/>
     </g>
     <g id="line2d_58">
      <g>
       <use xlink:href="#mff2c597bc7" x="41.18475" y="59.389659" style="stroke: #000000"/>
      </g>
     </g>
     <g id="text_11">
      <text style="font: 8.8px 'DejaVu Sans', 'Bitstream Vera Sans', 'Computer Modern Sans Serif', 'Lucida Grande', 'Verdana', 'Geneva', 'Lucid', 'Arial', 'Helvetica', 'Avant Garde', sans-serif; text-anchor: end" x="32.88475" y="62.732971" transform="rotate(-0 32.88475 62.732971)">0.80</text>
     </g>
    </g>
    <g id="ytick_6">
     <g id="line2d_59">
      <path d="M 41.18475 39.083422 
L 197.582451 39.083422 
" clip-path="url(#p324c8ed5bc)" style="fill: none; stroke: #b0b0b0; stroke-width: 0.6; stroke-linecap: square"/>
     </g>
     <g id="line2d_60">
      <g>
       <use xlink:href="#mff2c597bc7" x="41.18475" y="39.083422" style="stroke: #000000"/>
      </g>
     </g>
     <g id="text_12">
      <text style="font: 8.8px 'DejaVu Sans', 'Bitstream Vera Sans', 'Computer Modern Sans Serif', 'Lucida Grande', 'Verdana', 'Geneva', 'Lucid', 'Arial', 'Helvetica', 'Avant Garde', sans-serif; text-anchor: end" x="32.88475" y="42.426734" transform="rotate(-0 32.88475 42.426734)">0.85</text>
     </g>
    </g>
    <g id="ytick_7">
     <g id="line2d_61">
      <path d="M 41.18475 18.777185 
L 197.582451 18.777185 
" clip-path="url(#p324c8ed5bc)" style="fill: none; stroke: #b0b0b0; stroke-width: 0.6; stroke-linecap: square"/>
     </g>
     <g id="line2d_62">
      <g>
       <use xlink:href="#mff2c597bc7" x="41.18475" y="18.777185" style="stroke: #000000"/>
      </g>
     </g>
     <g id="text_13">
      <text style="font: 8.8px 'DejaVu Sans', 'Bitstream Vera Sans', 'Computer Modern Sans Serif', 'Lucida Grande', 'Verdana', 'Geneva', 'Lucid', 'Arial', 'Helvetica', 'Avant Garde', sans-serif; text-anchor: end" x="32.88475" y="22.120497" transform="rotate(-0 32.88475 22.120497)">0.90</text>
     </g>
    </g>
    <g id="text_14">
     <text style="font: 9.6px 'DejaVu Sans', 'Bitstream Vera Sans', 'Computer Modern Sans Serif', 'Lucida Grande', 'Verdana', 'Geneva', 'Lucid', 'Arial', 'Helvetica', 'Avant Garde', sans-serif; text-anchor: middle" x="7.2945" y="79.413348" transform="rotate(-90 7.2945 79.413348)">Reflectance</text>
    </g>
   </g>
   <g id="line2d_63">
    <path d="M 41.844656 25.381181 
L 42.174609 24.846717 
L 42.240599 24.930705 
L 42.702534 25.348778 
L 42.834515 25.403524 
L 43.296449 24.758022 
L 43.494421 24.734639 
L 43.824374 25.330831 
L 43.890364 25.261139 
L 44.220317 25.005112 
L 44.616261 25.024923 
L 45.012204 24.920393 
L 45.144185 24.921855 
L 45.474138 25.505871 
L 45.540129 25.451856 
L 45.870082 25.25821 
L 46.463997 25.570842 
L 46.79395 24.454008 
L 46.859941 24.590787 
L 47.123903 25.137902 
L 47.189894 25.06805 
L 47.519847 24.848832 
L 47.8498 25.041984 
L 48.179753 24.878955 
L 48.773668 25.027445 
L 49.169612 24.961893 
L 49.433574 24.607117 
L 49.763527 25.360049 
L 50.15947 24.679471 
L 50.489423 24.743067 
L 50.819376 24.972689 
L 51.21532 24.810406 
L 51.479282 24.766548 
L 51.743245 24.5336 
L 52.271169 25.665138 
L 52.40315 26.036656 
L 52.469141 25.973709 
L 52.931075 25.669282 
L 53.129047 25.527788 
L 53.459 25.103959 
L 53.986925 25.207603 
L 54.118906 25.160656 
L 54.382868 24.87637 
L 54.712821 25.82792 
L 54.778812 25.746372 
L 55.372727 25.151724 
L 55.70268 26.279524 
L 56.032633 24.938921 
L 56.362586 26.212931 
L 56.428577 26.064451 
L 57.022492 24.541709 
L 57.154473 24.69279 
L 57.352445 24.91941 
L 57.418435 24.840544 
L 57.682398 24.525079 
L 57.748388 24.614751 
L 58.144332 24.977497 
L 58.408294 25.081538 
L 58.672257 25.473361 
L 59.00221 24.4077 
L 59.332163 25.552155 
L 59.398153 25.493676 
L 59.794097 25.040125 
L 59.992068 24.710674 
L 60.058059 24.772648 
L 60.322021 25.020547 
L 60.388012 24.948337 
L 60.651974 24.6595 
L 60.717965 24.742022 
L 60.981927 25.072107 
L 61.31188 24.21356 
L 61.377871 24.251657 
L 61.905796 24.451161 
L 61.971786 24.46294 
L 62.301739 25.690231 
L 62.36773 25.512998 
L 62.829664 24.590617 
L 63.027636 24.273279 
L 63.291598 23.573118 
L 63.753532 24.686714 
L 63.951504 24.907234 
L 64.413438 24.150622 
L 64.809382 24.107486 
L 64.941363 24.126658 
L 65.271316 23.097137 
L 65.667259 24.268239 
L 65.931222 24.278967 
L 66.261175 23.60357 
L 66.327165 23.675048 
L 66.657118 23.916125 
L 66.987071 23.81646 
L 67.251033 24.135178 
L 67.712968 23.300112 
L 67.97693 23.309868 
L 68.240892 23.590571 
L 68.306883 23.499112 
L 68.768817 23.019481 
L 68.966789 23.023219 
L 69.296742 23.319207 
L 69.692685 23.284436 
L 70.088629 23.557838 
L 70.286601 23.627772 
L 70.682544 23.181203 
L 70.880516 22.855891 
L 70.946507 22.960349 
L 71.210469 23.37818 
L 71.540422 22.093591 
L 71.936365 23.489614 
L 72.200328 23.45615 
L 72.596271 22.847283 
L 72.992215 22.854109 
L 73.454149 22.778569 
L 73.58613 22.867835 
L 73.850093 23.221004 
L 73.916083 23.159678 
L 74.180046 22.914375 
L 74.246036 22.993164 
L 74.70797 23.401157 
L 74.839951 23.463049 
L 75.367876 25.067004 
L 75.631839 25.387678 
L 75.82981 25.474184 
L 76.159763 24.184318 
L 76.225754 24.227692 
L 76.555707 24.37138 
L 76.95165 24.309497 
L 77.215613 24.303736 
L 77.479575 23.936585 
L 77.809528 24.963273 
L 77.875519 24.809515 
L 78.403443 23.85952 
L 78.667406 23.693659 
L 78.799387 23.638912 
L 79.12934 24.56933 
L 79.591274 23.305399 
L 80.119199 22.716992 
L 80.581133 22.823241 
L 80.845095 22.922654 
L 81.241039 22.761997 
L 81.768963 22.772643 
L 82.098916 22.4985 
L 82.428869 23.071962 
L 82.49486 22.964827 
L 82.956794 22.03991 
L 83.088775 21.708991 
L 83.154766 21.77389 
L 84.012644 22.484939 
L 84.078634 22.513121 
L 84.408587 21.458425 
L 84.474578 21.545415 
L 84.73854 21.893375 
L 84.804531 21.816296 
L 85.200474 21.502613 
L 85.464437 21.551506 
L 85.79439 21.74247 
L 86.454295 21.422352 
L 86.784248 21.670009 
L 87.114201 21.411968 
L 87.378164 20.919095 
L 87.444154 21.007465 
L 87.840098 21.369068 
L 88.170051 21.314491 
L 88.500004 21.267631 
L 88.697976 21.347558 
L 89.027929 20.675017 
L 89.093919 20.77687 
L 89.423872 21.164868 
L 89.951797 21.113859 
L 90.083778 21.202558 
L 90.34774 21.530707 
L 90.677693 20.891064 
L 90.743684 20.959211 
L 91.007646 21.2318 
L 91.337599 19.367286 
L 91.40359 19.539809 
L 91.733543 20.221045 
L 92.063496 20.250931 
L 92.59142 20.640159 
L 92.657411 20.672161 
L 92.987364 19.936682 
L 93.317317 20.902029 
L 93.911232 19.692598 
L 94.307176 19.150417 
L 94.637129 20.035349 
L 94.967082 19.06148 
L 95.297035 20.241253 
L 95.363025 20.220542 
L 95.956941 19.921238 
L 96.484865 19.51186 
L 96.682837 19.513646 
L 97.144771 19.755377 
L 97.606705 19.88713 
L 97.936658 18.200077 
L 98.266611 19.58861 
L 98.332602 19.462308 
L 98.596564 18.9571 
L 98.662555 19.021026 
L 99.058498 19.25317 
L 99.322461 19.287607 
L 99.784395 19.620544 
L 100.642273 19.956081 
L 100.972225 20.04479 
L 101.236188 19.777061 
L 101.632131 20.809845 
L 102.028075 21.056755 
L 102.292037 21.242848 
L 102.819962 20.694746 
L 102.885953 20.610433 
L 102.951943 20.696774 
L 103.347887 21.073492 
L 103.875811 21.300427 
L 104.271755 22.118626 
L 104.601708 22.193028 
L 104.86567 22.460737 
L 105.327605 21.87949 
L 105.657557 21.950572 
L 105.855529 22.08386 
L 106.185482 21.498222 
L 106.647416 22.533605 
L 106.845388 22.680052 
L 107.307322 23.836852 
L 107.637275 24.03455 
L 107.901238 24.138204 
L 108.363172 24.526445 
L 108.495153 24.572573 
L 109.353031 26.956703 
L 109.814965 28.456356 
L 110.276899 26.358967 
L 110.474871 25.966408 
L 110.540861 26.082233 
L 110.804824 26.545534 
L 111.200767 25.948374 
L 111.926664 26.194403 
L 112.322607 26.609866 
L 112.520579 26.653405 
L 112.982513 26.512961 
L 113.444447 26.521569 
L 113.840391 27.511303 
L 114.104353 27.589288 
L 114.566287 28.563738 
L 115.028221 28.777921 
L 115.292184 28.748926 
L 115.424165 28.717089 
L 115.820108 29.351533 
L 116.348033 29.244325 
L 116.414024 29.244654 
L 117.337892 31.035976 
L 117.403883 31.166829 
L 117.469873 31.092267 
L 117.799826 30.609557 
L 118.459732 29.025586 
L 118.987657 28.310475 
L 119.3836 28.01976 
L 119.779544 28.155822 
L 120.175487 27.565638 
L 120.373459 27.138483 
L 120.703412 28.139173 
L 121.033365 27.209143 
L 121.363318 28.546914 
L 121.429309 28.482669 
L 121.693271 28.225688 
L 122.023224 28.682158 
L 122.089215 28.596059 
L 122.419168 28.277898 
L 122.749121 28.319403 
L 123.013083 28.065656 
L 123.343036 29.15124 
L 123.409026 29.063514 
L 123.738979 28.724714 
L 124.200914 28.922015 
L 124.398885 29.166829 
L 124.794829 29.786739 
L 124.992801 29.843267 
L 125.322754 29.278762 
L 125.718697 30.329642 
L 126.378603 30.541971 
L 126.840537 32.018307 
L 127.17049 32.973024 
L 127.434453 33.363723 
L 128.29233 33.971128 
L 128.622283 32.998857 
L 128.688274 33.044424 
L 128.952236 33.226693 
L 129.34818 32.285944 
L 130.074076 32.45165 
L 130.272048 32.653666 
L 130.667991 32.137788 
L 131.195916 32.272959 
L 131.261907 32.275966 
L 131.59186 33.283966 
L 131.65785 33.198356 
L 131.987803 32.884828 
L 132.251766 33.000479 
L 133.637568 36.633105 
L 134.429455 39.042236 
L 134.759408 40.208061 
L 134.891389 40.551973 
L 135.353323 43.727122 
L 135.617286 44.815698 
L 137.069079 54.921066 
L 137.860966 58.624933 
L 138.190919 59.062328 
L 139.048797 65.889033 
L 139.906674 74.712504 
L 140.170637 75.237852 
L 140.56658 71.975384 
L 140.962524 65.242161 
L 141.820401 47.612043 
L 142.348326 42.255985 
L 142.81026 39.587013 
L 143.470166 38.079478 
L 143.602147 38.191246 
L 144.064081 38.704922 
L 144.130072 38.791428 
L 144.196063 38.721088 
L 144.460025 38.439726 
L 144.98795 39.180322 
L 145.119931 39.281207 
L 146.505733 45.656143 
L 147.957526 56.691778 
L 148.551442 63.776209 
L 149.541301 76.558979 
L 150.003235 79.983992 
L 150.795122 84.167901 
L 151.125075 85.12408 
L 151.521018 87.436063 
L 151.850971 90.809167 
L 152.312905 98.538219 
L 152.84083 106.856164 
L 153.038802 108.15966 
L 153.368755 105.414974 
L 154.028661 84.611972 
L 154.622576 66.112548 
L 155.282482 53.075462 
L 155.810407 49.778701 
L 156.14036 47.943308 
L 156.536303 45.717287 
L 156.668284 44.989395 
L 157.064228 40.061526 
L 157.130218 40.070222 
L 157.32819 40.059295 
L 157.856115 38.191736 
L 157.922106 38.069399 
L 157.988096 38.115074 
L 158.318049 40.13785 
L 158.45003 38.514237 
L 158.648002 35.858888 
L 158.713993 36.190694 
L 158.977955 39.686908 
L 159.043946 39.391529 
L 159.373899 37.748637 
L 160.165786 37.737395 
L 160.891682 38.466429 
L 161.485597 39.773166 
L 161.617579 40.163418 
L 162.145503 41.959466 
L 162.475456 42.990884 
L 162.93739 45.612288 
L 163.201353 48.291065 
L 163.729278 57.100848 
L 164.455174 67.810879 
L 165.643005 79.56386 
L 165.840976 80.01471 
L 166.170929 82.022976 
L 166.698854 85.793444 
L 167.028807 86.867288 
L 167.160788 87.139343 
L 167.556732 89.567493 
L 168.744562 100.725439 
L 169.338478 110.782312 
L 169.800412 117.50213 
L 169.866403 118.041832 
L 169.932393 117.924814 
L 170.064374 117.421824 
L 170.460318 111.97975 
L 170.856261 108.151311 
L 171.384186 105.395985 
L 172.110083 102.843091 
L 172.374045 102.836626 
L 172.506026 102.880423 
L 173.099942 102.415024 
L 173.759847 103.08326 
L 174.287772 104.184876 
L 174.551735 104.550327 
L 175.937537 107.882758 
L 176.399471 108.904154 
L 176.927396 110.043935 
L 177.587302 111.559846 
L 178.445179 113.180112 
L 179.171076 114.199919 
L 179.830982 115.229743 
L 180.094944 115.602637 
L 180.424897 116.028378 
L 180.75485 116.59704 
L 180.886831 116.604764 
L 181.084803 116.59909 
L 181.678718 117.158631 
L 182.074662 117.540849 
L 182.668577 117.777339 
L 183.328483 118.466536 
L 183.526455 118.500297 
L 184.05438 119.151767 
L 185.17622 120.505026 
L 186.430041 122.614414 
L 188.937683 128.714229 
L 189.333627 130.428001 
L 189.993533 134.843469 
L 190.917401 140.257704 
L 191.115373 140.62662 
L 191.247354 140.504883 
L 191.445326 139.90189 
L 191.90726 137.143112 
L 192.171222 136.04638 
L 192.369194 135.90212 
L 192.501175 136.00027 
L 192.699147 136.445443 
L 193.886978 139.861826 
L 194.018959 139.724792 
L 194.15094 139.332596 
L 194.414902 137.749473 
L 195.27278 131.877571 
L 195.668724 130.832514 
L 195.932686 130.545329 
L 196.460611 130.527261 
L 196.724573 130.701969 
L 196.856554 130.818885 
L 196.856554 130.818885 
" clip-path="url(#p324c8ed5bc)" style="fill: none; stroke: #1f77b4; stroke-width: 0.5; stroke-linecap: square"/>
   </g>
   <g id="line2d_64"/>
   <g id="patch_3">
    <path d="M 41.18475 146.747947 
L 41.18475 12.07875 
" style="fill: none; stroke: #000000; stroke-linejoin: miter; stroke-linecap: square"/>
   </g>
   <g id="patch_4">
    <path d="M 197.582451 146.747947 
L 197.582451 12.07875 
" style="fill: none; stroke: #000000; stroke-linejoin: miter; stroke-linecap: square"/>
   </g>
   <g id="patch_5">
    <path d="M 41.18475 146.747947 
L 197.582451 146.747947 
" style="fill: none; stroke: #000000; stroke-linejoin: miter; stroke-linecap: square"/>
   </g>
   <g id="patch_6">
    <path d="M 41.18475 12.07875 
L 197.582451 12.07875 
" style="fill: none; stroke: #000000; stroke-linejoin: miter; stroke-linecap: square"/>
   </g>
   <g id="text_15">
    <text style="font: 8px 'DejaVu Sans', 'Bitstream Vera Sans', 'Computer Modern Sans Serif', 'Lucida Grande', 'Verdana', 'Geneva', 'Lucid', 'Arial', 'Helvetica', 'Avant Garde', sans-serif; text-anchor: middle" x="119.3836" y="6.07875" transform="rotate(-0 119.3836 6.07875)">Laboratory Carbonates Calcite</text>
   </g>
   <g id="legend_1">
    <g id="patch_7">
     <path d="M 204.910405 84.716786 
L 271.202905 84.716786 
Q 272.402905 84.716786 272.402905 83.516786 
L 272.402905 75.309911 
Q 272.402905 74.109911 271.202905 74.109911 
L 204.910405 74.109911 
Q 203.710405 74.109911 203.710405 75.309911 
L 203.710405 83.516786 
Q 203.710405 84.716786 204.910405 84.716786 
z
" style="fill: #ffffff; opacity: 0.8; stroke: #cccccc; stroke-width: 0.8; stroke-linejoin: miter"/>
    </g>
    <g id="line2d_65">
     <path d="M 206.110405 78.968973 
L 212.110405 78.968973 
L 218.110405 78.968973 
" style="fill: none; stroke: #1f77b4; stroke-width: 1.2; stroke-linecap: square"/>
    </g>
    <g id="text_16">
     <text style="font: 6px 'DejaVu Sans', 'Bitstream Vera Sans', 'Computer Modern Sans Serif', 'Lucida Grande', 'Verdana', 'Geneva', 'Lucid', 'Arial', 'Helvetica', 'Avant Garde', sans-serif; text-anchor: start" x="222.910405" y="81.068973" transform="rotate(-0 222.910405 81.068973)">Calcite CAGR01</text>
    </g>
   </g>
  </g>
 </g>
 <defs>
  <clipPath id="p324c8ed5bc">
   <rect x="41.18475" y="12.07875" width="156.397701" height="134.669197"/>
  </clipPath>
 </defs>
</svg>
