<?xml version="1.0" encoding="utf-8" standalone="no"?>
<!DOCTYPE svg PUBLIC "-//W3C//DTD SVG 1.1//EN"
  "http://www.w3.org/Graphics/SVG/1.1/DTD/svg11.dtd">
<svg xmlns:xlink="http://www.w3.org/1999/xlink" width="272.309567pt" height="176.645947pt" viewBox="0 0 272.309567 176.645947" xmlns="http://www.w3.org/2000/svg" version="1.1">
 <metadata>
  <rdf:RDF xmlns:dc="http://purl.org/dc/elements/1.1/" xmlns:cc="http://creativecommons.org/ns#" xmlns:rdf="http://www.w3.org/1999/02/22-rdf-syntax-ns#">
   <cc:Work>
    <dc:type rdf:resource="http://purl.org/dc/dcmitype/StillImage"/>
    <dc:date>2025-02-13T12:36:58.864011</dc:date>
    <dc:format>image/svg+xml</dc:format>
    <dc:creator>
     <cc:Agent>
      <dc:title>Matplotlib v3.6.2, https://matplotlib.org/</dc:title>
     </cc:Agent>
    </dc:creator>
   </cc:Work>
  </rdf:RDF>
 </metadata>
 <defs>
  <style type="text/css">*{stroke-linejoin: round; stroke-linecap: butt}</style>
 </defs>
 <g id="figure_1">
  <g id="patch_1">
   <path d="M 0 176.645947 
L 272.309567 176.645947 
L 272.309567 0 
L 0 0 
z
" style="fill: #ffffff"/>
  </g>
  <g id="axes_1">
   <g id="patch_2">
    <path d="M 41.18475 146.538197 
L 195.962451 146.538197 
L 195.962451 21.037 
L 41.18475 21.037 
z
" style="fill: #ffffff"/>
   </g>
   <g id="matplotlib.axis_1">
    <g id="xtick_1">
     <g id="line2d_1">
      <path d="M 51.633877 146.538197 
L 51.633877 21.037 
" clip-path="url(#p87a068e4ce)" style="fill: none; stroke: #b0b0b0; stroke-width: 0.6; stroke-linecap: square"/>
     </g>
     <g id="line2d_2">
      <defs>
       <path id="me4f1367994" d="M 0 0 
L 0 4.8 
" style="stroke: #000000"/>
      </defs>
      <g>
       <use xlink:href="#me4f1367994" x="51.633877" y="146.538197" style="stroke: #000000"/>
      </g>
     </g>
     <g id="text_1">
      <text style="font: 8.8px 'DejaVu Sans', 'Bitstream Vera Sans', 'Computer Modern Sans Serif', 'Lucida Grande', 'Verdana', 'Geneva', 'Lucid', 'Arial', 'Helvetica', 'Avant Garde', sans-serif; text-anchor: middle" x="51.633877" y="161.524822" transform="rotate(-0 51.633877 161.524822)">1000</text>
     </g>
    </g>
    <g id="xtick_2">
     <g id="line2d_3">
      <path d="M 84.287401 146.538197 
L 84.287401 21.037 
" clip-path="url(#p87a068e4ce)" style="fill: none; stroke: #b0b0b0; stroke-width: 0.6; stroke-linecap: square"/>
     </g>
     <g id="line2d_4">
      <g>
       <use xlink:href="#me4f1367994" x="84.287401" y="146.538197" style="stroke: #000000"/>
      </g>
     </g>
     <g id="text_2">
      <text style="font: 8.8px 'DejaVu Sans', 'Bitstream Vera Sans', 'Computer Modern Sans Serif', 'Lucida Grande', 'Verdana', 'Geneva', 'Lucid', 'Arial', 'Helvetica', 'Avant Garde', sans-serif; text-anchor: middle" x="84.287401" y="161.524822" transform="rotate(-0 84.287401 161.524822)">1500</text>
     </g>
    </g>
    <g id="xtick_3">
     <g id="line2d_5">
      <path d="M 116.940924 146.538197 
L 116.940924 21.037 
" clip-path="url(#p87a068e4ce)" style="fill: none; stroke: #b0b0b0; stroke-width: 0.6; stroke-linecap: square"/>
     </g>
     <g id="line2d_6">
      <g>
       <use xlink:href="#me4f1367994" x="116.940924" y="146.538197" style="stroke: #000000"/>
      </g>
     </g>
     <g id="text_3">
      <text style="font: 8.8px 'DejaVu Sans', 'Bitstream Vera Sans', 'Computer Modern Sans Serif', 'Lucida Grande', 'Verdana', 'Geneva', 'Lucid', 'Arial', 'Helvetica', 'Avant Garde', sans-serif; text-anchor: middle" x="116.940924" y="161.524822" transform="rotate(-0 116.940924 161.524822)">2000</text>
     </g>
    </g>
    <g id="xtick_4">
     <g id="line2d_7">
      <path d="M 149.594448 146.538197 
L 149.594448 21.037 
" clip-path="url(#p87a068e4ce)" style="fill: none; stroke: #b0b0b0; stroke-width: 0.6; stroke-linecap: square"/>
     </g>
     <g id="line2d_8">
      <g>
       <use xlink:href="#me4f1367994" x="149.594448" y="146.538197" style="stroke: #000000"/>
      </g>
     </g>
     <g id="text_4">
      <text style="font: 8.8px 'DejaVu Sans', 'Bitstream Vera Sans', 'Computer Modern Sans Serif', 'Lucida Grande', 'Verdana', 'Geneva', 'Lucid', 'Arial', 'Helvetica', 'Avant Garde', sans-serif; text-anchor: middle" x="149.594448" y="161.524822" transform="rotate(-0 149.594448 161.524822)">2500</text>
     </g>
    </g>
    <g id="xtick_5">
     <g id="line2d_9">
      <path d="M 182.247971 146.538197 
L 182.247971 21.037 
" clip-path="url(#p87a068e4ce)" style="fill: none; stroke: #b0b0b0; stroke-width: 0.6; stroke-linecap: square"/>
     </g>
     <g id="line2d_10">
      <g>
       <use xlink:href="#me4f1367994" x="182.247971" y="146.538197" style="stroke: #000000"/>
      </g>
     </g>
     <g id="text_5">
      <text style="font: 8.8px 'DejaVu Sans', 'Bitstream Vera Sans', 'Computer Modern Sans Serif', 'Lucida Grande', 'Verdana', 'Geneva', 'Lucid', 'Arial', 'Helvetica', 'Avant Garde', sans-serif; text-anchor: middle" x="182.247971" y="161.524822" transform="rotate(-0 182.247971 161.524822)">3000</text>
     </g>
    </g>
    <g id="xtick_6">
     <g id="line2d_11">
      <path d="M 45.103173 146.538197 
L 45.103173 21.037 
" clip-path="url(#p87a068e4ce)" style="fill: none; stroke: #b0b0b0; stroke-width: 0.3; stroke-linecap: square"/>
     </g>
     <g id="line2d_12">
      <defs>
       <path id="m1e13ca3d52" d="M 0 0 
L 0 3.2 
" style="stroke: #000000; stroke-width: 0.8"/>
      </defs>
      <g>
       <use xlink:href="#m1e13ca3d52" x="45.103173" y="146.538197" style="stroke: #000000; stroke-width: 0.8"/>
      </g>
     </g>
    </g>
    <g id="xtick_7">
     <g id="line2d_13">
      <path d="M 58.164582 146.538197 
L 58.164582 21.037 
" clip-path="url(#p87a068e4ce)" style="fill: none; stroke: #b0b0b0; stroke-width: 0.3; stroke-linecap: square"/>
     </g>
     <g id="line2d_14">
      <g>
       <use xlink:href="#m1e13ca3d52" x="58.164582" y="146.538197" style="stroke: #000000; stroke-width: 0.8"/>
      </g>
     </g>
    </g>
    <g id="xtick_8">
     <g id="line2d_15">
      <path d="M 64.695287 146.538197 
L 64.695287 21.037 
" clip-path="url(#p87a068e4ce)" style="fill: none; stroke: #b0b0b0; stroke-width: 0.3; stroke-linecap: square"/>
     </g>
     <g id="line2d_16">
      <g>
       <use xlink:href="#m1e13ca3d52" x="64.695287" y="146.538197" style="stroke: #000000; stroke-width: 0.8"/>
      </g>
     </g>
    </g>
    <g id="xtick_9">
     <g id="line2d_17">
      <path d="M 71.225992 146.538197 
L 71.225992 21.037 
" clip-path="url(#p87a068e4ce)" style="fill: none; stroke: #b0b0b0; stroke-width: 0.3; stroke-linecap: square"/>
     </g>
     <g id="line2d_18">
      <g>
       <use xlink:href="#m1e13ca3d52" x="71.225992" y="146.538197" style="stroke: #000000; stroke-width: 0.8"/>
      </g>
     </g>
    </g>
    <g id="xtick_10">
     <g id="line2d_19">
      <path d="M 77.756696 146.538197 
L 77.756696 21.037 
" clip-path="url(#p87a068e4ce)" style="fill: none; stroke: #b0b0b0; stroke-width: 0.3; stroke-linecap: square"/>
     </g>
     <g id="line2d_20">
      <g>
       <use xlink:href="#m1e13ca3d52" x="77.756696" y="146.538197" style="stroke: #000000; stroke-width: 0.8"/>
      </g>
     </g>
    </g>
    <g id="xtick_11">
     <g id="line2d_21">
      <path d="M 90.818106 146.538197 
L 90.818106 21.037 
" clip-path="url(#p87a068e4ce)" style="fill: none; stroke: #b0b0b0; stroke-width: 0.3; stroke-linecap: square"/>
     </g>
     <g id="line2d_22">
      <g>
       <use xlink:href="#m1e13ca3d52" x="90.818106" y="146.538197" style="stroke: #000000; stroke-width: 0.8"/>
      </g>
     </g>
    </g>
    <g id="xtick_12">
     <g id="line2d_23">
      <path d="M 97.34881 146.538197 
L 97.34881 21.037 
" clip-path="url(#p87a068e4ce)" style="fill: none; stroke: #b0b0b0; stroke-width: 0.3; stroke-linecap: square"/>
     </g>
     <g id="line2d_24">
      <g>
       <use xlink:href="#m1e13ca3d52" x="97.34881" y="146.538197" style="stroke: #000000; stroke-width: 0.8"/>
      </g>
     </g>
    </g>
    <g id="xtick_13">
     <g id="line2d_25">
      <path d="M 103.879515 146.538197 
L 103.879515 21.037 
" clip-path="url(#p87a068e4ce)" style="fill: none; stroke: #b0b0b0; stroke-width: 0.3; stroke-linecap: square"/>
     </g>
     <g id="line2d_26">
      <g>
       <use xlink:href="#m1e13ca3d52" x="103.879515" y="146.538197" style="stroke: #000000; stroke-width: 0.8"/>
      </g>
     </g>
    </g>
    <g id="xtick_14">
     <g id="line2d_27">
      <path d="M 110.41022 146.538197 
L 110.41022 21.037 
" clip-path="url(#p87a068e4ce)" style="fill: none; stroke: #b0b0b0; stroke-width: 0.3; stroke-linecap: square"/>
     </g>
     <g id="line2d_28">
      <g>
       <use xlink:href="#m1e13ca3d52" x="110.41022" y="146.538197" style="stroke: #000000; stroke-width: 0.8"/>
      </g>
     </g>
    </g>
    <g id="xtick_15">
     <g id="line2d_29">
      <path d="M 123.471629 146.538197 
L 123.471629 21.037 
" clip-path="url(#p87a068e4ce)" style="fill: none; stroke: #b0b0b0; stroke-width: 0.3; stroke-linecap: square"/>
     </g>
     <g id="line2d_30">
      <g>
       <use xlink:href="#m1e13ca3d52" x="123.471629" y="146.538197" style="stroke: #000000; stroke-width: 0.8"/>
      </g>
     </g>
    </g>
    <g id="xtick_16">
     <g id="line2d_31">
      <path d="M 130.002334 146.538197 
L 130.002334 21.037 
" clip-path="url(#p87a068e4ce)" style="fill: none; stroke: #b0b0b0; stroke-width: 0.3; stroke-linecap: square"/>
     </g>
     <g id="line2d_32">
      <g>
       <use xlink:href="#m1e13ca3d52" x="130.002334" y="146.538197" style="stroke: #000000; stroke-width: 0.8"/>
      </g>
     </g>
    </g>
    <g id="xtick_17">
     <g id="line2d_33">
      <path d="M 136.533038 146.538197 
L 136.533038 21.037 
" clip-path="url(#p87a068e4ce)" style="fill: none; stroke: #b0b0b0; stroke-width: 0.3; stroke-linecap: square"/>
     </g>
     <g id="line2d_34">
      <g>
       <use xlink:href="#m1e13ca3d52" x="136.533038" y="146.538197" style="stroke: #000000; stroke-width: 0.8"/>
      </g>
     </g>
    </g>
    <g id="xtick_18">
     <g id="line2d_35">
      <path d="M 143.063743 146.538197 
L 143.063743 21.037 
" clip-path="url(#p87a068e4ce)" style="fill: none; stroke: #b0b0b0; stroke-width: 0.3; stroke-linecap: square"/>
     </g>
     <g id="line2d_36">
      <g>
       <use xlink:href="#m1e13ca3d52" x="143.063743" y="146.538197" style="stroke: #000000; stroke-width: 0.8"/>
      </g>
     </g>
    </g>
    <g id="xtick_19">
     <g id="line2d_37">
      <path d="M 156.125152 146.538197 
L 156.125152 21.037 
" clip-path="url(#p87a068e4ce)" style="fill: none; stroke: #b0b0b0; stroke-width: 0.3; stroke-linecap: square"/>
     </g>
     <g id="line2d_38">
      <g>
       <use xlink:href="#m1e13ca3d52" x="156.125152" y="146.538197" style="stroke: #000000; stroke-width: 0.8"/>
      </g>
     </g>
    </g>
    <g id="xtick_20">
     <g id="line2d_39">
      <path d="M 162.655857 146.538197 
L 162.655857 21.037 
" clip-path="url(#p87a068e4ce)" style="fill: none; stroke: #b0b0b0; stroke-width: 0.3; stroke-linecap: square"/>
     </g>
     <g id="line2d_40">
      <g>
       <use xlink:href="#m1e13ca3d52" x="162.655857" y="146.538197" style="stroke: #000000; stroke-width: 0.8"/>
      </g>
     </g>
    </g>
    <g id="xtick_21">
     <g id="line2d_41">
      <path d="M 169.186562 146.538197 
L 169.186562 21.037 
" clip-path="url(#p87a068e4ce)" style="fill: none; stroke: #b0b0b0; stroke-width: 0.3; stroke-linecap: square"/>
     </g>
     <g id="line2d_42">
      <g>
       <use xlink:href="#m1e13ca3d52" x="169.186562" y="146.538197" style="stroke: #000000; stroke-width: 0.8"/>
      </g>
     </g>
    </g>
    <g id="xtick_22">
     <g id="line2d_43">
      <path d="M 175.717266 146.538197 
L 175.717266 21.037 
" clip-path="url(#p87a068e4ce)" style="fill: none; stroke: #b0b0b0; stroke-width: 0.3; stroke-linecap: square"/>
     </g>
     <g id="line2d_44">
      <g>
       <use xlink:href="#m1e13ca3d52" x="175.717266" y="146.538197" style="stroke: #000000; stroke-width: 0.8"/>
      </g>
     </g>
    </g>
    <g id="xtick_23">
     <g id="line2d_45">
      <path d="M 188.778676 146.538197 
L 188.778676 21.037 
" clip-path="url(#p87a068e4ce)" style="fill: none; stroke: #b0b0b0; stroke-width: 0.3; stroke-linecap: square"/>
     </g>
     <g id="line2d_46">
      <g>
       <use xlink:href="#m1e13ca3d52" x="188.778676" y="146.538197" style="stroke: #000000; stroke-width: 0.8"/>
      </g>
     </g>
    </g>
    <g id="xtick_24">
     <g id="line2d_47">
      <path d="M 195.30938 146.538197 
L 195.30938 21.037 
" clip-path="url(#p87a068e4ce)" style="fill: none; stroke: #b0b0b0; stroke-width: 0.3; stroke-linecap: square"/>
     </g>
     <g id="line2d_48">
      <g>
       <use xlink:href="#m1e13ca3d52" x="195.30938" y="146.538197" style="stroke: #000000; stroke-width: 0.8"/>
      </g>
     </g>
    </g>
    <g id="text_6">
     <text style="font: 9.6px 'DejaVu Sans', 'Bitstream Vera Sans', 'Computer Modern Sans Serif', 'Lucida Grande', 'Verdana', 'Geneva', 'Lucid', 'Arial', 'Helvetica', 'Avant Garde', sans-serif; text-anchor: middle" x="118.5736" y="174.649447" transform="rotate(-0 118.5736 174.649447)">Wavelength (nm)</text>
    </g>
   </g>
   <g id="matplotlib.axis_2">
    <g id="ytick_1">
     <g id="line2d_49">
      <path d="M 41.18475 134.868266 
L 195.962451 134.868266 
" clip-path="url(#p87a068e4ce)" style="fill: none; stroke: #b0b0b0; stroke-width: 0.6; stroke-linecap: square"/>
     </g>
     <g id="line2d_50">
      <defs>
       <path id="m05a7d903d0" d="M 0 0 
L -4.8 0 
" style="stroke: #000000"/>
      </defs>
      <g>
       <use xlink:href="#m05a7d903d0" x="41.18475" y="134.868266" style="stroke: #000000"/>
      </g>
     </g>
     <g id="text_7">
      <text style="font: 8.8px 'DejaVu Sans', 'Bitstream Vera Sans', 'Computer Modern Sans Serif', 'Lucida Grande', 'Verdana', 'Geneva', 'Lucid', 'Arial', 'Helvetica', 'Avant Garde', sans-serif; text-anchor: end" x="32.88475" y="138.211578" transform="rotate(-0 32.88475 138.211578)">0.20</text>
     </g>
    </g>
    <g id="ytick_2">
     <g id="line2d_51">
      <path d="M 41.18475 112.244881 
L 195.962451 112.244881 
" clip-path="url(#p87a068e4ce)" style="fill: none; stroke: #b0b0b0; stroke-width: 0.6; stroke-linecap: square"/>
     </g>
     <g id="line2d_52">
      <g>
       <use xlink:href="#m05a7d903d0" x="41.18475" y="112.244881" style="stroke: #000000"/>
      </g>
     </g>
     <g id="text_8">
      <text style="font: 8.8px 'DejaVu Sans', 'Bitstream Vera Sans', 'Computer Modern Sans Serif', 'Lucida Grande', 'Verdana', 'Geneva', 'Lucid', 'Arial', 'Helvetica', 'Avant Garde', sans-serif; text-anchor: end" x="32.88475" y="115.588193" transform="rotate(-0 32.88475 115.588193)">0.25</text>
     </g>
    </g>
    <g id="ytick_3">
     <g id="line2d_53">
      <path d="M 41.18475 89.621495 
L 195.962451 89.621495 
" clip-path="url(#p87a068e4ce)" style="fill: none; stroke: #b0b0b0; stroke-width: 0.6; stroke-linecap: square"/>
     </g>
     <g id="line2d_54">
      <g>
       <use xlink:href="#m05a7d903d0" x="41.18475" y="89.621495" style="stroke: #000000"/>
      </g>
     </g>
     <g id="text_9">
      <text style="font: 8.8px 'DejaVu Sans', 'Bitstream Vera Sans', 'Computer Modern Sans Serif', 'Lucida Grande', 'Verdana', 'Geneva', 'Lucid', 'Arial', 'Helvetica', 'Avant Garde', sans-serif; text-anchor: end" x="32.88475" y="92.964808" transform="rotate(-0 32.88475 92.964808)">0.30</text>
     </g>
    </g>
    <g id="ytick_4">
     <g id="line2d_55">
      <path d="M 41.18475 66.99811 
L 195.962451 66.99811 
" clip-path="url(#p87a068e4ce)" style="fill: none; stroke: #b0b0b0; stroke-width: 0.6; stroke-linecap: square"/>
     </g>
     <g id="line2d_56">
      <g>
       <use xlink:href="#m05a7d903d0" x="41.18475" y="66.99811" style="stroke: #000000"/>
      </g>
     </g>
     <g id="text_10">
      <text style="font: 8.8px 'DejaVu Sans', 'Bitstream Vera Sans', 'Computer Modern Sans Serif', 'Lucida Grande', 'Verdana', 'Geneva', 'Lucid', 'Arial', 'Helvetica', 'Avant Garde', sans-serif; text-anchor: end" x="32.88475" y="70.341422" transform="rotate(-0 32.88475 70.341422)">0.35</text>
     </g>
    </g>
    <g id="ytick_5">
     <g id="line2d_57">
      <path d="M 41.18475 44.374725 
L 195.962451 44.374725 
" clip-path="url(#p87a068e4ce)" style="fill: none; stroke: #b0b0b0; stroke-width: 0.6; stroke-linecap: square"/>
     </g>
     <g id="line2d_58">
      <g>
       <use xlink:href="#m05a7d903d0" x="41.18475" y="44.374725" style="stroke: #000000"/>
      </g>
     </g>
     <g id="text_11">
      <text style="font: 8.8px 'DejaVu Sans', 'Bitstream Vera Sans', 'Computer Modern Sans Serif', 'Lucida Grande', 'Verdana', 'Geneva', 'Lucid', 'Arial', 'Helvetica', 'Avant Garde', sans-serif; text-anchor: end" x="32.88475" y="47.718037" transform="rotate(-0 32.88475 47.718037)">0.40</text>
     </g>
    </g>
    <g id="ytick_6">
     <g id="line2d_59">
      <path d="M 41.18475 21.751339 
L 195.962451 21.751339 
" clip-path="url(#p87a068e4ce)" style="fill: none; stroke: #b0b0b0; stroke-width: 0.6; stroke-linecap: square"/>
     </g>
     <g id="line2d_60">
      <g>
       <use xlink:href="#m05a7d903d0" x="41.18475" y="21.751339" style="stroke: #000000"/>
      </g>
     </g>
     <g id="text_12">
      <text style="font: 8.8px 'DejaVu Sans', 'Bitstream Vera Sans', 'Computer Modern Sans Serif', 'Lucida Grande', 'Verdana', 'Geneva', 'Lucid', 'Arial', 'Helvetica', 'Avant Garde', sans-serif; text-anchor: end" x="32.88475" y="25.094652" transform="rotate(-0 32.88475 25.094652)">0.45</text>
     </g>
    </g>
    <g id="text_13">
     <text style="font: 9.6px 'DejaVu Sans', 'Bitstream Vera Sans', 'Computer Modern Sans Serif', 'Lucida Grande', 'Verdana', 'Geneva', 'Lucid', 'Arial', 'Helvetica', 'Avant Garde', sans-serif; text-anchor: middle" x="7.2945" y="83.787598" transform="rotate(-90 7.2945 83.787598)">Reflectance</text>
    </g>
   </g>
   <g id="line2d_61">
    <path d="M 41.83782 115.181399 
L 42.425584 117.479207 
L 42.94804 118.684856 
L 43.274575 119.511422 
L 43.927646 121.420926 
L 44.384795 122.357807 
L 44.515409 122.694081 
L 45.037866 124.186863 
L 47.584841 129.339564 
L 49.348131 132.217707 
L 49.674666 132.262051 
L 50.131815 133.595836 
L 50.393044 133.920258 
L 50.850193 134.666284 
L 51.046114 134.939304 
L 51.829799 136.440228 
L 52.613483 137.561353 
L 53.397168 138.444117 
L 53.593089 138.482127 
L 54.050238 139.505067 
L 54.833923 140.04694 
L 55.291072 140.480492 
L 55.682914 140.64827 
L 56.00945 140.704465 
L 56.401292 140.830158 
L 56.858441 140.805549 
L 57.184976 140.348105 
L 57.250283 140.402039 
L 57.576819 140.582754 
L 57.968661 140.278693 
L 58.687039 139.531939 
L 58.88296 139.32489 
L 59.274802 138.762747 
L 59.601337 138.487466 
L 60.842171 136.704925 
L 61.625856 134.594159 
L 61.887084 134.232548 
L 62.148312 133.989303 
L 62.997304 132.140247 
L 63.062611 131.974735 
L 63.127918 132.003693 
L 63.389146 132.119526 
L 64.107523 130.669187 
L 64.62998 130.240247 
L 64.891208 130.012836 
L 65.087129 129.898813 
L 65.348357 129.960346 
L 65.7402 129.250338 
L 66.523884 129.262193 
L 66.719805 129.306082 
L 67.046341 129.00917 
L 67.372876 128.479966 
L 67.699411 128.47716 
L 68.091253 128.23735 
L 68.61371 128.120617 
L 69.005552 127.814475 
L 69.332087 127.938901 
L 70.377 127.400556 
L 70.899456 126.958225 
L 71.291299 127.103106 
L 71.617834 126.859588 
L 72.14029 126.183417 
L 72.336211 126.115638 
L 72.597439 126.023607 
L 72.923975 125.735567 
L 73.185203 125.847419 
L 73.772966 124.421418 
L 74.099502 124.069307 
L 74.621958 123.68272 
L 74.817879 123.687336 
L 76.12402 120.342241 
L 76.450555 119.991581 
L 76.907705 118.130943 
L 77.23424 117.799013 
L 77.952617 116.595448 
L 78.34446 115.054888 
L 78.605688 114.37537 
L 78.866916 113.611603 
L 79.258758 112.464601 
L 79.519986 111.753864 
L 83.699637 97.067666 
L 84.74455 92.605249 
L 85.071085 91.411906 
L 85.985384 87.421865 
L 86.442533 85.499065 
L 87.095604 82.621729 
L 88.597666 76.959273 
L 89.120122 74.889151 
L 89.642579 72.977106 
L 90.752798 68.440578 
L 91.079334 67.520166 
L 91.275255 66.827622 
L 92.581396 61.916443 
L 92.842624 61.188154 
L 93.561001 58.348016 
L 93.887537 57.505157 
L 94.083458 57.276844 
L 94.736528 54.100967 
L 95.258985 52.373901 
L 95.716134 51.275757 
L 96.23859 49.634569 
L 96.826354 48.224685 
L 97.479424 46.55915 
L 99.177408 42.354903 
L 100.22232 40.298719 
L 100.940698 38.505771 
L 101.528461 37.692229 
L 101.854996 36.950814 
L 102.050918 36.739602 
L 102.312146 36.563685 
L 102.769295 35.73893 
L 103.226444 34.898697 
L 104.140743 34.252208 
L 104.271357 34.202345 
L 104.597892 33.788244 
L 104.924428 33.079505 
L 105.185656 33.134522 
L 105.512191 31.944979 
L 105.577498 32.034387 
L 105.904033 32.381162 
L 106.165262 32.337731 
L 106.622411 31.103581 
L 107.014253 30.772103 
L 107.275481 30.769568 
L 107.471402 30.855896 
L 107.797938 30.1876 
L 107.863245 30.253116 
L 108.124473 30.515181 
L 108.712236 29.574143 
L 109.104079 29.275421 
L 109.495921 29.459211 
L 110.083684 29.190819 
L 110.41022 29.530617 
L 111.06329 28.551933 
L 111.71636 29.620209 
L 112.042896 28.180904 
L 112.108203 28.383249 
L 112.369431 29.192626 
L 112.434738 29.127833 
L 112.761273 28.907117 
L 113.022501 29.060949 
L 113.349037 28.341978 
L 113.414344 28.402429 
L 113.871493 28.687674 
L 114.132721 28.668488 
L 115.112327 28.403519 
L 115.504169 28.341349 
L 115.896011 28.056118 
L 116.091933 28.015756 
L 116.483775 27.975027 
L 117.724609 27.656858 
L 117.985837 27.61378 
L 118.312372 27.36927 
L 119.03075 27.457316 
L 119.357285 27.500302 
L 119.618513 27.534062 
L 120.075662 27.198601 
L 120.598119 27.082679 
L 120.859347 27.310353 
L 120.924654 27.220947 
L 121.316496 26.818983 
L 121.577725 26.818257 
L 122.165488 27.285919 
L 122.492023 26.89318 
L 122.818558 27.377776 
L 122.883865 27.323028 
L 123.602243 26.810738 
L 123.928778 26.872999 
L 124.255313 26.854811 
L 124.647156 27.081498 
L 125.104305 27.325294 
L 125.561454 27.455148 
L 126.149218 27.313349 
L 126.867595 27.51424 
L 127.128824 27.517945 
L 127.520666 27.848614 
L 128.239043 27.93449 
L 128.434964 27.968061 
L 129.022728 27.586369 
L 129.806412 27.6993 
L 130.132948 27.583737 
L 130.52479 27.421663 
L 130.851325 27.481297 
L 131.373782 27.602019 
L 131.700317 27.394149 
L 132.353387 27.795852 
L 132.875844 27.998563 
L 133.463607 28.156201 
L 134.247292 28.679524 
L 134.639134 28.593376 
L 134.965669 28.770747 
L 135.292204 28.565231 
L 135.879968 28.845587 
L 136.533038 29.023394 
L 137.316723 29.903898 
L 137.708565 29.976116 
L 137.969793 30.03856 
L 138.231021 30.291671 
L 138.557557 30.873456 
L 138.949399 30.841233 
L 139.210627 30.810823 
L 139.667776 31.140402 
L 139.863698 31.266097 
L 140.647382 32.07973 
L 141.039224 32.023079 
L 141.104532 32.005161 
L 141.431067 32.645854 
L 141.757602 32.045884 
L 141.822909 32.116198 
L 142.410672 32.687036 
L 142.737208 32.204706 
L 143.194357 32.853538 
L 143.847427 33.110635 
L 144.23927 32.782143 
L 144.696419 32.426864 
L 145.088261 32.629292 
L 145.676025 32.090221 
L 146.00256 32.916436 
L 146.067867 32.868474 
L 146.329095 32.676626 
L 146.720938 33.355332 
L 146.982166 34.20416 
L 147.047473 34.096111 
L 147.308701 33.663913 
L 147.635236 34.277004 
L 147.961771 33.682913 
L 148.027078 33.733588 
L 148.418921 33.935388 
L 148.680149 34.00263 
L 149.267912 34.715442 
L 149.333219 34.640332 
L 149.659755 34.35919 
L 150.312825 34.642004 
L 150.769974 34.842566 
L 150.965896 34.923617 
L 151.74958 35.667102 
L 151.880194 35.613207 
L 152.206729 35.815851 
L 152.272037 35.781183 
L 152.598572 36.108707 
L 152.8598 36.058456 
L 154.035327 36.894429 
L 154.492476 37.055127 
L 154.62309 37.033991 
L 155.210854 37.354323 
L 155.341468 37.380029 
L 155.73331 37.866982 
L 155.863924 37.982503 
L 155.994538 37.563239 
L 156.059845 37.590199 
L 156.255766 37.854095 
L 156.451688 37.986259 
L 156.582302 38.082371 
L 156.712916 38.028283 
L 156.908837 38.200908 
L 157.039451 38.262748 
L 157.170065 38.440314 
L 157.300679 38.665727 
L 157.431293 38.408618 
L 157.888443 38.819603 
L 158.084364 38.853922 
L 158.214978 39.024367 
L 158.280285 38.906158 
L 158.476206 39.205726 
L 158.60682 39.192728 
L 158.933355 39.579053 
L 159.390505 40.025116 
L 159.586426 40.275746 
L 159.71704 40.206756 
L 160.304803 40.88394 
L 160.500724 41.329571 
L 160.566031 41.197137 
L 160.631338 41.276337 
L 161.023181 42.406697 
L 161.219102 43.131284 
L 161.349716 43.380271 
L 163.047699 47.373628 
L 163.439542 48.5364 
L 163.570156 48.623488 
L 163.896691 49.762198 
L 164.876297 54.478602 
L 165.46406 59.990836 
L 165.790595 65.492427 
L 166.11713 71.090607 
L 166.247745 71.42663 
L 166.508973 73.879307 
L 166.770201 79.042693 
L 166.966122 82.961433 
L 167.031429 82.764139 
L 167.357964 80.553445 
L 167.488578 80.887107 
L 168.076342 82.972987 
L 168.794719 85.426245 
L 169.382483 86.447871 
L 169.774325 86.712469 
L 169.970246 86.797674 
L 170.166167 86.979411 
L 170.362088 86.987412 
L 170.55801 87.250366 
L 170.819238 87.364756 
L 171.015159 87.518164 
L 171.276387 87.638464 
L 171.602922 87.649149 
L 172.713142 88.249971 
L 175.19481 90.842903 
L 175.390731 90.987187 
L 175.651959 91.218163 
L 177.023407 92.129466 
L 177.349942 92.159102 
L 177.611171 92.30169 
L 178.198934 92.567683 
L 178.525469 92.746392 
L 178.786697 92.70257 
L 179.113233 92.891023 
L 179.439768 92.868749 
L 180.28876 93.367023 
L 180.680602 93.338398 
L 180.94183 93.396663 
L 181.398979 93.544445 
L 181.594901 93.496744 
L 181.856129 93.648091 
L 182.182664 93.699804 
L 182.509199 93.698795 
L 183.096963 93.777712 
L 183.684726 93.768151 
L 184.141875 93.916004 
L 184.533718 93.870463 
L 188.517447 94.068105 
L 188.778676 94.04916 
L 191.064422 93.621125 
L 191.717493 93.273925 
L 192.174642 93.126963 
L 195.244073 91.186142 
L 195.244073 91.186142 
" clip-path="url(#p87a068e4ce)" style="fill: none; stroke: #1f77b4; stroke-width: 0.5; stroke-linecap: square"/>
   </g>
   <g id="line2d_62"/>
   <g id="patch_3">
    <path d="M 41.18475 146.538197 
L 41.18475 21.037 
" style="fill: none; stroke: #000000; stroke-linejoin: miter; stroke-linecap: square"/>
   </g>
   <g id="patch_4">
    <path d="M 195.962451 146.538197 
L 195.962451 21.037 
" style="fill: none; stroke: #000000; stroke-linejoin: miter; stroke-linecap: square"/>
   </g>
   <g id="patch_5">
    <path d="M 41.18475 146.538197 
L 195.962451 146.538197 
" style="fill: none; stroke: #000000; stroke-linejoin: miter; stroke-linecap: square"/>
   </g>
   <g id="patch_6">
    <path d="M 41.18475 21.037 
L 195.962451 21.037 
" style="fill: none; stroke: #000000; stroke-linejoin: miter; stroke-linecap: square"/>
   </g>
   <g id="text_14">
    <text style="font: 8px 'DejaVu Sans', 'Bitstream Vera Sans', 'Computer Modern Sans Serif', 'Lucida Grande', 'Verdana', 'Geneva', 'Lucid', 'Arial', 'Helvetica', 'Avant Garde', sans-serif" transform="translate(67.976725 6.07875)">Laboratory Iron oxides &amp; </text>
    <text style="font: 8px 'DejaVu Sans', 'Bitstream Vera Sans', 'Computer Modern Sans Serif', 'Lucida Grande', 'Verdana', 'Geneva', 'Lucid', 'Arial', 'Helvetica', 'Avant Garde', sans-serif" transform="translate(67.466725 15.037)"> primary silicates Fayalite</text>
   </g>
   <g id="legend_1">
    <g id="patch_7">
     <path d="M 203.258005 89.091036 
L 271.109567 89.091036 
Q 272.309567 89.091036 272.309567 87.891036 
L 272.309567 79.684161 
Q 272.309567 78.484161 271.109567 78.484161 
L 203.258005 78.484161 
Q 202.058005 78.484161 202.058005 79.684161 
L 202.058005 87.891036 
Q 202.058005 89.091036 203.258005 89.091036 
z
" style="fill: #ffffff; opacity: 0.8; stroke: #cccccc; stroke-width: 0.8; stroke-linejoin: miter"/>
    </g>
    <g id="line2d_63">
     <path d="M 204.458005 83.343223 
L 210.458005 83.343223 
L 216.458005 83.343223 
" style="fill: none; stroke: #1f77b4; stroke-width: 1.2; stroke-linecap: square"/>
    </g>
    <g id="text_15">
     <text style="font: 6px 'DejaVu Sans', 'Bitstream Vera Sans', 'Computer Modern Sans Serif', 'Lucida Grande', 'Verdana', 'Geneva', 'Lucid', 'Arial', 'Helvetica', 'Avant Garde', sans-serif; text-anchor: start" x="221.258005" y="85.443223" transform="rotate(-0 221.258005 85.443223)">Fayalite LAPO05</text>
    </g>
   </g>
  </g>
 </g>
 <defs>
  <clipPath id="p87a068e4ce">
   <rect x="41.18475" y="21.037" width="154.777701" height="125.501197"/>
  </clipPath>
 </defs>
</svg>
