<?xml version="1.0" encoding="utf-8" standalone="no"?>
<!DOCTYPE svg PUBLIC "-//W3C//DTD SVG 1.1//EN"
  "http://www.w3.org/Graphics/SVG/1.1/DTD/svg11.dtd">
<svg xmlns:xlink="http://www.w3.org/1999/xlink" width="272.651505pt" height="176.855697pt" viewBox="0 0 272.651505 176.855697" xmlns="http://www.w3.org/2000/svg" version="1.1">
 <metadata>
  <rdf:RDF xmlns:dc="http://purl.org/dc/elements/1.1/" xmlns:cc="http://creativecommons.org/ns#" xmlns:rdf="http://www.w3.org/1999/02/22-rdf-syntax-ns#">
   <cc:Work>
    <dc:type rdf:resource="http://purl.org/dc/dcmitype/StillImage"/>
    <dc:date>2025-02-13T12:52:25.902765</dc:date>
    <dc:format>image/svg+xml</dc:format>
    <dc:creator>
     <cc:Agent>
      <dc:title>Matplotlib v3.6.2, https://matplotlib.org/</dc:title>
     </cc:Agent>
    </dc:creator>
   </cc:Work>
  </rdf:RDF>
 </metadata>
 <defs>
  <style type="text/css">*{stroke-linejoin: round; stroke-linecap: butt}</style>
 </defs>
 <g id="figure_1">
  <g id="patch_1">
   <path d="M -0 176.855697 
L 272.651505 176.855697 
L 272.651505 0 
L -0 0 
z
" style="fill: #ffffff"/>
  </g>
  <g id="axes_1">
   <g id="patch_2">
    <path d="M 35.58575 146.747947 
L 210.613451 146.747947 
L 210.613451 12.07875 
L 35.58575 12.07875 
z
" style="fill: #ffffff"/>
   </g>
   <g id="matplotlib.axis_1">
    <g id="xtick_1">
     <g id="line2d_1">
      <path d="M 47.401966 146.747947 
L 47.401966 12.07875 
" clip-path="url(#pe2931a9e3e)" style="fill: none; stroke: #b0b0b0; stroke-width: 0.6; stroke-linecap: square"/>
     </g>
     <g id="line2d_2">
      <defs>
       <path id="me0f7316ca4" d="M 0 0 
L 0 4.8 
" style="stroke: #000000"/>
      </defs>
      <g>
       <use xlink:href="#me0f7316ca4" x="47.401966" y="146.747947" style="stroke: #000000"/>
      </g>
     </g>
     <g id="text_1">
      <text style="font: 8.8px 'DejaVu Sans', 'Bitstream Vera Sans', 'Computer Modern Sans Serif', 'Lucida Grande', 'Verdana', 'Geneva', 'Lucid', 'Arial', 'Helvetica', 'Avant Garde', sans-serif; text-anchor: middle" x="47.401966" y="161.734572" transform="rotate(-0 47.401966 161.734572)">1000</text>
     </g>
    </g>
    <g id="xtick_2">
     <g id="line2d_3">
      <path d="M 84.327641 146.747947 
L 84.327641 12.07875 
" clip-path="url(#pe2931a9e3e)" style="fill: none; stroke: #b0b0b0; stroke-width: 0.6; stroke-linecap: square"/>
     </g>
     <g id="line2d_4">
      <g>
       <use xlink:href="#me0f7316ca4" x="84.327641" y="146.747947" style="stroke: #000000"/>
      </g>
     </g>
     <g id="text_2">
      <text style="font: 8.8px 'DejaVu Sans', 'Bitstream Vera Sans', 'Computer Modern Sans Serif', 'Lucida Grande', 'Verdana', 'Geneva', 'Lucid', 'Arial', 'Helvetica', 'Avant Garde', sans-serif; text-anchor: middle" x="84.327641" y="161.734572" transform="rotate(-0 84.327641 161.734572)">1500</text>
     </g>
    </g>
    <g id="xtick_3">
     <g id="line2d_5">
      <path d="M 121.253317 146.747947 
L 121.253317 12.07875 
" clip-path="url(#pe2931a9e3e)" style="fill: none; stroke: #b0b0b0; stroke-width: 0.6; stroke-linecap: square"/>
     </g>
     <g id="line2d_6">
      <g>
       <use xlink:href="#me0f7316ca4" x="121.253317" y="146.747947" style="stroke: #000000"/>
      </g>
     </g>
     <g id="text_3">
      <text style="font: 8.8px 'DejaVu Sans', 'Bitstream Vera Sans', 'Computer Modern Sans Serif', 'Lucida Grande', 'Verdana', 'Geneva', 'Lucid', 'Arial', 'Helvetica', 'Avant Garde', sans-serif; text-anchor: middle" x="121.253317" y="161.734572" transform="rotate(-0 121.253317 161.734572)">2000</text>
     </g>
    </g>
    <g id="xtick_4">
     <g id="line2d_7">
      <path d="M 158.178992 146.747947 
L 158.178992 12.07875 
" clip-path="url(#pe2931a9e3e)" style="fill: none; stroke: #b0b0b0; stroke-width: 0.6; stroke-linecap: square"/>
     </g>
     <g id="line2d_8">
      <g>
       <use xlink:href="#me0f7316ca4" x="158.178992" y="146.747947" style="stroke: #000000"/>
      </g>
     </g>
     <g id="text_4">
      <text style="font: 8.8px 'DejaVu Sans', 'Bitstream Vera Sans', 'Computer Modern Sans Serif', 'Lucida Grande', 'Verdana', 'Geneva', 'Lucid', 'Arial', 'Helvetica', 'Avant Garde', sans-serif; text-anchor: middle" x="158.178992" y="161.734572" transform="rotate(-0 158.178992 161.734572)">2500</text>
     </g>
    </g>
    <g id="xtick_5">
     <g id="line2d_9">
      <path d="M 195.104667 146.747947 
L 195.104667 12.07875 
" clip-path="url(#pe2931a9e3e)" style="fill: none; stroke: #b0b0b0; stroke-width: 0.6; stroke-linecap: square"/>
     </g>
     <g id="line2d_10">
      <g>
       <use xlink:href="#me0f7316ca4" x="195.104667" y="146.747947" style="stroke: #000000"/>
      </g>
     </g>
     <g id="text_5">
      <text style="font: 8.8px 'DejaVu Sans', 'Bitstream Vera Sans', 'Computer Modern Sans Serif', 'Lucida Grande', 'Verdana', 'Geneva', 'Lucid', 'Arial', 'Helvetica', 'Avant Garde', sans-serif; text-anchor: middle" x="195.104667" y="161.734572" transform="rotate(-0 195.104667 161.734572)">3000</text>
     </g>
    </g>
    <g id="xtick_6">
     <g id="line2d_11">
      <path d="M 40.016831 146.747947 
L 40.016831 12.07875 
" clip-path="url(#pe2931a9e3e)" style="fill: none; stroke: #b0b0b0; stroke-width: 0.3; stroke-linecap: square"/>
     </g>
     <g id="line2d_12">
      <defs>
       <path id="m76d50618bc" d="M 0 0 
L 0 3.2 
" style="stroke: #000000; stroke-width: 0.8"/>
      </defs>
      <g>
       <use xlink:href="#m76d50618bc" x="40.016831" y="146.747947" style="stroke: #000000; stroke-width: 0.8"/>
      </g>
     </g>
    </g>
    <g id="xtick_7">
     <g id="line2d_13">
      <path d="M 54.787101 146.747947 
L 54.787101 12.07875 
" clip-path="url(#pe2931a9e3e)" style="fill: none; stroke: #b0b0b0; stroke-width: 0.3; stroke-linecap: square"/>
     </g>
     <g id="line2d_14">
      <g>
       <use xlink:href="#m76d50618bc" x="54.787101" y="146.747947" style="stroke: #000000; stroke-width: 0.8"/>
      </g>
     </g>
    </g>
    <g id="xtick_8">
     <g id="line2d_15">
      <path d="M 62.172236 146.747947 
L 62.172236 12.07875 
" clip-path="url(#pe2931a9e3e)" style="fill: none; stroke: #b0b0b0; stroke-width: 0.3; stroke-linecap: square"/>
     </g>
     <g id="line2d_16">
      <g>
       <use xlink:href="#m76d50618bc" x="62.172236" y="146.747947" style="stroke: #000000; stroke-width: 0.8"/>
      </g>
     </g>
    </g>
    <g id="xtick_9">
     <g id="line2d_17">
      <path d="M 69.557371 146.747947 
L 69.557371 12.07875 
" clip-path="url(#pe2931a9e3e)" style="fill: none; stroke: #b0b0b0; stroke-width: 0.3; stroke-linecap: square"/>
     </g>
     <g id="line2d_18">
      <g>
       <use xlink:href="#m76d50618bc" x="69.557371" y="146.747947" style="stroke: #000000; stroke-width: 0.8"/>
      </g>
     </g>
    </g>
    <g id="xtick_10">
     <g id="line2d_19">
      <path d="M 76.942506 146.747947 
L 76.942506 12.07875 
" clip-path="url(#pe2931a9e3e)" style="fill: none; stroke: #b0b0b0; stroke-width: 0.3; stroke-linecap: square"/>
     </g>
     <g id="line2d_20">
      <g>
       <use xlink:href="#m76d50618bc" x="76.942506" y="146.747947" style="stroke: #000000; stroke-width: 0.8"/>
      </g>
     </g>
    </g>
    <g id="xtick_11">
     <g id="line2d_21">
      <path d="M 91.712776 146.747947 
L 91.712776 12.07875 
" clip-path="url(#pe2931a9e3e)" style="fill: none; stroke: #b0b0b0; stroke-width: 0.3; stroke-linecap: square"/>
     </g>
     <g id="line2d_22">
      <g>
       <use xlink:href="#m76d50618bc" x="91.712776" y="146.747947" style="stroke: #000000; stroke-width: 0.8"/>
      </g>
     </g>
    </g>
    <g id="xtick_12">
     <g id="line2d_23">
      <path d="M 99.097911 146.747947 
L 99.097911 12.07875 
" clip-path="url(#pe2931a9e3e)" style="fill: none; stroke: #b0b0b0; stroke-width: 0.3; stroke-linecap: square"/>
     </g>
     <g id="line2d_24">
      <g>
       <use xlink:href="#m76d50618bc" x="99.097911" y="146.747947" style="stroke: #000000; stroke-width: 0.8"/>
      </g>
     </g>
    </g>
    <g id="xtick_13">
     <g id="line2d_25">
      <path d="M 106.483047 146.747947 
L 106.483047 12.07875 
" clip-path="url(#pe2931a9e3e)" style="fill: none; stroke: #b0b0b0; stroke-width: 0.3; stroke-linecap: square"/>
     </g>
     <g id="line2d_26">
      <g>
       <use xlink:href="#m76d50618bc" x="106.483047" y="146.747947" style="stroke: #000000; stroke-width: 0.8"/>
      </g>
     </g>
    </g>
    <g id="xtick_14">
     <g id="line2d_27">
      <path d="M 113.868182 146.747947 
L 113.868182 12.07875 
" clip-path="url(#pe2931a9e3e)" style="fill: none; stroke: #b0b0b0; stroke-width: 0.3; stroke-linecap: square"/>
     </g>
     <g id="line2d_28">
      <g>
       <use xlink:href="#m76d50618bc" x="113.868182" y="146.747947" style="stroke: #000000; stroke-width: 0.8"/>
      </g>
     </g>
    </g>
    <g id="xtick_15">
     <g id="line2d_29">
      <path d="M 128.638452 146.747947 
L 128.638452 12.07875 
" clip-path="url(#pe2931a9e3e)" style="fill: none; stroke: #b0b0b0; stroke-width: 0.3; stroke-linecap: square"/>
     </g>
     <g id="line2d_30">
      <g>
       <use xlink:href="#m76d50618bc" x="128.638452" y="146.747947" style="stroke: #000000; stroke-width: 0.8"/>
      </g>
     </g>
    </g>
    <g id="xtick_16">
     <g id="line2d_31">
      <path d="M 136.023587 146.747947 
L 136.023587 12.07875 
" clip-path="url(#pe2931a9e3e)" style="fill: none; stroke: #b0b0b0; stroke-width: 0.3; stroke-linecap: square"/>
     </g>
     <g id="line2d_32">
      <g>
       <use xlink:href="#m76d50618bc" x="136.023587" y="146.747947" style="stroke: #000000; stroke-width: 0.8"/>
      </g>
     </g>
    </g>
    <g id="xtick_17">
     <g id="line2d_33">
      <path d="M 143.408722 146.747947 
L 143.408722 12.07875 
" clip-path="url(#pe2931a9e3e)" style="fill: none; stroke: #b0b0b0; stroke-width: 0.3; stroke-linecap: square"/>
     </g>
     <g id="line2d_34">
      <g>
       <use xlink:href="#m76d50618bc" x="143.408722" y="146.747947" style="stroke: #000000; stroke-width: 0.8"/>
      </g>
     </g>
    </g>
    <g id="xtick_18">
     <g id="line2d_35">
      <path d="M 150.793857 146.747947 
L 150.793857 12.07875 
" clip-path="url(#pe2931a9e3e)" style="fill: none; stroke: #b0b0b0; stroke-width: 0.3; stroke-linecap: square"/>
     </g>
     <g id="line2d_36">
      <g>
       <use xlink:href="#m76d50618bc" x="150.793857" y="146.747947" style="stroke: #000000; stroke-width: 0.8"/>
      </g>
     </g>
    </g>
    <g id="xtick_19">
     <g id="line2d_37">
      <path d="M 165.564127 146.747947 
L 165.564127 12.07875 
" clip-path="url(#pe2931a9e3e)" style="fill: none; stroke: #b0b0b0; stroke-width: 0.3; stroke-linecap: square"/>
     </g>
     <g id="line2d_38">
      <g>
       <use xlink:href="#m76d50618bc" x="165.564127" y="146.747947" style="stroke: #000000; stroke-width: 0.8"/>
      </g>
     </g>
    </g>
    <g id="xtick_20">
     <g id="line2d_39">
      <path d="M 172.949262 146.747947 
L 172.949262 12.07875 
" clip-path="url(#pe2931a9e3e)" style="fill: none; stroke: #b0b0b0; stroke-width: 0.3; stroke-linecap: square"/>
     </g>
     <g id="line2d_40">
      <g>
       <use xlink:href="#m76d50618bc" x="172.949262" y="146.747947" style="stroke: #000000; stroke-width: 0.8"/>
      </g>
     </g>
    </g>
    <g id="xtick_21">
     <g id="line2d_41">
      <path d="M 180.334397 146.747947 
L 180.334397 12.07875 
" clip-path="url(#pe2931a9e3e)" style="fill: none; stroke: #b0b0b0; stroke-width: 0.3; stroke-linecap: square"/>
     </g>
     <g id="line2d_42">
      <g>
       <use xlink:href="#m76d50618bc" x="180.334397" y="146.747947" style="stroke: #000000; stroke-width: 0.8"/>
      </g>
     </g>
    </g>
    <g id="xtick_22">
     <g id="line2d_43">
      <path d="M 187.719532 146.747947 
L 187.719532 12.07875 
" clip-path="url(#pe2931a9e3e)" style="fill: none; stroke: #b0b0b0; stroke-width: 0.3; stroke-linecap: square"/>
     </g>
     <g id="line2d_44">
      <g>
       <use xlink:href="#m76d50618bc" x="187.719532" y="146.747947" style="stroke: #000000; stroke-width: 0.8"/>
      </g>
     </g>
    </g>
    <g id="xtick_23">
     <g id="line2d_45">
      <path d="M 202.489802 146.747947 
L 202.489802 12.07875 
" clip-path="url(#pe2931a9e3e)" style="fill: none; stroke: #b0b0b0; stroke-width: 0.3; stroke-linecap: square"/>
     </g>
     <g id="line2d_46">
      <g>
       <use xlink:href="#m76d50618bc" x="202.489802" y="146.747947" style="stroke: #000000; stroke-width: 0.8"/>
      </g>
     </g>
    </g>
    <g id="xtick_24">
     <g id="line2d_47">
      <path d="M 209.874937 146.747947 
L 209.874937 12.07875 
" clip-path="url(#pe2931a9e3e)" style="fill: none; stroke: #b0b0b0; stroke-width: 0.3; stroke-linecap: square"/>
     </g>
     <g id="line2d_48">
      <g>
       <use xlink:href="#m76d50618bc" x="209.874937" y="146.747947" style="stroke: #000000; stroke-width: 0.8"/>
      </g>
     </g>
    </g>
    <g id="text_6">
     <text style="font: 9.6px 'DejaVu Sans', 'Bitstream Vera Sans', 'Computer Modern Sans Serif', 'Lucida Grande', 'Verdana', 'Geneva', 'Lucid', 'Arial', 'Helvetica', 'Avant Garde', sans-serif; text-anchor: middle" x="123.0996" y="174.859197" transform="rotate(-0 123.0996 174.859197)">Wavelength (nm)</text>
    </g>
   </g>
   <g id="matplotlib.axis_2">
    <g id="ytick_1">
     <g id="line2d_49">
      <path d="M 35.58575 137.683131 
L 210.613451 137.683131 
" clip-path="url(#pe2931a9e3e)" style="fill: none; stroke: #b0b0b0; stroke-width: 0.6; stroke-linecap: square"/>
     </g>
     <g id="line2d_50">
      <defs>
       <path id="m39144df6e4" d="M 0 0 
L -4.8 0 
" style="stroke: #000000"/>
      </defs>
      <g>
       <use xlink:href="#m39144df6e4" x="35.58575" y="137.683131" style="stroke: #000000"/>
      </g>
     </g>
     <g id="text_7">
      <text style="font: 8.8px 'DejaVu Sans', 'Bitstream Vera Sans', 'Computer Modern Sans Serif', 'Lucida Grande', 'Verdana', 'Geneva', 'Lucid', 'Arial', 'Helvetica', 'Avant Garde', sans-serif; text-anchor: end" x="27.28575" y="141.026443" transform="rotate(-0 27.28575 141.026443)">0.1</text>
     </g>
    </g>
    <g id="ytick_2">
     <g id="line2d_51">
      <path d="M 35.58575 117.005438 
L 210.613451 117.005438 
" clip-path="url(#pe2931a9e3e)" style="fill: none; stroke: #b0b0b0; stroke-width: 0.6; stroke-linecap: square"/>
     </g>
     <g id="line2d_52">
      <g>
       <use xlink:href="#m39144df6e4" x="35.58575" y="117.005438" style="stroke: #000000"/>
      </g>
     </g>
     <g id="text_8">
      <text style="font: 8.8px 'DejaVu Sans', 'Bitstream Vera Sans', 'Computer Modern Sans Serif', 'Lucida Grande', 'Verdana', 'Geneva', 'Lucid', 'Arial', 'Helvetica', 'Avant Garde', sans-serif; text-anchor: end" x="27.28575" y="120.348751" transform="rotate(-0 27.28575 120.348751)">0.2</text>
     </g>
    </g>
    <g id="ytick_3">
     <g id="line2d_53">
      <path d="M 35.58575 96.327746 
L 210.613451 96.327746 
" clip-path="url(#pe2931a9e3e)" style="fill: none; stroke: #b0b0b0; stroke-width: 0.6; stroke-linecap: square"/>
     </g>
     <g id="line2d_54">
      <g>
       <use xlink:href="#m39144df6e4" x="35.58575" y="96.327746" style="stroke: #000000"/>
      </g>
     </g>
     <g id="text_9">
      <text style="font: 8.8px 'DejaVu Sans', 'Bitstream Vera Sans', 'Computer Modern Sans Serif', 'Lucida Grande', 'Verdana', 'Geneva', 'Lucid', 'Arial', 'Helvetica', 'Avant Garde', sans-serif; text-anchor: end" x="27.28575" y="99.671058" transform="rotate(-0 27.28575 99.671058)">0.3</text>
     </g>
    </g>
    <g id="ytick_4">
     <g id="line2d_55">
      <path d="M 35.58575 75.650053 
L 210.613451 75.650053 
" clip-path="url(#pe2931a9e3e)" style="fill: none; stroke: #b0b0b0; stroke-width: 0.6; stroke-linecap: square"/>
     </g>
     <g id="line2d_56">
      <g>
       <use xlink:href="#m39144df6e4" x="35.58575" y="75.650053" style="stroke: #000000"/>
      </g>
     </g>
     <g id="text_10">
      <text style="font: 8.8px 'DejaVu Sans', 'Bitstream Vera Sans', 'Computer Modern Sans Serif', 'Lucida Grande', 'Verdana', 'Geneva', 'Lucid', 'Arial', 'Helvetica', 'Avant Garde', sans-serif; text-anchor: end" x="27.28575" y="78.993365" transform="rotate(-0 27.28575 78.993365)">0.4</text>
     </g>
    </g>
    <g id="ytick_5">
     <g id="line2d_57">
      <path d="M 35.58575 54.97236 
L 210.613451 54.97236 
" clip-path="url(#pe2931a9e3e)" style="fill: none; stroke: #b0b0b0; stroke-width: 0.6; stroke-linecap: square"/>
     </g>
     <g id="line2d_58">
      <g>
       <use xlink:href="#m39144df6e4" x="35.58575" y="54.97236" style="stroke: #000000"/>
      </g>
     </g>
     <g id="text_11">
      <text style="font: 8.8px 'DejaVu Sans', 'Bitstream Vera Sans', 'Computer Modern Sans Serif', 'Lucida Grande', 'Verdana', 'Geneva', 'Lucid', 'Arial', 'Helvetica', 'Avant Garde', sans-serif; text-anchor: end" x="27.28575" y="58.315673" transform="rotate(-0 27.28575 58.315673)">0.5</text>
     </g>
    </g>
    <g id="ytick_6">
     <g id="line2d_59">
      <path d="M 35.58575 34.294668 
L 210.613451 34.294668 
" clip-path="url(#pe2931a9e3e)" style="fill: none; stroke: #b0b0b0; stroke-width: 0.6; stroke-linecap: square"/>
     </g>
     <g id="line2d_60">
      <g>
       <use xlink:href="#m39144df6e4" x="35.58575" y="34.294668" style="stroke: #000000"/>
      </g>
     </g>
     <g id="text_12">
      <text style="font: 8.8px 'DejaVu Sans', 'Bitstream Vera Sans', 'Computer Modern Sans Serif', 'Lucida Grande', 'Verdana', 'Geneva', 'Lucid', 'Arial', 'Helvetica', 'Avant Garde', sans-serif; text-anchor: end" x="27.28575" y="37.63798" transform="rotate(-0 27.28575 37.63798)">0.6</text>
     </g>
    </g>
    <g id="ytick_7">
     <g id="line2d_61">
      <path d="M 35.58575 13.616975 
L 210.613451 13.616975 
" clip-path="url(#pe2931a9e3e)" style="fill: none; stroke: #b0b0b0; stroke-width: 0.6; stroke-linecap: square"/>
     </g>
     <g id="line2d_62">
      <g>
       <use xlink:href="#m39144df6e4" x="35.58575" y="13.616975" style="stroke: #000000"/>
      </g>
     </g>
     <g id="text_13">
      <text style="font: 8.8px 'DejaVu Sans', 'Bitstream Vera Sans', 'Computer Modern Sans Serif', 'Lucida Grande', 'Verdana', 'Geneva', 'Lucid', 'Arial', 'Helvetica', 'Avant Garde', sans-serif; text-anchor: end" x="27.28575" y="16.960287" transform="rotate(-0 27.28575 16.960287)">0.7</text>
     </g>
    </g>
    <g id="text_14">
     <text style="font: 9.6px 'DejaVu Sans', 'Bitstream Vera Sans', 'Computer Modern Sans Serif', 'Lucida Grande', 'Verdana', 'Geneva', 'Lucid', 'Arial', 'Helvetica', 'Avant Garde', sans-serif; text-anchor: middle" x="7.2945" y="79.413348" transform="rotate(-90 7.2945 79.413348)">Reflectance</text>
    </g>
   </g>
   <g id="line2d_63">
    <path d="M 36.324264 43.699373 
L 37.653588 43.092871 
L 38.022845 43.005476 
L 38.761358 43.055801 
L 39.647574 43.223793 
L 40.53379 42.115036 
L 41.420007 41.707142 
L 41.936966 41.467098 
L 42.380074 41.188241 
L 42.67548 41.25587 
L 42.970885 41.597318 
L 43.709399 46.231011 
L 44.300209 41.657853 
L 44.595615 40.693871 
L 45.038723 40.153975 
L 45.260277 40.072744 
L 45.924939 40.356081 
L 46.811155 39.848757 
L 47.401966 39.850823 
L 48.288182 39.220384 
L 48.952844 39.306219 
L 50.429871 38.107941 
L 50.87298 37.70689 
L 51.242236 37.736174 
L 51.46379 37.853665 
L 52.054601 37.28556 
L 52.423858 36.992317 
L 53.383925 36.159227 
L 53.827034 35.99511 
L 54.19629 35.566949 
L 54.565547 35.135783 
L 54.860952 34.954174 
L 55.894871 33.837854 
L 56.633385 33.261494 
L 57.519601 32.406104 
L 58.110412 32.032988 
L 58.996628 31.278741 
L 59.292034 31.111569 
L 60.030547 30.388477 
L 60.547506 30.060238 
L 60.842912 29.630658 
L 61.212169 29.100112 
L 61.950682 28.755124 
L 62.763047 28.625587 
L 62.984601 28.496114 
L 63.427709 28.072972 
L 64.240074 27.923385 
L 64.461628 27.912396 
L 65.273993 27.18781 
L 66.23406 26.794477 
L 66.677169 26.810504 
L 67.046425 27.373908 
L 67.784939 29.469145 
L 68.080344 29.65811 
L 68.523452 27.088943 
L 68.818858 26.827064 
L 69.335817 27.5182 
L 69.557371 27.624384 
L 70.222033 26.281671 
L 70.295885 26.170937 
L 70.369736 26.253391 
L 70.812844 26.584486 
L 71.477506 26.485202 
L 71.920614 25.990038 
L 72.363723 25.931359 
L 73.32379 25.946773 
L 73.693047 25.945143 
L 74.43156 26.615857 
L 74.726966 26.679079 
L 75.096223 27.719926 
L 75.465479 31.16835 
L 75.908587 55.419921 
L 76.277844 84.503301 
L 76.57325 88.546926 
L 77.090209 44.750324 
L 77.385614 35.282138 
L 77.828723 33.051934 
L 78.124128 32.690653 
L 78.419533 32.713419 
L 79.453452 31.17623 
L 79.89656 30.629642 
L 80.708925 28.44613 
L 81.373587 27.599488 
L 81.816695 27.480605 
L 83.589128 25.095741 
L 84.106087 24.879025 
L 84.623047 24.562242 
L 86.026222 24.050432 
L 86.247776 24.203768 
L 86.98629 25.053333 
L 87.281695 25.026721 
L 88.167912 23.221954 
L 88.61102 22.820921 
L 89.275682 22.55018 
L 89.71879 22.370077 
L 90.531155 21.985142 
L 90.900412 21.97105 
L 91.34352 21.896871 
L 92.008182 21.488381 
L 92.377439 21.308477 
L 92.968249 21.182179 
L 93.485209 21.030978 
L 93.928317 20.950851 
L 94.740682 20.778481 
L 95.405344 20.553855 
L 95.848452 20.459568 
L 96.29156 20.141576 
L 96.734668 20.177508 
L 97.768587 20.358767 
L 97.990141 20.313348 
L 99.097911 18.200077 
L 99.245614 18.319909 
L 99.910276 18.989697 
L 100.353384 19.467729 
L 100.944195 19.626816 
L 101.387303 19.556692 
L 101.830411 18.840785 
L 102.051965 18.346879 
L 102.125817 18.422925 
L 102.568925 18.742731 
L 102.86433 18.671617 
L 103.233587 18.319436 
L 103.750547 18.593751 
L 105.00602 19.542625 
L 105.522979 18.779277 
L 105.744533 18.680488 
L 106.852303 20.392067 
L 107.738519 21.565574 
L 108.32933 22.81007 
L 108.403182 22.730345 
L 109.141695 22.073888 
L 109.95406 22.649063 
L 110.618722 22.832999 
L 111.431087 23.864516 
L 112.095749 25.365801 
L 112.834263 28.672759 
L 113.868182 36.934033 
L 114.237438 39.248273 
L 114.31129 39.232926 
L 114.975952 39.094803 
L 115.862168 36.344791 
L 116.969938 35.254254 
L 117.560749 34.903573 
L 118.003857 34.63969 
L 118.742371 33.806297 
L 119.554736 34.117091 
L 120.219398 34.07544 
L 120.957911 34.911396 
L 121.696425 36.386271 
L 122.361087 36.530295 
L 123.321154 31.732636 
L 123.838114 30.126911 
L 124.872033 32.210242 
L 125.388992 33.131984 
L 126.053654 35.734885 
L 126.792168 47.40652 
L 126.866019 47.266034 
L 127.604533 45.64045 
L 128.490749 41.726396 
L 129.007708 40.17859 
L 129.820073 43.048721 
L 130.632438 47.460786 
L 131.223249 49.064954 
L 132.331019 43.377423 
L 132.700276 41.909766 
L 133.586492 44.504564 
L 134.177303 47.160824 
L 134.989668 42.316612 
L 135.802033 41.424264 
L 136.392843 41.285832 
L 137.131357 43.391091 
L 138.091425 56.681565 
L 138.608384 61.132537 
L 139.346898 53.953365 
L 140.233114 63.672952 
L 140.971627 77.0633 
L 141.783992 99.948715 
L 142.448654 120.740584 
L 143.556424 131.986326 
L 144.516492 140.62662 
L 145.47656 107.173866 
L 146.06737 82.769264 
L 146.732033 76.354646 
L 147.618249 86.338823 
L 148.20906 89.58961 
L 149.169127 111.107761 
L 149.686087 118.328386 
L 149.759938 117.861546 
L 150.129195 115.152836 
L 151.163114 102.182886 
L 152.04933 90.385311 
L 152.270884 88.882064 
L 153.969465 96.854583 
L 155.594195 101.551693 
L 156.185005 99.60317 
L 157.883586 92.762001 
L 158.252843 92.597692 
L 160.24683 93.036106 
L 160.542235 92.895491 
L 162.46237 91.370112 
L 162.46237 91.370112 
" clip-path="url(#pe2931a9e3e)" style="fill: none; stroke: #1f77b4; stroke-width: 0.5; stroke-linecap: square"/>
   </g>
   <g id="line2d_64"/>
   <g id="patch_3">
    <path d="M 35.58575 146.747947 
L 35.58575 12.07875 
" style="fill: none; stroke: #000000; stroke-linejoin: miter; stroke-linecap: square"/>
   </g>
   <g id="patch_4">
    <path d="M 210.613451 146.747947 
L 210.613451 12.07875 
" style="fill: none; stroke: #000000; stroke-linejoin: miter; stroke-linecap: square"/>
   </g>
   <g id="patch_5">
    <path d="M 35.58575 146.747947 
L 210.613451 146.747947 
" style="fill: none; stroke: #000000; stroke-linejoin: miter; stroke-linecap: square"/>
   </g>
   <g id="patch_6">
    <path d="M 35.58575 12.07875 
L 210.613451 12.07875 
" style="fill: none; stroke: #000000; stroke-linejoin: miter; stroke-linecap: square"/>
   </g>
   <g id="text_15">
    <text style="font: 8px 'DejaVu Sans', 'Bitstream Vera Sans', 'Computer Modern Sans Serif', 'Lucida Grande', 'Verdana', 'Geneva', 'Lucid', 'Arial', 'Helvetica', 'Avant Garde', sans-serif; text-anchor: middle" x="123.0996" y="6.07875" transform="rotate(-0 123.0996 6.07875)">Laboratory Phyllosilicate Talc</text>
   </g>
   <g id="legend_1">
    <g id="patch_7">
     <path d="M 218.314005 84.716786 
L 271.451505 84.716786 
Q 272.651505 84.716786 272.651505 83.516786 
L 272.651505 75.309911 
Q 272.651505 74.109911 271.451505 74.109911 
L 218.314005 74.109911 
Q 217.114005 74.109911 217.114005 75.309911 
L 217.114005 83.516786 
Q 217.114005 84.716786 218.314005 84.716786 
z
" style="fill: #ffffff; opacity: 0.8; stroke: #cccccc; stroke-width: 0.8; stroke-linejoin: miter"/>
    </g>
    <g id="line2d_65">
     <path d="M 219.514005 78.968973 
L 225.514005 78.968973 
L 231.514005 78.968973 
" style="fill: none; stroke: #1f77b4; stroke-width: 1.2; stroke-linecap: square"/>
    </g>
    <g id="text_16">
     <text style="font: 6px 'DejaVu Sans', 'Bitstream Vera Sans', 'Computer Modern Sans Serif', 'Lucida Grande', 'Verdana', 'Geneva', 'Lucid', 'Arial', 'Helvetica', 'Avant Garde', sans-serif; text-anchor: start" x="236.314005" y="81.068973" transform="rotate(-0 236.314005 81.068973)">Talc GDS23</text>
    </g>
   </g>
  </g>
 </g>
 <defs>
  <clipPath id="pe2931a9e3e">
   <rect x="35.58575" y="12.07875" width="175.027701" height="134.669197"/>
  </clipPath>
 </defs>
</svg>
