<?xml version="1.0" encoding="utf-8" standalone="no"?>
<!DOCTYPE svg PUBLIC "-//W3C//DTD SVG 1.1//EN"
  "http://www.w3.org/Graphics/SVG/1.1/DTD/svg11.dtd">
<svg xmlns:xlink="http://www.w3.org/1999/xlink" width="332.524681pt" height="177.409447pt" viewBox="0 0 332.524681 177.409447" xmlns="http://www.w3.org/2000/svg" version="1.1">
 <metadata>
  <rdf:RDF xmlns:dc="http://purl.org/dc/elements/1.1/" xmlns:cc="http://creativecommons.org/ns#" xmlns:rdf="http://www.w3.org/1999/02/22-rdf-syntax-ns#">
   <cc:Work>
    <dc:type rdf:resource="http://purl.org/dc/dcmitype/StillImage"/>
    <dc:date>2025-02-15T18:14:10.445352</dc:date>
    <dc:format>image/svg+xml</dc:format>
    <dc:creator>
     <cc:Agent>
      <dc:title>Matplotlib v3.6.2, https://matplotlib.org/</dc:title>
     </cc:Agent>
    </dc:creator>
   </cc:Work>
  </rdf:RDF>
 </metadata>
 <defs>
  <style type="text/css">*{stroke-linejoin: round; stroke-linecap: butt}</style>
 </defs>
 <g id="figure_1">
  <g id="patch_1">
   <path d="M 0 177.409447 
L 332.524681 177.409447 
L 332.524681 0 
L 0 0 
z
" style="fill: #ffffff"/>
  </g>
  <g id="axes_1">
   <g id="patch_2">
    <path d="M 41.710375 145.084197 
L 276.171332 145.084197 
L 276.171332 12.5975 
L 41.710375 12.5975 
z
" style="fill: #ffffff"/>
   </g>
   <g id="matplotlib.axis_1">
    <g id="xtick_1">
     <g id="line2d_1">
      <path d="M 57.538963 145.084197 
L 57.538963 12.5975 
" clip-path="url(#p0ad6abc884)" style="fill: none; stroke: #b0b0b0; stroke-width: 0.6; stroke-linecap: square"/>
     </g>
     <g id="line2d_2">
      <defs>
       <path id="mcbd4a4c8fb" d="M 0 0 
L 0 4.8 
" style="stroke: #000000"/>
      </defs>
      <g>
       <use xlink:href="#mcbd4a4c8fb" x="57.538963" y="145.084197" style="stroke: #000000"/>
      </g>
     </g>
     <g id="text_1">
      <text style="font: 8.8px 'Futura', sans-serif; text-anchor: middle" x="57.538963" y="160.641447" transform="rotate(-0 57.538963 160.641447)">1000</text>
     </g>
    </g>
    <g id="xtick_2">
     <g id="line2d_3">
      <path d="M 107.0033 145.084197 
L 107.0033 12.5975 
" clip-path="url(#p0ad6abc884)" style="fill: none; stroke: #b0b0b0; stroke-width: 0.6; stroke-linecap: square"/>
     </g>
     <g id="line2d_4">
      <g>
       <use xlink:href="#mcbd4a4c8fb" x="107.0033" y="145.084197" style="stroke: #000000"/>
      </g>
     </g>
     <g id="text_2">
      <text style="font: 8.8px 'Futura', sans-serif; text-anchor: middle" x="107.0033" y="160.641447" transform="rotate(-0 107.0033 160.641447)">1500</text>
     </g>
    </g>
    <g id="xtick_3">
     <g id="line2d_5">
      <path d="M 156.467637 145.084197 
L 156.467637 12.5975 
" clip-path="url(#p0ad6abc884)" style="fill: none; stroke: #b0b0b0; stroke-width: 0.6; stroke-linecap: square"/>
     </g>
     <g id="line2d_6">
      <g>
       <use xlink:href="#mcbd4a4c8fb" x="156.467637" y="145.084197" style="stroke: #000000"/>
      </g>
     </g>
     <g id="text_3">
      <text style="font: 8.8px 'Futura', sans-serif; text-anchor: middle" x="156.467637" y="160.641447" transform="rotate(-0 156.467637 160.641447)">2000</text>
     </g>
    </g>
    <g id="xtick_4">
     <g id="line2d_7">
      <path d="M 205.931974 145.084197 
L 205.931974 12.5975 
" clip-path="url(#p0ad6abc884)" style="fill: none; stroke: #b0b0b0; stroke-width: 0.6; stroke-linecap: square"/>
     </g>
     <g id="line2d_8">
      <g>
       <use xlink:href="#mcbd4a4c8fb" x="205.931974" y="145.084197" style="stroke: #000000"/>
      </g>
     </g>
     <g id="text_4">
      <text style="font: 8.8px 'Futura', sans-serif; text-anchor: middle" x="205.931974" y="160.641447" transform="rotate(-0 205.931974 160.641447)">2500</text>
     </g>
    </g>
    <g id="xtick_5">
     <g id="line2d_9">
      <path d="M 255.396311 145.084197 
L 255.396311 12.5975 
" clip-path="url(#p0ad6abc884)" style="fill: none; stroke: #b0b0b0; stroke-width: 0.6; stroke-linecap: square"/>
     </g>
     <g id="line2d_10">
      <g>
       <use xlink:href="#mcbd4a4c8fb" x="255.396311" y="145.084197" style="stroke: #000000"/>
      </g>
     </g>
     <g id="text_5">
      <text style="font: 8.8px 'Futura', sans-serif; text-anchor: middle" x="255.396311" y="160.641447" transform="rotate(-0 255.396311 160.641447)">3000</text>
     </g>
    </g>
    <g id="xtick_6">
     <g id="line2d_11">
      <path d="M 47.646095 145.084197 
L 47.646095 12.5975 
" clip-path="url(#p0ad6abc884)" style="fill: none; stroke: #b0b0b0; stroke-width: 0.3; stroke-linecap: square"/>
     </g>
     <g id="line2d_12">
      <defs>
       <path id="m2aff1ce903" d="M 0 0 
L 0 3.2 
" style="stroke: #000000; stroke-width: 0.8"/>
      </defs>
      <g>
       <use xlink:href="#m2aff1ce903" x="47.646095" y="145.084197" style="stroke: #000000; stroke-width: 0.8"/>
      </g>
     </g>
    </g>
    <g id="xtick_7">
     <g id="line2d_13">
      <path d="M 67.43183 145.084197 
L 67.43183 12.5975 
" clip-path="url(#p0ad6abc884)" style="fill: none; stroke: #b0b0b0; stroke-width: 0.3; stroke-linecap: square"/>
     </g>
     <g id="line2d_14">
      <g>
       <use xlink:href="#m2aff1ce903" x="67.43183" y="145.084197" style="stroke: #000000; stroke-width: 0.8"/>
      </g>
     </g>
    </g>
    <g id="xtick_8">
     <g id="line2d_15">
      <path d="M 77.324698 145.084197 
L 77.324698 12.5975 
" clip-path="url(#p0ad6abc884)" style="fill: none; stroke: #b0b0b0; stroke-width: 0.3; stroke-linecap: square"/>
     </g>
     <g id="line2d_16">
      <g>
       <use xlink:href="#m2aff1ce903" x="77.324698" y="145.084197" style="stroke: #000000; stroke-width: 0.8"/>
      </g>
     </g>
    </g>
    <g id="xtick_9">
     <g id="line2d_17">
      <path d="M 87.217565 145.084197 
L 87.217565 12.5975 
" clip-path="url(#p0ad6abc884)" style="fill: none; stroke: #b0b0b0; stroke-width: 0.3; stroke-linecap: square"/>
     </g>
     <g id="line2d_18">
      <g>
       <use xlink:href="#m2aff1ce903" x="87.217565" y="145.084197" style="stroke: #000000; stroke-width: 0.8"/>
      </g>
     </g>
    </g>
    <g id="xtick_10">
     <g id="line2d_19">
      <path d="M 97.110432 145.084197 
L 97.110432 12.5975 
" clip-path="url(#p0ad6abc884)" style="fill: none; stroke: #b0b0b0; stroke-width: 0.3; stroke-linecap: square"/>
     </g>
     <g id="line2d_20">
      <g>
       <use xlink:href="#m2aff1ce903" x="97.110432" y="145.084197" style="stroke: #000000; stroke-width: 0.8"/>
      </g>
     </g>
    </g>
    <g id="xtick_11">
     <g id="line2d_21">
      <path d="M 116.896167 145.084197 
L 116.896167 12.5975 
" clip-path="url(#p0ad6abc884)" style="fill: none; stroke: #b0b0b0; stroke-width: 0.3; stroke-linecap: square"/>
     </g>
     <g id="line2d_22">
      <g>
       <use xlink:href="#m2aff1ce903" x="116.896167" y="145.084197" style="stroke: #000000; stroke-width: 0.8"/>
      </g>
     </g>
    </g>
    <g id="xtick_12">
     <g id="line2d_23">
      <path d="M 126.789035 145.084197 
L 126.789035 12.5975 
" clip-path="url(#p0ad6abc884)" style="fill: none; stroke: #b0b0b0; stroke-width: 0.3; stroke-linecap: square"/>
     </g>
     <g id="line2d_24">
      <g>
       <use xlink:href="#m2aff1ce903" x="126.789035" y="145.084197" style="stroke: #000000; stroke-width: 0.8"/>
      </g>
     </g>
    </g>
    <g id="xtick_13">
     <g id="line2d_25">
      <path d="M 136.681902 145.084197 
L 136.681902 12.5975 
" clip-path="url(#p0ad6abc884)" style="fill: none; stroke: #b0b0b0; stroke-width: 0.3; stroke-linecap: square"/>
     </g>
     <g id="line2d_26">
      <g>
       <use xlink:href="#m2aff1ce903" x="136.681902" y="145.084197" style="stroke: #000000; stroke-width: 0.8"/>
      </g>
     </g>
    </g>
    <g id="xtick_14">
     <g id="line2d_27">
      <path d="M 146.574769 145.084197 
L 146.574769 12.5975 
" clip-path="url(#p0ad6abc884)" style="fill: none; stroke: #b0b0b0; stroke-width: 0.3; stroke-linecap: square"/>
     </g>
     <g id="line2d_28">
      <g>
       <use xlink:href="#m2aff1ce903" x="146.574769" y="145.084197" style="stroke: #000000; stroke-width: 0.8"/>
      </g>
     </g>
    </g>
    <g id="xtick_15">
     <g id="line2d_29">
      <path d="M 166.360504 145.084197 
L 166.360504 12.5975 
" clip-path="url(#p0ad6abc884)" style="fill: none; stroke: #b0b0b0; stroke-width: 0.3; stroke-linecap: square"/>
     </g>
     <g id="line2d_30">
      <g>
       <use xlink:href="#m2aff1ce903" x="166.360504" y="145.084197" style="stroke: #000000; stroke-width: 0.8"/>
      </g>
     </g>
    </g>
    <g id="xtick_16">
     <g id="line2d_31">
      <path d="M 176.253371 145.084197 
L 176.253371 12.5975 
" clip-path="url(#p0ad6abc884)" style="fill: none; stroke: #b0b0b0; stroke-width: 0.3; stroke-linecap: square"/>
     </g>
     <g id="line2d_32">
      <g>
       <use xlink:href="#m2aff1ce903" x="176.253371" y="145.084197" style="stroke: #000000; stroke-width: 0.8"/>
      </g>
     </g>
    </g>
    <g id="xtick_17">
     <g id="line2d_33">
      <path d="M 186.146239 145.084197 
L 186.146239 12.5975 
" clip-path="url(#p0ad6abc884)" style="fill: none; stroke: #b0b0b0; stroke-width: 0.3; stroke-linecap: square"/>
     </g>
     <g id="line2d_34">
      <g>
       <use xlink:href="#m2aff1ce903" x="186.146239" y="145.084197" style="stroke: #000000; stroke-width: 0.8"/>
      </g>
     </g>
    </g>
    <g id="xtick_18">
     <g id="line2d_35">
      <path d="M 196.039106 145.084197 
L 196.039106 12.5975 
" clip-path="url(#p0ad6abc884)" style="fill: none; stroke: #b0b0b0; stroke-width: 0.3; stroke-linecap: square"/>
     </g>
     <g id="line2d_36">
      <g>
       <use xlink:href="#m2aff1ce903" x="196.039106" y="145.084197" style="stroke: #000000; stroke-width: 0.8"/>
      </g>
     </g>
    </g>
    <g id="xtick_19">
     <g id="line2d_37">
      <path d="M 215.824841 145.084197 
L 215.824841 12.5975 
" clip-path="url(#p0ad6abc884)" style="fill: none; stroke: #b0b0b0; stroke-width: 0.3; stroke-linecap: square"/>
     </g>
     <g id="line2d_38">
      <g>
       <use xlink:href="#m2aff1ce903" x="215.824841" y="145.084197" style="stroke: #000000; stroke-width: 0.8"/>
      </g>
     </g>
    </g>
    <g id="xtick_20">
     <g id="line2d_39">
      <path d="M 225.717708 145.084197 
L 225.717708 12.5975 
" clip-path="url(#p0ad6abc884)" style="fill: none; stroke: #b0b0b0; stroke-width: 0.3; stroke-linecap: square"/>
     </g>
     <g id="line2d_40">
      <g>
       <use xlink:href="#m2aff1ce903" x="225.717708" y="145.084197" style="stroke: #000000; stroke-width: 0.8"/>
      </g>
     </g>
    </g>
    <g id="xtick_21">
     <g id="line2d_41">
      <path d="M 235.610576 145.084197 
L 235.610576 12.5975 
" clip-path="url(#p0ad6abc884)" style="fill: none; stroke: #b0b0b0; stroke-width: 0.3; stroke-linecap: square"/>
     </g>
     <g id="line2d_42">
      <g>
       <use xlink:href="#m2aff1ce903" x="235.610576" y="145.084197" style="stroke: #000000; stroke-width: 0.8"/>
      </g>
     </g>
    </g>
    <g id="xtick_22">
     <g id="line2d_43">
      <path d="M 245.503443 145.084197 
L 245.503443 12.5975 
" clip-path="url(#p0ad6abc884)" style="fill: none; stroke: #b0b0b0; stroke-width: 0.3; stroke-linecap: square"/>
     </g>
     <g id="line2d_44">
      <g>
       <use xlink:href="#m2aff1ce903" x="245.503443" y="145.084197" style="stroke: #000000; stroke-width: 0.8"/>
      </g>
     </g>
    </g>
    <g id="xtick_23">
     <g id="line2d_45">
      <path d="M 265.289178 145.084197 
L 265.289178 12.5975 
" clip-path="url(#p0ad6abc884)" style="fill: none; stroke: #b0b0b0; stroke-width: 0.3; stroke-linecap: square"/>
     </g>
     <g id="line2d_46">
      <g>
       <use xlink:href="#m2aff1ce903" x="265.289178" y="145.084197" style="stroke: #000000; stroke-width: 0.8"/>
      </g>
     </g>
    </g>
    <g id="xtick_24">
     <g id="line2d_47">
      <path d="M 275.182045 145.084197 
L 275.182045 12.5975 
" clip-path="url(#p0ad6abc884)" style="fill: none; stroke: #b0b0b0; stroke-width: 0.3; stroke-linecap: square"/>
     </g>
     <g id="line2d_48">
      <g>
       <use xlink:href="#m2aff1ce903" x="275.182045" y="145.084197" style="stroke: #000000; stroke-width: 0.8"/>
      </g>
     </g>
    </g>
    <g id="text_6">
     <text style="font: 9.6px 'Futura', sans-serif; text-anchor: middle" x="158.940854" y="174.914947" transform="rotate(-0 158.940854 174.914947)">Wavelength (nm)</text>
    </g>
   </g>
   <g id="matplotlib.axis_2">
    <g id="ytick_1">
     <g id="line2d_49">
      <defs>
       <path id="mcd21360c4d" d="M 0 0 
L -4.8 0 
" style="stroke: #000000"/>
      </defs>
      <g>
       <use xlink:href="#mcd21360c4d" x="41.710375" y="145.084197" style="stroke: #000000"/>
      </g>
     </g>
     <g id="text_7">
      <text style="font: 8.8px 'Futura', sans-serif; text-anchor: end" x="33.410375" y="148.712822" transform="rotate(-0 33.410375 148.712822)">0.00</text>
     </g>
    </g>
    <g id="ytick_2">
     <g id="line2d_50">
      <g>
       <use xlink:href="#mcd21360c4d" x="41.710375" y="118.673048" style="stroke: #000000"/>
      </g>
     </g>
     <g id="text_8">
      <text style="font: 8.8px 'Futura', sans-serif; text-anchor: end" x="33.410375" y="122.301673" transform="rotate(-0 33.410375 122.301673)">0.02</text>
     </g>
    </g>
    <g id="ytick_3">
     <g id="line2d_51">
      <g>
       <use xlink:href="#mcd21360c4d" x="41.710375" y="92.2619" style="stroke: #000000"/>
      </g>
     </g>
     <g id="text_9">
      <text style="font: 8.8px 'Futura', sans-serif; text-anchor: end" x="33.410375" y="95.890525" transform="rotate(-0 33.410375 95.890525)">0.04</text>
     </g>
    </g>
    <g id="ytick_4">
     <g id="line2d_52">
      <g>
       <use xlink:href="#mcd21360c4d" x="41.710375" y="65.850751" style="stroke: #000000"/>
      </g>
     </g>
     <g id="text_10">
      <text style="font: 8.8px 'Futura', sans-serif; text-anchor: end" x="33.410375" y="69.479376" transform="rotate(-0 33.410375 69.479376)">0.06</text>
     </g>
    </g>
    <g id="ytick_5">
     <g id="line2d_53">
      <g>
       <use xlink:href="#mcd21360c4d" x="41.710375" y="39.439603" style="stroke: #000000"/>
      </g>
     </g>
     <g id="text_11">
      <text style="font: 8.8px 'Futura', sans-serif; text-anchor: end" x="33.410375" y="43.068228" transform="rotate(-0 33.410375 43.068228)">0.08</text>
     </g>
    </g>
    <g id="ytick_6">
     <g id="line2d_54">
      <g>
       <use xlink:href="#mcd21360c4d" x="41.710375" y="13.028454" style="stroke: #000000"/>
      </g>
     </g>
     <g id="text_12">
      <text style="font: 8.8px 'Futura', sans-serif; text-anchor: end" x="33.410375" y="16.657079" transform="rotate(-0 33.410375 16.657079)">0.10</text>
     </g>
    </g>
    <g id="text_13">
     <text style="font: 9.6px 'Futura', sans-serif; text-anchor: middle" x="7.917" y="78.840848" transform="rotate(-90 7.917 78.840848)">Stacked Reflectance</text>
    </g>
   </g>
   <g id="line2d_55">
    <path d="M 42.699662 39.480518 
L 43.194305 39.974432 
L 43.787877 39.24706 
L 44.282521 39.107072 
L 44.678235 38.796477 
L 45.172879 39.639003 
L 45.667522 39.211128 
L 46.360023 40.151099 
L 47.547167 40.956639 
L 47.745024 40.964298 
L 48.140739 40.840689 
L 48.734311 41.467169 
L 49.228954 41.447641 
L 49.624669 41.213112 
L 50.119312 41.683216 
L 50.613956 43.009069 
L 51.108599 42.668367 
L 52.295743 45.284119 
L 52.691458 46.407109 
L 53.087172 46.69343 
L 53.779673 48.194101 
L 54.076459 48.539565 
L 55.659318 53.51358 
L 56.055033 53.669932 
L 56.648605 55.623816 
L 57.538963 59.621652 
L 58.033606 60.27535 
L 59.022893 63.768206 
L 59.616465 64.97626 
L 60.506823 67.773472 
L 61.001466 68.41922 
L 62.386468 72.769392 
L 62.683254 73.390055 
L 63.474683 74.835809 
L 64.266113 76.735044 
L 65.057542 78.780586 
L 65.552185 79.600664 
L 66.442543 81.760795 
L 66.937187 81.875714 
L 68.22326 84.049855 
L 68.91576 84.980326 
L 69.70719 86.269712 
L 70.696476 87.643383 
L 70.993262 88.17688 
L 71.487906 88.597593 
L 72.477193 90.078995 
L 72.872907 90.274452 
L 73.565408 91.604508 
L 73.961123 92.244447 
L 74.455766 93.478397 
L 74.950409 93.867948 
L 75.445053 94.041459 
L 76.038625 94.897713 
L 77.324698 97.309043 
L 77.819341 97.24568 
L 78.313984 98.098754 
L 78.808628 97.701262 
L 79.797914 99.159153 
L 80.787201 99.363842 
L 81.578631 100.184967 
L 81.974345 100.358226 
L 82.567917 100.579295 
L 83.260418 100.900957 
L 83.755061 100.84948 
L 84.348633 101.313782 
L 84.843277 101.177486 
L 85.33792 101.297938 
L 86.030421 100.739079 
L 86.920779 99.909761 
L 87.316494 99.798825 
L 87.811137 99.319732 
L 88.503638 98.382681 
L 88.899352 97.825925 
L 89.393996 97.149794 
L 89.78971 96.782944 
L 90.185425 96.168082 
L 90.680069 96.507486 
L 91.273641 95.155484 
L 91.768284 94.580537 
L 92.262927 93.655356 
L 92.757571 93.156704 
L 93.351143 92.254483 
L 93.647929 91.997758 
L 94.340429 89.577974 
L 94.736144 88.226783 
L 95.131859 88.149678 
L 95.725431 86.844171 
L 96.220074 85.522041 
L 96.615789 85.464991 
L 97.209361 83.450326 
L 97.605076 83.151349 
L 98.495434 79.810627 
L 98.693291 79.28108 
L 99.187935 78.581179 
L 100.770793 74.473446 
L 101.067579 74.112137 
L 102.551509 69.820322 
L 103.145081 68.876942 
L 104.134368 66.699841 
L 104.629012 65.616466 
L 105.420441 63.309185 
L 105.816156 62.068394 
L 106.409728 60.458369 
L 106.607585 60.146192 
L 107.0033 59.846176 
L 108.289373 56.59653 
L 108.586159 56.052714 
L 108.981873 55.753737 
L 109.575445 53.475279 
L 110.070089 52.933839 
L 110.564732 52.067298 
L 110.960447 51.82112 
L 111.554019 49.516231 
L 112.048662 49.408216 
L 112.93902 48.51973 
L 113.433664 46.528333 
L 113.928307 47.481803 
L 114.521879 46.062448 
L 115.016522 45.534767 
L 115.412237 44.814275 
L 115.90688 45.181385 
L 116.896167 43.21242 
L 118.577955 40.510558 
L 118.973669 40.470935 
L 119.468313 40.574488 
L 120.457599 40.135262 
L 120.853314 40.509236 
L 121.347957 39.200581 
L 121.842601 40.176444 
L 122.831888 38.229952 
L 123.326531 39.215103 
L 123.42546 39.165184 
L 123.821174 38.965509 
L 124.513675 37.556726 
L 124.90939 36.802962 
L 125.502962 37.062332 
L 125.799748 37.281795 
L 127.481535 35.441996 
L 127.87725 35.309942 
L 128.371893 35.425639 
L 128.866537 35.262935 
L 129.262251 35.364347 
L 129.756895 34.461095 
L 130.449395 34.761371 
L 131.141896 34.683218 
L 131.537611 34.695363 
L 131.834397 34.838767 
L 132.32904 35.337136 
L 133.12047 35.387858 
L 133.318327 35.460752 
L 133.81297 35.72749 
L 134.307614 35.603102 
L 134.802257 35.778211 
L 135.395829 35.421129 
L 135.692615 35.159658 
L 136.484045 35.674407 
L 136.780831 35.725915 
L 137.473331 35.409771 
L 137.770117 35.2888 
L 138.165832 35.335302 
L 138.660475 36.371931 
L 139.254047 35.92559 
L 140.342263 35.976296 
L 140.737978 36.187589 
L 141.430478 36.07559 
L 142.02405 36.00272 
L 142.221908 36.027545 
L 142.617622 36.208172 
L 143.112266 35.538653 
L 144.101552 37.058609 
L 144.596196 35.835788 
L 145.288697 36.704966 
L 145.585483 36.917322 
L 146.080126 35.97314 
L 146.772627 36.96802 
L 147.069413 37.210482 
L 147.564056 36.105178 
L 148.355485 36.631552 
L 149.245843 36.837556 
L 149.641558 36.807181 
L 150.136202 36.491564 
L 150.630845 36.591669 
L 151.521203 36.09593 
L 152.015846 36.892252 
L 153.005133 36.328364 
L 153.499776 36.653206 
L 153.99442 35.950668 
L 154.587992 36.472311 
L 155.082635 36.36772 
L 155.577279 36.461197 
L 156.368708 36.060808 
L 156.863351 35.870382 
L 157.456923 35.722208 
L 158.44621 36.060273 
L 159.534426 35.819401 
L 159.93014 35.912375 
L 160.424784 35.06855 
L 161.117284 35.415848 
L 161.512999 35.516488 
L 162.007642 35.844502 
L 162.898 35.664119 
L 163.392644 35.977075 
L 163.986216 35.105253 
L 164.579788 35.207735 
L 164.975503 35.09761 
L 165.865861 34.459757 
L 166.65729 34.839838 
L 166.954076 34.848284 
L 167.844434 34.471642 
L 168.339078 34.711987 
L 168.833721 33.886659 
L 169.427293 34.391899 
L 169.921936 34.276202 
L 170.317651 34.455821 
L 170.911223 33.901717 
L 171.999438 33.871318 
L 172.494082 33.760926 
L 173.087654 33.689613 
L 173.681226 33.614617 
L 173.879083 33.549121 
L 174.472655 33.283423 
L 174.769441 33.254095 
L 175.363013 32.233059 
L 176.3523 31.825524 
L 176.748015 31.868815 
L 177.341587 30.986956 
L 177.935159 30.654716 
L 178.330874 30.40698 
L 178.825517 30.350992 
L 179.32016 30.081862 
L 179.715875 30.32379 
L 180.309447 29.497124 
L 180.80409 29.416814 
L 181.199805 29.623888 
L 181.793377 28.797757 
L 184.167665 27.753982 
L 184.959095 26.89983 
L 185.552667 26.295563 
L 186.344096 25.543633 
L 187.135526 25.469424 
L 187.729098 25.252299 
L 188.421598 24.760266 
L 188.817313 24.677336 
L 189.410885 24.785108 
L 189.8066 24.82525 
L 190.696958 24.733615 
L 191.092673 25.250213 
L 191.785173 24.424846 
L 192.378745 24.154661 
L 192.873389 23.929625 
L 193.170175 23.66314 
L 193.664818 23.100858 
L 194.060533 23.25614 
L 194.753033 22.575814 
L 195.049819 22.454582 
L 196.138035 20.71329 
L 196.830536 20.116918 
L 197.127322 20.015239 
L 197.621965 19.988312 
L 198.611252 19.235587 
L 199.996253 18.717407 
L 201.183397 17.386547 
L 201.579112 17.330536 
L 202.172684 16.916939 
L 202.568399 16.71595 
L 202.964113 16.232096 
L 203.458757 17.247629 
L 204.052329 16.234504 
L 204.74483 16.338017 
L 204.942687 16.40774 
L 205.635188 15.534579 
L 206.030902 15.062791 
L 206.426617 15.245213 
L 206.92126 14.357506 
L 207.415904 15.365956 
L 208.603048 14.451054 
L 208.899834 14.576205 
L 209.097691 13.909249 
L 209.19662 14.148464 
L 209.493406 15.509515 
L 209.691263 14.825406 
L 209.790192 14.478139 
L 209.889121 14.514063 
L 209.988049 14.520442 
L 210.284835 15.063732 
L 210.482693 14.541249 
L 210.68055 15.345929 
L 210.878407 16.495217 
L 210.977336 16.525608 
L 211.373051 14.951596 
L 211.669837 15.699564 
L 211.768765 15.595103 
L 212.065551 14.475702 
L 212.362337 14.879146 
L 212.659123 15.817594 
L 212.955909 16.241582 
L 213.252695 17.330659 
L 213.450553 15.659394 
L 213.549481 15.632431 
L 213.747339 16.598506 
L 214.044125 15.966021 
L 214.340911 17.589919 
L 214.538768 17.114184 
L 214.637697 17.737881 
L 214.736626 17.707965 
L 215.13234 15.821491 
L 215.231269 15.99456 
L 215.429126 17.976856 
L 215.528055 17.917943 
L 215.824841 16.436257 
L 215.92377 16.615053 
L 216.319484 18.192267 
L 216.418413 18.179762 
L 216.61627 17.747047 
L 216.715199 17.146783 
L 217.011985 17.392471 
L 217.209842 16.399922 
L 217.308771 16.450674 
L 217.605557 17.97305 
L 217.704486 17.64165 
L 218.001272 16.543989 
L 218.1002 16.44723 
L 218.199129 16.543879 
L 218.693773 18.088729 
L 218.990559 17.134871 
L 219.188416 15.947842 
L 219.485202 17.613343 
L 219.584131 17.552706 
L 219.880917 17.033771 
L 220.078774 17.830581 
L 220.177703 18.157953 
L 220.573417 17.379149 
L 220.771275 16.292631 
L 220.870203 16.584417 
L 221.166989 17.987466 
L 221.364847 18.44994 
L 221.463775 18.397504 
L 221.661633 17.972808 
L 221.760561 17.948832 
L 221.958419 17.420495 
L 222.057347 17.460858 
L 222.453062 18.985703 
L 222.749848 18.146112 
L 222.848777 18.234758 
L 222.947706 18.815039 
L 223.145563 17.740122 
L 223.244492 17.80088 
L 223.541278 19.221618 
L 223.640206 19.154656 
L 223.936992 18.69677 
L 224.431636 20.313011 
L 224.530564 20.246001 
L 224.728422 19.788825 
L 225.025208 19.971967 
L 225.223065 20.419316 
L 225.420922 20.263091 
L 225.717708 20.316743 
L 225.915566 20.768368 
L 226.113423 20.609667 
L 226.31128 21.180376 
L 226.410209 21.130749 
L 226.608066 21.007614 
L 227.003781 21.833146 
L 227.10271 21.936357 
L 227.300567 22.372562 
L 227.498425 21.882963 
L 227.597353 21.878091 
L 227.795211 22.388056 
L 227.993068 22.85158 
L 228.190925 22.195115 
L 228.289854 22.225037 
L 228.58664 23.267808 
L 228.784497 23.475528 
L 229.081283 24.107733 
L 229.279141 24.609558 
L 229.476998 24.589827 
L 229.575927 24.943176 
L 229.773784 26.129581 
L 229.872713 26.192234 
L 230.169499 25.285063 
L 230.268427 25.40115 
L 230.565213 26.434927 
L 230.763071 26.929325 
L 231.059857 27.848548 
L 231.257714 27.834516 
L 231.455571 28.387756 
L 231.752357 28.429863 
L 231.851286 28.294324 
L 231.950215 28.411106 
L 232.444858 30.248258 
L 232.543787 30.202733 
L 232.642716 30.23092 
L 232.741644 30.413189 
L 232.939502 31.036594 
L 233.137359 30.751664 
L 233.434145 31.558296 
L 233.632002 31.489876 
L 233.82986 31.961262 
L 234.126646 32.864595 
L 234.225574 32.808379 
L 234.324503 32.618239 
L 234.819146 33.619639 
L 234.918075 33.958958 
L 235.017004 33.907407 
L 235.214861 33.711279 
L 235.511647 34.166376 
L 236.105219 35.530803 
L 236.303076 35.470187 
L 236.500934 35.830631 
L 236.599862 35.740809 
L 236.79772 36.001177 
L 236.896649 36.20387 
L 237.193435 36.125478 
L 238.380579 39.323567 
L 238.578436 39.503112 
L 238.875222 39.379582 
L 239.073079 39.090217 
L 239.369865 39.931588 
L 239.666651 41.125295 
L 239.864509 41.271478 
L 239.963437 41.312131 
L 241.150581 43.486029 
L 241.348439 43.301282 
L 241.546296 43.925309 
L 241.744154 44.451031 
L 242.238797 45.114576 
L 242.436654 45.809916 
L 242.634512 45.534616 
L 242.832369 45.756122 
L 242.931298 45.861003 
L 243.030226 45.787069 
L 243.228084 46.232299 
L 243.52487 47.343879 
L 243.722727 47.559168 
L 244.118442 48.37953 
L 244.21737 48.3705 
L 244.514156 47.48923 
L 244.613085 47.578623 
L 245.206657 48.678405 
L 245.800229 49.176609 
L 246.097015 49.048252 
L 246.393801 49.970893 
L 246.591659 49.773798 
L 247.383088 50.503202 
L 247.679874 50.040804 
L 247.877731 50.384353 
L 248.075589 50.778599 
L 248.273446 50.712373 
L 248.372375 50.753545 
L 248.669161 51.732852 
L 248.867018 51.696148 
L 249.064875 51.562218 
L 249.361661 51.856473 
L 249.559519 51.789372 
L 249.856305 52.188591 
L 250.054162 52.266953 
L 250.252019 52.399513 
L 250.845592 52.310952 
L 251.142378 52.77439 
L 251.538092 52.640872 
L 251.73595 52.919007 
L 251.834878 52.913567 
L 252.032736 52.702176 
L 252.131664 52.761209 
L 252.42845 53.327243 
L 252.923094 53.065853 
L 253.022022 52.889937 
L 253.21988 53.213782 
L 253.417737 53.926134 
L 253.516666 54.025743 
L 253.813452 53.494265 
L 254.011309 53.597204 
L 254.209166 53.627085 
L 254.407024 53.567915 
L 255.099525 54.576107 
L 255.198453 54.414271 
L 255.495239 54.608421 
L 255.890954 53.927094 
L 256.18774 54.350921 
L 256.484526 54.281982 
L 256.781312 54.842245 
L 256.979169 54.533868 
L 257.275955 54.841967 
L 257.67167 54.475198 
L 257.869527 54.862345 
L 258.067385 54.558244 
L 258.364171 54.543002 
L 258.562028 54.715301 
L 259.056671 55.525958 
L 259.353457 54.708426 
L 259.452386 54.664657 
L 259.94703 55.194668 
L 260.144887 55.334104 
L 260.342744 55.586729 
L 260.441673 55.603586 
L 260.63953 55.172014 
L 260.738459 55.228535 
L 261.035245 55.366139 
L 261.529888 54.820352 
L 261.925603 55.200035 
L 262.222389 55.017279 
L 262.519175 55.354106 
L 262.91489 55.742618 
L 263.508462 55.895559 
L 264.003105 55.232435 
L 264.200963 55.498418 
L 264.596677 55.97935 
L 264.893463 55.529224 
L 265.091321 55.331893 
L 265.289178 55.489653 
L 265.981679 56.262643 
L 266.080607 56.231581 
L 266.773108 55.339764 
L 266.970965 55.531169 
L 267.267751 55.725157 
L 267.465609 55.663671 
L 267.564537 55.679377 
L 267.861323 56.099093 
L 268.257038 56.225636 
L 268.652753 55.471466 
L 269.147396 55.924509 
L 269.345254 55.977349 
L 269.444182 55.956048 
L 269.839897 55.368893 
L 270.136683 55.284597 
L 270.33454 55.571874 
L 270.532398 55.75245 
L 270.928112 55.715445 
L 271.224898 55.525416 
L 271.422756 55.655509 
L 271.719542 56.026894 
L 271.81847 55.924937 
L 272.313114 55.462088 
L 272.708828 56.21457 
L 273.401329 55.980238 
L 273.797044 55.523695 
L 274.09383 55.717399 
L 274.192759 55.834048 
L 274.588473 55.467137 
L 275.083117 56.749394 
L 275.083117 56.749394 
" clip-path="url(#p0ad6abc884)" style="fill: none; stroke: #1f77b4; stroke-width: 0.5; stroke-linecap: square"/>
   </g>
   <g id="line2d_56"/>
   <g id="patch_3">
    <path d="M 41.710375 145.084197 
L 41.710375 12.5975 
" style="fill: none; stroke: #000000; stroke-linejoin: miter; stroke-linecap: square"/>
   </g>
   <g id="patch_4">
    <path d="M 41.710375 145.084197 
L 276.171332 145.084197 
" style="fill: none; stroke: #000000; stroke-linejoin: miter; stroke-linecap: square"/>
   </g>
   <g id="text_14">
    <text style="font: 6px 'Futura', sans-serif; text-anchor: start" x="277.160619" y="58.443925" transform="rotate(-0 277.160619 58.443925)">Plagioclase NCLS04</text>
   </g>
   <g id="text_15">
    <text style="fill: #1f77b4; font: 7px 'Futura', sans-serif; text-anchor: start" x="277.160619" y="33.067997" transform="rotate(-0 277.160619 33.067997)">Plagioclase</text>
   </g>
   <g id="text_16">
    <text style="font: 8px 'Futura', sans-serif; text-anchor: middle" x="158.940854" y="6.5975" transform="rotate(-0 158.940854 6.5975)">Feldspars Stacked</text>
   </g>
  </g>
 </g>
 <defs>
  <clipPath id="p0ad6abc884">
   <rect x="41.710375" y="12.5975" width="234.460957" height="132.486697"/>
  </clipPath>
 </defs>
</svg>
