<?xml version="1.0" encoding="utf-8" standalone="no"?>
<!DOCTYPE svg PUBLIC "-//W3C//DTD SVG 1.1//EN"
  "http://www.w3.org/Graphics/SVG/1.1/DTD/svg11.dtd">
<svg xmlns:xlink="http://www.w3.org/1999/xlink" width="272.81613pt" height="177.409447pt" viewBox="0 0 272.81613 177.409447" xmlns="http://www.w3.org/2000/svg" version="1.1">
 <metadata>
  <rdf:RDF xmlns:dc="http://purl.org/dc/elements/1.1/" xmlns:cc="http://creativecommons.org/ns#" xmlns:rdf="http://www.w3.org/1999/02/22-rdf-syntax-ns#">
   <cc:Work>
    <dc:type rdf:resource="http://purl.org/dc/dcmitype/StillImage"/>
    <dc:date>2025-02-15T18:14:22.602552</dc:date>
    <dc:format>image/svg+xml</dc:format>
    <dc:creator>
     <cc:Agent>
      <dc:title>Matplotlib v3.6.2, https://matplotlib.org/</dc:title>
     </cc:Agent>
    </dc:creator>
   </cc:Work>
  </rdf:RDF>
 </metadata>
 <defs>
  <style type="text/css">*{stroke-linejoin: round; stroke-linecap: butt}</style>
 </defs>
 <g id="figure_1">
  <g id="patch_1">
   <path d="M 0 177.409447 
L 272.81613 177.409447 
L 272.81613 0 
L 0 0 
z
" style="fill: #ffffff"/>
  </g>
  <g id="axes_1">
   <g id="patch_2">
    <path d="M 36.279125 145.084197 
L 218.806826 145.084197 
L 218.806826 12.5975 
L 36.279125 12.5975 
z
" style="fill: #ffffff"/>
   </g>
   <g id="matplotlib.axis_1">
    <g id="xtick_1">
     <g id="line2d_1">
      <path d="M 48.60167 145.084197 
L 48.60167 12.5975 
" clip-path="url(#pd8c4604d48)" style="fill: none; stroke: #b0b0b0; stroke-width: 0.6; stroke-linecap: square"/>
     </g>
     <g id="line2d_2">
      <defs>
       <path id="m050b3481bb" d="M 0 0 
L 0 4.8 
" style="stroke: #000000"/>
      </defs>
      <g>
       <use xlink:href="#m050b3481bb" x="48.60167" y="145.084197" style="stroke: #000000"/>
      </g>
     </g>
     <g id="text_1">
      <text style="font: 8.8px 'Futura', sans-serif; text-anchor: middle" x="48.60167" y="160.641447" transform="rotate(-0 48.60167 160.641447)">1000</text>
     </g>
    </g>
    <g id="xtick_2">
     <g id="line2d_3">
      <path d="M 87.109624 145.084197 
L 87.109624 12.5975 
" clip-path="url(#pd8c4604d48)" style="fill: none; stroke: #b0b0b0; stroke-width: 0.6; stroke-linecap: square"/>
     </g>
     <g id="line2d_4">
      <g>
       <use xlink:href="#m050b3481bb" x="87.109624" y="145.084197" style="stroke: #000000"/>
      </g>
     </g>
     <g id="text_2">
      <text style="font: 8.8px 'Futura', sans-serif; text-anchor: middle" x="87.109624" y="160.641447" transform="rotate(-0 87.109624 160.641447)">1500</text>
     </g>
    </g>
    <g id="xtick_3">
     <g id="line2d_5">
      <path d="M 125.617578 145.084197 
L 125.617578 12.5975 
" clip-path="url(#pd8c4604d48)" style="fill: none; stroke: #b0b0b0; stroke-width: 0.6; stroke-linecap: square"/>
     </g>
     <g id="line2d_6">
      <g>
       <use xlink:href="#m050b3481bb" x="125.617578" y="145.084197" style="stroke: #000000"/>
      </g>
     </g>
     <g id="text_3">
      <text style="font: 8.8px 'Futura', sans-serif; text-anchor: middle" x="125.617578" y="160.641447" transform="rotate(-0 125.617578 160.641447)">2000</text>
     </g>
    </g>
    <g id="xtick_4">
     <g id="line2d_7">
      <path d="M 164.125531 145.084197 
L 164.125531 12.5975 
" clip-path="url(#pd8c4604d48)" style="fill: none; stroke: #b0b0b0; stroke-width: 0.6; stroke-linecap: square"/>
     </g>
     <g id="line2d_8">
      <g>
       <use xlink:href="#m050b3481bb" x="164.125531" y="145.084197" style="stroke: #000000"/>
      </g>
     </g>
     <g id="text_4">
      <text style="font: 8.8px 'Futura', sans-serif; text-anchor: middle" x="164.125531" y="160.641447" transform="rotate(-0 164.125531 160.641447)">2500</text>
     </g>
    </g>
    <g id="xtick_5">
     <g id="line2d_9">
      <path d="M 202.633485 145.084197 
L 202.633485 12.5975 
" clip-path="url(#pd8c4604d48)" style="fill: none; stroke: #b0b0b0; stroke-width: 0.6; stroke-linecap: square"/>
     </g>
     <g id="line2d_10">
      <g>
       <use xlink:href="#m050b3481bb" x="202.633485" y="145.084197" style="stroke: #000000"/>
      </g>
     </g>
     <g id="text_5">
      <text style="font: 8.8px 'Futura', sans-serif; text-anchor: middle" x="202.633485" y="160.641447" transform="rotate(-0 202.633485 160.641447)">3000</text>
     </g>
    </g>
    <g id="xtick_6">
     <g id="line2d_11">
      <path d="M 40.900079 145.084197 
L 40.900079 12.5975 
" clip-path="url(#pd8c4604d48)" style="fill: none; stroke: #b0b0b0; stroke-width: 0.3; stroke-linecap: square"/>
     </g>
     <g id="line2d_12">
      <defs>
       <path id="m1d5c7ddbc9" d="M 0 0 
L 0 3.2 
" style="stroke: #000000; stroke-width: 0.8"/>
      </defs>
      <g>
       <use xlink:href="#m1d5c7ddbc9" x="40.900079" y="145.084197" style="stroke: #000000; stroke-width: 0.8"/>
      </g>
     </g>
    </g>
    <g id="xtick_7">
     <g id="line2d_13">
      <path d="M 56.303261 145.084197 
L 56.303261 12.5975 
" clip-path="url(#pd8c4604d48)" style="fill: none; stroke: #b0b0b0; stroke-width: 0.3; stroke-linecap: square"/>
     </g>
     <g id="line2d_14">
      <g>
       <use xlink:href="#m1d5c7ddbc9" x="56.303261" y="145.084197" style="stroke: #000000; stroke-width: 0.8"/>
      </g>
     </g>
    </g>
    <g id="xtick_8">
     <g id="line2d_15">
      <path d="M 64.004852 145.084197 
L 64.004852 12.5975 
" clip-path="url(#pd8c4604d48)" style="fill: none; stroke: #b0b0b0; stroke-width: 0.3; stroke-linecap: square"/>
     </g>
     <g id="line2d_16">
      <g>
       <use xlink:href="#m1d5c7ddbc9" x="64.004852" y="145.084197" style="stroke: #000000; stroke-width: 0.8"/>
      </g>
     </g>
    </g>
    <g id="xtick_9">
     <g id="line2d_17">
      <path d="M 71.706442 145.084197 
L 71.706442 12.5975 
" clip-path="url(#pd8c4604d48)" style="fill: none; stroke: #b0b0b0; stroke-width: 0.3; stroke-linecap: square"/>
     </g>
     <g id="line2d_18">
      <g>
       <use xlink:href="#m1d5c7ddbc9" x="71.706442" y="145.084197" style="stroke: #000000; stroke-width: 0.8"/>
      </g>
     </g>
    </g>
    <g id="xtick_10">
     <g id="line2d_19">
      <path d="M 79.408033 145.084197 
L 79.408033 12.5975 
" clip-path="url(#pd8c4604d48)" style="fill: none; stroke: #b0b0b0; stroke-width: 0.3; stroke-linecap: square"/>
     </g>
     <g id="line2d_20">
      <g>
       <use xlink:href="#m1d5c7ddbc9" x="79.408033" y="145.084197" style="stroke: #000000; stroke-width: 0.8"/>
      </g>
     </g>
    </g>
    <g id="xtick_11">
     <g id="line2d_21">
      <path d="M 94.811215 145.084197 
L 94.811215 12.5975 
" clip-path="url(#pd8c4604d48)" style="fill: none; stroke: #b0b0b0; stroke-width: 0.3; stroke-linecap: square"/>
     </g>
     <g id="line2d_22">
      <g>
       <use xlink:href="#m1d5c7ddbc9" x="94.811215" y="145.084197" style="stroke: #000000; stroke-width: 0.8"/>
      </g>
     </g>
    </g>
    <g id="xtick_12">
     <g id="line2d_23">
      <path d="M 102.512805 145.084197 
L 102.512805 12.5975 
" clip-path="url(#pd8c4604d48)" style="fill: none; stroke: #b0b0b0; stroke-width: 0.3; stroke-linecap: square"/>
     </g>
     <g id="line2d_24">
      <g>
       <use xlink:href="#m1d5c7ddbc9" x="102.512805" y="145.084197" style="stroke: #000000; stroke-width: 0.8"/>
      </g>
     </g>
    </g>
    <g id="xtick_13">
     <g id="line2d_25">
      <path d="M 110.214396 145.084197 
L 110.214396 12.5975 
" clip-path="url(#pd8c4604d48)" style="fill: none; stroke: #b0b0b0; stroke-width: 0.3; stroke-linecap: square"/>
     </g>
     <g id="line2d_26">
      <g>
       <use xlink:href="#m1d5c7ddbc9" x="110.214396" y="145.084197" style="stroke: #000000; stroke-width: 0.8"/>
      </g>
     </g>
    </g>
    <g id="xtick_14">
     <g id="line2d_27">
      <path d="M 117.915987 145.084197 
L 117.915987 12.5975 
" clip-path="url(#pd8c4604d48)" style="fill: none; stroke: #b0b0b0; stroke-width: 0.3; stroke-linecap: square"/>
     </g>
     <g id="line2d_28">
      <g>
       <use xlink:href="#m1d5c7ddbc9" x="117.915987" y="145.084197" style="stroke: #000000; stroke-width: 0.8"/>
      </g>
     </g>
    </g>
    <g id="xtick_15">
     <g id="line2d_29">
      <path d="M 133.319168 145.084197 
L 133.319168 12.5975 
" clip-path="url(#pd8c4604d48)" style="fill: none; stroke: #b0b0b0; stroke-width: 0.3; stroke-linecap: square"/>
     </g>
     <g id="line2d_30">
      <g>
       <use xlink:href="#m1d5c7ddbc9" x="133.319168" y="145.084197" style="stroke: #000000; stroke-width: 0.8"/>
      </g>
     </g>
    </g>
    <g id="xtick_16">
     <g id="line2d_31">
      <path d="M 141.020759 145.084197 
L 141.020759 12.5975 
" clip-path="url(#pd8c4604d48)" style="fill: none; stroke: #b0b0b0; stroke-width: 0.3; stroke-linecap: square"/>
     </g>
     <g id="line2d_32">
      <g>
       <use xlink:href="#m1d5c7ddbc9" x="141.020759" y="145.084197" style="stroke: #000000; stroke-width: 0.8"/>
      </g>
     </g>
    </g>
    <g id="xtick_17">
     <g id="line2d_33">
      <path d="M 148.72235 145.084197 
L 148.72235 12.5975 
" clip-path="url(#pd8c4604d48)" style="fill: none; stroke: #b0b0b0; stroke-width: 0.3; stroke-linecap: square"/>
     </g>
     <g id="line2d_34">
      <g>
       <use xlink:href="#m1d5c7ddbc9" x="148.72235" y="145.084197" style="stroke: #000000; stroke-width: 0.8"/>
      </g>
     </g>
    </g>
    <g id="xtick_18">
     <g id="line2d_35">
      <path d="M 156.423941 145.084197 
L 156.423941 12.5975 
" clip-path="url(#pd8c4604d48)" style="fill: none; stroke: #b0b0b0; stroke-width: 0.3; stroke-linecap: square"/>
     </g>
     <g id="line2d_36">
      <g>
       <use xlink:href="#m1d5c7ddbc9" x="156.423941" y="145.084197" style="stroke: #000000; stroke-width: 0.8"/>
      </g>
     </g>
    </g>
    <g id="xtick_19">
     <g id="line2d_37">
      <path d="M 171.827122 145.084197 
L 171.827122 12.5975 
" clip-path="url(#pd8c4604d48)" style="fill: none; stroke: #b0b0b0; stroke-width: 0.3; stroke-linecap: square"/>
     </g>
     <g id="line2d_38">
      <g>
       <use xlink:href="#m1d5c7ddbc9" x="171.827122" y="145.084197" style="stroke: #000000; stroke-width: 0.8"/>
      </g>
     </g>
    </g>
    <g id="xtick_20">
     <g id="line2d_39">
      <path d="M 179.528713 145.084197 
L 179.528713 12.5975 
" clip-path="url(#pd8c4604d48)" style="fill: none; stroke: #b0b0b0; stroke-width: 0.3; stroke-linecap: square"/>
     </g>
     <g id="line2d_40">
      <g>
       <use xlink:href="#m1d5c7ddbc9" x="179.528713" y="145.084197" style="stroke: #000000; stroke-width: 0.8"/>
      </g>
     </g>
    </g>
    <g id="xtick_21">
     <g id="line2d_41">
      <path d="M 187.230304 145.084197 
L 187.230304 12.5975 
" clip-path="url(#pd8c4604d48)" style="fill: none; stroke: #b0b0b0; stroke-width: 0.3; stroke-linecap: square"/>
     </g>
     <g id="line2d_42">
      <g>
       <use xlink:href="#m1d5c7ddbc9" x="187.230304" y="145.084197" style="stroke: #000000; stroke-width: 0.8"/>
      </g>
     </g>
    </g>
    <g id="xtick_22">
     <g id="line2d_43">
      <path d="M 194.931894 145.084197 
L 194.931894 12.5975 
" clip-path="url(#pd8c4604d48)" style="fill: none; stroke: #b0b0b0; stroke-width: 0.3; stroke-linecap: square"/>
     </g>
     <g id="line2d_44">
      <g>
       <use xlink:href="#m1d5c7ddbc9" x="194.931894" y="145.084197" style="stroke: #000000; stroke-width: 0.8"/>
      </g>
     </g>
    </g>
    <g id="xtick_23">
     <g id="line2d_45">
      <path d="M 210.335076 145.084197 
L 210.335076 12.5975 
" clip-path="url(#pd8c4604d48)" style="fill: none; stroke: #b0b0b0; stroke-width: 0.3; stroke-linecap: square"/>
     </g>
     <g id="line2d_46">
      <g>
       <use xlink:href="#m1d5c7ddbc9" x="210.335076" y="145.084197" style="stroke: #000000; stroke-width: 0.8"/>
      </g>
     </g>
    </g>
    <g id="xtick_24">
     <g id="line2d_47">
      <path d="M 218.036667 145.084197 
L 218.036667 12.5975 
" clip-path="url(#pd8c4604d48)" style="fill: none; stroke: #b0b0b0; stroke-width: 0.3; stroke-linecap: square"/>
     </g>
     <g id="line2d_48">
      <g>
       <use xlink:href="#m1d5c7ddbc9" x="218.036667" y="145.084197" style="stroke: #000000; stroke-width: 0.8"/>
      </g>
     </g>
    </g>
    <g id="text_6">
     <text style="font: 9.6px 'Futura', sans-serif; text-anchor: middle" x="127.542975" y="174.914947" transform="rotate(-0 127.542975 174.914947)">Wavelength (nm)</text>
    </g>
   </g>
   <g id="matplotlib.axis_2">
    <g id="ytick_1">
     <g id="line2d_49">
      <path d="M 36.279125 145.084197 
L 218.806826 145.084197 
" clip-path="url(#pd8c4604d48)" style="fill: none; stroke: #b0b0b0; stroke-width: 0.6; stroke-linecap: square"/>
     </g>
     <g id="line2d_50">
      <defs>
       <path id="m9ae1ed66ea" d="M 0 0 
L -4.8 0 
" style="stroke: #000000"/>
      </defs>
      <g>
       <use xlink:href="#m9ae1ed66ea" x="36.279125" y="145.084197" style="stroke: #000000"/>
      </g>
     </g>
     <g id="text_7">
      <text style="font: 8.8px 'Futura', sans-serif; text-anchor: end" x="27.979125" y="148.712822" transform="rotate(-0 27.979125 148.712822)">0.0</text>
     </g>
    </g>
    <g id="ytick_2">
     <g id="line2d_51">
      <path d="M 36.279125 117.381579 
L 218.806826 117.381579 
" clip-path="url(#pd8c4604d48)" style="fill: none; stroke: #b0b0b0; stroke-width: 0.6; stroke-linecap: square"/>
     </g>
     <g id="line2d_52">
      <g>
       <use xlink:href="#m9ae1ed66ea" x="36.279125" y="117.381579" style="stroke: #000000"/>
      </g>
     </g>
     <g id="text_8">
      <text style="font: 8.8px 'Futura', sans-serif; text-anchor: end" x="27.979125" y="121.010204" transform="rotate(-0 27.979125 121.010204)">0.2</text>
     </g>
    </g>
    <g id="ytick_3">
     <g id="line2d_53">
      <path d="M 36.279125 89.67896 
L 218.806826 89.67896 
" clip-path="url(#pd8c4604d48)" style="fill: none; stroke: #b0b0b0; stroke-width: 0.6; stroke-linecap: square"/>
     </g>
     <g id="line2d_54">
      <g>
       <use xlink:href="#m9ae1ed66ea" x="36.279125" y="89.67896" style="stroke: #000000"/>
      </g>
     </g>
     <g id="text_9">
      <text style="font: 8.8px 'Futura', sans-serif; text-anchor: end" x="27.979125" y="93.307585" transform="rotate(-0 27.979125 93.307585)">0.4</text>
     </g>
    </g>
    <g id="ytick_4">
     <g id="line2d_55">
      <path d="M 36.279125 61.976342 
L 218.806826 61.976342 
" clip-path="url(#pd8c4604d48)" style="fill: none; stroke: #b0b0b0; stroke-width: 0.6; stroke-linecap: square"/>
     </g>
     <g id="line2d_56">
      <g>
       <use xlink:href="#m9ae1ed66ea" x="36.279125" y="61.976342" style="stroke: #000000"/>
      </g>
     </g>
     <g id="text_10">
      <text style="font: 8.8px 'Futura', sans-serif; text-anchor: end" x="27.979125" y="65.604967" transform="rotate(-0 27.979125 65.604967)">0.6</text>
     </g>
    </g>
    <g id="ytick_5">
     <g id="line2d_57">
      <path d="M 36.279125 34.273724 
L 218.806826 34.273724 
" clip-path="url(#pd8c4604d48)" style="fill: none; stroke: #b0b0b0; stroke-width: 0.6; stroke-linecap: square"/>
     </g>
     <g id="line2d_58">
      <g>
       <use xlink:href="#m9ae1ed66ea" x="36.279125" y="34.273724" style="stroke: #000000"/>
      </g>
     </g>
     <g id="text_11">
      <text style="font: 8.8px 'Futura', sans-serif; text-anchor: end" x="27.979125" y="37.902349" transform="rotate(-0 27.979125 37.902349)">0.8</text>
     </g>
    </g>
    <g id="text_12">
     <text style="font: 9.6px 'Futura', sans-serif; text-anchor: middle" x="7.917" y="78.840848" transform="rotate(-90 7.917 78.840848)">Reflectance</text>
    </g>
   </g>
   <g id="line2d_59">
    <path d="M 37.049284 13.909249 
L 37.51138 14.469536 
L 37.973475 14.320941 
L 39.051698 14.43962 
L 39.975889 14.046161 
L 40.360968 14.102786 
L 42.055318 14.496633 
L 42.517414 14.36693 
L 43.133541 14.629234 
L 43.364588 14.601927 
L 44.134748 14.471001 
L 44.596843 14.770838 
L 44.904907 14.787862 
L 45.135954 14.719834 
L 45.59805 15.327902 
L 45.983129 15.357394 
L 46.445225 15.779703 
L 47.061352 16.051564 
L 47.600463 16.627494 
L 47.908527 16.780384 
L 48.293607 17.104623 
L 48.98675 16.807502 
L 49.756909 15.912846 
L 50.527068 15.794967 
L 50.989163 15.168085 
L 51.605291 14.923753 
L 51.99037 14.588801 
L 52.144402 14.542676 
L 52.606497 14.588884 
L 52.991577 14.543948 
L 53.376656 14.544085 
L 53.838752 14.44951 
L 54.146816 14.375764 
L 54.454879 14.300852 
L 54.839959 14.440807 
L 55.225038 14.343075 
L 55.995197 14.823634 
L 57.07342 14.789639 
L 57.612531 15.029131 
L 58.228659 15.087029 
L 60.000025 16.094077 
L 60.231072 16.450333 
L 60.693168 17.385239 
L 61.001231 17.892834 
L 62.079454 21.04309 
L 62.541549 21.170193 
L 63.003645 21.595315 
L 63.773804 21.668422 
L 64.235899 21.767405 
L 64.775011 21.964066 
L 65.391138 20.907458 
L 65.699202 20.700909 
L 66.084281 20.688165 
L 66.392345 20.698581 
L 66.85444 20.276896 
L 67.624599 19.32959 
L 69.241933 18.539516 
L 69.472981 18.5564 
L 69.858061 18.391301 
L 70.397172 18.453386 
L 71.321363 18.402632 
L 71.783458 18.458763 
L 72.32257 18.76033 
L 72.707649 18.960978 
L 73.323777 19.511394 
L 74.556031 21.541197 
L 76.943524 26.335863 
L 77.867715 27.683558 
L 78.406826 28.02635 
L 78.71489 28.103248 
L 79.022954 28.377097 
L 79.793113 30.906809 
L 80.79432 37.085532 
L 81.641495 42.787889 
L 81.872542 44.265844 
L 82.257622 47.912115 
L 83.027781 56.255899 
L 83.258829 56.455346 
L 84.028988 49.409623 
L 84.799147 47.261009 
L 85.415274 46.685153 
L 85.569306 46.596837 
L 85.954385 47.080829 
L 86.339465 48.689871 
L 86.416481 48.636261 
L 86.724544 48.421822 
L 87.417688 44.11518 
L 87.725751 42.643663 
L 88.110831 41.455442 
L 88.341878 41.096236 
L 89.035022 41.411022 
L 89.728165 42.580213 
L 89.882197 42.755822 
L 90.19026 42.849485 
L 90.652356 41.589976 
L 91.345499 38.065161 
L 92.038642 35.197347 
L 92.654769 33.468958 
L 92.962833 32.947564 
L 93.655976 31.201928 
L 96.659596 25.607336 
L 96.813628 25.403794 
L 97.429756 24.457905 
L 97.814835 23.828106 
L 98.276931 23.240083 
L 100.202328 21.875825 
L 100.74144 21.888011 
L 101.049503 22.095711 
L 101.434583 22.542689 
L 101.742646 22.588989 
L 102.897885 25.883728 
L 103.591028 28.740727 
L 104.438203 33.293666 
L 105.824489 40.788272 
L 106.132553 41.73422 
L 106.440617 42.196179 
L 106.74868 42.186708 
L 107.672871 40.143022 
L 108.674078 39.02428 
L 109.444237 37.03883 
L 110.368428 33.975016 
L 111.215603 32.357235 
L 111.908746 31.615671 
L 112.601889 31.217932 
L 113.141001 31.357308 
L 113.372048 31.55489 
L 114.373255 33.343794 
L 114.681319 34.403649 
L 115.066398 36.17594 
L 115.682526 39.780989 
L 117.453892 57.234591 
L 119.610337 82.257117 
L 121.073639 101.908009 
L 121.381703 103.034296 
L 121.458719 102.952378 
L 121.766782 102.624706 
L 122.228878 99.047975 
L 122.922021 90.626875 
L 123.538148 88.858957 
L 123.769196 88.221378 
L 124.539355 84.567252 
L 124.924435 81.918122 
L 125.38653 75.968491 
L 126.387737 60.842985 
L 127.157896 54.619958 
L 128.082087 50.763138 
L 128.929262 48.558083 
L 129.237325 48.026458 
L 129.930469 47.39864 
L 130.46958 47.668406 
L 131.008691 47.944476 
L 132.086914 47.840625 
L 132.317962 48.04633 
L 132.857073 48.807958 
L 133.85828 50.625447 
L 134.705455 52.498437 
L 135.090534 53.256236 
L 135.398598 53.853814 
L 135.937709 54.887988 
L 137.169964 57.013428 
L 139.326409 61.34274 
L 139.634473 61.588288 
L 140.327616 61.987585 
L 141.020759 62.785487 
L 142.175998 65.864645 
L 142.561077 66.36141 
L 142.946157 65.698509 
L 143.716316 62.458821 
L 144.409459 61.125694 
L 144.563491 61.006529 
L 145.256634 61.001311 
L 146.411873 62.812319 
L 146.796952 62.418532 
L 147.490095 59.809344 
L 147.952191 58.778822 
L 148.72235 57.688177 
L 149.569525 57.44503 
L 150.801779 57.899569 
L 151.417907 58.390971 
L 152.419114 60.575113 
L 153.8054 64.897449 
L 154.729591 69.210587 
L 155.653782 74.876681 
L 157.579179 88.434471 
L 158.272322 90.767817 
L 158.734418 91.687014 
L 159.581593 93.006964 
L 160.120704 93.350556 
L 160.505784 93.588392 
L 160.813847 93.958434 
L 161.661022 95.510084 
L 162.585213 97.459911 
L 163.201341 97.574375 
L 163.58642 97.423302 
L 164.125531 97.003563 
L 165.434802 95.458744 
L 165.819881 94.942269 
L 166.744072 94.599365 
L 167.745279 94.861203 
L 168.053343 95.152724 
L 168.515438 95.222273 
L 168.977534 95.737287 
L 169.285597 95.655922 
L 169.439629 95.898824 
L 169.670677 96.120244 
L 170.286804 96.35929 
L 170.7489 96.435269 
L 171.056963 96.344005 
L 171.288011 96.469951 
L 171.442043 96.603999 
L 171.67309 96.515115 
L 171.904138 96.840798 
L 172.212202 96.831651 
L 172.597281 97.071868 
L 174.060584 97.857228 
L 174.291631 97.782828 
L 174.368647 97.844602 
L 174.676711 98.37494 
L 174.984774 98.505998 
L 176.602108 101.895258 
L 177.526299 104.332097 
L 177.834363 105.036353 
L 178.219443 106.061764 
L 178.604522 107.324903 
L 179.605729 111.257636 
L 180.683952 116.754888 
L 181.377095 120.325948 
L 184.303699 133.68307 
L 184.919826 135.037027 
L 185.61297 136.192381 
L 186.691192 137.356509 
L 186.92224 137.489289 
L 187.153288 137.60361 
L 187.384336 137.737594 
L 187.769415 137.994289 
L 188.693606 138.354586 
L 188.847638 138.417782 
L 189.232717 138.771265 
L 190.850051 139.462817 
L 191.466179 139.993287 
L 191.697226 140.047269 
L 191.928274 139.996267 
L 192.159322 140.06171 
L 192.852465 139.638482 
L 193.237544 139.31962 
L 193.545608 139.272095 
L 194.392783 138.944893 
L 194.777863 138.900051 
L 195.00891 138.869897 
L 196.857292 137.413922 
L 197.550435 137.559898 
L 197.781483 137.583126 
L 198.166563 137.756169 
L 198.628658 137.783101 
L 198.859706 137.851234 
L 199.090753 137.970789 
L 199.475833 137.779849 
L 200.09196 137.366195 
L 200.400024 137.234105 
L 200.939135 137.13432 
L 201.555263 136.806648 
L 201.940342 136.625247 
L 202.402437 136.531219 
L 202.787517 136.373401 
L 203.557676 135.961166 
L 203.86574 135.802953 
L 204.096787 135.656147 
L 204.404851 135.514595 
L 204.943962 135.184775 
L 205.945169 134.51975 
L 206.484281 134.193673 
L 206.946376 133.946827 
L 207.25444 133.804411 
L 208.332662 133.661385 
L 208.94879 133.863847 
L 209.256853 133.73043 
L 209.487901 133.396657 
L 211.490315 129.920257 
L 211.875394 129.654149 
L 212.183458 129.32466 
L 213.723776 127.034244 
L 216.496349 120.813966 
L 217.959651 117.947207 
L 217.959651 117.947207 
" clip-path="url(#pd8c4604d48)" style="fill: none; stroke: #1f77b4; stroke-width: 0.5; stroke-linecap: square"/>
   </g>
   <g id="line2d_60"/>
   <g id="patch_3">
    <path d="M 36.279125 145.084197 
L 36.279125 12.5975 
" style="fill: none; stroke: #000000; stroke-linejoin: miter; stroke-linecap: square"/>
   </g>
   <g id="patch_4">
    <path d="M 36.279125 145.084197 
L 218.806826 145.084197 
" style="fill: none; stroke: #000000; stroke-linejoin: miter; stroke-linecap: square"/>
   </g>
   <g id="text_13">
    <text style="font: 8px 'Futura', sans-serif; text-anchor: middle" x="127.542975" y="6.5975" transform="rotate(-0 127.542975 6.5975)">Gypsum</text>
   </g>
   <g id="legend_1">
    <g id="patch_5">
     <path d="M 226.65738 84.491161 
L 271.61613 84.491161 
Q 272.81613 84.491161 272.81613 83.291161 
L 272.81613 74.390536 
Q 272.81613 73.190536 271.61613 73.190536 
L 226.65738 73.190536 
Q 225.45738 73.190536 225.45738 74.390536 
L 225.45738 83.291161 
Q 225.45738 84.491161 226.65738 84.491161 
z
" style="fill: #ffffff; opacity: 0.8; stroke: #cccccc; stroke-width: 0.8; stroke-linejoin: miter"/>
    </g>
    <g id="line2d_61">
     <path d="M 227.85738 78.438661 
L 233.85738 78.438661 
L 239.85738 78.438661 
" style="fill: none; stroke: #1f77b4; stroke-width: 1.2; stroke-linecap: square"/>
    </g>
    <g id="text_14">
     <text style="font: 6px 'Futura', sans-serif; text-anchor: start" x="244.65738" y="80.538661" transform="rotate(-0 244.65738 80.538661)">LASF41A</text>
    </g>
   </g>
  </g>
 </g>
 <defs>
  <clipPath id="pd8c4604d48">
   <rect x="36.279125" y="12.5975" width="182.527701" height="132.486697"/>
  </clipPath>
 </defs>
</svg>
