<?xml version="1.0" encoding="utf-8" standalone="no"?>
<!DOCTYPE svg PUBLIC "-//W3C//DTD SVG 1.1//EN"
  "http://www.w3.org/Graphics/SVG/1.1/DTD/svg11.dtd">
<svg xmlns:xlink="http://www.w3.org/1999/xlink" width="205.988654pt" height="185.92906pt" viewBox="0 0 205.988654 185.92906" xmlns="http://www.w3.org/2000/svg" version="1.1">
 <metadata>
  <rdf:RDF xmlns:dc="http://purl.org/dc/elements/1.1/" xmlns:cc="http://creativecommons.org/ns#" xmlns:rdf="http://www.w3.org/1999/02/22-rdf-syntax-ns#">
   <cc:Work>
    <dc:type rdf:resource="http://purl.org/dc/dcmitype/StillImage"/>
    <dc:date>2025-02-18T15:06:53.217071</dc:date>
    <dc:format>image/svg+xml</dc:format>
    <dc:creator>
     <cc:Agent>
      <dc:title>Matplotlib v3.6.2, https://matplotlib.org/</dc:title>
     </cc:Agent>
    </dc:creator>
   </cc:Work>
  </rdf:RDF>
 </metadata>
 <defs>
  <style type="text/css">*{stroke-linejoin: round; stroke-linecap: butt}</style>
 </defs>
 <g id="figure_1">
  <g id="patch_1">
   <path d="M 0 185.92906 
L 205.988654 185.92906 
L 205.988654 0 
L 0 0 
z
" style="fill: #ffffff"/>
  </g>
  <g id="axes_1">
   <g id="patch_2">
    <path d="M 34.933 130.398193 
L 205.988654 130.398193 
L 205.988654 12.5975 
L 34.933 12.5975 
z
" style="fill: #ffffff"/>
   </g>
   <g id="matplotlib.axis_1">
    <g id="xtick_1">
     <g id="line2d_1">
      <path d="M 46.013528 130.398193 
L 46.013528 12.5975 
" clip-path="url(#pf8b09b6b2a)" style="fill: none; stroke: #b0b0b0; stroke-width: 0.6; stroke-linecap: square"/>
     </g>
     <g id="line2d_2">
      <defs>
       <path id="m0e2bceab98" d="M 0 0 
L 0 4.8 
" style="stroke: #000000"/>
      </defs>
      <g>
       <use xlink:href="#m0e2bceab98" x="46.013528" y="130.398193" style="stroke: #000000"/>
      </g>
     </g>
     <g id="text_1">
      <text style="font: 8.8px 'Arial'; text-anchor: middle" x="46.013528" y="144.997068" transform="rotate(-0 46.013528 144.997068)">1000</text>
     </g>
    </g>
    <g id="xtick_2">
     <g id="line2d_3">
      <path d="M 80.640179 130.398193 
L 80.640179 12.5975 
" clip-path="url(#pf8b09b6b2a)" style="fill: none; stroke: #b0b0b0; stroke-width: 0.6; stroke-linecap: square"/>
     </g>
     <g id="line2d_4">
      <g>
       <use xlink:href="#m0e2bceab98" x="80.640179" y="130.398193" style="stroke: #000000"/>
      </g>
     </g>
     <g id="text_2">
      <text style="font: 8.8px 'Arial'; text-anchor: middle" x="80.640179" y="144.997068" transform="rotate(-0 80.640179 144.997068)">1500</text>
     </g>
    </g>
    <g id="xtick_3">
     <g id="line2d_5">
      <path d="M 115.266829 130.398193 
L 115.266829 12.5975 
" clip-path="url(#pf8b09b6b2a)" style="fill: none; stroke: #b0b0b0; stroke-width: 0.6; stroke-linecap: square"/>
     </g>
     <g id="line2d_6">
      <g>
       <use xlink:href="#m0e2bceab98" x="115.266829" y="130.398193" style="stroke: #000000"/>
      </g>
     </g>
     <g id="text_3">
      <text style="font: 8.8px 'Arial'; text-anchor: middle" x="115.266829" y="144.997068" transform="rotate(-0 115.266829 144.997068)">2000</text>
     </g>
    </g>
    <g id="xtick_4">
     <g id="line2d_7">
      <path d="M 149.89348 130.398193 
L 149.89348 12.5975 
" clip-path="url(#pf8b09b6b2a)" style="fill: none; stroke: #b0b0b0; stroke-width: 0.6; stroke-linecap: square"/>
     </g>
     <g id="line2d_8">
      <g>
       <use xlink:href="#m0e2bceab98" x="149.89348" y="130.398193" style="stroke: #000000"/>
      </g>
     </g>
     <g id="text_4">
      <text style="font: 8.8px 'Arial'; text-anchor: middle" x="149.89348" y="144.997068" transform="rotate(-0 149.89348 144.997068)">2500</text>
     </g>
    </g>
    <g id="xtick_5">
     <g id="line2d_9">
      <path d="M 184.52013 130.398193 
L 184.52013 12.5975 
" clip-path="url(#pf8b09b6b2a)" style="fill: none; stroke: #b0b0b0; stroke-width: 0.6; stroke-linecap: square"/>
     </g>
     <g id="line2d_10">
      <g>
       <use xlink:href="#m0e2bceab98" x="184.52013" y="130.398193" style="stroke: #000000"/>
      </g>
     </g>
     <g id="text_5">
      <text style="font: 8.8px 'Arial'; text-anchor: middle" x="184.52013" y="144.997068" transform="rotate(-0 184.52013 144.997068)">3000</text>
     </g>
    </g>
    <g id="xtick_6">
     <g id="line2d_11">
      <path d="M 39.088198 130.398193 
L 39.088198 12.5975 
" clip-path="url(#pf8b09b6b2a)" style="fill: none; stroke: #b0b0b0; stroke-width: 0.3; stroke-linecap: square"/>
     </g>
     <g id="line2d_12">
      <defs>
       <path id="m18a4b55276" d="M 0 0 
L 0 3.2 
" style="stroke: #000000; stroke-width: 0.8"/>
      </defs>
      <g>
       <use xlink:href="#m18a4b55276" x="39.088198" y="130.398193" style="stroke: #000000; stroke-width: 0.8"/>
      </g>
     </g>
    </g>
    <g id="xtick_7">
     <g id="line2d_13">
      <path d="M 52.938858 130.398193 
L 52.938858 12.5975 
" clip-path="url(#pf8b09b6b2a)" style="fill: none; stroke: #b0b0b0; stroke-width: 0.3; stroke-linecap: square"/>
     </g>
     <g id="line2d_14">
      <g>
       <use xlink:href="#m18a4b55276" x="52.938858" y="130.398193" style="stroke: #000000; stroke-width: 0.8"/>
      </g>
     </g>
    </g>
    <g id="xtick_8">
     <g id="line2d_15">
      <path d="M 59.864188 130.398193 
L 59.864188 12.5975 
" clip-path="url(#pf8b09b6b2a)" style="fill: none; stroke: #b0b0b0; stroke-width: 0.3; stroke-linecap: square"/>
     </g>
     <g id="line2d_16">
      <g>
       <use xlink:href="#m18a4b55276" x="59.864188" y="130.398193" style="stroke: #000000; stroke-width: 0.8"/>
      </g>
     </g>
    </g>
    <g id="xtick_9">
     <g id="line2d_17">
      <path d="M 66.789518 130.398193 
L 66.789518 12.5975 
" clip-path="url(#pf8b09b6b2a)" style="fill: none; stroke: #b0b0b0; stroke-width: 0.3; stroke-linecap: square"/>
     </g>
     <g id="line2d_18">
      <g>
       <use xlink:href="#m18a4b55276" x="66.789518" y="130.398193" style="stroke: #000000; stroke-width: 0.8"/>
      </g>
     </g>
    </g>
    <g id="xtick_10">
     <g id="line2d_19">
      <path d="M 73.714849 130.398193 
L 73.714849 12.5975 
" clip-path="url(#pf8b09b6b2a)" style="fill: none; stroke: #b0b0b0; stroke-width: 0.3; stroke-linecap: square"/>
     </g>
     <g id="line2d_20">
      <g>
       <use xlink:href="#m18a4b55276" x="73.714849" y="130.398193" style="stroke: #000000; stroke-width: 0.8"/>
      </g>
     </g>
    </g>
    <g id="xtick_11">
     <g id="line2d_21">
      <path d="M 87.565509 130.398193 
L 87.565509 12.5975 
" clip-path="url(#pf8b09b6b2a)" style="fill: none; stroke: #b0b0b0; stroke-width: 0.3; stroke-linecap: square"/>
     </g>
     <g id="line2d_22">
      <g>
       <use xlink:href="#m18a4b55276" x="87.565509" y="130.398193" style="stroke: #000000; stroke-width: 0.8"/>
      </g>
     </g>
    </g>
    <g id="xtick_12">
     <g id="line2d_23">
      <path d="M 94.490839 130.398193 
L 94.490839 12.5975 
" clip-path="url(#pf8b09b6b2a)" style="fill: none; stroke: #b0b0b0; stroke-width: 0.3; stroke-linecap: square"/>
     </g>
     <g id="line2d_24">
      <g>
       <use xlink:href="#m18a4b55276" x="94.490839" y="130.398193" style="stroke: #000000; stroke-width: 0.8"/>
      </g>
     </g>
    </g>
    <g id="xtick_13">
     <g id="line2d_25">
      <path d="M 101.416169 130.398193 
L 101.416169 12.5975 
" clip-path="url(#pf8b09b6b2a)" style="fill: none; stroke: #b0b0b0; stroke-width: 0.3; stroke-linecap: square"/>
     </g>
     <g id="line2d_26">
      <g>
       <use xlink:href="#m18a4b55276" x="101.416169" y="130.398193" style="stroke: #000000; stroke-width: 0.8"/>
      </g>
     </g>
    </g>
    <g id="xtick_14">
     <g id="line2d_27">
      <path d="M 108.341499 130.398193 
L 108.341499 12.5975 
" clip-path="url(#pf8b09b6b2a)" style="fill: none; stroke: #b0b0b0; stroke-width: 0.3; stroke-linecap: square"/>
     </g>
     <g id="line2d_28">
      <g>
       <use xlink:href="#m18a4b55276" x="108.341499" y="130.398193" style="stroke: #000000; stroke-width: 0.8"/>
      </g>
     </g>
    </g>
    <g id="xtick_15">
     <g id="line2d_29">
      <path d="M 122.192159 130.398193 
L 122.192159 12.5975 
" clip-path="url(#pf8b09b6b2a)" style="fill: none; stroke: #b0b0b0; stroke-width: 0.3; stroke-linecap: square"/>
     </g>
     <g id="line2d_30">
      <g>
       <use xlink:href="#m18a4b55276" x="122.192159" y="130.398193" style="stroke: #000000; stroke-width: 0.8"/>
      </g>
     </g>
    </g>
    <g id="xtick_16">
     <g id="line2d_31">
      <path d="M 129.117489 130.398193 
L 129.117489 12.5975 
" clip-path="url(#pf8b09b6b2a)" style="fill: none; stroke: #b0b0b0; stroke-width: 0.3; stroke-linecap: square"/>
     </g>
     <g id="line2d_32">
      <g>
       <use xlink:href="#m18a4b55276" x="129.117489" y="130.398193" style="stroke: #000000; stroke-width: 0.8"/>
      </g>
     </g>
    </g>
    <g id="xtick_17">
     <g id="line2d_33">
      <path d="M 136.04282 130.398193 
L 136.04282 12.5975 
" clip-path="url(#pf8b09b6b2a)" style="fill: none; stroke: #b0b0b0; stroke-width: 0.3; stroke-linecap: square"/>
     </g>
     <g id="line2d_34">
      <g>
       <use xlink:href="#m18a4b55276" x="136.04282" y="130.398193" style="stroke: #000000; stroke-width: 0.8"/>
      </g>
     </g>
    </g>
    <g id="xtick_18">
     <g id="line2d_35">
      <path d="M 142.96815 130.398193 
L 142.96815 12.5975 
" clip-path="url(#pf8b09b6b2a)" style="fill: none; stroke: #b0b0b0; stroke-width: 0.3; stroke-linecap: square"/>
     </g>
     <g id="line2d_36">
      <g>
       <use xlink:href="#m18a4b55276" x="142.96815" y="130.398193" style="stroke: #000000; stroke-width: 0.8"/>
      </g>
     </g>
    </g>
    <g id="xtick_19">
     <g id="line2d_37">
      <path d="M 156.81881 130.398193 
L 156.81881 12.5975 
" clip-path="url(#pf8b09b6b2a)" style="fill: none; stroke: #b0b0b0; stroke-width: 0.3; stroke-linecap: square"/>
     </g>
     <g id="line2d_38">
      <g>
       <use xlink:href="#m18a4b55276" x="156.81881" y="130.398193" style="stroke: #000000; stroke-width: 0.8"/>
      </g>
     </g>
    </g>
    <g id="xtick_20">
     <g id="line2d_39">
      <path d="M 163.74414 130.398193 
L 163.74414 12.5975 
" clip-path="url(#pf8b09b6b2a)" style="fill: none; stroke: #b0b0b0; stroke-width: 0.3; stroke-linecap: square"/>
     </g>
     <g id="line2d_40">
      <g>
       <use xlink:href="#m18a4b55276" x="163.74414" y="130.398193" style="stroke: #000000; stroke-width: 0.8"/>
      </g>
     </g>
    </g>
    <g id="xtick_21">
     <g id="line2d_41">
      <path d="M 170.66947 130.398193 
L 170.66947 12.5975 
" clip-path="url(#pf8b09b6b2a)" style="fill: none; stroke: #b0b0b0; stroke-width: 0.3; stroke-linecap: square"/>
     </g>
     <g id="line2d_42">
      <g>
       <use xlink:href="#m18a4b55276" x="170.66947" y="130.398193" style="stroke: #000000; stroke-width: 0.8"/>
      </g>
     </g>
    </g>
    <g id="xtick_22">
     <g id="line2d_43">
      <path d="M 177.5948 130.398193 
L 177.5948 12.5975 
" clip-path="url(#pf8b09b6b2a)" style="fill: none; stroke: #b0b0b0; stroke-width: 0.3; stroke-linecap: square"/>
     </g>
     <g id="line2d_44">
      <g>
       <use xlink:href="#m18a4b55276" x="177.5948" y="130.398193" style="stroke: #000000; stroke-width: 0.8"/>
      </g>
     </g>
    </g>
    <g id="xtick_23">
     <g id="line2d_45">
      <path d="M 191.44546 130.398193 
L 191.44546 12.5975 
" clip-path="url(#pf8b09b6b2a)" style="fill: none; stroke: #b0b0b0; stroke-width: 0.3; stroke-linecap: square"/>
     </g>
     <g id="line2d_46">
      <g>
       <use xlink:href="#m18a4b55276" x="191.44546" y="130.398193" style="stroke: #000000; stroke-width: 0.8"/>
      </g>
     </g>
    </g>
    <g id="xtick_24">
     <g id="line2d_47">
      <path d="M 198.37079 130.398193 
L 198.37079 12.5975 
" clip-path="url(#pf8b09b6b2a)" style="fill: none; stroke: #b0b0b0; stroke-width: 0.3; stroke-linecap: square"/>
     </g>
     <g id="line2d_48">
      <g>
       <use xlink:href="#m18a4b55276" x="198.37079" y="130.398193" style="stroke: #000000; stroke-width: 0.8"/>
      </g>
     </g>
    </g>
    <g id="xtick_25">
     <g id="line2d_49">
      <path d="M 205.296121 130.398193 
L 205.296121 12.5975 
" clip-path="url(#pf8b09b6b2a)" style="fill: none; stroke: #b0b0b0; stroke-width: 0.3; stroke-linecap: square"/>
     </g>
     <g id="line2d_50">
      <g>
       <use xlink:href="#m18a4b55276" x="205.296121" y="130.398193" style="stroke: #000000; stroke-width: 0.8"/>
      </g>
     </g>
    </g>
    <g id="text_6">
     <text style="font: 9.6px 'Futura', sans-serif; text-anchor: middle" x="120.460827" y="158.742568" transform="rotate(-0 120.460827 158.742568)">Wavelength (nm)</text>
    </g>
   </g>
   <g id="matplotlib.axis_2">
    <g id="ytick_1">
     <g id="line2d_51">
      <path d="M 34.933 130.398193 
L 205.988654 130.398193 
" clip-path="url(#pf8b09b6b2a)" style="fill: none; stroke: #b0b0b0; stroke-width: 0.6; stroke-linecap: square"/>
     </g>
     <g id="line2d_52">
      <defs>
       <path id="m611bbe600f" d="M 0 0 
L -4.8 0 
" style="stroke: #000000"/>
      </defs>
      <g>
       <use xlink:href="#m611bbe600f" x="34.933" y="130.398193" style="stroke: #000000"/>
      </g>
     </g>
     <g id="text_7">
      <text style="font: 8.8px 'Arial'; text-anchor: end" x="26.633" y="133.54763" transform="rotate(-0 26.633 133.54763)">0.0</text>
     </g>
    </g>
    <g id="ytick_2">
     <g id="line2d_53">
      <path d="M 34.933 104.860917 
L 205.988654 104.860917 
" clip-path="url(#pf8b09b6b2a)" style="fill: none; stroke: #b0b0b0; stroke-width: 0.6; stroke-linecap: square"/>
     </g>
     <g id="line2d_54">
      <g>
       <use xlink:href="#m611bbe600f" x="34.933" y="104.860917" style="stroke: #000000"/>
      </g>
     </g>
     <g id="text_8">
      <text style="font: 8.8px 'Arial'; text-anchor: end" x="26.633" y="108.010354" transform="rotate(-0 26.633 108.010354)">0.2</text>
     </g>
    </g>
    <g id="ytick_3">
     <g id="line2d_55">
      <path d="M 34.933 79.32364 
L 205.988654 79.32364 
" clip-path="url(#pf8b09b6b2a)" style="fill: none; stroke: #b0b0b0; stroke-width: 0.6; stroke-linecap: square"/>
     </g>
     <g id="line2d_56">
      <g>
       <use xlink:href="#m611bbe600f" x="34.933" y="79.32364" style="stroke: #000000"/>
      </g>
     </g>
     <g id="text_9">
      <text style="font: 8.8px 'Arial'; text-anchor: end" x="26.633" y="82.473078" transform="rotate(-0 26.633 82.473078)">0.4</text>
     </g>
    </g>
    <g id="ytick_4">
     <g id="line2d_57">
      <path d="M 34.933 53.786364 
L 205.988654 53.786364 
" clip-path="url(#pf8b09b6b2a)" style="fill: none; stroke: #b0b0b0; stroke-width: 0.6; stroke-linecap: square"/>
     </g>
     <g id="line2d_58">
      <g>
       <use xlink:href="#m611bbe600f" x="34.933" y="53.786364" style="stroke: #000000"/>
      </g>
     </g>
     <g id="text_10">
      <text style="font: 8.8px 'Arial'; text-anchor: end" x="26.633" y="56.935801" transform="rotate(-0 26.633 56.935801)">0.6</text>
     </g>
    </g>
    <g id="ytick_5">
     <g id="line2d_59">
      <path d="M 34.933 28.249088 
L 205.988654 28.249088 
" clip-path="url(#pf8b09b6b2a)" style="fill: none; stroke: #b0b0b0; stroke-width: 0.6; stroke-linecap: square"/>
     </g>
     <g id="line2d_60">
      <g>
       <use xlink:href="#m611bbe600f" x="34.933" y="28.249088" style="stroke: #000000"/>
      </g>
     </g>
     <g id="text_11">
      <text style="font: 8.8px 'Arial'; text-anchor: end" x="26.633" y="31.398525" transform="rotate(-0 26.633 31.398525)">0.8</text>
     </g>
    </g>
    <g id="text_12">
     <text style="font: 9.6px 'Futura', sans-serif; text-anchor: middle" x="7.917" y="71.497846" transform="rotate(-90 7.917 71.497846)">Reflectance</text>
    </g>
   </g>
   <g id="line2d_61">
    <path d="M 35.625533 15.683757 
L 36.318066 14.989387 
L 37.287612 15.222406 
L 38.049399 15.52034 
L 38.811185 15.217003 
L 40.057744 15.581611 
L 40.265504 15.546739 
L 41.512064 15.128267 
L 42.550863 15.892321 
L 42.620116 15.781115 
L 43.035636 15.271858 
L 43.381903 15.199105 
L 43.797423 15.168816 
L 44.282196 15.021596 
L 44.697715 15.562835 
L 45.043982 15.490928 
L 45.528755 15.061203 
L 45.667262 14.99664 
L 46.013528 15.696916 
L 46.082781 15.656022 
L 46.913821 15.292672 
L 47.398594 15.124911 
L 48.229634 15.656928 
L 48.78366 15.459546 
L 49.19918 15.234089 
L 49.683953 15.472119 
L 50.03022 15.401391 
L 50.376486 15.15946 
L 50.861259 14.851398 
L 51.346032 15.26192 
L 51.623046 15.398666 
L 51.900059 15.723394 
L 52.592592 14.87305 
L 53.008112 15.132395 
L 53.423631 15.024655 
L 53.977658 15.004121 
L 54.323924 14.79469 
L 54.739444 15.202569 
L 55.154964 15.06171 
L 55.847497 15.293468 
L 56.12451 15.328451 
L 56.470777 15.130468 
L 56.886296 15.16503 
L 57.16331 15.017401 
L 57.509576 14.715009 
L 57.994349 14.798021 
L 58.548376 14.784254 
L 58.894642 15.131243 
L 59.171655 14.982104 
L 59.517922 15.474166 
L 59.587175 15.415252 
L 60.141202 14.818171 
L 60.279708 14.774689 
L 60.625975 14.922515 
L 60.972241 14.8172 
L 61.595521 15.198324 
L 62.011041 15.030407 
L 62.426561 15.241297 
L 63.119094 15.087083 
L 63.603867 14.913676 
L 63.88088 14.784426 
L 64.434906 14.542513 
L 64.850426 14.666929 
L 65.196693 14.682627 
L 65.819972 14.823687 
L 66.443252 14.855477 
L 66.858772 15.001158 
L 67.343545 14.788335 
L 67.551305 14.831754 
L 67.897571 15.008144 
L 68.243838 14.817324 
L 68.867118 14.927581 
L 69.282637 14.787513 
L 69.698157 14.940838 
L 70.39069 14.981475 
L 70.667703 15.174243 
L 71.360236 14.901949 
L 71.775756 15.063184 
L 72.122023 14.964416 
L 72.468289 14.846075 
L 72.676049 14.867783 
L 73.022316 15.505111 
L 73.091569 15.44488 
L 73.437835 15.26133 
L 74.061115 15.901948 
L 74.130368 15.817989 
L 74.476635 15.490759 
L 74.961408 15.652037 
L 75.238421 15.708262 
L 75.792448 15.665682 
L 76.554234 16.176841 
L 76.969754 16.182734 
L 77.385274 16.115398 
L 78.285566 16.113506 
L 78.631833 15.874594 
L 79.185859 15.937318 
L 79.324366 15.849383 
L 79.809139 15.425491 
L 80.293912 15.213576 
L 80.640179 15.666671 
L 81.055698 15.159748 
L 81.471218 15.228604 
L 81.748231 15.210241 
L 82.094498 15.404211 
L 82.440765 15.1522 
L 82.717778 15.212404 
L 83.202551 14.666176 
L 83.548817 14.719507 
L 83.895084 14.780881 
L 84.379857 14.726348 
L 84.65687 14.639333 
L 84.933883 14.434937 
L 85.141643 14.21789 
L 85.626416 14.769337 
L 86.041936 14.767118 
L 86.526709 14.564778 
L 86.942229 14.362048 
L 88.119535 14.829281 
L 88.396548 14.782177 
L 88.881322 14.437264 
L 89.019828 14.404401 
L 89.504601 14.494541 
L 89.989374 14.479386 
L 90.543401 14.847405 
L 90.958921 14.859183 
L 91.859213 14.699063 
L 92.41324 14.152689 
L 93.105773 14.628914 
L 93.936812 14.879843 
L 94.352332 14.693369 
L 94.975612 14.400511 
L 95.737398 14.24873 
L 96.845451 14.074107 
L 97.399478 13.873395 
L 97.814997 14.028923 
L 98.092011 13.959139 
L 98.369024 13.855793 
L 99.684836 14.456965 
L 100.100356 14.866856 
L 101.277662 14.623118 
L 101.831689 14.364596 
L 102.662728 14.908126 
L 103.216755 14.932929 
L 103.909288 14.527032 
L 104.671074 14.806663 
L 105.294354 14.778896 
L 106.05614 15.402601 
L 106.748673 15.444233 
L 107.510459 16.060222 
L 109.449552 18.338594 
L 110.211338 19.090732 
L 110.973125 19.204678 
L 111.527151 19.179737 
L 112.219684 19.686854 
L 112.912217 19.179964 
L 113.60475 19.4323 
L 114.574296 18.980485 
L 114.989816 18.784861 
L 116.374882 16.719351 
L 117.067415 16.787991 
L 117.967708 16.068076 
L 119.145014 15.616996 
L 119.768294 16.035181 
L 120.53008 14.99217 
L 121.222613 15.167193 
L 121.915146 14.749117 
L 122.538426 15.255176 
L 123.300212 14.352688 
L 125.170051 14.504619 
L 125.585571 14.5433 
L 126.555117 14.622935 
L 127.24765 14.635392 
L 128.771223 14.689533 
L 129.602263 15.165538 
L 130.987329 14.943995 
L 131.610608 15.176024 
L 132.303141 14.594632 
L 133.203434 14.785426 
L 134.034474 14.637308 
L 135.073273 14.446304 
L 135.696553 15.276379 
L 136.389086 13.763843 
L 136.458339 13.849924 
L 137.358632 14.817624 
L 138.328178 15.362238 
L 138.535938 15.378967 
L 139.366978 14.944318 
L 140.682791 14.956168 
L 141.444577 15.534816 
L 142.206363 15.826415 
L 143.245163 16.350185 
L 144.353216 16.346946 
L 146.153801 17.223213 
L 148.092894 17.60627 
L 149.89348 17.802561 
L 152.178839 18.822568 
L 153.910171 20.031656 
L 153.910171 20.031656 
" clip-path="url(#pf8b09b6b2a)" style="fill: none; stroke: #1f77b4; stroke-width: 0.5; stroke-linecap: square"/>
   </g>
   <g id="line2d_62"/>
   <g id="patch_3">
    <path d="M 34.933 130.398193 
L 34.933 12.5975 
" style="fill: none; stroke: #000000; stroke-linejoin: miter; stroke-linecap: square"/>
   </g>
   <g id="patch_4">
    <path d="M 34.933 130.398193 
L 205.988654 130.398193 
" style="fill: none; stroke: #000000; stroke-linejoin: miter; stroke-linecap: square"/>
   </g>
   <g id="text_13">
    <text style="font: 8px 'Futura', sans-serif; text-anchor: middle" x="120.460827" y="6.5975" transform="rotate(-0 120.460827 6.5975)">Halite</text>
   </g>
   <g id="legend_1">
    <g id="patch_5">
     <path d="M 100.156921 185.92906 
L 140.764733 185.92906 
L 140.764733 174.628435 
L 100.156921 174.628435 
z
" style="fill: #ffffff; opacity: 0.8; stroke: #cccccc; stroke-width: 0.8; stroke-linejoin: miter"/>
    </g>
    <g id="line2d_63">
     <path d="M 102.556921 179.87656 
L 108.556921 179.87656 
L 114.556921 179.87656 
" style="fill: none; stroke: #1f77b4; stroke-width: 1.2; stroke-linecap: square"/>
    </g>
    <g id="text_14">
     <text style="font: 6px 'Futura', sans-serif; text-anchor: start" x="119.356921" y="181.97656" transform="rotate(-0 119.356921 181.97656)">HS433</text>
    </g>
   </g>
  </g>
 </g>
 <defs>
  <clipPath id="pf8b09b6b2a">
   <rect x="34.933" y="12.5975" width="171.055654" height="117.800693"/>
  </clipPath>
 </defs>
</svg>
