<?xml version="1.0" encoding="utf-8" standalone="no"?>
<!DOCTYPE svg PUBLIC "-//W3C//DTD SVG 1.1//EN"
  "http://www.w3.org/Graphics/SVG/1.1/DTD/svg11.dtd">
<svg xmlns:xlink="http://www.w3.org/1999/xlink" width="272.950467pt" height="177.363072pt" viewBox="0 0 272.950467 177.363072" xmlns="http://www.w3.org/2000/svg" version="1.1">
 <metadata>
  <rdf:RDF xmlns:dc="http://purl.org/dc/elements/1.1/" xmlns:cc="http://creativecommons.org/ns#" xmlns:rdf="http://www.w3.org/1999/02/22-rdf-syntax-ns#">
   <cc:Work>
    <dc:type rdf:resource="http://purl.org/dc/dcmitype/StillImage"/>
    <dc:date>2025-02-17T12:08:52.705468</dc:date>
    <dc:format>image/svg+xml</dc:format>
    <dc:creator>
     <cc:Agent>
      <dc:title>Matplotlib v3.6.2, https://matplotlib.org/</dc:title>
     </cc:Agent>
    </dc:creator>
   </cc:Work>
  </rdf:RDF>
 </metadata>
 <defs>
  <style type="text/css">*{stroke-linejoin: round; stroke-linecap: butt}</style>
 </defs>
 <g id="figure_1">
  <g id="patch_1">
   <path d="M 0 177.363072 
L 272.950467 177.363072 
L 272.950467 0 
L 0 0 
z
" style="fill: #ffffff"/>
  </g>
  <g id="axes_1">
   <g id="patch_2">
    <path d="M 34.933 146.524197 
L 225.530701 146.524197 
L 225.530701 12.5975 
L 34.933 12.5975 
z
" style="fill: #ffffff"/>
   </g>
   <g id="matplotlib.axis_1">
    <g id="xtick_1">
     <g id="line2d_1">
      <path d="M 47.800355 146.524197 
L 47.800355 12.5975 
" clip-path="url(#pae1996b750)" style="fill: none; stroke: #b0b0b0; stroke-width: 0.6; stroke-linecap: square"/>
     </g>
     <g id="line2d_2">
      <defs>
       <path id="m9b6621c437" d="M 0 0 
L 0 4.8 
" style="stroke: #000000"/>
      </defs>
      <g>
       <use xlink:href="#m9b6621c437" x="47.800355" y="146.524197" style="stroke: #000000"/>
      </g>
     </g>
     <g id="text_1">
      <text style="font: 8.8px 'Arial'; text-anchor: middle" x="47.800355" y="161.123072" transform="rotate(-0 47.800355 161.123072)">1000</text>
     </g>
    </g>
    <g id="xtick_2">
     <g id="line2d_3">
      <path d="M 88.010841 146.524197 
L 88.010841 12.5975 
" clip-path="url(#pae1996b750)" style="fill: none; stroke: #b0b0b0; stroke-width: 0.6; stroke-linecap: square"/>
     </g>
     <g id="line2d_4">
      <g>
       <use xlink:href="#m9b6621c437" x="88.010841" y="146.524197" style="stroke: #000000"/>
      </g>
     </g>
     <g id="text_2">
      <text style="font: 8.8px 'Arial'; text-anchor: middle" x="88.010841" y="161.123072" transform="rotate(-0 88.010841 161.123072)">1500</text>
     </g>
    </g>
    <g id="xtick_3">
     <g id="line2d_5">
      <path d="M 128.221326 146.524197 
L 128.221326 12.5975 
" clip-path="url(#pae1996b750)" style="fill: none; stroke: #b0b0b0; stroke-width: 0.6; stroke-linecap: square"/>
     </g>
     <g id="line2d_6">
      <g>
       <use xlink:href="#m9b6621c437" x="128.221326" y="146.524197" style="stroke: #000000"/>
      </g>
     </g>
     <g id="text_3">
      <text style="font: 8.8px 'Arial'; text-anchor: middle" x="128.221326" y="161.123072" transform="rotate(-0 128.221326 161.123072)">2000</text>
     </g>
    </g>
    <g id="xtick_4">
     <g id="line2d_7">
      <path d="M 168.431812 146.524197 
L 168.431812 12.5975 
" clip-path="url(#pae1996b750)" style="fill: none; stroke: #b0b0b0; stroke-width: 0.6; stroke-linecap: square"/>
     </g>
     <g id="line2d_8">
      <g>
       <use xlink:href="#m9b6621c437" x="168.431812" y="146.524197" style="stroke: #000000"/>
      </g>
     </g>
     <g id="text_4">
      <text style="font: 8.8px 'Arial'; text-anchor: middle" x="168.431812" y="161.123072" transform="rotate(-0 168.431812 161.123072)">2500</text>
     </g>
    </g>
    <g id="xtick_5">
     <g id="line2d_9">
      <path d="M 208.642297 146.524197 
L 208.642297 12.5975 
" clip-path="url(#pae1996b750)" style="fill: none; stroke: #b0b0b0; stroke-width: 0.6; stroke-linecap: square"/>
     </g>
     <g id="line2d_10">
      <g>
       <use xlink:href="#m9b6621c437" x="208.642297" y="146.524197" style="stroke: #000000"/>
      </g>
     </g>
     <g id="text_5">
      <text style="font: 8.8px 'Arial'; text-anchor: middle" x="208.642297" y="161.123072" transform="rotate(-0 208.642297 161.123072)">3000</text>
     </g>
    </g>
    <g id="xtick_6">
     <g id="line2d_11">
      <path d="M 39.758258 146.524197 
L 39.758258 12.5975 
" clip-path="url(#pae1996b750)" style="fill: none; stroke: #b0b0b0; stroke-width: 0.3; stroke-linecap: square"/>
     </g>
     <g id="line2d_12">
      <defs>
       <path id="m68b840883f" d="M 0 0 
L 0 3.2 
" style="stroke: #000000; stroke-width: 0.8"/>
      </defs>
      <g>
       <use xlink:href="#m68b840883f" x="39.758258" y="146.524197" style="stroke: #000000; stroke-width: 0.8"/>
      </g>
     </g>
    </g>
    <g id="xtick_7">
     <g id="line2d_13">
      <path d="M 55.842452 146.524197 
L 55.842452 12.5975 
" clip-path="url(#pae1996b750)" style="fill: none; stroke: #b0b0b0; stroke-width: 0.3; stroke-linecap: square"/>
     </g>
     <g id="line2d_14">
      <g>
       <use xlink:href="#m68b840883f" x="55.842452" y="146.524197" style="stroke: #000000; stroke-width: 0.8"/>
      </g>
     </g>
    </g>
    <g id="xtick_8">
     <g id="line2d_15">
      <path d="M 63.884549 146.524197 
L 63.884549 12.5975 
" clip-path="url(#pae1996b750)" style="fill: none; stroke: #b0b0b0; stroke-width: 0.3; stroke-linecap: square"/>
     </g>
     <g id="line2d_16">
      <g>
       <use xlink:href="#m68b840883f" x="63.884549" y="146.524197" style="stroke: #000000; stroke-width: 0.8"/>
      </g>
     </g>
    </g>
    <g id="xtick_9">
     <g id="line2d_17">
      <path d="M 71.926647 146.524197 
L 71.926647 12.5975 
" clip-path="url(#pae1996b750)" style="fill: none; stroke: #b0b0b0; stroke-width: 0.3; stroke-linecap: square"/>
     </g>
     <g id="line2d_18">
      <g>
       <use xlink:href="#m68b840883f" x="71.926647" y="146.524197" style="stroke: #000000; stroke-width: 0.8"/>
      </g>
     </g>
    </g>
    <g id="xtick_10">
     <g id="line2d_19">
      <path d="M 79.968744 146.524197 
L 79.968744 12.5975 
" clip-path="url(#pae1996b750)" style="fill: none; stroke: #b0b0b0; stroke-width: 0.3; stroke-linecap: square"/>
     </g>
     <g id="line2d_20">
      <g>
       <use xlink:href="#m68b840883f" x="79.968744" y="146.524197" style="stroke: #000000; stroke-width: 0.8"/>
      </g>
     </g>
    </g>
    <g id="xtick_11">
     <g id="line2d_21">
      <path d="M 96.052938 146.524197 
L 96.052938 12.5975 
" clip-path="url(#pae1996b750)" style="fill: none; stroke: #b0b0b0; stroke-width: 0.3; stroke-linecap: square"/>
     </g>
     <g id="line2d_22">
      <g>
       <use xlink:href="#m68b840883f" x="96.052938" y="146.524197" style="stroke: #000000; stroke-width: 0.8"/>
      </g>
     </g>
    </g>
    <g id="xtick_12">
     <g id="line2d_23">
      <path d="M 104.095035 146.524197 
L 104.095035 12.5975 
" clip-path="url(#pae1996b750)" style="fill: none; stroke: #b0b0b0; stroke-width: 0.3; stroke-linecap: square"/>
     </g>
     <g id="line2d_24">
      <g>
       <use xlink:href="#m68b840883f" x="104.095035" y="146.524197" style="stroke: #000000; stroke-width: 0.8"/>
      </g>
     </g>
    </g>
    <g id="xtick_13">
     <g id="line2d_25">
      <path d="M 112.137132 146.524197 
L 112.137132 12.5975 
" clip-path="url(#pae1996b750)" style="fill: none; stroke: #b0b0b0; stroke-width: 0.3; stroke-linecap: square"/>
     </g>
     <g id="line2d_26">
      <g>
       <use xlink:href="#m68b840883f" x="112.137132" y="146.524197" style="stroke: #000000; stroke-width: 0.8"/>
      </g>
     </g>
    </g>
    <g id="xtick_14">
     <g id="line2d_27">
      <path d="M 120.179229 146.524197 
L 120.179229 12.5975 
" clip-path="url(#pae1996b750)" style="fill: none; stroke: #b0b0b0; stroke-width: 0.3; stroke-linecap: square"/>
     </g>
     <g id="line2d_28">
      <g>
       <use xlink:href="#m68b840883f" x="120.179229" y="146.524197" style="stroke: #000000; stroke-width: 0.8"/>
      </g>
     </g>
    </g>
    <g id="xtick_15">
     <g id="line2d_29">
      <path d="M 136.263423 146.524197 
L 136.263423 12.5975 
" clip-path="url(#pae1996b750)" style="fill: none; stroke: #b0b0b0; stroke-width: 0.3; stroke-linecap: square"/>
     </g>
     <g id="line2d_30">
      <g>
       <use xlink:href="#m68b840883f" x="136.263423" y="146.524197" style="stroke: #000000; stroke-width: 0.8"/>
      </g>
     </g>
    </g>
    <g id="xtick_16">
     <g id="line2d_31">
      <path d="M 144.30552 146.524197 
L 144.30552 12.5975 
" clip-path="url(#pae1996b750)" style="fill: none; stroke: #b0b0b0; stroke-width: 0.3; stroke-linecap: square"/>
     </g>
     <g id="line2d_32">
      <g>
       <use xlink:href="#m68b840883f" x="144.30552" y="146.524197" style="stroke: #000000; stroke-width: 0.8"/>
      </g>
     </g>
    </g>
    <g id="xtick_17">
     <g id="line2d_33">
      <path d="M 152.347617 146.524197 
L 152.347617 12.5975 
" clip-path="url(#pae1996b750)" style="fill: none; stroke: #b0b0b0; stroke-width: 0.3; stroke-linecap: square"/>
     </g>
     <g id="line2d_34">
      <g>
       <use xlink:href="#m68b840883f" x="152.347617" y="146.524197" style="stroke: #000000; stroke-width: 0.8"/>
      </g>
     </g>
    </g>
    <g id="xtick_18">
     <g id="line2d_35">
      <path d="M 160.389714 146.524197 
L 160.389714 12.5975 
" clip-path="url(#pae1996b750)" style="fill: none; stroke: #b0b0b0; stroke-width: 0.3; stroke-linecap: square"/>
     </g>
     <g id="line2d_36">
      <g>
       <use xlink:href="#m68b840883f" x="160.389714" y="146.524197" style="stroke: #000000; stroke-width: 0.8"/>
      </g>
     </g>
    </g>
    <g id="xtick_19">
     <g id="line2d_37">
      <path d="M 176.473909 146.524197 
L 176.473909 12.5975 
" clip-path="url(#pae1996b750)" style="fill: none; stroke: #b0b0b0; stroke-width: 0.3; stroke-linecap: square"/>
     </g>
     <g id="line2d_38">
      <g>
       <use xlink:href="#m68b840883f" x="176.473909" y="146.524197" style="stroke: #000000; stroke-width: 0.8"/>
      </g>
     </g>
    </g>
    <g id="xtick_20">
     <g id="line2d_39">
      <path d="M 184.516006 146.524197 
L 184.516006 12.5975 
" clip-path="url(#pae1996b750)" style="fill: none; stroke: #b0b0b0; stroke-width: 0.3; stroke-linecap: square"/>
     </g>
     <g id="line2d_40">
      <g>
       <use xlink:href="#m68b840883f" x="184.516006" y="146.524197" style="stroke: #000000; stroke-width: 0.8"/>
      </g>
     </g>
    </g>
    <g id="xtick_21">
     <g id="line2d_41">
      <path d="M 192.558103 146.524197 
L 192.558103 12.5975 
" clip-path="url(#pae1996b750)" style="fill: none; stroke: #b0b0b0; stroke-width: 0.3; stroke-linecap: square"/>
     </g>
     <g id="line2d_42">
      <g>
       <use xlink:href="#m68b840883f" x="192.558103" y="146.524197" style="stroke: #000000; stroke-width: 0.8"/>
      </g>
     </g>
    </g>
    <g id="xtick_22">
     <g id="line2d_43">
      <path d="M 200.6002 146.524197 
L 200.6002 12.5975 
" clip-path="url(#pae1996b750)" style="fill: none; stroke: #b0b0b0; stroke-width: 0.3; stroke-linecap: square"/>
     </g>
     <g id="line2d_44">
      <g>
       <use xlink:href="#m68b840883f" x="200.6002" y="146.524197" style="stroke: #000000; stroke-width: 0.8"/>
      </g>
     </g>
    </g>
    <g id="xtick_23">
     <g id="line2d_45">
      <path d="M 216.684394 146.524197 
L 216.684394 12.5975 
" clip-path="url(#pae1996b750)" style="fill: none; stroke: #b0b0b0; stroke-width: 0.3; stroke-linecap: square"/>
     </g>
     <g id="line2d_46">
      <g>
       <use xlink:href="#m68b840883f" x="216.684394" y="146.524197" style="stroke: #000000; stroke-width: 0.8"/>
      </g>
     </g>
    </g>
    <g id="xtick_24">
     <g id="line2d_47">
      <path d="M 224.726491 146.524197 
L 224.726491 12.5975 
" clip-path="url(#pae1996b750)" style="fill: none; stroke: #b0b0b0; stroke-width: 0.3; stroke-linecap: square"/>
     </g>
     <g id="line2d_48">
      <g>
       <use xlink:href="#m68b840883f" x="224.726491" y="146.524197" style="stroke: #000000; stroke-width: 0.8"/>
      </g>
     </g>
    </g>
    <g id="text_6">
     <text style="font: 9.6px 'Futura', sans-serif; text-anchor: middle" x="130.23185" y="174.868572" transform="rotate(-0 130.23185 174.868572)">Wavelength (nm)</text>
    </g>
   </g>
   <g id="matplotlib.axis_2">
    <g id="ytick_1">
     <g id="line2d_49">
      <path d="M 34.933 146.524197 
L 225.530701 146.524197 
" clip-path="url(#pae1996b750)" style="fill: none; stroke: #b0b0b0; stroke-width: 0.6; stroke-linecap: square"/>
     </g>
     <g id="line2d_50">
      <defs>
       <path id="mc75d0473ca" d="M 0 0 
L -4.8 0 
" style="stroke: #000000"/>
      </defs>
      <g>
       <use xlink:href="#mc75d0473ca" x="34.933" y="146.524197" style="stroke: #000000"/>
      </g>
     </g>
     <g id="text_7">
      <text style="font: 8.8px 'Arial'; text-anchor: end" x="26.633" y="149.673634" transform="rotate(-0 26.633 149.673634)">0.0</text>
     </g>
    </g>
    <g id="ytick_2">
     <g id="line2d_51">
      <path d="M 34.933 117.491065 
L 225.530701 117.491065 
" clip-path="url(#pae1996b750)" style="fill: none; stroke: #b0b0b0; stroke-width: 0.6; stroke-linecap: square"/>
     </g>
     <g id="line2d_52">
      <g>
       <use xlink:href="#mc75d0473ca" x="34.933" y="117.491065" style="stroke: #000000"/>
      </g>
     </g>
     <g id="text_8">
      <text style="font: 8.8px 'Arial'; text-anchor: end" x="26.633" y="120.640502" transform="rotate(-0 26.633 120.640502)">0.2</text>
     </g>
    </g>
    <g id="ytick_3">
     <g id="line2d_53">
      <path d="M 34.933 88.457933 
L 225.530701 88.457933 
" clip-path="url(#pae1996b750)" style="fill: none; stroke: #b0b0b0; stroke-width: 0.6; stroke-linecap: square"/>
     </g>
     <g id="line2d_54">
      <g>
       <use xlink:href="#mc75d0473ca" x="34.933" y="88.457933" style="stroke: #000000"/>
      </g>
     </g>
     <g id="text_9">
      <text style="font: 8.8px 'Arial'; text-anchor: end" x="26.633" y="91.60737" transform="rotate(-0 26.633 91.60737)">0.4</text>
     </g>
    </g>
    <g id="ytick_4">
     <g id="line2d_55">
      <path d="M 34.933 59.424801 
L 225.530701 59.424801 
" clip-path="url(#pae1996b750)" style="fill: none; stroke: #b0b0b0; stroke-width: 0.6; stroke-linecap: square"/>
     </g>
     <g id="line2d_56">
      <g>
       <use xlink:href="#mc75d0473ca" x="34.933" y="59.424801" style="stroke: #000000"/>
      </g>
     </g>
     <g id="text_10">
      <text style="font: 8.8px 'Arial'; text-anchor: end" x="26.633" y="62.574238" transform="rotate(-0 26.633 62.574238)">0.6</text>
     </g>
    </g>
    <g id="ytick_5">
     <g id="line2d_57">
      <path d="M 34.933 30.391669 
L 225.530701 30.391669 
" clip-path="url(#pae1996b750)" style="fill: none; stroke: #b0b0b0; stroke-width: 0.6; stroke-linecap: square"/>
     </g>
     <g id="line2d_58">
      <g>
       <use xlink:href="#mc75d0473ca" x="34.933" y="30.391669" style="stroke: #000000"/>
      </g>
     </g>
     <g id="text_11">
      <text style="font: 8.8px 'Arial'; text-anchor: end" x="26.633" y="33.541106" transform="rotate(-0 26.633 33.541106)">0.8</text>
     </g>
    </g>
    <g id="text_12">
     <text style="font: 9.6px 'Futura', sans-serif; text-anchor: middle" x="7.917" y="79.560848" transform="rotate(-90 7.917 79.560848)">Reflectance</text>
    </g>
   </g>
   <g id="line2d_59">
    <path d="M 35.73721 16.106242 
L 36.541419 15.316818 
L 37.586892 15.541442 
L 38.551944 15.920454 
L 39.436574 15.575593 
L 40.642889 15.927285 
L 41.125415 15.950467 
L 42.572992 15.47471 
L 43.779307 16.343356 
L 43.859728 16.216927 
L 44.342254 15.637957 
L 44.744358 15.555244 
L 45.146463 15.54587 
L 45.789831 15.353436 
L 46.272357 15.968767 
L 46.674462 15.887016 
L 47.156988 15.435166 
L 47.39825 15.325064 
L 47.800355 16.121202 
L 47.880776 16.07471 
L 48.524144 15.813749 
L 48.926249 15.61716 
L 49.408775 15.470894 
L 50.293405 16.088421 
L 50.936773 15.888609 
L 51.338878 15.597382 
L 51.49972 15.595018 
L 51.982246 15.856927 
L 52.384351 15.817828 
L 52.866876 15.510173 
L 53.429823 15.159939 
L 53.99277 15.626659 
L 54.314454 15.782124 
L 54.636138 16.151304 
L 55.440348 15.184555 
L 55.922873 15.479403 
L 56.405399 15.356914 
L 56.968346 15.345927 
L 57.29003 15.190709 
L 57.450872 15.095469 
L 57.933398 15.559183 
L 58.415923 15.399041 
L 59.139712 15.628658 
L 59.541817 15.702298 
L 59.943922 15.477212 
L 60.426448 15.516505 
L 60.748132 15.348666 
L 61.150236 15.00488 
L 61.713183 15.099255 
L 62.356551 15.083604 
L 62.758656 15.478093 
L 63.08034 15.308537 
L 63.482445 15.867959 
L 63.562866 15.80098 
L 64.206233 15.122163 
L 64.367075 15.07273 
L 64.76918 15.240792 
L 65.171285 15.121059 
L 65.895074 15.554356 
L 66.3776 15.363453 
L 66.860125 15.603212 
L 67.664335 15.427887 
L 68.146861 15.243427 
L 68.548966 15.0838 
L 69.192334 14.80877 
L 69.674859 14.950218 
L 70.076964 14.968065 
L 70.800753 15.128435 
L 71.444121 15.150357 
L 71.765805 15.29667 
L 72.007068 15.3302 
L 72.489593 15.096187 
L 72.811277 15.137606 
L 73.213382 15.338143 
L 73.615487 15.121201 
L 74.339276 15.246551 
L 74.821802 15.087309 
L 75.304327 15.261623 
L 76.028116 15.221624 
L 76.430221 15.52698 
L 77.234431 15.217411 
L 77.716956 15.400717 
L 78.119061 15.288429 
L 78.521166 15.153887 
L 78.762429 15.178568 
L 79.164534 15.903141 
L 79.244955 15.834664 
L 79.64706 15.625987 
L 80.451269 16.258849 
L 80.853374 15.886824 
L 81.3359 16.022111 
L 81.738005 16.134101 
L 82.381373 16.085692 
L 83.266003 16.666825 
L 83.748529 16.673525 
L 84.150634 16.589236 
L 85.276528 16.59482 
L 85.678633 16.323203 
L 86.241579 16.401595 
L 86.482842 16.29454 
L 87.045789 15.812621 
L 87.608736 15.571696 
L 88.010841 16.086817 
L 88.493367 15.5105 
L 88.895471 15.620443 
L 89.297576 15.567905 
L 89.699681 15.788429 
L 90.101786 15.501918 
L 90.42347 15.570364 
L 90.905996 14.955548 
L 91.388521 15.009993 
L 91.710205 15.104275 
L 92.353573 15.01777 
L 92.675257 14.918844 
L 92.996941 14.686468 
L 93.238204 14.439709 
L 93.72073 15.050808 
L 94.283676 15.064122 
L 94.846623 14.834084 
L 95.329149 14.603601 
L 96.615885 15.125155 
L 97.017989 15.081242 
L 97.500515 14.759834 
L 97.741778 14.651752 
L 98.224304 14.76455 
L 98.867672 14.737002 
L 99.51104 15.1554 
L 99.913144 15.17682 
L 101.039038 14.986751 
L 101.682406 14.365583 
L 102.486615 14.906999 
L 103.451667 15.192278 
L 103.934193 14.980277 
L 104.577561 14.674259 
L 105.462191 14.480513 
L 106.829348 14.276244 
L 107.472716 14.048055 
L 107.955241 14.224873 
L 108.196504 14.194953 
L 108.598609 14.028044 
L 110.126608 14.711512 
L 110.609134 15.177514 
L 111.97629 14.900409 
L 112.619658 14.606497 
L 113.504288 15.21247 
L 114.228077 15.252632 
L 115.032287 14.791171 
L 115.916918 15.109081 
L 116.640706 15.077513 
L 117.444916 15.793222 
L 118.249126 15.78377 
L 119.133756 16.434561 
L 121.305123 18.965196 
L 121.868069 19.575621 
L 122.350595 19.979605 
L 123.235226 20.109149 
L 123.878594 20.080795 
L 124.682803 20.657331 
L 125.487013 20.081053 
L 126.291223 20.367931 
L 127.336695 19.872832 
L 127.899642 19.631863 
L 129.427641 17.266557 
L 130.312271 17.361636 
L 131.277323 16.578224 
L 132.7249 16.030342 
L 133.448689 16.505773 
L 134.33332 15.319981 
L 135.13753 15.518964 
L 135.941739 15.043657 
L 136.665528 15.618991 
L 137.550159 14.59296 
L 139.641104 14.739153 
L 140.204051 14.809664 
L 141.249523 14.887181 
L 142.053733 14.915849 
L 143.903415 14.975916 
L 144.788046 15.535516 
L 146.396466 15.22269 
L 147.200675 15.529004 
L 148.004885 14.868024 
L 148.969937 15.089884 
L 150.015409 14.916542 
L 151.141303 14.594538 
L 151.945513 15.643097 
L 152.749722 13.923507 
L 153.875616 15.121542 
L 154.921088 15.704449 
L 155.242772 15.759728 
L 156.127403 15.269781 
L 157.735822 15.279051 
L 158.540032 15.917876 
L 159.424663 16.218862 
L 160.630977 16.870419 
L 161.998134 16.860216 
L 164.008658 17.836423 
L 166.260445 18.287533 
L 168.431812 18.515094 
L 171.085704 19.674731 
L 173.096228 21.049335 
L 173.096228 21.049335 
" clip-path="url(#pae1996b750)" style="fill: none; stroke: #1f77b4; stroke-width: 0.5; stroke-linecap: square"/>
   </g>
   <g id="line2d_60"/>
   <g id="patch_3">
    <path d="M 34.933 146.524197 
L 34.933 12.5975 
" style="fill: none; stroke: #000000; stroke-linejoin: miter; stroke-linecap: square"/>
   </g>
   <g id="patch_4">
    <path d="M 34.933 146.524197 
L 225.530701 146.524197 
" style="fill: none; stroke: #000000; stroke-linejoin: miter; stroke-linecap: square"/>
   </g>
   <g id="text_13">
    <text style="font: 8px 'Futura', sans-serif; text-anchor: middle" x="130.23185" y="6.5975" transform="rotate(-0 130.23185 6.5975)">Halite</text>
   </g>
   <g id="legend_1">
    <g id="patch_5">
     <path d="M 233.542655 85.211161 
L 271.750467 85.211161 
Q 272.950467 85.211161 272.950467 84.011161 
L 272.950467 75.110536 
Q 272.950467 73.910536 271.750467 73.910536 
L 233.542655 73.910536 
Q 232.342655 73.910536 232.342655 75.110536 
L 232.342655 84.011161 
Q 232.342655 85.211161 233.542655 85.211161 
z
" style="fill: #ffffff; opacity: 0.8; stroke: #cccccc; stroke-width: 0.8; stroke-linejoin: miter"/>
    </g>
    <g id="line2d_61">
     <path d="M 234.742655 79.158661 
L 240.742655 79.158661 
L 246.742655 79.158661 
" style="fill: none; stroke: #1f77b4; stroke-width: 1.2; stroke-linecap: square"/>
    </g>
    <g id="text_14">
     <text style="font: 6px 'Futura', sans-serif; text-anchor: start" x="251.542655" y="81.258661" transform="rotate(-0 251.542655 81.258661)">HS433</text>
    </g>
   </g>
  </g>
 </g>
 <defs>
  <clipPath id="pae1996b750">
   <rect x="34.933" y="12.5975" width="190.597701" height="133.926697"/>
  </clipPath>
 </defs>
</svg>
