<?xml version="1.0" encoding="utf-8" standalone="no"?>
<!DOCTYPE svg PUBLIC "-//W3C//DTD SVG 1.1//EN"
  "http://www.w3.org/Graphics/SVG/1.1/DTD/svg11.dtd">
<svg xmlns:xlink="http://www.w3.org/1999/xlink" width="332.59245pt" height="177.409447pt" viewBox="0 0 332.59245 177.409447" xmlns="http://www.w3.org/2000/svg" version="1.1">
 <metadata>
  <rdf:RDF xmlns:dc="http://purl.org/dc/elements/1.1/" xmlns:cc="http://creativecommons.org/ns#" xmlns:rdf="http://www.w3.org/1999/02/22-rdf-syntax-ns#">
   <cc:Work>
    <dc:type rdf:resource="http://purl.org/dc/dcmitype/StillImage"/>
    <dc:date>2025-02-15T18:14:09.946512</dc:date>
    <dc:format>image/svg+xml</dc:format>
    <dc:creator>
     <cc:Agent>
      <dc:title>Matplotlib v3.6.2, https://matplotlib.org/</dc:title>
     </cc:Agent>
    </dc:creator>
   </cc:Work>
  </rdf:RDF>
 </metadata>
 <defs>
  <style type="text/css">*{stroke-linejoin: round; stroke-linecap: butt}</style>
 </defs>
 <g id="figure_1">
  <g id="patch_1">
   <path d="M 0 177.409447 
L 332.59245 177.409447 
L 332.59245 0 
L 0 0 
z
" style="fill: #ffffff"/>
  </g>
  <g id="axes_1">
   <g id="patch_2">
    <path d="M 36.279125 145.084197 
L 285.320082 145.084197 
L 285.320082 12.5975 
L 36.279125 12.5975 
z
" style="fill: #ffffff"/>
   </g>
   <g id="matplotlib.axis_1">
    <g id="xtick_1">
     <g id="line2d_1">
      <path d="M 53.092017 145.084197 
L 53.092017 12.5975 
" clip-path="url(#pec6dda41b8)" style="fill: none; stroke: #b0b0b0; stroke-width: 0.6; stroke-linecap: square"/>
     </g>
     <g id="line2d_2">
      <defs>
       <path id="mad0006eea7" d="M 0 0 
L 0 4.8 
" style="stroke: #000000"/>
      </defs>
      <g>
       <use xlink:href="#mad0006eea7" x="53.092017" y="145.084197" style="stroke: #000000"/>
      </g>
     </g>
     <g id="text_1">
      <text style="font: 8.8px 'Futura', sans-serif; text-anchor: middle" x="53.092017" y="160.641447" transform="rotate(-0 53.092017 160.641447)">1000</text>
     </g>
    </g>
    <g id="xtick_2">
     <g id="line2d_3">
      <path d="M 105.632303 145.084197 
L 105.632303 12.5975 
" clip-path="url(#pec6dda41b8)" style="fill: none; stroke: #b0b0b0; stroke-width: 0.6; stroke-linecap: square"/>
     </g>
     <g id="line2d_4">
      <g>
       <use xlink:href="#mad0006eea7" x="105.632303" y="145.084197" style="stroke: #000000"/>
      </g>
     </g>
     <g id="text_2">
      <text style="font: 8.8px 'Futura', sans-serif; text-anchor: middle" x="105.632303" y="160.641447" transform="rotate(-0 105.632303 160.641447)">1500</text>
     </g>
    </g>
    <g id="xtick_3">
     <g id="line2d_5">
      <path d="M 158.172589 145.084197 
L 158.172589 12.5975 
" clip-path="url(#pec6dda41b8)" style="fill: none; stroke: #b0b0b0; stroke-width: 0.6; stroke-linecap: square"/>
     </g>
     <g id="line2d_6">
      <g>
       <use xlink:href="#mad0006eea7" x="158.172589" y="145.084197" style="stroke: #000000"/>
      </g>
     </g>
     <g id="text_3">
      <text style="font: 8.8px 'Futura', sans-serif; text-anchor: middle" x="158.172589" y="160.641447" transform="rotate(-0 158.172589 160.641447)">2000</text>
     </g>
    </g>
    <g id="xtick_4">
     <g id="line2d_7">
      <path d="M 210.712876 145.084197 
L 210.712876 12.5975 
" clip-path="url(#pec6dda41b8)" style="fill: none; stroke: #b0b0b0; stroke-width: 0.6; stroke-linecap: square"/>
     </g>
     <g id="line2d_8">
      <g>
       <use xlink:href="#mad0006eea7" x="210.712876" y="145.084197" style="stroke: #000000"/>
      </g>
     </g>
     <g id="text_4">
      <text style="font: 8.8px 'Futura', sans-serif; text-anchor: middle" x="210.712876" y="160.641447" transform="rotate(-0 210.712876 160.641447)">2500</text>
     </g>
    </g>
    <g id="xtick_5">
     <g id="line2d_9">
      <path d="M 263.253162 145.084197 
L 263.253162 12.5975 
" clip-path="url(#pec6dda41b8)" style="fill: none; stroke: #b0b0b0; stroke-width: 0.6; stroke-linecap: square"/>
     </g>
     <g id="line2d_10">
      <g>
       <use xlink:href="#mad0006eea7" x="263.253162" y="145.084197" style="stroke: #000000"/>
      </g>
     </g>
     <g id="text_5">
      <text style="font: 8.8px 'Futura', sans-serif; text-anchor: middle" x="263.253162" y="160.641447" transform="rotate(-0 263.253162 160.641447)">3000</text>
     </g>
    </g>
    <g id="xtick_6">
     <g id="line2d_11">
      <path d="M 42.583959 145.084197 
L 42.583959 12.5975 
" clip-path="url(#pec6dda41b8)" style="fill: none; stroke: #b0b0b0; stroke-width: 0.3; stroke-linecap: square"/>
     </g>
     <g id="line2d_12">
      <defs>
       <path id="m77185e2096" d="M 0 0 
L 0 3.2 
" style="stroke: #000000; stroke-width: 0.8"/>
      </defs>
      <g>
       <use xlink:href="#m77185e2096" x="42.583959" y="145.084197" style="stroke: #000000; stroke-width: 0.8"/>
      </g>
     </g>
    </g>
    <g id="xtick_7">
     <g id="line2d_13">
      <path d="M 63.600074 145.084197 
L 63.600074 12.5975 
" clip-path="url(#pec6dda41b8)" style="fill: none; stroke: #b0b0b0; stroke-width: 0.3; stroke-linecap: square"/>
     </g>
     <g id="line2d_14">
      <g>
       <use xlink:href="#m77185e2096" x="63.600074" y="145.084197" style="stroke: #000000; stroke-width: 0.8"/>
      </g>
     </g>
    </g>
    <g id="xtick_8">
     <g id="line2d_15">
      <path d="M 74.108131 145.084197 
L 74.108131 12.5975 
" clip-path="url(#pec6dda41b8)" style="fill: none; stroke: #b0b0b0; stroke-width: 0.3; stroke-linecap: square"/>
     </g>
     <g id="line2d_16">
      <g>
       <use xlink:href="#m77185e2096" x="74.108131" y="145.084197" style="stroke: #000000; stroke-width: 0.8"/>
      </g>
     </g>
    </g>
    <g id="xtick_9">
     <g id="line2d_17">
      <path d="M 84.616188 145.084197 
L 84.616188 12.5975 
" clip-path="url(#pec6dda41b8)" style="fill: none; stroke: #b0b0b0; stroke-width: 0.3; stroke-linecap: square"/>
     </g>
     <g id="line2d_18">
      <g>
       <use xlink:href="#m77185e2096" x="84.616188" y="145.084197" style="stroke: #000000; stroke-width: 0.8"/>
      </g>
     </g>
    </g>
    <g id="xtick_10">
     <g id="line2d_19">
      <path d="M 95.124246 145.084197 
L 95.124246 12.5975 
" clip-path="url(#pec6dda41b8)" style="fill: none; stroke: #b0b0b0; stroke-width: 0.3; stroke-linecap: square"/>
     </g>
     <g id="line2d_20">
      <g>
       <use xlink:href="#m77185e2096" x="95.124246" y="145.084197" style="stroke: #000000; stroke-width: 0.8"/>
      </g>
     </g>
    </g>
    <g id="xtick_11">
     <g id="line2d_21">
      <path d="M 116.14036 145.084197 
L 116.14036 12.5975 
" clip-path="url(#pec6dda41b8)" style="fill: none; stroke: #b0b0b0; stroke-width: 0.3; stroke-linecap: square"/>
     </g>
     <g id="line2d_22">
      <g>
       <use xlink:href="#m77185e2096" x="116.14036" y="145.084197" style="stroke: #000000; stroke-width: 0.8"/>
      </g>
     </g>
    </g>
    <g id="xtick_12">
     <g id="line2d_23">
      <path d="M 126.648417 145.084197 
L 126.648417 12.5975 
" clip-path="url(#pec6dda41b8)" style="fill: none; stroke: #b0b0b0; stroke-width: 0.3; stroke-linecap: square"/>
     </g>
     <g id="line2d_24">
      <g>
       <use xlink:href="#m77185e2096" x="126.648417" y="145.084197" style="stroke: #000000; stroke-width: 0.8"/>
      </g>
     </g>
    </g>
    <g id="xtick_13">
     <g id="line2d_25">
      <path d="M 137.156475 145.084197 
L 137.156475 12.5975 
" clip-path="url(#pec6dda41b8)" style="fill: none; stroke: #b0b0b0; stroke-width: 0.3; stroke-linecap: square"/>
     </g>
     <g id="line2d_26">
      <g>
       <use xlink:href="#m77185e2096" x="137.156475" y="145.084197" style="stroke: #000000; stroke-width: 0.8"/>
      </g>
     </g>
    </g>
    <g id="xtick_14">
     <g id="line2d_27">
      <path d="M 147.664532 145.084197 
L 147.664532 12.5975 
" clip-path="url(#pec6dda41b8)" style="fill: none; stroke: #b0b0b0; stroke-width: 0.3; stroke-linecap: square"/>
     </g>
     <g id="line2d_28">
      <g>
       <use xlink:href="#m77185e2096" x="147.664532" y="145.084197" style="stroke: #000000; stroke-width: 0.8"/>
      </g>
     </g>
    </g>
    <g id="xtick_15">
     <g id="line2d_29">
      <path d="M 168.680646 145.084197 
L 168.680646 12.5975 
" clip-path="url(#pec6dda41b8)" style="fill: none; stroke: #b0b0b0; stroke-width: 0.3; stroke-linecap: square"/>
     </g>
     <g id="line2d_30">
      <g>
       <use xlink:href="#m77185e2096" x="168.680646" y="145.084197" style="stroke: #000000; stroke-width: 0.8"/>
      </g>
     </g>
    </g>
    <g id="xtick_16">
     <g id="line2d_31">
      <path d="M 179.188704 145.084197 
L 179.188704 12.5975 
" clip-path="url(#pec6dda41b8)" style="fill: none; stroke: #b0b0b0; stroke-width: 0.3; stroke-linecap: square"/>
     </g>
     <g id="line2d_32">
      <g>
       <use xlink:href="#m77185e2096" x="179.188704" y="145.084197" style="stroke: #000000; stroke-width: 0.8"/>
      </g>
     </g>
    </g>
    <g id="xtick_17">
     <g id="line2d_33">
      <path d="M 189.696761 145.084197 
L 189.696761 12.5975 
" clip-path="url(#pec6dda41b8)" style="fill: none; stroke: #b0b0b0; stroke-width: 0.3; stroke-linecap: square"/>
     </g>
     <g id="line2d_34">
      <g>
       <use xlink:href="#m77185e2096" x="189.696761" y="145.084197" style="stroke: #000000; stroke-width: 0.8"/>
      </g>
     </g>
    </g>
    <g id="xtick_18">
     <g id="line2d_35">
      <path d="M 200.204818 145.084197 
L 200.204818 12.5975 
" clip-path="url(#pec6dda41b8)" style="fill: none; stroke: #b0b0b0; stroke-width: 0.3; stroke-linecap: square"/>
     </g>
     <g id="line2d_36">
      <g>
       <use xlink:href="#m77185e2096" x="200.204818" y="145.084197" style="stroke: #000000; stroke-width: 0.8"/>
      </g>
     </g>
    </g>
    <g id="xtick_19">
     <g id="line2d_37">
      <path d="M 221.220933 145.084197 
L 221.220933 12.5975 
" clip-path="url(#pec6dda41b8)" style="fill: none; stroke: #b0b0b0; stroke-width: 0.3; stroke-linecap: square"/>
     </g>
     <g id="line2d_38">
      <g>
       <use xlink:href="#m77185e2096" x="221.220933" y="145.084197" style="stroke: #000000; stroke-width: 0.8"/>
      </g>
     </g>
    </g>
    <g id="xtick_20">
     <g id="line2d_39">
      <path d="M 231.72899 145.084197 
L 231.72899 12.5975 
" clip-path="url(#pec6dda41b8)" style="fill: none; stroke: #b0b0b0; stroke-width: 0.3; stroke-linecap: square"/>
     </g>
     <g id="line2d_40">
      <g>
       <use xlink:href="#m77185e2096" x="231.72899" y="145.084197" style="stroke: #000000; stroke-width: 0.8"/>
      </g>
     </g>
    </g>
    <g id="xtick_21">
     <g id="line2d_41">
      <path d="M 242.237047 145.084197 
L 242.237047 12.5975 
" clip-path="url(#pec6dda41b8)" style="fill: none; stroke: #b0b0b0; stroke-width: 0.3; stroke-linecap: square"/>
     </g>
     <g id="line2d_42">
      <g>
       <use xlink:href="#m77185e2096" x="242.237047" y="145.084197" style="stroke: #000000; stroke-width: 0.8"/>
      </g>
     </g>
    </g>
    <g id="xtick_22">
     <g id="line2d_43">
      <path d="M 252.745105 145.084197 
L 252.745105 12.5975 
" clip-path="url(#pec6dda41b8)" style="fill: none; stroke: #b0b0b0; stroke-width: 0.3; stroke-linecap: square"/>
     </g>
     <g id="line2d_44">
      <g>
       <use xlink:href="#m77185e2096" x="252.745105" y="145.084197" style="stroke: #000000; stroke-width: 0.8"/>
      </g>
     </g>
    </g>
    <g id="xtick_23">
     <g id="line2d_45">
      <path d="M 273.761219 145.084197 
L 273.761219 12.5975 
" clip-path="url(#pec6dda41b8)" style="fill: none; stroke: #b0b0b0; stroke-width: 0.3; stroke-linecap: square"/>
     </g>
     <g id="line2d_46">
      <g>
       <use xlink:href="#m77185e2096" x="273.761219" y="145.084197" style="stroke: #000000; stroke-width: 0.8"/>
      </g>
     </g>
    </g>
    <g id="xtick_24">
     <g id="line2d_47">
      <path d="M 284.269276 145.084197 
L 284.269276 12.5975 
" clip-path="url(#pec6dda41b8)" style="fill: none; stroke: #b0b0b0; stroke-width: 0.3; stroke-linecap: square"/>
     </g>
     <g id="line2d_48">
      <g>
       <use xlink:href="#m77185e2096" x="284.269276" y="145.084197" style="stroke: #000000; stroke-width: 0.8"/>
      </g>
     </g>
    </g>
    <g id="text_6">
     <text style="font: 9.6px 'Futura', sans-serif; text-anchor: middle" x="160.799604" y="174.914947" transform="rotate(-0 160.799604 174.914947)">Wavelength (nm)</text>
    </g>
   </g>
   <g id="matplotlib.axis_2">
    <g id="ytick_1">
     <g id="line2d_49">
      <defs>
       <path id="me4927f37b8" d="M 0 0 
L -4.8 0 
" style="stroke: #000000"/>
      </defs>
      <g>
       <use xlink:href="#me4927f37b8" x="36.279125" y="145.084197" style="stroke: #000000"/>
      </g>
     </g>
     <g id="text_7">
      <text style="font: 8.8px 'Futura', sans-serif; text-anchor: end" x="27.979125" y="148.712822" transform="rotate(-0 27.979125 148.712822)">0.0</text>
     </g>
    </g>
    <g id="ytick_2">
     <g id="line2d_50">
      <g>
       <use xlink:href="#me4927f37b8" x="36.279125" y="116.318675" style="stroke: #000000"/>
      </g>
     </g>
     <g id="text_8">
      <text style="font: 8.8px 'Futura', sans-serif; text-anchor: end" x="27.979125" y="119.9473" transform="rotate(-0 27.979125 119.9473)">0.2</text>
     </g>
    </g>
    <g id="ytick_3">
     <g id="line2d_51">
      <g>
       <use xlink:href="#me4927f37b8" x="36.279125" y="87.553154" style="stroke: #000000"/>
      </g>
     </g>
     <g id="text_9">
      <text style="font: 8.8px 'Futura', sans-serif; text-anchor: end" x="27.979125" y="91.181779" transform="rotate(-0 27.979125 91.181779)">0.4</text>
     </g>
    </g>
    <g id="ytick_4">
     <g id="line2d_52">
      <g>
       <use xlink:href="#me4927f37b8" x="36.279125" y="58.787632" style="stroke: #000000"/>
      </g>
     </g>
     <g id="text_10">
      <text style="font: 8.8px 'Futura', sans-serif; text-anchor: end" x="27.979125" y="62.416257" transform="rotate(-0 27.979125 62.416257)">0.6</text>
     </g>
    </g>
    <g id="ytick_5">
     <g id="line2d_53">
      <g>
       <use xlink:href="#me4927f37b8" x="36.279125" y="30.02211" style="stroke: #000000"/>
      </g>
     </g>
     <g id="text_11">
      <text style="font: 8.8px 'Futura', sans-serif; text-anchor: end" x="27.979125" y="33.650735" transform="rotate(-0 27.979125 33.650735)">0.8</text>
     </g>
    </g>
    <g id="text_12">
     <text style="font: 9.6px 'Futura', sans-serif; text-anchor: middle" x="7.917" y="78.840848" transform="rotate(-90 7.917 78.840848)">Stacked Reflectance</text>
    </g>
   </g>
   <g id="line2d_54">
    <path d="M 37.329931 100.942375 
L 39.01122 101.279326 
L 39.641703 101.293325 
L 41.848395 100.489225 
L 42.478879 100.149367 
L 43.319523 99.508077 
L 45.316054 97.43536 
L 46.471941 95.244797 
L 48.048149 92.68721 
L 48.993874 90.178647 
L 50.149761 87.178406 
L 52.776775 79.835451 
L 55.193628 72.934283 
L 56.874917 68.760973 
L 57.610481 67.264938 
L 58.346045 65.819893 
L 59.18669 64.276882 
L 60.342576 61.965752 
L 62.339107 57.891629 
L 64.020396 54.288139 
L 67.382974 45.941964 
L 68.3287 43.471251 
L 69.274425 40.964886 
L 70.430311 37.868578 
L 71.691278 34.443699 
L 73.267487 30.30469 
L 73.89797 29.064889 
L 74.633534 27.640361 
L 76.840226 23.910264 
L 77.57579 22.915067 
L 78.101193 22.241079 
L 78.626596 21.569318 
L 79.46724 20.497133 
L 80.623127 19.572548 
L 81.148529 19.0819 
L 84.616188 17.438454 
L 87.558444 16.51572 
L 88.50417 16.494228 
L 88.924492 16.540998 
L 89.554975 16.278272 
L 90.921023 16.134412 
L 91.551506 15.978886 
L 92.28707 16.294012 
L 92.497231 16.338488 
L 93.127715 17.362873 
L 93.653118 17.539934 
L 94.388682 17.247631 
L 95.229326 17.166836 
L 96.175051 17.639426 
L 97.541099 16.981384 
L 98.171582 16.946787 
L 98.381743 17.043113 
L 98.802066 17.415385 
L 99.64271 16.682037 
L 99.852871 16.552465 
L 100.483355 17.026204 
L 100.903677 17.093236 
L 101.534161 16.449833 
L 102.374805 16.396044 
L 102.795127 16.310474 
L 104.056094 15.86647 
L 104.581497 15.230403 
L 105.422142 15.556169 
L 106.052625 15.753933 
L 106.578028 15.857571 
L 106.683109 15.873028 
L 107.313592 15.381994 
L 107.838995 15.301445 
L 108.364398 15.074438 
L 109.205042 15.318982 
L 109.310123 15.33722 
L 109.940606 14.757111 
L 110.57109 14.725913 
L 111.411734 14.821652 
L 112.567621 14.413673 
L 113.093024 14.788722 
L 114.24891 14.569106 
L 117.086085 14.479666 
L 117.716569 14.381396 
L 118.557213 14.532149 
L 119.187697 14.647538 
L 119.923261 14.627435 
L 122.129953 14.490269 
L 122.760436 14.593657 
L 123.601081 14.683887 
L 124.441725 14.973126 
L 124.967128 14.982832 
L 125.177289 14.894178 
L 126.123015 14.254905 
L 127.17382 13.923283 
L 128.014465 13.994799 
L 128.329707 14.140288 
L 129.380512 14.899952 
L 129.905915 14.822125 
L 130.641479 14.27199 
L 130.85164 14.070581 
L 131.902446 14.549354 
L 132.848171 14.649248 
L 133.898977 14.78362 
L 134.634541 14.671926 
L 135.895508 14.45035 
L 136.631072 14.456048 
L 137.997119 14.902176 
L 139.047925 14.992607 
L 141.149536 15.551519 
L 142.410503 15.484072 
L 143.040987 15.587802 
L 143.986712 16.258889 
L 145.247679 19.41635 
L 146.088323 22.238473 
L 147.34929 20.669279 
L 148.400096 20.200936 
L 149.240741 20.18486 
L 150.396627 21.254193 
L 151.657594 20.868576 
L 152.603319 20.878209 
L 153.443963 21.142484 
L 154.59985 20.111624 
L 155.650655 20.285902 
L 157.752267 19.39022 
L 158.908153 19.336263 
L 161.114845 18.623197 
L 161.95549 18.656072 
L 163.216457 17.967949 
L 164.897746 17.675634 
L 165.318068 17.52519 
L 166.158713 17.230977 
L 167.41968 17.430716 
L 168.260324 17.25917 
L 169.31113 16.447191 
L 170.467016 16.375661 
L 172.568628 15.710651 
L 174.144836 16.124026 
L 174.77532 16.129858 
L 175.721045 16.074547 
L 176.771851 16.498667 
L 177.822656 17.217216 
L 179.398865 17.507616 
L 180.869993 17.751358 
L 182.341121 18.249286 
L 183.076685 18.481657 
L 184.02241 18.948615 
L 185.073216 18.730858 
L 186.124022 19.375408 
L 187.069747 19.074272 
L 188.225633 19.957266 
L 189.276439 19.874744 
L 190.222164 20.546915 
L 191.37805 19.838085 
L 192.639017 20.60444 
L 194.425387 22.028225 
L 196.632079 22.67788 
L 197.682885 22.8619 
L 199.469254 24.046454 
L 200.730221 24.630136 
L 202.41151 25.284937 
L 205.038525 26.943498 
L 207.455378 27.971621 
L 209.241747 28.228359 
L 210.502714 28.49011 
L 212.394165 29.381194 
L 216.807549 31.478965 
L 216.807549 31.478965 
" clip-path="url(#pec6dda41b8)" style="fill: none; stroke: #1f77b4; stroke-width: 0.5; stroke-linecap: square"/>
   </g>
   <g id="line2d_55"/>
   <g id="patch_3">
    <path d="M 36.279125 145.084197 
L 36.279125 12.5975 
" style="fill: none; stroke: #000000; stroke-linejoin: miter; stroke-linecap: square"/>
   </g>
   <g id="patch_4">
    <path d="M 36.279125 145.084197 
L 285.320082 145.084197 
" style="fill: none; stroke: #000000; stroke-linejoin: miter; stroke-linecap: square"/>
   </g>
   <g id="text_13">
    <text style="font: 6px 'Futura', sans-serif; text-anchor: start" x="286.370888" y="33.176777" transform="rotate(-0 286.370888 33.176777)">Hematite GDS27</text>
   </g>
   <g id="text_14">
    <text style="fill: #1f77b4; font: 7px 'Futura', sans-serif; text-anchor: start" x="286.370888" y="7.805223" transform="rotate(-0 286.370888 7.805223)">Hematite</text>
   </g>
   <g id="text_15">
    <text style="font: 8px 'Futura', sans-serif; text-anchor: middle" x="160.799604" y="6.5975" transform="rotate(-0 160.799604 6.5975)">Hematites Stacked</text>
   </g>
  </g>
 </g>
 <defs>
  <clipPath id="pec6dda41b8">
   <rect x="36.279125" y="12.5975" width="249.040957" height="132.486697"/>
  </clipPath>
 </defs>
</svg>
