<?xml version="1.0" encoding="utf-8" standalone="no"?>
<!DOCTYPE svg PUBLIC "-//W3C//DTD SVG 1.1//EN"
  "http://www.w3.org/Graphics/SVG/1.1/DTD/svg11.dtd">
<svg xmlns:xlink="http://www.w3.org/1999/xlink" width="205.988654pt" height="185.92906pt" viewBox="0 0 205.988654 185.92906" xmlns="http://www.w3.org/2000/svg" version="1.1">
 <metadata>
  <rdf:RDF xmlns:dc="http://purl.org/dc/elements/1.1/" xmlns:cc="http://creativecommons.org/ns#" xmlns:rdf="http://www.w3.org/1999/02/22-rdf-syntax-ns#">
   <cc:Work>
    <dc:type rdf:resource="http://purl.org/dc/dcmitype/StillImage"/>
    <dc:date>2025-02-18T15:06:49.106313</dc:date>
    <dc:format>image/svg+xml</dc:format>
    <dc:creator>
     <cc:Agent>
      <dc:title>Matplotlib v3.6.2, https://matplotlib.org/</dc:title>
     </cc:Agent>
    </dc:creator>
   </cc:Work>
  </rdf:RDF>
 </metadata>
 <defs>
  <style type="text/css">*{stroke-linejoin: round; stroke-linecap: butt}</style>
 </defs>
 <g id="figure_1">
  <g id="patch_1">
   <path d="M 0 185.92906 
L 205.988654 185.92906 
L 205.988654 0 
L 0 0 
z
" style="fill: #ffffff"/>
  </g>
  <g id="axes_1">
   <g id="patch_2">
    <path d="M 34.933 130.398193 
L 205.988654 130.398193 
L 205.988654 12.5975 
L 34.933 12.5975 
z
" style="fill: #ffffff"/>
   </g>
   <g id="matplotlib.axis_1">
    <g id="xtick_1">
     <g id="line2d_1">
      <path d="M 46.013528 130.398193 
L 46.013528 12.5975 
" clip-path="url(#pcc3118893d)" style="fill: none; stroke: #b0b0b0; stroke-width: 0.6; stroke-linecap: square"/>
     </g>
     <g id="line2d_2">
      <defs>
       <path id="m5d1fe6dc7f" d="M 0 0 
L 0 4.8 
" style="stroke: #000000"/>
      </defs>
      <g>
       <use xlink:href="#m5d1fe6dc7f" x="46.013528" y="130.398193" style="stroke: #000000"/>
      </g>
     </g>
     <g id="text_1">
      <text style="font: 8.8px 'Arial'; text-anchor: middle" x="46.013528" y="144.997068" transform="rotate(-0 46.013528 144.997068)">1000</text>
     </g>
    </g>
    <g id="xtick_2">
     <g id="line2d_3">
      <path d="M 80.640179 130.398193 
L 80.640179 12.5975 
" clip-path="url(#pcc3118893d)" style="fill: none; stroke: #b0b0b0; stroke-width: 0.6; stroke-linecap: square"/>
     </g>
     <g id="line2d_4">
      <g>
       <use xlink:href="#m5d1fe6dc7f" x="80.640179" y="130.398193" style="stroke: #000000"/>
      </g>
     </g>
     <g id="text_2">
      <text style="font: 8.8px 'Arial'; text-anchor: middle" x="80.640179" y="144.997068" transform="rotate(-0 80.640179 144.997068)">1500</text>
     </g>
    </g>
    <g id="xtick_3">
     <g id="line2d_5">
      <path d="M 115.266829 130.398193 
L 115.266829 12.5975 
" clip-path="url(#pcc3118893d)" style="fill: none; stroke: #b0b0b0; stroke-width: 0.6; stroke-linecap: square"/>
     </g>
     <g id="line2d_6">
      <g>
       <use xlink:href="#m5d1fe6dc7f" x="115.266829" y="130.398193" style="stroke: #000000"/>
      </g>
     </g>
     <g id="text_3">
      <text style="font: 8.8px 'Arial'; text-anchor: middle" x="115.266829" y="144.997068" transform="rotate(-0 115.266829 144.997068)">2000</text>
     </g>
    </g>
    <g id="xtick_4">
     <g id="line2d_7">
      <path d="M 149.89348 130.398193 
L 149.89348 12.5975 
" clip-path="url(#pcc3118893d)" style="fill: none; stroke: #b0b0b0; stroke-width: 0.6; stroke-linecap: square"/>
     </g>
     <g id="line2d_8">
      <g>
       <use xlink:href="#m5d1fe6dc7f" x="149.89348" y="130.398193" style="stroke: #000000"/>
      </g>
     </g>
     <g id="text_4">
      <text style="font: 8.8px 'Arial'; text-anchor: middle" x="149.89348" y="144.997068" transform="rotate(-0 149.89348 144.997068)">2500</text>
     </g>
    </g>
    <g id="xtick_5">
     <g id="line2d_9">
      <path d="M 184.52013 130.398193 
L 184.52013 12.5975 
" clip-path="url(#pcc3118893d)" style="fill: none; stroke: #b0b0b0; stroke-width: 0.6; stroke-linecap: square"/>
     </g>
     <g id="line2d_10">
      <g>
       <use xlink:href="#m5d1fe6dc7f" x="184.52013" y="130.398193" style="stroke: #000000"/>
      </g>
     </g>
     <g id="text_5">
      <text style="font: 8.8px 'Arial'; text-anchor: middle" x="184.52013" y="144.997068" transform="rotate(-0 184.52013 144.997068)">3000</text>
     </g>
    </g>
    <g id="xtick_6">
     <g id="line2d_11">
      <path d="M 39.088198 130.398193 
L 39.088198 12.5975 
" clip-path="url(#pcc3118893d)" style="fill: none; stroke: #b0b0b0; stroke-width: 0.3; stroke-linecap: square"/>
     </g>
     <g id="line2d_12">
      <defs>
       <path id="m652a752ac3" d="M 0 0 
L 0 3.2 
" style="stroke: #000000; stroke-width: 0.8"/>
      </defs>
      <g>
       <use xlink:href="#m652a752ac3" x="39.088198" y="130.398193" style="stroke: #000000; stroke-width: 0.8"/>
      </g>
     </g>
    </g>
    <g id="xtick_7">
     <g id="line2d_13">
      <path d="M 52.938858 130.398193 
L 52.938858 12.5975 
" clip-path="url(#pcc3118893d)" style="fill: none; stroke: #b0b0b0; stroke-width: 0.3; stroke-linecap: square"/>
     </g>
     <g id="line2d_14">
      <g>
       <use xlink:href="#m652a752ac3" x="52.938858" y="130.398193" style="stroke: #000000; stroke-width: 0.8"/>
      </g>
     </g>
    </g>
    <g id="xtick_8">
     <g id="line2d_15">
      <path d="M 59.864188 130.398193 
L 59.864188 12.5975 
" clip-path="url(#pcc3118893d)" style="fill: none; stroke: #b0b0b0; stroke-width: 0.3; stroke-linecap: square"/>
     </g>
     <g id="line2d_16">
      <g>
       <use xlink:href="#m652a752ac3" x="59.864188" y="130.398193" style="stroke: #000000; stroke-width: 0.8"/>
      </g>
     </g>
    </g>
    <g id="xtick_9">
     <g id="line2d_17">
      <path d="M 66.789518 130.398193 
L 66.789518 12.5975 
" clip-path="url(#pcc3118893d)" style="fill: none; stroke: #b0b0b0; stroke-width: 0.3; stroke-linecap: square"/>
     </g>
     <g id="line2d_18">
      <g>
       <use xlink:href="#m652a752ac3" x="66.789518" y="130.398193" style="stroke: #000000; stroke-width: 0.8"/>
      </g>
     </g>
    </g>
    <g id="xtick_10">
     <g id="line2d_19">
      <path d="M 73.714849 130.398193 
L 73.714849 12.5975 
" clip-path="url(#pcc3118893d)" style="fill: none; stroke: #b0b0b0; stroke-width: 0.3; stroke-linecap: square"/>
     </g>
     <g id="line2d_20">
      <g>
       <use xlink:href="#m652a752ac3" x="73.714849" y="130.398193" style="stroke: #000000; stroke-width: 0.8"/>
      </g>
     </g>
    </g>
    <g id="xtick_11">
     <g id="line2d_21">
      <path d="M 87.565509 130.398193 
L 87.565509 12.5975 
" clip-path="url(#pcc3118893d)" style="fill: none; stroke: #b0b0b0; stroke-width: 0.3; stroke-linecap: square"/>
     </g>
     <g id="line2d_22">
      <g>
       <use xlink:href="#m652a752ac3" x="87.565509" y="130.398193" style="stroke: #000000; stroke-width: 0.8"/>
      </g>
     </g>
    </g>
    <g id="xtick_12">
     <g id="line2d_23">
      <path d="M 94.490839 130.398193 
L 94.490839 12.5975 
" clip-path="url(#pcc3118893d)" style="fill: none; stroke: #b0b0b0; stroke-width: 0.3; stroke-linecap: square"/>
     </g>
     <g id="line2d_24">
      <g>
       <use xlink:href="#m652a752ac3" x="94.490839" y="130.398193" style="stroke: #000000; stroke-width: 0.8"/>
      </g>
     </g>
    </g>
    <g id="xtick_13">
     <g id="line2d_25">
      <path d="M 101.416169 130.398193 
L 101.416169 12.5975 
" clip-path="url(#pcc3118893d)" style="fill: none; stroke: #b0b0b0; stroke-width: 0.3; stroke-linecap: square"/>
     </g>
     <g id="line2d_26">
      <g>
       <use xlink:href="#m652a752ac3" x="101.416169" y="130.398193" style="stroke: #000000; stroke-width: 0.8"/>
      </g>
     </g>
    </g>
    <g id="xtick_14">
     <g id="line2d_27">
      <path d="M 108.341499 130.398193 
L 108.341499 12.5975 
" clip-path="url(#pcc3118893d)" style="fill: none; stroke: #b0b0b0; stroke-width: 0.3; stroke-linecap: square"/>
     </g>
     <g id="line2d_28">
      <g>
       <use xlink:href="#m652a752ac3" x="108.341499" y="130.398193" style="stroke: #000000; stroke-width: 0.8"/>
      </g>
     </g>
    </g>
    <g id="xtick_15">
     <g id="line2d_29">
      <path d="M 122.192159 130.398193 
L 122.192159 12.5975 
" clip-path="url(#pcc3118893d)" style="fill: none; stroke: #b0b0b0; stroke-width: 0.3; stroke-linecap: square"/>
     </g>
     <g id="line2d_30">
      <g>
       <use xlink:href="#m652a752ac3" x="122.192159" y="130.398193" style="stroke: #000000; stroke-width: 0.8"/>
      </g>
     </g>
    </g>
    <g id="xtick_16">
     <g id="line2d_31">
      <path d="M 129.117489 130.398193 
L 129.117489 12.5975 
" clip-path="url(#pcc3118893d)" style="fill: none; stroke: #b0b0b0; stroke-width: 0.3; stroke-linecap: square"/>
     </g>
     <g id="line2d_32">
      <g>
       <use xlink:href="#m652a752ac3" x="129.117489" y="130.398193" style="stroke: #000000; stroke-width: 0.8"/>
      </g>
     </g>
    </g>
    <g id="xtick_17">
     <g id="line2d_33">
      <path d="M 136.04282 130.398193 
L 136.04282 12.5975 
" clip-path="url(#pcc3118893d)" style="fill: none; stroke: #b0b0b0; stroke-width: 0.3; stroke-linecap: square"/>
     </g>
     <g id="line2d_34">
      <g>
       <use xlink:href="#m652a752ac3" x="136.04282" y="130.398193" style="stroke: #000000; stroke-width: 0.8"/>
      </g>
     </g>
    </g>
    <g id="xtick_18">
     <g id="line2d_35">
      <path d="M 142.96815 130.398193 
L 142.96815 12.5975 
" clip-path="url(#pcc3118893d)" style="fill: none; stroke: #b0b0b0; stroke-width: 0.3; stroke-linecap: square"/>
     </g>
     <g id="line2d_36">
      <g>
       <use xlink:href="#m652a752ac3" x="142.96815" y="130.398193" style="stroke: #000000; stroke-width: 0.8"/>
      </g>
     </g>
    </g>
    <g id="xtick_19">
     <g id="line2d_37">
      <path d="M 156.81881 130.398193 
L 156.81881 12.5975 
" clip-path="url(#pcc3118893d)" style="fill: none; stroke: #b0b0b0; stroke-width: 0.3; stroke-linecap: square"/>
     </g>
     <g id="line2d_38">
      <g>
       <use xlink:href="#m652a752ac3" x="156.81881" y="130.398193" style="stroke: #000000; stroke-width: 0.8"/>
      </g>
     </g>
    </g>
    <g id="xtick_20">
     <g id="line2d_39">
      <path d="M 163.74414 130.398193 
L 163.74414 12.5975 
" clip-path="url(#pcc3118893d)" style="fill: none; stroke: #b0b0b0; stroke-width: 0.3; stroke-linecap: square"/>
     </g>
     <g id="line2d_40">
      <g>
       <use xlink:href="#m652a752ac3" x="163.74414" y="130.398193" style="stroke: #000000; stroke-width: 0.8"/>
      </g>
     </g>
    </g>
    <g id="xtick_21">
     <g id="line2d_41">
      <path d="M 170.66947 130.398193 
L 170.66947 12.5975 
" clip-path="url(#pcc3118893d)" style="fill: none; stroke: #b0b0b0; stroke-width: 0.3; stroke-linecap: square"/>
     </g>
     <g id="line2d_42">
      <g>
       <use xlink:href="#m652a752ac3" x="170.66947" y="130.398193" style="stroke: #000000; stroke-width: 0.8"/>
      </g>
     </g>
    </g>
    <g id="xtick_22">
     <g id="line2d_43">
      <path d="M 177.5948 130.398193 
L 177.5948 12.5975 
" clip-path="url(#pcc3118893d)" style="fill: none; stroke: #b0b0b0; stroke-width: 0.3; stroke-linecap: square"/>
     </g>
     <g id="line2d_44">
      <g>
       <use xlink:href="#m652a752ac3" x="177.5948" y="130.398193" style="stroke: #000000; stroke-width: 0.8"/>
      </g>
     </g>
    </g>
    <g id="xtick_23">
     <g id="line2d_45">
      <path d="M 191.44546 130.398193 
L 191.44546 12.5975 
" clip-path="url(#pcc3118893d)" style="fill: none; stroke: #b0b0b0; stroke-width: 0.3; stroke-linecap: square"/>
     </g>
     <g id="line2d_46">
      <g>
       <use xlink:href="#m652a752ac3" x="191.44546" y="130.398193" style="stroke: #000000; stroke-width: 0.8"/>
      </g>
     </g>
    </g>
    <g id="xtick_24">
     <g id="line2d_47">
      <path d="M 198.37079 130.398193 
L 198.37079 12.5975 
" clip-path="url(#pcc3118893d)" style="fill: none; stroke: #b0b0b0; stroke-width: 0.3; stroke-linecap: square"/>
     </g>
     <g id="line2d_48">
      <g>
       <use xlink:href="#m652a752ac3" x="198.37079" y="130.398193" style="stroke: #000000; stroke-width: 0.8"/>
      </g>
     </g>
    </g>
    <g id="xtick_25">
     <g id="line2d_49">
      <path d="M 205.296121 130.398193 
L 205.296121 12.5975 
" clip-path="url(#pcc3118893d)" style="fill: none; stroke: #b0b0b0; stroke-width: 0.3; stroke-linecap: square"/>
     </g>
     <g id="line2d_50">
      <g>
       <use xlink:href="#m652a752ac3" x="205.296121" y="130.398193" style="stroke: #000000; stroke-width: 0.8"/>
      </g>
     </g>
    </g>
    <g id="text_6">
     <text style="font: 9.6px 'Futura', sans-serif; text-anchor: middle" x="120.460827" y="158.742568" transform="rotate(-0 120.460827 158.742568)">Wavelength (nm)</text>
    </g>
   </g>
   <g id="matplotlib.axis_2">
    <g id="ytick_1">
     <g id="line2d_51">
      <path d="M 34.933 130.398193 
L 205.988654 130.398193 
" clip-path="url(#pcc3118893d)" style="fill: none; stroke: #b0b0b0; stroke-width: 0.6; stroke-linecap: square"/>
     </g>
     <g id="line2d_52">
      <defs>
       <path id="m52fb69c580" d="M 0 0 
L -4.8 0 
" style="stroke: #000000"/>
      </defs>
      <g>
       <use xlink:href="#m52fb69c580" x="34.933" y="130.398193" style="stroke: #000000"/>
      </g>
     </g>
     <g id="text_7">
      <text style="font: 8.8px 'Arial'; text-anchor: end" x="26.633" y="133.54763" transform="rotate(-0 26.633 133.54763)">0.0</text>
     </g>
    </g>
    <g id="ytick_2">
     <g id="line2d_53">
      <path d="M 34.933 102.58606 
L 205.988654 102.58606 
" clip-path="url(#pcc3118893d)" style="fill: none; stroke: #b0b0b0; stroke-width: 0.6; stroke-linecap: square"/>
     </g>
     <g id="line2d_54">
      <g>
       <use xlink:href="#m52fb69c580" x="34.933" y="102.58606" style="stroke: #000000"/>
      </g>
     </g>
     <g id="text_8">
      <text style="font: 8.8px 'Arial'; text-anchor: end" x="26.633" y="105.735497" transform="rotate(-0 26.633 105.735497)">0.2</text>
     </g>
    </g>
    <g id="ytick_3">
     <g id="line2d_55">
      <path d="M 34.933 74.773926 
L 205.988654 74.773926 
" clip-path="url(#pcc3118893d)" style="fill: none; stroke: #b0b0b0; stroke-width: 0.6; stroke-linecap: square"/>
     </g>
     <g id="line2d_56">
      <g>
       <use xlink:href="#m52fb69c580" x="34.933" y="74.773926" style="stroke: #000000"/>
      </g>
     </g>
     <g id="text_9">
      <text style="font: 8.8px 'Arial'; text-anchor: end" x="26.633" y="77.923364" transform="rotate(-0 26.633 77.923364)">0.4</text>
     </g>
    </g>
    <g id="ytick_4">
     <g id="line2d_57">
      <path d="M 34.933 46.961793 
L 205.988654 46.961793 
" clip-path="url(#pcc3118893d)" style="fill: none; stroke: #b0b0b0; stroke-width: 0.6; stroke-linecap: square"/>
     </g>
     <g id="line2d_58">
      <g>
       <use xlink:href="#m52fb69c580" x="34.933" y="46.961793" style="stroke: #000000"/>
      </g>
     </g>
     <g id="text_10">
      <text style="font: 8.8px 'Arial'; text-anchor: end" x="26.633" y="50.111231" transform="rotate(-0 26.633 50.111231)">0.6</text>
     </g>
    </g>
    <g id="ytick_5">
     <g id="line2d_59">
      <path d="M 34.933 19.14966 
L 205.988654 19.14966 
" clip-path="url(#pcc3118893d)" style="fill: none; stroke: #b0b0b0; stroke-width: 0.6; stroke-linecap: square"/>
     </g>
     <g id="line2d_60">
      <g>
       <use xlink:href="#m52fb69c580" x="34.933" y="19.14966" style="stroke: #000000"/>
      </g>
     </g>
     <g id="text_11">
      <text style="font: 8.8px 'Arial'; text-anchor: end" x="26.633" y="22.299097" transform="rotate(-0 26.633 22.299097)">0.8</text>
     </g>
    </g>
    <g id="text_12">
     <text style="font: 9.6px 'Futura', sans-serif; text-anchor: middle" x="7.917" y="71.497846" transform="rotate(-90 7.917 71.497846)">Reflectance</text>
    </g>
   </g>
   <g id="line2d_61">
    <path d="M 35.625533 97.912392 
L 36.802839 98.257485 
L 37.149106 98.25171 
L 38.741932 97.400043 
L 39.642224 96.424941 
L 40.888784 94.521611 
L 41.789077 92.092515 
L 42.758623 89.688438 
L 43.520409 86.626785 
L 44.559209 82.696534 
L 46.152035 75.9714 
L 47.398594 70.832584 
L 48.645154 66.43245 
L 49.960966 62.687153 
L 51.069019 59.463499 
L 52.038565 56.493406 
L 53.423631 52.067733 
L 56.470777 40.830233 
L 57.648083 36.171068 
L 58.479122 32.768468 
L 59.310162 29.615882 
L 59.864188 27.959039 
L 61.664774 23.433389 
L 62.218801 22.303811 
L 62.565067 21.713888 
L 62.980587 20.877886 
L 63.534613 19.993734 
L 64.157893 19.239441 
L 64.573413 18.713585 
L 66.858772 17.140485 
L 68.728611 16.283927 
L 69.351891 16.263147 
L 69.628904 16.308366 
L 70.044424 16.054349 
L 70.944717 15.915257 
L 71.360236 15.764886 
L 71.845009 16.069567 
L 71.983516 16.112568 
L 72.468289 17.160133 
L 72.745302 17.274194 
L 73.230075 16.991579 
L 73.784102 16.913462 
L 74.407382 17.370389 
L 75.376928 16.711132 
L 75.723194 16.700707 
L 75.861701 16.79384 
L 76.138714 17.153773 
L 76.761994 16.382092 
L 76.831247 16.319453 
L 77.31602 16.793694 
L 77.52378 16.842302 
L 78.008553 16.202288 
L 79.462873 15.717166 
L 79.670632 15.533198 
L 79.947646 15.041209 
L 80.016899 15.095351 
L 80.501672 15.356178 
L 80.917192 15.547388 
L 81.332712 15.662535 
L 81.817485 15.184616 
L 82.094498 15.109897 
L 82.440765 14.890414 
L 83.064044 15.144486 
L 83.548817 14.564344 
L 83.895084 14.55344 
L 84.44911 14.646006 
L 85.210897 14.251548 
L 85.557163 14.614167 
L 86.318949 14.40183 
L 88.188788 14.315354 
L 88.673562 14.227919 
L 89.158335 14.366098 
L 89.573855 14.477663 
L 90.127881 14.448238 
L 91.512947 14.325606 
L 91.99772 14.427802 
L 92.482493 14.512807 
L 93.105773 14.815086 
L 93.521293 14.716128 
L 94.213826 14.056823 
L 94.837105 13.777412 
L 95.391132 13.846558 
L 95.668145 14.072749 
L 96.291425 14.721711 
L 96.637691 14.646463 
L 97.122464 14.114562 
L 97.260971 13.919828 
L 97.330224 13.977452 
L 97.953504 14.382733 
L 98.646037 14.502272 
L 99.269317 14.609234 
L 99.75409 14.501243 
L 100.654383 14.278588 
L 101.139156 14.331514 
L 102.039449 14.723273 
L 102.662728 14.811295 
L 104.117048 15.338339 
L 104.878834 15.286471 
L 105.294354 15.386763 
L 105.917634 16.035608 
L 106.817926 19.429493 
L 107.3027 21.817008 
L 107.371953 21.676512 
L 108.133739 20.299823 
L 108.826272 19.847002 
L 109.449552 19.938731 
L 110.142085 20.86535 
L 111.042378 20.484718 
L 111.596404 20.501827 
L 112.150431 20.757344 
L 112.912217 19.76065 
L 113.60475 19.929152 
L 115.059069 19.065774 
L 115.751602 19.010987 
L 117.205922 18.321555 
L 117.759948 18.35334 
L 118.590988 17.688024 
L 120.73784 17.051075 
L 121.36112 17.168597 
L 121.915146 17.002736 
L 122.676932 16.218158 
L 123.369465 16.14851 
L 124.754531 15.50554 
L 125.862584 15.923633 
L 126.208851 15.910854 
L 126.83213 15.857375 
L 127.524663 16.267439 
L 128.28645 16.987727 
L 129.325249 17.253854 
L 130.225542 17.478611 
L 131.264342 17.980821 
L 131.679862 18.184706 
L 132.303141 18.636187 
L 132.995674 18.425647 
L 133.688207 19.048835 
L 134.38074 18.844738 
L 135.073273 19.611408 
L 135.765806 19.531621 
L 136.389086 20.181514 
L 136.458339 20.107659 
L 137.150872 19.496177 
L 138.051165 20.32439 
L 139.228471 21.648159 
L 140.682791 22.253348 
L 141.30607 22.419772 
L 142.621883 23.679569 
L 143.314416 24.129403 
L 144.422469 24.762501 
L 146.223055 26.414002 
L 147.815881 27.381087 
L 149.824226 27.903188 
L 151.140039 28.82025 
L 153.910171 30.751238 
L 153.910171 30.751238 
" clip-path="url(#pcc3118893d)" style="fill: none; stroke: #1f77b4; stroke-width: 0.5; stroke-linecap: square"/>
   </g>
   <g id="line2d_62"/>
   <g id="patch_3">
    <path d="M 34.933 130.398193 
L 34.933 12.5975 
" style="fill: none; stroke: #000000; stroke-linejoin: miter; stroke-linecap: square"/>
   </g>
   <g id="patch_4">
    <path d="M 34.933 130.398193 
L 205.988654 130.398193 
" style="fill: none; stroke: #000000; stroke-linejoin: miter; stroke-linecap: square"/>
   </g>
   <g id="text_13">
    <text style="font: 8px 'Futura', sans-serif; text-anchor: middle" x="120.460827" y="6.5975" transform="rotate(-0 120.460827 6.5975)">Hematite</text>
   </g>
   <g id="legend_1">
    <g id="patch_5">
     <path d="M 99.582233 185.92906 
L 141.339421 185.92906 
L 141.339421 174.628435 
L 99.582233 174.628435 
z
" style="fill: #ffffff; opacity: 0.8; stroke: #cccccc; stroke-width: 0.8; stroke-linejoin: miter"/>
    </g>
    <g id="line2d_63">
     <path d="M 101.982233 179.87656 
L 107.982233 179.87656 
L 113.982233 179.87656 
" style="fill: none; stroke: #1f77b4; stroke-width: 1.2; stroke-linecap: square"/>
    </g>
    <g id="text_14">
     <text style="font: 6px 'Futura', sans-serif; text-anchor: start" x="118.782233" y="181.97656" transform="rotate(-0 118.782233 181.97656)">GDS27</text>
    </g>
   </g>
  </g>
 </g>
 <defs>
  <clipPath id="pcc3118893d">
   <rect x="34.933" y="12.5975" width="171.055654" height="117.800693"/>
  </clipPath>
 </defs>
</svg>
