<?xml version="1.0" encoding="utf-8" standalone="no"?>
<!DOCTYPE svg PUBLIC "-//W3C//DTD SVG 1.1//EN"
  "http://www.w3.org/Graphics/SVG/1.1/DTD/svg11.dtd">
<svg xmlns:xlink="http://www.w3.org/1999/xlink" width="332.362078pt" height="177.409447pt" viewBox="0 0 332.362078 177.409447" xmlns="http://www.w3.org/2000/svg" version="1.1">
 <metadata>
  <rdf:RDF xmlns:dc="http://purl.org/dc/elements/1.1/" xmlns:cc="http://creativecommons.org/ns#" xmlns:rdf="http://www.w3.org/1999/02/22-rdf-syntax-ns#">
   <cc:Work>
    <dc:type rdf:resource="http://purl.org/dc/dcmitype/StillImage"/>
    <dc:date>2025-02-15T18:14:11.129249</dc:date>
    <dc:format>image/svg+xml</dc:format>
    <dc:creator>
     <cc:Agent>
      <dc:title>Matplotlib v3.6.2, https://matplotlib.org/</dc:title>
     </cc:Agent>
    </dc:creator>
   </cc:Work>
  </rdf:RDF>
 </metadata>
 <defs>
  <style type="text/css">*{stroke-linejoin: round; stroke-linecap: butt}</style>
 </defs>
 <g id="figure_1">
  <g id="patch_1">
   <path d="M 0 177.409447 
L 332.362078 177.409447 
L 332.362078 0 
L 0 0 
z
" style="fill: #ffffff"/>
  </g>
  <g id="axes_1">
   <g id="patch_2">
    <path d="M 28.13225 145.084197 
L 248.793207 145.084197 
L 248.793207 12.5975 
L 28.13225 12.5975 
z
" style="fill: #ffffff"/>
   </g>
   <g id="matplotlib.axis_1">
    <g id="xtick_1">
     <g id="line2d_1">
      <path d="M 43.029192 145.084197 
L 43.029192 12.5975 
" clip-path="url(#pcb8469a18d)" style="fill: none; stroke: #b0b0b0; stroke-width: 0.6; stroke-linecap: square"/>
     </g>
     <g id="line2d_2">
      <defs>
       <path id="mcbbe8bff24" d="M 0 0 
L 0 4.8 
" style="stroke: #000000"/>
      </defs>
      <g>
       <use xlink:href="#mcbbe8bff24" x="43.029192" y="145.084197" style="stroke: #000000"/>
      </g>
     </g>
     <g id="text_1">
      <text style="font: 8.8px 'Futura', sans-serif; text-anchor: middle" x="43.029192" y="160.641447" transform="rotate(-0 43.029192 160.641447)">1000</text>
     </g>
    </g>
    <g id="xtick_2">
     <g id="line2d_3">
      <path d="M 89.582137 145.084197 
L 89.582137 12.5975 
" clip-path="url(#pcb8469a18d)" style="fill: none; stroke: #b0b0b0; stroke-width: 0.6; stroke-linecap: square"/>
     </g>
     <g id="line2d_4">
      <g>
       <use xlink:href="#mcbbe8bff24" x="89.582137" y="145.084197" style="stroke: #000000"/>
      </g>
     </g>
     <g id="text_2">
      <text style="font: 8.8px 'Futura', sans-serif; text-anchor: middle" x="89.582137" y="160.641447" transform="rotate(-0 89.582137 160.641447)">1500</text>
     </g>
    </g>
    <g id="xtick_3">
     <g id="line2d_5">
      <path d="M 136.135081 145.084197 
L 136.135081 12.5975 
" clip-path="url(#pcb8469a18d)" style="fill: none; stroke: #b0b0b0; stroke-width: 0.6; stroke-linecap: square"/>
     </g>
     <g id="line2d_6">
      <g>
       <use xlink:href="#mcbbe8bff24" x="136.135081" y="145.084197" style="stroke: #000000"/>
      </g>
     </g>
     <g id="text_3">
      <text style="font: 8.8px 'Futura', sans-serif; text-anchor: middle" x="136.135081" y="160.641447" transform="rotate(-0 136.135081 160.641447)">2000</text>
     </g>
    </g>
    <g id="xtick_4">
     <g id="line2d_7">
      <path d="M 182.688026 145.084197 
L 182.688026 12.5975 
" clip-path="url(#pcb8469a18d)" style="fill: none; stroke: #b0b0b0; stroke-width: 0.6; stroke-linecap: square"/>
     </g>
     <g id="line2d_8">
      <g>
       <use xlink:href="#mcbbe8bff24" x="182.688026" y="145.084197" style="stroke: #000000"/>
      </g>
     </g>
     <g id="text_4">
      <text style="font: 8.8px 'Futura', sans-serif; text-anchor: middle" x="182.688026" y="160.641447" transform="rotate(-0 182.688026 160.641447)">2500</text>
     </g>
    </g>
    <g id="xtick_5">
     <g id="line2d_9">
      <path d="M 229.24097 145.084197 
L 229.24097 12.5975 
" clip-path="url(#pcb8469a18d)" style="fill: none; stroke: #b0b0b0; stroke-width: 0.6; stroke-linecap: square"/>
     </g>
     <g id="line2d_10">
      <g>
       <use xlink:href="#mcbbe8bff24" x="229.24097" y="145.084197" style="stroke: #000000"/>
      </g>
     </g>
     <g id="text_5">
      <text style="font: 8.8px 'Futura', sans-serif; text-anchor: middle" x="229.24097" y="160.641447" transform="rotate(-0 229.24097 160.641447)">3000</text>
     </g>
    </g>
    <g id="xtick_6">
     <g id="line2d_11">
      <path d="M 33.718603 145.084197 
L 33.718603 12.5975 
" clip-path="url(#pcb8469a18d)" style="fill: none; stroke: #b0b0b0; stroke-width: 0.3; stroke-linecap: square"/>
     </g>
     <g id="line2d_12">
      <defs>
       <path id="m53ffd15a8f" d="M 0 0 
L 0 3.2 
" style="stroke: #000000; stroke-width: 0.8"/>
      </defs>
      <g>
       <use xlink:href="#m53ffd15a8f" x="33.718603" y="145.084197" style="stroke: #000000; stroke-width: 0.8"/>
      </g>
     </g>
    </g>
    <g id="xtick_7">
     <g id="line2d_13">
      <path d="M 52.339781 145.084197 
L 52.339781 12.5975 
" clip-path="url(#pcb8469a18d)" style="fill: none; stroke: #b0b0b0; stroke-width: 0.3; stroke-linecap: square"/>
     </g>
     <g id="line2d_14">
      <g>
       <use xlink:href="#m53ffd15a8f" x="52.339781" y="145.084197" style="stroke: #000000; stroke-width: 0.8"/>
      </g>
     </g>
    </g>
    <g id="xtick_8">
     <g id="line2d_15">
      <path d="M 61.65037 145.084197 
L 61.65037 12.5975 
" clip-path="url(#pcb8469a18d)" style="fill: none; stroke: #b0b0b0; stroke-width: 0.3; stroke-linecap: square"/>
     </g>
     <g id="line2d_16">
      <g>
       <use xlink:href="#m53ffd15a8f" x="61.65037" y="145.084197" style="stroke: #000000; stroke-width: 0.8"/>
      </g>
     </g>
    </g>
    <g id="xtick_9">
     <g id="line2d_17">
      <path d="M 70.960959 145.084197 
L 70.960959 12.5975 
" clip-path="url(#pcb8469a18d)" style="fill: none; stroke: #b0b0b0; stroke-width: 0.3; stroke-linecap: square"/>
     </g>
     <g id="line2d_18">
      <g>
       <use xlink:href="#m53ffd15a8f" x="70.960959" y="145.084197" style="stroke: #000000; stroke-width: 0.8"/>
      </g>
     </g>
    </g>
    <g id="xtick_10">
     <g id="line2d_19">
      <path d="M 80.271548 145.084197 
L 80.271548 12.5975 
" clip-path="url(#pcb8469a18d)" style="fill: none; stroke: #b0b0b0; stroke-width: 0.3; stroke-linecap: square"/>
     </g>
     <g id="line2d_20">
      <g>
       <use xlink:href="#m53ffd15a8f" x="80.271548" y="145.084197" style="stroke: #000000; stroke-width: 0.8"/>
      </g>
     </g>
    </g>
    <g id="xtick_11">
     <g id="line2d_21">
      <path d="M 98.892726 145.084197 
L 98.892726 12.5975 
" clip-path="url(#pcb8469a18d)" style="fill: none; stroke: #b0b0b0; stroke-width: 0.3; stroke-linecap: square"/>
     </g>
     <g id="line2d_22">
      <g>
       <use xlink:href="#m53ffd15a8f" x="98.892726" y="145.084197" style="stroke: #000000; stroke-width: 0.8"/>
      </g>
     </g>
    </g>
    <g id="xtick_12">
     <g id="line2d_23">
      <path d="M 108.203315 145.084197 
L 108.203315 12.5975 
" clip-path="url(#pcb8469a18d)" style="fill: none; stroke: #b0b0b0; stroke-width: 0.3; stroke-linecap: square"/>
     </g>
     <g id="line2d_24">
      <g>
       <use xlink:href="#m53ffd15a8f" x="108.203315" y="145.084197" style="stroke: #000000; stroke-width: 0.8"/>
      </g>
     </g>
    </g>
    <g id="xtick_13">
     <g id="line2d_25">
      <path d="M 117.513903 145.084197 
L 117.513903 12.5975 
" clip-path="url(#pcb8469a18d)" style="fill: none; stroke: #b0b0b0; stroke-width: 0.3; stroke-linecap: square"/>
     </g>
     <g id="line2d_26">
      <g>
       <use xlink:href="#m53ffd15a8f" x="117.513903" y="145.084197" style="stroke: #000000; stroke-width: 0.8"/>
      </g>
     </g>
    </g>
    <g id="xtick_14">
     <g id="line2d_27">
      <path d="M 126.824492 145.084197 
L 126.824492 12.5975 
" clip-path="url(#pcb8469a18d)" style="fill: none; stroke: #b0b0b0; stroke-width: 0.3; stroke-linecap: square"/>
     </g>
     <g id="line2d_28">
      <g>
       <use xlink:href="#m53ffd15a8f" x="126.824492" y="145.084197" style="stroke: #000000; stroke-width: 0.8"/>
      </g>
     </g>
    </g>
    <g id="xtick_15">
     <g id="line2d_29">
      <path d="M 145.44567 145.084197 
L 145.44567 12.5975 
" clip-path="url(#pcb8469a18d)" style="fill: none; stroke: #b0b0b0; stroke-width: 0.3; stroke-linecap: square"/>
     </g>
     <g id="line2d_30">
      <g>
       <use xlink:href="#m53ffd15a8f" x="145.44567" y="145.084197" style="stroke: #000000; stroke-width: 0.8"/>
      </g>
     </g>
    </g>
    <g id="xtick_16">
     <g id="line2d_31">
      <path d="M 154.756259 145.084197 
L 154.756259 12.5975 
" clip-path="url(#pcb8469a18d)" style="fill: none; stroke: #b0b0b0; stroke-width: 0.3; stroke-linecap: square"/>
     </g>
     <g id="line2d_32">
      <g>
       <use xlink:href="#m53ffd15a8f" x="154.756259" y="145.084197" style="stroke: #000000; stroke-width: 0.8"/>
      </g>
     </g>
    </g>
    <g id="xtick_17">
     <g id="line2d_33">
      <path d="M 164.066848 145.084197 
L 164.066848 12.5975 
" clip-path="url(#pcb8469a18d)" style="fill: none; stroke: #b0b0b0; stroke-width: 0.3; stroke-linecap: square"/>
     </g>
     <g id="line2d_34">
      <g>
       <use xlink:href="#m53ffd15a8f" x="164.066848" y="145.084197" style="stroke: #000000; stroke-width: 0.8"/>
      </g>
     </g>
    </g>
    <g id="xtick_18">
     <g id="line2d_35">
      <path d="M 173.377437 145.084197 
L 173.377437 12.5975 
" clip-path="url(#pcb8469a18d)" style="fill: none; stroke: #b0b0b0; stroke-width: 0.3; stroke-linecap: square"/>
     </g>
     <g id="line2d_36">
      <g>
       <use xlink:href="#m53ffd15a8f" x="173.377437" y="145.084197" style="stroke: #000000; stroke-width: 0.8"/>
      </g>
     </g>
    </g>
    <g id="xtick_19">
     <g id="line2d_37">
      <path d="M 191.998615 145.084197 
L 191.998615 12.5975 
" clip-path="url(#pcb8469a18d)" style="fill: none; stroke: #b0b0b0; stroke-width: 0.3; stroke-linecap: square"/>
     </g>
     <g id="line2d_38">
      <g>
       <use xlink:href="#m53ffd15a8f" x="191.998615" y="145.084197" style="stroke: #000000; stroke-width: 0.8"/>
      </g>
     </g>
    </g>
    <g id="xtick_20">
     <g id="line2d_39">
      <path d="M 201.309204 145.084197 
L 201.309204 12.5975 
" clip-path="url(#pcb8469a18d)" style="fill: none; stroke: #b0b0b0; stroke-width: 0.3; stroke-linecap: square"/>
     </g>
     <g id="line2d_40">
      <g>
       <use xlink:href="#m53ffd15a8f" x="201.309204" y="145.084197" style="stroke: #000000; stroke-width: 0.8"/>
      </g>
     </g>
    </g>
    <g id="xtick_21">
     <g id="line2d_41">
      <path d="M 210.619793 145.084197 
L 210.619793 12.5975 
" clip-path="url(#pcb8469a18d)" style="fill: none; stroke: #b0b0b0; stroke-width: 0.3; stroke-linecap: square"/>
     </g>
     <g id="line2d_42">
      <g>
       <use xlink:href="#m53ffd15a8f" x="210.619793" y="145.084197" style="stroke: #000000; stroke-width: 0.8"/>
      </g>
     </g>
    </g>
    <g id="xtick_22">
     <g id="line2d_43">
      <path d="M 219.930381 145.084197 
L 219.930381 12.5975 
" clip-path="url(#pcb8469a18d)" style="fill: none; stroke: #b0b0b0; stroke-width: 0.3; stroke-linecap: square"/>
     </g>
     <g id="line2d_44">
      <g>
       <use xlink:href="#m53ffd15a8f" x="219.930381" y="145.084197" style="stroke: #000000; stroke-width: 0.8"/>
      </g>
     </g>
    </g>
    <g id="xtick_23">
     <g id="line2d_45">
      <path d="M 238.551559 145.084197 
L 238.551559 12.5975 
" clip-path="url(#pcb8469a18d)" style="fill: none; stroke: #b0b0b0; stroke-width: 0.3; stroke-linecap: square"/>
     </g>
     <g id="line2d_46">
      <g>
       <use xlink:href="#m53ffd15a8f" x="238.551559" y="145.084197" style="stroke: #000000; stroke-width: 0.8"/>
      </g>
     </g>
    </g>
    <g id="xtick_24">
     <g id="line2d_47">
      <path d="M 247.862148 145.084197 
L 247.862148 12.5975 
" clip-path="url(#pcb8469a18d)" style="fill: none; stroke: #b0b0b0; stroke-width: 0.3; stroke-linecap: square"/>
     </g>
     <g id="line2d_48">
      <g>
       <use xlink:href="#m53ffd15a8f" x="247.862148" y="145.084197" style="stroke: #000000; stroke-width: 0.8"/>
      </g>
     </g>
    </g>
    <g id="text_6">
     <text style="font: 9.6px 'Futura', sans-serif; text-anchor: middle" x="138.462729" y="174.914947" transform="rotate(-0 138.462729 174.914947)">Wavelength (nm)</text>
    </g>
   </g>
   <g id="matplotlib.axis_2">
    <g id="ytick_1">
     <g id="line2d_49">
      <defs>
       <path id="m6cfc449e3d" d="M 0 0 
L -4.8 0 
" style="stroke: #000000"/>
      </defs>
      <g>
       <use xlink:href="#m6cfc449e3d" x="28.13225" y="145.084197" style="stroke: #000000"/>
      </g>
     </g>
     <g id="text_7">
      <text style="font: 8.8px 'Futura', sans-serif; text-anchor: end" x="19.83225" y="148.712822" transform="rotate(-0 19.83225 148.712822)">0</text>
     </g>
    </g>
    <g id="ytick_2">
     <g id="line2d_50">
      <g>
       <use xlink:href="#m6cfc449e3d" x="28.13225" y="125.821028" style="stroke: #000000"/>
      </g>
     </g>
     <g id="text_8">
      <text style="font: 8.8px 'Futura', sans-serif; text-anchor: end" x="19.83225" y="129.449653" transform="rotate(-0 19.83225 129.449653)">1</text>
     </g>
    </g>
    <g id="ytick_3">
     <g id="line2d_51">
      <g>
       <use xlink:href="#m6cfc449e3d" x="28.13225" y="106.557859" style="stroke: #000000"/>
      </g>
     </g>
     <g id="text_9">
      <text style="font: 8.8px 'Futura', sans-serif; text-anchor: end" x="19.83225" y="110.186484" transform="rotate(-0 19.83225 110.186484)">2</text>
     </g>
    </g>
    <g id="ytick_4">
     <g id="line2d_52">
      <g>
       <use xlink:href="#m6cfc449e3d" x="28.13225" y="87.29469" style="stroke: #000000"/>
      </g>
     </g>
     <g id="text_10">
      <text style="font: 8.8px 'Futura', sans-serif; text-anchor: end" x="19.83225" y="90.923315" transform="rotate(-0 19.83225 90.923315)">3</text>
     </g>
    </g>
    <g id="ytick_5">
     <g id="line2d_53">
      <g>
       <use xlink:href="#m6cfc449e3d" x="28.13225" y="68.031521" style="stroke: #000000"/>
      </g>
     </g>
     <g id="text_11">
      <text style="font: 8.8px 'Futura', sans-serif; text-anchor: end" x="19.83225" y="71.660146" transform="rotate(-0 19.83225 71.660146)">4</text>
     </g>
    </g>
    <g id="ytick_6">
     <g id="line2d_54">
      <g>
       <use xlink:href="#m6cfc449e3d" x="28.13225" y="48.768352" style="stroke: #000000"/>
      </g>
     </g>
     <g id="text_12">
      <text style="font: 8.8px 'Futura', sans-serif; text-anchor: end" x="19.83225" y="52.396977" transform="rotate(-0 19.83225 52.396977)">5</text>
     </g>
    </g>
    <g id="ytick_7">
     <g id="line2d_55">
      <g>
       <use xlink:href="#m6cfc449e3d" x="28.13225" y="29.505182" style="stroke: #000000"/>
      </g>
     </g>
     <g id="text_13">
      <text style="font: 8.8px 'Futura', sans-serif; text-anchor: end" x="19.83225" y="33.133807" transform="rotate(-0 19.83225 33.133807)">6</text>
     </g>
    </g>
    <g id="text_14">
     <text style="font: 9.6px 'Futura', sans-serif; text-anchor: middle" x="7.917" y="78.840848" transform="rotate(-90 7.917 78.840848)">Stacked Reflectance</text>
    </g>
   </g>
   <g id="line2d_56">
    <path d="M 29.063309 118.177298 
L 30.646109 118.182945 
L 32.508227 118.183412 
L 37.163521 118.278353 
L 40.980863 118.725235 
L 41.72571 118.728275 
L 44.798204 118.558204 
L 51.408722 118.257009 
L 56.157123 118.522247 
L 57.181287 118.757304 
L 59.60204 119.381947 
L 64.071123 119.471976 
L 70.216112 119.39425 
L 73.474818 119.55108 
L 78.595642 120.033571 
L 79.806018 120.332611 
L 81.109501 120.97016 
L 82.971619 121.922477 
L 83.716466 122.089587 
L 84.554419 122.076845 
L 87.999337 121.635217 
L 92.189102 120.971118 
L 96.099549 120.723272 
L 102.337644 120.531151 
L 107.272256 120.580162 
L 114.255197 120.792333 
L 121.703668 121.018237 
L 123.47268 121.32852 
L 124.310633 121.634105 
L 125.241692 122.155169 
L 126.172751 122.92409 
L 126.824492 123.671403 
L 128.779716 126.276507 
L 129.617669 126.802891 
L 130.548728 126.874391 
L 131.759105 126.459103 
L 135.94887 124.855159 
L 138.183411 124.160143 
L 140.883482 123.627846 
L 144.421505 123.169884 
L 147.866423 122.88516 
L 153.732094 122.58645 
L 157.177012 122.544092 
L 159.970189 122.708663 
L 162.577154 123.116278 
L 164.811695 123.654711 
L 166.580707 124.277207 
L 168.535931 125.235189 
L 171.142896 126.56982 
L 172.911907 127.251235 
L 174.494708 127.611324 
L 176.356825 127.771781 
L 181.291437 128.022136 
L 185.76052 128.542769 
L 187.995061 128.679294 
L 193.302097 128.96583 
L 195.443533 129.340513 
L 197.30565 129.880658 
L 198.981556 130.561549 
L 200.191933 131.19549 
L 202.333368 132.624003 
L 206.15071 135.266158 
L 207.640404 135.765969 
L 209.036992 135.967282 
L 212.668122 136.092678 
L 217.975158 136.087489 
L 228.961653 135.817323 
L 230.078923 135.780835 
L 233.337629 135.654511 
L 236.782547 135.5471 
L 238.458453 135.458935 
L 247.769042 134.607269 
L 247.769042 134.607269 
" clip-path="url(#pcb8469a18d)" style="fill: none; stroke: #1f77b4; stroke-width: 0.5; stroke-linecap: square"/>
   </g>
   <g id="line2d_57">
    <path d="M 29.063309 98.083442 
L 32.322015 98.022744 
L 34.556556 98.035684 
L 38.467004 98.113789 
L 43.215404 98.342077 
L 44.611992 98.342443 
L 46.93964 98.2869 
L 56.157123 98.106966 
L 58.298558 98.477378 
L 60.998629 98.801072 
L 63.791806 99.207953 
L 66.305665 99.503928 
L 68.912629 99.706345 
L 75.057618 100.34369 
L 79.433595 101.444811 
L 80.550866 102.077575 
L 81.947454 103.180246 
L 82.785407 103.731411 
L 84.181995 104.382152 
L 85.857901 104.937855 
L 87.347595 105.293923 
L 90.699407 105.760558 
L 92.747737 106.243455 
L 94.330537 106.563613 
L 96.471973 106.463718 
L 98.240984 106.612337 
L 101.220373 106.772364 
L 102.710067 106.686061 
L 104.385973 106.61409 
L 109.320585 106.643732 
L 112.113762 106.447217 
L 121.238139 105.626706 
L 122.914045 105.858908 
L 124.031316 106.178673 
L 127.383128 108.7695 
L 128.593504 109.572123 
L 129.338351 109.858216 
L 131.85221 110.509465 
L 132.969481 110.834735 
L 133.993646 110.826676 
L 137.252352 110.626508 
L 138.64894 110.868257 
L 141.628329 111.540503 
L 142.838705 111.559608 
L 147.307788 111.596266 
L 149.0768 111.669493 
L 149.635435 111.555062 
L 150.6596 111.013351 
L 152.801035 109.578457 
L 153.545883 109.286265 
L 154.849365 108.989751 
L 160.063295 108.629607 
L 161.366777 108.715548 
L 168.908354 110.008068 
L 171.236001 110.799291 
L 173.563649 111.730419 
L 174.21539 111.5913 
L 176.170614 111.058111 
L 177.753414 111.117719 
L 187.34332 111.989866 
L 201.774733 112.927518 
L 209.968051 114.151139 
L 213.971605 114.267719 
L 216.764781 114.314227 
L 226.261582 114.339381 
L 241.25163 114.275384 
L 247.769042 114.233246 
L 247.769042 114.233246 
" clip-path="url(#pcb8469a18d)" style="fill: none; stroke-dasharray: 2,0.75; stroke-dashoffset: 0; stroke: #ff7f0e; stroke-width: 0.5"/>
   </g>
   <g id="line2d_58">
    <path d="M 29.063309 85.641168 
L 30.925427 86.01233 
L 36.046251 86.277585 
L 40.049804 85.95822 
L 41.72571 85.674116 
L 48.429334 84.002701 
L 51.315616 83.149092 
L 52.898416 82.678828 
L 59.136511 81.149636 
L 60.719311 80.831655 
L 63.512488 80.225213 
L 70.867853 78.933783 
L 72.916183 78.59737 
L 78.037007 77.845799 
L 78.595642 77.797355 
L 79.154277 77.665711 
L 84.368207 77.44432 
L 85.392372 77.627863 
L 86.230325 78.140387 
L 87.720019 79.204303 
L 88.278654 78.695713 
L 88.83729 78.005459 
L 89.395925 77.804757 
L 90.885619 77.710818 
L 92.095996 77.812751 
L 94.889172 77.833174 
L 101.685902 77.205383 
L 102.989385 77.13938 
L 104.01355 77.149751 
L 108.29642 77.141303 
L 110.717174 77.135785 
L 119.282915 77.707982 
L 120.120868 78.003764 
L 120.77261 78.426013 
L 121.703668 79.465742 
L 122.35541 79.420147 
L 123.007151 79.208448 
L 123.47268 79.009268 
L 123.93821 78.661513 
L 125.148586 77.803635 
L 125.893433 77.577932 
L 127.383128 77.642353 
L 132.131528 78.061755 
L 139.207576 78.273491 
L 140.511058 78.450088 
L 146.656047 78.923973 
L 151.032024 79.58371 
L 152.335506 79.715825 
L 154.011412 80.039408 
L 156.711483 80.87417 
L 157.735648 81.144181 
L 159.411554 81.470943 
L 160.249507 82.245387 
L 160.808142 82.747243 
L 161.459883 82.802278 
L 162.20473 82.493316 
L 163.78753 80.833898 
L 164.346166 80.734639 
L 164.997907 80.646999 
L 166.115178 79.790793 
L 167.046236 79.558078 
L 168.442825 79.533148 
L 169.373884 79.68861 
L 170.491154 80.086503 
L 172.073954 80.942203 
L 174.122284 82.411147 
L 174.867131 82.617089 
L 177.287884 82.549402 
L 178.032731 82.857236 
L 179.056896 83.42996 
L 179.894849 83.476701 
L 181.01212 83.176608 
L 181.943179 83.169962 
L 182.688026 83.379287 
L 183.805296 84.356114 
L 184.270826 84.663458 
L 184.643249 84.6882 
L 185.481202 84.344739 
L 188.181273 84.185752 
L 188.833014 84.227388 
L 189.764073 84.47884 
L 190.97445 84.93655 
L 191.346873 85.102227 
L 191.626191 85.21205 
L 191.905509 85.296487 
L 192.743462 85.684392 
L 193.395203 85.844397 
L 194.046944 85.845274 
L 195.164215 85.698617 
L 197.77118 84.837388 
L 199.912615 84.439013 
L 201.029886 84.083457 
L 201.681627 84.116771 
L 202.705792 84.431885 
L 203.823063 84.955048 
L 204.940333 85.57024 
L 205.312757 85.748789 
L 205.871392 86.117228 
L 207.919722 87.727172 
L 208.757675 88.388278 
L 210.154263 89.221704 
L 212.854334 90.113293 
L 215.368193 91.429226 
L 219.74417 92.789784 
L 221.047652 92.991562 
L 224.678782 93.33295 
L 225.889158 93.310694 
L 228.775441 93.037598 
L 230.265135 92.951665 
L 235.385959 92.751838 
L 238.365347 92.516059 
L 242.555112 92.361013 
L 244.88276 92.299298 
L 247.769042 92.213959 
L 247.769042 92.213959 
" clip-path="url(#pcb8469a18d)" style="fill: none; stroke-dasharray: 0.5,0.5; stroke-dashoffset: 0; stroke: #2ca02c; stroke-width: 0.5"/>
   </g>
   <g id="line2d_59">
    <path d="M 29.063309 55.505515 
L 29.901262 55.564769 
L 31.29785 55.581181 
L 32.508227 55.52531 
L 36.325568 55.603163 
L 41.446392 55.847876 
L 42.749875 55.946238 
L 45.543051 55.733868 
L 46.567216 55.652655 
L 49.360393 55.580649 
L 55.598487 55.717622 
L 57.274393 55.911702 
L 59.695146 56.500909 
L 64.722864 56.435529 
L 70.216112 56.119895 
L 73.1955 56.333335 
L 75.616253 56.86082 
L 77.571477 57.284836 
L 79.433595 57.47949 
L 80.178442 57.648938 
L 81.016395 58.04805 
L 82.133666 58.892675 
L 82.878513 59.474252 
L 83.344042 59.806287 
L 83.716466 60.234331 
L 84.647525 61.39471 
L 84.926842 61.422447 
L 85.857901 60.442591 
L 87.068278 60.106784 
L 87.999337 60.091799 
L 88.464866 60.252986 
L 88.83729 60.327583 
L 89.302819 60.188649 
L 90.885619 59.309705 
L 91.258043 59.293287 
L 92.561525 59.450486 
L 93.306372 59.530265 
L 94.237431 59.166944 
L 95.447808 58.500858 
L 97.030608 58.023638 
L 101.127267 57.132381 
L 102.430749 56.903557 
L 103.920444 56.71713 
L 105.689456 56.608953 
L 106.71362 56.689429 
L 108.389526 57.049679 
L 109.879221 57.798262 
L 112.486185 59.353639 
L 113.324138 59.438092 
L 115.000044 59.078073 
L 116.489739 58.752421 
L 119.096704 58.019416 
L 120.77261 57.916365 
L 122.169198 58.097704 
L 123.193363 58.491072 
L 124.217527 59.203546 
L 126.824492 62.165862 
L 129.338351 65.804186 
L 130.455622 67.592489 
L 130.73494 67.782758 
L 131.200469 67.877449 
L 131.572893 67.772625 
L 132.038422 67.345852 
L 132.876375 66.17472 
L 134.924705 65.269532 
L 135.390234 64.845045 
L 135.94887 63.959528 
L 137.06614 62.032641 
L 138.090305 61.11739 
L 139.393787 60.53446 
L 140.883482 60.20367 
L 141.907646 60.192624 
L 143.397341 60.216313 
L 144.421505 60.277301 
L 146.004306 60.590715 
L 153.452777 62.155713 
L 154.849365 62.333884 
L 156.525271 62.786278 
L 156.897695 62.744781 
L 157.363224 62.554746 
L 158.201177 62.209265 
L 159.225342 62.054825 
L 160.435718 62.157861 
L 161.646095 62.262707 
L 162.018518 62.108972 
L 162.763366 61.83525 
L 164.25306 61.585736 
L 166.301389 61.604681 
L 167.697978 61.776698 
L 169.373884 62.261412 
L 171.142896 63.077452 
L 172.63259 64.142136 
L 174.867131 65.912513 
L 175.891296 66.26211 
L 177.753414 66.549588 
L 179.056896 66.707899 
L 181.850073 67.132447 
L 184.17772 66.867066 
L 185.294991 66.735004 
L 186.598473 66.731207 
L 188.367485 66.870747 
L 190.229603 66.974953 
L 193.115885 67.084544 
L 196.933227 67.497317 
L 201.681627 69.187252 
L 202.892004 69.944676 
L 203.916169 70.499994 
L 205.312757 71.278366 
L 207.267981 72.216504 
L 209.31631 72.60178 
L 214.809558 72.95336 
L 217.416522 72.990818 
L 218.999323 72.908968 
L 224.678782 72.742264 
L 225.516735 72.726985 
L 230.451347 72.475781 
L 233.244524 72.278951 
L 235.665277 72.150443 
L 237.992924 72.027193 
L 240.320571 71.609785 
L 242.182689 71.350931 
L 243.858595 70.934843 
L 246.651772 70.213764 
L 247.769042 69.974189 
L 247.769042 69.974189 
" clip-path="url(#pcb8469a18d)" style="fill: none; stroke-dasharray: 1.5,0.625,0.75,0.625; stroke-dashoffset: 0; stroke: #d62728; stroke-width: 0.5"/>
   </g>
   <g id="line2d_60">
    <path d="M 29.063309 37.078732 
L 39.863592 37.411438 
L 40.887757 37.488144 
L 43.30851 37.289301 
L 45.263734 37.209338 
L 50.10524 37.155088 
L 56.343334 37.500277 
L 57.181287 37.711041 
L 58.670982 38.346499 
L 59.136511 38.229334 
L 60.346888 37.827867 
L 61.836582 37.75814 
L 62.767641 37.713937 
L 64.722864 37.606051 
L 65.747029 37.547251 
L 69.098841 37.578291 
L 71.240277 37.704037 
L 73.1955 38.035258 
L 74.033453 38.38726 
L 75.057618 38.762831 
L 75.523148 38.75524 
L 77.012842 38.755207 
L 78.037007 39.079217 
L 78.688748 39.543138 
L 79.712913 40.370168 
L 80.45776 40.640386 
L 80.923289 40.956066 
L 82.692301 42.582428 
L 83.250936 42.526156 
L 84.088889 41.995664 
L 86.137219 40.713985 
L 86.509642 40.713823 
L 87.533807 40.87511 
L 87.906231 40.688902 
L 88.557972 40.311971 
L 90.42009 39.6173 
L 91.444255 39.438933 
L 93.027055 39.448482 
L 93.865008 39.350873 
L 95.727125 38.926303 
L 97.775455 38.719856 
L 98.613408 38.637871 
L 99.823785 38.533627 
L 104.758397 38.454345 
L 106.899832 38.687083 
L 108.482632 38.904412 
L 110.251644 39.372793 
L 111.462021 39.843183 
L 113.97588 40.684983 
L 115.000044 40.791225 
L 116.024209 40.743075 
L 118.538068 40.127752 
L 119.655339 39.974702 
L 120.493292 39.999394 
L 121.424351 40.158958 
L 122.727833 40.541901 
L 123.93821 41.154589 
L 124.869269 41.920993 
L 125.707222 42.907216 
L 126.545175 44.30068 
L 127.848657 47.513679 
L 128.314187 48.587191 
L 129.15214 49.067931 
L 130.26941 47.407476 
L 131.945316 46.205682 
L 133.062587 45.189256 
L 135.017811 44.253338 
L 136.228187 43.215119 
L 136.879928 42.696741 
L 138.276517 42.068814 
L 139.021364 41.898054 
L 140.417952 41.757147 
L 142.093858 41.855547 
L 144.142188 42.214927 
L 146.004306 42.536269 
L 150.473388 42.609942 
L 162.484048 44.062658 
L 164.904801 44.035216 
L 166.766919 44.0605 
L 168.722142 44.489503 
L 170.770472 45.257039 
L 172.073954 45.814827 
L 174.308496 46.983493 
L 176.449931 48.122128 
L 177.84652 48.703546 
L 179.987955 49.330401 
L 182.688026 49.538157 
L 188.088167 48.856559 
L 188.088167 48.856559 
" clip-path="url(#pcb8469a18d)" style="fill: none; stroke-dasharray: 2.5,0.5,0.5,0.5; stroke-dashoffset: 0; stroke: #9467bd; stroke-width: 0.5"/>
   </g>
   <g id="line2d_61">
    <path d="M 29.063309 14.338183 
L 30.832321 14.364431 
L 36.791098 14.296139 
L 38.932533 14.297017 
L 40.794651 14.415051 
L 43.680933 14.672804 
L 44.798204 14.468086 
L 47.591381 14.080677 
L 56.90197 13.921517 
L 63.512488 14.236994 
L 65.095288 14.541378 
L 66.771194 14.834075 
L 67.888465 15.410063 
L 68.353994 15.323359 
L 69.843688 14.505075 
L 70.402324 14.345083 
L 71.147171 14.315934 
L 72.171336 14.407449 
L 74.033453 14.931377 
L 74.405877 15.08868 
L 74.964512 15.091615 
L 75.709359 15.072164 
L 76.733524 15.010441 
L 77.757689 14.865609 
L 79.99223 15.376198 
L 80.643971 15.757733 
L 81.295713 16.348229 
L 81.761242 16.992166 
L 82.226772 18.547466 
L 82.599195 20.748985 
L 83.15783 19.948211 
L 83.995783 18.012131 
L 84.554419 18.161706 
L 85.299266 18.896588 
L 85.671689 19.166993 
L 86.044113 19.282696 
L 86.323431 19.29267 
L 86.78896 19.899171 
L 87.347595 22.029723 
L 87.720019 22.444683 
L 88.37176 19.079928 
L 88.744184 18.267026 
L 91.071831 16.645371 
L 92.095996 16.374381 
L 97.403031 16.192921 
L 100.009996 16.286499 
L 101.592796 16.319065 
L 106.434303 16.699655 
L 109.786115 17.289558 
L 110.717174 17.765713 
L 113.789668 19.789333 
L 114.627621 19.946316 
L 114.906939 19.839656 
L 115.837997 19.176167 
L 116.582845 18.338257 
L 117.420798 17.518682 
L 117.886327 17.31202 
L 118.538068 17.175686 
L 120.213974 17.147912 
L 122.076092 17.308401 
L 124.310633 17.665464 
L 129.803881 19.571069 
L 133.528116 20.008612 
L 134.552281 20.006047 
L 135.297128 20.197611 
L 137.159246 20.86288 
L 140.604164 21.212388 
L 142.28007 21.476339 
L 144.514611 21.561852 
L 145.724988 22.090282 
L 146.469835 22.62237 
L 148.61127 24.600658 
L 150.380282 25.521062 
L 150.752706 25.759064 
L 151.311341 25.838132 
L 151.869977 25.902307 
L 152.149294 25.846266 
L 152.521718 25.765559 
L 153.080353 25.848845 
L 153.452777 25.676694 
L 154.756259 24.069797 
L 154.849365 24.165415 
L 155.687318 25.002901 
L 156.245953 24.155314 
L 157.083906 22.050528 
L 157.828753 21.325466 
L 158.387389 21.09525 
L 159.411554 20.882378 
L 162.763366 21.133781 
L 163.78753 21.482487 
L 164.346166 21.83867 
L 164.718589 22.249819 
L 166.022072 23.891203 
L 166.487601 23.821359 
L 167.511766 22.938491 
L 168.256613 22.358416 
L 169.094566 22.156943 
L 169.746307 22.182523 
L 170.58426 22.506129 
L 171.422213 23.307983 
L 172.353272 24.547041 
L 172.818802 24.979357 
L 173.098119 25.111786 
L 173.936072 25.246184 
L 174.774025 25.503353 
L 176.263719 26.394061 
L 176.729249 26.404479 
L 177.939625 25.90324 
L 178.498261 25.927553 
L 179.894849 26.536201 
L 181.477649 26.034484 
L 182.036285 26.422054 
L 183.805296 27.892409 
L 184.17772 27.920046 
L 184.736355 27.560534 
L 185.76052 26.666118 
L 187.529532 26.087383 
L 188.088167 26.188342 
L 189.112332 26.271106 
L 189.577862 26.225149 
L 190.881344 26.206737 
L 191.346873 25.972067 
L 191.719297 25.717549 
L 191.998615 25.616027 
L 192.464144 25.490424 
L 193.302097 25.355743 
L 193.953838 25.131842 
L 194.791791 24.966358 
L 195.071109 24.871987 
L 196.374592 24.658596 
L 197.119439 25.273918 
L 197.491862 25.563175 
L 198.702239 25.934979 
L 198.981556 26.119158 
L 200.471251 26.098741 
L 200.93678 26.04726 
L 202.51958 27.002355 
L 202.892004 27.313814 
L 206.057604 29.395158 
L 206.709345 29.65602 
L 207.454192 30.040544 
L 208.292145 30.333172 
L 209.595628 30.497756 
L 213.599181 30.841316 
L 213.971605 30.712936 
L 214.623346 30.37088 
L 215.181981 30.453541 
L 215.740616 30.505246 
L 216.019934 30.200887 
L 216.764781 28.889939 
L 216.950993 28.927389 
L 217.230311 29.22691 
L 217.788946 29.820753 
L 218.533793 30.121512 
L 219.74417 30.302214 
L 221.699393 30.384625 
L 223.282193 30.405303 
L 224.864994 30.408863 
L 228.403017 30.370252 
L 247.769042 30.050039 
L 247.769042 30.050039 
" clip-path="url(#pcb8469a18d)" style="fill: none; stroke-dasharray: 1.5,0.625,0.625,0.625,0.625,0.625; stroke-dashoffset: 0; stroke: #8c564b; stroke-width: 0.5"/>
   </g>
   <g id="line2d_62"/>
   <g id="line2d_63"/>
   <g id="line2d_64"/>
   <g id="line2d_65"/>
   <g id="line2d_66"/>
   <g id="line2d_67"/>
   <g id="patch_3">
    <path d="M 28.13225 145.084197 
L 28.13225 12.5975 
" style="fill: none; stroke: #000000; stroke-linejoin: miter; stroke-linecap: square"/>
   </g>
   <g id="patch_4">
    <path d="M 28.13225 145.084197 
L 248.793207 145.084197 
" style="fill: none; stroke: #000000; stroke-linejoin: miter; stroke-linecap: square"/>
   </g>
   <g id="text_15">
    <text style="font: 6px 'Futura', sans-serif; text-anchor: start" x="249.724266" y="136.301801" transform="rotate(-0 249.724266 136.301801)">Magnesium-sulphate 799F366</text>
   </g>
   <g id="text_16">
    <text style="fill: #1f77b4; font: 7px 'Futura', sans-serif; text-anchor: start" x="249.724266" y="128.299161" transform="rotate(-0 249.724266 128.299161)">Magnesium-Sulphate</text>
   </g>
   <g id="text_17">
    <text style="font: 6px 'Futura', sans-serif; text-anchor: start" x="249.724266" y="115.931059" transform="rotate(-0 249.724266 115.931059)">Kieserite F1CC15</text>
   </g>
   <g id="text_18">
    <text style="fill: #ff7f0e; font: 7px 'Futura', sans-serif; text-anchor: start" x="249.724266" y="107.932794" transform="rotate(-0 249.724266 107.932794)">Kieserite</text>
   </g>
   <g id="text_19">
    <text style="font: 6px 'Futura', sans-serif; text-anchor: start" x="249.724266" y="93.911772" transform="rotate(-0 249.724266 93.911772)">Jarosite LASF21A</text>
   </g>
   <g id="text_20">
    <text style="fill: #2ca02c; font: 7px 'Futura', sans-serif; text-anchor: start" x="249.724266" y="85.913507" transform="rotate(-0 249.724266 85.913507)">Jarosite</text>
   </g>
   <g id="text_21">
    <text style="font: 6px 'Futura', sans-serif; text-anchor: start" x="249.724266" y="71.672001" transform="rotate(-0 249.724266 71.672001)">Gypsum LASF41A</text>
   </g>
   <g id="text_22">
    <text style="fill: #d62728; font: 7px 'Futura', sans-serif; text-anchor: start" x="249.724266" y="63.673736" transform="rotate(-0 249.724266 63.673736)">Gypsum</text>
   </g>
   <g id="text_23">
    <text style="font: 6px 'Futura', sans-serif; text-anchor: start" x="249.724266" y="50.554372" transform="rotate(-0 249.724266 50.554372)">Bassanite GDS145</text>
   </g>
   <g id="text_24">
    <text style="fill: #9467bd; font: 7px 'Futura', sans-serif; text-anchor: start" x="249.724266" y="42.556107" transform="rotate(-0 249.724266 42.556107)">Bassanite</text>
   </g>
   <g id="text_25">
    <text style="font: 6px 'Futura', sans-serif; text-anchor: start" x="249.724266" y="31.747851" transform="rotate(-0 249.724266 31.747851)">Alunite F1CC08B</text>
   </g>
   <g id="text_26">
    <text style="fill: #8c564b; font: 7px 'Futura', sans-serif; text-anchor: start" x="249.724266" y="23.749586" transform="rotate(-0 249.724266 23.749586)">Alunite</text>
   </g>
   <g id="text_27">
    <text style="font: 8px 'Futura', sans-serif; text-anchor: middle" x="138.462729" y="6.5975" transform="rotate(-0 138.462729 6.5975)">Hydrous_Sulphates Stacked</text>
   </g>
  </g>
 </g>
 <defs>
  <clipPath id="pcb8469a18d">
   <rect x="28.13225" y="12.5975" width="220.660957" height="132.486697"/>
  </clipPath>
 </defs>
</svg>
