<?xml version="1.0" encoding="utf-8" standalone="no"?>
<!DOCTYPE svg PUBLIC "-//W3C//DTD SVG 1.1//EN"
  "http://www.w3.org/Graphics/SVG/1.1/DTD/svg11.dtd">
<svg xmlns:xlink="http://www.w3.org/1999/xlink" width="332.337162pt" height="177.409447pt" viewBox="0 0 332.337162 177.409447" xmlns="http://www.w3.org/2000/svg" version="1.1">
 <metadata>
  <rdf:RDF xmlns:dc="http://purl.org/dc/elements/1.1/" xmlns:cc="http://creativecommons.org/ns#" xmlns:rdf="http://www.w3.org/1999/02/22-rdf-syntax-ns#">
   <cc:Work>
    <dc:type rdf:resource="http://purl.org/dc/dcmitype/StillImage"/>
    <dc:date>2025-02-15T18:13:59.997329</dc:date>
    <dc:format>image/svg+xml</dc:format>
    <dc:creator>
     <cc:Agent>
      <dc:title>Matplotlib v3.6.2, https://matplotlib.org/</dc:title>
     </cc:Agent>
    </dc:creator>
   </cc:Work>
  </rdf:RDF>
 </metadata>
 <defs>
  <style type="text/css">*{stroke-linejoin: round; stroke-linecap: butt}</style>
 </defs>
 <g id="figure_1">
  <g id="patch_1">
   <path d="M 0 177.409447 
L 332.337162 177.409447 
L 332.337162 0 
L 0 0 
z
" style="fill: #ffffff"/>
  </g>
  <g id="axes_1">
   <g id="patch_2">
    <path d="M 28.13225 145.084197 
L 258.663207 145.084197 
L 258.663207 12.5975 
L 28.13225 12.5975 
z
" style="fill: #ffffff"/>
   </g>
   <g id="matplotlib.axis_1">
    <g id="xtick_1">
     <g id="line2d_1">
      <path d="M 43.695521 145.084197 
L 43.695521 12.5975 
" clip-path="url(#pdc2467644a)" style="fill: none; stroke: #b0b0b0; stroke-width: 0.6; stroke-linecap: square"/>
     </g>
     <g id="line2d_2">
      <defs>
       <path id="m87d4828e55" d="M 0 0 
L 0 4.8 
" style="stroke: #000000"/>
      </defs>
      <g>
       <use xlink:href="#m87d4828e55" x="43.695521" y="145.084197" style="stroke: #000000"/>
      </g>
     </g>
     <g id="text_1">
      <text style="font: 8.8px 'Futura', sans-serif; text-anchor: middle" x="43.695521" y="160.641447" transform="rotate(-0 43.695521 160.641447)">1000</text>
     </g>
    </g>
    <g id="xtick_2">
     <g id="line2d_3">
      <path d="M 92.330744 145.084197 
L 92.330744 12.5975 
" clip-path="url(#pdc2467644a)" style="fill: none; stroke: #b0b0b0; stroke-width: 0.6; stroke-linecap: square"/>
     </g>
     <g id="line2d_4">
      <g>
       <use xlink:href="#m87d4828e55" x="92.330744" y="145.084197" style="stroke: #000000"/>
      </g>
     </g>
     <g id="text_2">
      <text style="font: 8.8px 'Futura', sans-serif; text-anchor: middle" x="92.330744" y="160.641447" transform="rotate(-0 92.330744 160.641447)">1500</text>
     </g>
    </g>
    <g id="xtick_3">
     <g id="line2d_5">
      <path d="M 140.965967 145.084197 
L 140.965967 12.5975 
" clip-path="url(#pdc2467644a)" style="fill: none; stroke: #b0b0b0; stroke-width: 0.6; stroke-linecap: square"/>
     </g>
     <g id="line2d_6">
      <g>
       <use xlink:href="#m87d4828e55" x="140.965967" y="145.084197" style="stroke: #000000"/>
      </g>
     </g>
     <g id="text_3">
      <text style="font: 8.8px 'Futura', sans-serif; text-anchor: middle" x="140.965967" y="160.641447" transform="rotate(-0 140.965967 160.641447)">2000</text>
     </g>
    </g>
    <g id="xtick_4">
     <g id="line2d_7">
      <path d="M 189.60119 145.084197 
L 189.60119 12.5975 
" clip-path="url(#pdc2467644a)" style="fill: none; stroke: #b0b0b0; stroke-width: 0.6; stroke-linecap: square"/>
     </g>
     <g id="line2d_8">
      <g>
       <use xlink:href="#m87d4828e55" x="189.60119" y="145.084197" style="stroke: #000000"/>
      </g>
     </g>
     <g id="text_4">
      <text style="font: 8.8px 'Futura', sans-serif; text-anchor: middle" x="189.60119" y="160.641447" transform="rotate(-0 189.60119 160.641447)">2500</text>
     </g>
    </g>
    <g id="xtick_5">
     <g id="line2d_9">
      <path d="M 238.236413 145.084197 
L 238.236413 12.5975 
" clip-path="url(#pdc2467644a)" style="fill: none; stroke: #b0b0b0; stroke-width: 0.6; stroke-linecap: square"/>
     </g>
     <g id="line2d_10">
      <g>
       <use xlink:href="#m87d4828e55" x="238.236413" y="145.084197" style="stroke: #000000"/>
      </g>
     </g>
     <g id="text_5">
      <text style="font: 8.8px 'Futura', sans-serif; text-anchor: middle" x="238.236413" y="160.641447" transform="rotate(-0 238.236413 160.641447)">3000</text>
     </g>
    </g>
    <g id="xtick_6">
     <g id="line2d_11">
      <path d="M 33.968477 145.084197 
L 33.968477 12.5975 
" clip-path="url(#pdc2467644a)" style="fill: none; stroke: #b0b0b0; stroke-width: 0.3; stroke-linecap: square"/>
     </g>
     <g id="line2d_12">
      <defs>
       <path id="md4e1e950d0" d="M 0 0 
L 0 3.2 
" style="stroke: #000000; stroke-width: 0.8"/>
      </defs>
      <g>
       <use xlink:href="#md4e1e950d0" x="33.968477" y="145.084197" style="stroke: #000000; stroke-width: 0.8"/>
      </g>
     </g>
    </g>
    <g id="xtick_7">
     <g id="line2d_13">
      <path d="M 53.422566 145.084197 
L 53.422566 12.5975 
" clip-path="url(#pdc2467644a)" style="fill: none; stroke: #b0b0b0; stroke-width: 0.3; stroke-linecap: square"/>
     </g>
     <g id="line2d_14">
      <g>
       <use xlink:href="#md4e1e950d0" x="53.422566" y="145.084197" style="stroke: #000000; stroke-width: 0.8"/>
      </g>
     </g>
    </g>
    <g id="xtick_8">
     <g id="line2d_15">
      <path d="M 63.149611 145.084197 
L 63.149611 12.5975 
" clip-path="url(#pdc2467644a)" style="fill: none; stroke: #b0b0b0; stroke-width: 0.3; stroke-linecap: square"/>
     </g>
     <g id="line2d_16">
      <g>
       <use xlink:href="#md4e1e950d0" x="63.149611" y="145.084197" style="stroke: #000000; stroke-width: 0.8"/>
      </g>
     </g>
    </g>
    <g id="xtick_9">
     <g id="line2d_17">
      <path d="M 72.876655 145.084197 
L 72.876655 12.5975 
" clip-path="url(#pdc2467644a)" style="fill: none; stroke: #b0b0b0; stroke-width: 0.3; stroke-linecap: square"/>
     </g>
     <g id="line2d_18">
      <g>
       <use xlink:href="#md4e1e950d0" x="72.876655" y="145.084197" style="stroke: #000000; stroke-width: 0.8"/>
      </g>
     </g>
    </g>
    <g id="xtick_10">
     <g id="line2d_19">
      <path d="M 82.6037 145.084197 
L 82.6037 12.5975 
" clip-path="url(#pdc2467644a)" style="fill: none; stroke: #b0b0b0; stroke-width: 0.3; stroke-linecap: square"/>
     </g>
     <g id="line2d_20">
      <g>
       <use xlink:href="#md4e1e950d0" x="82.6037" y="145.084197" style="stroke: #000000; stroke-width: 0.8"/>
      </g>
     </g>
    </g>
    <g id="xtick_11">
     <g id="line2d_21">
      <path d="M 102.057789 145.084197 
L 102.057789 12.5975 
" clip-path="url(#pdc2467644a)" style="fill: none; stroke: #b0b0b0; stroke-width: 0.3; stroke-linecap: square"/>
     </g>
     <g id="line2d_22">
      <g>
       <use xlink:href="#md4e1e950d0" x="102.057789" y="145.084197" style="stroke: #000000; stroke-width: 0.8"/>
      </g>
     </g>
    </g>
    <g id="xtick_12">
     <g id="line2d_23">
      <path d="M 111.784834 145.084197 
L 111.784834 12.5975 
" clip-path="url(#pdc2467644a)" style="fill: none; stroke: #b0b0b0; stroke-width: 0.3; stroke-linecap: square"/>
     </g>
     <g id="line2d_24">
      <g>
       <use xlink:href="#md4e1e950d0" x="111.784834" y="145.084197" style="stroke: #000000; stroke-width: 0.8"/>
      </g>
     </g>
    </g>
    <g id="xtick_13">
     <g id="line2d_25">
      <path d="M 121.511878 145.084197 
L 121.511878 12.5975 
" clip-path="url(#pdc2467644a)" style="fill: none; stroke: #b0b0b0; stroke-width: 0.3; stroke-linecap: square"/>
     </g>
     <g id="line2d_26">
      <g>
       <use xlink:href="#md4e1e950d0" x="121.511878" y="145.084197" style="stroke: #000000; stroke-width: 0.8"/>
      </g>
     </g>
    </g>
    <g id="xtick_14">
     <g id="line2d_27">
      <path d="M 131.238923 145.084197 
L 131.238923 12.5975 
" clip-path="url(#pdc2467644a)" style="fill: none; stroke: #b0b0b0; stroke-width: 0.3; stroke-linecap: square"/>
     </g>
     <g id="line2d_28">
      <g>
       <use xlink:href="#md4e1e950d0" x="131.238923" y="145.084197" style="stroke: #000000; stroke-width: 0.8"/>
      </g>
     </g>
    </g>
    <g id="xtick_15">
     <g id="line2d_29">
      <path d="M 150.693012 145.084197 
L 150.693012 12.5975 
" clip-path="url(#pdc2467644a)" style="fill: none; stroke: #b0b0b0; stroke-width: 0.3; stroke-linecap: square"/>
     </g>
     <g id="line2d_30">
      <g>
       <use xlink:href="#md4e1e950d0" x="150.693012" y="145.084197" style="stroke: #000000; stroke-width: 0.8"/>
      </g>
     </g>
    </g>
    <g id="xtick_16">
     <g id="line2d_31">
      <path d="M 160.420057 145.084197 
L 160.420057 12.5975 
" clip-path="url(#pdc2467644a)" style="fill: none; stroke: #b0b0b0; stroke-width: 0.3; stroke-linecap: square"/>
     </g>
     <g id="line2d_32">
      <g>
       <use xlink:href="#md4e1e950d0" x="160.420057" y="145.084197" style="stroke: #000000; stroke-width: 0.8"/>
      </g>
     </g>
    </g>
    <g id="xtick_17">
     <g id="line2d_33">
      <path d="M 170.147101 145.084197 
L 170.147101 12.5975 
" clip-path="url(#pdc2467644a)" style="fill: none; stroke: #b0b0b0; stroke-width: 0.3; stroke-linecap: square"/>
     </g>
     <g id="line2d_34">
      <g>
       <use xlink:href="#md4e1e950d0" x="170.147101" y="145.084197" style="stroke: #000000; stroke-width: 0.8"/>
      </g>
     </g>
    </g>
    <g id="xtick_18">
     <g id="line2d_35">
      <path d="M 179.874146 145.084197 
L 179.874146 12.5975 
" clip-path="url(#pdc2467644a)" style="fill: none; stroke: #b0b0b0; stroke-width: 0.3; stroke-linecap: square"/>
     </g>
     <g id="line2d_36">
      <g>
       <use xlink:href="#md4e1e950d0" x="179.874146" y="145.084197" style="stroke: #000000; stroke-width: 0.8"/>
      </g>
     </g>
    </g>
    <g id="xtick_19">
     <g id="line2d_37">
      <path d="M 199.328235 145.084197 
L 199.328235 12.5975 
" clip-path="url(#pdc2467644a)" style="fill: none; stroke: #b0b0b0; stroke-width: 0.3; stroke-linecap: square"/>
     </g>
     <g id="line2d_38">
      <g>
       <use xlink:href="#md4e1e950d0" x="199.328235" y="145.084197" style="stroke: #000000; stroke-width: 0.8"/>
      </g>
     </g>
    </g>
    <g id="xtick_20">
     <g id="line2d_39">
      <path d="M 209.05528 145.084197 
L 209.05528 12.5975 
" clip-path="url(#pdc2467644a)" style="fill: none; stroke: #b0b0b0; stroke-width: 0.3; stroke-linecap: square"/>
     </g>
     <g id="line2d_40">
      <g>
       <use xlink:href="#md4e1e950d0" x="209.05528" y="145.084197" style="stroke: #000000; stroke-width: 0.8"/>
      </g>
     </g>
    </g>
    <g id="xtick_21">
     <g id="line2d_41">
      <path d="M 218.782324 145.084197 
L 218.782324 12.5975 
" clip-path="url(#pdc2467644a)" style="fill: none; stroke: #b0b0b0; stroke-width: 0.3; stroke-linecap: square"/>
     </g>
     <g id="line2d_42">
      <g>
       <use xlink:href="#md4e1e950d0" x="218.782324" y="145.084197" style="stroke: #000000; stroke-width: 0.8"/>
      </g>
     </g>
    </g>
    <g id="xtick_22">
     <g id="line2d_43">
      <path d="M 228.509369 145.084197 
L 228.509369 12.5975 
" clip-path="url(#pdc2467644a)" style="fill: none; stroke: #b0b0b0; stroke-width: 0.3; stroke-linecap: square"/>
     </g>
     <g id="line2d_44">
      <g>
       <use xlink:href="#md4e1e950d0" x="228.509369" y="145.084197" style="stroke: #000000; stroke-width: 0.8"/>
      </g>
     </g>
    </g>
    <g id="xtick_23">
     <g id="line2d_45">
      <path d="M 247.963458 145.084197 
L 247.963458 12.5975 
" clip-path="url(#pdc2467644a)" style="fill: none; stroke: #b0b0b0; stroke-width: 0.3; stroke-linecap: square"/>
     </g>
     <g id="line2d_46">
      <g>
       <use xlink:href="#md4e1e950d0" x="247.963458" y="145.084197" style="stroke: #000000; stroke-width: 0.8"/>
      </g>
     </g>
    </g>
    <g id="xtick_24">
     <g id="line2d_47">
      <path d="M 257.690503 145.084197 
L 257.690503 12.5975 
" clip-path="url(#pdc2467644a)" style="fill: none; stroke: #b0b0b0; stroke-width: 0.3; stroke-linecap: square"/>
     </g>
     <g id="line2d_48">
      <g>
       <use xlink:href="#md4e1e950d0" x="257.690503" y="145.084197" style="stroke: #000000; stroke-width: 0.8"/>
      </g>
     </g>
    </g>
    <g id="text_6">
     <text style="font: 9.6px 'Futura', sans-serif; text-anchor: middle" x="143.397729" y="174.914947" transform="rotate(-0 143.397729 174.914947)">Wavelength (nm)</text>
    </g>
   </g>
   <g id="matplotlib.axis_2">
    <g id="ytick_1">
     <g id="line2d_49">
      <defs>
       <path id="m86d77716a5" d="M 0 0 
L -4.8 0 
" style="stroke: #000000"/>
      </defs>
      <g>
       <use xlink:href="#m86d77716a5" x="28.13225" y="145.084197" style="stroke: #000000"/>
      </g>
     </g>
     <g id="text_7">
      <text style="font: 8.8px 'Futura', sans-serif; text-anchor: end" x="19.83225" y="148.712822" transform="rotate(-0 19.83225 148.712822)">0</text>
     </g>
    </g>
    <g id="ytick_2">
     <g id="line2d_50">
      <g>
       <use xlink:href="#m86d77716a5" x="28.13225" y="112.583368" style="stroke: #000000"/>
      </g>
     </g>
     <g id="text_8">
      <text style="font: 8.8px 'Futura', sans-serif; text-anchor: end" x="19.83225" y="116.211993" transform="rotate(-0 19.83225 116.211993)">1</text>
     </g>
    </g>
    <g id="ytick_3">
     <g id="line2d_51">
      <g>
       <use xlink:href="#m86d77716a5" x="28.13225" y="80.08254" style="stroke: #000000"/>
      </g>
     </g>
     <g id="text_9">
      <text style="font: 8.8px 'Futura', sans-serif; text-anchor: end" x="19.83225" y="83.711165" transform="rotate(-0 19.83225 83.711165)">2</text>
     </g>
    </g>
    <g id="ytick_4">
     <g id="line2d_52">
      <g>
       <use xlink:href="#m86d77716a5" x="28.13225" y="47.581711" style="stroke: #000000"/>
      </g>
     </g>
     <g id="text_10">
      <text style="font: 8.8px 'Futura', sans-serif; text-anchor: end" x="19.83225" y="51.210336" transform="rotate(-0 19.83225 51.210336)">3</text>
     </g>
    </g>
    <g id="ytick_5">
     <g id="line2d_53">
      <g>
       <use xlink:href="#m86d77716a5" x="28.13225" y="15.080882" style="stroke: #000000"/>
      </g>
     </g>
     <g id="text_11">
      <text style="font: 8.8px 'Futura', sans-serif; text-anchor: end" x="19.83225" y="18.709507" transform="rotate(-0 19.83225 18.709507)">4</text>
     </g>
    </g>
    <g id="text_12">
     <text style="font: 9.6px 'Futura', sans-serif; text-anchor: middle" x="7.917" y="78.840848" transform="rotate(-90 7.917 78.840848)">Stacked Reflectance</text>
    </g>
   </g>
   <g id="line2d_54">
    <path d="M 29.104954 110.577214 
L 32.703961 110.649239 
L 33.773936 110.655658 
L 34.64937 110.617694 
L 39.512892 111.565177 
L 40.193785 112.11413 
L 40.971949 112.696564 
L 42.820087 111.743561 
L 43.50098 111.450747 
L 44.084603 111.212369 
L 44.473685 111.124883 
L 46.808176 110.913878 
L 47.586339 110.961363 
L 48.753585 110.898953 
L 49.726289 110.943259 
L 52.449862 111.025254 
L 53.422566 111.15678 
L 57.507925 111.894102 
L 57.897006 112.20635 
L 58.480629 113.290568 
L 59.258793 115.112681 
L 59.842415 114.559806 
L 60.620579 113.169229 
L 61.204202 112.498665 
L 62.274177 112.248783 
L 62.760529 112.313454 
L 65.19229 111.57328 
L 66.164994 111.566387 
L 67.137699 111.558484 
L 68.888567 111.447348 
L 70.250353 111.414482 
L 71.223058 111.484899 
L 74.627523 112.195721 
L 75.211146 112.544784 
L 75.794769 113.04582 
L 76.767473 114.109627 
L 77.837448 114.888003 
L 78.615611 115.209375 
L 79.588316 115.361395 
L 80.36648 115.584475 
L 80.950102 116.089172 
L 81.825536 117.198749 
L 82.6037 118.552317 
L 83.284593 120.779768 
L 84.646379 126.185578 
L 85.035461 126.461473 
L 85.716354 124.810547 
L 87.07814 120.592189 
L 87.759033 119.413247 
L 88.050845 119.201444 
L 88.439927 119.307864 
L 89.023549 120.031246 
L 89.412631 119.989294 
L 90.579876 117.07464 
L 91.45531 115.704751 
L 92.330744 114.780106 
L 93.692531 113.97347 
L 94.373424 113.54472 
L 95.73521 112.937181 
L 96.707914 112.70025 
L 97.97243 112.345868 
L 101.863248 111.738899 
L 102.835953 111.674504 
L 105.073173 111.456271 
L 108.86672 111.468045 
L 109.644884 111.679402 
L 111.10394 111.883626 
L 112.368456 112.125382 
L 114.411136 112.999554 
L 115.578381 113.786214 
L 115.967463 114.190125 
L 119.469199 118.016929 
L 119.76101 118.098437 
L 120.733715 118.252522 
L 121.511878 118.38832 
L 122.095501 118.333765 
L 124.527262 116.555459 
L 125.110885 116.411585 
L 126.18086 116.611211 
L 127.056294 117.102328 
L 127.931728 117.996913 
L 128.904432 119.959345 
L 130.266218 124.682826 
L 131.044382 128.119022 
L 131.822545 131.826909 
L 132.697979 133.213531 
L 134.740659 126.965662 
L 136.102445 124.326316 
L 139.604181 118.869009 
L 140.868697 117.89787 
L 142.035942 117.385256 
L 143.68954 116.949311 
L 144.759515 116.917231 
L 145.82949 116.821338 
L 147.385817 116.763338 
L 149.428496 116.757234 
L 151.471176 117.222436 
L 152.638421 117.673917 
L 154.292018 117.984137 
L 157.404673 117.646809 
L 158.182836 117.482934 
L 159.739163 117.5572 
L 162.365465 117.608986 
L 164.894497 117.952382 
L 166.159013 118.009036 
L 170.244372 118.963076 
L 171.800699 119.358533 
L 172.773403 119.427431 
L 174.135189 119.92302 
L 176.080598 120.510068 
L 177.442385 121.226202 
L 180.068687 123.430815 
L 182.9868 127.251073 
L 184.640398 129.352558 
L 186.488536 131.392784 
L 187.850322 132.228112 
L 189.406649 133.059622 
L 190.962977 133.355784 
L 192.713845 133.559913 
L 195.242876 133.294621 
L 195.242876 133.294621 
" clip-path="url(#pdc2467644a)" style="fill: none; stroke: #1f77b4; stroke-width: 0.5; stroke-linecap: square"/>
   </g>
   <g id="line2d_55">
    <path d="M 29.104954 99.974007 
L 30.466741 99.90982 
L 31.925797 99.917822 
L 33.482125 99.930025 
L 39.12381 100.567367 
L 40.193785 100.680614 
L 41.944653 100.842441 
L 45.446389 100.995255 
L 47.197257 100.964268 
L 48.948125 100.882843 
L 53.617107 100.183952 
L 60.717849 98.066881 
L 66.067724 96.119693 
L 71.125787 95.237781 
L 78.3238 94.75696 
L 80.171939 94.626038 
L 81.436454 94.592025 
L 83.965486 94.345641 
L 85.910895 94.264331 
L 90.288065 94.16931 
L 91.260769 94.167834 
L 91.747122 94.237458 
L 95.83248 95.134375 
L 96.416103 95.251279 
L 97.194267 95.057564 
L 99.236946 94.160565 
L 103.516846 93.037959 
L 105.948607 92.598431 
L 108.380368 92.12966 
L 110.423047 91.868487 
L 111.590293 91.396036 
L 112.173915 91.318912 
L 113.438431 91.160655 
L 118.399224 90.201336 
L 119.566469 90.040881 
L 120.539174 89.64261 
L 122.679124 89.684702 
L 123.360017 89.941009 
L 124.235451 90.266783 
L 125.013614 90.304925 
L 127.056294 89.101995 
L 130.266218 88.710232 
L 132.017086 88.121859 
L 133.767954 88.062398 
L 134.837929 88.358331 
L 135.713363 88.878635 
L 136.686068 88.705247 
L 138.145124 87.542815 
L 138.728747 87.275094 
L 142.133213 86.966568 
L 142.619565 86.935681 
L 143.592269 87.016143 
L 144.856785 86.782898 
L 146.704924 86.600253 
L 147.969439 86.517369 
L 155.751075 86.696279 
L 160.420057 88.299522 
L 162.170925 89.332467 
L 162.949088 90.247024 
L 163.921793 92.318655 
L 165.089038 96.047077 
L 165.769931 97.519898 
L 167.326258 95.665692 
L 167.71534 95.26797 
L 168.882585 96.262499 
L 169.85529 97.77033 
L 171.897969 102.110935 
L 172.870674 103.394436 
L 173.648837 103.985691 
L 174.524271 103.654507 
L 175.691517 100.808384 
L 177.636926 94.425481 
L 178.804171 92.283133 
L 179.874146 90.912155 
L 181.819555 89.773261 
L 184.056775 89.700167 
L 186.683077 90.438267 
L 190.087543 92.076596 
L 192.713845 92.95728 
L 195.242876 93.222546 
L 195.242876 93.222546 
" clip-path="url(#pdc2467644a)" style="fill: none; stroke-dasharray: 2,0.75; stroke-dashoffset: 0; stroke: #ff7f0e; stroke-width: 0.5"/>
   </g>
   <g id="line2d_56">
    <path d="M 29.104954 59.599995 
L 36.594779 59.530508 
L 38.442917 59.664802 
L 39.901974 59.686708 
L 43.209169 59.695873 
L 46.516364 59.712122 
L 48.461773 59.722133 
L 54.20073 59.854346 
L 57.702466 60.097777 
L 58.966981 60.212311 
L 64.025045 60.198227 
L 67.42951 60.282015 
L 75.405687 60.681082 
L 79.101964 61.451632 
L 79.491045 61.723789 
L 80.171939 62.118809 
L 81.339184 63.031265 
L 82.311888 64.12203 
L 83.090052 64.976116 
L 83.770945 65.172327 
L 84.549109 65.064198 
L 87.07814 64.548376 
L 89.607172 64.259054 
L 91.941663 63.617071 
L 94.373424 63.149815 
L 97.777889 62.773077 
L 101.474166 62.612068 
L 106.532229 62.642467 
L 111.590293 62.861324 
L 115.092029 63.163299 
L 126.861753 64.367773 
L 127.834457 64.862202 
L 128.612621 65.657649 
L 129.098973 66.423022 
L 129.682596 67.646228 
L 130.6553 70.107718 
L 130.947111 70.586654 
L 131.336193 70.977522 
L 131.919816 71.054986 
L 132.79525 70.809711 
L 135.324282 70.012257 
L 137.853313 69.229489 
L 143.592269 67.280995 
L 145.92676 66.888314 
L 149.525767 66.580718 
L 153.222044 66.478164 
L 155.459264 66.631152 
L 156.82105 66.91268 
L 157.988295 67.324754 
L 160.128245 68.274983 
L 161.587302 68.760745 
L 162.754547 68.78907 
L 165.380849 68.783039 
L 167.81261 68.716685 
L 172.870674 68.493301 
L 175.010623 68.609963 
L 177.442385 68.95066 
L 180.068687 69.598374 
L 187.850322 71.846568 
L 191.157518 72.326382 
L 201.857267 73.562776 
L 204.969921 74.39665 
L 206.039896 74.899847 
L 206.91533 75.436005 
L 210.514336 76.906654 
L 212.265204 77.135589 
L 215.572399 77.205677 
L 237.652791 77.245457 
L 242.808124 77.216574 
L 250.784301 77.153687 
L 257.593232 77.068996 
L 257.593232 77.068996 
" clip-path="url(#pdc2467644a)" style="fill: none; stroke-dasharray: 0.5,0.5; stroke-dashoffset: 0; stroke: #2ca02c; stroke-width: 0.5"/>
   </g>
   <g id="line2d_57">
    <path d="M 29.104954 30.694545 
L 30.953093 30.681362 
L 31.925797 30.70321 
L 56.146138 30.574175 
L 60.134227 30.55676 
L 68.499485 30.497687 
L 71.320328 30.661368 
L 72.195762 30.66833 
L 75.405687 30.614202 
L 84.354568 30.82484 
L 88.342656 31.24962 
L 88.926279 31.476872 
L 89.509901 32.129313 
L 90.093524 33.264554 
L 90.385335 33.627614 
L 90.968958 32.834724 
L 91.552581 31.623483 
L 92.038933 31.197983 
L 92.817097 30.966025 
L 97.97243 30.658137 
L 101.668707 30.603523 
L 102.641412 30.655837 
L 104.295009 30.619526 
L 119.080117 30.673354 
L 122.095501 30.672458 
L 128.51535 30.94371 
L 129.098973 31.213849 
L 129.488055 31.229878 
L 130.460759 31.174875 
L 131.628005 31.382353 
L 132.211627 31.503621 
L 150.401201 31.007572 
L 153.027503 31.120865 
L 156.140157 31.251447 
L 159.544623 31.603229 
L 160.420057 31.834187 
L 161.19822 32.264003 
L 161.781843 32.829674 
L 163.532711 34.559693 
L 163.921793 34.762518 
L 164.408145 34.607905 
L 165.867202 33.381414 
L 166.548095 33.226255 
L 166.937176 33.295183 
L 167.423529 33.571804 
L 168.688044 34.510369 
L 169.660749 34.37614 
L 170.341642 33.859716 
L 171.022535 33.209693 
L 171.217076 33.182782 
L 171.606158 33.372223 
L 172.189781 34.707533 
L 173.648837 39.785761 
L 174.23246 40.463429 
L 175.107894 41.178922 
L 175.691517 41.738001 
L 175.983328 41.847692 
L 176.566951 41.034709 
L 177.442385 39.287926 
L 178.026007 39.055182 
L 178.901441 39.173654 
L 179.485064 38.673777 
L 180.457768 37.297037 
L 182.88953 35.297812 
L 184.251316 34.677716 
L 185.321291 35.112156 
L 186.293995 35.600871 
L 187.169429 36.155269 
L 187.850322 36.156517 
L 188.823027 35.917454 
L 190.087543 36.065046 
L 191.157518 36.445456 
L 192.713845 37.740628 
L 193.200197 37.736776 
L 193.78382 37.461953 
L 194.172901 37.337083 
L 194.951065 37.433805 
L 197.188285 38.014926 
L 197.674637 37.859612 
L 197.869178 37.860847 
L 198.25826 37.723767 
L 198.744612 37.773589 
L 198.939153 37.744923 
L 199.133694 37.65003 
L 199.522776 37.766618 
L 200.981833 37.869232 
L 201.273644 37.747829 
L 201.370914 37.777991 
L 201.662726 37.632431 
L 202.440889 37.246881 
L 202.63543 37.199784 
L 203.024512 37.108215 
L 203.802675 36.937836 
L 204.386298 37.039222 
L 205.261732 37.346693 
L 205.553544 37.496253 
L 205.748084 37.657607 
L 206.137166 37.671218 
L 206.331707 37.722813 
L 206.526248 37.769856 
L 206.818059 37.970296 
L 207.304412 38.072968 
L 207.693493 38.223302 
L 210.125254 39.300631 
L 210.708877 39.709605 
L 212.070663 40.91265 
L 214.502425 43.596502 
L 214.891506 43.992259 
L 215.377859 44.434357 
L 216.253293 45.112521 
L 217.420538 45.843539 
L 218.393242 46.052503 
L 218.879595 46.096231 
L 219.463217 46.138223 
L 220.14411 46.187221 
L 220.922274 46.420241 
L 221.505897 46.787195 
L 222.089519 47.43247 
L 222.575872 48.283894 
L 224.034928 51.491987 
L 224.52128 52.039023 
L 225.299444 52.516389 
L 225.688526 52.558239 
L 226.369419 52.450177 
L 227.536664 51.220039 
L 230.357507 47.806915 
L 231.427482 47.121437 
L 232.011105 47.015928 
L 232.886539 47.141245 
L 233.859243 47.371682 
L 234.540136 47.344774 
L 236.291004 47.07889 
L 237.45825 46.906863 
L 238.722766 46.621484 
L 239.5982 46.324585 
L 240.668175 45.900797 
L 242.516313 45.554348 
L 244.169911 45.403795 
L 245.531697 45.248777 
L 246.407131 45.232267 
L 247.282565 45.218937 
L 247.963458 45.177942 
L 250.68703 44.892304 
L 254.188767 44.518372 
L 256.425987 44.495763 
L 257.20415 44.39649 
L 257.593232 44.350749 
L 257.593232 44.350749 
" clip-path="url(#pdc2467644a)" style="fill: none; stroke-dasharray: 1.5,0.625,0.75,0.625; stroke-dashoffset: 0; stroke: #d62728; stroke-width: 0.5"/>
   </g>
   <g id="line2d_58">
    <path d="M 29.104954 14.397937 
L 30.36947 14.228163 
L 36.692049 14.278714 
L 37.664754 14.292426 
L 39.12381 14.366106 
L 39.804704 14.268494 
L 42.820087 14.255908 
L 43.40371 14.294339 
L 43.890062 14.380469 
L 45.835471 14.283975 
L 47.197257 14.374246 
L 48.753585 14.342119 
L 49.823559 14.264485 
L 50.698993 14.224097 
L 52.06078 14.384445 
L 53.130755 14.221304 
L 53.811648 14.232724 
L 55.465245 14.194524 
L 56.146138 14.254237 
L 57.021572 14.263063 
L 58.77244 14.277021 
L 61.496013 14.217887 
L 61.982365 14.238322 
L 62.468717 14.29449 
L 62.857799 14.314597 
L 64.414126 14.183978 
L 64.997749 14.218121 
L 65.873183 14.240241 
L 66.456806 14.274094 
L 67.234969 14.275716 
L 69.374919 14.108112 
L 70.055812 14.142393 
L 72.195762 14.180743 
L 75.892039 14.196209 
L 76.864743 14.210564 
L 81.241914 14.222687 
L 81.825536 14.321803 
L 82.409159 14.319622 
L 83.479134 14.367992 
L 83.965486 14.355386 
L 86.689058 14.527543 
L 88.926279 14.523921 
L 89.898983 14.468819 
L 91.066229 14.340435 
L 92.136203 14.347457 
L 92.525285 14.338806 
L 93.108908 14.28041 
L 94.567965 14.292794 
L 96.027021 14.137541 
L 102.057789 14.161328 
L 103.808657 14.096493 
L 104.39228 14.094701 
L 106.921311 14.186256 
L 109.644884 14.11167 
L 111.395752 14.169214 
L 113.438431 14.033956 
L 118.885576 14.05848 
L 120.441903 14.171639 
L 123.554558 14.208546 
L 124.624532 14.132212 
L 125.402696 14.137924 
L 126.764482 14.152778 
L 127.348105 14.239494 
L 128.320809 14.321924 
L 129.585325 14.404349 
L 130.752571 14.649983 
L 133.087061 15.13429 
L 134.351577 15.289259 
L 137.26969 15.325323 
L 137.950584 15.312748 
L 139.020558 15.310202 
L 141.355049 14.955204 
L 142.619565 14.66535 
L 143.884081 14.611518 
L 145.537678 14.43276 
L 146.802194 14.428251 
L 147.483087 14.433004 
L 148.553062 14.234784 
L 149.720308 14.212797 
L 150.595742 14.202974 
L 151.471176 14.219794 
L 152.54115 14.060536 
L 160.322786 14.196638 
L 161.490031 14.249524 
L 163.629981 14.26676 
L 164.213604 14.217408 
L 165.186308 14.13838 
L 167.034447 14.147106 
L 168.979856 14.129911 
L 169.758019 14.255746 
L 170.730724 13.93116 
L 172.676133 14.25927 
L 174.037919 14.272442 
L 175.496976 14.203138 
L 176.956032 14.263176 
L 178.220548 14.381336 
L 179.776875 14.560601 
L 180.555039 14.563187 
L 182.500448 14.635397 
L 185.710373 14.852521 
L 193.97836 15.344602 
L 195.242876 15.504636 
L 195.242876 15.504636 
" clip-path="url(#pdc2467644a)" style="fill: none; stroke-dasharray: 2.5,0.5,0.5,0.5; stroke-dashoffset: 0; stroke: #9467bd; stroke-width: 0.5"/>
   </g>
   <g id="line2d_59"/>
   <g id="line2d_60"/>
   <g id="line2d_61"/>
   <g id="line2d_62"/>
   <g id="line2d_63"/>
   <g id="patch_3">
    <path d="M 28.13225 145.084197 
L 28.13225 12.5975 
" style="fill: none; stroke: #000000; stroke-linejoin: miter; stroke-linecap: square"/>
   </g>
   <g id="patch_4">
    <path d="M 28.13225 145.084197 
L 258.663207 145.084197 
" style="fill: none; stroke: #000000; stroke-linejoin: miter; stroke-linecap: square"/>
   </g>
   <g id="text_13">
    <text style="font: 6px 'Futura', sans-serif; text-anchor: start" x="259.635912" y="134.992433" transform="rotate(-0 259.635912 134.992433)">Analcime GDS1</text>
   </g>
   <g id="text_14">
    <text style="fill: #1f77b4; font: 7px 'Futura', sans-serif; text-anchor: start" x="259.635912" y="125.731433" transform="rotate(-0 259.635912 125.731433)">Tectosilicates</text>
   </g>
   <g id="text_15">
    <text style="font: 6px 'Futura', sans-serif; text-anchor: start" x="259.635912" y="94.920359" transform="rotate(-0 259.635912 94.920359)">Epidote GDS26</text>
   </g>
   <g id="text_16">
    <text style="fill: #ff7f0e; font: 7px 'Futura', sans-serif; text-anchor: start" x="259.635912" y="85.659359" transform="rotate(-0 259.635912 85.659359)">Sorosilicates</text>
   </g>
   <g id="text_17">
    <text style="font: 6px 'Futura', sans-serif; text-anchor: start" x="259.635912" y="78.766808" transform="rotate(-0 259.635912 78.766808)">Siliceous-sinter bkr1jb329c</text>
   </g>
   <g id="text_18">
    <text style="fill: #2ca02c; font: 7px 'Futura', sans-serif; text-anchor: start" x="259.635912" y="69.505808" transform="rotate(-0 259.635912 69.505808)">Mineraloids</text>
   </g>
   <g id="text_19">
    <text style="font: 6px 'Futura', sans-serif; text-anchor: start" x="259.635912" y="46.048562" transform="rotate(-0 259.635912 46.048562)">Prehnite LAZE03</text>
   </g>
   <g id="text_20">
    <text style="fill: #d62728; font: 7px 'Futura', sans-serif; text-anchor: start" x="259.635912" y="36.787561" transform="rotate(-0 259.635912 36.787561)">Inosilicates</text>
   </g>
   <g id="text_21">
    <text style="font: 6px 'Futura', sans-serif; text-anchor: start" x="259.635912" y="17.202448" transform="rotate(-0 259.635912 17.202448)">Halite HS433</text>
   </g>
   <g id="text_22">
    <text style="fill: #9467bd; font: 7px 'Futura', sans-serif; text-anchor: start" x="259.635912" y="7.941448" transform="rotate(-0 259.635912 7.941448)">Halides</text>
   </g>
   <g id="text_23">
    <text style="font: 8px 'Futura', sans-serif; text-anchor: middle" x="143.397729" y="6.5975" transform="rotate(-0 143.397729 6.5975)">Hydrated Silicates &amp; Halides Stacked</text>
   </g>
  </g>
 </g>
 <defs>
  <clipPath id="pdc2467644a">
   <rect x="28.13225" y="12.5975" width="230.530957" height="132.486697"/>
  </clipPath>
 </defs>
</svg>
