<?xml version="1.0" encoding="utf-8" standalone="no"?>
<!DOCTYPE svg PUBLIC "-//W3C//DTD SVG 1.1//EN"
  "http://www.w3.org/Graphics/SVG/1.1/DTD/svg11.dtd">
<svg xmlns:xlink="http://www.w3.org/1999/xlink" width="332.469389pt" height="177.409447pt" viewBox="0 0 332.469389 177.409447" xmlns="http://www.w3.org/2000/svg" version="1.1">
 <metadata>
  <rdf:RDF xmlns:dc="http://purl.org/dc/elements/1.1/" xmlns:cc="http://creativecommons.org/ns#" xmlns:rdf="http://www.w3.org/1999/02/22-rdf-syntax-ns#">
   <cc:Work>
    <dc:type rdf:resource="http://purl.org/dc/dcmitype/StillImage"/>
    <dc:date>2025-02-15T18:14:01.403678</dc:date>
    <dc:format>image/svg+xml</dc:format>
    <dc:creator>
     <cc:Agent>
      <dc:title>Matplotlib v3.6.2, https://matplotlib.org/</dc:title>
     </cc:Agent>
    </dc:creator>
   </cc:Work>
  </rdf:RDF>
 </metadata>
 <defs>
  <style type="text/css">*{stroke-linejoin: round; stroke-linecap: butt}</style>
 </defs>
 <g id="figure_1">
  <g id="patch_1">
   <path d="M 0 177.409447 
L 332.469389 177.409447 
L 332.469389 0 
L 0 0 
z
" style="fill: #ffffff"/>
  </g>
  <g id="axes_1">
   <g id="patch_2">
    <path d="M 36.279125 145.084197 
L 262.820082 145.084197 
L 262.820082 12.5975 
L 36.279125 12.5975 
z
" style="fill: #ffffff"/>
   </g>
   <g id="matplotlib.axis_1">
    <g id="xtick_1">
     <g id="line2d_1">
      <path d="M 51.573029 145.084197 
L 51.573029 12.5975 
" clip-path="url(#p259d0591d9)" style="fill: none; stroke: #b0b0b0; stroke-width: 0.6; stroke-linecap: square"/>
     </g>
     <g id="line2d_2">
      <defs>
       <path id="mb6b98759be" d="M 0 0 
L 0 4.8 
" style="stroke: #000000"/>
      </defs>
      <g>
       <use xlink:href="#mb6b98759be" x="51.573029" y="145.084197" style="stroke: #000000"/>
      </g>
     </g>
     <g id="text_1">
      <text style="font: 8.8px 'Futura', sans-serif; text-anchor: middle" x="51.573029" y="160.641447" transform="rotate(-0 51.573029 160.641447)">1000</text>
     </g>
    </g>
    <g id="xtick_2">
     <g id="line2d_3">
      <path d="M 99.36648 145.084197 
L 99.36648 12.5975 
" clip-path="url(#p259d0591d9)" style="fill: none; stroke: #b0b0b0; stroke-width: 0.6; stroke-linecap: square"/>
     </g>
     <g id="line2d_4">
      <g>
       <use xlink:href="#mb6b98759be" x="99.36648" y="145.084197" style="stroke: #000000"/>
      </g>
     </g>
     <g id="text_2">
      <text style="font: 8.8px 'Futura', sans-serif; text-anchor: middle" x="99.36648" y="160.641447" transform="rotate(-0 99.36648 160.641447)">1500</text>
     </g>
    </g>
    <g id="xtick_3">
     <g id="line2d_5">
      <path d="M 147.159931 145.084197 
L 147.159931 12.5975 
" clip-path="url(#p259d0591d9)" style="fill: none; stroke: #b0b0b0; stroke-width: 0.6; stroke-linecap: square"/>
     </g>
     <g id="line2d_6">
      <g>
       <use xlink:href="#mb6b98759be" x="147.159931" y="145.084197" style="stroke: #000000"/>
      </g>
     </g>
     <g id="text_3">
      <text style="font: 8.8px 'Futura', sans-serif; text-anchor: middle" x="147.159931" y="160.641447" transform="rotate(-0 147.159931 160.641447)">2000</text>
     </g>
    </g>
    <g id="xtick_4">
     <g id="line2d_7">
      <path d="M 194.953382 145.084197 
L 194.953382 12.5975 
" clip-path="url(#p259d0591d9)" style="fill: none; stroke: #b0b0b0; stroke-width: 0.6; stroke-linecap: square"/>
     </g>
     <g id="line2d_8">
      <g>
       <use xlink:href="#mb6b98759be" x="194.953382" y="145.084197" style="stroke: #000000"/>
      </g>
     </g>
     <g id="text_4">
      <text style="font: 8.8px 'Futura', sans-serif; text-anchor: middle" x="194.953382" y="160.641447" transform="rotate(-0 194.953382 160.641447)">2500</text>
     </g>
    </g>
    <g id="xtick_5">
     <g id="line2d_9">
      <path d="M 242.746833 145.084197 
L 242.746833 12.5975 
" clip-path="url(#p259d0591d9)" style="fill: none; stroke: #b0b0b0; stroke-width: 0.6; stroke-linecap: square"/>
     </g>
     <g id="line2d_10">
      <g>
       <use xlink:href="#mb6b98759be" x="242.746833" y="145.084197" style="stroke: #000000"/>
      </g>
     </g>
     <g id="text_5">
      <text style="font: 8.8px 'Futura', sans-serif; text-anchor: middle" x="242.746833" y="160.641447" transform="rotate(-0 242.746833 160.641447)">3000</text>
     </g>
    </g>
    <g id="xtick_6">
     <g id="line2d_11">
      <path d="M 42.014339 145.084197 
L 42.014339 12.5975 
" clip-path="url(#p259d0591d9)" style="fill: none; stroke: #b0b0b0; stroke-width: 0.3; stroke-linecap: square"/>
     </g>
     <g id="line2d_12">
      <defs>
       <path id="m90f27f0492" d="M 0 0 
L 0 3.2 
" style="stroke: #000000; stroke-width: 0.8"/>
      </defs>
      <g>
       <use xlink:href="#m90f27f0492" x="42.014339" y="145.084197" style="stroke: #000000; stroke-width: 0.8"/>
      </g>
     </g>
    </g>
    <g id="xtick_7">
     <g id="line2d_13">
      <path d="M 61.131719 145.084197 
L 61.131719 12.5975 
" clip-path="url(#p259d0591d9)" style="fill: none; stroke: #b0b0b0; stroke-width: 0.3; stroke-linecap: square"/>
     </g>
     <g id="line2d_14">
      <g>
       <use xlink:href="#m90f27f0492" x="61.131719" y="145.084197" style="stroke: #000000; stroke-width: 0.8"/>
      </g>
     </g>
    </g>
    <g id="xtick_8">
     <g id="line2d_15">
      <path d="M 70.69041 145.084197 
L 70.69041 12.5975 
" clip-path="url(#p259d0591d9)" style="fill: none; stroke: #b0b0b0; stroke-width: 0.3; stroke-linecap: square"/>
     </g>
     <g id="line2d_16">
      <g>
       <use xlink:href="#m90f27f0492" x="70.69041" y="145.084197" style="stroke: #000000; stroke-width: 0.8"/>
      </g>
     </g>
    </g>
    <g id="xtick_9">
     <g id="line2d_17">
      <path d="M 80.2491 145.084197 
L 80.2491 12.5975 
" clip-path="url(#p259d0591d9)" style="fill: none; stroke: #b0b0b0; stroke-width: 0.3; stroke-linecap: square"/>
     </g>
     <g id="line2d_18">
      <g>
       <use xlink:href="#m90f27f0492" x="80.2491" y="145.084197" style="stroke: #000000; stroke-width: 0.8"/>
      </g>
     </g>
    </g>
    <g id="xtick_10">
     <g id="line2d_19">
      <path d="M 89.80779 145.084197 
L 89.80779 12.5975 
" clip-path="url(#p259d0591d9)" style="fill: none; stroke: #b0b0b0; stroke-width: 0.3; stroke-linecap: square"/>
     </g>
     <g id="line2d_20">
      <g>
       <use xlink:href="#m90f27f0492" x="89.80779" y="145.084197" style="stroke: #000000; stroke-width: 0.8"/>
      </g>
     </g>
    </g>
    <g id="xtick_11">
     <g id="line2d_21">
      <path d="M 108.92517 145.084197 
L 108.92517 12.5975 
" clip-path="url(#p259d0591d9)" style="fill: none; stroke: #b0b0b0; stroke-width: 0.3; stroke-linecap: square"/>
     </g>
     <g id="line2d_22">
      <g>
       <use xlink:href="#m90f27f0492" x="108.92517" y="145.084197" style="stroke: #000000; stroke-width: 0.8"/>
      </g>
     </g>
    </g>
    <g id="xtick_12">
     <g id="line2d_23">
      <path d="M 118.48386 145.084197 
L 118.48386 12.5975 
" clip-path="url(#p259d0591d9)" style="fill: none; stroke: #b0b0b0; stroke-width: 0.3; stroke-linecap: square"/>
     </g>
     <g id="line2d_24">
      <g>
       <use xlink:href="#m90f27f0492" x="118.48386" y="145.084197" style="stroke: #000000; stroke-width: 0.8"/>
      </g>
     </g>
    </g>
    <g id="xtick_13">
     <g id="line2d_25">
      <path d="M 128.042551 145.084197 
L 128.042551 12.5975 
" clip-path="url(#p259d0591d9)" style="fill: none; stroke: #b0b0b0; stroke-width: 0.3; stroke-linecap: square"/>
     </g>
     <g id="line2d_26">
      <g>
       <use xlink:href="#m90f27f0492" x="128.042551" y="145.084197" style="stroke: #000000; stroke-width: 0.8"/>
      </g>
     </g>
    </g>
    <g id="xtick_14">
     <g id="line2d_27">
      <path d="M 137.601241 145.084197 
L 137.601241 12.5975 
" clip-path="url(#p259d0591d9)" style="fill: none; stroke: #b0b0b0; stroke-width: 0.3; stroke-linecap: square"/>
     </g>
     <g id="line2d_28">
      <g>
       <use xlink:href="#m90f27f0492" x="137.601241" y="145.084197" style="stroke: #000000; stroke-width: 0.8"/>
      </g>
     </g>
    </g>
    <g id="xtick_15">
     <g id="line2d_29">
      <path d="M 156.718621 145.084197 
L 156.718621 12.5975 
" clip-path="url(#p259d0591d9)" style="fill: none; stroke: #b0b0b0; stroke-width: 0.3; stroke-linecap: square"/>
     </g>
     <g id="line2d_30">
      <g>
       <use xlink:href="#m90f27f0492" x="156.718621" y="145.084197" style="stroke: #000000; stroke-width: 0.8"/>
      </g>
     </g>
    </g>
    <g id="xtick_16">
     <g id="line2d_31">
      <path d="M 166.277311 145.084197 
L 166.277311 12.5975 
" clip-path="url(#p259d0591d9)" style="fill: none; stroke: #b0b0b0; stroke-width: 0.3; stroke-linecap: square"/>
     </g>
     <g id="line2d_32">
      <g>
       <use xlink:href="#m90f27f0492" x="166.277311" y="145.084197" style="stroke: #000000; stroke-width: 0.8"/>
      </g>
     </g>
    </g>
    <g id="xtick_17">
     <g id="line2d_33">
      <path d="M 175.836001 145.084197 
L 175.836001 12.5975 
" clip-path="url(#p259d0591d9)" style="fill: none; stroke: #b0b0b0; stroke-width: 0.3; stroke-linecap: square"/>
     </g>
     <g id="line2d_34">
      <g>
       <use xlink:href="#m90f27f0492" x="175.836001" y="145.084197" style="stroke: #000000; stroke-width: 0.8"/>
      </g>
     </g>
    </g>
    <g id="xtick_18">
     <g id="line2d_35">
      <path d="M 185.394692 145.084197 
L 185.394692 12.5975 
" clip-path="url(#p259d0591d9)" style="fill: none; stroke: #b0b0b0; stroke-width: 0.3; stroke-linecap: square"/>
     </g>
     <g id="line2d_36">
      <g>
       <use xlink:href="#m90f27f0492" x="185.394692" y="145.084197" style="stroke: #000000; stroke-width: 0.8"/>
      </g>
     </g>
    </g>
    <g id="xtick_19">
     <g id="line2d_37">
      <path d="M 204.512072 145.084197 
L 204.512072 12.5975 
" clip-path="url(#p259d0591d9)" style="fill: none; stroke: #b0b0b0; stroke-width: 0.3; stroke-linecap: square"/>
     </g>
     <g id="line2d_38">
      <g>
       <use xlink:href="#m90f27f0492" x="204.512072" y="145.084197" style="stroke: #000000; stroke-width: 0.8"/>
      </g>
     </g>
    </g>
    <g id="xtick_20">
     <g id="line2d_39">
      <path d="M 214.070762 145.084197 
L 214.070762 12.5975 
" clip-path="url(#p259d0591d9)" style="fill: none; stroke: #b0b0b0; stroke-width: 0.3; stroke-linecap: square"/>
     </g>
     <g id="line2d_40">
      <g>
       <use xlink:href="#m90f27f0492" x="214.070762" y="145.084197" style="stroke: #000000; stroke-width: 0.8"/>
      </g>
     </g>
    </g>
    <g id="xtick_21">
     <g id="line2d_41">
      <path d="M 223.629452 145.084197 
L 223.629452 12.5975 
" clip-path="url(#p259d0591d9)" style="fill: none; stroke: #b0b0b0; stroke-width: 0.3; stroke-linecap: square"/>
     </g>
     <g id="line2d_42">
      <g>
       <use xlink:href="#m90f27f0492" x="223.629452" y="145.084197" style="stroke: #000000; stroke-width: 0.8"/>
      </g>
     </g>
    </g>
    <g id="xtick_22">
     <g id="line2d_43">
      <path d="M 233.188143 145.084197 
L 233.188143 12.5975 
" clip-path="url(#p259d0591d9)" style="fill: none; stroke: #b0b0b0; stroke-width: 0.3; stroke-linecap: square"/>
     </g>
     <g id="line2d_44">
      <g>
       <use xlink:href="#m90f27f0492" x="233.188143" y="145.084197" style="stroke: #000000; stroke-width: 0.8"/>
      </g>
     </g>
    </g>
    <g id="xtick_23">
     <g id="line2d_45">
      <path d="M 252.305523 145.084197 
L 252.305523 12.5975 
" clip-path="url(#p259d0591d9)" style="fill: none; stroke: #b0b0b0; stroke-width: 0.3; stroke-linecap: square"/>
     </g>
     <g id="line2d_46">
      <g>
       <use xlink:href="#m90f27f0492" x="252.305523" y="145.084197" style="stroke: #000000; stroke-width: 0.8"/>
      </g>
     </g>
    </g>
    <g id="xtick_24">
     <g id="line2d_47">
      <path d="M 261.864213 145.084197 
L 261.864213 12.5975 
" clip-path="url(#p259d0591d9)" style="fill: none; stroke: #b0b0b0; stroke-width: 0.3; stroke-linecap: square"/>
     </g>
     <g id="line2d_48">
      <g>
       <use xlink:href="#m90f27f0492" x="261.864213" y="145.084197" style="stroke: #000000; stroke-width: 0.8"/>
      </g>
     </g>
    </g>
    <g id="text_6">
     <text style="font: 9.6px 'Futura', sans-serif; text-anchor: middle" x="149.549604" y="174.914947" transform="rotate(-0 149.549604 174.914947)">Wavelength (nm)</text>
    </g>
   </g>
   <g id="matplotlib.axis_2">
    <g id="ytick_1">
     <g id="line2d_49">
      <defs>
       <path id="m8c45a71052" d="M 0 0 
L -4.8 0 
" style="stroke: #000000"/>
      </defs>
      <g>
       <use xlink:href="#m8c45a71052" x="36.279125" y="145.084197" style="stroke: #000000"/>
      </g>
     </g>
     <g id="text_7">
      <text style="font: 8.8px 'Futura', sans-serif; text-anchor: end" x="27.979125" y="148.712822" transform="rotate(-0 27.979125 148.712822)">0.0</text>
     </g>
    </g>
    <g id="ytick_2">
     <g id="line2d_50">
      <g>
       <use xlink:href="#m8c45a71052" x="36.279125" y="118.791163" style="stroke: #000000"/>
      </g>
     </g>
     <g id="text_8">
      <text style="font: 8.8px 'Futura', sans-serif; text-anchor: end" x="27.979125" y="122.419788" transform="rotate(-0 27.979125 122.419788)">0.5</text>
     </g>
    </g>
    <g id="ytick_3">
     <g id="line2d_51">
      <g>
       <use xlink:href="#m8c45a71052" x="36.279125" y="92.49813" style="stroke: #000000"/>
      </g>
     </g>
     <g id="text_9">
      <text style="font: 8.8px 'Futura', sans-serif; text-anchor: end" x="27.979125" y="96.126755" transform="rotate(-0 27.979125 96.126755)">1.0</text>
     </g>
    </g>
    <g id="ytick_4">
     <g id="line2d_52">
      <g>
       <use xlink:href="#m8c45a71052" x="36.279125" y="66.205096" style="stroke: #000000"/>
      </g>
     </g>
     <g id="text_10">
      <text style="font: 8.8px 'Futura', sans-serif; text-anchor: end" x="27.979125" y="69.833721" transform="rotate(-0 27.979125 69.833721)">1.5</text>
     </g>
    </g>
    <g id="ytick_5">
     <g id="line2d_53">
      <g>
       <use xlink:href="#m8c45a71052" x="36.279125" y="39.912063" style="stroke: #000000"/>
      </g>
     </g>
     <g id="text_11">
      <text style="font: 8.8px 'Futura', sans-serif; text-anchor: end" x="27.979125" y="43.540688" transform="rotate(-0 27.979125 43.540688)">2.0</text>
     </g>
    </g>
    <g id="ytick_6">
     <g id="line2d_54">
      <g>
       <use xlink:href="#m8c45a71052" x="36.279125" y="13.61903" style="stroke: #000000"/>
      </g>
     </g>
     <g id="text_12">
      <text style="font: 8.8px 'Futura', sans-serif; text-anchor: end" x="27.979125" y="17.247655" transform="rotate(-0 27.979125 17.247655)">2.5</text>
     </g>
    </g>
    <g id="text_13">
     <text style="font: 9.6px 'Futura', sans-serif; text-anchor: middle" x="7.917" y="78.840848" transform="rotate(-90 7.917 78.840848)">Stacked Reflectance</text>
    </g>
   </g>
   <g id="line2d_55">
    <path d="M 37.234994 76.516123 
L 38.382037 76.604688 
L 39.52908 76.879061 
L 41.440818 77.623154 
L 42.683447 78.246057 
L 44.786359 79.4556 
L 45.646641 79.904969 
L 47.940727 80.994194 
L 50.139226 81.684334 
L 51.85979 81.989785 
L 53.38918 82.040731 
L 55.205332 81.895561 
L 56.925896 81.553868 
L 58.933221 80.872899 
L 60.940546 79.931808 
L 68.587498 75.93959 
L 71.550692 74.7667 
L 75.374168 73.506633 
L 77.381493 72.913819 
L 82.543185 71.490261 
L 95.06507 68.670596 
L 98.219437 68.16474 
L 102.1385 67.567373 
L 105.292868 67.228981 
L 107.109019 67.028387 
L 111.123669 66.788772 
L 112.844233 66.748471 
L 114.278037 66.672063 
L 114.851558 66.718928 
L 115.616253 66.662492 
L 118.388274 66.67666 
L 119.822077 66.730654 
L 121.638228 66.771682 
L 122.402923 66.848532 
L 123.358792 66.92942 
L 126.130813 67.177047 
L 128.902833 67.481932 
L 130.241049 67.666634 
L 134.255699 68.259742 
L 134.829221 68.448231 
L 135.498329 68.368427 
L 136.263024 68.520169 
L 138.652697 68.984831 
L 140.0865 69.232637 
L 149.740777 70.986466 
L 151.174581 71.240909 
L 161.306792 72.738655 
L 168.284636 73.505254 
L 173.063981 73.638497 
L 178.799195 73.386894 
L 180.328586 73.222836 
L 181.188868 73.078267 
L 182.622672 72.932183 
L 183.769714 72.786761 
L 186.159387 72.437779 
L 189.409342 71.734261 
L 191.60784 71.218971 
L 197.343054 69.586225 
L 199.159206 68.969225 
L 199.732727 68.873041 
L 200.306248 68.750253 
L 203.938551 67.748672 
L 204.129724 67.633509 
L 204.320898 67.8722 
L 206.328223 67.320034 
L 206.901745 67.230438 
L 207.188505 67.108894 
L 207.284092 67.166237 
L 207.570853 67.030082 
L 207.762027 67.053174 
L 209.004656 66.785396 
L 209.387004 66.743381 
L 209.769352 66.677621 
L 210.629634 66.499423 
L 210.820808 66.339933 
L 211.203155 66.369424 
L 211.298742 66.238722 
L 211.585503 66.451941 
L 211.96785 66.200131 
L 212.350198 66.350187 
L 212.732546 66.256163 
L 213.688415 66.14777 
L 213.975175 66.239122 
L 215.217805 65.941715 
L 215.504566 66.037086 
L 216.173674 65.82141 
L 216.364848 65.913209 
L 216.556022 65.851525 
L 216.747195 65.974305 
L 217.798651 65.932286 
L 217.989825 65.882335 
L 218.46776 66.135045 
L 219.328042 66.121346 
L 219.423629 66.040198 
L 219.710389 66.359285 
L 220.283911 66.282688 
L 220.570671 66.286547 
L 222.195649 66.362971 
L 222.673583 66.370249 
L 223.247105 66.365011 
L 224.967669 66.458227 
L 225.827951 66.596001 
L 226.974994 66.748433 
L 228.408797 66.8132 
L 229.460253 66.755412 
L 232.232273 66.621306 
L 233.666077 66.534333 
L 235.864576 66.368708 
L 246.379135 65.785876 
L 249.533503 65.645152 
L 258.136324 65.202651 
L 261.768626 65.020484 
L 261.768626 65.020484 
" clip-path="url(#p259d0591d9)" style="fill: none; stroke: #1f77b4; stroke-width: 0.5; stroke-linecap: square"/>
   </g>
   <g id="line2d_56">
    <path d="M 37.234994 120.532104 
L 38.668798 121.568049 
L 39.911427 122.178058 
L 40.676122 122.47436 
L 42.396687 122.856587 
L 42.779034 122.857186 
L 45.742228 122.48291 
L 47.749553 121.524561 
L 49.183357 120.313924 
L 51.095095 117.93167 
L 53.006833 114.531824 
L 58.359699 103.308779 
L 59.88909 101.014229 
L 60.940546 99.696347 
L 62.278762 98.425677 
L 63.616979 97.58386 
L 64.286087 97.292144 
L 64.859609 97.067308 
L 65.624304 96.820341 
L 67.727216 96.326769 
L 68.778672 96.149521 
L 70.308062 95.934666 
L 71.550692 95.881859 
L 71.933039 95.806146 
L 72.410974 95.76373 
L 74.513886 95.753656 
L 76.616798 95.744789 
L 78.432949 95.876894 
L 79.484405 96.00573 
L 81.49173 96.312171 
L 83.881402 96.992424 
L 84.837271 97.379815 
L 86.175488 97.986553 
L 87.609291 98.657362 
L 88.182813 98.90416 
L 88.469573 99.063034 
L 89.521029 100.244872 
L 90.381311 100.322174 
L 90.859246 100.452777 
L 91.623941 100.922266 
L 92.675397 101.484959 
L 93.82244 102.232393 
L 104.145825 109.343367 
L 107.969301 111.71321 
L 110.645735 113.230034 
L 112.93982 114.329998 
L 116.667709 115.90087 
L 119.822077 116.933376 
L 121.351468 117.356116 
L 123.454379 117.887393 
L 127.946964 118.76821 
L 129.28518 118.904428 
L 134.54246 119.191096 
L 139.704153 118.829672 
L 140.564435 118.694652 
L 144.196737 118.071623 
L 146.968757 117.307032 
L 148.976082 116.608605 
L 151.174581 115.802335 
L 151.939276 115.482422 
L 153.755427 114.691023 
L 161.784727 110.418194 
L 163.409704 109.525472 
L 164.652334 108.896469 
L 165.894964 108.182624 
L 171.534591 105.140689 
L 173.159568 104.411919 
L 174.784546 104.001127 
L 175.166893 103.888151 
L 176.409523 103.494765 
L 177.365392 103.563085 
L 178.416848 102.792583 
L 179.085956 102.403351 
L 179.563891 102.087247 
L 180.137412 101.77723 
L 183.482954 100.917292 
L 184.629996 100.901462 
L 185.107931 100.735658 
L 185.777039 100.4268 
L 186.637321 100.245608 
L 187.115256 100.164237 
L 187.688777 100.105669 
L 189.409342 99.994472 
L 192.946057 99.709634 
L 193.806339 99.662179 
L 196.196012 99.545374 
L 197.247467 99.494164 
L 198.39451 99.438177 
L 201.740052 99.19718 
L 201.931226 99.186571 
L 202.026813 99.224489 
L 202.217986 99.128417 
L 202.600334 99.105793 
L 203.078268 99.061741 
L 203.269442 98.956842 
L 203.556203 98.941828 
L 203.842964 98.933793 
L 204.034137 99.075702 
L 204.416485 98.684091 
L 204.703246 98.762639 
L 208.431135 98.281057 
L 208.909069 98.261364 
L 209.291417 98.247493 
L 209.673765 98.222614 
L 210.534047 98.245375 
L 210.916394 98.36341 
L 211.107568 98.292598 
L 211.298742 98.510876 
L 211.489916 98.34559 
L 211.68109 98.53319 
L 211.96785 98.77451 
L 212.159024 98.896358 
L 212.445785 99.275943 
L 213.114893 100.763662 
L 213.688415 102.780694 
L 214.166349 105.064837 
L 215.026631 108.672477 
L 215.408979 109.352033 
L 215.69574 109.962215 
L 215.886913 111.166499 
L 216.078087 112.670333 
L 216.173674 112.508103 
L 216.747195 109.73381 
L 216.938369 109.6805 
L 217.22513 110.298874 
L 217.416304 109.79026 
L 217.703064 108.959608 
L 218.085412 108.646675 
L 218.276586 108.577281 
L 218.563347 108.635 
L 219.041281 108.396648 
L 226.497059 106.120753 
L 227.357342 106.097408 
L 228.599971 106.163947 
L 231.085231 105.550066 
L 241.121855 105.262106 
L 241.695377 105.254252 
L 249.91585 105.114173 
L 251.540828 105.135384 
L 261.768626 105.05401 
L 261.768626 105.05401 
" clip-path="url(#p259d0591d9)" style="fill: none; stroke: #1f77b4; stroke-width: 0.5; stroke-linecap: square"/>
   </g>
   <g id="line2d_57">
    <path d="M 37.234994 14.233811 
L 38.668798 14.267675 
L 39.52908 14.242981 
L 40.389362 14.242013 
L 52.337724 14.175555 
L 77.190319 13.983206 
L 80.344687 14.173977 
L 83.785815 14.106383 
L 84.837271 14.134212 
L 85.410792 14.104553 
L 85.984314 14.098873 
L 86.749009 14.227394 
L 88.182813 14.257389 
L 88.469573 14.333238 
L 89.616616 14.234766 
L 90.572485 14.359574 
L 91.528354 14.444627 
L 92.962158 14.743673 
L 93.344505 14.802149 
L 94.300374 14.760144 
L 95.734178 15.301244 
L 96.116525 15.638478 
L 96.498873 16.193954 
L 97.167981 18.392063 
L 97.454742 18.979491 
L 98.028264 17.696602 
L 98.601785 15.736824 
L 99.079719 15.048369 
L 99.653241 14.737616 
L 100.60911 14.531868 
L 101.756153 14.32347 
L 108.733996 14.136221 
L 109.307518 14.185316 
L 113.991276 14.070623 
L 114.660384 14.09693 
L 115.998601 14.131446 
L 120.108838 14.135211 
L 131.388092 14.365749 
L 132.821896 14.480122 
L 134.446873 14.491745 
L 134.733634 14.420281 
L 135.402742 15.036683 
L 135.78509 15.124364 
L 136.645372 14.981005 
L 137.888002 15.28814 
L 138.461523 15.515354 
L 138.843871 15.527144 
L 140.277674 15.554519 
L 141.807064 15.482088 
L 145.057019 15.101205 
L 156.43186 14.740286 
L 158.439185 14.911707 
L 162.453835 15.180517 
L 164.365573 15.514597 
L 165.894964 15.849769 
L 166.850833 16.537216 
L 167.519941 17.51861 
L 169.240505 20.369385 
L 169.71844 20.815756 
L 170.100787 20.709994 
L 171.630178 18.581142 
L 172.203699 18.336007 
L 172.586047 18.379949 
L 173.063981 18.757915 
L 174.402198 20.407781 
L 175.166893 20.266556 
L 175.549241 20.008653 
L 175.931588 19.54538 
L 176.600697 18.423468 
L 176.791871 18.183128 
L 177.269805 18.566271 
L 177.843326 20.726791 
L 179.27713 28.943321 
L 179.850651 30.039783 
L 180.710933 31.197444 
L 181.188868 32.04287 
L 181.571216 32.279507 
L 182.144737 30.964109 
L 183.005019 28.137829 
L 183.578541 27.76125 
L 184.438823 27.952937 
L 185.012344 27.144141 
L 185.968213 24.916586 
L 188.357886 21.681858 
L 189.696102 20.678547 
L 190.460797 21.157471 
L 192.946057 23.163197 
L 193.137231 23.128963 
L 194.0931 22.678944 
L 195.048969 22.837542 
L 195.813664 23.109517 
L 196.482772 23.538735 
L 198.012163 25.634314 
L 198.39451 25.675294 
L 198.968032 25.284427 
L 199.350379 24.981587 
L 200.115075 25.073731 
L 200.401835 25.188428 
L 200.688596 25.217122 
L 200.87977 25.472088 
L 201.262117 25.48746 
L 201.644465 25.735005 
L 201.835639 25.761571 
L 202.026813 25.981675 
L 202.217986 25.956654 
L 202.40916 26.078125 
L 202.695921 25.974629 
L 203.556203 25.586925 
L 204.129724 25.641263 
L 204.320898 25.487727 
L 204.607659 25.667723 
L 206.232636 25.721447 
L 206.42381 25.645964 
L 206.519397 25.694767 
L 206.710571 25.493996 
L 206.901745 25.395031 
L 207.284092 24.981698 
L 207.379679 25.057596 
L 207.570853 24.835434 
L 207.66644 24.676121 
L 207.857614 24.762827 
L 209.004656 24.337186 
L 209.387004 24.429454 
L 210.342873 24.996929 
L 210.629634 25.238917 
L 210.820808 25.499985 
L 211.107568 25.399948 
L 211.298742 25.69715 
L 211.394329 25.605489 
L 211.585503 25.681604 
L 211.776677 25.97425 
L 212.445785 26.288671 
L 213.497241 26.912908 
L 213.879588 27.04712 
L 215.600153 28.676453 
L 216.173674 29.350172 
L 216.269261 29.427647 
L 216.556022 29.97871 
L 216.747195 30.236931 
L 218.658933 33.746203 
L 220.570671 36.807967 
L 222.291236 38.744755 
L 223.151518 39.094629 
L 223.629452 39.113133 
L 224.107387 39.241334 
L 224.872082 39.271786 
L 225.54119 39.560851 
L 226.210299 40.135064 
L 226.78382 41.117468 
L 227.166168 42.072089 
L 227.739689 44.194589 
L 228.791145 47.883897 
L 229.26908 48.768996 
L 229.651427 49.13055 
L 230.416122 49.609083 
L 230.989644 49.573921 
L 231.945513 47.993364 
L 233.283729 45.243532 
L 234.621946 42.567068 
L 235.291054 41.527577 
L 235.768989 41.030319 
L 236.246923 40.709486 
L 236.724858 40.644913 
L 237.393966 40.784447 
L 238.158661 41.149605 
L 238.82777 41.237267 
L 239.401291 41.076491 
L 240.739508 40.753128 
L 241.504203 40.570108 
L 242.84242 40.147774 
L 244.37181 39.307672 
L 245.518853 38.685129 
L 246.474722 38.382545 
L 247.335004 38.258612 
L 248.768807 37.979296 
L 250.011437 37.796861 
L 250.871719 37.736152 
L 251.540828 37.72955 
L 252.305523 37.667825 
L 254.599608 37.317112 
L 258.327498 36.59457 
L 259.952475 36.589866 
L 261.099518 36.501042 
L 261.768626 36.329433 
L 261.768626 36.329433 
" clip-path="url(#p259d0591d9)" style="fill: none; stroke-dasharray: 2,0.75; stroke-dashoffset: 0; stroke: #ff7f0e; stroke-width: 0.5"/>
   </g>
   <g id="line2d_58"/>
   <g id="line2d_59"/>
   <g id="patch_3">
    <path d="M 36.279125 145.084197 
L 36.279125 12.5975 
" style="fill: none; stroke: #000000; stroke-linejoin: miter; stroke-linecap: square"/>
   </g>
   <g id="patch_4">
    <path d="M 36.279125 145.084197 
L 262.820082 145.084197 
" style="fill: none; stroke: #000000; stroke-linejoin: miter; stroke-linecap: square"/>
   </g>
   <g id="text_14">
    <text style="font: 6px 'Futura', sans-serif; text-anchor: start" x="263.775951" y="106.751822" transform="rotate(-0 263.775951 106.751822)">Orthopyroxene LAPP47B</text>
   </g>
   <g id="text_15">
    <text style="font: 6px 'Futura', sans-serif; text-anchor: start" x="263.775951" y="66.718297" transform="rotate(-0 263.775951 66.718297)">Clinopyroxene NBPP22</text>
   </g>
   <g id="text_16">
    <text style="fill: #1f77b4; font: 7px 'Futura', sans-serif; text-anchor: start" x="263.775951" y="54.265488" transform="rotate(-0 263.775951 54.265488)">Pyroxenes</text>
   </g>
   <g id="text_17">
    <text style="font: 6px 'Futura', sans-serif; text-anchor: start" x="263.775951" y="38.027246" transform="rotate(-0 263.775951 38.027246)">Prehnite LAZE03</text>
   </g>
   <g id="text_18">
    <text style="fill: #ff7f0e; font: 7px 'Futura', sans-serif; text-anchor: start" x="263.775951" y="25.574437" transform="rotate(-0 263.775951 25.574437)">Prehnites</text>
   </g>
   <g id="text_19">
    <text style="font: 8px 'Futura', sans-serif; text-anchor: middle" x="149.549604" y="6.5975" transform="rotate(-0 149.549604 6.5975)">Inosilicates Stacked</text>
   </g>
  </g>
 </g>
 <defs>
  <clipPath id="p259d0591d9">
   <rect x="36.279125" y="12.5975" width="226.540957" height="132.486697"/>
  </clipPath>
 </defs>
</svg>
