<?xml version="1.0" encoding="utf-8" standalone="no"?>
<!DOCTYPE svg PUBLIC "-//W3C//DTD SVG 1.1//EN"
  "http://www.w3.org/Graphics/SVG/1.1/DTD/svg11.dtd">
<svg xmlns:xlink="http://www.w3.org/1999/xlink" width="272.893567pt" height="177.409447pt" viewBox="0 0 272.893567 177.409447" xmlns="http://www.w3.org/2000/svg" version="1.1">
 <metadata>
  <rdf:RDF xmlns:dc="http://purl.org/dc/elements/1.1/" xmlns:cc="http://creativecommons.org/ns#" xmlns:rdf="http://www.w3.org/1999/02/22-rdf-syntax-ns#">
   <cc:Work>
    <dc:type rdf:resource="http://purl.org/dc/dcmitype/StillImage"/>
    <dc:date>2025-02-15T18:14:23.725579</dc:date>
    <dc:format>image/svg+xml</dc:format>
    <dc:creator>
     <cc:Agent>
      <dc:title>Matplotlib v3.6.2, https://matplotlib.org/</dc:title>
     </cc:Agent>
    </dc:creator>
   </cc:Work>
  </rdf:RDF>
 </metadata>
 <defs>
  <style type="text/css">*{stroke-linejoin: round; stroke-linecap: butt}</style>
 </defs>
 <g id="figure_1">
  <g id="patch_1">
   <path d="M 0 177.409447 
L 272.893567 177.409447 
L 272.893567 0 
L 0 0 
z
" style="fill: #ffffff"/>
  </g>
  <g id="axes_1">
   <g id="patch_2">
    <path d="M 36.279125 145.084197 
L 221.506826 145.084197 
L 221.506826 12.5975 
L 36.279125 12.5975 
z
" style="fill: #ffffff"/>
   </g>
   <g id="matplotlib.axis_1">
    <g id="xtick_1">
     <g id="line2d_1">
      <path d="M 48.783949 145.084197 
L 48.783949 12.5975 
" clip-path="url(#pdae598a432)" style="fill: none; stroke: #b0b0b0; stroke-width: 0.6; stroke-linecap: square"/>
     </g>
     <g id="line2d_2">
      <defs>
       <path id="m6d990a35f8" d="M 0 0 
L 0 4.8 
" style="stroke: #000000"/>
      </defs>
      <g>
       <use xlink:href="#m6d990a35f8" x="48.783949" y="145.084197" style="stroke: #000000"/>
      </g>
     </g>
     <g id="text_1">
      <text style="font: 8.8px 'Futura', sans-serif; text-anchor: middle" x="48.783949" y="160.641447" transform="rotate(-0 48.783949 160.641447)">1000</text>
     </g>
    </g>
    <g id="xtick_2">
     <g id="line2d_3">
      <path d="M 87.861523 145.084197 
L 87.861523 12.5975 
" clip-path="url(#pdae598a432)" style="fill: none; stroke: #b0b0b0; stroke-width: 0.6; stroke-linecap: square"/>
     </g>
     <g id="line2d_4">
      <g>
       <use xlink:href="#m6d990a35f8" x="87.861523" y="145.084197" style="stroke: #000000"/>
      </g>
     </g>
     <g id="text_2">
      <text style="font: 8.8px 'Futura', sans-serif; text-anchor: middle" x="87.861523" y="160.641447" transform="rotate(-0 87.861523 160.641447)">1500</text>
     </g>
    </g>
    <g id="xtick_3">
     <g id="line2d_5">
      <path d="M 126.939097 145.084197 
L 126.939097 12.5975 
" clip-path="url(#pdae598a432)" style="fill: none; stroke: #b0b0b0; stroke-width: 0.6; stroke-linecap: square"/>
     </g>
     <g id="line2d_6">
      <g>
       <use xlink:href="#m6d990a35f8" x="126.939097" y="145.084197" style="stroke: #000000"/>
      </g>
     </g>
     <g id="text_3">
      <text style="font: 8.8px 'Futura', sans-serif; text-anchor: middle" x="126.939097" y="160.641447" transform="rotate(-0 126.939097 160.641447)">2000</text>
     </g>
    </g>
    <g id="xtick_4">
     <g id="line2d_7">
      <path d="M 166.016671 145.084197 
L 166.016671 12.5975 
" clip-path="url(#pdae598a432)" style="fill: none; stroke: #b0b0b0; stroke-width: 0.6; stroke-linecap: square"/>
     </g>
     <g id="line2d_8">
      <g>
       <use xlink:href="#m6d990a35f8" x="166.016671" y="145.084197" style="stroke: #000000"/>
      </g>
     </g>
     <g id="text_4">
      <text style="font: 8.8px 'Futura', sans-serif; text-anchor: middle" x="166.016671" y="160.641447" transform="rotate(-0 166.016671 160.641447)">2500</text>
     </g>
    </g>
    <g id="xtick_5">
     <g id="line2d_9">
      <path d="M 205.094245 145.084197 
L 205.094245 12.5975 
" clip-path="url(#pdae598a432)" style="fill: none; stroke: #b0b0b0; stroke-width: 0.6; stroke-linecap: square"/>
     </g>
     <g id="line2d_10">
      <g>
       <use xlink:href="#m6d990a35f8" x="205.094245" y="145.084197" style="stroke: #000000"/>
      </g>
     </g>
     <g id="text_5">
      <text style="font: 8.8px 'Futura', sans-serif; text-anchor: middle" x="205.094245" y="160.641447" transform="rotate(-0 205.094245 160.641447)">3000</text>
     </g>
    </g>
    <g id="xtick_6">
     <g id="line2d_11">
      <path d="M 40.968434 145.084197 
L 40.968434 12.5975 
" clip-path="url(#pdae598a432)" style="fill: none; stroke: #b0b0b0; stroke-width: 0.3; stroke-linecap: square"/>
     </g>
     <g id="line2d_12">
      <defs>
       <path id="m52f3cb7a80" d="M 0 0 
L 0 3.2 
" style="stroke: #000000; stroke-width: 0.8"/>
      </defs>
      <g>
       <use xlink:href="#m52f3cb7a80" x="40.968434" y="145.084197" style="stroke: #000000; stroke-width: 0.8"/>
      </g>
     </g>
    </g>
    <g id="xtick_7">
     <g id="line2d_13">
      <path d="M 56.599463 145.084197 
L 56.599463 12.5975 
" clip-path="url(#pdae598a432)" style="fill: none; stroke: #b0b0b0; stroke-width: 0.3; stroke-linecap: square"/>
     </g>
     <g id="line2d_14">
      <g>
       <use xlink:href="#m52f3cb7a80" x="56.599463" y="145.084197" style="stroke: #000000; stroke-width: 0.8"/>
      </g>
     </g>
    </g>
    <g id="xtick_8">
     <g id="line2d_15">
      <path d="M 64.414978 145.084197 
L 64.414978 12.5975 
" clip-path="url(#pdae598a432)" style="fill: none; stroke: #b0b0b0; stroke-width: 0.3; stroke-linecap: square"/>
     </g>
     <g id="line2d_16">
      <g>
       <use xlink:href="#m52f3cb7a80" x="64.414978" y="145.084197" style="stroke: #000000; stroke-width: 0.8"/>
      </g>
     </g>
    </g>
    <g id="xtick_9">
     <g id="line2d_17">
      <path d="M 72.230493 145.084197 
L 72.230493 12.5975 
" clip-path="url(#pdae598a432)" style="fill: none; stroke: #b0b0b0; stroke-width: 0.3; stroke-linecap: square"/>
     </g>
     <g id="line2d_18">
      <g>
       <use xlink:href="#m52f3cb7a80" x="72.230493" y="145.084197" style="stroke: #000000; stroke-width: 0.8"/>
      </g>
     </g>
    </g>
    <g id="xtick_10">
     <g id="line2d_19">
      <path d="M 80.046008 145.084197 
L 80.046008 12.5975 
" clip-path="url(#pdae598a432)" style="fill: none; stroke: #b0b0b0; stroke-width: 0.3; stroke-linecap: square"/>
     </g>
     <g id="line2d_20">
      <g>
       <use xlink:href="#m52f3cb7a80" x="80.046008" y="145.084197" style="stroke: #000000; stroke-width: 0.8"/>
      </g>
     </g>
    </g>
    <g id="xtick_11">
     <g id="line2d_21">
      <path d="M 95.677037 145.084197 
L 95.677037 12.5975 
" clip-path="url(#pdae598a432)" style="fill: none; stroke: #b0b0b0; stroke-width: 0.3; stroke-linecap: square"/>
     </g>
     <g id="line2d_22">
      <g>
       <use xlink:href="#m52f3cb7a80" x="95.677037" y="145.084197" style="stroke: #000000; stroke-width: 0.8"/>
      </g>
     </g>
    </g>
    <g id="xtick_12">
     <g id="line2d_23">
      <path d="M 103.492552 145.084197 
L 103.492552 12.5975 
" clip-path="url(#pdae598a432)" style="fill: none; stroke: #b0b0b0; stroke-width: 0.3; stroke-linecap: square"/>
     </g>
     <g id="line2d_24">
      <g>
       <use xlink:href="#m52f3cb7a80" x="103.492552" y="145.084197" style="stroke: #000000; stroke-width: 0.8"/>
      </g>
     </g>
    </g>
    <g id="xtick_13">
     <g id="line2d_25">
      <path d="M 111.308067 145.084197 
L 111.308067 12.5975 
" clip-path="url(#pdae598a432)" style="fill: none; stroke: #b0b0b0; stroke-width: 0.3; stroke-linecap: square"/>
     </g>
     <g id="line2d_26">
      <g>
       <use xlink:href="#m52f3cb7a80" x="111.308067" y="145.084197" style="stroke: #000000; stroke-width: 0.8"/>
      </g>
     </g>
    </g>
    <g id="xtick_14">
     <g id="line2d_27">
      <path d="M 119.123582 145.084197 
L 119.123582 12.5975 
" clip-path="url(#pdae598a432)" style="fill: none; stroke: #b0b0b0; stroke-width: 0.3; stroke-linecap: square"/>
     </g>
     <g id="line2d_28">
      <g>
       <use xlink:href="#m52f3cb7a80" x="119.123582" y="145.084197" style="stroke: #000000; stroke-width: 0.8"/>
      </g>
     </g>
    </g>
    <g id="xtick_15">
     <g id="line2d_29">
      <path d="M 134.754611 145.084197 
L 134.754611 12.5975 
" clip-path="url(#pdae598a432)" style="fill: none; stroke: #b0b0b0; stroke-width: 0.3; stroke-linecap: square"/>
     </g>
     <g id="line2d_30">
      <g>
       <use xlink:href="#m52f3cb7a80" x="134.754611" y="145.084197" style="stroke: #000000; stroke-width: 0.8"/>
      </g>
     </g>
    </g>
    <g id="xtick_16">
     <g id="line2d_31">
      <path d="M 142.570126 145.084197 
L 142.570126 12.5975 
" clip-path="url(#pdae598a432)" style="fill: none; stroke: #b0b0b0; stroke-width: 0.3; stroke-linecap: square"/>
     </g>
     <g id="line2d_32">
      <g>
       <use xlink:href="#m52f3cb7a80" x="142.570126" y="145.084197" style="stroke: #000000; stroke-width: 0.8"/>
      </g>
     </g>
    </g>
    <g id="xtick_17">
     <g id="line2d_33">
      <path d="M 150.385641 145.084197 
L 150.385641 12.5975 
" clip-path="url(#pdae598a432)" style="fill: none; stroke: #b0b0b0; stroke-width: 0.3; stroke-linecap: square"/>
     </g>
     <g id="line2d_34">
      <g>
       <use xlink:href="#m52f3cb7a80" x="150.385641" y="145.084197" style="stroke: #000000; stroke-width: 0.8"/>
      </g>
     </g>
    </g>
    <g id="xtick_18">
     <g id="line2d_35">
      <path d="M 158.201156 145.084197 
L 158.201156 12.5975 
" clip-path="url(#pdae598a432)" style="fill: none; stroke: #b0b0b0; stroke-width: 0.3; stroke-linecap: square"/>
     </g>
     <g id="line2d_36">
      <g>
       <use xlink:href="#m52f3cb7a80" x="158.201156" y="145.084197" style="stroke: #000000; stroke-width: 0.8"/>
      </g>
     </g>
    </g>
    <g id="xtick_19">
     <g id="line2d_37">
      <path d="M 173.832186 145.084197 
L 173.832186 12.5975 
" clip-path="url(#pdae598a432)" style="fill: none; stroke: #b0b0b0; stroke-width: 0.3; stroke-linecap: square"/>
     </g>
     <g id="line2d_38">
      <g>
       <use xlink:href="#m52f3cb7a80" x="173.832186" y="145.084197" style="stroke: #000000; stroke-width: 0.8"/>
      </g>
     </g>
    </g>
    <g id="xtick_20">
     <g id="line2d_39">
      <path d="M 181.6477 145.084197 
L 181.6477 12.5975 
" clip-path="url(#pdae598a432)" style="fill: none; stroke: #b0b0b0; stroke-width: 0.3; stroke-linecap: square"/>
     </g>
     <g id="line2d_40">
      <g>
       <use xlink:href="#m52f3cb7a80" x="181.6477" y="145.084197" style="stroke: #000000; stroke-width: 0.8"/>
      </g>
     </g>
    </g>
    <g id="xtick_21">
     <g id="line2d_41">
      <path d="M 189.463215 145.084197 
L 189.463215 12.5975 
" clip-path="url(#pdae598a432)" style="fill: none; stroke: #b0b0b0; stroke-width: 0.3; stroke-linecap: square"/>
     </g>
     <g id="line2d_42">
      <g>
       <use xlink:href="#m52f3cb7a80" x="189.463215" y="145.084197" style="stroke: #000000; stroke-width: 0.8"/>
      </g>
     </g>
    </g>
    <g id="xtick_22">
     <g id="line2d_43">
      <path d="M 197.27873 145.084197 
L 197.27873 12.5975 
" clip-path="url(#pdae598a432)" style="fill: none; stroke: #b0b0b0; stroke-width: 0.3; stroke-linecap: square"/>
     </g>
     <g id="line2d_44">
      <g>
       <use xlink:href="#m52f3cb7a80" x="197.27873" y="145.084197" style="stroke: #000000; stroke-width: 0.8"/>
      </g>
     </g>
    </g>
    <g id="xtick_23">
     <g id="line2d_45">
      <path d="M 212.90976 145.084197 
L 212.90976 12.5975 
" clip-path="url(#pdae598a432)" style="fill: none; stroke: #b0b0b0; stroke-width: 0.3; stroke-linecap: square"/>
     </g>
     <g id="line2d_46">
      <g>
       <use xlink:href="#m52f3cb7a80" x="212.90976" y="145.084197" style="stroke: #000000; stroke-width: 0.8"/>
      </g>
     </g>
    </g>
    <g id="xtick_24">
     <g id="line2d_47">
      <path d="M 220.725274 145.084197 
L 220.725274 12.5975 
" clip-path="url(#pdae598a432)" style="fill: none; stroke: #b0b0b0; stroke-width: 0.3; stroke-linecap: square"/>
     </g>
     <g id="line2d_48">
      <g>
       <use xlink:href="#m52f3cb7a80" x="220.725274" y="145.084197" style="stroke: #000000; stroke-width: 0.8"/>
      </g>
     </g>
    </g>
    <g id="text_6">
     <text style="font: 9.6px 'Futura', sans-serif; text-anchor: middle" x="128.892975" y="174.914947" transform="rotate(-0 128.892975 174.914947)">Wavelength (nm)</text>
    </g>
   </g>
   <g id="matplotlib.axis_2">
    <g id="ytick_1">
     <g id="line2d_49">
      <path d="M 36.279125 145.084197 
L 221.506826 145.084197 
" clip-path="url(#pdae598a432)" style="fill: none; stroke: #b0b0b0; stroke-width: 0.6; stroke-linecap: square"/>
     </g>
     <g id="line2d_50">
      <defs>
       <path id="m85d01f3677" d="M 0 0 
L -4.8 0 
" style="stroke: #000000"/>
      </defs>
      <g>
       <use xlink:href="#m85d01f3677" x="36.279125" y="145.084197" style="stroke: #000000"/>
      </g>
     </g>
     <g id="text_7">
      <text style="font: 8.8px 'Futura', sans-serif; text-anchor: end" x="27.979125" y="148.712822" transform="rotate(-0 27.979125 148.712822)">0.0</text>
     </g>
    </g>
    <g id="ytick_2">
     <g id="line2d_51">
      <path d="M 36.279125 117.477195 
L 221.506826 117.477195 
" clip-path="url(#pdae598a432)" style="fill: none; stroke: #b0b0b0; stroke-width: 0.6; stroke-linecap: square"/>
     </g>
     <g id="line2d_52">
      <g>
       <use xlink:href="#m85d01f3677" x="36.279125" y="117.477195" style="stroke: #000000"/>
      </g>
     </g>
     <g id="text_8">
      <text style="font: 8.8px 'Futura', sans-serif; text-anchor: end" x="27.979125" y="121.10582" transform="rotate(-0 27.979125 121.10582)">0.2</text>
     </g>
    </g>
    <g id="ytick_3">
     <g id="line2d_53">
      <path d="M 36.279125 89.870193 
L 221.506826 89.870193 
" clip-path="url(#pdae598a432)" style="fill: none; stroke: #b0b0b0; stroke-width: 0.6; stroke-linecap: square"/>
     </g>
     <g id="line2d_54">
      <g>
       <use xlink:href="#m85d01f3677" x="36.279125" y="89.870193" style="stroke: #000000"/>
      </g>
     </g>
     <g id="text_9">
      <text style="font: 8.8px 'Futura', sans-serif; text-anchor: end" x="27.979125" y="93.498818" transform="rotate(-0 27.979125 93.498818)">0.4</text>
     </g>
    </g>
    <g id="ytick_4">
     <g id="line2d_55">
      <path d="M 36.279125 62.26319 
L 221.506826 62.26319 
" clip-path="url(#pdae598a432)" style="fill: none; stroke: #b0b0b0; stroke-width: 0.6; stroke-linecap: square"/>
     </g>
     <g id="line2d_56">
      <g>
       <use xlink:href="#m85d01f3677" x="36.279125" y="62.26319" style="stroke: #000000"/>
      </g>
     </g>
     <g id="text_10">
      <text style="font: 8.8px 'Futura', sans-serif; text-anchor: end" x="27.979125" y="65.891815" transform="rotate(-0 27.979125 65.891815)">0.6</text>
     </g>
    </g>
    <g id="ytick_5">
     <g id="line2d_57">
      <path d="M 36.279125 34.656188 
L 221.506826 34.656188 
" clip-path="url(#pdae598a432)" style="fill: none; stroke: #b0b0b0; stroke-width: 0.6; stroke-linecap: square"/>
     </g>
     <g id="line2d_58">
      <g>
       <use xlink:href="#m85d01f3677" x="36.279125" y="34.656188" style="stroke: #000000"/>
      </g>
     </g>
     <g id="text_11">
      <text style="font: 8.8px 'Futura', sans-serif; text-anchor: end" x="27.979125" y="38.284813" transform="rotate(-0 27.979125 38.284813)">0.8</text>
     </g>
    </g>
    <g id="text_12">
     <text style="font: 9.6px 'Futura', sans-serif; text-anchor: middle" x="7.917" y="78.840848" transform="rotate(-90 7.917 78.840848)">Reflectance</text>
    </g>
   </g>
   <g id="line2d_59">
    <path d="M 37.060676 15.801161 
L 37.764073 16.18647 
L 37.920383 16.19279 
L 38.389314 16.001694 
L 39.170865 15.960588 
L 39.405331 15.714196 
L 39.874262 16.575344 
L 41.281054 16.269344 
L 42.609692 16.348078 
L 42.922313 15.95783 
L 43.391243 16.344798 
L 43.860174 16.327735 
L 44.40726 16.397443 
L 44.876191 16.41983 
L 45.266967 17.066942 
L 45.345122 17.019153 
L 45.735898 16.901185 
L 46.126674 17.122155 
L 46.517449 16.674341 
L 46.908225 16.002635 
L 47.767932 15.758893 
L 48.158707 15.929863 
L 48.393173 15.940708 
L 48.783949 15.330045 
L 48.862104 15.411789 
L 49.331035 15.754722 
L 50.034431 15.766235 
L 50.425207 15.42957 
L 50.815983 15.543974 
L 51.284913 15.29126 
L 51.98831 15.230381 
L 52.613551 15.121502 
L 53.160637 15.008536 
L 54.254809 14.900477 
L 54.801895 15.206698 
L 55.505291 15.133537 
L 55.896067 14.611823 
L 56.755774 14.745107 
L 57.14655 14.728983 
L 57.45917 14.714492 
L 57.849946 14.456202 
L 58.162566 14.746845 
L 58.553342 14.119479 
L 58.631497 14.179993 
L 59.334894 14.610054 
L 59.803825 14.23046 
L 60.585376 14.465973 
L 62.070324 14.091596 
L 62.539255 14.341799 
L 63.711582 13.962477 
L 64.102358 14.13864 
L 64.493133 14.035552 
L 65.19653 14.430611 
L 65.587306 13.958804 
L 66.134392 14.455182 
L 66.447012 14.664056 
L 66.837788 15.142924 
L 67.228564 15.274469 
L 67.541184 15.702604 
L 67.619339 15.639991 
L 68.08827 15.375568 
L 68.400891 15.259064 
L 68.791667 14.892196 
L 69.260597 14.908321 
L 69.573218 14.891397 
L 70.042149 15.308652 
L 70.35477 15.635326 
L 70.745545 15.750554 
L 71.370786 16.342449 
L 71.448942 16.398159 
L 72.074183 17.743972 
L 72.777579 18.672618 
L 73.24651 18.960501 
L 73.559131 19.169707 
L 74.418837 19.875262 
L 75.356699 20.286604 
L 75.82563 20.794329 
L 76.13825 21.544798 
L 76.685337 24.312504 
L 76.919802 24.802142 
L 76.997957 24.756784 
L 77.310578 24.575351 
L 77.779509 25.572769 
L 78.170284 27.560219 
L 79.655232 40.506527 
L 80.749404 36.925569 
L 80.827559 36.671503 
L 81.218335 51.524346 
L 81.843576 30.979487 
L 82.156197 25.7939 
L 82.703283 21.914042 
L 82.937748 21.036938 
L 83.406679 20.057824 
L 83.641145 19.87098 
L 83.953765 20.047668 
L 84.657162 18.955372 
L 84.891627 18.839174 
L 85.516868 18.647162 
L 86.376575 17.80181 
L 86.923661 17.680696 
L 87.470747 17.477734 
L 87.861523 18.001021 
L 88.408609 17.187496 
L 89.268315 16.845417 
L 89.737246 16.936963 
L 89.893557 16.909551 
L 90.596953 16.55138 
L 91.065884 16.544806 
L 91.61297 16.121261 
L 91.847435 16.129046 
L 92.238211 16.41453 
L 92.785297 16.266829 
L 93.410538 16.066626 
L 93.723159 16.284833 
L 94.113935 15.71102 
L 94.582865 16.159801 
L 96.067813 15.827522 
L 96.77121 15.759639 
L 96.92752 15.818497 
L 97.396451 16.142714 
L 98.099847 16.273899 
L 98.412468 16.58796 
L 98.803243 15.933123 
L 99.272174 16.396834 
L 100.288191 16.100939 
L 100.444502 16.103701 
L 100.835277 16.43902 
L 101.147898 17.005515 
L 101.226053 16.926476 
L 101.773139 16.514909 
L 102.007604 16.490393 
L 102.867311 16.827448 
L 103.179932 16.670589 
L 104.82119 17.02804 
L 105.13381 17.227472 
L 105.524586 17.05336 
L 105.993517 17.356538 
L 106.306138 17.430577 
L 106.696913 17.659054 
L 107.009534 17.52742 
L 107.478465 18.015539 
L 108.025551 18.148192 
L 108.728947 18.607683 
L 110.839136 20.460502 
L 110.995446 20.503017 
L 111.308067 20.28481 
L 111.776998 20.810671 
L 112.167774 20.769038 
L 112.558549 21.029897 
L 113.652722 20.878912 
L 114.121652 21.239159 
L 114.590583 21.228058 
L 115.6066 21.481019 
L 115.997376 20.755927 
L 116.075531 20.842612 
L 116.466307 21.39185 
L 117.8731 25.33938 
L 118.107565 25.883651 
L 118.889116 27.178886 
L 119.670668 29.659902 
L 119.905133 31.019241 
L 119.983289 30.979377 
L 120.60853 30.555554 
L 120.686685 30.489462 
L 121.077461 31.374407 
L 121.702702 30.629266 
L 122.093478 30.465528 
L 122.484253 30.29431 
L 122.796874 30.200335 
L 123.109494 30.117705 
L 123.891046 29.399818 
L 124.281822 29.359097 
L 125.063373 28.810214 
L 125.610459 28.816975 
L 125.844925 28.805796 
L 126.626476 28.325017 
L 127.720648 28.488511 
L 129.127441 28.414216 
L 129.908992 28.894605 
L 130.612389 29.152232 
L 131.315785 29.624535 
L 131.784716 30.190039 
L 132.019181 30.316923 
L 132.644422 31.691942 
L 133.504129 32.709975 
L 133.660439 32.95623 
L 134.285681 34.192807 
L 134.676456 34.60227 
L 134.989077 35.013505 
L 135.145387 35.239387 
L 136.005094 38.501845 
L 136.474025 38.757376 
L 136.70849 38.7862 
L 137.333731 40.615133 
L 137.568197 41.699619 
L 138.115283 45.899196 
L 138.584214 51.205148 
L 139.522076 61.465323 
L 139.912851 62.970483 
L 140.928868 63.272861 
L 141.241489 63.381938 
L 141.475954 63.579495 
L 141.86673 64.360825 
L 142.570126 66.981781 
L 143.117212 75.252421 
L 143.351678 80.189382 
L 143.820609 70.93913 
L 144.28954 57.316625 
L 144.680315 52.218827 
L 145.071091 50.209421 
L 145.305556 49.604412 
L 145.774487 50.19341 
L 146.165263 49.952867 
L 146.634194 49.467094 
L 146.946815 49.441391 
L 147.493901 49.977553 
L 148.197297 50.966377 
L 149.135159 53.191693 
L 149.369624 53.731991 
L 151.010882 58.265007 
L 151.792434 60.814456 
L 152.105054 61.271959 
L 152.65214 61.57506 
L 152.808451 61.551124 
L 153.511847 60.945096 
L 153.590002 61.134397 
L 153.980778 62.248144 
L 154.91864 66.07075 
L 155.07495 66.55056 
L 155.153105 66.49068 
L 155.543881 66.270954 
L 155.856501 66.350129 
L 156.325432 67.816281 
L 157.028829 70.748344 
L 157.419604 70.402837 
L 158.513776 67.231622 
L 158.670087 67.01659 
L 159.060863 66.897051 
L 159.373483 67.02802 
L 159.920569 68.283974 
L 161.171052 72.474411 
L 161.561827 74.052512 
L 162.108913 75.487498 
L 163.906482 77.582152 
L 164.140947 78.064473 
L 165.313274 81.456986 
L 165.70405 81.648081 
L 166.094826 81.984972 
L 166.407446 81.911095 
L 166.876377 82.784661 
L 167.267153 83.06247 
L 167.892394 83.941367 
L 168.205015 84.409002 
L 168.517635 84.765856 
L 168.986566 85.192371 
L 169.377342 85.788276 
L 169.689963 86.116079 
L 170.315204 86.428645 
L 170.70598 86.860422 
L 171.096755 87.682285 
L 171.253066 87.899216 
L 171.878307 89.23087 
L 172.034617 89.36533 
L 172.503548 90.005995 
L 172.894324 90.327277 
L 173.363255 91.062894 
L 173.519565 91.329667 
L 173.675875 91.106222 
L 173.832186 91.359189 
L 174.301116 92.152924 
L 174.535582 92.226156 
L 174.770047 92.619257 
L 175.082668 93.068494 
L 175.317133 93.469863 
L 175.707909 93.969213 
L 176.489461 96.119765 
L 178.130719 102.838621 
L 178.75596 106.44555 
L 179.303046 110.715213 
L 180.475373 122.8218 
L 181.960321 140.453798 
L 182.272941 141.690149 
L 182.429252 141.801694 
L 182.585562 141.593906 
L 182.898183 140.639982 
L 183.210803 139.769527 
L 183.367114 139.823072 
L 183.601579 140.29247 
L 183.836044 140.70144 
L 183.992355 140.680835 
L 184.148665 140.590114 
L 184.695751 140.763388 
L 184.852061 140.494049 
L 185.242837 139.271141 
L 185.477303 138.544807 
L 185.633613 138.508975 
L 185.789923 138.747558 
L 186.024389 139.731863 
L 186.415164 142.098795 
L 186.493319 142.070603 
L 186.64963 140.959356 
L 187.587492 131.016176 
L 188.056422 129.652452 
L 188.681664 126.016978 
L 189.932146 121.917626 
L 190.713697 120.365419 
L 191.495249 119.144531 
L 193.058352 117.050909 
L 193.996214 115.995278 
L 195.246696 114.417094 
L 197.43504 112.894491 
L 197.669506 113.171541 
L 197.903971 113.836747 
L 198.294747 115.074372 
L 198.372902 115.13221 
L 198.529212 114.858319 
L 198.841833 113.138175 
L 199.467074 109.945336 
L 200.01416 108.463478 
L 200.717556 107.266231 
L 201.342798 106.517137 
L 202.046194 105.715361 
L 204.312693 103.601344 
L 206.188417 101.404284 
L 207.360744 100.277039 
L 208.06414 99.637904 
L 212.831604 95.882435 
L 213.613156 95.267445 
L 214.707328 94.434768 
L 216.035965 93.480361 
L 216.739362 92.942355 
L 218.458775 91.902391 
L 219.474792 91.322238 
L 220.647119 90.556846 
L 220.647119 90.556846 
" clip-path="url(#pdae598a432)" style="fill: none; stroke: #1f77b4; stroke-width: 0.5; stroke-linecap: square"/>
   </g>
   <g id="line2d_60"/>
   <g id="patch_3">
    <path d="M 36.279125 145.084197 
L 36.279125 12.5975 
" style="fill: none; stroke: #000000; stroke-linejoin: miter; stroke-linecap: square"/>
   </g>
   <g id="patch_4">
    <path d="M 36.279125 145.084197 
L 221.506826 145.084197 
" style="fill: none; stroke: #000000; stroke-linejoin: miter; stroke-linecap: square"/>
   </g>
   <g id="text_13">
    <text style="font: 8px 'Futura', sans-serif; text-anchor: middle" x="128.892975" y="6.5975" transform="rotate(-0 128.892975 6.5975)">Kaolinite</text>
   </g>
   <g id="legend_1">
    <g id="patch_5">
     <path d="M 229.41138 84.491161 
L 271.693567 84.491161 
Q 272.893567 84.491161 272.893567 83.291161 
L 272.893567 74.390536 
Q 272.893567 73.190536 271.693567 73.190536 
L 229.41138 73.190536 
Q 228.21138 73.190536 228.21138 74.390536 
L 228.21138 83.291161 
Q 228.21138 84.491161 229.41138 84.491161 
z
" style="fill: #ffffff; opacity: 0.8; stroke: #cccccc; stroke-width: 0.8; stroke-linejoin: miter"/>
    </g>
    <g id="line2d_61">
     <path d="M 230.61138 78.438661 
L 236.61138 78.438661 
L 242.61138 78.438661 
" style="fill: none; stroke: #1f77b4; stroke-width: 1.2; stroke-linecap: square"/>
    </g>
    <g id="text_14">
     <text style="font: 6px 'Futura', sans-serif; text-anchor: start" x="247.41138" y="80.538661" transform="rotate(-0 247.41138 80.538661)">LAKA04</text>
    </g>
   </g>
  </g>
 </g>
 <defs>
  <clipPath id="pdae598a432">
   <rect x="36.279125" y="12.5975" width="185.227701" height="132.486697"/>
  </clipPath>
 </defs>
</svg>
