<?xml version="1.0" encoding="utf-8" standalone="no"?>
<!DOCTYPE svg PUBLIC "-//W3C//DTD SVG 1.1//EN"
  "http://www.w3.org/Graphics/SVG/1.1/DTD/svg11.dtd">
<svg xmlns:xlink="http://www.w3.org/1999/xlink" width="272.743042pt" height="177.400697pt" viewBox="0 0 272.743042 177.400697" xmlns="http://www.w3.org/2000/svg" version="1.1">
 <metadata>
  <rdf:RDF xmlns:dc="http://purl.org/dc/elements/1.1/" xmlns:cc="http://creativecommons.org/ns#" xmlns:rdf="http://www.w3.org/1999/02/22-rdf-syntax-ns#">
   <cc:Work>
    <dc:type rdf:resource="http://purl.org/dc/dcmitype/StillImage"/>
    <dc:date>2025-02-15T18:14:25.826740</dc:date>
    <dc:format>image/svg+xml</dc:format>
    <dc:creator>
     <cc:Agent>
      <dc:title>Matplotlib v3.6.2, https://matplotlib.org/</dc:title>
     </cc:Agent>
    </dc:creator>
   </cc:Work>
  </rdf:RDF>
 </metadata>
 <defs>
  <style type="text/css">*{stroke-linejoin: round; stroke-linecap: butt}</style>
 </defs>
 <g id="figure_1">
  <g id="patch_1">
   <path d="M 0 177.400697 
L 272.743042 177.400697 
L 272.743042 0 
L 0 0 
z
" style="fill: #ffffff"/>
  </g>
  <g id="axes_1">
   <g id="patch_2">
    <path d="M 36.279125 145.075447 
L 218.386826 145.075447 
L 218.386826 12.58875 
L 36.279125 12.58875 
z
" style="fill: #ffffff"/>
   </g>
   <g id="matplotlib.axis_1">
    <g id="xtick_1">
     <g id="line2d_1">
      <path d="M 48.573316 145.075447 
L 48.573316 12.58875 
" clip-path="url(#pf084f61d03)" style="fill: none; stroke: #b0b0b0; stroke-width: 0.6; stroke-linecap: square"/>
     </g>
     <g id="line2d_2">
      <defs>
       <path id="mbadbe6a87b" d="M 0 0 
L 0 4.8 
" style="stroke: #000000"/>
      </defs>
      <g>
       <use xlink:href="#mbadbe6a87b" x="48.573316" y="145.075447" style="stroke: #000000"/>
      </g>
     </g>
     <g id="text_1">
      <text style="font: 8.8px 'Futura', sans-serif; text-anchor: middle" x="48.573316" y="160.632697" transform="rotate(-0 48.573316 160.632697)">1000</text>
     </g>
    </g>
    <g id="xtick_2">
     <g id="line2d_3">
      <path d="M 86.992662 145.075447 
L 86.992662 12.58875 
" clip-path="url(#pf084f61d03)" style="fill: none; stroke: #b0b0b0; stroke-width: 0.6; stroke-linecap: square"/>
     </g>
     <g id="line2d_4">
      <g>
       <use xlink:href="#mbadbe6a87b" x="86.992662" y="145.075447" style="stroke: #000000"/>
      </g>
     </g>
     <g id="text_2">
      <text style="font: 8.8px 'Futura', sans-serif; text-anchor: middle" x="86.992662" y="160.632697" transform="rotate(-0 86.992662 160.632697)">1500</text>
     </g>
    </g>
    <g id="xtick_3">
     <g id="line2d_5">
      <path d="M 125.412008 145.075447 
L 125.412008 12.58875 
" clip-path="url(#pf084f61d03)" style="fill: none; stroke: #b0b0b0; stroke-width: 0.6; stroke-linecap: square"/>
     </g>
     <g id="line2d_6">
      <g>
       <use xlink:href="#mbadbe6a87b" x="125.412008" y="145.075447" style="stroke: #000000"/>
      </g>
     </g>
     <g id="text_3">
      <text style="font: 8.8px 'Futura', sans-serif; text-anchor: middle" x="125.412008" y="160.632697" transform="rotate(-0 125.412008 160.632697)">2000</text>
     </g>
    </g>
    <g id="xtick_4">
     <g id="line2d_7">
      <path d="M 163.831354 145.075447 
L 163.831354 12.58875 
" clip-path="url(#pf084f61d03)" style="fill: none; stroke: #b0b0b0; stroke-width: 0.6; stroke-linecap: square"/>
     </g>
     <g id="line2d_8">
      <g>
       <use xlink:href="#mbadbe6a87b" x="163.831354" y="145.075447" style="stroke: #000000"/>
      </g>
     </g>
     <g id="text_4">
      <text style="font: 8.8px 'Futura', sans-serif; text-anchor: middle" x="163.831354" y="160.632697" transform="rotate(-0 163.831354 160.632697)">2500</text>
     </g>
    </g>
    <g id="xtick_5">
     <g id="line2d_9">
      <path d="M 202.2507 145.075447 
L 202.2507 12.58875 
" clip-path="url(#pf084f61d03)" style="fill: none; stroke: #b0b0b0; stroke-width: 0.6; stroke-linecap: square"/>
     </g>
     <g id="line2d_10">
      <g>
       <use xlink:href="#mbadbe6a87b" x="202.2507" y="145.075447" style="stroke: #000000"/>
      </g>
     </g>
     <g id="text_5">
      <text style="font: 8.8px 'Futura', sans-serif; text-anchor: middle" x="202.2507" y="160.632697" transform="rotate(-0 202.2507 160.632697)">3000</text>
     </g>
    </g>
    <g id="xtick_6">
     <g id="line2d_11">
      <path d="M 40.889447 145.075447 
L 40.889447 12.58875 
" clip-path="url(#pf084f61d03)" style="fill: none; stroke: #b0b0b0; stroke-width: 0.3; stroke-linecap: square"/>
     </g>
     <g id="line2d_12">
      <defs>
       <path id="m5cb59b223e" d="M 0 0 
L 0 3.2 
" style="stroke: #000000; stroke-width: 0.8"/>
      </defs>
      <g>
       <use xlink:href="#m5cb59b223e" x="40.889447" y="145.075447" style="stroke: #000000; stroke-width: 0.8"/>
      </g>
     </g>
    </g>
    <g id="xtick_7">
     <g id="line2d_13">
      <path d="M 56.257185 145.075447 
L 56.257185 12.58875 
" clip-path="url(#pf084f61d03)" style="fill: none; stroke: #b0b0b0; stroke-width: 0.3; stroke-linecap: square"/>
     </g>
     <g id="line2d_14">
      <g>
       <use xlink:href="#m5cb59b223e" x="56.257185" y="145.075447" style="stroke: #000000; stroke-width: 0.8"/>
      </g>
     </g>
    </g>
    <g id="xtick_8">
     <g id="line2d_15">
      <path d="M 63.941054 145.075447 
L 63.941054 12.58875 
" clip-path="url(#pf084f61d03)" style="fill: none; stroke: #b0b0b0; stroke-width: 0.3; stroke-linecap: square"/>
     </g>
     <g id="line2d_16">
      <g>
       <use xlink:href="#m5cb59b223e" x="63.941054" y="145.075447" style="stroke: #000000; stroke-width: 0.8"/>
      </g>
     </g>
    </g>
    <g id="xtick_9">
     <g id="line2d_17">
      <path d="M 71.624923 145.075447 
L 71.624923 12.58875 
" clip-path="url(#pf084f61d03)" style="fill: none; stroke: #b0b0b0; stroke-width: 0.3; stroke-linecap: square"/>
     </g>
     <g id="line2d_18">
      <g>
       <use xlink:href="#m5cb59b223e" x="71.624923" y="145.075447" style="stroke: #000000; stroke-width: 0.8"/>
      </g>
     </g>
    </g>
    <g id="xtick_10">
     <g id="line2d_19">
      <path d="M 79.308793 145.075447 
L 79.308793 12.58875 
" clip-path="url(#pf084f61d03)" style="fill: none; stroke: #b0b0b0; stroke-width: 0.3; stroke-linecap: square"/>
     </g>
     <g id="line2d_20">
      <g>
       <use xlink:href="#m5cb59b223e" x="79.308793" y="145.075447" style="stroke: #000000; stroke-width: 0.8"/>
      </g>
     </g>
    </g>
    <g id="xtick_11">
     <g id="line2d_21">
      <path d="M 94.676531 145.075447 
L 94.676531 12.58875 
" clip-path="url(#pf084f61d03)" style="fill: none; stroke: #b0b0b0; stroke-width: 0.3; stroke-linecap: square"/>
     </g>
     <g id="line2d_22">
      <g>
       <use xlink:href="#m5cb59b223e" x="94.676531" y="145.075447" style="stroke: #000000; stroke-width: 0.8"/>
      </g>
     </g>
    </g>
    <g id="xtick_12">
     <g id="line2d_23">
      <path d="M 102.3604 145.075447 
L 102.3604 12.58875 
" clip-path="url(#pf084f61d03)" style="fill: none; stroke: #b0b0b0; stroke-width: 0.3; stroke-linecap: square"/>
     </g>
     <g id="line2d_24">
      <g>
       <use xlink:href="#m5cb59b223e" x="102.3604" y="145.075447" style="stroke: #000000; stroke-width: 0.8"/>
      </g>
     </g>
    </g>
    <g id="xtick_13">
     <g id="line2d_25">
      <path d="M 110.04427 145.075447 
L 110.04427 12.58875 
" clip-path="url(#pf084f61d03)" style="fill: none; stroke: #b0b0b0; stroke-width: 0.3; stroke-linecap: square"/>
     </g>
     <g id="line2d_26">
      <g>
       <use xlink:href="#m5cb59b223e" x="110.04427" y="145.075447" style="stroke: #000000; stroke-width: 0.8"/>
      </g>
     </g>
    </g>
    <g id="xtick_14">
     <g id="line2d_27">
      <path d="M 117.728139 145.075447 
L 117.728139 12.58875 
" clip-path="url(#pf084f61d03)" style="fill: none; stroke: #b0b0b0; stroke-width: 0.3; stroke-linecap: square"/>
     </g>
     <g id="line2d_28">
      <g>
       <use xlink:href="#m5cb59b223e" x="117.728139" y="145.075447" style="stroke: #000000; stroke-width: 0.8"/>
      </g>
     </g>
    </g>
    <g id="xtick_15">
     <g id="line2d_29">
      <path d="M 133.095877 145.075447 
L 133.095877 12.58875 
" clip-path="url(#pf084f61d03)" style="fill: none; stroke: #b0b0b0; stroke-width: 0.3; stroke-linecap: square"/>
     </g>
     <g id="line2d_30">
      <g>
       <use xlink:href="#m5cb59b223e" x="133.095877" y="145.075447" style="stroke: #000000; stroke-width: 0.8"/>
      </g>
     </g>
    </g>
    <g id="xtick_16">
     <g id="line2d_31">
      <path d="M 140.779747 145.075447 
L 140.779747 12.58875 
" clip-path="url(#pf084f61d03)" style="fill: none; stroke: #b0b0b0; stroke-width: 0.3; stroke-linecap: square"/>
     </g>
     <g id="line2d_32">
      <g>
       <use xlink:href="#m5cb59b223e" x="140.779747" y="145.075447" style="stroke: #000000; stroke-width: 0.8"/>
      </g>
     </g>
    </g>
    <g id="xtick_17">
     <g id="line2d_33">
      <path d="M 148.463616 145.075447 
L 148.463616 12.58875 
" clip-path="url(#pf084f61d03)" style="fill: none; stroke: #b0b0b0; stroke-width: 0.3; stroke-linecap: square"/>
     </g>
     <g id="line2d_34">
      <g>
       <use xlink:href="#m5cb59b223e" x="148.463616" y="145.075447" style="stroke: #000000; stroke-width: 0.8"/>
      </g>
     </g>
    </g>
    <g id="xtick_18">
     <g id="line2d_35">
      <path d="M 156.147485 145.075447 
L 156.147485 12.58875 
" clip-path="url(#pf084f61d03)" style="fill: none; stroke: #b0b0b0; stroke-width: 0.3; stroke-linecap: square"/>
     </g>
     <g id="line2d_36">
      <g>
       <use xlink:href="#m5cb59b223e" x="156.147485" y="145.075447" style="stroke: #000000; stroke-width: 0.8"/>
      </g>
     </g>
    </g>
    <g id="xtick_19">
     <g id="line2d_37">
      <path d="M 171.515223 145.075447 
L 171.515223 12.58875 
" clip-path="url(#pf084f61d03)" style="fill: none; stroke: #b0b0b0; stroke-width: 0.3; stroke-linecap: square"/>
     </g>
     <g id="line2d_38">
      <g>
       <use xlink:href="#m5cb59b223e" x="171.515223" y="145.075447" style="stroke: #000000; stroke-width: 0.8"/>
      </g>
     </g>
    </g>
    <g id="xtick_20">
     <g id="line2d_39">
      <path d="M 179.199093 145.075447 
L 179.199093 12.58875 
" clip-path="url(#pf084f61d03)" style="fill: none; stroke: #b0b0b0; stroke-width: 0.3; stroke-linecap: square"/>
     </g>
     <g id="line2d_40">
      <g>
       <use xlink:href="#m5cb59b223e" x="179.199093" y="145.075447" style="stroke: #000000; stroke-width: 0.8"/>
      </g>
     </g>
    </g>
    <g id="xtick_21">
     <g id="line2d_41">
      <path d="M 186.882962 145.075447 
L 186.882962 12.58875 
" clip-path="url(#pf084f61d03)" style="fill: none; stroke: #b0b0b0; stroke-width: 0.3; stroke-linecap: square"/>
     </g>
     <g id="line2d_42">
      <g>
       <use xlink:href="#m5cb59b223e" x="186.882962" y="145.075447" style="stroke: #000000; stroke-width: 0.8"/>
      </g>
     </g>
    </g>
    <g id="xtick_22">
     <g id="line2d_43">
      <path d="M 194.566831 145.075447 
L 194.566831 12.58875 
" clip-path="url(#pf084f61d03)" style="fill: none; stroke: #b0b0b0; stroke-width: 0.3; stroke-linecap: square"/>
     </g>
     <g id="line2d_44">
      <g>
       <use xlink:href="#m5cb59b223e" x="194.566831" y="145.075447" style="stroke: #000000; stroke-width: 0.8"/>
      </g>
     </g>
    </g>
    <g id="xtick_23">
     <g id="line2d_45">
      <path d="M 209.93457 145.075447 
L 209.93457 12.58875 
" clip-path="url(#pf084f61d03)" style="fill: none; stroke: #b0b0b0; stroke-width: 0.3; stroke-linecap: square"/>
     </g>
     <g id="line2d_46">
      <g>
       <use xlink:href="#m5cb59b223e" x="209.93457" y="145.075447" style="stroke: #000000; stroke-width: 0.8"/>
      </g>
     </g>
    </g>
    <g id="xtick_24">
     <g id="line2d_47">
      <path d="M 217.618439 145.075447 
L 217.618439 12.58875 
" clip-path="url(#pf084f61d03)" style="fill: none; stroke: #b0b0b0; stroke-width: 0.3; stroke-linecap: square"/>
     </g>
     <g id="line2d_48">
      <g>
       <use xlink:href="#m5cb59b223e" x="217.618439" y="145.075447" style="stroke: #000000; stroke-width: 0.8"/>
      </g>
     </g>
    </g>
    <g id="text_6">
     <text style="font: 9.6px 'Futura', sans-serif; text-anchor: middle" x="127.332975" y="174.906197" transform="rotate(-0 127.332975 174.906197)">Wavelength (nm)</text>
    </g>
   </g>
   <g id="matplotlib.axis_2">
    <g id="ytick_1">
     <g id="line2d_49">
      <path d="M 36.279125 145.075447 
L 218.386826 145.075447 
" clip-path="url(#pf084f61d03)" style="fill: none; stroke: #b0b0b0; stroke-width: 0.6; stroke-linecap: square"/>
     </g>
     <g id="line2d_50">
      <defs>
       <path id="m55f13cd876" d="M 0 0 
L -4.8 0 
" style="stroke: #000000"/>
      </defs>
      <g>
       <use xlink:href="#m55f13cd876" x="36.279125" y="145.075447" style="stroke: #000000"/>
      </g>
     </g>
     <g id="text_7">
      <text style="font: 8.8px 'Futura', sans-serif; text-anchor: end" x="27.979125" y="148.704072" transform="rotate(-0 27.979125 148.704072)">0.0</text>
     </g>
    </g>
    <g id="ytick_2">
     <g id="line2d_51">
      <path d="M 36.279125 116.113454 
L 218.386826 116.113454 
" clip-path="url(#pf084f61d03)" style="fill: none; stroke: #b0b0b0; stroke-width: 0.6; stroke-linecap: square"/>
     </g>
     <g id="line2d_52">
      <g>
       <use xlink:href="#m55f13cd876" x="36.279125" y="116.113454" style="stroke: #000000"/>
      </g>
     </g>
     <g id="text_8">
      <text style="font: 8.8px 'Futura', sans-serif; text-anchor: end" x="27.979125" y="119.742079" transform="rotate(-0 27.979125 119.742079)">0.2</text>
     </g>
    </g>
    <g id="ytick_3">
     <g id="line2d_53">
      <path d="M 36.279125 87.151462 
L 218.386826 87.151462 
" clip-path="url(#pf084f61d03)" style="fill: none; stroke: #b0b0b0; stroke-width: 0.6; stroke-linecap: square"/>
     </g>
     <g id="line2d_54">
      <g>
       <use xlink:href="#m55f13cd876" x="36.279125" y="87.151462" style="stroke: #000000"/>
      </g>
     </g>
     <g id="text_9">
      <text style="font: 8.8px 'Futura', sans-serif; text-anchor: end" x="27.979125" y="90.780087" transform="rotate(-0 27.979125 90.780087)">0.4</text>
     </g>
    </g>
    <g id="ytick_4">
     <g id="line2d_55">
      <path d="M 36.279125 58.189469 
L 218.386826 58.189469 
" clip-path="url(#pf084f61d03)" style="fill: none; stroke: #b0b0b0; stroke-width: 0.6; stroke-linecap: square"/>
     </g>
     <g id="line2d_56">
      <g>
       <use xlink:href="#m55f13cd876" x="36.279125" y="58.189469" style="stroke: #000000"/>
      </g>
     </g>
     <g id="text_10">
      <text style="font: 8.8px 'Futura', sans-serif; text-anchor: end" x="27.979125" y="61.818094" transform="rotate(-0 27.979125 61.818094)">0.6</text>
     </g>
    </g>
    <g id="ytick_5">
     <g id="line2d_57">
      <path d="M 36.279125 29.227476 
L 218.386826 29.227476 
" clip-path="url(#pf084f61d03)" style="fill: none; stroke: #b0b0b0; stroke-width: 0.6; stroke-linecap: square"/>
     </g>
     <g id="line2d_58">
      <g>
       <use xlink:href="#m55f13cd876" x="36.279125" y="29.227476" style="stroke: #000000"/>
      </g>
     </g>
     <g id="text_11">
      <text style="font: 8.8px 'Futura', sans-serif; text-anchor: end" x="27.979125" y="32.856101" transform="rotate(-0 27.979125 32.856101)">0.8</text>
     </g>
    </g>
    <g id="text_12">
     <text style="font: 9.6px 'Futura', sans-serif; text-anchor: middle" x="7.917" y="78.832098" transform="rotate(-90 7.917 78.832098)">Reflectance</text>
    </g>
   </g>
   <g id="line2d_59">
    <path d="M 37.047512 13.985216 
L 37.431705 14.321899 
L 37.815899 13.900499 
L 37.892738 13.977191 
L 38.276931 14.251576 
L 38.968479 14.077028 
L 39.736866 14.388654 
L 40.65893 14.409827 
L 40.966285 14.47968 
L 41.350479 14.433026 
L 41.734672 14.708652 
L 42.118866 14.564279 
L 42.810414 14.725484 
L 43.348285 14.737417 
L 43.655639 14.783493 
L 44.039833 14.633905 
L 44.500865 14.74622 
L 45.269252 14.666749 
L 45.9608 14.669497 
L 46.729187 14.625938 
L 47.113381 14.733676 
L 47.497574 14.648098 
L 47.958606 14.771651 
L 48.419638 14.795106 
L 48.650154 14.779378 
L 49.188025 14.517623 
L 50.186928 14.375736 
L 50.64796 14.417153 
L 51.108993 14.369456 
L 51.646863 14.364037 
L 52.261573 14.285639 
L 53.02996 14.324387 
L 53.490992 14.187746 
L 54.028863 14.078007 
L 54.874089 14.165442 
L 55.565637 14.067551 
L 56.103508 14.142046 
L 58.562346 14.001141 
L 59.561249 14.079805 
L 59.868604 14.116471 
L 60.329636 14.227945 
L 63.249506 14.341879 
L 64.325248 14.445569 
L 64.863119 14.529581 
L 65.324151 14.702486 
L 65.93886 14.687078 
L 66.860925 14.624029 
L 67.321957 14.584988 
L 69.550279 14.726236 
L 70.08815 14.934155 
L 71.163891 14.80985 
L 71.471246 14.89598 
L 72.239633 15.092461 
L 73.084859 15.139695 
L 74.006923 15.374809 
L 75.313181 15.759369 
L 76.004729 16.146794 
L 76.235245 16.113344 
L 76.696277 16.742571 
L 77.080471 16.815293 
L 77.618341 17.119769 
L 77.772019 17.164659 
L 78.233051 18.861949 
L 78.617244 19.051999 
L 79.539309 20.461291 
L 80.154018 21.810134 
L 80.461373 21.75499 
L 81.076083 22.586436 
L 83.842276 24.865624 
L 84.226469 25.145053 
L 84.456985 25.226003 
L 84.841179 25.371419 
L 85.455888 25.719454 
L 87.146339 26.355487 
L 87.607371 26.539428 
L 89.835694 26.737235 
L 90.988274 26.507427 
L 91.372467 26.353407 
L 92.064016 26.283233 
L 92.678725 25.990596 
L 92.98608 25.89644 
L 94.369176 25.746097 
L 94.907047 25.648613 
L 95.291241 25.59321 
L 95.90595 25.527783 
L 96.366982 25.46534 
L 96.981692 25.515271 
L 97.442724 25.595297 
L 97.826918 25.870988 
L 98.364788 25.876054 
L 98.672143 25.852767 
L 98.902659 25.764924 
L 99.363691 26.204572 
L 100.05524 26.106967 
L 100.59311 26.374601 
L 101.284659 26.525613 
L 101.976207 26.851869 
L 102.97511 26.862035 
L 103.666658 27.072038 
L 104.896077 27.297302 
L 105.89498 27.282765 
L 106.663367 27.367511 
L 107.431754 27.549039 
L 107.892786 27.661412 
L 108.507496 27.918108 
L 112.96414 29.983815 
L 113.194656 30.200597 
L 113.886204 31.117973 
L 114.347236 31.184671 
L 115.422978 30.5716 
L 115.960849 31.730111 
L 117.420784 36.389402 
L 118.189171 39.605947 
L 119.495429 44.598304 
L 119.879622 45.58799 
L 120.494332 46.605886 
L 122.876331 49.028296 
L 123.875234 49.685069 
L 125.565685 49.576404 
L 127.947685 49.356755 
L 128.408717 49.125059 
L 128.716072 49.057812 
L 129.253943 48.90237 
L 130.483362 48.337181 
L 131.405426 47.823132 
L 132.096974 47.269872 
L 132.788523 46.735842 
L 133.326393 46.429018 
L 136.553618 43.670971 
L 137.475683 42.632389 
L 138.24407 42.327999 
L 138.935618 42.249596 
L 139.627166 42.302514 
L 140.395553 42.800224 
L 141.394456 44.071657 
L 142.547036 46.348677 
L 143.238585 48.249207 
L 143.930133 50.363615 
L 145.159552 54.412411 
L 145.8511 56.119943 
L 147.080519 58.027604 
L 148.386777 60.258394 
L 149.001487 60.949544 
L 149.232003 61.022006 
L 150.00039 59.721771 
L 151.998196 53.391091 
L 152.382389 53.198576 
L 152.92026 53.45107 
L 153.150776 53.752957 
L 153.842324 55.145794 
L 154.533872 56.360249 
L 155.763292 59.132829 
L 157.684259 64.154589 
L 160.450452 73.67392 
L 161.142 74.999664 
L 162.064064 76.475046 
L 162.986129 77.920692 
L 163.754516 79.064322 
L 163.985032 79.235032 
L 164.292386 79.250669 
L 164.67658 78.718451 
L 165.137612 77.36973 
L 165.675483 74.815206 
L 166.213354 71.495497 
L 166.828063 67.307171 
L 167.519611 64.333781 
L 167.980644 63.496776 
L 168.825869 62.558624 
L 169.210063 62.455978 
L 169.36374 62.408451 
L 169.440579 62.476444 
L 169.594256 62.310053 
L 169.747934 62.406909 
L 169.824772 62.327354 
L 170.055288 62.543818 
L 170.439482 62.437091 
L 170.51632 62.660368 
L 170.593159 62.556659 
L 171.054191 62.703443 
L 171.207869 62.255911 
L 171.515223 63.389523 
L 172.053094 63.503642 
L 172.28361 63.992214 
L 172.437288 64.074522 
L 172.667804 64.306926 
L 172.821481 64.305305 
L 172.89832 64.240256 
L 173.128836 64.70541 
L 173.205675 64.68731 
L 173.436191 65.252241 
L 174.0509 66.006152 
L 174.358255 66.751717 
L 174.511932 67.021019 
L 176.740255 72.342548 
L 176.970771 73.181613 
L 177.047609 73.301372 
L 177.354964 74.638294 
L 177.508641 74.999204 
L 178.738061 82.15621 
L 179.122254 85.711687 
L 179.660125 90.401877 
L 180.274834 94.081559 
L 180.582189 95.041974 
L 180.966383 95.885202 
L 181.965286 101.693809 
L 183.502059 112.466295 
L 185.269349 118.799855 
L 186.498768 122.783433 
L 187.420833 125.635614 
L 187.958704 127.302152 
L 188.419736 128.160678 
L 189.418639 128.914571 
L 189.572316 129.007826 
L 190.417542 130.049369 
L 190.724897 130.494905 
L 191.570122 131.540494 
L 193.875283 134.250185 
L 194.797347 135.128151 
L 195.412057 135.765279 
L 196.871992 136.921517 
L 197.947734 137.575104 
L 198.639282 137.891714 
L 199.715024 138.216259 
L 200.637088 138.308551 
L 201.405475 138.17059 
L 206.246312 137.057775 
L 209.93457 136.992628 
L 211.240827 136.871949 
L 217.5416 135.773933 
L 217.5416 135.773933 
" clip-path="url(#pf084f61d03)" style="fill: none; stroke: #1f77b4; stroke-width: 0.5; stroke-linecap: square"/>
   </g>
   <g id="line2d_60"/>
   <g id="patch_3">
    <path d="M 36.279125 145.075447 
L 36.279125 12.58875 
" style="fill: none; stroke: #000000; stroke-linejoin: miter; stroke-linecap: square"/>
   </g>
   <g id="patch_4">
    <path d="M 36.279125 145.075447 
L 218.386826 145.075447 
" style="fill: none; stroke: #000000; stroke-linejoin: miter; stroke-linecap: square"/>
   </g>
   <g id="text_13">
    <text style="font: 8px 'Futura', sans-serif; text-anchor: middle" x="127.332975" y="6.58875" transform="rotate(-0 127.332975 6.58875)">Magnesite</text>
   </g>
   <g id="legend_1">
    <g id="patch_5">
     <path d="M 226.22898 84.482411 
L 271.543042 84.482411 
Q 272.743042 84.482411 272.743042 83.282411 
L 272.743042 74.381786 
Q 272.743042 73.181786 271.543042 73.181786 
L 226.22898 73.181786 
Q 225.02898 73.181786 225.02898 74.381786 
L 225.02898 83.282411 
Q 225.02898 84.482411 226.22898 84.482411 
z
" style="fill: #ffffff; opacity: 0.8; stroke: #cccccc; stroke-width: 0.8; stroke-linejoin: miter"/>
    </g>
    <g id="line2d_61">
     <path d="M 227.42898 78.429911 
L 233.42898 78.429911 
L 239.42898 78.429911 
" style="fill: none; stroke: #1f77b4; stroke-width: 1.2; stroke-linecap: square"/>
    </g>
    <g id="text_14">
     <text style="font: 6px 'Futura', sans-serif; text-anchor: start" x="244.22898" y="80.529911" transform="rotate(-0 244.22898 80.529911)">F1CC06B</text>
    </g>
   </g>
  </g>
 </g>
 <defs>
  <clipPath id="pf084f61d03">
   <rect x="36.279125" y="12.58875" width="182.107701" height="132.486697"/>
  </clipPath>
 </defs>
</svg>
