<?xml version="1.0" encoding="utf-8" standalone="no"?>
<!DOCTYPE svg PUBLIC "-//W3C//DTD SVG 1.1//EN"
  "http://www.w3.org/Graphics/SVG/1.1/DTD/svg11.dtd">
<svg xmlns:xlink="http://www.w3.org/1999/xlink" width="272.857192pt" height="177.400697pt" viewBox="0 0 272.857192 177.400697" xmlns="http://www.w3.org/2000/svg" version="1.1">
 <metadata>
  <rdf:RDF xmlns:dc="http://purl.org/dc/elements/1.1/" xmlns:cc="http://creativecommons.org/ns#" xmlns:rdf="http://www.w3.org/1999/02/22-rdf-syntax-ns#">
   <cc:Work>
    <dc:type rdf:resource="http://purl.org/dc/dcmitype/StillImage"/>
    <dc:date>2025-02-15T18:14:24.199527</dc:date>
    <dc:format>image/svg+xml</dc:format>
    <dc:creator>
     <cc:Agent>
      <dc:title>Matplotlib v3.6.2, https://matplotlib.org/</dc:title>
     </cc:Agent>
    </dc:creator>
   </cc:Work>
  </rdf:RDF>
 </metadata>
 <defs>
  <style type="text/css">*{stroke-linejoin: round; stroke-linecap: butt}</style>
 </defs>
 <g id="figure_1">
  <g id="patch_1">
   <path d="M 0 177.400697 
L 272.857192 177.400697 
L 272.857192 0 
L 0 0 
z
" style="fill: #ffffff"/>
  </g>
  <g id="axes_1">
   <g id="patch_2">
    <path d="M 36.279125 145.075447 
L 220.906826 145.075447 
L 220.906826 12.58875 
L 36.279125 12.58875 
z
" style="fill: #ffffff"/>
   </g>
   <g id="matplotlib.axis_1">
    <g id="xtick_1">
     <g id="line2d_1">
      <path d="M 48.743442 145.075447 
L 48.743442 12.58875 
" clip-path="url(#p5dc2524fdb)" style="fill: none; stroke: #b0b0b0; stroke-width: 0.6; stroke-linecap: square"/>
     </g>
     <g id="line2d_2">
      <defs>
       <path id="mc6b408ba3f" d="M 0 0 
L 0 4.8 
" style="stroke: #000000"/>
      </defs>
      <g>
       <use xlink:href="#mc6b408ba3f" x="48.743442" y="145.075447" style="stroke: #000000"/>
      </g>
     </g>
     <g id="text_1">
      <text style="font: 8.8px 'Futura', sans-serif; text-anchor: middle" x="48.743442" y="160.632697" transform="rotate(-0 48.743442 160.632697)">1000</text>
     </g>
    </g>
    <g id="xtick_2">
     <g id="line2d_3">
      <path d="M 87.694434 145.075447 
L 87.694434 12.58875 
" clip-path="url(#p5dc2524fdb)" style="fill: none; stroke: #b0b0b0; stroke-width: 0.6; stroke-linecap: square"/>
     </g>
     <g id="line2d_4">
      <g>
       <use xlink:href="#mc6b408ba3f" x="87.694434" y="145.075447" style="stroke: #000000"/>
      </g>
     </g>
     <g id="text_2">
      <text style="font: 8.8px 'Futura', sans-serif; text-anchor: middle" x="87.694434" y="160.632697" transform="rotate(-0 87.694434 160.632697)">1500</text>
     </g>
    </g>
    <g id="xtick_3">
     <g id="line2d_5">
      <path d="M 126.645426 145.075447 
L 126.645426 12.58875 
" clip-path="url(#p5dc2524fdb)" style="fill: none; stroke: #b0b0b0; stroke-width: 0.6; stroke-linecap: square"/>
     </g>
     <g id="line2d_6">
      <g>
       <use xlink:href="#mc6b408ba3f" x="126.645426" y="145.075447" style="stroke: #000000"/>
      </g>
     </g>
     <g id="text_3">
      <text style="font: 8.8px 'Futura', sans-serif; text-anchor: middle" x="126.645426" y="160.632697" transform="rotate(-0 126.645426 160.632697)">2000</text>
     </g>
    </g>
    <g id="xtick_4">
     <g id="line2d_7">
      <path d="M 165.596418 145.075447 
L 165.596418 12.58875 
" clip-path="url(#p5dc2524fdb)" style="fill: none; stroke: #b0b0b0; stroke-width: 0.6; stroke-linecap: square"/>
     </g>
     <g id="line2d_8">
      <g>
       <use xlink:href="#mc6b408ba3f" x="165.596418" y="145.075447" style="stroke: #000000"/>
      </g>
     </g>
     <g id="text_4">
      <text style="font: 8.8px 'Futura', sans-serif; text-anchor: middle" x="165.596418" y="160.632697" transform="rotate(-0 165.596418 160.632697)">2500</text>
     </g>
    </g>
    <g id="xtick_5">
     <g id="line2d_9">
      <path d="M 204.547409 145.075447 
L 204.547409 12.58875 
" clip-path="url(#p5dc2524fdb)" style="fill: none; stroke: #b0b0b0; stroke-width: 0.6; stroke-linecap: square"/>
     </g>
     <g id="line2d_10">
      <g>
       <use xlink:href="#mc6b408ba3f" x="204.547409" y="145.075447" style="stroke: #000000"/>
      </g>
     </g>
     <g id="text_5">
      <text style="font: 8.8px 'Futura', sans-serif; text-anchor: middle" x="204.547409" y="160.632697" transform="rotate(-0 204.547409 160.632697)">3000</text>
     </g>
    </g>
    <g id="xtick_6">
     <g id="line2d_11">
      <path d="M 40.953244 145.075447 
L 40.953244 12.58875 
" clip-path="url(#p5dc2524fdb)" style="fill: none; stroke: #b0b0b0; stroke-width: 0.3; stroke-linecap: square"/>
     </g>
     <g id="line2d_12">
      <defs>
       <path id="m10ed9cea13" d="M 0 0 
L 0 3.2 
" style="stroke: #000000; stroke-width: 0.8"/>
      </defs>
      <g>
       <use xlink:href="#m10ed9cea13" x="40.953244" y="145.075447" style="stroke: #000000; stroke-width: 0.8"/>
      </g>
     </g>
    </g>
    <g id="xtick_7">
     <g id="line2d_13">
      <path d="M 56.533641 145.075447 
L 56.533641 12.58875 
" clip-path="url(#p5dc2524fdb)" style="fill: none; stroke: #b0b0b0; stroke-width: 0.3; stroke-linecap: square"/>
     </g>
     <g id="line2d_14">
      <g>
       <use xlink:href="#m10ed9cea13" x="56.533641" y="145.075447" style="stroke: #000000; stroke-width: 0.8"/>
      </g>
     </g>
    </g>
    <g id="xtick_8">
     <g id="line2d_15">
      <path d="M 64.323839 145.075447 
L 64.323839 12.58875 
" clip-path="url(#p5dc2524fdb)" style="fill: none; stroke: #b0b0b0; stroke-width: 0.3; stroke-linecap: square"/>
     </g>
     <g id="line2d_16">
      <g>
       <use xlink:href="#m10ed9cea13" x="64.323839" y="145.075447" style="stroke: #000000; stroke-width: 0.8"/>
      </g>
     </g>
    </g>
    <g id="xtick_9">
     <g id="line2d_17">
      <path d="M 72.114037 145.075447 
L 72.114037 12.58875 
" clip-path="url(#p5dc2524fdb)" style="fill: none; stroke: #b0b0b0; stroke-width: 0.3; stroke-linecap: square"/>
     </g>
     <g id="line2d_18">
      <g>
       <use xlink:href="#m10ed9cea13" x="72.114037" y="145.075447" style="stroke: #000000; stroke-width: 0.8"/>
      </g>
     </g>
    </g>
    <g id="xtick_10">
     <g id="line2d_19">
      <path d="M 79.904236 145.075447 
L 79.904236 12.58875 
" clip-path="url(#p5dc2524fdb)" style="fill: none; stroke: #b0b0b0; stroke-width: 0.3; stroke-linecap: square"/>
     </g>
     <g id="line2d_20">
      <g>
       <use xlink:href="#m10ed9cea13" x="79.904236" y="145.075447" style="stroke: #000000; stroke-width: 0.8"/>
      </g>
     </g>
    </g>
    <g id="xtick_11">
     <g id="line2d_21">
      <path d="M 95.484632 145.075447 
L 95.484632 12.58875 
" clip-path="url(#p5dc2524fdb)" style="fill: none; stroke: #b0b0b0; stroke-width: 0.3; stroke-linecap: square"/>
     </g>
     <g id="line2d_22">
      <g>
       <use xlink:href="#m10ed9cea13" x="95.484632" y="145.075447" style="stroke: #000000; stroke-width: 0.8"/>
      </g>
     </g>
    </g>
    <g id="xtick_12">
     <g id="line2d_23">
      <path d="M 103.274831 145.075447 
L 103.274831 12.58875 
" clip-path="url(#p5dc2524fdb)" style="fill: none; stroke: #b0b0b0; stroke-width: 0.3; stroke-linecap: square"/>
     </g>
     <g id="line2d_24">
      <g>
       <use xlink:href="#m10ed9cea13" x="103.274831" y="145.075447" style="stroke: #000000; stroke-width: 0.8"/>
      </g>
     </g>
    </g>
    <g id="xtick_13">
     <g id="line2d_25">
      <path d="M 111.065029 145.075447 
L 111.065029 12.58875 
" clip-path="url(#p5dc2524fdb)" style="fill: none; stroke: #b0b0b0; stroke-width: 0.3; stroke-linecap: square"/>
     </g>
     <g id="line2d_26">
      <g>
       <use xlink:href="#m10ed9cea13" x="111.065029" y="145.075447" style="stroke: #000000; stroke-width: 0.8"/>
      </g>
     </g>
    </g>
    <g id="xtick_14">
     <g id="line2d_27">
      <path d="M 118.855227 145.075447 
L 118.855227 12.58875 
" clip-path="url(#p5dc2524fdb)" style="fill: none; stroke: #b0b0b0; stroke-width: 0.3; stroke-linecap: square"/>
     </g>
     <g id="line2d_28">
      <g>
       <use xlink:href="#m10ed9cea13" x="118.855227" y="145.075447" style="stroke: #000000; stroke-width: 0.8"/>
      </g>
     </g>
    </g>
    <g id="xtick_15">
     <g id="line2d_29">
      <path d="M 134.435624 145.075447 
L 134.435624 12.58875 
" clip-path="url(#p5dc2524fdb)" style="fill: none; stroke: #b0b0b0; stroke-width: 0.3; stroke-linecap: square"/>
     </g>
     <g id="line2d_30">
      <g>
       <use xlink:href="#m10ed9cea13" x="134.435624" y="145.075447" style="stroke: #000000; stroke-width: 0.8"/>
      </g>
     </g>
    </g>
    <g id="xtick_16">
     <g id="line2d_31">
      <path d="M 142.225822 145.075447 
L 142.225822 12.58875 
" clip-path="url(#p5dc2524fdb)" style="fill: none; stroke: #b0b0b0; stroke-width: 0.3; stroke-linecap: square"/>
     </g>
     <g id="line2d_32">
      <g>
       <use xlink:href="#m10ed9cea13" x="142.225822" y="145.075447" style="stroke: #000000; stroke-width: 0.8"/>
      </g>
     </g>
    </g>
    <g id="xtick_17">
     <g id="line2d_33">
      <path d="M 150.016021 145.075447 
L 150.016021 12.58875 
" clip-path="url(#p5dc2524fdb)" style="fill: none; stroke: #b0b0b0; stroke-width: 0.3; stroke-linecap: square"/>
     </g>
     <g id="line2d_34">
      <g>
       <use xlink:href="#m10ed9cea13" x="150.016021" y="145.075447" style="stroke: #000000; stroke-width: 0.8"/>
      </g>
     </g>
    </g>
    <g id="xtick_18">
     <g id="line2d_35">
      <path d="M 157.806219 145.075447 
L 157.806219 12.58875 
" clip-path="url(#p5dc2524fdb)" style="fill: none; stroke: #b0b0b0; stroke-width: 0.3; stroke-linecap: square"/>
     </g>
     <g id="line2d_36">
      <g>
       <use xlink:href="#m10ed9cea13" x="157.806219" y="145.075447" style="stroke: #000000; stroke-width: 0.8"/>
      </g>
     </g>
    </g>
    <g id="xtick_19">
     <g id="line2d_37">
      <path d="M 173.386616 145.075447 
L 173.386616 12.58875 
" clip-path="url(#p5dc2524fdb)" style="fill: none; stroke: #b0b0b0; stroke-width: 0.3; stroke-linecap: square"/>
     </g>
     <g id="line2d_38">
      <g>
       <use xlink:href="#m10ed9cea13" x="173.386616" y="145.075447" style="stroke: #000000; stroke-width: 0.8"/>
      </g>
     </g>
    </g>
    <g id="xtick_20">
     <g id="line2d_39">
      <path d="M 181.176814 145.075447 
L 181.176814 12.58875 
" clip-path="url(#p5dc2524fdb)" style="fill: none; stroke: #b0b0b0; stroke-width: 0.3; stroke-linecap: square"/>
     </g>
     <g id="line2d_40">
      <g>
       <use xlink:href="#m10ed9cea13" x="181.176814" y="145.075447" style="stroke: #000000; stroke-width: 0.8"/>
      </g>
     </g>
    </g>
    <g id="xtick_21">
     <g id="line2d_41">
      <path d="M 188.967013 145.075447 
L 188.967013 12.58875 
" clip-path="url(#p5dc2524fdb)" style="fill: none; stroke: #b0b0b0; stroke-width: 0.3; stroke-linecap: square"/>
     </g>
     <g id="line2d_42">
      <g>
       <use xlink:href="#m10ed9cea13" x="188.967013" y="145.075447" style="stroke: #000000; stroke-width: 0.8"/>
      </g>
     </g>
    </g>
    <g id="xtick_22">
     <g id="line2d_43">
      <path d="M 196.757211 145.075447 
L 196.757211 12.58875 
" clip-path="url(#p5dc2524fdb)" style="fill: none; stroke: #b0b0b0; stroke-width: 0.3; stroke-linecap: square"/>
     </g>
     <g id="line2d_44">
      <g>
       <use xlink:href="#m10ed9cea13" x="196.757211" y="145.075447" style="stroke: #000000; stroke-width: 0.8"/>
      </g>
     </g>
    </g>
    <g id="xtick_23">
     <g id="line2d_45">
      <path d="M 212.337608 145.075447 
L 212.337608 12.58875 
" clip-path="url(#p5dc2524fdb)" style="fill: none; stroke: #b0b0b0; stroke-width: 0.3; stroke-linecap: square"/>
     </g>
     <g id="line2d_46">
      <g>
       <use xlink:href="#m10ed9cea13" x="212.337608" y="145.075447" style="stroke: #000000; stroke-width: 0.8"/>
      </g>
     </g>
    </g>
    <g id="xtick_24">
     <g id="line2d_47">
      <path d="M 220.127806 145.075447 
L 220.127806 12.58875 
" clip-path="url(#p5dc2524fdb)" style="fill: none; stroke: #b0b0b0; stroke-width: 0.3; stroke-linecap: square"/>
     </g>
     <g id="line2d_48">
      <g>
       <use xlink:href="#m10ed9cea13" x="220.127806" y="145.075447" style="stroke: #000000; stroke-width: 0.8"/>
      </g>
     </g>
    </g>
    <g id="text_6">
     <text style="font: 9.6px 'Futura', sans-serif; text-anchor: middle" x="128.592975" y="174.906197" transform="rotate(-0 128.592975 174.906197)">Wavelength (nm)</text>
    </g>
   </g>
   <g id="matplotlib.axis_2">
    <g id="ytick_1">
     <g id="line2d_49">
      <path d="M 36.279125 145.075447 
L 220.906826 145.075447 
" clip-path="url(#p5dc2524fdb)" style="fill: none; stroke: #b0b0b0; stroke-width: 0.6; stroke-linecap: square"/>
     </g>
     <g id="line2d_50">
      <defs>
       <path id="m848a09a65b" d="M 0 0 
L -4.8 0 
" style="stroke: #000000"/>
      </defs>
      <g>
       <use xlink:href="#m848a09a65b" x="36.279125" y="145.075447" style="stroke: #000000"/>
      </g>
     </g>
     <g id="text_7">
      <text style="font: 8.8px 'Futura', sans-serif; text-anchor: end" x="27.979125" y="148.704072" transform="rotate(-0 27.979125 148.704072)">0.0</text>
     </g>
    </g>
    <g id="ytick_2">
     <g id="line2d_51">
      <path d="M 36.279125 122.287692 
L 220.906826 122.287692 
" clip-path="url(#p5dc2524fdb)" style="fill: none; stroke: #b0b0b0; stroke-width: 0.6; stroke-linecap: square"/>
     </g>
     <g id="line2d_52">
      <g>
       <use xlink:href="#m848a09a65b" x="36.279125" y="122.287692" style="stroke: #000000"/>
      </g>
     </g>
     <g id="text_8">
      <text style="font: 8.8px 'Futura', sans-serif; text-anchor: end" x="27.979125" y="125.916317" transform="rotate(-0 27.979125 125.916317)">0.1</text>
     </g>
    </g>
    <g id="ytick_3">
     <g id="line2d_53">
      <path d="M 36.279125 99.499937 
L 220.906826 99.499937 
" clip-path="url(#p5dc2524fdb)" style="fill: none; stroke: #b0b0b0; stroke-width: 0.6; stroke-linecap: square"/>
     </g>
     <g id="line2d_54">
      <g>
       <use xlink:href="#m848a09a65b" x="36.279125" y="99.499937" style="stroke: #000000"/>
      </g>
     </g>
     <g id="text_9">
      <text style="font: 8.8px 'Futura', sans-serif; text-anchor: end" x="27.979125" y="103.128562" transform="rotate(-0 27.979125 103.128562)">0.2</text>
     </g>
    </g>
    <g id="ytick_4">
     <g id="line2d_55">
      <path d="M 36.279125 76.712183 
L 220.906826 76.712183 
" clip-path="url(#p5dc2524fdb)" style="fill: none; stroke: #b0b0b0; stroke-width: 0.6; stroke-linecap: square"/>
     </g>
     <g id="line2d_56">
      <g>
       <use xlink:href="#m848a09a65b" x="36.279125" y="76.712183" style="stroke: #000000"/>
      </g>
     </g>
     <g id="text_10">
      <text style="font: 8.8px 'Futura', sans-serif; text-anchor: end" x="27.979125" y="80.340808" transform="rotate(-0 27.979125 80.340808)">0.3</text>
     </g>
    </g>
    <g id="ytick_5">
     <g id="line2d_57">
      <path d="M 36.279125 53.924428 
L 220.906826 53.924428 
" clip-path="url(#p5dc2524fdb)" style="fill: none; stroke: #b0b0b0; stroke-width: 0.6; stroke-linecap: square"/>
     </g>
     <g id="line2d_58">
      <g>
       <use xlink:href="#m848a09a65b" x="36.279125" y="53.924428" style="stroke: #000000"/>
      </g>
     </g>
     <g id="text_11">
      <text style="font: 8.8px 'Futura', sans-serif; text-anchor: end" x="27.979125" y="57.553053" transform="rotate(-0 27.979125 57.553053)">0.4</text>
     </g>
    </g>
    <g id="ytick_6">
     <g id="line2d_59">
      <path d="M 36.279125 31.136673 
L 220.906826 31.136673 
" clip-path="url(#p5dc2524fdb)" style="fill: none; stroke: #b0b0b0; stroke-width: 0.6; stroke-linecap: square"/>
     </g>
     <g id="line2d_60">
      <g>
       <use xlink:href="#m848a09a65b" x="36.279125" y="31.136673" style="stroke: #000000"/>
      </g>
     </g>
     <g id="text_12">
      <text style="font: 8.8px 'Futura', sans-serif; text-anchor: end" x="27.979125" y="34.765298" transform="rotate(-0 27.979125 34.765298)">0.5</text>
     </g>
    </g>
    <g id="text_13">
     <text style="font: 9.6px 'Futura', sans-serif; text-anchor: middle" x="7.917" y="78.832098" transform="rotate(-90 7.917 78.832098)">Reflectance</text>
    </g>
   </g>
   <g id="line2d_61">
    <path d="M 37.058145 50.795358 
L 37.837165 52.143685 
L 38.771988 52.078717 
L 39.706812 52.386149 
L 39.862616 52.302229 
L 40.563734 51.684893 
L 41.498558 51.974512 
L 42.121774 52.23026 
L 42.978696 51.631011 
L 43.679813 51.482004 
L 44.225127 51.259102 
L 44.848343 51.282109 
L 45.315755 50.793915 
L 45.783167 51.00589 
L 46.016873 51.196818 
L 46.873795 50.30518 
L 47.574913 49.888885 
L 48.431834 49.584166 
L 48.977148 49.842454 
L 49.44456 49.815653 
L 49.678266 49.871915 
L 50.22358 49.997593 
L 50.379384 49.929938 
L 50.846796 49.621185 
L 51.236306 49.678824 
L 51.78162 49.838928 
L 52.249032 49.813604 
L 52.794345 49.683111 
L 53.417561 49.670539 
L 53.962875 49.792333 
L 54.352385 49.952911 
L 54.819797 50.018115 
L 55.365111 50.085493 
L 55.910425 49.757798 
L 56.299935 49.632641 
L 57.390563 49.050997 
L 58.169582 49.085497 
L 58.636994 48.659673 
L 60.117132 47.9726 
L 60.740348 47.468992 
L 61.908878 46.675198 
L 62.142584 46.6125 
L 62.454191 46.522731 
L 63.077407 45.663021 
L 63.622721 44.925386 
L 64.090133 44.704674 
L 64.401741 44.592192 
L 65.648173 43.116767 
L 67.51782 41.186973 
L 67.985232 40.671768 
L 68.68635 40.183509 
L 69.699076 38.907139 
L 71.335018 37.229301 
L 72.503547 36.030775 
L 73.204665 35.26058 
L 73.516273 34.90216 
L 73.983685 34.467654 
L 74.606901 33.887352 
L 75.230117 33.121439 
L 75.931235 32.5365 
L 76.320744 31.976719 
L 76.476548 31.861494 
L 76.788156 31.877989 
L 77.33347 31.234102 
L 77.567176 31.125155 
L 78.034588 31.59598 
L 78.424098 31.412052 
L 78.735706 31.538038 
L 79.28102 33.324282 
L 79.514726 34.355598 
L 79.982138 42.666853 
L 80.683256 60.358404 
L 81.150667 52.16084 
L 81.773883 36.786121 
L 82.007589 34.108046 
L 82.397099 31.929659 
L 83.409825 29.030969 
L 83.955139 28.046089 
L 85.201571 26.984042 
L 85.435277 26.703437 
L 85.98059 25.879606 
L 87.071218 24.927452 
L 87.460728 24.824021 
L 88.083944 24.911256 
L 88.551356 24.373995 
L 89.330376 24.35442 
L 89.641984 24.078564 
L 90.109396 24.479602 
L 90.888415 24.295575 
L 91.433729 23.531377 
L 91.823239 23.078483 
L 92.446455 22.412636 
L 93.147573 22.268076 
L 94.082397 21.230662 
L 94.627711 20.645626 
L 95.095123 20.179785 
L 95.640436 19.962885 
L 95.952044 19.861307 
L 96.886868 18.798159 
L 98.211202 17.786905 
L 98.756516 17.660494 
L 99.535536 17.075195 
L 100.080849 16.734713 
L 100.937771 16.454347 
L 102.106301 16.253257 
L 102.729517 15.376603 
L 103.119027 15.179031 
L 104.209655 14.955009 
L 104.677066 15.086852 
L 105.22238 14.992619 
L 106.079302 14.47047 
L 107.325734 14.149471 
L 108.33846 14.344282 
L 110.753421 13.925888 
L 111.610343 14.307387 
L 113.402089 15.142842 
L 114.25901 15.5227 
L 114.882226 15.758222 
L 115.739148 15.844775 
L 116.518168 15.926352 
L 117.063482 16.154786 
L 117.7646 16.642066 
L 118.465718 16.217345 
L 119.322639 17.176589 
L 120.101659 17.128145 
L 121.036483 17.708473 
L 121.659699 17.954712 
L 122.438719 18.970834 
L 123.217739 18.832775 
L 125.009484 19.875587 
L 125.866406 20.675467 
L 126.333818 20.911627 
L 127.19074 20.361943 
L 128.670877 18.413922 
L 129.995211 16.132187 
L 130.228917 15.887927 
L 131.319545 15.88392 
L 131.864859 15.884357 
L 132.877584 15.598075 
L 133.578702 15.626289 
L 134.201918 15.849795 
L 135.05884 16.622426 
L 135.682056 17.499742 
L 136.461076 19.782889 
L 137.629605 27.799495 
L 138.174919 31.169983 
L 139.031841 35.163782 
L 139.577155 38.509993 
L 141.213097 54.958842 
L 142.615332 74.733867 
L 143.628058 57.915146 
L 144.251274 46.225453 
L 144.952392 43.959072 
L 146.04302 53.248385 
L 146.588334 58.173736 
L 147.289451 58.761176 
L 148.146373 54.272064 
L 148.847491 53.414008 
L 150.405531 65.909216 
L 151.651962 69.029023 
L 152.041472 70.433951 
L 152.976296 75.919305 
L 153.52161 77.871988 
L 154.534336 75.786292 
L 155.157552 73.965689 
L 155.936572 70.556386 
L 156.715591 70.627603 
L 157.494611 71.793973 
L 158.195729 72.725454 
L 160.922299 75.728388 
L 161.000201 75.642855 
L 164.272084 72.207085 
L 165.28481 71.302534 
L 165.985927 71.513251 
L 170.114733 73.290955 
L 170.114733 73.290955 
" clip-path="url(#p5dc2524fdb)" style="fill: none; stroke: #1f77b4; stroke-width: 0.5; stroke-linecap: square"/>
   </g>
   <g id="line2d_62"/>
   <g id="patch_3">
    <path d="M 36.279125 145.075447 
L 36.279125 12.58875 
" style="fill: none; stroke: #000000; stroke-linejoin: miter; stroke-linecap: square"/>
   </g>
   <g id="patch_4">
    <path d="M 36.279125 145.075447 
L 220.906826 145.075447 
" style="fill: none; stroke: #000000; stroke-linejoin: miter; stroke-linecap: square"/>
   </g>
   <g id="text_14">
    <text style="font: 8px 'Futura', sans-serif; text-anchor: middle" x="128.592975" y="6.58875" transform="rotate(-0 128.592975 6.58875)">Margarite</text>
   </g>
   <g id="legend_1">
    <g id="patch_5">
     <path d="M 228.79938 84.482411 
L 271.657192 84.482411 
Q 272.857192 84.482411 272.857192 83.282411 
L 272.857192 74.381786 
Q 272.857192 73.181786 271.657192 73.181786 
L 228.79938 73.181786 
Q 227.59938 73.181786 227.59938 74.381786 
L 227.59938 83.282411 
Q 227.59938 84.482411 228.79938 84.482411 
z
" style="fill: #ffffff; opacity: 0.8; stroke: #cccccc; stroke-width: 0.8; stroke-linejoin: miter"/>
    </g>
    <g id="line2d_63">
     <path d="M 229.99938 78.429911 
L 235.99938 78.429911 
L 241.99938 78.429911 
" style="fill: none; stroke: #1f77b4; stroke-width: 1.2; stroke-linecap: square"/>
    </g>
    <g id="text_15">
     <text style="font: 6px 'Futura', sans-serif; text-anchor: start" x="246.79938" y="80.529911" transform="rotate(-0 246.79938 80.529911)">GDS106</text>
    </g>
   </g>
  </g>
 </g>
 <defs>
  <clipPath id="p5dc2524fdb">
   <rect x="36.279125" y="12.58875" width="184.627701" height="132.486697"/>
  </clipPath>
 </defs>
</svg>
