<?xml version="1.0" encoding="utf-8" standalone="no"?>
<!DOCTYPE svg PUBLIC "-//W3C//DTD SVG 1.1//EN"
  "http://www.w3.org/Graphics/SVG/1.1/DTD/svg11.dtd">
<svg xmlns:xlink="http://www.w3.org/1999/xlink" width="337.99446pt" height="177.409447pt" viewBox="0 0 337.99446 177.409447" xmlns="http://www.w3.org/2000/svg" version="1.1">
 <metadata>
  <rdf:RDF xmlns:dc="http://purl.org/dc/elements/1.1/" xmlns:cc="http://creativecommons.org/ns#" xmlns:rdf="http://www.w3.org/1999/02/22-rdf-syntax-ns#">
   <cc:Work>
    <dc:type rdf:resource="http://purl.org/dc/dcmitype/StillImage"/>
    <dc:date>2025-02-15T18:14:12.684655</dc:date>
    <dc:format>image/svg+xml</dc:format>
    <dc:creator>
     <cc:Agent>
      <dc:title>Matplotlib v3.6.2, https://matplotlib.org/</dc:title>
     </cc:Agent>
    </dc:creator>
   </cc:Work>
  </rdf:RDF>
 </metadata>
 <defs>
  <style type="text/css">*{stroke-linejoin: round; stroke-linecap: butt}</style>
 </defs>
 <g id="figure_1">
  <g id="patch_1">
   <path d="M 0 177.409447 
L 337.99446 177.409447 
L 337.99446 0 
L 0 0 
z
" style="fill: #ffffff"/>
  </g>
  <g id="axes_1">
   <g id="patch_2">
    <path d="M 41.710375 145.084197 
L 283.821332 145.084197 
L 283.821332 12.5975 
L 41.710375 12.5975 
z
" style="fill: #ffffff"/>
   </g>
   <g id="matplotlib.axis_1">
    <g id="xtick_1">
     <g id="line2d_1">
      <path d="M 58.055419 145.084197 
L 58.055419 12.5975 
" clip-path="url(#p06ef84fe21)" style="fill: none; stroke: #b0b0b0; stroke-width: 0.6; stroke-linecap: square"/>
     </g>
     <g id="line2d_2">
      <defs>
       <path id="m4e9a476398" d="M 0 0 
L 0 4.8 
" style="stroke: #000000"/>
      </defs>
      <g>
       <use xlink:href="#m4e9a476398" x="58.055419" y="145.084197" style="stroke: #000000"/>
      </g>
     </g>
     <g id="text_1">
      <text style="font: 8.8px 'Futura', sans-serif; text-anchor: middle" x="58.055419" y="160.641447" transform="rotate(-0 58.055419 160.641447)">1000</text>
     </g>
    </g>
    <g id="xtick_2">
     <g id="line2d_3">
      <path d="M 109.133679 145.084197 
L 109.133679 12.5975 
" clip-path="url(#p06ef84fe21)" style="fill: none; stroke: #b0b0b0; stroke-width: 0.6; stroke-linecap: square"/>
     </g>
     <g id="line2d_4">
      <g>
       <use xlink:href="#m4e9a476398" x="109.133679" y="145.084197" style="stroke: #000000"/>
      </g>
     </g>
     <g id="text_2">
      <text style="font: 8.8px 'Futura', sans-serif; text-anchor: middle" x="109.133679" y="160.641447" transform="rotate(-0 109.133679 160.641447)">1500</text>
     </g>
    </g>
    <g id="xtick_3">
     <g id="line2d_5">
      <path d="M 160.21194 145.084197 
L 160.21194 12.5975 
" clip-path="url(#p06ef84fe21)" style="fill: none; stroke: #b0b0b0; stroke-width: 0.6; stroke-linecap: square"/>
     </g>
     <g id="line2d_6">
      <g>
       <use xlink:href="#m4e9a476398" x="160.21194" y="145.084197" style="stroke: #000000"/>
      </g>
     </g>
     <g id="text_3">
      <text style="font: 8.8px 'Futura', sans-serif; text-anchor: middle" x="160.21194" y="160.641447" transform="rotate(-0 160.21194 160.641447)">2000</text>
     </g>
    </g>
    <g id="xtick_4">
     <g id="line2d_7">
      <path d="M 211.290201 145.084197 
L 211.290201 12.5975 
" clip-path="url(#p06ef84fe21)" style="fill: none; stroke: #b0b0b0; stroke-width: 0.6; stroke-linecap: square"/>
     </g>
     <g id="line2d_8">
      <g>
       <use xlink:href="#m4e9a476398" x="211.290201" y="145.084197" style="stroke: #000000"/>
      </g>
     </g>
     <g id="text_4">
      <text style="font: 8.8px 'Futura', sans-serif; text-anchor: middle" x="211.290201" y="160.641447" transform="rotate(-0 211.290201 160.641447)">2500</text>
     </g>
    </g>
    <g id="xtick_5">
     <g id="line2d_9">
      <path d="M 262.368462 145.084197 
L 262.368462 12.5975 
" clip-path="url(#p06ef84fe21)" style="fill: none; stroke: #b0b0b0; stroke-width: 0.6; stroke-linecap: square"/>
     </g>
     <g id="line2d_10">
      <g>
       <use xlink:href="#m4e9a476398" x="262.368462" y="145.084197" style="stroke: #000000"/>
      </g>
     </g>
     <g id="text_5">
      <text style="font: 8.8px 'Futura', sans-serif; text-anchor: middle" x="262.368462" y="160.641447" transform="rotate(-0 262.368462 160.641447)">3000</text>
     </g>
    </g>
    <g id="xtick_6">
     <g id="line2d_11">
      <path d="M 47.839766 145.084197 
L 47.839766 12.5975 
" clip-path="url(#p06ef84fe21)" style="fill: none; stroke: #b0b0b0; stroke-width: 0.3; stroke-linecap: square"/>
     </g>
     <g id="line2d_12">
      <defs>
       <path id="m29935903af" d="M 0 0 
L 0 3.2 
" style="stroke: #000000; stroke-width: 0.8"/>
      </defs>
      <g>
       <use xlink:href="#m29935903af" x="47.839766" y="145.084197" style="stroke: #000000; stroke-width: 0.8"/>
      </g>
     </g>
    </g>
    <g id="xtick_7">
     <g id="line2d_13">
      <path d="M 68.271071 145.084197 
L 68.271071 12.5975 
" clip-path="url(#p06ef84fe21)" style="fill: none; stroke: #b0b0b0; stroke-width: 0.3; stroke-linecap: square"/>
     </g>
     <g id="line2d_14">
      <g>
       <use xlink:href="#m29935903af" x="68.271071" y="145.084197" style="stroke: #000000; stroke-width: 0.8"/>
      </g>
     </g>
    </g>
    <g id="xtick_8">
     <g id="line2d_15">
      <path d="M 78.486723 145.084197 
L 78.486723 12.5975 
" clip-path="url(#p06ef84fe21)" style="fill: none; stroke: #b0b0b0; stroke-width: 0.3; stroke-linecap: square"/>
     </g>
     <g id="line2d_16">
      <g>
       <use xlink:href="#m29935903af" x="78.486723" y="145.084197" style="stroke: #000000; stroke-width: 0.8"/>
      </g>
     </g>
    </g>
    <g id="xtick_9">
     <g id="line2d_17">
      <path d="M 88.702375 145.084197 
L 88.702375 12.5975 
" clip-path="url(#p06ef84fe21)" style="fill: none; stroke: #b0b0b0; stroke-width: 0.3; stroke-linecap: square"/>
     </g>
     <g id="line2d_18">
      <g>
       <use xlink:href="#m29935903af" x="88.702375" y="145.084197" style="stroke: #000000; stroke-width: 0.8"/>
      </g>
     </g>
    </g>
    <g id="xtick_10">
     <g id="line2d_19">
      <path d="M 98.918027 145.084197 
L 98.918027 12.5975 
" clip-path="url(#p06ef84fe21)" style="fill: none; stroke: #b0b0b0; stroke-width: 0.3; stroke-linecap: square"/>
     </g>
     <g id="line2d_20">
      <g>
       <use xlink:href="#m29935903af" x="98.918027" y="145.084197" style="stroke: #000000; stroke-width: 0.8"/>
      </g>
     </g>
    </g>
    <g id="xtick_11">
     <g id="line2d_21">
      <path d="M 119.349332 145.084197 
L 119.349332 12.5975 
" clip-path="url(#p06ef84fe21)" style="fill: none; stroke: #b0b0b0; stroke-width: 0.3; stroke-linecap: square"/>
     </g>
     <g id="line2d_22">
      <g>
       <use xlink:href="#m29935903af" x="119.349332" y="145.084197" style="stroke: #000000; stroke-width: 0.8"/>
      </g>
     </g>
    </g>
    <g id="xtick_12">
     <g id="line2d_23">
      <path d="M 129.564984 145.084197 
L 129.564984 12.5975 
" clip-path="url(#p06ef84fe21)" style="fill: none; stroke: #b0b0b0; stroke-width: 0.3; stroke-linecap: square"/>
     </g>
     <g id="line2d_24">
      <g>
       <use xlink:href="#m29935903af" x="129.564984" y="145.084197" style="stroke: #000000; stroke-width: 0.8"/>
      </g>
     </g>
    </g>
    <g id="xtick_13">
     <g id="line2d_25">
      <path d="M 139.780636 145.084197 
L 139.780636 12.5975 
" clip-path="url(#p06ef84fe21)" style="fill: none; stroke: #b0b0b0; stroke-width: 0.3; stroke-linecap: square"/>
     </g>
     <g id="line2d_26">
      <g>
       <use xlink:href="#m29935903af" x="139.780636" y="145.084197" style="stroke: #000000; stroke-width: 0.8"/>
      </g>
     </g>
    </g>
    <g id="xtick_14">
     <g id="line2d_27">
      <path d="M 149.996288 145.084197 
L 149.996288 12.5975 
" clip-path="url(#p06ef84fe21)" style="fill: none; stroke: #b0b0b0; stroke-width: 0.3; stroke-linecap: square"/>
     </g>
     <g id="line2d_28">
      <g>
       <use xlink:href="#m29935903af" x="149.996288" y="145.084197" style="stroke: #000000; stroke-width: 0.8"/>
      </g>
     </g>
    </g>
    <g id="xtick_15">
     <g id="line2d_29">
      <path d="M 170.427593 145.084197 
L 170.427593 12.5975 
" clip-path="url(#p06ef84fe21)" style="fill: none; stroke: #b0b0b0; stroke-width: 0.3; stroke-linecap: square"/>
     </g>
     <g id="line2d_30">
      <g>
       <use xlink:href="#m29935903af" x="170.427593" y="145.084197" style="stroke: #000000; stroke-width: 0.8"/>
      </g>
     </g>
    </g>
    <g id="xtick_16">
     <g id="line2d_31">
      <path d="M 180.643245 145.084197 
L 180.643245 12.5975 
" clip-path="url(#p06ef84fe21)" style="fill: none; stroke: #b0b0b0; stroke-width: 0.3; stroke-linecap: square"/>
     </g>
     <g id="line2d_32">
      <g>
       <use xlink:href="#m29935903af" x="180.643245" y="145.084197" style="stroke: #000000; stroke-width: 0.8"/>
      </g>
     </g>
    </g>
    <g id="xtick_17">
     <g id="line2d_33">
      <path d="M 190.858897 145.084197 
L 190.858897 12.5975 
" clip-path="url(#p06ef84fe21)" style="fill: none; stroke: #b0b0b0; stroke-width: 0.3; stroke-linecap: square"/>
     </g>
     <g id="line2d_34">
      <g>
       <use xlink:href="#m29935903af" x="190.858897" y="145.084197" style="stroke: #000000; stroke-width: 0.8"/>
      </g>
     </g>
    </g>
    <g id="xtick_18">
     <g id="line2d_35">
      <path d="M 201.074549 145.084197 
L 201.074549 12.5975 
" clip-path="url(#p06ef84fe21)" style="fill: none; stroke: #b0b0b0; stroke-width: 0.3; stroke-linecap: square"/>
     </g>
     <g id="line2d_36">
      <g>
       <use xlink:href="#m29935903af" x="201.074549" y="145.084197" style="stroke: #000000; stroke-width: 0.8"/>
      </g>
     </g>
    </g>
    <g id="xtick_19">
     <g id="line2d_37">
      <path d="M 221.505854 145.084197 
L 221.505854 12.5975 
" clip-path="url(#p06ef84fe21)" style="fill: none; stroke: #b0b0b0; stroke-width: 0.3; stroke-linecap: square"/>
     </g>
     <g id="line2d_38">
      <g>
       <use xlink:href="#m29935903af" x="221.505854" y="145.084197" style="stroke: #000000; stroke-width: 0.8"/>
      </g>
     </g>
    </g>
    <g id="xtick_20">
     <g id="line2d_39">
      <path d="M 231.721506 145.084197 
L 231.721506 12.5975 
" clip-path="url(#p06ef84fe21)" style="fill: none; stroke: #b0b0b0; stroke-width: 0.3; stroke-linecap: square"/>
     </g>
     <g id="line2d_40">
      <g>
       <use xlink:href="#m29935903af" x="231.721506" y="145.084197" style="stroke: #000000; stroke-width: 0.8"/>
      </g>
     </g>
    </g>
    <g id="xtick_21">
     <g id="line2d_41">
      <path d="M 241.937158 145.084197 
L 241.937158 12.5975 
" clip-path="url(#p06ef84fe21)" style="fill: none; stroke: #b0b0b0; stroke-width: 0.3; stroke-linecap: square"/>
     </g>
     <g id="line2d_42">
      <g>
       <use xlink:href="#m29935903af" x="241.937158" y="145.084197" style="stroke: #000000; stroke-width: 0.8"/>
      </g>
     </g>
    </g>
    <g id="xtick_22">
     <g id="line2d_43">
      <path d="M 252.15281 145.084197 
L 252.15281 12.5975 
" clip-path="url(#p06ef84fe21)" style="fill: none; stroke: #b0b0b0; stroke-width: 0.3; stroke-linecap: square"/>
     </g>
     <g id="line2d_44">
      <g>
       <use xlink:href="#m29935903af" x="252.15281" y="145.084197" style="stroke: #000000; stroke-width: 0.8"/>
      </g>
     </g>
    </g>
    <g id="xtick_23">
     <g id="line2d_45">
      <path d="M 272.584115 145.084197 
L 272.584115 12.5975 
" clip-path="url(#p06ef84fe21)" style="fill: none; stroke: #b0b0b0; stroke-width: 0.3; stroke-linecap: square"/>
     </g>
     <g id="line2d_46">
      <g>
       <use xlink:href="#m29935903af" x="272.584115" y="145.084197" style="stroke: #000000; stroke-width: 0.8"/>
      </g>
     </g>
    </g>
    <g id="xtick_24">
     <g id="line2d_47">
      <path d="M 282.799767 145.084197 
L 282.799767 12.5975 
" clip-path="url(#p06ef84fe21)" style="fill: none; stroke: #b0b0b0; stroke-width: 0.3; stroke-linecap: square"/>
     </g>
     <g id="line2d_48">
      <g>
       <use xlink:href="#m29935903af" x="282.799767" y="145.084197" style="stroke: #000000; stroke-width: 0.8"/>
      </g>
     </g>
    </g>
    <g id="text_6">
     <text style="font: 9.6px 'Futura', sans-serif; text-anchor: middle" x="162.765854" y="174.914947" transform="rotate(-0 162.765854 174.914947)">Wavelength (nm)</text>
    </g>
   </g>
   <g id="matplotlib.axis_2">
    <g id="ytick_1">
     <g id="line2d_49">
      <defs>
       <path id="md6178ebbc0" d="M 0 0 
L -4.8 0 
" style="stroke: #000000"/>
      </defs>
      <g>
       <use xlink:href="#md6178ebbc0" x="41.710375" y="145.084197" style="stroke: #000000"/>
      </g>
     </g>
     <g id="text_7">
      <text style="font: 8.8px 'Futura', sans-serif; text-anchor: end" x="33.410375" y="148.712822" transform="rotate(-0 33.410375 148.712822)">0.00</text>
     </g>
    </g>
    <g id="ytick_2">
     <g id="line2d_50">
      <g>
       <use xlink:href="#md6178ebbc0" x="41.710375" y="123.476265" style="stroke: #000000"/>
      </g>
     </g>
     <g id="text_8">
      <text style="font: 8.8px 'Futura', sans-serif; text-anchor: end" x="33.410375" y="127.10489" transform="rotate(-0 33.410375 127.10489)">0.25</text>
     </g>
    </g>
    <g id="ytick_3">
     <g id="line2d_51">
      <g>
       <use xlink:href="#md6178ebbc0" x="41.710375" y="101.868334" style="stroke: #000000"/>
      </g>
     </g>
     <g id="text_9">
      <text style="font: 8.8px 'Futura', sans-serif; text-anchor: end" x="33.410375" y="105.496959" transform="rotate(-0 33.410375 105.496959)">0.50</text>
     </g>
    </g>
    <g id="ytick_4">
     <g id="line2d_52">
      <g>
       <use xlink:href="#md6178ebbc0" x="41.710375" y="80.260402" style="stroke: #000000"/>
      </g>
     </g>
     <g id="text_10">
      <text style="font: 8.8px 'Futura', sans-serif; text-anchor: end" x="33.410375" y="83.889027" transform="rotate(-0 33.410375 83.889027)">0.75</text>
     </g>
    </g>
    <g id="ytick_5">
     <g id="line2d_53">
      <g>
       <use xlink:href="#md6178ebbc0" x="41.710375" y="58.65247" style="stroke: #000000"/>
      </g>
     </g>
     <g id="text_11">
      <text style="font: 8.8px 'Futura', sans-serif; text-anchor: end" x="33.410375" y="62.281095" transform="rotate(-0 33.410375 62.281095)">1.00</text>
     </g>
    </g>
    <g id="ytick_6">
     <g id="line2d_54">
      <g>
       <use xlink:href="#md6178ebbc0" x="41.710375" y="37.044539" style="stroke: #000000"/>
      </g>
     </g>
     <g id="text_12">
      <text style="font: 8.8px 'Futura', sans-serif; text-anchor: end" x="33.410375" y="40.673164" transform="rotate(-0 33.410375 40.673164)">1.25</text>
     </g>
    </g>
    <g id="ytick_7">
     <g id="line2d_55">
      <g>
       <use xlink:href="#md6178ebbc0" x="41.710375" y="15.436607" style="stroke: #000000"/>
      </g>
     </g>
     <g id="text_13">
      <text style="font: 8.8px 'Futura', sans-serif; text-anchor: end" x="33.410375" y="19.065232" transform="rotate(-0 33.410375 19.065232)">1.50</text>
     </g>
    </g>
    <g id="text_14">
     <text style="font: 9.6px 'Futura', sans-serif; text-anchor: middle" x="7.917" y="78.840848" transform="rotate(-90 7.917 78.840848)">Stacked Reflectance</text>
    </g>
   </g>
   <g id="line2d_56">
    <path d="M 42.73194 97.755571 
L 43.855662 98.261976 
L 45.38801 98.297523 
L 46.307418 98.357182 
L 47.533297 98.10579 
L 49.985053 98.15642 
L 51.108775 98.043131 
L 54.275627 97.859562 
L 54.582097 97.871958 
L 56.012288 97.477253 
L 57.851105 97.338652 
L 58.668358 97.39811 
L 59.894236 97.450838 
L 60.405019 97.371707 
L 61.017958 97.304347 
L 61.83521 97.385444 
L 63.674027 97.347319 
L 65.002062 97.396232 
L 65.717158 97.432451 
L 66.943036 97.439596 
L 68.066758 97.296429 
L 69.701262 97.109909 
L 70.518514 97.072515 
L 71.335766 96.91039 
L 73.174584 96.623222 
L 74.298306 96.392273 
L 75.830653 96.168992 
L 76.239279 96.067094 
L 78.384566 95.442825 
L 78.691036 95.36402 
L 80.63201 94.738727 
L 82.062201 94.368848 
L 83.390236 93.899653 
L 84.411801 93.646071 
L 85.841992 93.166239 
L 86.557088 92.898533 
L 87.272184 92.666258 
L 88.498062 92.395892 
L 89.621784 91.997777 
L 90.847662 91.630133 
L 92.38001 91.181454 
L 94.627453 90.577269 
L 95.036079 90.493729 
L 95.751175 90.308629 
L 96.057645 90.374458 
L 96.466271 90.473434 
L 97.181366 90.427565 
L 97.487836 90.534803 
L 98.202932 91.259352 
L 98.407245 91.52013 
L 99.020184 94.672508 
L 99.837436 100.736357 
L 99.939593 101.382741 
L 100.552532 98.273485 
L 101.267627 93.031016 
L 101.574097 91.639614 
L 102.187036 90.599995 
L 103.617227 89.437313 
L 104.332323 89.098312 
L 108.929366 87.909884 
L 109.848775 87.855785 
L 110.359558 87.735926 
L 111.585436 87.648309 
L 111.891906 87.684426 
L 112.504845 87.767111 
L 113.424253 87.65124 
L 114.139349 87.388953 
L 123.129123 85.23094 
L 124.048532 85.110725 
L 125.989506 84.769972 
L 128.339106 84.50023 
L 128.952045 84.296225 
L 129.871453 84.1803 
L 130.688706 84.145418 
L 131.710271 84.205191 
L 133.038306 84.003453 
L 134.774967 83.847326 
L 136.613784 83.905998 
L 139.882793 83.824766 
L 145.194932 84.491558 
L 148.361784 84.79412 
L 148.668253 84.783662 
L 149.689819 84.714134 
L 150.711384 84.999804 
L 151.937262 85.052191 
L 153.265297 85.23446 
L 153.878236 85.386752 
L 154.797645 85.677325 
L 156.023523 85.678254 
L 158.373123 86.127351 
L 159.599001 86.415141 
L 160.007627 86.390733 
L 161.233506 86.103802 
L 163.17448 85.304952 
L 164.808984 84.5183 
L 170.018967 84.478208 
L 171.755627 84.977833 
L 172.26641 85.277959 
L 173.083662 85.992844 
L 174.513854 88.805778 
L 175.228949 90.189309 
L 176.454827 91.826666 
L 177.169923 93.095852 
L 179.31521 99.334739 
L 181.051871 106.44142 
L 181.154027 106.835213 
L 182.482062 100.456037 
L 183.299314 96.02225 
L 184.218723 95.162634 
L 185.546758 98.378749 
L 186.36401 100.554117 
L 187.283419 100.776928 
L 188.407141 99.074251 
L 189.326549 98.748799 
L 191.267523 103.266115 
L 191.471836 103.555894 
L 193.208497 104.83991 
L 193.514967 105.204297 
L 194.638688 107.179037 
L 195.455941 108.025472 
L 196.988288 107.078107 
L 197.703384 106.400315 
L 198.622793 105.250735 
L 199.746514 105.316054 
L 204.854341 107.114021 
L 205.262967 107.179983 
L 210.779419 105.529475 
L 212.618236 105.714231 
L 217.21528 106.287931 
L 217.21528 106.287931 
" clip-path="url(#p06ef84fe21)" style="fill: none; stroke: #1f77b4; stroke-width: 0.5; stroke-linecap: square"/>
   </g>
   <g id="line2d_57">
    <path d="M 42.73194 33.235556 
L 43.549192 33.512397 
L 44.162132 33.47613 
L 44.775071 33.499088 
L 45.38801 33.576114 
L 45.898792 33.471567 
L 46.511732 33.637724 
L 49.78074 33.641423 
L 50.189366 33.602424 
L 50.700149 33.614352 
L 51.108775 33.595545 
L 51.823871 33.532484 
L 52.743279 33.452465 
L 62.550305 32.853769 
L 65.308532 32.855102 
L 65.819314 32.748013 
L 66.432253 32.840771 
L 70.212045 32.34868 
L 71.23361 32.265308 
L 71.540079 32.235247 
L 76.852219 30.961658 
L 77.465158 30.673806 
L 78.691036 30.400699 
L 79.814758 29.950251 
L 80.223384 29.801797 
L 81.142792 29.60812 
L 82.164358 29.247371 
L 82.879453 29.017654 
L 83.696706 28.726933 
L 84.820427 28.383797 
L 85.33121 28.220339 
L 85.841992 28.01904 
L 86.557088 27.817653 
L 89.928253 26.581852 
L 90.643349 26.414381 
L 92.07354 25.814943 
L 92.584323 25.60533 
L 92.992949 25.58991 
L 93.401575 25.584965 
L 93.912358 25.384305 
L 94.42314 25.392844 
L 95.546862 24.821775 
L 96.670584 24.683051 
L 96.874897 24.739232 
L 97.487836 24.222438 
L 97.998619 24.435216 
L 98.815871 25.101917 
L 99.633123 25.50156 
L 100.552532 25.837053 
L 101.165471 25.31127 
L 102.799975 23.445676 
L 103.719384 23.04109 
L 105.864671 22.209912 
L 106.17114 22.111795 
L 106.886236 21.699775 
L 107.703488 21.51282 
L 108.418584 21.239404 
L 108.82721 21.101979 
L 109.337993 20.964862 
L 110.053088 20.710889 
L 110.87034 20.421674 
L 111.687593 20.278836 
L 112.300532 20.217312 
L 113.322097 19.679777 
L 114.037193 19.563527 
L 114.650132 19.464478 
L 115.058758 19.345805 
L 115.87601 19.154826 
L 116.897575 18.934873 
L 117.612671 18.664497 
L 119.145019 18.328866 
L 119.553645 18.315659 
L 119.962271 18.310716 
L 120.57521 17.945733 
L 121.290306 17.897936 
L 121.698932 17.822394 
L 122.311871 17.775686 
L 122.61834 17.686592 
L 123.639906 17.335629 
L 124.252845 17.240258 
L 124.661471 17.190267 
L 125.27441 17.147898 
L 125.989506 17.099702 
L 126.704601 17.151684 
L 128.134793 16.865368 
L 128.747732 16.808911 
L 129.462827 16.642188 
L 129.871453 16.500146 
L 130.382236 16.39819 
L 131.505958 16.239084 
L 132.731836 16.143717 
L 133.344775 16.045461 
L 133.957714 15.85768 
L 134.468497 15.909056 
L 134.774967 15.924303 
L 135.796532 15.689862 
L 142.232393 14.915575 
L 142.436706 14.888141 
L 143.151801 14.576951 
L 143.458271 14.571714 
L 144.173367 14.760704 
L 144.990619 14.7187 
L 146.625123 14.550022 
L 146.931593 14.320234 
L 147.646688 15.376047 
L 148.157471 15.625162 
L 148.566097 15.787705 
L 149.179036 16.61036 
L 150.404914 18.959007 
L 150.711384 19.403647 
L 151.017853 19.718327 
L 152.856671 18.493935 
L 154.695488 17.580851 
L 155.717054 17.265222 
L 156.329993 17.079187 
L 156.738619 17.013567 
L 157.453714 16.650586 
L 161.131349 15.457244 
L 161.846445 15.208301 
L 164.093888 14.623229 
L 164.502514 14.497453 
L 165.013297 14.349325 
L 165.52408 14.294302 
L 165.932706 14.219885 
L 166.443488 14.288287 
L 167.056427 14.163411 
L 167.87368 14.137688 
L 168.588775 13.912776 
L 169.303871 13.993882 
L 170.325436 14.092382 
L 172.981506 14.223515 
L 173.696601 14.026623 
L 176.556984 14.277707 
L 177.374236 14.600963 
L 178.702271 15.532854 
L 181.97128 19.863757 
L 182.379906 20.192474 
L 182.890688 20.338992 
L 183.299314 20.255948 
L 183.912254 19.694143 
L 184.627349 18.905505 
L 184.933819 18.724776 
L 186.67048 17.896189 
L 187.283419 17.336785 
L 188.100671 16.552228 
L 189.530862 15.723902 
L 190.756741 15.939219 
L 191.36968 16.253453 
L 192.595558 17.407955 
L 195.76241 20.497768 
L 196.375349 20.704443 
L 196.579662 20.689594 
L 197.907697 20.292768 
L 199.337888 19.933212 
L 199.848671 19.906522 
L 201.074549 19.798102 
L 201.891801 19.988476 
L 202.606897 20.077362 
L 204.445714 21.392475 
L 205.262967 21.787327 
L 206.897471 22.021594 
L 207.408254 21.949491 
L 207.81688 21.836786 
L 208.838445 22.018047 
L 209.655697 21.916822 
L 211.188045 22.00211 
L 211.392358 21.977218 
L 212.20961 21.748485 
L 213.026862 21.718079 
L 213.435488 21.783873 
L 214.048428 21.606961 
L 216.704497 21.706912 
L 218.849784 22.181337 
L 220.279975 22.580752 
L 220.586445 22.630418 
L 220.790758 22.69396 
L 221.097228 22.976765 
L 221.301541 22.683743 
L 221.505854 22.826748 
L 221.91448 23.096611 
L 223.344671 23.28961 
L 223.548984 23.231314 
L 223.753297 23.302332 
L 223.95761 23.226005 
L 224.366236 23.389814 
L 224.570549 23.365777 
L 224.774862 23.40244 
L 224.979175 23.344286 
L 226.409367 23.676269 
L 226.715836 23.793177 
L 228.146028 24.873158 
L 228.861123 25.948356 
L 229.167593 26.595493 
L 229.678375 27.779851 
L 230.087001 28.928764 
L 230.597784 30.975406 
L 233.35601 45.645395 
L 234.990515 56.307425 
L 235.603454 58.647041 
L 236.318549 60.517239 
L 237.340115 62.353608 
L 237.850897 62.922276 
L 238.259523 63.097058 
L 238.770306 63.014441 
L 239.281088 62.756751 
L 239.689715 62.281181 
L 240.506967 60.781406 
L 242.856567 55.480912 
L 246.125575 47.690657 
L 247.45361 45.495926 
L 248.168706 44.707034 
L 248.781645 44.270817 
L 249.598897 43.961129 
L 250.518306 43.772592 
L 256.239071 43.389918 
L 258.282202 43.033297 
L 259.610236 42.817605 
L 261.040428 42.660649 
L 265.433158 42.459383 
L 266.046097 42.456307 
L 267.476289 42.310367 
L 268.60001 42.172803 
L 272.686271 41.434455 
L 282.288984 38.677529 
L 282.69761 38.548492 
L 282.69761 38.548492 
" clip-path="url(#p06ef84fe21)" style="fill: none; stroke-dasharray: 2,0.75; stroke-dashoffset: 0; stroke: #ff7f0e; stroke-width: 0.5"/>
   </g>
   <g id="line2d_58"/>
   <g id="line2d_59"/>
   <g id="patch_3">
    <path d="M 41.710375 145.084197 
L 41.710375 12.5975 
" style="fill: none; stroke: #000000; stroke-linejoin: miter; stroke-linecap: square"/>
   </g>
   <g id="patch_4">
    <path d="M 41.710375 145.084197 
L 283.821332 145.084197 
" style="fill: none; stroke: #000000; stroke-linejoin: miter; stroke-linecap: square"/>
   </g>
   <g id="text_15">
    <text style="font: 6px 'Futura', sans-serif; text-anchor: start" x="284.842897" y="107.979181" transform="rotate(-0 284.842897 107.979181)">Margarite GDS106</text>
   </g>
   <g id="text_16">
    <text style="fill: #1f77b4; font: 7px 'Futura', sans-serif; text-anchor: start" x="284.842897" y="92.171373" transform="rotate(-0 284.842897 92.171373)">Margarite</text>
   </g>
   <g id="text_17">
    <text style="font: 6px 'Futura', sans-serif; text-anchor: start" x="284.842897" y="40.246304" transform="rotate(-0 284.842897 40.246304)">Illite LAIL02</text>
   </g>
   <g id="text_18">
    <text style="fill: #ff7f0e; font: 7px 'Futura', sans-serif; text-anchor: start" x="284.842897" y="24.439591" transform="rotate(-0 284.842897 24.439591)">Illite</text>
   </g>
   <g id="text_19">
    <text style="font: 8px 'Futura', sans-serif; text-anchor: middle" x="162.765854" y="6.5975" transform="rotate(-0 162.765854 6.5975)">Micas Stacked</text>
   </g>
  </g>
 </g>
 <defs>
  <clipPath id="p06ef84fe21">
   <rect x="41.710375" y="12.5975" width="242.110957" height="132.486697"/>
  </clipPath>
 </defs>
</svg>
