<?xml version="1.0" encoding="utf-8" standalone="no"?>
<!DOCTYPE svg PUBLIC "-//W3C//DTD SVG 1.1//EN"
  "http://www.w3.org/Graphics/SVG/1.1/DTD/svg11.dtd">
<svg xmlns:xlink="http://www.w3.org/1999/xlink" width="332.432525pt" height="177.409447pt" viewBox="0 0 332.432525 177.409447" xmlns="http://www.w3.org/2000/svg" version="1.1">
 <metadata>
  <rdf:RDF xmlns:dc="http://purl.org/dc/elements/1.1/" xmlns:cc="http://creativecommons.org/ns#" xmlns:rdf="http://www.w3.org/1999/02/22-rdf-syntax-ns#">
   <cc:Work>
    <dc:type rdf:resource="http://purl.org/dc/dcmitype/StillImage"/>
    <dc:date>2025-02-15T18:13:58.958886</dc:date>
    <dc:format>image/svg+xml</dc:format>
    <dc:creator>
     <cc:Agent>
      <dc:title>Matplotlib v3.6.2, https://matplotlib.org/</dc:title>
     </cc:Agent>
    </dc:creator>
   </cc:Work>
  </rdf:RDF>
 </metadata>
 <defs>
  <style type="text/css">*{stroke-linejoin: round; stroke-linecap: butt}</style>
 </defs>
 <g id="figure_1">
  <g id="patch_1">
   <path d="M 0 177.409447 
L 332.432525 177.409447 
L 332.432525 0 
L 0 0 
z
" style="fill: #ffffff"/>
  </g>
  <g id="axes_1">
   <g id="patch_2">
    <path d="M 28.13225 145.084197 
L 260.823207 145.084197 
L 260.823207 12.5975 
L 28.13225 12.5975 
z
" style="fill: #ffffff"/>
   </g>
   <g id="matplotlib.axis_1">
    <g id="xtick_1">
     <g id="line2d_1">
      <path d="M 43.841344 145.084197 
L 43.841344 12.5975 
" clip-path="url(#p1dde419208)" style="fill: none; stroke: #b0b0b0; stroke-width: 0.6; stroke-linecap: square"/>
     </g>
     <g id="line2d_2">
      <defs>
       <path id="mdd08db0443" d="M 0 0 
L 0 4.8 
" style="stroke: #000000"/>
      </defs>
      <g>
       <use xlink:href="#mdd08db0443" x="43.841344" y="145.084197" style="stroke: #000000"/>
      </g>
     </g>
     <g id="text_1">
      <text style="font: 8.8px 'Futura', sans-serif; text-anchor: middle" x="43.841344" y="160.641447" transform="rotate(-0 43.841344 160.641447)">1000</text>
     </g>
    </g>
    <g id="xtick_2">
     <g id="line2d_3">
      <path d="M 92.932263 145.084197 
L 92.932263 12.5975 
" clip-path="url(#p1dde419208)" style="fill: none; stroke: #b0b0b0; stroke-width: 0.6; stroke-linecap: square"/>
     </g>
     <g id="line2d_4">
      <g>
       <use xlink:href="#mdd08db0443" x="92.932263" y="145.084197" style="stroke: #000000"/>
      </g>
     </g>
     <g id="text_2">
      <text style="font: 8.8px 'Futura', sans-serif; text-anchor: middle" x="92.932263" y="160.641447" transform="rotate(-0 92.932263 160.641447)">1500</text>
     </g>
    </g>
    <g id="xtick_3">
     <g id="line2d_5">
      <path d="M 142.023183 145.084197 
L 142.023183 12.5975 
" clip-path="url(#p1dde419208)" style="fill: none; stroke: #b0b0b0; stroke-width: 0.6; stroke-linecap: square"/>
     </g>
     <g id="line2d_6">
      <g>
       <use xlink:href="#mdd08db0443" x="142.023183" y="145.084197" style="stroke: #000000"/>
      </g>
     </g>
     <g id="text_3">
      <text style="font: 8.8px 'Futura', sans-serif; text-anchor: middle" x="142.023183" y="160.641447" transform="rotate(-0 142.023183 160.641447)">2000</text>
     </g>
    </g>
    <g id="xtick_4">
     <g id="line2d_7">
      <path d="M 191.114102 145.084197 
L 191.114102 12.5975 
" clip-path="url(#p1dde419208)" style="fill: none; stroke: #b0b0b0; stroke-width: 0.6; stroke-linecap: square"/>
     </g>
     <g id="line2d_8">
      <g>
       <use xlink:href="#mdd08db0443" x="191.114102" y="145.084197" style="stroke: #000000"/>
      </g>
     </g>
     <g id="text_4">
      <text style="font: 8.8px 'Futura', sans-serif; text-anchor: middle" x="191.114102" y="160.641447" transform="rotate(-0 191.114102 160.641447)">2500</text>
     </g>
    </g>
    <g id="xtick_5">
     <g id="line2d_9">
      <path d="M 240.205021 145.084197 
L 240.205021 12.5975 
" clip-path="url(#p1dde419208)" style="fill: none; stroke: #b0b0b0; stroke-width: 0.6; stroke-linecap: square"/>
     </g>
     <g id="line2d_10">
      <g>
       <use xlink:href="#mdd08db0443" x="240.205021" y="145.084197" style="stroke: #000000"/>
      </g>
     </g>
     <g id="text_5">
      <text style="font: 8.8px 'Futura', sans-serif; text-anchor: middle" x="240.205021" y="160.641447" transform="rotate(-0 240.205021 160.641447)">3000</text>
     </g>
    </g>
    <g id="xtick_6">
     <g id="line2d_11">
      <path d="M 34.02316 145.084197 
L 34.02316 12.5975 
" clip-path="url(#p1dde419208)" style="fill: none; stroke: #b0b0b0; stroke-width: 0.3; stroke-linecap: square"/>
     </g>
     <g id="line2d_12">
      <defs>
       <path id="m2de507c1ea" d="M 0 0 
L 0 3.2 
" style="stroke: #000000; stroke-width: 0.8"/>
      </defs>
      <g>
       <use xlink:href="#m2de507c1ea" x="34.02316" y="145.084197" style="stroke: #000000; stroke-width: 0.8"/>
      </g>
     </g>
    </g>
    <g id="xtick_7">
     <g id="line2d_13">
      <path d="M 53.659528 145.084197 
L 53.659528 12.5975 
" clip-path="url(#p1dde419208)" style="fill: none; stroke: #b0b0b0; stroke-width: 0.3; stroke-linecap: square"/>
     </g>
     <g id="line2d_14">
      <g>
       <use xlink:href="#m2de507c1ea" x="53.659528" y="145.084197" style="stroke: #000000; stroke-width: 0.8"/>
      </g>
     </g>
    </g>
    <g id="xtick_8">
     <g id="line2d_15">
      <path d="M 63.477712 145.084197 
L 63.477712 12.5975 
" clip-path="url(#p1dde419208)" style="fill: none; stroke: #b0b0b0; stroke-width: 0.3; stroke-linecap: square"/>
     </g>
     <g id="line2d_16">
      <g>
       <use xlink:href="#m2de507c1ea" x="63.477712" y="145.084197" style="stroke: #000000; stroke-width: 0.8"/>
      </g>
     </g>
    </g>
    <g id="xtick_9">
     <g id="line2d_17">
      <path d="M 73.295896 145.084197 
L 73.295896 12.5975 
" clip-path="url(#p1dde419208)" style="fill: none; stroke: #b0b0b0; stroke-width: 0.3; stroke-linecap: square"/>
     </g>
     <g id="line2d_18">
      <g>
       <use xlink:href="#m2de507c1ea" x="73.295896" y="145.084197" style="stroke: #000000; stroke-width: 0.8"/>
      </g>
     </g>
    </g>
    <g id="xtick_10">
     <g id="line2d_19">
      <path d="M 83.11408 145.084197 
L 83.11408 12.5975 
" clip-path="url(#p1dde419208)" style="fill: none; stroke: #b0b0b0; stroke-width: 0.3; stroke-linecap: square"/>
     </g>
     <g id="line2d_20">
      <g>
       <use xlink:href="#m2de507c1ea" x="83.11408" y="145.084197" style="stroke: #000000; stroke-width: 0.8"/>
      </g>
     </g>
    </g>
    <g id="xtick_11">
     <g id="line2d_21">
      <path d="M 102.750447 145.084197 
L 102.750447 12.5975 
" clip-path="url(#p1dde419208)" style="fill: none; stroke: #b0b0b0; stroke-width: 0.3; stroke-linecap: square"/>
     </g>
     <g id="line2d_22">
      <g>
       <use xlink:href="#m2de507c1ea" x="102.750447" y="145.084197" style="stroke: #000000; stroke-width: 0.8"/>
      </g>
     </g>
    </g>
    <g id="xtick_12">
     <g id="line2d_23">
      <path d="M 112.568631 145.084197 
L 112.568631 12.5975 
" clip-path="url(#p1dde419208)" style="fill: none; stroke: #b0b0b0; stroke-width: 0.3; stroke-linecap: square"/>
     </g>
     <g id="line2d_24">
      <g>
       <use xlink:href="#m2de507c1ea" x="112.568631" y="145.084197" style="stroke: #000000; stroke-width: 0.8"/>
      </g>
     </g>
    </g>
    <g id="xtick_13">
     <g id="line2d_25">
      <path d="M 122.386815 145.084197 
L 122.386815 12.5975 
" clip-path="url(#p1dde419208)" style="fill: none; stroke: #b0b0b0; stroke-width: 0.3; stroke-linecap: square"/>
     </g>
     <g id="line2d_26">
      <g>
       <use xlink:href="#m2de507c1ea" x="122.386815" y="145.084197" style="stroke: #000000; stroke-width: 0.8"/>
      </g>
     </g>
    </g>
    <g id="xtick_14">
     <g id="line2d_27">
      <path d="M 132.204999 145.084197 
L 132.204999 12.5975 
" clip-path="url(#p1dde419208)" style="fill: none; stroke: #b0b0b0; stroke-width: 0.3; stroke-linecap: square"/>
     </g>
     <g id="line2d_28">
      <g>
       <use xlink:href="#m2de507c1ea" x="132.204999" y="145.084197" style="stroke: #000000; stroke-width: 0.8"/>
      </g>
     </g>
    </g>
    <g id="xtick_15">
     <g id="line2d_29">
      <path d="M 151.841366 145.084197 
L 151.841366 12.5975 
" clip-path="url(#p1dde419208)" style="fill: none; stroke: #b0b0b0; stroke-width: 0.3; stroke-linecap: square"/>
     </g>
     <g id="line2d_30">
      <g>
       <use xlink:href="#m2de507c1ea" x="151.841366" y="145.084197" style="stroke: #000000; stroke-width: 0.8"/>
      </g>
     </g>
    </g>
    <g id="xtick_16">
     <g id="line2d_31">
      <path d="M 161.65955 145.084197 
L 161.65955 12.5975 
" clip-path="url(#p1dde419208)" style="fill: none; stroke: #b0b0b0; stroke-width: 0.3; stroke-linecap: square"/>
     </g>
     <g id="line2d_32">
      <g>
       <use xlink:href="#m2de507c1ea" x="161.65955" y="145.084197" style="stroke: #000000; stroke-width: 0.8"/>
      </g>
     </g>
    </g>
    <g id="xtick_17">
     <g id="line2d_33">
      <path d="M 171.477734 145.084197 
L 171.477734 12.5975 
" clip-path="url(#p1dde419208)" style="fill: none; stroke: #b0b0b0; stroke-width: 0.3; stroke-linecap: square"/>
     </g>
     <g id="line2d_34">
      <g>
       <use xlink:href="#m2de507c1ea" x="171.477734" y="145.084197" style="stroke: #000000; stroke-width: 0.8"/>
      </g>
     </g>
    </g>
    <g id="xtick_18">
     <g id="line2d_35">
      <path d="M 181.295918 145.084197 
L 181.295918 12.5975 
" clip-path="url(#p1dde419208)" style="fill: none; stroke: #b0b0b0; stroke-width: 0.3; stroke-linecap: square"/>
     </g>
     <g id="line2d_36">
      <g>
       <use xlink:href="#m2de507c1ea" x="181.295918" y="145.084197" style="stroke: #000000; stroke-width: 0.8"/>
      </g>
     </g>
    </g>
    <g id="xtick_19">
     <g id="line2d_37">
      <path d="M 200.932286 145.084197 
L 200.932286 12.5975 
" clip-path="url(#p1dde419208)" style="fill: none; stroke: #b0b0b0; stroke-width: 0.3; stroke-linecap: square"/>
     </g>
     <g id="line2d_38">
      <g>
       <use xlink:href="#m2de507c1ea" x="200.932286" y="145.084197" style="stroke: #000000; stroke-width: 0.8"/>
      </g>
     </g>
    </g>
    <g id="xtick_20">
     <g id="line2d_39">
      <path d="M 210.750469 145.084197 
L 210.750469 12.5975 
" clip-path="url(#p1dde419208)" style="fill: none; stroke: #b0b0b0; stroke-width: 0.3; stroke-linecap: square"/>
     </g>
     <g id="line2d_40">
      <g>
       <use xlink:href="#m2de507c1ea" x="210.750469" y="145.084197" style="stroke: #000000; stroke-width: 0.8"/>
      </g>
     </g>
    </g>
    <g id="xtick_21">
     <g id="line2d_41">
      <path d="M 220.568653 145.084197 
L 220.568653 12.5975 
" clip-path="url(#p1dde419208)" style="fill: none; stroke: #b0b0b0; stroke-width: 0.3; stroke-linecap: square"/>
     </g>
     <g id="line2d_42">
      <g>
       <use xlink:href="#m2de507c1ea" x="220.568653" y="145.084197" style="stroke: #000000; stroke-width: 0.8"/>
      </g>
     </g>
    </g>
    <g id="xtick_22">
     <g id="line2d_43">
      <path d="M 230.386837 145.084197 
L 230.386837 12.5975 
" clip-path="url(#p1dde419208)" style="fill: none; stroke: #b0b0b0; stroke-width: 0.3; stroke-linecap: square"/>
     </g>
     <g id="line2d_44">
      <g>
       <use xlink:href="#m2de507c1ea" x="230.386837" y="145.084197" style="stroke: #000000; stroke-width: 0.8"/>
      </g>
     </g>
    </g>
    <g id="xtick_23">
     <g id="line2d_45">
      <path d="M 250.023205 145.084197 
L 250.023205 12.5975 
" clip-path="url(#p1dde419208)" style="fill: none; stroke: #b0b0b0; stroke-width: 0.3; stroke-linecap: square"/>
     </g>
     <g id="line2d_46">
      <g>
       <use xlink:href="#m2de507c1ea" x="250.023205" y="145.084197" style="stroke: #000000; stroke-width: 0.8"/>
      </g>
     </g>
    </g>
    <g id="xtick_24">
     <g id="line2d_47">
      <path d="M 259.841389 145.084197 
L 259.841389 12.5975 
" clip-path="url(#p1dde419208)" style="fill: none; stroke: #b0b0b0; stroke-width: 0.3; stroke-linecap: square"/>
     </g>
     <g id="line2d_48">
      <g>
       <use xlink:href="#m2de507c1ea" x="259.841389" y="145.084197" style="stroke: #000000; stroke-width: 0.8"/>
      </g>
     </g>
    </g>
    <g id="text_6">
     <text style="font: 9.6px 'Futura', sans-serif; text-anchor: middle" x="144.477729" y="174.914947" transform="rotate(-0 144.477729 174.914947)">Wavelength (nm)</text>
    </g>
   </g>
   <g id="matplotlib.axis_2">
    <g id="ytick_1">
     <g id="line2d_49">
      <defs>
       <path id="m592e806e0a" d="M 0 0 
L -4.8 0 
" style="stroke: #000000"/>
      </defs>
      <g>
       <use xlink:href="#m592e806e0a" x="28.13225" y="145.084197" style="stroke: #000000"/>
      </g>
     </g>
     <g id="text_7">
      <text style="font: 8.8px 'Futura', sans-serif; text-anchor: end" x="19.83225" y="148.712822" transform="rotate(-0 19.83225 148.712822)">0</text>
     </g>
    </g>
    <g id="ytick_2">
     <g id="line2d_50">
      <g>
       <use xlink:href="#m592e806e0a" x="28.13225" y="114.47202" style="stroke: #000000"/>
      </g>
     </g>
     <g id="text_8">
      <text style="font: 8.8px 'Futura', sans-serif; text-anchor: end" x="19.83225" y="118.100645" transform="rotate(-0 19.83225 118.100645)">2</text>
     </g>
    </g>
    <g id="ytick_3">
     <g id="line2d_51">
      <g>
       <use xlink:href="#m592e806e0a" x="28.13225" y="83.859844" style="stroke: #000000"/>
      </g>
     </g>
     <g id="text_9">
      <text style="font: 8.8px 'Futura', sans-serif; text-anchor: end" x="19.83225" y="87.488469" transform="rotate(-0 19.83225 87.488469)">4</text>
     </g>
    </g>
    <g id="ytick_4">
     <g id="line2d_52">
      <g>
       <use xlink:href="#m592e806e0a" x="28.13225" y="53.247667" style="stroke: #000000"/>
      </g>
     </g>
     <g id="text_10">
      <text style="font: 8.8px 'Futura', sans-serif; text-anchor: end" x="19.83225" y="56.876292" transform="rotate(-0 19.83225 56.876292)">6</text>
     </g>
    </g>
    <g id="ytick_5">
     <g id="line2d_53">
      <g>
       <use xlink:href="#m592e806e0a" x="28.13225" y="22.63549" style="stroke: #000000"/>
      </g>
     </g>
     <g id="text_11">
      <text style="font: 8.8px 'Futura', sans-serif; text-anchor: end" x="19.83225" y="26.264115" transform="rotate(-0 19.83225 26.264115)">8</text>
     </g>
    </g>
    <g id="text_12">
     <text style="font: 9.6px 'Futura', sans-serif; text-anchor: middle" x="7.917" y="78.840848" transform="rotate(-90 7.917 78.840848)">Stacked Reflectance</text>
    </g>
   </g>
   <g id="line2d_54">
    <path d="M 29.114068 17.120497 
L 35.397706 17.149962 
L 47.37589 16.779793 
L 57.48862 16.678886 
L 63.674076 16.40236 
L 79.284988 15.582878 
L 81.641352 15.595001 
L 82.230443 15.887984 
L 84.19408 15.508617 
L 90.281354 15.188771 
L 101.179538 14.78526 
L 105.401357 14.629594 
L 112.961358 14.361361 
L 115.612268 14.31873 
L 124.644997 14.191561 
L 128.768634 14.205683 
L 129.652271 14.21985 
L 130.437726 14.237525 
L 132.990453 14.206742 
L 136.328636 14.205539 
L 144.183183 14.174014 
L 151.939548 13.931235 
L 155.277731 13.930862 
L 159.695913 13.949428 
L 164.114096 14.251035 
L 165.39046 14.631311 
L 166.274097 14.858509 
L 167.255915 14.88279 
L 169.023188 14.86562 
L 170.103188 15.086569 
L 171.28137 15.43531 
L 174.423189 15.817797 
L 175.895917 15.67473 
L 179.528645 15.071505 
L 181.295918 15.020962 
L 183.259555 14.802742 
L 188.561374 15.280994 
L 190.328647 15.254817 
L 201.71774 15.113371 
L 205.546832 15.056249 
L 208.197742 15.259887 
L 209.670469 15.70066 
L 210.554106 16.163525 
L 211.143197 16.667658 
L 211.437742 17.248326 
L 212.125015 19.020387 
L 212.517743 19.317248 
L 213.106834 19.410601 
L 214.383197 19.526003 
L 220.175926 20.389899 
L 222.728654 20.343474 
L 227.245018 20.150668 
L 234.608656 20.208487 
L 239.910475 19.832307 
L 246.292295 19.069369 
L 255.815933 17.841684 
L 259.743207 17.395489 
L 259.743207 17.395489 
" clip-path="url(#p1dde419208)" style="fill: none; stroke: #1f77b4; stroke-width: 0.5; stroke-linecap: square"/>
   </g>
   <g id="line2d_55">
    <path d="M 29.114068 30.436168 
L 30.881341 30.480174 
L 38.637707 30.475879 
L 61.612257 30.066658 
L 63.870439 29.922839 
L 82.62317 28.950131 
L 84.881353 29.101719 
L 86.157717 28.834968 
L 87.237717 28.667746 
L 98.135901 27.998735 
L 101.375901 27.846286 
L 114.924995 27.414153 
L 129.455907 27.150983 
L 130.241362 27.312012 
L 131.22318 27.42817 
L 133.383181 28.015688 
L 136.721363 27.663896 
L 141.630455 27.370796 
L 147.815911 27.082482 
L 149.38682 27.05415 
L 150.95773 27.034053 
L 159.695913 27.276242 
L 163.525005 28.144458 
L 164.31046 28.124664 
L 170.986825 27.347002 
L 172.85228 27.577797 
L 176.877735 28.221378 
L 180.805009 28.050561 
L 183.357737 28.190918 
L 185.812282 28.429559 
L 187.579556 28.421082 
L 188.463192 28.446959 
L 191.212284 28.442443 
L 192.979557 28.409545 
L 194.157739 28.378352 
L 197.692285 28.431779 
L 198.968649 28.498671 
L 202.405013 28.664192 
L 207.215923 28.926605 
L 208.983196 29.554921 
L 209.768651 30.128518 
L 212.615924 33.00358 
L 213.99047 34.60257 
L 214.775925 35.096409 
L 215.757743 35.476596 
L 216.837743 35.715905 
L 217.917744 35.676234 
L 218.80138 35.455401 
L 220.666835 34.712989 
L 225.085018 32.830198 
L 226.459564 32.486568 
L 227.735927 32.346373 
L 231.07411 32.285155 
L 235.590475 32.194925 
L 239.026839 32.104819 
L 255.226842 31.63877 
L 259.743207 31.37703 
L 259.743207 31.37703 
" clip-path="url(#p1dde419208)" style="fill: none; stroke: #1f77b4; stroke-width: 0.5; stroke-linecap: square"/>
   </g>
   <g id="line2d_56">
    <path d="M 29.114068 38.686218 
L 31.961342 38.685682 
L 32.354069 38.735369 
L 33.041342 38.76206 
L 40.208616 38.824426 
L 40.994071 38.783041 
L 42.172253 38.679952 
L 44.234071 38.670235 
L 45.412254 38.682346 
L 46.884981 38.629265 
L 54.83771 38.556548 
L 56.408619 38.519874 
L 58.175893 38.5299 
L 61.514075 38.511698 
L 64.263167 38.52451 
L 68.484986 38.626108 
L 69.859531 38.579703 
L 72.706805 38.839601 
L 73.884987 38.99718 
L 78.401351 39.431386 
L 78.990442 39.648101 
L 79.579533 39.664179 
L 80.168624 39.734777 
L 80.855897 40.070623 
L 82.62317 41.425687 
L 84.095898 41.000438 
L 84.586807 42.647404 
L 85.372262 40.369275 
L 85.666807 39.870349 
L 86.550444 39.313554 
L 87.728626 39.142401 
L 88.514081 39.075758 
L 91.263172 38.907688 
L 95.779537 38.792124 
L 98.332264 38.755172 
L 109.230449 38.756948 
L 110.015903 38.784707 
L 111.194085 38.786531 
L 112.961358 38.795715 
L 119.343178 39.011472 
L 124.350452 39.259263 
L 126.903179 39.299671 
L 128.179543 39.251711 
L 128.670453 39.274079 
L 129.652271 39.475638 
L 132.892272 40.222953 
L 133.383181 40.364843 
L 142.023183 40.083726 
L 148.405002 40.295807 
L 149.87773 40.535913 
L 151.448639 40.746901 
L 152.626821 40.946882 
L 153.706821 41.223049 
L 154.983185 41.406098 
L 155.670458 41.728955 
L 156.259549 42.182129 
L 157.830459 43.749714 
L 158.517731 43.923625 
L 160.874096 44.101708 
L 161.757732 44.471837 
L 162.346823 45.278504 
L 162.641369 45.825942 
L 163.23046 44.800223 
L 163.819551 43.289684 
L 164.31046 42.724411 
L 164.899551 42.479235 
L 165.39046 42.47592 
L 166.077733 42.485005 
L 167.354097 42.430057 
L 169.023188 42.654613 
L 173.93228 43.74889 
L 176.190462 43.915589 
L 177.368644 44.313594 
L 178.546826 44.339485 
L 179.626827 44.716673 
L 180.117736 44.75608 
L 180.805009 44.600904 
L 182.081373 44.356827 
L 183.063191 44.417929 
L 184.6341 44.804349 
L 187.28501 45.40834 
L 188.855919 45.616539 
L 190.623193 45.977839 
L 203.28865 47.353926 
L 204.859559 47.795655 
L 206.725014 48.516323 
L 207.903196 49.293973 
L 209.474106 50.773403 
L 211.045015 52.451502 
L 211.535924 52.645488 
L 212.026833 52.615231 
L 213.008652 52.450593 
L 213.99047 52.526644 
L 214.972289 52.465735 
L 215.954107 52.319197 
L 216.346834 52.495757 
L 216.739562 52.690801 
L 216.935925 52.64108 
L 217.328653 52.216745 
L 218.015925 51.54174 
L 218.506835 51.421903 
L 218.899562 51.252135 
L 219.685017 50.876289 
L 221.943199 50.310665 
L 225.772291 49.851445 
L 229.601382 49.493796 
L 230.975928 49.500288 
L 231.957747 49.670226 
L 232.841383 49.233758 
L 233.72502 48.980521 
L 235.394111 48.757135 
L 238.53593 48.487092 
L 255.030479 47.229074 
L 259.743207 46.975544 
L 259.743207 46.975544 
" clip-path="url(#p1dde419208)" style="fill: none; stroke: #1f77b4; stroke-width: 0.5; stroke-linecap: square"/>
   </g>
   <g id="line2d_57">
    <path d="M 29.114068 60.127721 
L 30.979523 60.210313 
L 61.317711 59.828711 
L 78.990442 58.856525 
L 82.426807 58.977314 
L 82.721352 59.104346 
L 83.212261 59.581745 
L 84.095898 60.770052 
L 84.684989 60.219438 
L 85.470444 59.186748 
L 85.764989 59.006867 
L 86.550444 58.811113 
L 88.612262 58.580046 
L 95.9759 58.360143 
L 98.62681 58.233904 
L 104.910448 57.96144 
L 113.354086 57.715889 
L 125.921361 57.744337 
L 139.470455 58.025216 
L 143.692274 58.018335 
L 148.503184 57.784882 
L 152.332276 57.812872 
L 154.394094 58.044674 
L 159.303186 59.804226 
L 160.57955 60.565097 
L 162.150459 61.735624 
L 163.525005 60.496188 
L 164.212278 59.82077 
L 165.194096 59.709174 
L 166.863188 60.510114 
L 167.255915 60.627696 
L 168.335915 60.574235 
L 169.514097 60.33563 
L 170.20137 60.392841 
L 172.165007 61.166897 
L 174.226826 61.51619 
L 175.601371 61.890194 
L 176.190462 61.916832 
L 178.252281 61.607771 
L 179.234099 61.454364 
L 181.099554 61.555227 
L 185.223191 61.802424 
L 191.801375 61.523754 
L 196.808648 61.638706 
L 196.808648 61.638706 
" clip-path="url(#p1dde419208)" style="fill: none; stroke: #1f77b4; stroke-width: 0.5; stroke-linecap: square"/>
   </g>
   <g id="line2d_58">
    <path d="M 29.114068 70.36581 
L 32.94316 70.326174 
L 64.361348 69.776891 
L 65.343167 69.773156 
L 69.172258 69.730706 
L 70.252259 69.759123 
L 70.743168 69.725097 
L 71.626804 69.724494 
L 76.143169 69.739026 
L 77.615897 69.719881 
L 79.481351 69.785884 
L 80.364988 69.857997 
L 81.444988 70.020337 
L 81.935897 70.195499 
L 82.721352 70.449244 
L 84.488625 71.21149 
L 84.881353 71.125739 
L 85.372262 70.858801 
L 85.961353 70.580292 
L 87.237717 70.219512 
L 88.514081 70.158903 
L 90.379536 70.010397 
L 91.263172 69.912037 
L 95.583173 69.657974 
L 99.804992 69.543888 
L 100.688629 69.545692 
L 101.179538 69.510151 
L 102.063174 69.510782 
L 104.321357 69.448933 
L 111.97954 69.374361 
L 114.434086 69.394336 
L 115.219541 69.378356 
L 128.670453 69.7949 
L 129.554089 70.028639 
L 130.732271 70.856707 
L 131.615908 72.165782 
L 132.204999 73.024861 
L 132.79409 73.398513 
L 133.383181 73.119519 
L 135.150454 71.770634 
L 136.132272 71.483859 
L 137.506818 71.321002 
L 140.354091 70.944436 
L 144.477729 70.266673 
L 146.834093 70.091134 
L 149.779548 70.033154 
L 153.019548 70.029064 
L 155.670458 69.99582 
L 157.830459 70.108861 
L 159.695913 70.558116 
L 161.266823 71.161195 
L 162.248641 71.555348 
L 162.935914 71.459495 
L 163.819551 71.076451 
L 164.506824 70.894011 
L 168.826824 70.346084 
L 170.103188 70.428372 
L 175.699553 71.058347 
L 178.546826 71.462161 
L 181.3941 71.849475 
L 191.408647 73.064464 
L 195.041375 73.370533 
L 198.281376 73.408252 
L 207.117741 74.007526 
L 208.197742 74.294329 
L 209.081378 74.839808 
L 209.572287 75.453909 
L 210.652288 76.888967 
L 211.241379 77.267822 
L 214.579561 78.547492 
L 216.052289 78.673582 
L 217.525016 78.537074 
L 219.194108 78.161963 
L 220.37229 77.730139 
L 223.023199 76.723279 
L 224.986836 76.370922 
L 231.172292 75.995779 
L 243.150476 75.421616 
L 259.743207 74.351437 
L 259.743207 74.351437 
" clip-path="url(#p1dde419208)" style="fill: none; stroke: #1f77b4; stroke-width: 0.5; stroke-linecap: square"/>
   </g>
   <g id="line2d_59">
    <path d="M 29.114068 86.568551 
L 39.32498 86.799236 
L 42.56498 86.670864 
L 62.29953 85.121168 
L 75.750442 84.893376 
L 80.561352 84.995493 
L 82.132261 85.251217 
L 83.212261 85.761128 
L 84.292262 86.22313 
L 85.27408 86.319328 
L 86.844989 86.234634 
L 87.43408 85.927673 
L 88.023171 85.663793 
L 89.495899 85.556146 
L 95.386809 85.041187 
L 122.68136 84.719946 
L 126.706816 84.729081 
L 128.081362 84.78128 
L 129.848635 84.957261 
L 130.732271 85.235918 
L 131.615908 85.858054 
L 132.597726 86.583687 
L 132.892272 86.623518 
L 133.579544 86.502339 
L 137.212272 85.558359 
L 140.354091 85.287921 
L 146.245002 84.923981 
L 154.590458 84.811335 
L 158.026822 84.795549 
L 162.248641 84.982012 
L 163.917733 85.188818 
L 165.292278 85.29697 
L 167.157733 85.280087 
L 168.237733 85.618105 
L 169.906825 86.27008 
L 170.299552 86.247852 
L 170.888643 86.061418 
L 172.85228 85.375543 
L 173.93228 85.31814 
L 176.779553 85.51463 
L 182.4741 86.101523 
L 185.910464 86.090267 
L 189.248647 86.245756 
L 191.997738 86.432245 
L 197.201376 86.572566 
L 198.281376 86.642495 
L 198.870467 86.68577 
L 200.539558 86.790688 
L 200.735922 86.858193 
L 201.423195 86.839638 
L 207.903196 87.828436 
L 208.295923 88.021189 
L 209.277742 88.369466 
L 210.357742 88.959349 
L 213.695925 91.029779 
L 215.168652 91.433892 
L 216.64138 91.666782 
L 220.863199 91.718736 
L 222.139563 91.475846 
L 224.103199 91.080191 
L 227.637746 90.887202 
L 231.663201 90.779847 
L 237.848657 90.703463 
L 247.961386 90.455753 
L 254.637751 90.281001 
L 259.743207 89.970674 
L 259.743207 89.970674 
" clip-path="url(#p1dde419208)" style="fill: none; stroke: #1f77b4; stroke-width: 0.5; stroke-linecap: square"/>
   </g>
   <g id="line2d_60">
    <path d="M 29.114068 95.848162 
L 32.354069 95.910008 
L 32.844978 95.888435 
L 33.728615 95.839741 
L 38.048616 95.965401 
L 38.932252 96.227509 
L 39.619525 96.069666 
L 40.699525 96.116624 
L 42.663162 96.044974 
L 44.626799 95.990527 
L 56.99771 95.946038 
L 59.550438 96.296324 
L 61.514075 96.051198 
L 64.557712 95.994813 
L 65.932258 95.919595 
L 67.895895 95.937213 
L 69.663168 95.904792 
L 70.546804 95.964054 
L 75.357714 96.224753 
L 80.46317 97.174976 
L 80.954079 97.483388 
L 81.150443 97.635286 
L 81.739534 99.210188 
L 82.132261 101.064293 
L 82.917716 99.62688 
L 83.11408 99.364674 
L 84.19408 100.064194 
L 84.783171 100.083859 
L 85.470444 99.813578 
L 87.139535 99.106954 
L 88.415899 98.875755 
L 90.281354 98.635214 
L 92.539536 97.932512 
L 94.601355 97.571793 
L 102.35772 96.814344 
L 112.470449 96.722088 
L 115.906814 96.994025 
L 122.386815 97.699342 
L 124.939543 97.835477 
L 128.375907 98.497888 
L 129.161362 99.074903 
L 130.241362 100.154209 
L 131.419544 102.620176 
L 132.106817 103.967938 
L 132.401362 104.286693 
L 132.79409 104.496013 
L 133.383181 104.315352 
L 134.266817 103.666892 
L 135.150454 102.972488 
L 136.426818 102.468795 
L 137.801364 102.173991 
L 140.157728 101.470967 
L 143.986819 100.17778 
L 145.950456 99.730046 
L 148.994093 99.395936 
L 152.03773 99.31962 
L 153.412276 99.269796 
L 157.634095 99.118412 
L 159.990459 99.088559 
L 161.954096 99.101511 
L 167.452279 99.451503 
L 168.139552 99.648774 
L 169.023188 100.025653 
L 169.808643 100.801794 
L 170.692279 101.791679 
L 171.085007 101.928261 
L 171.674098 101.938467 
L 172.066825 102.199436 
L 172.754098 103.04094 
L 173.048643 103.19143 
L 173.539553 102.972935 
L 175.110462 101.266444 
L 175.895917 101.026135 
L 177.270463 101.226214 
L 178.350463 101.577798 
L 180.019554 102.54209 
L 180.608645 102.634955 
L 181.099554 102.545956 
L 182.4741 102.205984 
L 183.259555 102.399505 
L 184.928646 102.810443 
L 185.812282 102.953955 
L 188.561374 103.444702 
L 189.346829 103.528255 
L 191.506829 103.847865 
L 194.845012 104.197897 
L 195.532284 104.287521 
L 205.743196 104.718837 
L 207.215923 105.116045 
L 208.197742 105.769396 
L 209.768651 107.095739 
L 210.455924 107.291746 
L 211.143197 107.461643 
L 211.535924 107.810378 
L 212.615924 108.999479 
L 213.008652 109.045456 
L 213.597743 108.744453 
L 214.383197 108.326866 
L 215.463198 108.324252 
L 220.175926 108.336047 
L 224.103199 108.239492 
L 230.288655 108.196484 
L 239.223203 108.090814 
L 255.61957 107.250359 
L 259.743207 106.867221 
L 259.743207 106.867221 
" clip-path="url(#p1dde419208)" style="fill: none; stroke: #1f77b4; stroke-width: 0.5; stroke-linecap: square"/>
   </g>
   <g id="line2d_61">
    <path d="M 29.114068 114.667576 
L 33.728615 114.754365 
L 48.259527 114.349501 
L 56.604983 114.270384 
L 68.386804 113.856032 
L 78.990442 113.529581 
L 80.46317 113.505021 
L 80.757715 113.561813 
L 81.54317 114.168595 
L 81.739534 114.271884 
L 82.62317 114.36023 
L 83.604989 113.854471 
L 85.077716 113.518242 
L 93.030445 113.106156 
L 107.855903 112.80005 
L 112.077722 112.745071 
L 116.103177 112.722852 
L 118.852269 112.751007 
L 129.06318 112.777146 
L 129.554089 112.818169 
L 130.732271 112.956906 
L 132.401362 113.216422 
L 134.070454 113.440071 
L 135.346818 113.430401 
L 146.441365 113.194243 
L 149.092275 113.113402 
L 156.455913 113.252048 
L 158.223186 113.181661 
L 163.034096 113.286358 
L 164.899551 113.52794 
L 166.47046 113.873882 
L 168.335915 114.145942 
L 169.023188 114.299939 
L 170.790461 114.55658 
L 173.048643 115.173091 
L 174.030462 115.490358 
L 175.110462 115.472637 
L 175.699553 115.278724 
L 177.270463 114.621438 
L 177.957735 114.571368 
L 185.419555 115.13151 
L 188.168647 115.079081 
L 192.292284 115.628132 
L 203.975923 115.245409 
L 205.252286 115.408095 
L 207.805014 116.169932 
L 208.295923 116.586409 
L 208.786833 117.306782 
L 209.965015 119.142082 
L 211.045015 120.391934 
L 211.928652 120.589136 
L 212.812288 120.525413 
L 215.365016 120.302735 
L 218.80138 120.005271 
L 247.274113 118.613294 
L 259.743207 118.180689 
L 259.743207 118.180689 
" clip-path="url(#p1dde419208)" style="fill: none; stroke: #1f77b4; stroke-width: 0.5; stroke-linecap: square"/>
   </g>
   <g id="line2d_62">
    <path d="M 29.114068 128.2262 
L 38.146798 128.150798 
L 38.932252 128.413598 
L 39.914071 128.02163 
L 41.583162 127.972681 
L 44.332253 127.918366 
L 48.9468 127.784791 
L 50.615891 127.724308 
L 63.575894 127.118421 
L 70.743168 127.152655 
L 71.332259 127.186835 
L 72.117714 126.986967 
L 74.866805 126.959271 
L 80.659534 127.043366 
L 81.150443 127.298626 
L 81.739534 129.093781 
L 82.230443 131.246598 
L 82.62317 131.545916 
L 83.212261 128.525365 
L 83.703171 127.603138 
L 84.488625 127.419944 
L 91.754081 126.859027 
L 95.386809 126.776214 
L 97.154082 126.805832 
L 99.019537 126.669608 
L 114.041359 126.42776 
L 116.299541 126.373926 
L 117.084996 126.378276 
L 123.17227 126.520092 
L 127.099543 126.668961 
L 129.259544 126.791492 
L 130.732271 127.064984 
L 132.499544 127.828198 
L 132.990453 127.893312 
L 134.266817 127.770575 
L 135.444999 127.645038 
L 139.274091 127.510668 
L 143.986819 127.543435 
L 145.263183 127.255497 
L 145.754092 127.258435 
L 148.405002 127.636651 
L 149.485002 128.490213 
L 150.95773 128.236204 
L 152.332276 127.965584 
L 154.001367 128.375972 
L 154.885003 128.564001 
L 155.474094 128.560899 
L 157.241368 128.09373 
L 159.597732 128.341812 
L 160.57955 128.102681 
L 162.346823 128.078713 
L 163.23046 128.287641 
L 164.408642 129.187171 
L 165.194096 129.463499 
L 166.175915 129.039185 
L 167.354097 129.794614 
L 168.335915 130.831754 
L 169.219552 132.187587 
L 170.103188 133.867558 
L 171.968643 134.907624 
L 172.950462 135.400971 
L 174.128644 133.175247 
L 175.01228 131.118241 
L 175.994099 130.711304 
L 177.172281 131.412545 
L 177.957735 131.759469 
L 179.135917 133.215919 
L 179.921372 133.715849 
L 180.706827 133.328508 
L 181.983191 132.395456 
L 183.063191 131.644906 
L 183.357737 131.59786 
L 186.20501 132.271498 
L 187.972283 132.463171 
L 189.543192 132.112827 
L 191.114102 131.844303 
L 195.728648 131.802665 
L 196.808648 131.754895 
L 196.808648 131.754895 
" clip-path="url(#p1dde419208)" style="fill: none; stroke: #1f77b4; stroke-width: 0.5; stroke-linecap: square"/>
   </g>
   <g id="line2d_63"/>
   <g id="patch_3">
    <path d="M 28.13225 145.084197 
L 28.13225 12.5975 
" style="fill: none; stroke: #000000; stroke-linejoin: miter; stroke-linecap: square"/>
   </g>
   <g id="patch_4">
    <path d="M 28.13225 145.084197 
L 260.823207 145.084197 
" style="fill: none; stroke: #000000; stroke-linejoin: miter; stroke-linecap: square"/>
   </g>
   <g id="text_13">
    <text style="font: 6px 'Futura', sans-serif; text-anchor: start" x="261.805025" y="133.452707" transform="rotate(-0 261.805025 133.452707)">Talc GDS23</text>
   </g>
   <g id="text_14">
    <text style="font: 6px 'Futura', sans-serif; text-anchor: start" x="261.805025" y="119.878502" transform="rotate(-0 261.805025 119.878502)">Serpentine LALZ01</text>
   </g>
   <g id="text_15">
    <text style="font: 6px 'Futura', sans-serif; text-anchor: start" x="261.805025" y="108.565034" transform="rotate(-0 261.805025 108.565034)">Saponite LASA58</text>
   </g>
   <g id="text_16">
    <text style="font: 6px 'Futura', sans-serif; text-anchor: start" x="261.805025" y="91.668487" transform="rotate(-0 261.805025 91.668487)">Nontronite NCJB26</text>
   </g>
   <g id="text_17">
    <text style="font: 6px 'Futura', sans-serif; text-anchor: start" x="261.805025" y="76.04925" transform="rotate(-0 261.805025 76.04925)">Montmorillonite LAMO02</text>
   </g>
   <g id="text_18">
    <text style="font: 6px 'Futura', sans-serif; text-anchor: start" x="261.805025" y="63.329956" transform="rotate(-0 261.805025 63.329956)">Margarite GDS106</text>
   </g>
   <g id="text_19">
    <text style="font: 6px 'Futura', sans-serif; text-anchor: start" x="261.805025" y="48.673356" transform="rotate(-0 261.805025 48.673356)">Kaolinite LAKA04</text>
   </g>
   <g id="text_20">
    <text style="font: 6px 'Futura', sans-serif; text-anchor: start" x="261.805025" y="33.074842" transform="rotate(-0 261.805025 33.074842)">Illite LAIL02</text>
   </g>
   <g id="text_21">
    <text style="font: 6px 'Futura', sans-serif; text-anchor: start" x="261.805025" y="19.093302" transform="rotate(-0 261.805025 19.093302)">Chlorite LACL14</text>
   </g>
   <g id="text_22">
    <text style="fill: #1f77b4; font: 7px 'Futura', sans-serif; text-anchor: start" x="261.805025" y="12.030647" transform="rotate(-0 261.805025 12.030647)">Phyllosilicates</text>
   </g>
   <g id="text_23">
    <text style="font: 8px 'Futura', sans-serif; text-anchor: middle" x="144.477729" y="6.5975" transform="rotate(-0 144.477729 6.5975)">Phyllosilicate Stacked</text>
   </g>
  </g>
 </g>
 <defs>
  <clipPath id="p1dde419208">
   <rect x="28.13225" y="12.5975" width="232.690957" height="132.486697"/>
  </clipPath>
 </defs>
</svg>
