<?xml version="1.0" encoding="utf-8" standalone="no"?>
<!DOCTYPE svg PUBLIC "-//W3C//DTD SVG 1.1//EN"
  "http://www.w3.org/Graphics/SVG/1.1/DTD/svg11.dtd">
<svg xmlns:xlink="http://www.w3.org/1999/xlink" width="272.624805pt" height="177.409447pt" viewBox="0 0 272.624805 177.409447" xmlns="http://www.w3.org/2000/svg" version="1.1">
 <metadata>
  <rdf:RDF xmlns:dc="http://purl.org/dc/elements/1.1/" xmlns:cc="http://creativecommons.org/ns#" xmlns:rdf="http://www.w3.org/1999/02/22-rdf-syntax-ns#">
   <cc:Work>
    <dc:type rdf:resource="http://purl.org/dc/dcmitype/StillImage"/>
    <dc:date>2025-02-15T18:14:26.551108</dc:date>
    <dc:format>image/svg+xml</dc:format>
    <dc:creator>
     <cc:Agent>
      <dc:title>Matplotlib v3.6.2, https://matplotlib.org/</dc:title>
     </cc:Agent>
    </dc:creator>
   </cc:Work>
  </rdf:RDF>
 </metadata>
 <defs>
  <style type="text/css">*{stroke-linejoin: round; stroke-linecap: butt}</style>
 </defs>
 <g id="figure_1">
  <g id="patch_1">
   <path d="M 0 177.409447 
L 272.624805 177.409447 
L 272.624805 0 
L 0 0 
z
" style="fill: #ffffff"/>
  </g>
  <g id="axes_1">
   <g id="patch_2">
    <path d="M 36.279125 145.084197 
L 212.896826 145.084197 
L 212.896826 12.5975 
L 36.279125 12.5975 
z
" style="fill: #ffffff"/>
   </g>
   <g id="matplotlib.axis_1">
    <g id="xtick_1">
     <g id="line2d_1">
      <path d="M 48.202683 145.084197 
L 48.202683 12.5975 
" clip-path="url(#pe35abd95cb)" style="fill: none; stroke: #b0b0b0; stroke-width: 0.6; stroke-linecap: square"/>
     </g>
     <g id="line2d_2">
      <defs>
       <path id="md95c4075b4" d="M 0 0 
L 0 4.8 
" style="stroke: #000000"/>
      </defs>
      <g>
       <use xlink:href="#md95c4075b4" x="48.202683" y="145.084197" style="stroke: #000000"/>
      </g>
     </g>
     <g id="text_1">
      <text style="font: 8.8px 'Futura', sans-serif; text-anchor: middle" x="48.202683" y="160.641447" transform="rotate(-0 48.202683 160.641447)">1000</text>
     </g>
    </g>
    <g id="xtick_2">
     <g id="line2d_3">
      <path d="M 85.463801 145.084197 
L 85.463801 12.5975 
" clip-path="url(#pe35abd95cb)" style="fill: none; stroke: #b0b0b0; stroke-width: 0.6; stroke-linecap: square"/>
     </g>
     <g id="line2d_4">
      <g>
       <use xlink:href="#md95c4075b4" x="85.463801" y="145.084197" style="stroke: #000000"/>
      </g>
     </g>
     <g id="text_2">
      <text style="font: 8.8px 'Futura', sans-serif; text-anchor: middle" x="85.463801" y="160.641447" transform="rotate(-0 85.463801 160.641447)">1500</text>
     </g>
    </g>
    <g id="xtick_3">
     <g id="line2d_5">
      <path d="M 122.724919 145.084197 
L 122.724919 12.5975 
" clip-path="url(#pe35abd95cb)" style="fill: none; stroke: #b0b0b0; stroke-width: 0.6; stroke-linecap: square"/>
     </g>
     <g id="line2d_6">
      <g>
       <use xlink:href="#md95c4075b4" x="122.724919" y="145.084197" style="stroke: #000000"/>
      </g>
     </g>
     <g id="text_3">
      <text style="font: 8.8px 'Futura', sans-serif; text-anchor: middle" x="122.724919" y="160.641447" transform="rotate(-0 122.724919 160.641447)">2000</text>
     </g>
    </g>
    <g id="xtick_4">
     <g id="line2d_7">
      <path d="M 159.986038 145.084197 
L 159.986038 12.5975 
" clip-path="url(#pe35abd95cb)" style="fill: none; stroke: #b0b0b0; stroke-width: 0.6; stroke-linecap: square"/>
     </g>
     <g id="line2d_8">
      <g>
       <use xlink:href="#md95c4075b4" x="159.986038" y="145.084197" style="stroke: #000000"/>
      </g>
     </g>
     <g id="text_4">
      <text style="font: 8.8px 'Futura', sans-serif; text-anchor: middle" x="159.986038" y="160.641447" transform="rotate(-0 159.986038 160.641447)">2500</text>
     </g>
    </g>
    <g id="xtick_5">
     <g id="line2d_9">
      <path d="M 197.247156 145.084197 
L 197.247156 12.5975 
" clip-path="url(#pe35abd95cb)" style="fill: none; stroke: #b0b0b0; stroke-width: 0.6; stroke-linecap: square"/>
     </g>
     <g id="line2d_10">
      <g>
       <use xlink:href="#md95c4075b4" x="197.247156" y="145.084197" style="stroke: #000000"/>
      </g>
     </g>
     <g id="text_5">
      <text style="font: 8.8px 'Futura', sans-serif; text-anchor: middle" x="197.247156" y="160.641447" transform="rotate(-0 197.247156 160.641447)">3000</text>
     </g>
    </g>
    <g id="xtick_6">
     <g id="line2d_11">
      <path d="M 40.750459 145.084197 
L 40.750459 12.5975 
" clip-path="url(#pe35abd95cb)" style="fill: none; stroke: #b0b0b0; stroke-width: 0.3; stroke-linecap: square"/>
     </g>
     <g id="line2d_12">
      <defs>
       <path id="m253b739008" d="M 0 0 
L 0 3.2 
" style="stroke: #000000; stroke-width: 0.8"/>
      </defs>
      <g>
       <use xlink:href="#m253b739008" x="40.750459" y="145.084197" style="stroke: #000000; stroke-width: 0.8"/>
      </g>
     </g>
    </g>
    <g id="xtick_7">
     <g id="line2d_13">
      <path d="M 55.654907 145.084197 
L 55.654907 12.5975 
" clip-path="url(#pe35abd95cb)" style="fill: none; stroke: #b0b0b0; stroke-width: 0.3; stroke-linecap: square"/>
     </g>
     <g id="line2d_14">
      <g>
       <use xlink:href="#m253b739008" x="55.654907" y="145.084197" style="stroke: #000000; stroke-width: 0.8"/>
      </g>
     </g>
    </g>
    <g id="xtick_8">
     <g id="line2d_15">
      <path d="M 63.10713 145.084197 
L 63.10713 12.5975 
" clip-path="url(#pe35abd95cb)" style="fill: none; stroke: #b0b0b0; stroke-width: 0.3; stroke-linecap: square"/>
     </g>
     <g id="line2d_16">
      <g>
       <use xlink:href="#m253b739008" x="63.10713" y="145.084197" style="stroke: #000000; stroke-width: 0.8"/>
      </g>
     </g>
    </g>
    <g id="xtick_9">
     <g id="line2d_17">
      <path d="M 70.559354 145.084197 
L 70.559354 12.5975 
" clip-path="url(#pe35abd95cb)" style="fill: none; stroke: #b0b0b0; stroke-width: 0.3; stroke-linecap: square"/>
     </g>
     <g id="line2d_18">
      <g>
       <use xlink:href="#m253b739008" x="70.559354" y="145.084197" style="stroke: #000000; stroke-width: 0.8"/>
      </g>
     </g>
    </g>
    <g id="xtick_10">
     <g id="line2d_19">
      <path d="M 78.011578 145.084197 
L 78.011578 12.5975 
" clip-path="url(#pe35abd95cb)" style="fill: none; stroke: #b0b0b0; stroke-width: 0.3; stroke-linecap: square"/>
     </g>
     <g id="line2d_20">
      <g>
       <use xlink:href="#m253b739008" x="78.011578" y="145.084197" style="stroke: #000000; stroke-width: 0.8"/>
      </g>
     </g>
    </g>
    <g id="xtick_11">
     <g id="line2d_21">
      <path d="M 92.916025 145.084197 
L 92.916025 12.5975 
" clip-path="url(#pe35abd95cb)" style="fill: none; stroke: #b0b0b0; stroke-width: 0.3; stroke-linecap: square"/>
     </g>
     <g id="line2d_22">
      <g>
       <use xlink:href="#m253b739008" x="92.916025" y="145.084197" style="stroke: #000000; stroke-width: 0.8"/>
      </g>
     </g>
    </g>
    <g id="xtick_12">
     <g id="line2d_23">
      <path d="M 100.368248 145.084197 
L 100.368248 12.5975 
" clip-path="url(#pe35abd95cb)" style="fill: none; stroke: #b0b0b0; stroke-width: 0.3; stroke-linecap: square"/>
     </g>
     <g id="line2d_24">
      <g>
       <use xlink:href="#m253b739008" x="100.368248" y="145.084197" style="stroke: #000000; stroke-width: 0.8"/>
      </g>
     </g>
    </g>
    <g id="xtick_13">
     <g id="line2d_25">
      <path d="M 107.820472 145.084197 
L 107.820472 12.5975 
" clip-path="url(#pe35abd95cb)" style="fill: none; stroke: #b0b0b0; stroke-width: 0.3; stroke-linecap: square"/>
     </g>
     <g id="line2d_26">
      <g>
       <use xlink:href="#m253b739008" x="107.820472" y="145.084197" style="stroke: #000000; stroke-width: 0.8"/>
      </g>
     </g>
    </g>
    <g id="xtick_14">
     <g id="line2d_27">
      <path d="M 115.272696 145.084197 
L 115.272696 12.5975 
" clip-path="url(#pe35abd95cb)" style="fill: none; stroke: #b0b0b0; stroke-width: 0.3; stroke-linecap: square"/>
     </g>
     <g id="line2d_28">
      <g>
       <use xlink:href="#m253b739008" x="115.272696" y="145.084197" style="stroke: #000000; stroke-width: 0.8"/>
      </g>
     </g>
    </g>
    <g id="xtick_15">
     <g id="line2d_29">
      <path d="M 130.177143 145.084197 
L 130.177143 12.5975 
" clip-path="url(#pe35abd95cb)" style="fill: none; stroke: #b0b0b0; stroke-width: 0.3; stroke-linecap: square"/>
     </g>
     <g id="line2d_30">
      <g>
       <use xlink:href="#m253b739008" x="130.177143" y="145.084197" style="stroke: #000000; stroke-width: 0.8"/>
      </g>
     </g>
    </g>
    <g id="xtick_16">
     <g id="line2d_31">
      <path d="M 137.629367 145.084197 
L 137.629367 12.5975 
" clip-path="url(#pe35abd95cb)" style="fill: none; stroke: #b0b0b0; stroke-width: 0.3; stroke-linecap: square"/>
     </g>
     <g id="line2d_32">
      <g>
       <use xlink:href="#m253b739008" x="137.629367" y="145.084197" style="stroke: #000000; stroke-width: 0.8"/>
      </g>
     </g>
    </g>
    <g id="xtick_17">
     <g id="line2d_33">
      <path d="M 145.08159 145.084197 
L 145.08159 12.5975 
" clip-path="url(#pe35abd95cb)" style="fill: none; stroke: #b0b0b0; stroke-width: 0.3; stroke-linecap: square"/>
     </g>
     <g id="line2d_34">
      <g>
       <use xlink:href="#m253b739008" x="145.08159" y="145.084197" style="stroke: #000000; stroke-width: 0.8"/>
      </g>
     </g>
    </g>
    <g id="xtick_18">
     <g id="line2d_35">
      <path d="M 152.533814 145.084197 
L 152.533814 12.5975 
" clip-path="url(#pe35abd95cb)" style="fill: none; stroke: #b0b0b0; stroke-width: 0.3; stroke-linecap: square"/>
     </g>
     <g id="line2d_36">
      <g>
       <use xlink:href="#m253b739008" x="152.533814" y="145.084197" style="stroke: #000000; stroke-width: 0.8"/>
      </g>
     </g>
    </g>
    <g id="xtick_19">
     <g id="line2d_37">
      <path d="M 167.438261 145.084197 
L 167.438261 12.5975 
" clip-path="url(#pe35abd95cb)" style="fill: none; stroke: #b0b0b0; stroke-width: 0.3; stroke-linecap: square"/>
     </g>
     <g id="line2d_38">
      <g>
       <use xlink:href="#m253b739008" x="167.438261" y="145.084197" style="stroke: #000000; stroke-width: 0.8"/>
      </g>
     </g>
    </g>
    <g id="xtick_20">
     <g id="line2d_39">
      <path d="M 174.890485 145.084197 
L 174.890485 12.5975 
" clip-path="url(#pe35abd95cb)" style="fill: none; stroke: #b0b0b0; stroke-width: 0.3; stroke-linecap: square"/>
     </g>
     <g id="line2d_40">
      <g>
       <use xlink:href="#m253b739008" x="174.890485" y="145.084197" style="stroke: #000000; stroke-width: 0.8"/>
      </g>
     </g>
    </g>
    <g id="xtick_21">
     <g id="line2d_41">
      <path d="M 182.342709 145.084197 
L 182.342709 12.5975 
" clip-path="url(#pe35abd95cb)" style="fill: none; stroke: #b0b0b0; stroke-width: 0.3; stroke-linecap: square"/>
     </g>
     <g id="line2d_42">
      <g>
       <use xlink:href="#m253b739008" x="182.342709" y="145.084197" style="stroke: #000000; stroke-width: 0.8"/>
      </g>
     </g>
    </g>
    <g id="xtick_22">
     <g id="line2d_43">
      <path d="M 189.794932 145.084197 
L 189.794932 12.5975 
" clip-path="url(#pe35abd95cb)" style="fill: none; stroke: #b0b0b0; stroke-width: 0.3; stroke-linecap: square"/>
     </g>
     <g id="line2d_44">
      <g>
       <use xlink:href="#m253b739008" x="189.794932" y="145.084197" style="stroke: #000000; stroke-width: 0.8"/>
      </g>
     </g>
    </g>
    <g id="xtick_23">
     <g id="line2d_45">
      <path d="M 204.69938 145.084197 
L 204.69938 12.5975 
" clip-path="url(#pe35abd95cb)" style="fill: none; stroke: #b0b0b0; stroke-width: 0.3; stroke-linecap: square"/>
     </g>
     <g id="line2d_46">
      <g>
       <use xlink:href="#m253b739008" x="204.69938" y="145.084197" style="stroke: #000000; stroke-width: 0.8"/>
      </g>
     </g>
    </g>
    <g id="xtick_24">
     <g id="line2d_47">
      <path d="M 212.151603 145.084197 
L 212.151603 12.5975 
" clip-path="url(#pe35abd95cb)" style="fill: none; stroke: #b0b0b0; stroke-width: 0.3; stroke-linecap: square"/>
     </g>
     <g id="line2d_48">
      <g>
       <use xlink:href="#m253b739008" x="212.151603" y="145.084197" style="stroke: #000000; stroke-width: 0.8"/>
      </g>
     </g>
    </g>
    <g id="text_6">
     <text style="font: 9.6px 'Futura', sans-serif; text-anchor: middle" x="124.587975" y="174.914947" transform="rotate(-0 124.587975 174.914947)">Wavelength (nm)</text>
    </g>
   </g>
   <g id="matplotlib.axis_2">
    <g id="ytick_1">
     <g id="line2d_49">
      <path d="M 36.279125 145.084197 
L 212.896826 145.084197 
" clip-path="url(#pe35abd95cb)" style="fill: none; stroke: #b0b0b0; stroke-width: 0.6; stroke-linecap: square"/>
     </g>
     <g id="line2d_50">
      <defs>
       <path id="m5b582eea06" d="M 0 0 
L -4.8 0 
" style="stroke: #000000"/>
      </defs>
      <g>
       <use xlink:href="#m5b582eea06" x="36.279125" y="145.084197" style="stroke: #000000"/>
      </g>
     </g>
     <g id="text_7">
      <text style="font: 8.8px 'Futura', sans-serif; text-anchor: end" x="27.979125" y="148.712822" transform="rotate(-0 27.979125 148.712822)">0.0</text>
     </g>
    </g>
    <g id="ytick_2">
     <g id="line2d_51">
      <path d="M 36.279125 122.106119 
L 212.896826 122.106119 
" clip-path="url(#pe35abd95cb)" style="fill: none; stroke: #b0b0b0; stroke-width: 0.6; stroke-linecap: square"/>
     </g>
     <g id="line2d_52">
      <g>
       <use xlink:href="#m5b582eea06" x="36.279125" y="122.106119" style="stroke: #000000"/>
      </g>
     </g>
     <g id="text_8">
      <text style="font: 8.8px 'Futura', sans-serif; text-anchor: end" x="27.979125" y="125.734744" transform="rotate(-0 27.979125 125.734744)">0.1</text>
     </g>
    </g>
    <g id="ytick_3">
     <g id="line2d_53">
      <path d="M 36.279125 99.128042 
L 212.896826 99.128042 
" clip-path="url(#pe35abd95cb)" style="fill: none; stroke: #b0b0b0; stroke-width: 0.6; stroke-linecap: square"/>
     </g>
     <g id="line2d_54">
      <g>
       <use xlink:href="#m5b582eea06" x="36.279125" y="99.128042" style="stroke: #000000"/>
      </g>
     </g>
     <g id="text_9">
      <text style="font: 8.8px 'Futura', sans-serif; text-anchor: end" x="27.979125" y="102.756667" transform="rotate(-0 27.979125 102.756667)">0.2</text>
     </g>
    </g>
    <g id="ytick_4">
     <g id="line2d_55">
      <path d="M 36.279125 76.149964 
L 212.896826 76.149964 
" clip-path="url(#pe35abd95cb)" style="fill: none; stroke: #b0b0b0; stroke-width: 0.6; stroke-linecap: square"/>
     </g>
     <g id="line2d_56">
      <g>
       <use xlink:href="#m5b582eea06" x="36.279125" y="76.149964" style="stroke: #000000"/>
      </g>
     </g>
     <g id="text_10">
      <text style="font: 8.8px 'Futura', sans-serif; text-anchor: end" x="27.979125" y="79.778589" transform="rotate(-0 27.979125 79.778589)">0.3</text>
     </g>
    </g>
    <g id="ytick_5">
     <g id="line2d_57">
      <path d="M 36.279125 53.171887 
L 212.896826 53.171887 
" clip-path="url(#pe35abd95cb)" style="fill: none; stroke: #b0b0b0; stroke-width: 0.6; stroke-linecap: square"/>
     </g>
     <g id="line2d_58">
      <g>
       <use xlink:href="#m5b582eea06" x="36.279125" y="53.171887" style="stroke: #000000"/>
      </g>
     </g>
     <g id="text_11">
      <text style="font: 8.8px 'Futura', sans-serif; text-anchor: end" x="27.979125" y="56.800512" transform="rotate(-0 27.979125 56.800512)">0.4</text>
     </g>
    </g>
    <g id="ytick_6">
     <g id="line2d_59">
      <path d="M 36.279125 30.193809 
L 212.896826 30.193809 
" clip-path="url(#pe35abd95cb)" style="fill: none; stroke: #b0b0b0; stroke-width: 0.6; stroke-linecap: square"/>
     </g>
     <g id="line2d_60">
      <g>
       <use xlink:href="#m5b582eea06" x="36.279125" y="30.193809" style="stroke: #000000"/>
      </g>
     </g>
     <g id="text_12">
      <text style="font: 8.8px 'Futura', sans-serif; text-anchor: end" x="27.979125" y="33.822434" transform="rotate(-0 27.979125 33.822434)">0.5</text>
     </g>
    </g>
    <g id="text_13">
     <text style="font: 9.6px 'Futura', sans-serif; text-anchor: middle" x="7.917" y="78.840848" transform="rotate(-90 7.917 78.840848)">Reflectance</text>
    </g>
   </g>
   <g id="line2d_61">
    <path d="M 37.024347 14.711178 
L 37.695047 14.656032 
L 37.844092 14.600887 
L 38.291225 14.356402 
L 39.185492 14.286544 
L 39.856192 14.199227 
L 40.154281 14.168898 
L 40.675937 14.0609 
L 42.613515 14.042512 
L 43.060649 14.459807 
L 43.358737 14.355027 
L 44.10396 15.209808 
L 44.625616 15.015873 
L 44.998227 15.136737 
L 45.519882 15.39869 
L 45.967016 15.464869 
L 47.308416 15.222444 
L 48.053638 15.331133 
L 48.798861 15.21716 
L 49.469561 15.393176 
L 49.842172 15.298503 
L 50.363828 15.503919 
L 50.661917 15.565501 
L 50.960006 15.491516 
L 51.258095 15.400985 
L 51.77975 15.571939 
L 52.45045 15.674891 
L 52.897584 15.845177 
L 55.207773 16.204606 
L 56.698218 16.590171 
L 57.145351 16.725202 
L 58.337707 17.446486 
L 58.859363 18.108945 
L 59.530063 19.007781 
L 59.902674 19.040254 
L 61.691208 18.720701 
L 63.554264 18.956766 
L 64.150441 19.017433 
L 64.523053 19.019567 
L 64.821142 19.102749 
L 65.715408 19.33514 
L 67.280375 19.634773 
L 68.472731 19.719488 
L 69.590565 20.055418 
L 70.261265 20.332997 
L 71.155532 20.81737 
L 71.677187 21.296695 
L 72.645976 22.605687 
L 75.10521 26.891404 
L 75.477821 28.646043 
L 76.073999 32.176702 
L 76.446611 34.357436 
L 76.893744 37.639277 
L 77.713489 45.818443 
L 78.384189 52.720342 
L 78.831322 54.113068 
L 79.129411 54.091017 
L 81.4396 49.696218 
L 81.961256 49.448289 
L 82.631956 49.30619 
L 82.930045 48.857331 
L 85.76189 41.893787 
L 86.805201 40.137162 
L 87.699468 38.950752 
L 89.189913 37.450286 
L 90.75488 36.510298 
L 92.916025 35.928222 
L 95.07717 35.976854 
L 96.716659 36.301657 
L 98.43067 36.876296 
L 100.07016 37.693553 
L 101.187993 38.365201 
L 102.529393 39.57208 
L 104.616016 41.823706 
L 105.882894 43.198172 
L 106.777161 43.944573 
L 110.503273 45.902545 
L 111.024928 46.506082 
L 111.546584 47.390604 
L 112.217284 49.525295 
L 112.440851 50.647055 
L 112.887984 53.718502 
L 113.260595 57.538776 
L 113.633207 62.949963 
L 114.154862 73.149058 
L 114.974607 91.529285 
L 115.347218 95.150267 
L 115.645307 95.913408 
L 115.719829 95.805673 
L 116.09244 95.142135 
L 118.328108 88.509607 
L 119.520463 85.302836 
L 120.787341 81.255286 
L 123.544664 71.967087 
L 124.587975 69.313965 
L 125.780331 67.172838 
L 126.823642 65.920123 
L 128.388609 64.620482 
L 130.251665 63.67721 
L 131.294977 63.367257 
L 132.487332 63.422692 
L 133.158033 63.73772 
L 133.903255 64.512592 
L 134.573955 65.703075 
L 135.095611 67.007989 
L 135.766311 69.32521 
L 137.033189 74.657144 
L 138.374589 79.31406 
L 138.896245 79.754103 
L 139.268856 79.739294 
L 140.237645 79.440659 
L 142.473312 79.564505 
L 144.112801 78.716663 
L 145.305157 78.147585 
L 146.422991 77.674237 
L 146.944646 77.577591 
L 147.764391 77.721704 
L 148.807702 78.41163 
L 149.701969 79.326408 
L 150.521714 80.567512 
L 151.341458 82.15021 
L 152.310247 84.401769 
L 153.72617 88.37234 
L 156.856104 97.503879 
L 157.973937 100.054252 
L 159.166293 102.151494 
L 159.986038 103.297796 
L 161.625527 105.115533 
L 164.829983 107.91423 
L 165.05355 108.133737 
L 165.351639 108.384955 
L 165.575206 108.619424 
L 166.39495 109.43741 
L 166.693039 109.703914 
L 167.289217 110.381125 
L 167.587306 110.653582 
L 169.077751 112.901743 
L 170.344629 115.449686 
L 171.164373 117.505773 
L 171.760551 119.323492 
L 172.505774 122.413221 
L 173.325518 126.973657 
L 175.859274 136.76467 
L 176.38093 137.689949 
L 176.977108 138.441531 
L 177.796852 138.89414 
L 178.765641 139.063185 
L 179.06373 139.101565 
L 179.361819 139.15328 
L 179.73443 139.162534 
L 180.479653 139.188196 
L 180.777742 139.19137 
L 181.746531 139.254618 
L 182.119142 139.293574 
L 182.71532 139.403285 
L 183.162453 139.393947 
L 184.05672 139.497694 
L 184.578376 139.530383 
L 185.100032 139.629269 
L 185.547165 139.632516 
L 186.441432 139.714131 
L 187.782832 139.781345 
L 188.229965 139.804542 
L 188.677099 139.796074 
L 189.04971 139.809555 
L 189.72041 139.776628 
L 190.316588 139.789663 
L 190.912766 139.818373 
L 191.956077 139.749612 
L 194.7134 139.627176 
L 195.458622 139.541209 
L 196.0548 139.540241 
L 197.098112 139.445977 
L 200.973268 139.26579 
L 203.059891 139.137276 
L 211.778992 138.268924 
L 212.077081 138.216971 
L 212.077081 138.216971 
" clip-path="url(#pe35abd95cb)" style="fill: none; stroke: #1f77b4; stroke-width: 0.5; stroke-linecap: square"/>
   </g>
   <g id="line2d_62"/>
   <g id="patch_3">
    <path d="M 36.279125 145.084197 
L 36.279125 12.5975 
" style="fill: none; stroke: #000000; stroke-linejoin: miter; stroke-linecap: square"/>
   </g>
   <g id="patch_4">
    <path d="M 36.279125 145.084197 
L 212.896826 145.084197 
" style="fill: none; stroke: #000000; stroke-linejoin: miter; stroke-linecap: square"/>
   </g>
   <g id="text_14">
    <text style="font: 8px 'Futura', sans-serif; text-anchor: middle" x="124.587975" y="6.5975" transform="rotate(-0 124.587975 6.5975)">Siliceous-Sinter</text>
   </g>
   <g id="legend_1">
    <g id="patch_5">
     <path d="M 220.62918 84.491161 
L 271.424805 84.491161 
Q 272.624805 84.491161 272.624805 83.291161 
L 272.624805 74.390536 
Q 272.624805 73.190536 271.424805 73.190536 
L 220.62918 73.190536 
Q 219.42918 73.190536 219.42918 74.390536 
L 219.42918 83.291161 
Q 219.42918 84.491161 220.62918 84.491161 
z
" style="fill: #ffffff; opacity: 0.8; stroke: #cccccc; stroke-width: 0.8; stroke-linejoin: miter"/>
    </g>
    <g id="line2d_63">
     <path d="M 221.82918 78.438661 
L 227.82918 78.438661 
L 233.82918 78.438661 
" style="fill: none; stroke: #1f77b4; stroke-width: 1.2; stroke-linecap: square"/>
    </g>
    <g id="text_15">
     <text style="font: 6px 'Futura', sans-serif; text-anchor: start" x="238.62918" y="80.538661" transform="rotate(-0 238.62918 80.538661)">bkr1jb329c</text>
    </g>
   </g>
  </g>
 </g>
 <defs>
  <clipPath id="pe35abd95cb">
   <rect x="36.279125" y="12.5975" width="176.617701" height="132.486697"/>
  </clipPath>
 </defs>
</svg>
