<?xml version="1.0" encoding="utf-8" standalone="no"?>
<!DOCTYPE svg PUBLIC "-//W3C//DTD SVG 1.1//EN"
  "http://www.w3.org/Graphics/SVG/1.1/DTD/svg11.dtd">
<svg xmlns:xlink="http://www.w3.org/1999/xlink" width="332.415097pt" height="177.409447pt" viewBox="0 0 332.415097 177.409447" xmlns="http://www.w3.org/2000/svg" version="1.1">
 <metadata>
  <rdf:RDF xmlns:dc="http://purl.org/dc/elements/1.1/" xmlns:cc="http://creativecommons.org/ns#" xmlns:rdf="http://www.w3.org/1999/02/22-rdf-syntax-ns#">
   <cc:Work>
    <dc:type rdf:resource="http://purl.org/dc/dcmitype/StillImage"/>
    <dc:date>2025-02-15T18:14:13.789438</dc:date>
    <dc:format>image/svg+xml</dc:format>
    <dc:creator>
     <cc:Agent>
      <dc:title>Matplotlib v3.6.2, https://matplotlib.org/</dc:title>
     </cc:Agent>
    </dc:creator>
   </cc:Work>
  </rdf:RDF>
 </metadata>
 <defs>
  <style type="text/css">*{stroke-linejoin: round; stroke-linecap: butt}</style>
 </defs>
 <g id="figure_1">
  <g id="patch_1">
   <path d="M 0 177.409447 
L 332.415097 177.409447 
L 332.415097 0 
L 0 0 
z
" style="fill: #ffffff"/>
  </g>
  <g id="axes_1">
   <g id="patch_2">
    <path d="M 36.279125 145.084197 
L 260.840082 145.084197 
L 260.840082 12.5975 
L 36.279125 12.5975 
z
" style="fill: #ffffff"/>
   </g>
   <g id="matplotlib.axis_1">
    <g id="xtick_1">
     <g id="line2d_1">
      <path d="M 51.439358 145.084197 
L 51.439358 12.5975 
" clip-path="url(#p5e1a371e7b)" style="fill: none; stroke: #b0b0b0; stroke-width: 0.6; stroke-linecap: square"/>
     </g>
     <g id="line2d_2">
      <defs>
       <path id="me1bd0224f6" d="M 0 0 
L 0 4.8 
" style="stroke: #000000"/>
      </defs>
      <g>
       <use xlink:href="#me1bd0224f6" x="51.439358" y="145.084197" style="stroke: #000000"/>
      </g>
     </g>
     <g id="text_1">
      <text style="font: 8.8px 'Futura', sans-serif; text-anchor: middle" x="51.439358" y="160.641447" transform="rotate(-0 51.439358 160.641447)">1000</text>
     </g>
    </g>
    <g id="xtick_2">
     <g id="line2d_3">
      <path d="M 98.815088 145.084197 
L 98.815088 12.5975 
" clip-path="url(#p5e1a371e7b)" style="fill: none; stroke: #b0b0b0; stroke-width: 0.6; stroke-linecap: square"/>
     </g>
     <g id="line2d_4">
      <g>
       <use xlink:href="#me1bd0224f6" x="98.815088" y="145.084197" style="stroke: #000000"/>
      </g>
     </g>
     <g id="text_2">
      <text style="font: 8.8px 'Futura', sans-serif; text-anchor: middle" x="98.815088" y="160.641447" transform="rotate(-0 98.815088 160.641447)">1500</text>
     </g>
    </g>
    <g id="xtick_3">
     <g id="line2d_5">
      <path d="M 146.190817 145.084197 
L 146.190817 12.5975 
" clip-path="url(#p5e1a371e7b)" style="fill: none; stroke: #b0b0b0; stroke-width: 0.6; stroke-linecap: square"/>
     </g>
     <g id="line2d_6">
      <g>
       <use xlink:href="#me1bd0224f6" x="146.190817" y="145.084197" style="stroke: #000000"/>
      </g>
     </g>
     <g id="text_3">
      <text style="font: 8.8px 'Futura', sans-serif; text-anchor: middle" x="146.190817" y="160.641447" transform="rotate(-0 146.190817 160.641447)">2000</text>
     </g>
    </g>
    <g id="xtick_4">
     <g id="line2d_7">
      <path d="M 193.566546 145.084197 
L 193.566546 12.5975 
" clip-path="url(#p5e1a371e7b)" style="fill: none; stroke: #b0b0b0; stroke-width: 0.6; stroke-linecap: square"/>
     </g>
     <g id="line2d_8">
      <g>
       <use xlink:href="#me1bd0224f6" x="193.566546" y="145.084197" style="stroke: #000000"/>
      </g>
     </g>
     <g id="text_4">
      <text style="font: 8.8px 'Futura', sans-serif; text-anchor: middle" x="193.566546" y="160.641447" transform="rotate(-0 193.566546 160.641447)">2500</text>
     </g>
    </g>
    <g id="xtick_5">
     <g id="line2d_9">
      <path d="M 240.942276 145.084197 
L 240.942276 12.5975 
" clip-path="url(#p5e1a371e7b)" style="fill: none; stroke: #b0b0b0; stroke-width: 0.6; stroke-linecap: square"/>
     </g>
     <g id="line2d_10">
      <g>
       <use xlink:href="#me1bd0224f6" x="240.942276" y="145.084197" style="stroke: #000000"/>
      </g>
     </g>
     <g id="text_5">
      <text style="font: 8.8px 'Futura', sans-serif; text-anchor: middle" x="240.942276" y="160.641447" transform="rotate(-0 240.942276 160.641447)">3000</text>
     </g>
    </g>
    <g id="xtick_6">
     <g id="line2d_11">
      <path d="M 41.964213 145.084197 
L 41.964213 12.5975 
" clip-path="url(#p5e1a371e7b)" style="fill: none; stroke: #b0b0b0; stroke-width: 0.3; stroke-linecap: square"/>
     </g>
     <g id="line2d_12">
      <defs>
       <path id="m50059ab756" d="M 0 0 
L 0 3.2 
" style="stroke: #000000; stroke-width: 0.8"/>
      </defs>
      <g>
       <use xlink:href="#m50059ab756" x="41.964213" y="145.084197" style="stroke: #000000; stroke-width: 0.8"/>
      </g>
     </g>
    </g>
    <g id="xtick_7">
     <g id="line2d_13">
      <path d="M 60.914504 145.084197 
L 60.914504 12.5975 
" clip-path="url(#p5e1a371e7b)" style="fill: none; stroke: #b0b0b0; stroke-width: 0.3; stroke-linecap: square"/>
     </g>
     <g id="line2d_14">
      <g>
       <use xlink:href="#m50059ab756" x="60.914504" y="145.084197" style="stroke: #000000; stroke-width: 0.8"/>
      </g>
     </g>
    </g>
    <g id="xtick_8">
     <g id="line2d_15">
      <path d="M 70.38965 145.084197 
L 70.38965 12.5975 
" clip-path="url(#p5e1a371e7b)" style="fill: none; stroke: #b0b0b0; stroke-width: 0.3; stroke-linecap: square"/>
     </g>
     <g id="line2d_16">
      <g>
       <use xlink:href="#m50059ab756" x="70.38965" y="145.084197" style="stroke: #000000; stroke-width: 0.8"/>
      </g>
     </g>
    </g>
    <g id="xtick_9">
     <g id="line2d_17">
      <path d="M 79.864796 145.084197 
L 79.864796 12.5975 
" clip-path="url(#p5e1a371e7b)" style="fill: none; stroke: #b0b0b0; stroke-width: 0.3; stroke-linecap: square"/>
     </g>
     <g id="line2d_18">
      <g>
       <use xlink:href="#m50059ab756" x="79.864796" y="145.084197" style="stroke: #000000; stroke-width: 0.8"/>
      </g>
     </g>
    </g>
    <g id="xtick_10">
     <g id="line2d_19">
      <path d="M 89.339942 145.084197 
L 89.339942 12.5975 
" clip-path="url(#p5e1a371e7b)" style="fill: none; stroke: #b0b0b0; stroke-width: 0.3; stroke-linecap: square"/>
     </g>
     <g id="line2d_20">
      <g>
       <use xlink:href="#m50059ab756" x="89.339942" y="145.084197" style="stroke: #000000; stroke-width: 0.8"/>
      </g>
     </g>
    </g>
    <g id="xtick_11">
     <g id="line2d_21">
      <path d="M 108.290234 145.084197 
L 108.290234 12.5975 
" clip-path="url(#p5e1a371e7b)" style="fill: none; stroke: #b0b0b0; stroke-width: 0.3; stroke-linecap: square"/>
     </g>
     <g id="line2d_22">
      <g>
       <use xlink:href="#m50059ab756" x="108.290234" y="145.084197" style="stroke: #000000; stroke-width: 0.8"/>
      </g>
     </g>
    </g>
    <g id="xtick_12">
     <g id="line2d_23">
      <path d="M 117.765379 145.084197 
L 117.765379 12.5975 
" clip-path="url(#p5e1a371e7b)" style="fill: none; stroke: #b0b0b0; stroke-width: 0.3; stroke-linecap: square"/>
     </g>
     <g id="line2d_24">
      <g>
       <use xlink:href="#m50059ab756" x="117.765379" y="145.084197" style="stroke: #000000; stroke-width: 0.8"/>
      </g>
     </g>
    </g>
    <g id="xtick_13">
     <g id="line2d_25">
      <path d="M 127.240525 145.084197 
L 127.240525 12.5975 
" clip-path="url(#p5e1a371e7b)" style="fill: none; stroke: #b0b0b0; stroke-width: 0.3; stroke-linecap: square"/>
     </g>
     <g id="line2d_26">
      <g>
       <use xlink:href="#m50059ab756" x="127.240525" y="145.084197" style="stroke: #000000; stroke-width: 0.8"/>
      </g>
     </g>
    </g>
    <g id="xtick_14">
     <g id="line2d_27">
      <path d="M 136.715671 145.084197 
L 136.715671 12.5975 
" clip-path="url(#p5e1a371e7b)" style="fill: none; stroke: #b0b0b0; stroke-width: 0.3; stroke-linecap: square"/>
     </g>
     <g id="line2d_28">
      <g>
       <use xlink:href="#m50059ab756" x="136.715671" y="145.084197" style="stroke: #000000; stroke-width: 0.8"/>
      </g>
     </g>
    </g>
    <g id="xtick_15">
     <g id="line2d_29">
      <path d="M 155.665963 145.084197 
L 155.665963 12.5975 
" clip-path="url(#p5e1a371e7b)" style="fill: none; stroke: #b0b0b0; stroke-width: 0.3; stroke-linecap: square"/>
     </g>
     <g id="line2d_30">
      <g>
       <use xlink:href="#m50059ab756" x="155.665963" y="145.084197" style="stroke: #000000; stroke-width: 0.8"/>
      </g>
     </g>
    </g>
    <g id="xtick_16">
     <g id="line2d_31">
      <path d="M 165.141109 145.084197 
L 165.141109 12.5975 
" clip-path="url(#p5e1a371e7b)" style="fill: none; stroke: #b0b0b0; stroke-width: 0.3; stroke-linecap: square"/>
     </g>
     <g id="line2d_32">
      <g>
       <use xlink:href="#m50059ab756" x="165.141109" y="145.084197" style="stroke: #000000; stroke-width: 0.8"/>
      </g>
     </g>
    </g>
    <g id="xtick_17">
     <g id="line2d_33">
      <path d="M 174.616255 145.084197 
L 174.616255 12.5975 
" clip-path="url(#p5e1a371e7b)" style="fill: none; stroke: #b0b0b0; stroke-width: 0.3; stroke-linecap: square"/>
     </g>
     <g id="line2d_34">
      <g>
       <use xlink:href="#m50059ab756" x="174.616255" y="145.084197" style="stroke: #000000; stroke-width: 0.8"/>
      </g>
     </g>
    </g>
    <g id="xtick_18">
     <g id="line2d_35">
      <path d="M 184.091401 145.084197 
L 184.091401 12.5975 
" clip-path="url(#p5e1a371e7b)" style="fill: none; stroke: #b0b0b0; stroke-width: 0.3; stroke-linecap: square"/>
     </g>
     <g id="line2d_36">
      <g>
       <use xlink:href="#m50059ab756" x="184.091401" y="145.084197" style="stroke: #000000; stroke-width: 0.8"/>
      </g>
     </g>
    </g>
    <g id="xtick_19">
     <g id="line2d_37">
      <path d="M 203.041692 145.084197 
L 203.041692 12.5975 
" clip-path="url(#p5e1a371e7b)" style="fill: none; stroke: #b0b0b0; stroke-width: 0.3; stroke-linecap: square"/>
     </g>
     <g id="line2d_38">
      <g>
       <use xlink:href="#m50059ab756" x="203.041692" y="145.084197" style="stroke: #000000; stroke-width: 0.8"/>
      </g>
     </g>
    </g>
    <g id="xtick_20">
     <g id="line2d_39">
      <path d="M 212.516838 145.084197 
L 212.516838 12.5975 
" clip-path="url(#p5e1a371e7b)" style="fill: none; stroke: #b0b0b0; stroke-width: 0.3; stroke-linecap: square"/>
     </g>
     <g id="line2d_40">
      <g>
       <use xlink:href="#m50059ab756" x="212.516838" y="145.084197" style="stroke: #000000; stroke-width: 0.8"/>
      </g>
     </g>
    </g>
    <g id="xtick_21">
     <g id="line2d_41">
      <path d="M 221.991984 145.084197 
L 221.991984 12.5975 
" clip-path="url(#p5e1a371e7b)" style="fill: none; stroke: #b0b0b0; stroke-width: 0.3; stroke-linecap: square"/>
     </g>
     <g id="line2d_42">
      <g>
       <use xlink:href="#m50059ab756" x="221.991984" y="145.084197" style="stroke: #000000; stroke-width: 0.8"/>
      </g>
     </g>
    </g>
    <g id="xtick_22">
     <g id="line2d_43">
      <path d="M 231.46713 145.084197 
L 231.46713 12.5975 
" clip-path="url(#p5e1a371e7b)" style="fill: none; stroke: #b0b0b0; stroke-width: 0.3; stroke-linecap: square"/>
     </g>
     <g id="line2d_44">
      <g>
       <use xlink:href="#m50059ab756" x="231.46713" y="145.084197" style="stroke: #000000; stroke-width: 0.8"/>
      </g>
     </g>
    </g>
    <g id="xtick_23">
     <g id="line2d_45">
      <path d="M 250.417422 145.084197 
L 250.417422 12.5975 
" clip-path="url(#p5e1a371e7b)" style="fill: none; stroke: #b0b0b0; stroke-width: 0.3; stroke-linecap: square"/>
     </g>
     <g id="line2d_46">
      <g>
       <use xlink:href="#m50059ab756" x="250.417422" y="145.084197" style="stroke: #000000; stroke-width: 0.8"/>
      </g>
     </g>
    </g>
    <g id="xtick_24">
     <g id="line2d_47">
      <path d="M 259.892567 145.084197 
L 259.892567 12.5975 
" clip-path="url(#p5e1a371e7b)" style="fill: none; stroke: #b0b0b0; stroke-width: 0.3; stroke-linecap: square"/>
     </g>
     <g id="line2d_48">
      <g>
       <use xlink:href="#m50059ab756" x="259.892567" y="145.084197" style="stroke: #000000; stroke-width: 0.8"/>
      </g>
     </g>
    </g>
    <g id="text_6">
     <text style="font: 9.6px 'Futura', sans-serif; text-anchor: middle" x="148.559604" y="174.914947" transform="rotate(-0 148.559604 174.914947)">Wavelength (nm)</text>
    </g>
   </g>
   <g id="matplotlib.axis_2">
    <g id="ytick_1">
     <g id="line2d_49">
      <defs>
       <path id="m23c99a4806" d="M 0 0 
L -4.8 0 
" style="stroke: #000000"/>
      </defs>
      <g>
       <use xlink:href="#m23c99a4806" x="36.279125" y="145.084197" style="stroke: #000000"/>
      </g>
     </g>
     <g id="text_7">
      <text style="font: 8.8px 'Futura', sans-serif; text-anchor: end" x="27.979125" y="148.712822" transform="rotate(-0 27.979125 148.712822)">0.0</text>
     </g>
    </g>
    <g id="ytick_2">
     <g id="line2d_50">
      <g>
       <use xlink:href="#m23c99a4806" x="36.279125" y="124.507835" style="stroke: #000000"/>
      </g>
     </g>
     <g id="text_8">
      <text style="font: 8.8px 'Futura', sans-serif; text-anchor: end" x="27.979125" y="128.13646" transform="rotate(-0 27.979125 128.13646)">0.5</text>
     </g>
    </g>
    <g id="ytick_3">
     <g id="line2d_51">
      <g>
       <use xlink:href="#m23c99a4806" x="36.279125" y="103.931473" style="stroke: #000000"/>
      </g>
     </g>
     <g id="text_9">
      <text style="font: 8.8px 'Futura', sans-serif; text-anchor: end" x="27.979125" y="107.560098" transform="rotate(-0 27.979125 107.560098)">1.0</text>
     </g>
    </g>
    <g id="ytick_4">
     <g id="line2d_52">
      <g>
       <use xlink:href="#m23c99a4806" x="36.279125" y="83.355111" style="stroke: #000000"/>
      </g>
     </g>
     <g id="text_10">
      <text style="font: 8.8px 'Futura', sans-serif; text-anchor: end" x="27.979125" y="86.983736" transform="rotate(-0 27.979125 86.983736)">1.5</text>
     </g>
    </g>
    <g id="ytick_5">
     <g id="line2d_53">
      <g>
       <use xlink:href="#m23c99a4806" x="36.279125" y="62.77875" style="stroke: #000000"/>
      </g>
     </g>
     <g id="text_11">
      <text style="font: 8.8px 'Futura', sans-serif; text-anchor: end" x="27.979125" y="66.407375" transform="rotate(-0 27.979125 66.407375)">2.0</text>
     </g>
    </g>
    <g id="ytick_6">
     <g id="line2d_54">
      <g>
       <use xlink:href="#m23c99a4806" x="36.279125" y="42.202388" style="stroke: #000000"/>
      </g>
     </g>
     <g id="text_12">
      <text style="font: 8.8px 'Futura', sans-serif; text-anchor: end" x="27.979125" y="45.831013" transform="rotate(-0 27.979125 45.831013)">2.5</text>
     </g>
    </g>
    <g id="ytick_7">
     <g id="line2d_55">
      <g>
       <use xlink:href="#m23c99a4806" x="36.279125" y="21.626026" style="stroke: #000000"/>
      </g>
     </g>
     <g id="text_13">
      <text style="font: 8.8px 'Futura', sans-serif; text-anchor: end" x="27.979125" y="25.254651" transform="rotate(-0 27.979125 25.254651)">3.0</text>
     </g>
    </g>
    <g id="text_14">
     <text style="font: 9.6px 'Futura', sans-serif; text-anchor: middle" x="7.917" y="78.840848" transform="rotate(-90 7.917 78.840848)">Stacked Reflectance</text>
    </g>
   </g>
   <g id="line2d_56">
    <path d="M 37.22664 91.767183 
L 38.363657 91.801883 
L 38.837414 91.943588 
L 40.353438 91.933465 
L 40.637692 91.970987 
L 41.300952 91.755471 
L 42.153715 91.784353 
L 43.195981 91.871513 
L 43.574987 91.841109 
L 44.712005 91.978609 
L 45.849022 92.082396 
L 46.512283 92.680017 
L 46.701785 92.787113 
L 47.270294 92.327223 
L 48.123057 92.560689 
L 49.544329 92.315915 
L 55.039914 91.935391 
L 55.797925 91.907875 
L 57.503452 91.867366 
L 57.977209 91.816945 
L 58.829972 91.785818 
L 59.682735 91.800081 
L 61.104007 91.777612 
L 61.767267 91.75245 
L 64.136054 92.030338 
L 65.462574 92.761187 
L 65.936332 92.992119 
L 66.315337 93.019345 
L 66.883846 92.828751 
L 67.641858 92.56897 
L 69.821141 92.259222 
L 70.38965 92.166818 
L 76.737998 91.960001 
L 77.401258 92.096043 
L 78.254021 92.092199 
L 78.82253 92.015491 
L 79.106784 92.105237 
L 79.580542 92.254892 
L 81.096565 92.410524 
L 81.759825 92.735919 
L 86.497398 95.009606 
L 87.065907 95.755334 
L 87.444913 96.572134 
L 88.013421 100.806495 
L 88.392427 105.791537 
L 89.150439 101.926835 
L 89.339942 101.221856 
L 90.287456 103.05587 
L 90.855965 103.222553 
L 91.424474 102.691553 
L 92.845746 100.893482 
L 93.603757 100.253081 
L 94.456521 99.907324 
L 94.835526 99.920657 
L 95.404035 99.889842 
L 95.68829 99.743733 
L 96.35155 99.1658 
L 97.962325 97.694377 
L 99.194094 96.971267 
L 103.457909 95.294573 
L 105.44769 94.765158 
L 106.679459 94.607281 
L 107.626973 94.414793 
L 108.858742 94.233277 
L 109.522003 94.243433 
L 110.753772 94.083506 
L 111.32228 94.069185 
L 111.890789 93.968541 
L 112.933055 93.84635 
L 113.217309 93.867091 
L 114.070073 93.949965 
L 117.102119 94.038674 
L 119.944663 94.567099 
L 127.240525 96.744359 
L 128.093288 96.882813 
L 129.040803 97.068995 
L 130.462075 97.444638 
L 130.841081 97.493289 
L 131.314838 97.599471 
L 131.978098 97.929227 
L 132.925613 98.737796 
L 133.588873 99.974213 
L 134.725891 102.995713 
L 135.010145 104.352584 
L 135.95766 109.974761 
L 136.62092 113.598423 
L 136.905174 114.455445 
L 137.28418 115.018233 
L 137.757937 114.689867 
L 138.515949 113.237737 
L 139.937221 110.40312 
L 140.50573 109.802446 
L 141.547996 109.078373 
L 142.306007 108.641396 
L 143.727279 107.517145 
L 145.338054 105.972387 
L 147.612089 103.778924 
L 149.507118 102.428579 
L 151.212644 101.731697 
L 153.486679 101.237083 
L 156.423975 101.037633 
L 156.897732 100.979106 
L 158.129501 100.905334 
L 159.36127 100.657324 
L 159.929779 100.600079 
L 163.340831 100.504844 
L 164.288346 100.475528 
L 167.225641 100.664403 
L 168.836416 101.066151 
L 170.44719 101.351208 
L 171.015699 101.65322 
L 171.963214 102.601412 
L 172.436971 103.432072 
L 172.910728 104.751074 
L 173.858243 107.747222 
L 174.237249 108.114444 
L 174.616255 107.933043 
L 175.090012 108.455147 
L 175.848024 111.10605 
L 176.037527 111.578681 
L 176.511284 111.238595 
L 178.027307 106.450993 
L 178.690567 105.808253 
L 178.974822 105.707659 
L 179.827585 105.98405 
L 180.964602 106.815846 
L 181.533111 107.682473 
L 182.76488 109.682231 
L 183.238637 110.013214 
L 183.712395 109.935592 
L 184.375655 109.244087 
L 184.754661 108.917959 
L 185.133667 108.830329 
L 185.702175 109.124735 
L 187.028696 110.178023 
L 187.597204 110.486323 
L 188.070962 110.639271 
L 190.724003 112.206342 
L 191.482014 112.261651 
L 192.050523 112.521753 
L 193.092789 112.999355 
L 194.608812 113.525286 
L 195.272073 113.779512 
L 196.030084 114.016337 
L 196.788096 114.223971 
L 200.199148 114.606209 
L 201.051912 114.628781 
L 201.904675 114.697392 
L 202.283681 114.66765 
L 202.567935 114.768502 
L 202.852189 114.626687 
L 203.325947 114.753827 
L 205.789485 115.055398 
L 206.073739 115.088067 
L 206.357993 115.138355 
L 207.684514 115.617329 
L 208.916283 116.454385 
L 209.484791 117.261254 
L 209.958549 118.210614 
L 211.664075 122.128358 
L 212.043081 122.460678 
L 212.706341 122.772912 
L 212.990595 123.163934 
L 213.369601 124.256997 
L 214.222364 126.977731 
L 214.506619 127.287074 
L 214.696122 127.250094 
L 215.075128 126.786047 
L 216.022642 125.318059 
L 216.685902 125.22766 
L 218.012423 125.443246 
L 219.528446 125.392962 
L 225.308285 125.085388 
L 240.658021 124.61037 
L 242.268796 124.428811 
L 244.827086 124.071491 
L 246.153606 123.906177 
L 251.838693 123.299295 
L 253.733723 122.908747 
L 256.765769 122.187672 
L 259.797816 121.393583 
L 259.797816 121.393583 
" clip-path="url(#p5e1a371e7b)" style="fill: none; stroke: #1f77b4; stroke-width: 0.5; stroke-linecap: square"/>
   </g>
   <g id="line2d_57">
    <path d="M 37.22664 63.51227 
L 38.458409 63.726684 
L 39.405923 63.863377 
L 44.712005 64.238377 
L 47.175543 64.130837 
L 50.397092 63.743005 
L 52.955382 63.257435 
L 55.892677 62.545938 
L 61.388262 61.054752 
L 62.620031 60.722873 
L 63.567545 60.551159 
L 65.746829 60.197088 
L 66.883846 60.001037 
L 67.926112 59.818978 
L 74.463963 59.082533 
L 76.358992 58.991059 
L 79.864796 58.928598 
L 81.854577 58.972754 
L 83.560103 59.023346 
L 86.402647 59.166311 
L 87.634416 59.407392 
L 88.866185 60.460383 
L 90.287456 62.479747 
L 91.14022 62.821068 
L 91.80348 62.85288 
L 92.656243 62.891398 
L 93.319503 62.109521 
L 93.982763 61.189552 
L 94.267018 61.001073 
L 94.835526 60.85796 
L 95.972544 60.651209 
L 97.962325 59.990025 
L 101.373377 59.397442 
L 103.457909 59.198271 
L 110.090511 58.73796 
L 112.459298 58.625006 
L 113.975321 58.575136 
L 117.670628 58.463457 
L 118.807645 58.431793 
L 122.787207 58.432404 
L 127.903786 58.540623 
L 129.135554 58.54146 
L 132.357104 58.664734 
L 133.778376 58.907957 
L 134.441636 59.180073 
L 135.010145 59.613167 
L 135.578654 60.393272 
L 136.052411 61.377143 
L 136.999926 63.432839 
L 137.28418 63.666573 
L 137.757937 63.563943 
L 138.705452 62.6622 
L 139.747718 61.705895 
L 141.074238 60.97103 
L 142.685013 60.471441 
L 145.432805 59.922921 
L 150.92839 59.000279 
L 153.865685 58.860502 
L 159.077015 58.766576 
L 161.919559 58.762339 
L 164.004091 59.029613 
L 166.562381 59.466181 
L 168.173155 60.076681 
L 168.741664 60.076898 
L 170.068185 59.955218 
L 170.541942 60.106436 
L 171.205202 60.627806 
L 171.678959 61.199354 
L 172.910728 62.610317 
L 173.289734 62.72302 
L 173.763492 62.469957 
L 175.753272 60.385823 
L 176.416532 60.212641 
L 177.364047 60.183034 
L 178.88007 60.413652 
L 183.049134 61.723605 
L 184.375655 62.212087 
L 185.133667 62.265722 
L 187.218199 62.170918 
L 189.871239 62.31338 
L 191.766269 62.644386 
L 193.661298 63.096865 
L 195.556327 63.195817 
L 198.209368 63.433739 
L 198.872628 63.497478 
L 199.535888 63.565071 
L 199.914894 63.645458 
L 200.2939 63.678672 
L 200.862409 63.778727 
L 201.62042 63.909567 
L 201.999426 63.979516 
L 202.378432 64.015494 
L 202.567935 63.999751 
L 202.852189 64.291014 
L 203.231195 64.180829 
L 206.073739 65.012569 
L 206.263242 65.099807 
L 206.736999 65.219818 
L 208.06352 65.763329 
L 208.916283 66.245778 
L 209.484791 66.701334 
L 211.853578 69.348265 
L 212.706341 70.769002 
L 213.748607 72.766737 
L 214.790873 74.790498 
L 215.454133 75.599575 
L 216.401648 76.329433 
L 217.349163 76.923134 
L 218.107174 77.208909 
L 221.612978 77.503365 
L 222.560493 77.260831 
L 223.318504 76.838095 
L 225.024031 75.773953 
L 226.2558 75.458307 
L 228.24558 75.19641 
L 231.751384 74.855265 
L 238.289235 74.668053 
L 240.847524 74.471054 
L 255.534 73.389588 
L 259.134556 72.787125 
L 259.797816 72.659389 
L 259.797816 72.659389 
" clip-path="url(#p5e1a371e7b)" style="fill: none; stroke-dasharray: 2,0.75; stroke-dashoffset: 0; stroke: #ff7f0e; stroke-width: 0.5"/>
   </g>
   <g id="line2d_58">
    <path d="M 37.22664 16.643478 
L 38.458409 16.619478 
L 39.500675 16.65654 
L 40.163935 16.591033 
L 41.395704 16.564958 
L 41.869461 16.496258 
L 42.43797 16.477014 
L 43.669739 16.513543 
L 44.617253 16.441871 
L 45.659519 16.379328 
L 45.943774 16.39685 
L 48.217809 16.324866 
L 49.260075 16.291005 
L 50.018087 16.151827 
L 50.87085 16.248206 
L 51.155104 16.213967 
L 51.913116 16.041003 
L 52.576376 16.155966 
L 53.144885 16.164535 
L 53.52389 16.152699 
L 54.092399 16.108278 
L 54.471405 16.073891 
L 55.039914 16.015372 
L 55.608423 15.965709 
L 55.892677 16.006434 
L 56.461186 16.066582 
L 59.398481 15.881321 
L 59.587984 15.890366 
L 60.440747 15.745731 
L 61.483013 15.746455 
L 63.662297 15.697171 
L 64.325557 15.649368 
L 65.083568 15.690192 
L 65.367823 15.744094 
L 65.746829 15.796358 
L 66.410089 15.629014 
L 66.978598 15.499893 
L 67.168101 15.501392 
L 67.831361 15.610371 
L 70.200147 15.351694 
L 72.095176 15.045666 
L 73.705951 15.028399 
L 74.558714 14.954307 
L 75.979986 14.91997 
L 76.643246 14.886751 
L 77.117004 15.020826 
L 77.780264 14.894281 
L 80.717559 14.878265 
L 80.907062 14.877606 
L 81.475571 14.979517 
L 82.04408 15.007197 
L 82.423085 15.003872 
L 82.991594 14.958859 
L 83.749606 14.919295 
L 85.549884 14.924159 
L 86.307895 15.226375 
L 87.539664 15.409844 
L 88.108173 16.13018 
L 88.676682 16.562456 
L 89.150439 17.123688 
L 90.192705 18.714292 
L 90.382208 18.86724 
L 90.855965 18.85147 
L 91.329722 18.337554 
L 91.898231 17.410252 
L 93.13 16.318496 
L 94.172266 16.013595 
L 94.930278 16.066007 
L 95.972544 15.93491 
L 96.730556 15.544165 
L 98.436082 15.15291 
L 99.478348 14.979336 
L 99.952105 14.892618 
L 100.520614 14.883829 
L 103.173655 14.533471 
L 103.742164 14.622854 
L 106.205701 14.403025 
L 106.489956 14.441156 
L 107.058465 14.347395 
L 107.532222 14.364152 
L 108.669239 14.237081 
L 109.048245 14.193063 
L 109.711505 14.177113 
L 113.691067 14.118767 
L 116.438859 13.983876 
L 117.765379 13.980445 
L 121.839692 14.157499 
L 122.787207 14.200479 
L 124.018976 14.266447 
L 130.651578 14.507784 
L 131.693844 14.724065 
L 132.357104 14.742888 
L 132.641358 14.811359 
L 133.967879 15.421563 
L 135.010145 17.323445 
L 135.483902 18.651665 
L 136.052411 21.033272 
L 136.715671 23.792735 
L 137.189428 24.875505 
L 137.757937 24.265999 
L 139.463463 20.55232 
L 140.031972 19.873844 
L 141.453244 19.311573 
L 143.632528 18.63378 
L 148.464852 16.399047 
L 151.117893 15.88775 
L 152.349662 15.766266 
L 153.391928 15.723328 
L 155.286957 15.786102 
L 156.518726 15.75699 
L 156.992483 15.71015 
L 158.224252 15.637788 
L 161.35105 15.904951 
L 162.582819 16.62658 
L 164.288346 18.198722 
L 165.804369 19.838707 
L 166.183375 19.747768 
L 166.846635 19.032452 
L 167.604647 18.184268 
L 169.78393 17.144438 
L 170.44719 16.814985 
L 171.299954 16.61356 
L 172.626474 16.694934 
L 174.711006 17.228266 
L 175.753272 17.480352 
L 177.364047 17.976167 
L 179.353828 18.784984 
L 180.869851 19.445962 
L 182.291123 19.901951 
L 185.702175 21.272196 
L 189.492234 22.846264 
L 190.724003 23.149477 
L 192.145275 23.450756 
L 193.661298 23.839229 
L 195.935333 24.451055 
L 199.535888 24.776105 
L 200.483403 24.823541 
L 201.715172 24.902956 
L 202.378432 24.933937 
L 202.662686 25.032892 
L 202.946941 24.984861 
L 203.610201 25.162097 
L 204.368213 25.253673 
L 208.347774 26.184064 
L 209.674294 26.860465 
L 210.527057 27.900468 
L 211.000815 28.934787 
L 211.474572 30.720799 
L 212.232584 33.667169 
L 212.801092 34.946936 
L 213.369601 35.60486 
L 214.411867 36.67328 
L 215.738388 38.352058 
L 216.496399 38.771343 
L 217.064908 38.927797 
L 217.82292 38.968482 
L 218.865186 38.69949 
L 220.191706 37.967898 
L 220.949718 37.361339 
L 224.645025 33.55944 
L 225.971545 32.891045 
L 226.729557 32.671855 
L 228.529835 32.322716 
L 231.561881 31.887073 
L 233.835916 31.572044 
L 238.762992 30.88332 
L 240.56327 30.63915 
L 246.532612 29.889824 
L 251.080682 29.17573 
L 259.797816 27.359436 
L 259.797816 27.359436 
" clip-path="url(#p5e1a371e7b)" style="fill: none; stroke-dasharray: 0.5,0.5; stroke-dashoffset: 0; stroke: #2ca02c; stroke-width: 0.5"/>
   </g>
   <g id="line2d_59"/>
   <g id="line2d_60"/>
   <g id="line2d_61"/>
   <g id="patch_3">
    <path d="M 36.279125 145.084197 
L 36.279125 12.5975 
" style="fill: none; stroke: #000000; stroke-linejoin: miter; stroke-linecap: square"/>
   </g>
   <g id="patch_4">
    <path d="M 36.279125 145.084197 
L 260.840082 145.084197 
" style="fill: none; stroke: #000000; stroke-linejoin: miter; stroke-linecap: square"/>
   </g>
   <g id="text_15">
    <text style="font: 6px 'Futura', sans-serif; text-anchor: start" x="261.787597" y="123.091395" transform="rotate(-0 261.787597 123.091395)">Saponite LASA58</text>
   </g>
   <g id="text_16">
    <text style="fill: #1f77b4; font: 7px 'Futura', sans-serif; text-anchor: start" x="261.787597" y="110.6846" transform="rotate(-0 261.787597 110.6846)">Saponite</text>
   </g>
   <g id="text_17">
    <text style="font: 6px 'Futura', sans-serif; text-anchor: start" x="261.787597" y="74.357201" transform="rotate(-0 261.787597 74.357201)">Nontronite NCJB26</text>
   </g>
   <g id="text_18">
    <text style="fill: #ff7f0e; font: 7px 'Futura', sans-serif; text-anchor: start" x="261.787597" y="61.950406" transform="rotate(-0 261.787597 61.950406)">Nontronite</text>
   </g>
   <g id="text_19">
    <text style="font: 6px 'Futura', sans-serif; text-anchor: start" x="261.787597" y="29.057248" transform="rotate(-0 261.787597 29.057248)">Montmorillonite LAMO02</text>
   </g>
   <g id="text_20">
    <text style="fill: #2ca02c; font: 7px 'Futura', sans-serif; text-anchor: start" x="261.787597" y="16.650453" transform="rotate(-0 261.787597 16.650453)">Montmorillonite</text>
   </g>
   <g id="text_21">
    <text style="font: 8px 'Futura', sans-serif; text-anchor: middle" x="148.559604" y="6.5975" transform="rotate(-0 148.559604 6.5975)">Smectites Stacked</text>
   </g>
  </g>
 </g>
 <defs>
  <clipPath id="p5e1a371e7b">
   <rect x="36.279125" y="12.5975" width="224.560957" height="132.486697"/>
  </clipPath>
 </defs>
</svg>
