<?xml version="1.0" encoding="utf-8" standalone="no"?>
<!DOCTYPE svg PUBLIC "-//W3C//DTD SVG 1.1//EN"
  "http://www.w3.org/Graphics/SVG/1.1/DTD/svg11.dtd">
<svg xmlns:xlink="http://www.w3.org/1999/xlink" width="332.362078pt" height="177.409447pt" viewBox="0 0 332.362078 177.409447" xmlns="http://www.w3.org/2000/svg" version="1.1">
 <metadata>
  <rdf:RDF xmlns:dc="http://purl.org/dc/elements/1.1/" xmlns:cc="http://creativecommons.org/ns#" xmlns:rdf="http://www.w3.org/1999/02/22-rdf-syntax-ns#">
   <cc:Work>
    <dc:type rdf:resource="http://purl.org/dc/dcmitype/StillImage"/>
    <dc:date>2025-02-15T18:13:58.199047</dc:date>
    <dc:format>image/svg+xml</dc:format>
    <dc:creator>
     <cc:Agent>
      <dc:title>Matplotlib v3.6.2, https://matplotlib.org/</dc:title>
     </cc:Agent>
    </dc:creator>
   </cc:Work>
  </rdf:RDF>
 </metadata>
 <defs>
  <style type="text/css">*{stroke-linejoin: round; stroke-linecap: butt}</style>
 </defs>
 <g id="figure_1">
  <g id="patch_1">
   <path d="M 0 177.409447 
L 332.362078 177.409447 
L 332.362078 0 
L 0 0 
z
" style="fill: #ffffff"/>
  </g>
  <g id="axes_1">
   <g id="patch_2">
    <path d="M 28.13225 145.084197 
L 248.793207 145.084197 
L 248.793207 12.5975 
L 28.13225 12.5975 
z
" style="fill: #ffffff"/>
   </g>
   <g id="matplotlib.axis_1">
    <g id="xtick_1">
     <g id="line2d_1">
      <path d="M 43.029192 145.084197 
L 43.029192 12.5975 
" clip-path="url(#peb0c930d03)" style="fill: none; stroke: #b0b0b0; stroke-width: 0.6; stroke-linecap: square"/>
     </g>
     <g id="line2d_2">
      <defs>
       <path id="m47535f697d" d="M 0 0 
L 0 4.8 
" style="stroke: #000000"/>
      </defs>
      <g>
       <use xlink:href="#m47535f697d" x="43.029192" y="145.084197" style="stroke: #000000"/>
      </g>
     </g>
     <g id="text_1">
      <text style="font: 8.8px 'Futura', sans-serif; text-anchor: middle" x="43.029192" y="160.641447" transform="rotate(-0 43.029192 160.641447)">1000</text>
     </g>
    </g>
    <g id="xtick_2">
     <g id="line2d_3">
      <path d="M 89.582137 145.084197 
L 89.582137 12.5975 
" clip-path="url(#peb0c930d03)" style="fill: none; stroke: #b0b0b0; stroke-width: 0.6; stroke-linecap: square"/>
     </g>
     <g id="line2d_4">
      <g>
       <use xlink:href="#m47535f697d" x="89.582137" y="145.084197" style="stroke: #000000"/>
      </g>
     </g>
     <g id="text_2">
      <text style="font: 8.8px 'Futura', sans-serif; text-anchor: middle" x="89.582137" y="160.641447" transform="rotate(-0 89.582137 160.641447)">1500</text>
     </g>
    </g>
    <g id="xtick_3">
     <g id="line2d_5">
      <path d="M 136.135081 145.084197 
L 136.135081 12.5975 
" clip-path="url(#peb0c930d03)" style="fill: none; stroke: #b0b0b0; stroke-width: 0.6; stroke-linecap: square"/>
     </g>
     <g id="line2d_6">
      <g>
       <use xlink:href="#m47535f697d" x="136.135081" y="145.084197" style="stroke: #000000"/>
      </g>
     </g>
     <g id="text_3">
      <text style="font: 8.8px 'Futura', sans-serif; text-anchor: middle" x="136.135081" y="160.641447" transform="rotate(-0 136.135081 160.641447)">2000</text>
     </g>
    </g>
    <g id="xtick_4">
     <g id="line2d_7">
      <path d="M 182.688026 145.084197 
L 182.688026 12.5975 
" clip-path="url(#peb0c930d03)" style="fill: none; stroke: #b0b0b0; stroke-width: 0.6; stroke-linecap: square"/>
     </g>
     <g id="line2d_8">
      <g>
       <use xlink:href="#m47535f697d" x="182.688026" y="145.084197" style="stroke: #000000"/>
      </g>
     </g>
     <g id="text_4">
      <text style="font: 8.8px 'Futura', sans-serif; text-anchor: middle" x="182.688026" y="160.641447" transform="rotate(-0 182.688026 160.641447)">2500</text>
     </g>
    </g>
    <g id="xtick_5">
     <g id="line2d_9">
      <path d="M 229.24097 145.084197 
L 229.24097 12.5975 
" clip-path="url(#peb0c930d03)" style="fill: none; stroke: #b0b0b0; stroke-width: 0.6; stroke-linecap: square"/>
     </g>
     <g id="line2d_10">
      <g>
       <use xlink:href="#m47535f697d" x="229.24097" y="145.084197" style="stroke: #000000"/>
      </g>
     </g>
     <g id="text_5">
      <text style="font: 8.8px 'Futura', sans-serif; text-anchor: middle" x="229.24097" y="160.641447" transform="rotate(-0 229.24097 160.641447)">3000</text>
     </g>
    </g>
    <g id="xtick_6">
     <g id="line2d_11">
      <path d="M 33.718603 145.084197 
L 33.718603 12.5975 
" clip-path="url(#peb0c930d03)" style="fill: none; stroke: #b0b0b0; stroke-width: 0.3; stroke-linecap: square"/>
     </g>
     <g id="line2d_12">
      <defs>
       <path id="m858d78933b" d="M 0 0 
L 0 3.2 
" style="stroke: #000000; stroke-width: 0.8"/>
      </defs>
      <g>
       <use xlink:href="#m858d78933b" x="33.718603" y="145.084197" style="stroke: #000000; stroke-width: 0.8"/>
      </g>
     </g>
    </g>
    <g id="xtick_7">
     <g id="line2d_13">
      <path d="M 52.339781 145.084197 
L 52.339781 12.5975 
" clip-path="url(#peb0c930d03)" style="fill: none; stroke: #b0b0b0; stroke-width: 0.3; stroke-linecap: square"/>
     </g>
     <g id="line2d_14">
      <g>
       <use xlink:href="#m858d78933b" x="52.339781" y="145.084197" style="stroke: #000000; stroke-width: 0.8"/>
      </g>
     </g>
    </g>
    <g id="xtick_8">
     <g id="line2d_15">
      <path d="M 61.65037 145.084197 
L 61.65037 12.5975 
" clip-path="url(#peb0c930d03)" style="fill: none; stroke: #b0b0b0; stroke-width: 0.3; stroke-linecap: square"/>
     </g>
     <g id="line2d_16">
      <g>
       <use xlink:href="#m858d78933b" x="61.65037" y="145.084197" style="stroke: #000000; stroke-width: 0.8"/>
      </g>
     </g>
    </g>
    <g id="xtick_9">
     <g id="line2d_17">
      <path d="M 70.960959 145.084197 
L 70.960959 12.5975 
" clip-path="url(#peb0c930d03)" style="fill: none; stroke: #b0b0b0; stroke-width: 0.3; stroke-linecap: square"/>
     </g>
     <g id="line2d_18">
      <g>
       <use xlink:href="#m858d78933b" x="70.960959" y="145.084197" style="stroke: #000000; stroke-width: 0.8"/>
      </g>
     </g>
    </g>
    <g id="xtick_10">
     <g id="line2d_19">
      <path d="M 80.271548 145.084197 
L 80.271548 12.5975 
" clip-path="url(#peb0c930d03)" style="fill: none; stroke: #b0b0b0; stroke-width: 0.3; stroke-linecap: square"/>
     </g>
     <g id="line2d_20">
      <g>
       <use xlink:href="#m858d78933b" x="80.271548" y="145.084197" style="stroke: #000000; stroke-width: 0.8"/>
      </g>
     </g>
    </g>
    <g id="xtick_11">
     <g id="line2d_21">
      <path d="M 98.892726 145.084197 
L 98.892726 12.5975 
" clip-path="url(#peb0c930d03)" style="fill: none; stroke: #b0b0b0; stroke-width: 0.3; stroke-linecap: square"/>
     </g>
     <g id="line2d_22">
      <g>
       <use xlink:href="#m858d78933b" x="98.892726" y="145.084197" style="stroke: #000000; stroke-width: 0.8"/>
      </g>
     </g>
    </g>
    <g id="xtick_12">
     <g id="line2d_23">
      <path d="M 108.203315 145.084197 
L 108.203315 12.5975 
" clip-path="url(#peb0c930d03)" style="fill: none; stroke: #b0b0b0; stroke-width: 0.3; stroke-linecap: square"/>
     </g>
     <g id="line2d_24">
      <g>
       <use xlink:href="#m858d78933b" x="108.203315" y="145.084197" style="stroke: #000000; stroke-width: 0.8"/>
      </g>
     </g>
    </g>
    <g id="xtick_13">
     <g id="line2d_25">
      <path d="M 117.513903 145.084197 
L 117.513903 12.5975 
" clip-path="url(#peb0c930d03)" style="fill: none; stroke: #b0b0b0; stroke-width: 0.3; stroke-linecap: square"/>
     </g>
     <g id="line2d_26">
      <g>
       <use xlink:href="#m858d78933b" x="117.513903" y="145.084197" style="stroke: #000000; stroke-width: 0.8"/>
      </g>
     </g>
    </g>
    <g id="xtick_14">
     <g id="line2d_27">
      <path d="M 126.824492 145.084197 
L 126.824492 12.5975 
" clip-path="url(#peb0c930d03)" style="fill: none; stroke: #b0b0b0; stroke-width: 0.3; stroke-linecap: square"/>
     </g>
     <g id="line2d_28">
      <g>
       <use xlink:href="#m858d78933b" x="126.824492" y="145.084197" style="stroke: #000000; stroke-width: 0.8"/>
      </g>
     </g>
    </g>
    <g id="xtick_15">
     <g id="line2d_29">
      <path d="M 145.44567 145.084197 
L 145.44567 12.5975 
" clip-path="url(#peb0c930d03)" style="fill: none; stroke: #b0b0b0; stroke-width: 0.3; stroke-linecap: square"/>
     </g>
     <g id="line2d_30">
      <g>
       <use xlink:href="#m858d78933b" x="145.44567" y="145.084197" style="stroke: #000000; stroke-width: 0.8"/>
      </g>
     </g>
    </g>
    <g id="xtick_16">
     <g id="line2d_31">
      <path d="M 154.756259 145.084197 
L 154.756259 12.5975 
" clip-path="url(#peb0c930d03)" style="fill: none; stroke: #b0b0b0; stroke-width: 0.3; stroke-linecap: square"/>
     </g>
     <g id="line2d_32">
      <g>
       <use xlink:href="#m858d78933b" x="154.756259" y="145.084197" style="stroke: #000000; stroke-width: 0.8"/>
      </g>
     </g>
    </g>
    <g id="xtick_17">
     <g id="line2d_33">
      <path d="M 164.066848 145.084197 
L 164.066848 12.5975 
" clip-path="url(#peb0c930d03)" style="fill: none; stroke: #b0b0b0; stroke-width: 0.3; stroke-linecap: square"/>
     </g>
     <g id="line2d_34">
      <g>
       <use xlink:href="#m858d78933b" x="164.066848" y="145.084197" style="stroke: #000000; stroke-width: 0.8"/>
      </g>
     </g>
    </g>
    <g id="xtick_18">
     <g id="line2d_35">
      <path d="M 173.377437 145.084197 
L 173.377437 12.5975 
" clip-path="url(#peb0c930d03)" style="fill: none; stroke: #b0b0b0; stroke-width: 0.3; stroke-linecap: square"/>
     </g>
     <g id="line2d_36">
      <g>
       <use xlink:href="#m858d78933b" x="173.377437" y="145.084197" style="stroke: #000000; stroke-width: 0.8"/>
      </g>
     </g>
    </g>
    <g id="xtick_19">
     <g id="line2d_37">
      <path d="M 191.998615 145.084197 
L 191.998615 12.5975 
" clip-path="url(#peb0c930d03)" style="fill: none; stroke: #b0b0b0; stroke-width: 0.3; stroke-linecap: square"/>
     </g>
     <g id="line2d_38">
      <g>
       <use xlink:href="#m858d78933b" x="191.998615" y="145.084197" style="stroke: #000000; stroke-width: 0.8"/>
      </g>
     </g>
    </g>
    <g id="xtick_20">
     <g id="line2d_39">
      <path d="M 201.309204 145.084197 
L 201.309204 12.5975 
" clip-path="url(#peb0c930d03)" style="fill: none; stroke: #b0b0b0; stroke-width: 0.3; stroke-linecap: square"/>
     </g>
     <g id="line2d_40">
      <g>
       <use xlink:href="#m858d78933b" x="201.309204" y="145.084197" style="stroke: #000000; stroke-width: 0.8"/>
      </g>
     </g>
    </g>
    <g id="xtick_21">
     <g id="line2d_41">
      <path d="M 210.619793 145.084197 
L 210.619793 12.5975 
" clip-path="url(#peb0c930d03)" style="fill: none; stroke: #b0b0b0; stroke-width: 0.3; stroke-linecap: square"/>
     </g>
     <g id="line2d_42">
      <g>
       <use xlink:href="#m858d78933b" x="210.619793" y="145.084197" style="stroke: #000000; stroke-width: 0.8"/>
      </g>
     </g>
    </g>
    <g id="xtick_22">
     <g id="line2d_43">
      <path d="M 219.930381 145.084197 
L 219.930381 12.5975 
" clip-path="url(#peb0c930d03)" style="fill: none; stroke: #b0b0b0; stroke-width: 0.3; stroke-linecap: square"/>
     </g>
     <g id="line2d_44">
      <g>
       <use xlink:href="#m858d78933b" x="219.930381" y="145.084197" style="stroke: #000000; stroke-width: 0.8"/>
      </g>
     </g>
    </g>
    <g id="xtick_23">
     <g id="line2d_45">
      <path d="M 238.551559 145.084197 
L 238.551559 12.5975 
" clip-path="url(#peb0c930d03)" style="fill: none; stroke: #b0b0b0; stroke-width: 0.3; stroke-linecap: square"/>
     </g>
     <g id="line2d_46">
      <g>
       <use xlink:href="#m858d78933b" x="238.551559" y="145.084197" style="stroke: #000000; stroke-width: 0.8"/>
      </g>
     </g>
    </g>
    <g id="xtick_24">
     <g id="line2d_47">
      <path d="M 247.862148 145.084197 
L 247.862148 12.5975 
" clip-path="url(#peb0c930d03)" style="fill: none; stroke: #b0b0b0; stroke-width: 0.3; stroke-linecap: square"/>
     </g>
     <g id="line2d_48">
      <g>
       <use xlink:href="#m858d78933b" x="247.862148" y="145.084197" style="stroke: #000000; stroke-width: 0.8"/>
      </g>
     </g>
    </g>
    <g id="text_6">
     <text style="font: 9.6px 'Futura', sans-serif; text-anchor: middle" x="138.462729" y="174.914947" transform="rotate(-0 138.462729 174.914947)">Wavelength (nm)</text>
    </g>
   </g>
   <g id="matplotlib.axis_2">
    <g id="ytick_1">
     <g id="line2d_49">
      <defs>
       <path id="m3006618774" d="M 0 0 
L -4.8 0 
" style="stroke: #000000"/>
      </defs>
      <g>
       <use xlink:href="#m3006618774" x="28.13225" y="145.084197" style="stroke: #000000"/>
      </g>
     </g>
     <g id="text_7">
      <text style="font: 8.8px 'Futura', sans-serif; text-anchor: end" x="19.83225" y="148.712822" transform="rotate(-0 19.83225 148.712822)">0</text>
     </g>
    </g>
    <g id="ytick_2">
     <g id="line2d_50">
      <g>
       <use xlink:href="#m3006618774" x="28.13225" y="123.340588" style="stroke: #000000"/>
      </g>
     </g>
     <g id="text_8">
      <text style="font: 8.8px 'Futura', sans-serif; text-anchor: end" x="19.83225" y="126.969213" transform="rotate(-0 19.83225 126.969213)">1</text>
     </g>
    </g>
    <g id="ytick_3">
     <g id="line2d_51">
      <g>
       <use xlink:href="#m3006618774" x="28.13225" y="101.596979" style="stroke: #000000"/>
      </g>
     </g>
     <g id="text_9">
      <text style="font: 8.8px 'Futura', sans-serif; text-anchor: end" x="19.83225" y="105.225604" transform="rotate(-0 19.83225 105.225604)">2</text>
     </g>
    </g>
    <g id="ytick_4">
     <g id="line2d_52">
      <g>
       <use xlink:href="#m3006618774" x="28.13225" y="79.853371" style="stroke: #000000"/>
      </g>
     </g>
     <g id="text_10">
      <text style="font: 8.8px 'Futura', sans-serif; text-anchor: end" x="19.83225" y="83.481996" transform="rotate(-0 19.83225 83.481996)">3</text>
     </g>
    </g>
    <g id="ytick_5">
     <g id="line2d_53">
      <g>
       <use xlink:href="#m3006618774" x="28.13225" y="58.109762" style="stroke: #000000"/>
      </g>
     </g>
     <g id="text_11">
      <text style="font: 8.8px 'Futura', sans-serif; text-anchor: end" x="19.83225" y="61.738387" transform="rotate(-0 19.83225 61.738387)">4</text>
     </g>
    </g>
    <g id="ytick_6">
     <g id="line2d_54">
      <g>
       <use xlink:href="#m3006618774" x="28.13225" y="36.366153" style="stroke: #000000"/>
      </g>
     </g>
     <g id="text_12">
      <text style="font: 8.8px 'Futura', sans-serif; text-anchor: end" x="19.83225" y="39.994778" transform="rotate(-0 19.83225 39.994778)">5</text>
     </g>
    </g>
    <g id="ytick_7">
     <g id="line2d_55">
      <g>
       <use xlink:href="#m3006618774" x="28.13225" y="14.622544" style="stroke: #000000"/>
      </g>
     </g>
     <g id="text_13">
      <text style="font: 8.8px 'Futura', sans-serif; text-anchor: end" x="19.83225" y="18.251169" transform="rotate(-0 19.83225 18.251169)">6</text>
     </g>
    </g>
    <g id="text_14">
     <text style="font: 9.6px 'Futura', sans-serif; text-anchor: middle" x="7.917" y="78.840848" transform="rotate(-90 7.917 78.840848)">Stacked Reflectance</text>
    </g>
   </g>
   <g id="line2d_56">
    <path d="M 29.063309 14.393415 
L 30.646109 14.421634 
L 36.604886 14.356751 
L 38.56011 14.352768 
L 40.236016 14.419725 
L 42.005027 14.705893 
L 43.122298 14.825135 
L 44.611992 14.576731 
L 47.591381 14.102751 
L 53.457052 14.020277 
L 55.226064 13.940644 
L 57.181287 13.93382 
L 63.512488 14.279196 
L 65.002182 14.609768 
L 66.771194 14.953161 
L 67.888465 15.603316 
L 68.353994 15.505449 
L 69.564371 14.740465 
L 70.309218 14.419908 
L 71.054065 14.36891 
L 72.171336 14.471601 
L 72.729971 14.70978 
L 73.009289 14.76624 
L 73.754136 14.854031 
L 74.405877 15.24055 
L 74.964512 15.243864 
L 75.616253 15.217172 
L 76.640418 15.177855 
L 77.664583 14.969077 
L 79.99223 15.565091 
L 80.643971 15.995754 
L 81.202607 16.551468 
L 81.668136 17.10556 
L 82.226772 19.14471 
L 82.599195 21.62971 
L 83.15783 20.725824 
L 83.995783 18.540442 
L 84.554419 18.709278 
L 85.299266 19.538788 
L 85.671689 19.844012 
L 86.044113 19.974613 
L 86.323431 19.985872 
L 86.78896 20.670468 
L 87.347595 23.075364 
L 87.720019 23.543756 
L 88.37176 19.745735 
L 88.744184 18.828159 
L 89.489031 18.324629 
L 89.861454 18.037901 
L 90.42009 17.432672 
L 90.792513 17.150026 
L 91.53736 16.816449 
L 92.375313 16.674885 
L 95.261596 16.408435 
L 102.523855 16.654428 
L 104.572185 16.775383 
L 108.668844 17.410754 
L 109.786115 17.724827 
L 110.624068 18.189314 
L 113.789668 20.546487 
L 114.534515 20.72228 
L 114.813833 20.66419 
L 115.744892 19.952626 
L 116.582845 18.908563 
L 117.420798 17.983454 
L 117.793221 17.789154 
L 118.538068 17.596292 
L 120.027762 17.559297 
L 121.88988 17.722509 
L 124.217527 18.11069 
L 129.803881 20.300119 
L 133.435011 20.804957 
L 134.459175 20.777987 
L 135.297128 21.007338 
L 137.159246 21.758271 
L 138.276517 21.741094 
L 139.11447 21.830055 
L 142.559388 22.447122 
L 144.421505 22.526473 
L 145.073247 22.776441 
L 146.097411 23.413304 
L 146.749153 24.058629 
L 148.518165 25.928645 
L 150.380282 27.016268 
L 150.752706 27.284916 
L 151.218235 27.381083 
L 151.776871 27.425036 
L 152.056188 27.42576 
L 152.521718 27.292248 
L 152.987247 27.411532 
L 153.452777 27.19194 
L 154.756259 25.378129 
L 154.849365 25.48606 
L 155.687318 26.431385 
L 156.245953 25.474658 
L 157.083906 23.098847 
L 157.828753 22.280422 
L 158.294283 22.051613 
L 159.411554 21.780279 
L 162.67026 22.03885 
L 163.694424 22.409691 
L 164.346166 22.859709 
L 164.718589 23.3238 
L 166.022072 25.176538 
L 166.487601 25.097701 
L 167.511766 24.10115 
L 168.256613 23.446381 
L 169.094566 23.218964 
L 169.746307 23.247839 
L 170.58426 23.613114 
L 171.422213 24.518219 
L 172.260166 25.780223 
L 172.818802 26.404809 
L 173.098119 26.554291 
L 173.842966 26.687429 
L 174.680919 26.953075 
L 175.146449 27.278118 
L 176.263719 28.001679 
L 176.729249 28.013438 
L 177.939625 27.447657 
L 178.405155 27.466312 
L 178.684473 27.577195 
L 179.894849 28.162122 
L 181.477649 27.595801 
L 181.943179 27.938347 
L 183.805296 29.692963 
L 184.17772 29.724159 
L 184.736355 29.318355 
L 185.76052 28.308768 
L 187.529532 27.655512 
L 187.995061 27.749067 
L 189.019226 27.895425 
L 189.39165 27.848308 
L 190.788238 27.836331 
L 191.439979 27.412697 
L 191.626191 27.197479 
L 191.812403 27.228122 
L 192.55725 26.97576 
L 192.929674 27.040499 
L 193.488309 26.713013 
L 193.767627 26.608921 
L 194.326262 26.554171 
L 195.071109 26.283614 
L 196.374592 26.042746 
L 197.026333 26.618947 
L 197.491862 27.063803 
L 198.702239 27.483484 
L 198.981556 27.691378 
L 199.447086 27.824622 
L 199.819509 27.812453 
L 200.843674 27.568831 
L 201.681627 28.050747 
L 205.871392 31.329749 
L 206.709345 31.683667 
L 207.361086 32.059336 
L 208.105934 32.396072 
L 208.943887 32.544588 
L 213.971605 32.876679 
L 214.623346 32.490577 
L 215.088875 32.552408 
L 215.647511 32.672513 
L 215.833722 32.571599 
L 216.11304 32.091147 
L 216.671675 30.884017 
L 216.857887 30.815253 
L 217.137205 31.063082 
L 217.788946 31.869613 
L 218.533793 32.209099 
L 219.557958 32.381206 
L 220.768334 32.482631 
L 223.282193 32.529432 
L 224.678782 32.536799 
L 228.216806 32.493522 
L 247.769042 32.128422 
L 247.769042 32.128422 
" clip-path="url(#peb0c930d03)" style="fill: none; stroke: #1f77b4; stroke-width: 0.5; stroke-linecap: square"/>
   </g>
   <g id="line2d_57">
    <path d="M 29.063309 36.684 
L 39.770486 37.041354 
L 40.794651 37.149992 
L 43.029192 36.952277 
L 45.077522 36.838342 
L 49.919028 36.766959 
L 52.432887 36.856885 
L 56.622652 37.212732 
L 57.274393 37.448041 
L 58.670982 38.115011 
L 59.043405 38.025706 
L 60.346888 37.529598 
L 61.743476 37.443445 
L 62.674535 37.412189 
L 64.629759 37.274236 
L 65.560817 37.217737 
L 68.912629 37.239095 
L 71.892018 37.487085 
L 73.1955 37.763693 
L 73.940347 38.11203 
L 75.057618 38.584953 
L 75.523148 38.576384 
L 77.012842 38.576347 
L 77.943901 38.885185 
L 78.688748 39.465737 
L 79.712913 40.39926 
L 80.271548 40.605908 
L 80.923289 41.060602 
L 82.692301 42.896384 
L 83.15783 42.884695 
L 83.995783 42.305087 
L 86.137219 40.787349 
L 86.509642 40.787166 
L 87.533807 40.969221 
L 87.906231 40.759037 
L 88.557972 40.33357 
L 90.326984 39.579447 
L 91.351149 39.358488 
L 92.375313 39.345272 
L 93.678796 39.294263 
L 94.423643 39.071905 
L 95.913337 38.738145 
L 97.775455 38.536444 
L 98.520302 38.46181 
L 99.730679 38.325425 
L 101.406585 38.230025 
L 103.641126 38.140108 
L 104.479079 38.186696 
L 106.806726 38.491637 
L 108.389526 38.723579 
L 110.065432 39.211423 
L 111.368915 39.762317 
L 113.603456 40.655691 
L 114.627621 40.851312 
L 115.837997 40.862359 
L 118.165645 40.224688 
L 119.562233 39.962084 
L 120.493292 39.980743 
L 121.331245 40.137958 
L 122.727833 40.593107 
L 123.93821 41.284688 
L 124.869269 42.149779 
L 125.707222 43.262994 
L 126.545175 44.835888 
L 127.848657 48.462612 
L 128.314187 49.674355 
L 129.15214 50.216998 
L 130.26941 48.342733 
L 131.85221 47.067842 
L 132.503952 46.351021 
L 133.062587 45.838882 
L 134.924705 44.860656 
L 136.135081 43.714622 
L 136.879928 43.025417 
L 138.183411 42.355995 
L 138.928258 42.142891 
L 140.324846 41.96559 
L 142.000752 42.062807 
L 144.049082 42.45804 
L 146.004306 42.844281 
L 150.380282 42.913762 
L 162.297836 44.560158 
L 163.508213 44.499288 
L 164.25306 44.534075 
L 165.556542 44.510234 
L 166.860025 44.581866 
L 168.629037 45.015533 
L 170.304943 45.736206 
L 171.980849 46.495554 
L 174.21539 47.802017 
L 176.263719 49.044323 
L 177.753414 49.769633 
L 179.894849 50.501567 
L 182.688026 50.747774 
L 188.088167 49.978409 
L 188.088167 49.978409 
" clip-path="url(#peb0c930d03)" style="fill: none; stroke: #1f77b4; stroke-width: 0.5; stroke-linecap: square"/>
   </g>
   <g id="line2d_58">
    <path d="M 29.063309 54.105351 
L 29.901262 54.172235 
L 31.111638 54.181715 
L 32.322015 54.1294 
L 35.953145 54.199678 
L 37.163521 54.190852 
L 38.09458 54.235706 
L 42.191239 54.556058 
L 43.122298 54.584404 
L 47.032745 54.223463 
L 48.150016 54.19774 
L 50.570769 54.188794 
L 51.594934 54.226377 
L 52.991522 54.240044 
L 56.250228 54.386418 
L 57.274393 54.563842 
L 59.695146 55.228918 
L 62.488323 55.365728 
L 62.860747 55.294392 
L 63.6987 55.171497 
L 65.653923 55.003417 
L 67.050512 54.86489 
L 69.098841 54.824939 
L 71.892018 54.872805 
L 73.754136 55.143374 
L 79.247383 56.322318 
L 79.899124 56.413565 
L 81.016395 56.975278 
L 82.04056 57.836098 
L 82.971619 58.638683 
L 83.344042 58.959916 
L 83.716466 59.443078 
L 84.554419 60.742438 
L 84.926842 60.784183 
L 85.857901 59.678154 
L 87.068278 59.299107 
L 87.906231 59.266997 
L 88.464866 59.464134 
L 88.83729 59.548337 
L 89.209713 59.457302 
L 90.885619 58.399391 
L 91.258043 58.380859 
L 92.468419 58.534409 
L 93.306372 58.648352 
L 94.144325 58.291345 
L 96.285761 57.175809 
L 97.030608 56.947723 
L 101.034161 55.951346 
L 102.244538 55.725439 
L 103.734232 55.498328 
L 105.59635 55.352561 
L 106.71362 55.441713 
L 108.389526 55.848351 
L 109.879221 56.693326 
L 112.486185 58.448983 
L 113.231033 58.544682 
L 113.603456 58.455093 
L 114.906939 58.153759 
L 116.396633 57.804494 
L 119.003598 56.956086 
L 120.679504 56.825589 
L 121.610563 56.933013 
L 122.820939 57.27748 
L 123.658892 57.791672 
L 124.217527 58.279563 
L 126.545175 61.273485 
L 127.383128 62.484572 
L 128.872822 64.834512 
L 130.641834 67.919284 
L 131.200469 68.070368 
L 131.572893 67.952047 
L 132.038422 67.47032 
L 132.876375 66.148386 
L 134.831599 65.197154 
L 135.390234 64.647495 
L 135.855764 63.847332 
L 137.06614 61.472949 
L 138.090305 60.439845 
L 139.393787 59.781853 
L 140.883482 59.408469 
L 141.814541 59.387179 
L 143.304235 59.427897 
L 144.3284 59.477863 
L 145.9112 59.821691 
L 153.359671 61.605017 
L 154.849365 61.812982 
L 156.432165 62.308032 
L 156.897695 62.276788 
L 157.363224 62.062283 
L 158.201177 61.672316 
L 159.132236 61.498306 
L 160.342612 61.59577 
L 161.552989 61.745003 
L 161.925413 61.612831 
L 162.763366 61.250141 
L 164.159954 60.973104 
L 166.115178 60.97926 
L 167.604872 61.160046 
L 169.280778 61.689084 
L 171.142896 62.652296 
L 172.63259 63.854075 
L 174.867131 65.852416 
L 175.79819 66.224437 
L 177.660308 66.567102 
L 178.96379 66.730012 
L 181.756967 67.236513 
L 184.084614 66.952879 
L 185.201885 66.78977 
L 186.505367 66.774681 
L 188.181273 66.903241 
L 188.92612 66.93784 
L 190.788238 67.052832 
L 191.905509 67.097987 
L 192.371038 67.119449 
L 195.164215 67.313747 
L 196.374592 67.531909 
L 197.584968 67.845753 
L 201.495415 69.4437 
L 202.798898 70.323803 
L 203.450639 70.753076 
L 207.174875 72.94006 
L 208.850781 73.334922 
L 210.061157 73.487321 
L 217.416522 73.842166 
L 218.813111 73.75199 
L 220.86144 73.629345 
L 223.002876 73.520567 
L 224.49257 73.551905 
L 226.07537 73.498786 
L 227.192641 73.449066 
L 230.078923 73.282932 
L 238.365347 72.657813 
L 240.134359 72.295855 
L 241.624054 72.083165 
L 243.486171 71.64769 
L 247.769042 70.437097 
L 247.769042 70.437097 
" clip-path="url(#peb0c930d03)" style="fill: none; stroke: #1f77b4; stroke-width: 0.5; stroke-linecap: square"/>
   </g>
   <g id="line2d_59">
    <path d="M 29.063309 84.743277 
L 30.832321 85.138893 
L 32.042697 85.333268 
L 32.88065 85.371024 
L 33.532392 85.404943 
L 34.277239 85.478646 
L 35.860039 85.474436 
L 40.236016 85.078541 
L 42.098133 84.682481 
L 44.798204 84.036496 
L 47.312063 83.252118 
L 49.63971 82.47788 
L 51.501828 81.871064 
L 53.550158 81.203652 
L 58.01924 79.939704 
L 60.06757 79.455353 
L 66.8643 77.926934 
L 68.074676 77.702009 
L 78.223218 75.959855 
L 78.595642 75.889448 
L 79.154277 75.740853 
L 84.275101 75.482491 
L 85.299266 75.666773 
L 85.857901 75.955054 
L 87.720019 77.477563 
L 88.278654 76.903483 
L 88.83729 76.124349 
L 89.302819 75.91161 
L 90.792513 75.792385 
L 91.816678 75.892401 
L 94.702961 75.952379 
L 101.592796 75.225912 
L 104.572185 75.18617 
L 105.503244 75.241268 
L 108.855056 75.120165 
L 110.624068 75.136972 
L 117.234586 75.432455 
L 118.258751 75.549462 
L 119.562233 75.869301 
L 120.213974 76.177882 
L 120.77261 76.599056 
L 121.703668 77.772667 
L 122.262304 77.773276 
L 123.007151 77.482242 
L 123.379574 77.30845 
L 123.845104 76.950254 
L 125.148586 75.896537 
L 125.893433 75.641771 
L 127.290022 75.702741 
L 131.945316 76.184493 
L 139.207576 76.426894 
L 140.511058 76.626231 
L 146.562941 77.142855 
L 150.380282 77.781769 
L 153.452777 78.273474 
L 155.501106 78.876599 
L 157.828753 79.682734 
L 159.411554 80.036069 
L 160.249507 80.910235 
L 160.808142 81.476713 
L 161.459883 81.538834 
L 162.111624 81.24263 
L 162.297836 81.071543 
L 163.78753 79.316994 
L 164.25306 79.201558 
L 164.904801 79.127173 
L 165.091013 79.012571 
L 166.115178 78.139573 
L 167.046236 77.876893 
L 168.349719 77.843412 
L 169.280778 77.997035 
L 170.398048 78.423723 
L 172.073954 79.439246 
L 174.122284 81.097339 
L 174.867131 81.3298 
L 177.194778 81.223048 
L 178.032731 81.600869 
L 179.056896 82.247341 
L 179.801743 82.305406 
L 180.174167 82.183598 
L 180.919014 81.974168 
L 181.850073 81.936116 
L 182.688026 82.190142 
L 183.712191 83.195823 
L 184.270826 83.639671 
L 184.643249 83.667599 
L 185.481202 83.279912 
L 188.181273 83.100453 
L 188.739909 83.139023 
L 189.39165 83.288733 
L 191.346873 84.134938 
L 191.626191 84.258903 
L 191.905509 84.354212 
L 192.743462 84.792067 
L 193.302097 84.961861 
L 194.512474 84.99566 
L 198.516027 83.699904 
L 198.609133 83.721987 
L 198.888451 83.559547 
L 199.540192 83.452133 
L 200.191933 83.27376 
L 201.029886 82.984986 
L 201.681627 83.022589 
L 202.705792 83.37828 
L 203.729957 83.949872 
L 204.009274 84.075794 
L 205.219651 84.833047 
L 205.592075 85.050226 
L 207.361086 86.561071 
L 208.664569 87.76449 
L 209.874945 88.678656 
L 210.712898 88.964478 
L 211.830169 89.265143 
L 212.94744 89.851181 
L 214.902663 91.104586 
L 216.671675 91.73251 
L 220.582123 92.950593 
L 223.468405 93.306023 
L 225.796052 93.406375 
L 228.589229 93.120148 
L 229.985817 93.009302 
L 235.479065 92.757516 
L 237.713606 92.526161 
L 242.555112 92.328409 
L 244.696548 92.259799 
L 247.303513 92.208375 
L 247.769042 92.16242 
L 247.769042 92.16242 
" clip-path="url(#peb0c930d03)" style="fill: none; stroke: #1f77b4; stroke-width: 0.5; stroke-linecap: square"/>
   </g>
   <g id="line2d_60">
    <path d="M 29.063309 95.409519 
L 32.135803 95.337291 
L 40.887757 95.622536 
L 44.89131 95.709059 
L 48.987969 95.494898 
L 51.22251 95.377656 
L 54.760534 95.32655 
L 56.90197 95.560863 
L 60.439993 96.147827 
L 69.657477 97.291228 
L 73.009289 97.562892 
L 74.871406 97.912852 
L 79.340489 99.15503 
L 80.45776 99.844615 
L 81.854348 101.07847 
L 82.785407 101.784754 
L 84.088889 102.476932 
L 85.764795 103.118789 
L 87.720019 103.593117 
L 90.047666 103.926077 
L 93.399478 104.833047 
L 94.237431 104.991818 
L 96.378867 104.866462 
L 98.054773 105.017546 
L 101.034161 105.224253 
L 108.29642 105.061855 
L 110.34475 105.005991 
L 115.744892 104.403532 
L 120.213974 103.902411 
L 121.796774 103.977884 
L 123.286469 104.287943 
L 124.124422 104.624126 
L 127.196916 107.296106 
L 128.034869 108.006161 
L 128.965928 108.567429 
L 129.617669 108.768401 
L 131.107363 109.131406 
L 133.155693 109.820791 
L 133.993646 109.793647 
L 137.252352 109.567704 
L 138.555834 109.81289 
L 141.535223 110.588828 
L 142.745599 110.622674 
L 147.121576 110.644331 
L 149.169906 110.738198 
L 150.100965 110.389713 
L 151.311341 109.46414 
L 152.70793 108.441394 
L 153.545883 108.054884 
L 154.756259 107.729622 
L 159.877083 107.316037 
L 161.273671 107.394161 
L 168.815248 108.83865 
L 171.142896 109.716596 
L 173.563649 110.813761 
L 174.122284 110.691675 
L 176.077508 110.066098 
L 177.008567 110.057631 
L 179.150002 110.279602 
L 182.501814 110.748893 
L 184.736355 110.989163 
L 192.836568 111.532014 
L 201.681627 112.148798 
L 206.243816 113.054964 
L 208.292145 113.406538 
L 214.53024 113.690165 
L 242.83443 113.671632 
L 247.769042 113.638868 
L 247.769042 113.638868 
" clip-path="url(#peb0c930d03)" style="fill: none; stroke: #1f77b4; stroke-width: 0.5; stroke-linecap: square"/>
   </g>
   <g id="line2d_61">
    <path d="M 29.063309 114.712606 
L 30.553003 114.712858 
L 32.322015 114.720108 
L 36.977309 114.808148 
L 40.701545 115.28429 
L 41.632604 115.336561 
L 44.425781 115.168547 
L 51.22251 114.802955 
L 54.108793 114.906894 
L 55.970911 115.072759 
L 57.367499 115.429867 
L 59.60204 116.072374 
L 63.884911 116.17816 
L 72.636865 116.194804 
L 78.223218 116.741338 
L 79.619807 117.079303 
L 80.550866 117.516566 
L 82.04056 118.48176 
L 82.971619 118.940037 
L 83.716466 119.128665 
L 84.461313 119.124575 
L 87.906231 118.635247 
L 92.00289 117.885426 
L 95.820231 117.600869 
L 102.430749 117.368334 
L 107.086044 117.409876 
L 110.624068 117.584788 
L 114.534515 117.669537 
L 121.610563 117.911359 
L 122.914045 118.125664 
L 124.031316 118.474556 
L 125.241692 119.202691 
L 126.079645 119.968541 
L 126.824492 120.914165 
L 128.779716 123.854717 
L 129.617669 124.448882 
L 130.455622 124.533938 
L 130.921152 124.421009 
L 131.665999 124.104039 
L 135.669552 122.364201 
L 138.090305 121.490824 
L 140.69727 120.897477 
L 145.073247 120.272146 
L 150.473388 119.861213 
L 156.711483 119.634201 
L 159.597765 119.784412 
L 161.925413 120.151432 
L 164.346166 120.745424 
L 166.301389 121.467598 
L 167.697978 122.180498 
L 172.725696 124.885795 
L 174.122284 125.292599 
L 175.611978 125.498745 
L 178.591367 125.613009 
L 181.850073 125.887384 
L 186.505367 126.480632 
L 189.670967 126.63502 
L 193.488309 126.917804 
L 195.815956 127.414519 
L 197.678074 128.068677 
L 199.167768 128.782473 
L 200.285039 129.471231 
L 202.612686 131.25568 
L 206.057604 133.95239 
L 207.174875 134.437541 
L 208.478357 134.728171 
L 209.688734 134.836055 
L 212.109487 134.930538 
L 227.844382 134.673169 
L 231.103088 134.525215 
L 236.689441 134.329865 
L 239.017089 134.169063 
L 244.231018 133.667487 
L 247.769042 133.258198 
L 247.769042 133.258198 
" clip-path="url(#peb0c930d03)" style="fill: none; stroke: #1f77b4; stroke-width: 0.5; stroke-linecap: square"/>
   </g>
   <g id="line2d_62"/>
   <g id="patch_3">
    <path d="M 28.13225 145.084197 
L 28.13225 12.5975 
" style="fill: none; stroke: #000000; stroke-linejoin: miter; stroke-linecap: square"/>
   </g>
   <g id="patch_4">
    <path d="M 28.13225 145.084197 
L 248.793207 145.084197 
" style="fill: none; stroke: #000000; stroke-linejoin: miter; stroke-linecap: square"/>
   </g>
   <g id="text_15">
    <text style="font: 6px 'Futura', sans-serif; text-anchor: start" x="249.724266" y="134.95273" transform="rotate(-0 249.724266 134.95273)">Magnesium-sulphate 799F366</text>
   </g>
   <g id="text_16">
    <text style="font: 6px 'Futura', sans-serif; text-anchor: start" x="249.724266" y="115.33668" transform="rotate(-0 249.724266 115.33668)">Kieserite F1CC15</text>
   </g>
   <g id="text_17">
    <text style="font: 6px 'Futura', sans-serif; text-anchor: start" x="249.724266" y="93.860232" transform="rotate(-0 249.724266 93.860232)">Jarosite LASF21A</text>
   </g>
   <g id="text_18">
    <text style="font: 6px 'Futura', sans-serif; text-anchor: start" x="249.724266" y="72.13491" transform="rotate(-0 249.724266 72.13491)">Gypsum LASF41A</text>
   </g>
   <g id="text_19">
    <text style="font: 6px 'Futura', sans-serif; text-anchor: start" x="249.724266" y="51.676222" transform="rotate(-0 249.724266 51.676222)">Bassanite GDS145</text>
   </g>
   <g id="text_20">
    <text style="font: 6px 'Futura', sans-serif; text-anchor: start" x="249.724266" y="33.826235" transform="rotate(-0 249.724266 33.826235)">Alunite F1CC08B</text>
   </g>
   <g id="text_21">
    <text style="fill: #1f77b4; font: 7px 'Futura', sans-serif; text-anchor: start" x="249.724266" y="25.249914" transform="rotate(-0 249.724266 25.249914)">Sulphates</text>
   </g>
   <g id="text_22">
    <text style="font: 8px 'Futura', sans-serif; text-anchor: middle" x="138.462729" y="6.5975" transform="rotate(-0 138.462729 6.5975)">Sulfates Stacked</text>
   </g>
  </g>
 </g>
 <defs>
  <clipPath id="peb0c930d03">
   <rect x="28.13225" y="12.5975" width="220.660957" height="132.486697"/>
  </clipPath>
 </defs>
</svg>
