<?xml version="1.0" encoding="utf-8" standalone="no"?>
<!DOCTYPE svg PUBLIC "-//W3C//DTD SVG 1.1//EN"
  "http://www.w3.org/Graphics/SVG/1.1/DTD/svg11.dtd">
<svg xmlns:xlink="http://www.w3.org/1999/xlink" width="337.947466pt" height="175.180281pt" viewBox="0 0 337.947466 175.180281" xmlns="http://www.w3.org/2000/svg" version="1.1">
 <metadata>
  <rdf:RDF xmlns:dc="http://purl.org/dc/elements/1.1/" xmlns:cc="http://creativecommons.org/ns#" xmlns:rdf="http://www.w3.org/1999/02/22-rdf-syntax-ns#">
   <cc:Work>
    <dc:type rdf:resource="http://purl.org/dc/dcmitype/StillImage"/>
    <dc:date>2025-02-15T18:14:03.196054</dc:date>
    <dc:format>image/svg+xml</dc:format>
    <dc:creator>
     <cc:Agent>
      <dc:title>Matplotlib v3.6.2, https://matplotlib.org/</dc:title>
     </cc:Agent>
    </dc:creator>
   </cc:Work>
  </rdf:RDF>
 </metadata>
 <defs>
  <style type="text/css">*{stroke-linejoin: round; stroke-linecap: butt}</style>
 </defs>
 <g id="figure_1">
  <g id="patch_1">
   <path d="M 0 175.180281 
L 337.947466 175.180281 
L 337.947466 0 
L 0 0 
z
" style="fill: #ffffff"/>
  </g>
  <g id="axes_1">
   <g id="patch_2">
    <path d="M 41.710375 142.855031 
L 281.571332 142.855031 
L 281.571332 17.769582 
L 41.710375 17.769582 
z
" style="fill: #ffffff"/>
   </g>
   <g id="matplotlib.axis_1">
    <g id="xtick_1">
     <g id="line2d_1">
      <path d="M 57.90352 142.855031 
L 57.90352 17.769582 
" clip-path="url(#p75c8fd532b)" style="fill: none; stroke: #b0b0b0; stroke-width: 0.6; stroke-linecap: square"/>
     </g>
     <g id="line2d_2">
      <defs>
       <path id="mfafbc1ab49" d="M 0 0 
L 0 4.8 
" style="stroke: #000000"/>
      </defs>
      <g>
       <use xlink:href="#mfafbc1ab49" x="57.90352" y="142.855031" style="stroke: #000000"/>
      </g>
     </g>
     <g id="text_1">
      <text style="font: 8.8px 'Futura', sans-serif; text-anchor: middle" x="57.90352" y="158.412281" transform="rotate(-0 57.90352 158.412281)">1000</text>
     </g>
    </g>
    <g id="xtick_2">
     <g id="line2d_3">
      <path d="M 108.507097 142.855031 
L 108.507097 17.769582 
" clip-path="url(#p75c8fd532b)" style="fill: none; stroke: #b0b0b0; stroke-width: 0.6; stroke-linecap: square"/>
     </g>
     <g id="line2d_4">
      <g>
       <use xlink:href="#mfafbc1ab49" x="108.507097" y="142.855031" style="stroke: #000000"/>
      </g>
     </g>
     <g id="text_2">
      <text style="font: 8.8px 'Futura', sans-serif; text-anchor: middle" x="108.507097" y="158.412281" transform="rotate(-0 108.507097 158.412281)">1500</text>
     </g>
    </g>
    <g id="xtick_3">
     <g id="line2d_5">
      <path d="M 159.110675 142.855031 
L 159.110675 17.769582 
" clip-path="url(#p75c8fd532b)" style="fill: none; stroke: #b0b0b0; stroke-width: 0.6; stroke-linecap: square"/>
     </g>
     <g id="line2d_6">
      <g>
       <use xlink:href="#mfafbc1ab49" x="159.110675" y="142.855031" style="stroke: #000000"/>
      </g>
     </g>
     <g id="text_3">
      <text style="font: 8.8px 'Futura', sans-serif; text-anchor: middle" x="159.110675" y="158.412281" transform="rotate(-0 159.110675 158.412281)">2000</text>
     </g>
    </g>
    <g id="xtick_4">
     <g id="line2d_7">
      <path d="M 209.714252 142.855031 
L 209.714252 17.769582 
" clip-path="url(#p75c8fd532b)" style="fill: none; stroke: #b0b0b0; stroke-width: 0.6; stroke-linecap: square"/>
     </g>
     <g id="line2d_8">
      <g>
       <use xlink:href="#mfafbc1ab49" x="209.714252" y="142.855031" style="stroke: #000000"/>
      </g>
     </g>
     <g id="text_4">
      <text style="font: 8.8px 'Futura', sans-serif; text-anchor: middle" x="209.714252" y="158.412281" transform="rotate(-0 209.714252 158.412281)">2500</text>
     </g>
    </g>
    <g id="xtick_5">
     <g id="line2d_9">
      <path d="M 260.31783 142.855031 
L 260.31783 17.769582 
" clip-path="url(#p75c8fd532b)" style="fill: none; stroke: #b0b0b0; stroke-width: 0.6; stroke-linecap: square"/>
     </g>
     <g id="line2d_10">
      <g>
       <use xlink:href="#mfafbc1ab49" x="260.31783" y="142.855031" style="stroke: #000000"/>
      </g>
     </g>
     <g id="text_5">
      <text style="font: 8.8px 'Futura', sans-serif; text-anchor: middle" x="260.31783" y="158.412281" transform="rotate(-0 260.31783 158.412281)">3000</text>
     </g>
    </g>
    <g id="xtick_6">
     <g id="line2d_11">
      <path d="M 47.782804 142.855031 
L 47.782804 17.769582 
" clip-path="url(#p75c8fd532b)" style="fill: none; stroke: #b0b0b0; stroke-width: 0.3; stroke-linecap: square"/>
     </g>
     <g id="line2d_12">
      <defs>
       <path id="me79dbd1459" d="M 0 0 
L 0 3.2 
" style="stroke: #000000; stroke-width: 0.8"/>
      </defs>
      <g>
       <use xlink:href="#me79dbd1459" x="47.782804" y="142.855031" style="stroke: #000000; stroke-width: 0.8"/>
      </g>
     </g>
    </g>
    <g id="xtick_7">
     <g id="line2d_13">
      <path d="M 68.024235 142.855031 
L 68.024235 17.769582 
" clip-path="url(#p75c8fd532b)" style="fill: none; stroke: #b0b0b0; stroke-width: 0.3; stroke-linecap: square"/>
     </g>
     <g id="line2d_14">
      <g>
       <use xlink:href="#me79dbd1459" x="68.024235" y="142.855031" style="stroke: #000000; stroke-width: 0.8"/>
      </g>
     </g>
    </g>
    <g id="xtick_8">
     <g id="line2d_15">
      <path d="M 78.144951 142.855031 
L 78.144951 17.769582 
" clip-path="url(#p75c8fd532b)" style="fill: none; stroke: #b0b0b0; stroke-width: 0.3; stroke-linecap: square"/>
     </g>
     <g id="line2d_16">
      <g>
       <use xlink:href="#me79dbd1459" x="78.144951" y="142.855031" style="stroke: #000000; stroke-width: 0.8"/>
      </g>
     </g>
    </g>
    <g id="xtick_9">
     <g id="line2d_17">
      <path d="M 88.265666 142.855031 
L 88.265666 17.769582 
" clip-path="url(#p75c8fd532b)" style="fill: none; stroke: #b0b0b0; stroke-width: 0.3; stroke-linecap: square"/>
     </g>
     <g id="line2d_18">
      <g>
       <use xlink:href="#me79dbd1459" x="88.265666" y="142.855031" style="stroke: #000000; stroke-width: 0.8"/>
      </g>
     </g>
    </g>
    <g id="xtick_10">
     <g id="line2d_19">
      <path d="M 98.386382 142.855031 
L 98.386382 17.769582 
" clip-path="url(#p75c8fd532b)" style="fill: none; stroke: #b0b0b0; stroke-width: 0.3; stroke-linecap: square"/>
     </g>
     <g id="line2d_20">
      <g>
       <use xlink:href="#me79dbd1459" x="98.386382" y="142.855031" style="stroke: #000000; stroke-width: 0.8"/>
      </g>
     </g>
    </g>
    <g id="xtick_11">
     <g id="line2d_21">
      <path d="M 118.627813 142.855031 
L 118.627813 17.769582 
" clip-path="url(#p75c8fd532b)" style="fill: none; stroke: #b0b0b0; stroke-width: 0.3; stroke-linecap: square"/>
     </g>
     <g id="line2d_22">
      <g>
       <use xlink:href="#me79dbd1459" x="118.627813" y="142.855031" style="stroke: #000000; stroke-width: 0.8"/>
      </g>
     </g>
    </g>
    <g id="xtick_12">
     <g id="line2d_23">
      <path d="M 128.748528 142.855031 
L 128.748528 17.769582 
" clip-path="url(#p75c8fd532b)" style="fill: none; stroke: #b0b0b0; stroke-width: 0.3; stroke-linecap: square"/>
     </g>
     <g id="line2d_24">
      <g>
       <use xlink:href="#me79dbd1459" x="128.748528" y="142.855031" style="stroke: #000000; stroke-width: 0.8"/>
      </g>
     </g>
    </g>
    <g id="xtick_13">
     <g id="line2d_25">
      <path d="M 138.869244 142.855031 
L 138.869244 17.769582 
" clip-path="url(#p75c8fd532b)" style="fill: none; stroke: #b0b0b0; stroke-width: 0.3; stroke-linecap: square"/>
     </g>
     <g id="line2d_26">
      <g>
       <use xlink:href="#me79dbd1459" x="138.869244" y="142.855031" style="stroke: #000000; stroke-width: 0.8"/>
      </g>
     </g>
    </g>
    <g id="xtick_14">
     <g id="line2d_27">
      <path d="M 148.989959 142.855031 
L 148.989959 17.769582 
" clip-path="url(#p75c8fd532b)" style="fill: none; stroke: #b0b0b0; stroke-width: 0.3; stroke-linecap: square"/>
     </g>
     <g id="line2d_28">
      <g>
       <use xlink:href="#me79dbd1459" x="148.989959" y="142.855031" style="stroke: #000000; stroke-width: 0.8"/>
      </g>
     </g>
    </g>
    <g id="xtick_15">
     <g id="line2d_29">
      <path d="M 169.23139 142.855031 
L 169.23139 17.769582 
" clip-path="url(#p75c8fd532b)" style="fill: none; stroke: #b0b0b0; stroke-width: 0.3; stroke-linecap: square"/>
     </g>
     <g id="line2d_30">
      <g>
       <use xlink:href="#me79dbd1459" x="169.23139" y="142.855031" style="stroke: #000000; stroke-width: 0.8"/>
      </g>
     </g>
    </g>
    <g id="xtick_16">
     <g id="line2d_31">
      <path d="M 179.352106 142.855031 
L 179.352106 17.769582 
" clip-path="url(#p75c8fd532b)" style="fill: none; stroke: #b0b0b0; stroke-width: 0.3; stroke-linecap: square"/>
     </g>
     <g id="line2d_32">
      <g>
       <use xlink:href="#me79dbd1459" x="179.352106" y="142.855031" style="stroke: #000000; stroke-width: 0.8"/>
      </g>
     </g>
    </g>
    <g id="xtick_17">
     <g id="line2d_33">
      <path d="M 189.472821 142.855031 
L 189.472821 17.769582 
" clip-path="url(#p75c8fd532b)" style="fill: none; stroke: #b0b0b0; stroke-width: 0.3; stroke-linecap: square"/>
     </g>
     <g id="line2d_34">
      <g>
       <use xlink:href="#me79dbd1459" x="189.472821" y="142.855031" style="stroke: #000000; stroke-width: 0.8"/>
      </g>
     </g>
    </g>
    <g id="xtick_18">
     <g id="line2d_35">
      <path d="M 199.593537 142.855031 
L 199.593537 17.769582 
" clip-path="url(#p75c8fd532b)" style="fill: none; stroke: #b0b0b0; stroke-width: 0.3; stroke-linecap: square"/>
     </g>
     <g id="line2d_36">
      <g>
       <use xlink:href="#me79dbd1459" x="199.593537" y="142.855031" style="stroke: #000000; stroke-width: 0.8"/>
      </g>
     </g>
    </g>
    <g id="xtick_19">
     <g id="line2d_37">
      <path d="M 219.834968 142.855031 
L 219.834968 17.769582 
" clip-path="url(#p75c8fd532b)" style="fill: none; stroke: #b0b0b0; stroke-width: 0.3; stroke-linecap: square"/>
     </g>
     <g id="line2d_38">
      <g>
       <use xlink:href="#me79dbd1459" x="219.834968" y="142.855031" style="stroke: #000000; stroke-width: 0.8"/>
      </g>
     </g>
    </g>
    <g id="xtick_20">
     <g id="line2d_39">
      <path d="M 229.955683 142.855031 
L 229.955683 17.769582 
" clip-path="url(#p75c8fd532b)" style="fill: none; stroke: #b0b0b0; stroke-width: 0.3; stroke-linecap: square"/>
     </g>
     <g id="line2d_40">
      <g>
       <use xlink:href="#me79dbd1459" x="229.955683" y="142.855031" style="stroke: #000000; stroke-width: 0.8"/>
      </g>
     </g>
    </g>
    <g id="xtick_21">
     <g id="line2d_41">
      <path d="M 240.076399 142.855031 
L 240.076399 17.769582 
" clip-path="url(#p75c8fd532b)" style="fill: none; stroke: #b0b0b0; stroke-width: 0.3; stroke-linecap: square"/>
     </g>
     <g id="line2d_42">
      <g>
       <use xlink:href="#me79dbd1459" x="240.076399" y="142.855031" style="stroke: #000000; stroke-width: 0.8"/>
      </g>
     </g>
    </g>
    <g id="xtick_22">
     <g id="line2d_43">
      <path d="M 250.197114 142.855031 
L 250.197114 17.769582 
" clip-path="url(#p75c8fd532b)" style="fill: none; stroke: #b0b0b0; stroke-width: 0.3; stroke-linecap: square"/>
     </g>
     <g id="line2d_44">
      <g>
       <use xlink:href="#me79dbd1459" x="250.197114" y="142.855031" style="stroke: #000000; stroke-width: 0.8"/>
      </g>
     </g>
    </g>
    <g id="xtick_23">
     <g id="line2d_45">
      <path d="M 270.438545 142.855031 
L 270.438545 17.769582 
" clip-path="url(#p75c8fd532b)" style="fill: none; stroke: #b0b0b0; stroke-width: 0.3; stroke-linecap: square"/>
     </g>
     <g id="line2d_46">
      <g>
       <use xlink:href="#me79dbd1459" x="270.438545" y="142.855031" style="stroke: #000000; stroke-width: 0.8"/>
      </g>
     </g>
    </g>
    <g id="xtick_24">
     <g id="line2d_47">
      <path d="M 280.55926 142.855031 
L 280.55926 17.769582 
" clip-path="url(#p75c8fd532b)" style="fill: none; stroke: #b0b0b0; stroke-width: 0.3; stroke-linecap: square"/>
     </g>
     <g id="line2d_48">
      <g>
       <use xlink:href="#me79dbd1459" x="280.55926" y="142.855031" style="stroke: #000000; stroke-width: 0.8"/>
      </g>
     </g>
    </g>
    <g id="text_6">
     <text style="font: 9.6px 'Futura', sans-serif; text-anchor: middle" x="161.640854" y="172.685781" transform="rotate(-0 161.640854 172.685781)">Wavelength (nm)</text>
    </g>
   </g>
   <g id="matplotlib.axis_2">
    <g id="ytick_1">
     <g id="line2d_49">
      <defs>
       <path id="m7cf5000763" d="M 0 0 
L -4.8 0 
" style="stroke: #000000"/>
      </defs>
      <g>
       <use xlink:href="#m7cf5000763" x="41.710375" y="142.855031" style="stroke: #000000"/>
      </g>
     </g>
     <g id="text_7">
      <text style="font: 8.8px 'Futura', sans-serif; text-anchor: end" x="33.410375" y="146.483656" transform="rotate(-0 33.410375 146.483656)">0.00</text>
     </g>
    </g>
    <g id="ytick_2">
     <g id="line2d_50">
      <g>
       <use xlink:href="#m7cf5000763" x="41.710375" y="123.095435" style="stroke: #000000"/>
      </g>
     </g>
     <g id="text_8">
      <text style="font: 8.8px 'Futura', sans-serif; text-anchor: end" x="33.410375" y="126.72406" transform="rotate(-0 33.410375 126.72406)">0.25</text>
     </g>
    </g>
    <g id="ytick_3">
     <g id="line2d_51">
      <g>
       <use xlink:href="#m7cf5000763" x="41.710375" y="103.335839" style="stroke: #000000"/>
      </g>
     </g>
     <g id="text_9">
      <text style="font: 8.8px 'Futura', sans-serif; text-anchor: end" x="33.410375" y="106.964464" transform="rotate(-0 33.410375 106.964464)">0.50</text>
     </g>
    </g>
    <g id="ytick_4">
     <g id="line2d_52">
      <g>
       <use xlink:href="#m7cf5000763" x="41.710375" y="83.576243" style="stroke: #000000"/>
      </g>
     </g>
     <g id="text_10">
      <text style="font: 8.8px 'Futura', sans-serif; text-anchor: end" x="33.410375" y="87.204868" transform="rotate(-0 33.410375 87.204868)">0.75</text>
     </g>
    </g>
    <g id="ytick_5">
     <g id="line2d_53">
      <g>
       <use xlink:href="#m7cf5000763" x="41.710375" y="63.816647" style="stroke: #000000"/>
      </g>
     </g>
     <g id="text_11">
      <text style="font: 8.8px 'Futura', sans-serif; text-anchor: end" x="33.410375" y="67.445272" transform="rotate(-0 33.410375 67.445272)">1.00</text>
     </g>
    </g>
    <g id="ytick_6">
     <g id="line2d_54">
      <g>
       <use xlink:href="#m7cf5000763" x="41.710375" y="44.05705" style="stroke: #000000"/>
      </g>
     </g>
     <g id="text_12">
      <text style="font: 8.8px 'Futura', sans-serif; text-anchor: end" x="33.410375" y="47.685675" transform="rotate(-0 33.410375 47.685675)">1.25</text>
     </g>
    </g>
    <g id="ytick_7">
     <g id="line2d_55">
      <g>
       <use xlink:href="#m7cf5000763" x="41.710375" y="24.297454" style="stroke: #000000"/>
      </g>
     </g>
     <g id="text_13">
      <text style="font: 8.8px 'Futura', sans-serif; text-anchor: end" x="33.410375" y="27.926079" transform="rotate(-0 33.410375 27.926079)">1.50</text>
     </g>
    </g>
    <g id="text_14">
     <text style="font: 9.6px 'Futura', sans-serif; text-anchor: middle" x="7.917" y="80.312307" transform="rotate(-90 7.917 80.312307)">Stacked Reflectance</text>
    </g>
   </g>
   <g id="line2d_56">
    <path d="M 42.722447 58.937904 
L 45.45504 58.979181 
L 46.669526 59.159355 
L 47.276769 59.238484 
L 48.28884 58.951481 
L 49.70574 59.435549 
L 50.515397 59.703262 
L 52.337126 60.586048 
L 53.146784 60.921875 
L 53.450405 61.191842 
L 54.057648 62.231029 
L 54.766098 64.024739 
L 54.867305 64.306486 
L 56.689034 62.220068 
L 57.498691 61.167479 
L 58.004727 60.838379 
L 58.510763 60.332533 
L 60.939734 59.668089 
L 61.648185 59.882513 
L 62.255427 59.770853 
L 62.963878 59.645114 
L 63.773535 59.833041 
L 66.202506 59.936445 
L 67.619407 60.122155 
L 69.137514 60.847905 
L 70.554414 61.112282 
L 71.465279 61.483386 
L 72.072521 61.87724 
L 72.578557 62.535214 
L 73.1858 64.947265 
L 74.096665 69.967652 
L 74.6027 69.116407 
L 75.412358 65.593541 
L 76.019601 63.866376 
L 76.222015 63.530028 
L 77.132879 62.942998 
L 77.638915 63.242875 
L 78.347365 62.562232 
L 78.954608 61.899652 
L 79.359437 61.674072 
L 81.181165 61.319413 
L 81.889615 61.404939 
L 82.901687 61.12809 
L 83.407723 61.00402 
L 86.34273 61.061454 
L 87.658423 61.725452 
L 88.366873 61.997142 
L 89.378945 62.353151 
L 90.087395 62.873933 
L 90.492224 63.396413 
L 91.200674 64.730224 
L 91.605502 65.829148 
L 92.212745 67.306883 
L 93.022403 68.830855 
L 93.933267 70.008932 
L 94.641717 70.355399 
L 95.856203 70.808651 
L 96.463446 71.830477 
L 97.475517 74.664718 
L 98.386382 78.332464 
L 99.094832 83.749374 
L 100.511732 96.895702 
L 100.916561 97.566648 
L 101.523804 94.340209 
L 103.041911 83.293203 
L 103.649154 80.716039 
L 103.952775 79.846366 
L 104.458811 80.16987 
L 105.066054 81.929053 
L 105.470883 81.82703 
L 106.584161 75.169242 
L 107.495026 71.698964 
L 108.40589 69.375423 
L 108.911926 68.517723 
L 109.721583 67.413227 
L 110.227619 66.763995 
L 111.037276 65.668084 
L 112.251762 64.610938 
L 112.757798 64.34739 
L 114.174698 63.326162 
L 115.490391 62.862007 
L 115.996427 62.664119 
L 117.31212 61.9658 
L 117.818155 61.746382 
L 119.538677 61.572024 
L 121.259199 61.104065 
L 124.396621 61.007392 
L 124.801449 61.152555 
L 125.712314 61.104306 
L 126.319556 61.587545 
L 127.432835 61.831637 
L 128.040078 62.114953 
L 128.647321 62.180659 
L 128.849735 62.26947 
L 130.873878 64.120729 
L 131.784743 65.230404 
L 132.898022 67.1877 
L 135.023372 73.124855 
L 136.13665 75.935631 
L 136.845101 77.200002 
L 137.755965 77.421577 
L 138.160794 77.675569 
L 138.565622 77.865405 
L 139.375279 77.98558 
L 141.298215 74.268623 
L 141.601837 73.865945 
L 142.512701 73.106576 
L 143.524773 73.394217 
L 144.536844 74.590046 
L 145.548916 76.981782 
L 146.560987 81.754198 
L 147.87668 92.310673 
L 148.787545 101.59762 
L 149.597202 110.614788 
L 150.508066 113.986899 
L 152.53221 99.294628 
L 153.94911 92.754587 
L 155.467217 86.625553 
L 156.175667 84.06472 
L 157.693774 79.102624 
L 158.90826 76.870117 
L 159.920332 75.730012 
L 161.742061 74.404804 
L 162.754132 74.491612 
L 163.867411 74.100234 
L 165.081897 74.094597 
L 167.10604 73.868541 
L 167.915697 73.967023 
L 169.838633 74.868217 
L 170.951912 76.020799 
L 172.773641 76.986808 
L 175.911062 76.357074 
L 176.923134 75.704411 
L 178.13762 75.936724 
L 180.97142 75.873067 
L 182.590735 76.42019 
L 183.704013 76.803093 
L 184.108842 76.866926 
L 185.019706 76.863635 
L 186.335399 77.404358 
L 187.246264 77.730821 
L 188.966785 78.877015 
L 190.990928 80.304215 
L 192.003 80.248592 
L 193.318693 81.487368 
L 195.342836 82.770492 
L 196.658529 84.31069 
L 197.366979 85.402454 
L 199.694744 89.900619 
L 202.528544 98.510282 
L 204.350273 104.040469 
L 206.374416 109.390399 
L 207.386488 110.884575 
L 209.410631 113.550331 
L 210.321495 113.992457 
L 212.64926 114.863287 
L 212.952881 114.82926 
L 215.584267 114.184099 
L 215.584267 114.184099 
" clip-path="url(#p75c8fd532b)" style="fill: none; stroke: #1f77b4; stroke-width: 0.5; stroke-linecap: square"/>
   </g>
   <g id="line2d_57">
    <path d="M 42.722447 20.538551 
L 44.240554 20.520846 
L 45.961076 20.541301 
L 47.985219 20.625509 
L 50.41419 20.686258 
L 51.628676 20.765819 
L 57.093863 21.533423 
L 58.308348 21.775344 
L 59.219213 21.954792 
L 63.065085 22.558661 
L 66.303714 22.97148 
L 68.024235 23.131169 
L 72.578557 23.516321 
L 79.258229 24.042228 
L 80.472715 24.094362 
L 82.901687 24.182221 
L 88.670495 24.13437 
L 93.022403 23.823751 
L 106.381747 22.043947 
L 108.40589 21.761971 
L 109.519169 21.605096 
L 113.769869 21.127672 
L 118.324191 20.792975 
L 121.259199 20.604027 
L 134.314922 20.289501 
L 149.900824 20.34976 
L 150.609274 20.363734 
L 155.36601 20.355451 
L 160.527575 20.324167 
L 163.057754 20.284585 
L 163.968618 20.295508 
L 173.684505 20.211001 
L 175.506234 20.19622 
L 178.643656 20.098735 
L 206.57683 19.154319 
L 208.196145 19.147159 
L 210.220288 19.088012 
L 211.131152 19.083167 
L 211.839602 19.062897 
L 213.155295 19.056876 
L 213.458917 19.089364 
L 213.964953 19.053615 
L 214.977024 19.138687 
L 215.48306 19.103203 
L 215.887889 19.048636 
L 216.495131 19.113795 
L 218.822896 19.206796 
L 219.227725 19.132862 
L 219.632553 19.218405 
L 220.037382 19.194955 
L 220.644625 19.237753 
L 220.948246 19.216713 
L 227.627918 19.297542 
L 228.032747 19.299938 
L 228.538783 19.383376 
L 230.259305 19.411443 
L 231.372583 19.488492 
L 232.18224 19.534777 
L 246.148828 20.804582 
L 246.756071 20.860054 
L 248.780214 21.071177 
L 251.614014 21.166133 
L 255.055057 21.311782 
L 258.091272 21.360518 
L 258.496101 21.396436 
L 259.305758 21.381714 
L 260.722658 21.405514 
L 263.556458 21.450387 
L 264.366116 21.449976 
L 267.40233 21.472553 
L 268.920438 21.488824 
L 269.628888 21.520533 
L 271.450617 21.522579 
L 272.76631 21.508089 
L 273.677174 21.506858 
L 274.588038 21.525924 
L 280.255639 21.551103 
L 280.458053 21.572132 
L 280.458053 21.572132 
" clip-path="url(#p75c8fd532b)" style="fill: none; stroke-dasharray: 2,0.75; stroke-dashoffset: 0; stroke: #ff7f0e; stroke-width: 0.5"/>
   </g>
   <g id="line2d_58"/>
   <g id="line2d_59"/>
   <g id="patch_3">
    <path d="M 41.710375 142.855031 
L 41.710375 17.769582 
" style="fill: none; stroke: #000000; stroke-linejoin: miter; stroke-linecap: square"/>
   </g>
   <g id="patch_4">
    <path d="M 41.710375 142.855031 
L 281.571332 142.855031 
" style="fill: none; stroke: #000000; stroke-linejoin: miter; stroke-linecap: square"/>
   </g>
   <g id="text_15">
    <text style="font: 6px 'Futura', sans-serif; text-anchor: start" x="282.583404" y="115.881912" transform="rotate(-0 282.583404 115.881912)">Analcime GDS1</text>
   </g>
   <g id="text_16">
    <text style="fill: #1f77b4; font: 7px 'Futura', sans-serif; text-anchor: start" x="282.583404" y="98.384779" transform="rotate(-0 282.583404 98.384779)">Zeolites</text>
   </g>
   <g id="text_17">
    <text style="font: 6px 'Futura', sans-serif; text-anchor: start" x="282.583404" y="23.266664" transform="rotate(-0 282.583404 23.266664)">Plagioclase NCLS04</text>
   </g>
   <g id="text_18">
    <text style="fill: #ff7f0e; font: 7px 'Futura', sans-serif; text-anchor: start" x="282.583404" y="5.772812" transform="rotate(-0 282.583404 5.772812)">Feldspars</text>
   </g>
   <g id="text_19">
    <text style="font: 8px 'Futura', sans-serif; text-anchor: middle" x="161.640854" y="11.769582" transform="rotate(-0 161.640854 11.769582)">Tectosilicates Stacked</text>
   </g>
  </g>
 </g>
 <defs>
  <clipPath id="p75c8fd532b">
   <rect x="41.710375" y="17.769582" width="239.860957" height="125.085449"/>
  </clipPath>
 </defs>
</svg>
