<?xml version="1.0" encoding="utf-8" standalone="no"?>
<!DOCTYPE svg PUBLIC "-//W3C//DTD SVG 1.1//EN"
  "http://www.w3.org/Graphics/SVG/1.1/DTD/svg11.dtd">
<svg xmlns:xlink="http://www.w3.org/1999/xlink" width="271.642455pt" height="176.645947pt" viewBox="0 0 271.642455 176.645947" xmlns="http://www.w3.org/2000/svg" version="1.1">
 <metadata>
  <rdf:RDF xmlns:dc="http://purl.org/dc/elements/1.1/" xmlns:cc="http://creativecommons.org/ns#" xmlns:rdf="http://www.w3.org/1999/02/22-rdf-syntax-ns#">
   <cc:Work>
    <dc:type rdf:resource="http://purl.org/dc/dcmitype/StillImage"/>
    <dc:date>2025-02-12T16:36:04.802143</dc:date>
    <dc:format>image/svg+xml</dc:format>
    <dc:creator>
     <cc:Agent>
      <dc:title>Matplotlib v3.6.2, https://matplotlib.org/</dc:title>
     </cc:Agent>
    </dc:creator>
   </cc:Work>
  </rdf:RDF>
 </metadata>
 <defs>
  <style type="text/css">*{stroke-linejoin: round; stroke-linecap: butt}</style>
 </defs>
 <g id="figure_1">
  <g id="patch_1">
   <path d="M -0 176.645947 
L 271.642455 176.645947 
L 271.642455 0 
L -0 0 
z
" style="fill: #ffffff"/>
  </g>
  <g id="axes_1">
   <g id="patch_2">
    <path d="M 35.58575 146.538197 
L 162.973451 146.538197 
L 162.973451 21.037 
L 35.58575 21.037 
z
" style="fill: #ffffff"/>
   </g>
   <g id="matplotlib.axis_1">
    <g id="xtick_1">
     <g id="line2d_1">
      <path d="M 41.897753 146.538197 
L 41.897753 21.037 
" clip-path="url(#pbb42e53f04)" style="fill: none; stroke: #b0b0b0; stroke-width: 0.6; stroke-linecap: square"/>
     </g>
     <g id="line2d_2">
      <defs>
       <path id="m8583a39d68" d="M 0 0 
L 0 4.8 
" style="stroke: #000000"/>
      </defs>
      <g>
       <use xlink:href="#m8583a39d68" x="41.897753" y="146.538197" style="stroke: #000000"/>
      </g>
     </g>
     <g id="text_1">
      <text style="font: 8.8px 'DejaVu Sans', 'Bitstream Vera Sans', 'Computer Modern Sans Serif', 'Lucida Grande', 'Verdana', 'Geneva', 'Lucid', 'Arial', 'Helvetica', 'Avant Garde', sans-serif; text-anchor: middle" x="41.897753" y="161.524822" transform="rotate(-0 41.897753 161.524822)">1000</text>
     </g>
    </g>
    <g id="xtick_2">
     <g id="line2d_3">
      <path d="M 70.588677 146.538197 
L 70.588677 21.037 
" clip-path="url(#pbb42e53f04)" style="fill: none; stroke: #b0b0b0; stroke-width: 0.6; stroke-linecap: square"/>
     </g>
     <g id="line2d_4">
      <g>
       <use xlink:href="#m8583a39d68" x="70.588677" y="146.538197" style="stroke: #000000"/>
      </g>
     </g>
     <g id="text_2">
      <text style="font: 8.8px 'DejaVu Sans', 'Bitstream Vera Sans', 'Computer Modern Sans Serif', 'Lucida Grande', 'Verdana', 'Geneva', 'Lucid', 'Arial', 'Helvetica', 'Avant Garde', sans-serif; text-anchor: middle" x="70.588677" y="161.524822" transform="rotate(-0 70.588677 161.524822)">1500</text>
     </g>
    </g>
    <g id="xtick_3">
     <g id="line2d_5">
      <path d="M 99.2796 146.538197 
L 99.2796 21.037 
" clip-path="url(#pbb42e53f04)" style="fill: none; stroke: #b0b0b0; stroke-width: 0.6; stroke-linecap: square"/>
     </g>
     <g id="line2d_6">
      <g>
       <use xlink:href="#m8583a39d68" x="99.2796" y="146.538197" style="stroke: #000000"/>
      </g>
     </g>
     <g id="text_3">
      <text style="font: 8.8px 'DejaVu Sans', 'Bitstream Vera Sans', 'Computer Modern Sans Serif', 'Lucida Grande', 'Verdana', 'Geneva', 'Lucid', 'Arial', 'Helvetica', 'Avant Garde', sans-serif; text-anchor: middle" x="99.2796" y="161.524822" transform="rotate(-0 99.2796 161.524822)">2000</text>
     </g>
    </g>
    <g id="xtick_4">
     <g id="line2d_7">
      <path d="M 127.970524 146.538197 
L 127.970524 21.037 
" clip-path="url(#pbb42e53f04)" style="fill: none; stroke: #b0b0b0; stroke-width: 0.6; stroke-linecap: square"/>
     </g>
     <g id="line2d_8">
      <g>
       <use xlink:href="#m8583a39d68" x="127.970524" y="146.538197" style="stroke: #000000"/>
      </g>
     </g>
     <g id="text_4">
      <text style="font: 8.8px 'DejaVu Sans', 'Bitstream Vera Sans', 'Computer Modern Sans Serif', 'Lucida Grande', 'Verdana', 'Geneva', 'Lucid', 'Arial', 'Helvetica', 'Avant Garde', sans-serif; text-anchor: middle" x="127.970524" y="161.524822" transform="rotate(-0 127.970524 161.524822)">2500</text>
     </g>
    </g>
    <g id="xtick_5">
     <g id="line2d_9">
      <path d="M 156.661448 146.538197 
L 156.661448 21.037 
" clip-path="url(#pbb42e53f04)" style="fill: none; stroke: #b0b0b0; stroke-width: 0.6; stroke-linecap: square"/>
     </g>
     <g id="line2d_10">
      <g>
       <use xlink:href="#m8583a39d68" x="156.661448" y="146.538197" style="stroke: #000000"/>
      </g>
     </g>
     <g id="text_5">
      <text style="font: 8.8px 'DejaVu Sans', 'Bitstream Vera Sans', 'Computer Modern Sans Serif', 'Lucida Grande', 'Verdana', 'Geneva', 'Lucid', 'Arial', 'Helvetica', 'Avant Garde', sans-serif; text-anchor: middle" x="156.661448" y="161.524822" transform="rotate(-0 156.661448 161.524822)">3000</text>
     </g>
    </g>
    <g id="xtick_6">
     <g id="line2d_11">
      <path d="M 36.159568 146.538197 
L 36.159568 21.037 
" clip-path="url(#pbb42e53f04)" style="fill: none; stroke: #b0b0b0; stroke-width: 0.3; stroke-linecap: square"/>
     </g>
     <g id="line2d_12">
      <defs>
       <path id="m85824b7c3f" d="M 0 0 
L 0 3.2 
" style="stroke: #000000; stroke-width: 0.8"/>
      </defs>
      <g>
       <use xlink:href="#m85824b7c3f" x="36.159568" y="146.538197" style="stroke: #000000; stroke-width: 0.8"/>
      </g>
     </g>
    </g>
    <g id="xtick_7">
     <g id="line2d_13">
      <path d="M 47.635938 146.538197 
L 47.635938 21.037 
" clip-path="url(#pbb42e53f04)" style="fill: none; stroke: #b0b0b0; stroke-width: 0.3; stroke-linecap: square"/>
     </g>
     <g id="line2d_14">
      <g>
       <use xlink:href="#m85824b7c3f" x="47.635938" y="146.538197" style="stroke: #000000; stroke-width: 0.8"/>
      </g>
     </g>
    </g>
    <g id="xtick_8">
     <g id="line2d_15">
      <path d="M 53.374123 146.538197 
L 53.374123 21.037 
" clip-path="url(#pbb42e53f04)" style="fill: none; stroke: #b0b0b0; stroke-width: 0.3; stroke-linecap: square"/>
     </g>
     <g id="line2d_16">
      <g>
       <use xlink:href="#m85824b7c3f" x="53.374123" y="146.538197" style="stroke: #000000; stroke-width: 0.8"/>
      </g>
     </g>
    </g>
    <g id="xtick_9">
     <g id="line2d_17">
      <path d="M 59.112307 146.538197 
L 59.112307 21.037 
" clip-path="url(#pbb42e53f04)" style="fill: none; stroke: #b0b0b0; stroke-width: 0.3; stroke-linecap: square"/>
     </g>
     <g id="line2d_18">
      <g>
       <use xlink:href="#m85824b7c3f" x="59.112307" y="146.538197" style="stroke: #000000; stroke-width: 0.8"/>
      </g>
     </g>
    </g>
    <g id="xtick_10">
     <g id="line2d_19">
      <path d="M 64.850492 146.538197 
L 64.850492 21.037 
" clip-path="url(#pbb42e53f04)" style="fill: none; stroke: #b0b0b0; stroke-width: 0.3; stroke-linecap: square"/>
     </g>
     <g id="line2d_20">
      <g>
       <use xlink:href="#m85824b7c3f" x="64.850492" y="146.538197" style="stroke: #000000; stroke-width: 0.8"/>
      </g>
     </g>
    </g>
    <g id="xtick_11">
     <g id="line2d_21">
      <path d="M 76.326862 146.538197 
L 76.326862 21.037 
" clip-path="url(#pbb42e53f04)" style="fill: none; stroke: #b0b0b0; stroke-width: 0.3; stroke-linecap: square"/>
     </g>
     <g id="line2d_22">
      <g>
       <use xlink:href="#m85824b7c3f" x="76.326862" y="146.538197" style="stroke: #000000; stroke-width: 0.8"/>
      </g>
     </g>
    </g>
    <g id="xtick_12">
     <g id="line2d_23">
      <path d="M 82.065046 146.538197 
L 82.065046 21.037 
" clip-path="url(#pbb42e53f04)" style="fill: none; stroke: #b0b0b0; stroke-width: 0.3; stroke-linecap: square"/>
     </g>
     <g id="line2d_24">
      <g>
       <use xlink:href="#m85824b7c3f" x="82.065046" y="146.538197" style="stroke: #000000; stroke-width: 0.8"/>
      </g>
     </g>
    </g>
    <g id="xtick_13">
     <g id="line2d_25">
      <path d="M 87.803231 146.538197 
L 87.803231 21.037 
" clip-path="url(#pbb42e53f04)" style="fill: none; stroke: #b0b0b0; stroke-width: 0.3; stroke-linecap: square"/>
     </g>
     <g id="line2d_26">
      <g>
       <use xlink:href="#m85824b7c3f" x="87.803231" y="146.538197" style="stroke: #000000; stroke-width: 0.8"/>
      </g>
     </g>
    </g>
    <g id="xtick_14">
     <g id="line2d_27">
      <path d="M 93.541416 146.538197 
L 93.541416 21.037 
" clip-path="url(#pbb42e53f04)" style="fill: none; stroke: #b0b0b0; stroke-width: 0.3; stroke-linecap: square"/>
     </g>
     <g id="line2d_28">
      <g>
       <use xlink:href="#m85824b7c3f" x="93.541416" y="146.538197" style="stroke: #000000; stroke-width: 0.8"/>
      </g>
     </g>
    </g>
    <g id="xtick_15">
     <g id="line2d_29">
      <path d="M 105.017785 146.538197 
L 105.017785 21.037 
" clip-path="url(#pbb42e53f04)" style="fill: none; stroke: #b0b0b0; stroke-width: 0.3; stroke-linecap: square"/>
     </g>
     <g id="line2d_30">
      <g>
       <use xlink:href="#m85824b7c3f" x="105.017785" y="146.538197" style="stroke: #000000; stroke-width: 0.8"/>
      </g>
     </g>
    </g>
    <g id="xtick_16">
     <g id="line2d_31">
      <path d="M 110.75597 146.538197 
L 110.75597 21.037 
" clip-path="url(#pbb42e53f04)" style="fill: none; stroke: #b0b0b0; stroke-width: 0.3; stroke-linecap: square"/>
     </g>
     <g id="line2d_32">
      <g>
       <use xlink:href="#m85824b7c3f" x="110.75597" y="146.538197" style="stroke: #000000; stroke-width: 0.8"/>
      </g>
     </g>
    </g>
    <g id="xtick_17">
     <g id="line2d_33">
      <path d="M 116.494155 146.538197 
L 116.494155 21.037 
" clip-path="url(#pbb42e53f04)" style="fill: none; stroke: #b0b0b0; stroke-width: 0.3; stroke-linecap: square"/>
     </g>
     <g id="line2d_34">
      <g>
       <use xlink:href="#m85824b7c3f" x="116.494155" y="146.538197" style="stroke: #000000; stroke-width: 0.8"/>
      </g>
     </g>
    </g>
    <g id="xtick_18">
     <g id="line2d_35">
      <path d="M 122.232339 146.538197 
L 122.232339 21.037 
" clip-path="url(#pbb42e53f04)" style="fill: none; stroke: #b0b0b0; stroke-width: 0.3; stroke-linecap: square"/>
     </g>
     <g id="line2d_36">
      <g>
       <use xlink:href="#m85824b7c3f" x="122.232339" y="146.538197" style="stroke: #000000; stroke-width: 0.8"/>
      </g>
     </g>
    </g>
    <g id="xtick_19">
     <g id="line2d_37">
      <path d="M 133.708709 146.538197 
L 133.708709 21.037 
" clip-path="url(#pbb42e53f04)" style="fill: none; stroke: #b0b0b0; stroke-width: 0.3; stroke-linecap: square"/>
     </g>
     <g id="line2d_38">
      <g>
       <use xlink:href="#m85824b7c3f" x="133.708709" y="146.538197" style="stroke: #000000; stroke-width: 0.8"/>
      </g>
     </g>
    </g>
    <g id="xtick_20">
     <g id="line2d_39">
      <path d="M 139.446893 146.538197 
L 139.446893 21.037 
" clip-path="url(#pbb42e53f04)" style="fill: none; stroke: #b0b0b0; stroke-width: 0.3; stroke-linecap: square"/>
     </g>
     <g id="line2d_40">
      <g>
       <use xlink:href="#m85824b7c3f" x="139.446893" y="146.538197" style="stroke: #000000; stroke-width: 0.8"/>
      </g>
     </g>
    </g>
    <g id="xtick_21">
     <g id="line2d_41">
      <path d="M 145.185078 146.538197 
L 145.185078 21.037 
" clip-path="url(#pbb42e53f04)" style="fill: none; stroke: #b0b0b0; stroke-width: 0.3; stroke-linecap: square"/>
     </g>
     <g id="line2d_42">
      <g>
       <use xlink:href="#m85824b7c3f" x="145.185078" y="146.538197" style="stroke: #000000; stroke-width: 0.8"/>
      </g>
     </g>
    </g>
    <g id="xtick_22">
     <g id="line2d_43">
      <path d="M 150.923263 146.538197 
L 150.923263 21.037 
" clip-path="url(#pbb42e53f04)" style="fill: none; stroke: #b0b0b0; stroke-width: 0.3; stroke-linecap: square"/>
     </g>
     <g id="line2d_44">
      <g>
       <use xlink:href="#m85824b7c3f" x="150.923263" y="146.538197" style="stroke: #000000; stroke-width: 0.8"/>
      </g>
     </g>
    </g>
    <g id="xtick_23">
     <g id="line2d_45">
      <path d="M 162.399632 146.538197 
L 162.399632 21.037 
" clip-path="url(#pbb42e53f04)" style="fill: none; stroke: #b0b0b0; stroke-width: 0.3; stroke-linecap: square"/>
     </g>
     <g id="line2d_46">
      <g>
       <use xlink:href="#m85824b7c3f" x="162.399632" y="146.538197" style="stroke: #000000; stroke-width: 0.8"/>
      </g>
     </g>
    </g>
    <g id="text_6">
     <text style="font: 9.6px 'DejaVu Sans', 'Bitstream Vera Sans', 'Computer Modern Sans Serif', 'Lucida Grande', 'Verdana', 'Geneva', 'Lucid', 'Arial', 'Helvetica', 'Avant Garde', sans-serif; text-anchor: middle" x="99.2796" y="174.649447" transform="rotate(-0 99.2796 174.649447)">Wavelength (nm)</text>
    </g>
   </g>
   <g id="matplotlib.axis_2">
    <g id="ytick_1">
     <g id="line2d_47">
      <path d="M 35.58575 145.596401 
L 162.973451 145.596401 
" clip-path="url(#pbb42e53f04)" style="fill: none; stroke: #b0b0b0; stroke-width: 0.6; stroke-linecap: square"/>
     </g>
     <g id="line2d_48">
      <defs>
       <path id="mcfaae7c9e4" d="M 0 0 
L -4.8 0 
" style="stroke: #000000"/>
      </defs>
      <g>
       <use xlink:href="#mcfaae7c9e4" x="35.58575" y="145.596401" style="stroke: #000000"/>
      </g>
     </g>
     <g id="text_7">
      <text style="font: 8.8px 'DejaVu Sans', 'Bitstream Vera Sans', 'Computer Modern Sans Serif', 'Lucida Grande', 'Verdana', 'Geneva', 'Lucid', 'Arial', 'Helvetica', 'Avant Garde', sans-serif; text-anchor: end" x="27.28575" y="148.939714" transform="rotate(-0 27.28575 148.939714)">0.0</text>
     </g>
    </g>
    <g id="ytick_2">
     <g id="line2d_49">
      <path d="M 35.58575 124.776459 
L 162.973451 124.776459 
" clip-path="url(#pbb42e53f04)" style="fill: none; stroke: #b0b0b0; stroke-width: 0.6; stroke-linecap: square"/>
     </g>
     <g id="line2d_50">
      <g>
       <use xlink:href="#mcfaae7c9e4" x="35.58575" y="124.776459" style="stroke: #000000"/>
      </g>
     </g>
     <g id="text_8">
      <text style="font: 8.8px 'DejaVu Sans', 'Bitstream Vera Sans', 'Computer Modern Sans Serif', 'Lucida Grande', 'Verdana', 'Geneva', 'Lucid', 'Arial', 'Helvetica', 'Avant Garde', sans-serif; text-anchor: end" x="27.28575" y="128.119771" transform="rotate(-0 27.28575 128.119771)">0.1</text>
     </g>
    </g>
    <g id="ytick_3">
     <g id="line2d_51">
      <path d="M 35.58575 103.956516 
L 162.973451 103.956516 
" clip-path="url(#pbb42e53f04)" style="fill: none; stroke: #b0b0b0; stroke-width: 0.6; stroke-linecap: square"/>
     </g>
     <g id="line2d_52">
      <g>
       <use xlink:href="#mcfaae7c9e4" x="35.58575" y="103.956516" style="stroke: #000000"/>
      </g>
     </g>
     <g id="text_9">
      <text style="font: 8.8px 'DejaVu Sans', 'Bitstream Vera Sans', 'Computer Modern Sans Serif', 'Lucida Grande', 'Verdana', 'Geneva', 'Lucid', 'Arial', 'Helvetica', 'Avant Garde', sans-serif; text-anchor: end" x="27.28575" y="107.299829" transform="rotate(-0 27.28575 107.299829)">0.2</text>
     </g>
    </g>
    <g id="ytick_4">
     <g id="line2d_53">
      <path d="M 35.58575 83.136574 
L 162.973451 83.136574 
" clip-path="url(#pbb42e53f04)" style="fill: none; stroke: #b0b0b0; stroke-width: 0.6; stroke-linecap: square"/>
     </g>
     <g id="line2d_54">
      <g>
       <use xlink:href="#mcfaae7c9e4" x="35.58575" y="83.136574" style="stroke: #000000"/>
      </g>
     </g>
     <g id="text_10">
      <text style="font: 8.8px 'DejaVu Sans', 'Bitstream Vera Sans', 'Computer Modern Sans Serif', 'Lucida Grande', 'Verdana', 'Geneva', 'Lucid', 'Arial', 'Helvetica', 'Avant Garde', sans-serif; text-anchor: end" x="27.28575" y="86.479887" transform="rotate(-0 27.28575 86.479887)">0.3</text>
     </g>
    </g>
    <g id="ytick_5">
     <g id="line2d_55">
      <path d="M 35.58575 62.316632 
L 162.973451 62.316632 
" clip-path="url(#pbb42e53f04)" style="fill: none; stroke: #b0b0b0; stroke-width: 0.6; stroke-linecap: square"/>
     </g>
     <g id="line2d_56">
      <g>
       <use xlink:href="#mcfaae7c9e4" x="35.58575" y="62.316632" style="stroke: #000000"/>
      </g>
     </g>
     <g id="text_11">
      <text style="font: 8.8px 'DejaVu Sans', 'Bitstream Vera Sans', 'Computer Modern Sans Serif', 'Lucida Grande', 'Verdana', 'Geneva', 'Lucid', 'Arial', 'Helvetica', 'Avant Garde', sans-serif; text-anchor: end" x="27.28575" y="65.659944" transform="rotate(-0 27.28575 65.659944)">0.4</text>
     </g>
    </g>
    <g id="ytick_6">
     <g id="line2d_57">
      <path d="M 35.58575 41.496689 
L 162.973451 41.496689 
" clip-path="url(#pbb42e53f04)" style="fill: none; stroke: #b0b0b0; stroke-width: 0.6; stroke-linecap: square"/>
     </g>
     <g id="line2d_58">
      <g>
       <use xlink:href="#mcfaae7c9e4" x="35.58575" y="41.496689" style="stroke: #000000"/>
      </g>
     </g>
     <g id="text_12">
      <text style="font: 8.8px 'DejaVu Sans', 'Bitstream Vera Sans', 'Computer Modern Sans Serif', 'Lucida Grande', 'Verdana', 'Geneva', 'Lucid', 'Arial', 'Helvetica', 'Avant Garde', sans-serif; text-anchor: end" x="27.28575" y="44.840002" transform="rotate(-0 27.28575 44.840002)">0.5</text>
     </g>
    </g>
    <g id="text_13">
     <text style="font: 9.6px 'DejaVu Sans', 'Bitstream Vera Sans', 'Computer Modern Sans Serif', 'Lucida Grande', 'Verdana', 'Geneva', 'Lucid', 'Arial', 'Helvetica', 'Avant Garde', sans-serif; text-anchor: middle" x="7.2945" y="83.787598" transform="rotate(-90 7.2945 83.787598)">Reflectance</text>
    </g>
   </g>
   <g id="line2d_59">
    <path d="M 36.681222 27.066836 
L 37.46762 27.127675 
L 39.348963 27.974431 
L 40.175578 28.187686 
L 42.730946 28.235264 
L 44.200948 28.394502 
L 46.321522 28.842569 
L 47.566936 29.178593 
L 48.837446 29.677361 
L 49.482269 30.100015 
L 50.791374 31.305305 
L 51.455786 31.371848 
L 52.804658 31.496621 
L 55.230916 31.994886 
L 58.477483 33.072783 
L 59.218948 33.589286 
L 59.967846 34.39457 
L 60.724251 35.609039 
L 61.873102 38.080794 
L 62.259888 39.09773 
L 62.648608 40.483018 
L 63.431888 44.783864 
L 64.223021 50.655724 
L 65.022085 57.209763 
L 65.424615 59.156282 
L 65.829159 59.815397 
L 66.235725 59.691723 
L 68.71817 56.957934 
L 71.709826 50.695571 
L 72.583945 49.518698 
L 73.466827 48.610527 
L 74.35856 47.968292 
L 75.259232 47.564236 
L 76.168934 47.348628 
L 77.550615 47.333197 
L 78.953125 47.610473 
L 80.376778 48.168579 
L 81.821892 49.025384 
L 82.797385 49.8011 
L 84.27899 51.375852 
L 87.309544 54.967434 
L 88.859171 56.498186 
L 89.380888 57.198883 
L 89.905213 58.153025 
L 90.432159 59.554931 
L 90.96174 61.721034 
L 91.49397 65.149414 
L 92.02886 70.456552 
L 93.649631 91.397828 
L 94.1953 93.434541 
L 94.743697 93.44095 
L 95.294836 92.656047 
L 96.405394 90.2997 
L 97.527087 87.171017 
L 100.38076 78.389952 
L 101.542306 76.003548 
L 102.715495 74.465988 
L 103.900446 73.492702 
L 105.097276 72.971125 
L 105.700183 72.890507 
L 106.306104 72.961843 
L 106.915055 73.249748 
L 107.527051 73.838285 
L 108.142107 74.820095 
L 108.760238 76.276595 
L 111.263823 84.137344 
L 111.897563 85.079829 
L 112.534471 85.485546 
L 113.817857 85.886579 
L 114.464367 85.927746 
L 117.745729 85.492152 
L 118.411878 85.728892 
L 119.081358 86.222708 
L 119.754185 86.969857 
L 120.430376 87.998877 
L 121.109949 89.320538 
L 122.479304 92.752565 
L 125.963053 102.909713 
L 127.38106 105.967942 
L 128.813283 108.279025 
L 130.259865 110.169013 
L 132.456973 112.85702 
L 133.940082 115.056538 
L 134.687203 116.433484 
L 135.43806 118.086689 
L 136.19267 120.089435 
L 136.951054 122.562762 
L 140.022699 134.534787 
L 140.800233 136.298091 
L 141.581654 137.382143 
L 142.366983 138.021829 
L 143.94944 138.704531 
L 146.352921 139.311315 
L 148.792634 139.730198 
L 151.269126 139.923007 
L 154.629287 139.934949 
L 159.796908 139.739791 
L 159.796908 139.739791 
" clip-path="url(#pbb42e53f04)" style="fill: none; stroke: #1f77b4; stroke-width: 0.5; stroke-linecap: square"/>
   </g>
   <g id="line2d_60"/>
   <g id="line2d_61">
    <path d="M 36.159568 26.874842 
L 37.594115 26.862346 
L 37.938406 27.240448 
L 38.225315 27.238366 
L 38.741752 27.920008 
L 39.200806 27.748035 
L 39.430334 27.8538 
L 39.889389 28.113636 
L 40.405825 28.08282 
L 41.209171 27.931457 
L 41.840371 28.01245 
L 42.41419 27.950404 
L 42.930626 28.04951 
L 43.160154 28.000373 
L 43.561827 28.186495 
L 43.848736 28.248402 
L 44.020882 28.175257 
L 44.250409 28.093229 
L 44.652082 28.248127 
L 45.168518 28.34141 
L 45.51281 28.495702 
L 47.291647 28.821373 
L 49.586921 29.832939 
L 49.931212 30.216439 
L 50.619794 31.361269 
L 50.964085 31.375424 
L 52.341249 31.113506 
L 53.775796 31.310186 
L 54.177468 31.370016 
L 56.243215 31.936169 
L 57.505616 32.006132 
L 58.423725 32.327999 
L 58.997544 32.618648 
L 59.628744 33.048369 
L 60.030417 33.515468 
L 60.776381 34.735072 
L 62.6126 38.504452 
L 62.956891 40.583733 
L 63.415946 43.603668 
L 64.047146 48.845849 
L 64.735728 57.218659 
L 65.194783 62.160879 
L 65.481692 63.169416 
L 65.71122 63.149436 
L 67.490057 59.167403 
L 67.89173 58.94276 
L 68.408167 58.814007 
L 68.637694 58.407306 
L 70.875586 51.9686 
L 72.023223 49.852152 
L 73.17086 48.351446 
L 74.318497 47.380819 
L 75.753043 46.802443 
L 77.130207 46.676859 
L 78.44999 46.81227 
L 79.9993 47.314531 
L 80.917409 47.738925 
L 82.524101 48.762603 
L 83.155301 49.356984 
L 84.704611 51.145481 
L 86.655594 53.657615 
L 87.516322 54.31761 
L 89.696832 55.562168 
L 90.213269 56.178202 
L 90.729705 57.264763 
L 91.246142 59.263049 
L 91.762578 63.356623 
L 92.049488 67.064056 
L 92.336397 72.283537 
L 92.73807 82.078861 
L 93.36927 97.848453 
L 93.656179 100.525206 
L 93.828325 101.043806 
L 93.885707 100.94619 
L 94.172616 100.344972 
L 96.008835 94.002382 
L 96.984327 90.831611 
L 98.074582 86.607548 
L 100.312474 78.082836 
L 101.230583 75.749911 
L 101.804402 74.723383 
L 102.492984 73.805077 
L 103.698003 72.651234 
L 105.132549 71.809137 
L 105.935895 71.552311 
L 106.854004 71.626203 
L 107.313059 71.890107 
L 107.886877 72.592201 
L 108.460696 73.814118 
L 109.091896 75.937185 
L 110.010006 80.503619 
L 111.329788 86.003493 
L 111.788843 86.416271 
L 112.01837 86.388789 
L 112.764334 86.118202 
L 114.48579 86.230416 
L 115.805572 85.423606 
L 116.723682 84.924964 
L 118.272992 84.460001 
L 118.789428 84.708477 
L 119.994447 85.925421 
L 120.797793 87.368319 
L 121.830666 89.93863 
L 122.806158 92.992367 
L 125.790014 103.148556 
L 126.765505 105.569502 
L 127.511469 106.988037 
L 128.946015 109.059263 
L 131.069144 111.352359 
L 131.356053 111.580917 
L 131.815108 112.027662 
L 132.331544 112.634342 
L 133.938236 114.603112 
L 134.569436 115.64782 
L 134.856346 116.186753 
L 135.717073 118.117241 
L 136.577801 120.608184 
L 137.094238 122.497697 
L 137.725438 125.943109 
L 138.127111 128.624612 
L 139.96333 137.348854 
L 140.422385 138.564965 
L 140.996203 139.527013 
L 141.684785 139.987724 
L 142.488131 140.133167 
L 145.070314 140.370901 
L 145.816278 140.440588 
L 146.562242 140.551541 
L 147.078679 140.590144 
L 147.767261 140.650937 
L 148.283698 140.726887 
L 150.865881 140.787327 
L 151.324936 140.799138 
L 151.841372 140.814009 
L 152.300427 140.796506 
L 152.989009 140.747176 
L 153.3333 140.724002 
L 156.259775 140.523943 
L 156.718829 140.473229 
L 162.112723 140.125688 
L 162.34225 140.118811 
L 162.34225 140.118811 
" clip-path="url(#pbb42e53f04)" style="fill: none; stroke: #1f77b4; stroke-opacity: 0.5; stroke-width: 0.5; stroke-linecap: square"/>
   </g>
   <g id="patch_3">
    <path d="M 35.58575 146.538197 
L 35.58575 21.037 
" style="fill: none; stroke: #000000; stroke-linejoin: miter; stroke-linecap: square"/>
   </g>
   <g id="patch_4">
    <path d="M 162.973451 146.538197 
L 162.973451 21.037 
" style="fill: none; stroke: #000000; stroke-linejoin: miter; stroke-linecap: square"/>
   </g>
   <g id="patch_5">
    <path d="M 35.58575 146.538197 
L 162.973451 146.538197 
" style="fill: none; stroke: #000000; stroke-linejoin: miter; stroke-linecap: square"/>
   </g>
   <g id="patch_6">
    <path d="M 35.58575 21.037 
L 162.973451 21.037 
" style="fill: none; stroke: #000000; stroke-linejoin: miter; stroke-linecap: square"/>
   </g>
   <g id="text_14">
    <text style="font: 8px 'DejaVu Sans', 'Bitstream Vera Sans', 'Computer Modern Sans Serif', 'Lucida Grande', 'Verdana', 'Geneva', 'Lucid', 'Arial', 'Helvetica', 'Avant Garde', sans-serif" transform="translate(49.9196 6.07875)">enfys Hydrated silicates </text>
    <text style="font: 8px 'DejaVu Sans', 'Bitstream Vera Sans', 'Computer Modern Sans Serif', 'Lucida Grande', 'Verdana', 'Geneva', 'Lucid', 'Arial', 'Helvetica', 'Avant Garde', sans-serif" transform="translate(47.962725 15.037)"> &amp; halides Hydrated-silica</text>
   </g>
   <g id="legend_1">
    <g id="patch_7">
     <path d="M 169.721205 89.091036 
L 270.442455 89.091036 
Q 271.642455 89.091036 271.642455 87.891036 
L 271.642455 79.684161 
Q 271.642455 78.484161 270.442455 78.484161 
L 169.721205 78.484161 
Q 168.521205 78.484161 168.521205 79.684161 
L 168.521205 87.891036 
Q 168.521205 89.091036 169.721205 89.091036 
z
" style="fill: #ffffff; opacity: 0.8; stroke: #cccccc; stroke-width: 0.8; stroke-linejoin: miter"/>
    </g>
    <g id="line2d_62">
     <path d="M 170.921205 83.343223 
L 176.921205 83.343223 
L 182.921205 83.343223 
" style="fill: none; stroke: #1f77b4; stroke-width: 1.2; stroke-linecap: square"/>
    </g>
    <g id="text_15">
     <text style="font: 6px 'DejaVu Sans', 'Bitstream Vera Sans', 'Computer Modern Sans Serif', 'Lucida Grande', 'Verdana', 'Geneva', 'Lucid', 'Arial', 'Helvetica', 'Avant Garde', sans-serif; text-anchor: start" x="187.721205" y="85.443223" transform="rotate(-0 187.721205 85.443223)">Hydrated-Silica bkr1jb329c</text>
    </g>
   </g>
  </g>
 </g>
 <defs>
  <clipPath id="pbb42e53f04">
   <rect x="35.58575" y="21.037" width="127.387701" height="125.501197"/>
  </clipPath>
 </defs>
</svg>
