<?xml version="1.0" encoding="utf-8" standalone="no"?>
<!DOCTYPE svg PUBLIC "-//W3C//DTD SVG 1.1//EN"
  "http://www.w3.org/Graphics/SVG/1.1/DTD/svg11.dtd">
<svg xmlns:xlink="http://www.w3.org/1999/xlink" width="332.322211pt" height="970.556484pt" viewBox="0 0 332.322211 970.556484" xmlns="http://www.w3.org/2000/svg" version="1.1">
 <metadata>
  <rdf:RDF xmlns:dc="http://purl.org/dc/elements/1.1/" xmlns:cc="http://creativecommons.org/ns#" xmlns:rdf="http://www.w3.org/1999/02/22-rdf-syntax-ns#">
   <cc:Work>
    <dc:type rdf:resource="http://purl.org/dc/dcmitype/StillImage"/>
    <dc:date>2025-02-12T17:10:52.469528</dc:date>
    <dc:format>image/svg+xml</dc:format>
    <dc:creator>
     <cc:Agent>
      <dc:title>Matplotlib v3.6.2, https://matplotlib.org/</dc:title>
     </cc:Agent>
    </dc:creator>
   </cc:Work>
  </rdf:RDF>
 </metadata>
 <defs>
  <style type="text/css">*{stroke-linejoin: round; stroke-linecap: butt}</style>
 </defs>
 <g id="figure_1">
  <g id="patch_1">
   <path d="M 0 970.556484 
L 332.322211 970.556484 
L 332.322211 0 
L 0 0 
z
" style="fill: #ffffff"/>
  </g>
  <g id="axes_1">
   <g id="patch_2">
    <path d="M 32.789 940.448734 
L 245.289957 940.448734 
L 245.289957 12.07875 
L 32.789 12.07875 
z
" style="fill: #ffffff"/>
   </g>
   <g id="matplotlib.axis_1">
    <g id="xtick_1">
     <g id="line2d_1">
      <path d="M 47.135056 940.448734 
L 47.135056 12.07875 
" clip-path="url(#p4181b7af21)" style="fill: none; stroke: #b0b0b0; stroke-width: 0.6; stroke-linecap: square"/>
     </g>
     <g id="line2d_2">
      <defs>
       <path id="m8bd20933bf" d="M 0 0 
L 0 4.8 
" style="stroke: #000000"/>
      </defs>
      <g>
       <use xlink:href="#m8bd20933bf" x="47.135056" y="940.448734" style="stroke: #000000"/>
      </g>
     </g>
     <g id="text_1">
      <text style="font: 8.8px 'DejaVu Sans', 'Bitstream Vera Sans', 'Computer Modern Sans Serif', 'Lucida Grande', 'Verdana', 'Geneva', 'Lucid', 'Arial', 'Helvetica', 'Avant Garde', sans-serif; text-anchor: middle" x="47.135056" y="955.435359" transform="rotate(-0 47.135056 955.435359)">1000</text>
     </g>
    </g>
    <g id="xtick_2">
     <g id="line2d_3">
      <path d="M 91.966482 940.448734 
L 91.966482 12.07875 
" clip-path="url(#p4181b7af21)" style="fill: none; stroke: #b0b0b0; stroke-width: 0.6; stroke-linecap: square"/>
     </g>
     <g id="line2d_4">
      <g>
       <use xlink:href="#m8bd20933bf" x="91.966482" y="940.448734" style="stroke: #000000"/>
      </g>
     </g>
     <g id="text_2">
      <text style="font: 8.8px 'DejaVu Sans', 'Bitstream Vera Sans', 'Computer Modern Sans Serif', 'Lucida Grande', 'Verdana', 'Geneva', 'Lucid', 'Arial', 'Helvetica', 'Avant Garde', sans-serif; text-anchor: middle" x="91.966482" y="955.435359" transform="rotate(-0 91.966482 955.435359)">1500</text>
     </g>
    </g>
    <g id="xtick_3">
     <g id="line2d_5">
      <path d="M 136.797907 940.448734 
L 136.797907 12.07875 
" clip-path="url(#p4181b7af21)" style="fill: none; stroke: #b0b0b0; stroke-width: 0.6; stroke-linecap: square"/>
     </g>
     <g id="line2d_6">
      <g>
       <use xlink:href="#m8bd20933bf" x="136.797907" y="940.448734" style="stroke: #000000"/>
      </g>
     </g>
     <g id="text_3">
      <text style="font: 8.8px 'DejaVu Sans', 'Bitstream Vera Sans', 'Computer Modern Sans Serif', 'Lucida Grande', 'Verdana', 'Geneva', 'Lucid', 'Arial', 'Helvetica', 'Avant Garde', sans-serif; text-anchor: middle" x="136.797907" y="955.435359" transform="rotate(-0 136.797907 955.435359)">2000</text>
     </g>
    </g>
    <g id="xtick_4">
     <g id="line2d_7">
      <path d="M 181.629333 940.448734 
L 181.629333 12.07875 
" clip-path="url(#p4181b7af21)" style="fill: none; stroke: #b0b0b0; stroke-width: 0.6; stroke-linecap: square"/>
     </g>
     <g id="line2d_8">
      <g>
       <use xlink:href="#m8bd20933bf" x="181.629333" y="940.448734" style="stroke: #000000"/>
      </g>
     </g>
     <g id="text_4">
      <text style="font: 8.8px 'DejaVu Sans', 'Bitstream Vera Sans', 'Computer Modern Sans Serif', 'Lucida Grande', 'Verdana', 'Geneva', 'Lucid', 'Arial', 'Helvetica', 'Avant Garde', sans-serif; text-anchor: middle" x="181.629333" y="955.435359" transform="rotate(-0 181.629333 955.435359)">2500</text>
     </g>
    </g>
    <g id="xtick_5">
     <g id="line2d_9">
      <path d="M 226.460758 940.448734 
L 226.460758 12.07875 
" clip-path="url(#p4181b7af21)" style="fill: none; stroke: #b0b0b0; stroke-width: 0.6; stroke-linecap: square"/>
     </g>
     <g id="line2d_10">
      <g>
       <use xlink:href="#m8bd20933bf" x="226.460758" y="940.448734" style="stroke: #000000"/>
      </g>
     </g>
     <g id="text_5">
      <text style="font: 8.8px 'DejaVu Sans', 'Bitstream Vera Sans', 'Computer Modern Sans Serif', 'Lucida Grande', 'Verdana', 'Geneva', 'Lucid', 'Arial', 'Helvetica', 'Avant Garde', sans-serif; text-anchor: middle" x="226.460758" y="955.435359" transform="rotate(-0 226.460758 955.435359)">3000</text>
     </g>
    </g>
    <g id="xtick_6">
     <g id="line2d_11">
      <path d="M 38.168771 940.448734 
L 38.168771 12.07875 
" clip-path="url(#p4181b7af21)" style="fill: none; stroke: #b0b0b0; stroke-width: 0.3; stroke-linecap: square"/>
     </g>
     <g id="line2d_12">
      <defs>
       <path id="mfb80c0eec6" d="M 0 0 
L 0 3.2 
" style="stroke: #000000; stroke-width: 0.8"/>
      </defs>
      <g>
       <use xlink:href="#mfb80c0eec6" x="38.168771" y="940.448734" style="stroke: #000000; stroke-width: 0.8"/>
      </g>
     </g>
    </g>
    <g id="xtick_7">
     <g id="line2d_13">
      <path d="M 56.101341 940.448734 
L 56.101341 12.07875 
" clip-path="url(#p4181b7af21)" style="fill: none; stroke: #b0b0b0; stroke-width: 0.3; stroke-linecap: square"/>
     </g>
     <g id="line2d_14">
      <g>
       <use xlink:href="#mfb80c0eec6" x="56.101341" y="940.448734" style="stroke: #000000; stroke-width: 0.8"/>
      </g>
     </g>
    </g>
    <g id="xtick_8">
     <g id="line2d_15">
      <path d="M 65.067626 940.448734 
L 65.067626 12.07875 
" clip-path="url(#p4181b7af21)" style="fill: none; stroke: #b0b0b0; stroke-width: 0.3; stroke-linecap: square"/>
     </g>
     <g id="line2d_16">
      <g>
       <use xlink:href="#mfb80c0eec6" x="65.067626" y="940.448734" style="stroke: #000000; stroke-width: 0.8"/>
      </g>
     </g>
    </g>
    <g id="xtick_9">
     <g id="line2d_17">
      <path d="M 74.033911 940.448734 
L 74.033911 12.07875 
" clip-path="url(#p4181b7af21)" style="fill: none; stroke: #b0b0b0; stroke-width: 0.3; stroke-linecap: square"/>
     </g>
     <g id="line2d_18">
      <g>
       <use xlink:href="#mfb80c0eec6" x="74.033911" y="940.448734" style="stroke: #000000; stroke-width: 0.8"/>
      </g>
     </g>
    </g>
    <g id="xtick_10">
     <g id="line2d_19">
      <path d="M 83.000197 940.448734 
L 83.000197 12.07875 
" clip-path="url(#p4181b7af21)" style="fill: none; stroke: #b0b0b0; stroke-width: 0.3; stroke-linecap: square"/>
     </g>
     <g id="line2d_20">
      <g>
       <use xlink:href="#mfb80c0eec6" x="83.000197" y="940.448734" style="stroke: #000000; stroke-width: 0.8"/>
      </g>
     </g>
    </g>
    <g id="xtick_11">
     <g id="line2d_21">
      <path d="M 100.932767 940.448734 
L 100.932767 12.07875 
" clip-path="url(#p4181b7af21)" style="fill: none; stroke: #b0b0b0; stroke-width: 0.3; stroke-linecap: square"/>
     </g>
     <g id="line2d_22">
      <g>
       <use xlink:href="#mfb80c0eec6" x="100.932767" y="940.448734" style="stroke: #000000; stroke-width: 0.8"/>
      </g>
     </g>
    </g>
    <g id="xtick_12">
     <g id="line2d_23">
      <path d="M 109.899052 940.448734 
L 109.899052 12.07875 
" clip-path="url(#p4181b7af21)" style="fill: none; stroke: #b0b0b0; stroke-width: 0.3; stroke-linecap: square"/>
     </g>
     <g id="line2d_24">
      <g>
       <use xlink:href="#mfb80c0eec6" x="109.899052" y="940.448734" style="stroke: #000000; stroke-width: 0.8"/>
      </g>
     </g>
    </g>
    <g id="xtick_13">
     <g id="line2d_25">
      <path d="M 118.865337 940.448734 
L 118.865337 12.07875 
" clip-path="url(#p4181b7af21)" style="fill: none; stroke: #b0b0b0; stroke-width: 0.3; stroke-linecap: square"/>
     </g>
     <g id="line2d_26">
      <g>
       <use xlink:href="#mfb80c0eec6" x="118.865337" y="940.448734" style="stroke: #000000; stroke-width: 0.8"/>
      </g>
     </g>
    </g>
    <g id="xtick_14">
     <g id="line2d_27">
      <path d="M 127.831622 940.448734 
L 127.831622 12.07875 
" clip-path="url(#p4181b7af21)" style="fill: none; stroke: #b0b0b0; stroke-width: 0.3; stroke-linecap: square"/>
     </g>
     <g id="line2d_28">
      <g>
       <use xlink:href="#mfb80c0eec6" x="127.831622" y="940.448734" style="stroke: #000000; stroke-width: 0.8"/>
      </g>
     </g>
    </g>
    <g id="xtick_15">
     <g id="line2d_29">
      <path d="M 145.764192 940.448734 
L 145.764192 12.07875 
" clip-path="url(#p4181b7af21)" style="fill: none; stroke: #b0b0b0; stroke-width: 0.3; stroke-linecap: square"/>
     </g>
     <g id="line2d_30">
      <g>
       <use xlink:href="#mfb80c0eec6" x="145.764192" y="940.448734" style="stroke: #000000; stroke-width: 0.8"/>
      </g>
     </g>
    </g>
    <g id="xtick_16">
     <g id="line2d_31">
      <path d="M 154.730477 940.448734 
L 154.730477 12.07875 
" clip-path="url(#p4181b7af21)" style="fill: none; stroke: #b0b0b0; stroke-width: 0.3; stroke-linecap: square"/>
     </g>
     <g id="line2d_32">
      <g>
       <use xlink:href="#mfb80c0eec6" x="154.730477" y="940.448734" style="stroke: #000000; stroke-width: 0.8"/>
      </g>
     </g>
    </g>
    <g id="xtick_17">
     <g id="line2d_33">
      <path d="M 163.696763 940.448734 
L 163.696763 12.07875 
" clip-path="url(#p4181b7af21)" style="fill: none; stroke: #b0b0b0; stroke-width: 0.3; stroke-linecap: square"/>
     </g>
     <g id="line2d_34">
      <g>
       <use xlink:href="#mfb80c0eec6" x="163.696763" y="940.448734" style="stroke: #000000; stroke-width: 0.8"/>
      </g>
     </g>
    </g>
    <g id="xtick_18">
     <g id="line2d_35">
      <path d="M 172.663048 940.448734 
L 172.663048 12.07875 
" clip-path="url(#p4181b7af21)" style="fill: none; stroke: #b0b0b0; stroke-width: 0.3; stroke-linecap: square"/>
     </g>
     <g id="line2d_36">
      <g>
       <use xlink:href="#mfb80c0eec6" x="172.663048" y="940.448734" style="stroke: #000000; stroke-width: 0.8"/>
      </g>
     </g>
    </g>
    <g id="xtick_19">
     <g id="line2d_37">
      <path d="M 190.595618 940.448734 
L 190.595618 12.07875 
" clip-path="url(#p4181b7af21)" style="fill: none; stroke: #b0b0b0; stroke-width: 0.3; stroke-linecap: square"/>
     </g>
     <g id="line2d_38">
      <g>
       <use xlink:href="#mfb80c0eec6" x="190.595618" y="940.448734" style="stroke: #000000; stroke-width: 0.8"/>
      </g>
     </g>
    </g>
    <g id="xtick_20">
     <g id="line2d_39">
      <path d="M 199.561903 940.448734 
L 199.561903 12.07875 
" clip-path="url(#p4181b7af21)" style="fill: none; stroke: #b0b0b0; stroke-width: 0.3; stroke-linecap: square"/>
     </g>
     <g id="line2d_40">
      <g>
       <use xlink:href="#mfb80c0eec6" x="199.561903" y="940.448734" style="stroke: #000000; stroke-width: 0.8"/>
      </g>
     </g>
    </g>
    <g id="xtick_21">
     <g id="line2d_41">
      <path d="M 208.528188 940.448734 
L 208.528188 12.07875 
" clip-path="url(#p4181b7af21)" style="fill: none; stroke: #b0b0b0; stroke-width: 0.3; stroke-linecap: square"/>
     </g>
     <g id="line2d_42">
      <g>
       <use xlink:href="#mfb80c0eec6" x="208.528188" y="940.448734" style="stroke: #000000; stroke-width: 0.8"/>
      </g>
     </g>
    </g>
    <g id="xtick_22">
     <g id="line2d_43">
      <path d="M 217.494473 940.448734 
L 217.494473 12.07875 
" clip-path="url(#p4181b7af21)" style="fill: none; stroke: #b0b0b0; stroke-width: 0.3; stroke-linecap: square"/>
     </g>
     <g id="line2d_44">
      <g>
       <use xlink:href="#mfb80c0eec6" x="217.494473" y="940.448734" style="stroke: #000000; stroke-width: 0.8"/>
      </g>
     </g>
    </g>
    <g id="xtick_23">
     <g id="line2d_45">
      <path d="M 235.427043 940.448734 
L 235.427043 12.07875 
" clip-path="url(#p4181b7af21)" style="fill: none; stroke: #b0b0b0; stroke-width: 0.3; stroke-linecap: square"/>
     </g>
     <g id="line2d_46">
      <g>
       <use xlink:href="#mfb80c0eec6" x="235.427043" y="940.448734" style="stroke: #000000; stroke-width: 0.8"/>
      </g>
     </g>
    </g>
    <g id="xtick_24">
     <g id="line2d_47">
      <path d="M 244.393329 940.448734 
L 244.393329 12.07875 
" clip-path="url(#p4181b7af21)" style="fill: none; stroke: #b0b0b0; stroke-width: 0.3; stroke-linecap: square"/>
     </g>
     <g id="line2d_48">
      <g>
       <use xlink:href="#mfb80c0eec6" x="244.393329" y="940.448734" style="stroke: #000000; stroke-width: 0.8"/>
      </g>
     </g>
    </g>
    <g id="text_6">
     <text style="font: 9.6px 'DejaVu Sans', 'Bitstream Vera Sans', 'Computer Modern Sans Serif', 'Lucida Grande', 'Verdana', 'Geneva', 'Lucid', 'Arial', 'Helvetica', 'Avant Garde', sans-serif; text-anchor: middle" x="139.039479" y="968.559984" transform="rotate(-0 139.039479 968.559984)">Wavelength (nm)</text>
    </g>
   </g>
   <g id="matplotlib.axis_2">
    <g id="ytick_1">
     <g id="line2d_49">
      <defs>
       <path id="md556307455" d="M 0 0 
L -4.8 0 
" style="stroke: #000000"/>
      </defs>
      <g>
       <use xlink:href="#md556307455" x="32.789" y="893.608908" style="stroke: #000000"/>
      </g>
     </g>
     <g id="text_7">
      <text style="font: 8.8px 'DejaVu Sans', 'Bitstream Vera Sans', 'Computer Modern Sans Serif', 'Lucida Grande', 'Verdana', 'Geneva', 'Lucid', 'Arial', 'Helvetica', 'Avant Garde', sans-serif; text-anchor: end" x="24.489" y="896.952221" transform="rotate(-0 24.489 896.952221)">0</text>
     </g>
    </g>
    <g id="ytick_2">
     <g id="line2d_50">
      <g>
       <use xlink:href="#md556307455" x="32.789" y="726.73074" style="stroke: #000000"/>
      </g>
     </g>
     <g id="text_8">
      <text style="font: 8.8px 'DejaVu Sans', 'Bitstream Vera Sans', 'Computer Modern Sans Serif', 'Lucida Grande', 'Verdana', 'Geneva', 'Lucid', 'Arial', 'Helvetica', 'Avant Garde', sans-serif; text-anchor: end" x="24.489" y="730.074052" transform="rotate(-0 24.489 730.074052)">5</text>
     </g>
    </g>
    <g id="ytick_3">
     <g id="line2d_51">
      <g>
       <use xlink:href="#md556307455" x="32.789" y="559.852572" style="stroke: #000000"/>
      </g>
     </g>
     <g id="text_9">
      <text style="font: 8.8px 'DejaVu Sans', 'Bitstream Vera Sans', 'Computer Modern Sans Serif', 'Lucida Grande', 'Verdana', 'Geneva', 'Lucid', 'Arial', 'Helvetica', 'Avant Garde', sans-serif; text-anchor: end" x="24.489" y="563.195884" transform="rotate(-0 24.489 563.195884)">10</text>
     </g>
    </g>
    <g id="ytick_4">
     <g id="line2d_52">
      <g>
       <use xlink:href="#md556307455" x="32.789" y="392.974404" style="stroke: #000000"/>
      </g>
     </g>
     <g id="text_10">
      <text style="font: 8.8px 'DejaVu Sans', 'Bitstream Vera Sans', 'Computer Modern Sans Serif', 'Lucida Grande', 'Verdana', 'Geneva', 'Lucid', 'Arial', 'Helvetica', 'Avant Garde', sans-serif; text-anchor: end" x="24.489" y="396.317716" transform="rotate(-0 24.489 396.317716)">15</text>
     </g>
    </g>
    <g id="ytick_5">
     <g id="line2d_53">
      <g>
       <use xlink:href="#md556307455" x="32.789" y="226.096236" style="stroke: #000000"/>
      </g>
     </g>
     <g id="text_11">
      <text style="font: 8.8px 'DejaVu Sans', 'Bitstream Vera Sans', 'Computer Modern Sans Serif', 'Lucida Grande', 'Verdana', 'Geneva', 'Lucid', 'Arial', 'Helvetica', 'Avant Garde', sans-serif; text-anchor: end" x="24.489" y="229.439548" transform="rotate(-0 24.489 229.439548)">20</text>
     </g>
    </g>
    <g id="ytick_6">
     <g id="line2d_54">
      <g>
       <use xlink:href="#md556307455" x="32.789" y="59.218068" style="stroke: #000000"/>
      </g>
     </g>
     <g id="text_12">
      <text style="font: 8.8px 'DejaVu Sans', 'Bitstream Vera Sans', 'Computer Modern Sans Serif', 'Lucida Grande', 'Verdana', 'Geneva', 'Lucid', 'Arial', 'Helvetica', 'Avant Garde', sans-serif; text-anchor: end" x="24.489" y="62.56138" transform="rotate(-0 24.489 62.56138)">25</text>
     </g>
    </g>
    <g id="text_13">
     <text style="font: 9.6px 'DejaVu Sans', 'Bitstream Vera Sans', 'Computer Modern Sans Serif', 'Lucida Grande', 'Verdana', 'Geneva', 'Lucid', 'Arial', 'Helvetica', 'Avant Garde', sans-serif; text-anchor: middle" x="7.2945" y="476.263742" transform="rotate(-90 7.2945 476.263742)">Stacked Reflectance</text>
    </g>
   </g>
   <g id="line2d_55">
    <path d="M 38.168771 889.409342 
L 42.295604 889.398702 
L 62.06223 889.371569 
L 65.77825 889.315045 
L 72.45833 889.270081 
L 77.73741 889.270832 
L 81.390767 889.339571 
L 89.033793 889.205081 
L 95.073861 889.119438 
L 112.571257 888.999136 
L 122.960754 889.332788 
L 127.987884 889.522296 
L 132.293618 889.66658 
L 136.708078 889.805075 
L 141.234008 889.698632 
L 148.714408 889.964277 
L 151.597408 890.105188 
L 155.509128 890.174156 
L 157.494448 890.356863 
L 159.499671 890.708315 
L 162.545261 891.573862 
L 166.677585 892.601901 
L 167.723612 892.486225 
L 170.893178 891.080606 
L 171.960283 890.932755 
L 174.110526 891.025206 
L 176.282325 891.549333 
L 178.475897 892.484437 
L 180.691459 893.524363 
L 184.056517 894.544198 
L 185.189439 894.366566 
L 188.622304 891.863432 
L 189.778055 891.420593 
L 190.939584 891.126426 
L 193.280095 890.941977 
L 195.644069 891.07911 
L 196.834928 891.303425 
L 198.031742 891.683188 
L 202.879137 894.079371 
L 205.339341 895.041825 
L 206.578677 895.59453 
L 207.824209 895.952059 
L 212.868928 895.826279 
L 218.015299 896.379339 
L 223.265373 896.840873 
L 229.976984 897.362104 
L 234.085027 897.976481 
L 235.468091 898.250099 
L 235.468091 898.250099 
" clip-path="url(#p4181b7af21)" style="fill: none; stroke: #1f77b4; stroke-width: 0.5; stroke-linecap: square"/>
   </g>
   <g id="line2d_56">
    <path d="M 38.168771 849.094134 
L 46.189895 849.153173 
L 52.132757 849.067471 
L 59.486247 849.03343 
L 75.951322 849.34077 
L 79.550423 849.644248 
L 81.390767 849.988827 
L 85.155104 850.942382 
L 88.379258 851.451524 
L 92.355888 851.798297 
L 95.76187 851.873062 
L 104.291274 851.741714 
L 117.28278 852.327683 
L 121.318197 852.726049 
L 125.455514 853.355663 
L 127.139547 854.125171 
L 130.558429 856.024469 
L 132.293618 856.524843 
L 134.046203 856.837193 
L 135.816357 856.988475 
L 139.410081 857.005989 
L 143.07622 856.793705 
L 148.714408 856.151935 
L 151.597408 855.849294 
L 153.543513 855.919583 
L 155.509128 856.30804 
L 157.494448 857.048553 
L 160.509809 858.428225 
L 162.545261 859.052637 
L 163.570626 859.267574 
L 164.601118 859.329622 
L 165.636763 859.173784 
L 167.723612 858.646041 
L 168.774869 858.629491 
L 169.831383 858.823846 
L 171.960283 859.52667 
L 174.110526 860.481348 
L 177.376376 862.177837 
L 179.580915 862.925388 
L 180.691459 863.150356 
L 181.807555 863.213888 
L 182.929232 862.96963 
L 184.056517 862.383288 
L 185.189439 861.662836 
L 186.328025 861.132203 
L 187.472304 860.866685 
L 188.622304 860.787444 
L 190.939584 860.995836 
L 193.280095 861.582662 
L 195.644069 862.614608 
L 196.834928 863.331077 
L 198.031742 864.274617 
L 205.339341 871.544015 
L 207.824209 873.212123 
L 209.075969 873.904036 
L 210.333988 874.46346 
L 212.868928 875.229813 
L 216.719065 876.169205 
L 220.627244 876.842111 
L 223.265373 877.095969 
L 225.92995 877.159085 
L 235.468091 877.069907 
L 235.468091 877.069907 
" clip-path="url(#p4181b7af21)" style="fill: none; stroke: #1f77b4; stroke-width: 0.5; stroke-linecap: square"/>
   </g>
   <g id="line2d_57">
    <path d="M 38.168771 821.237541 
L 39.385282 821.327843 
L 41.45369 821.698763 
L 43.145959 822.137963 
L 44.437501 822.827717 
L 44.872328 822.843905 
L 45.748514 822.568748 
L 47.527326 821.868796 
L 48.884918 821.618392 
L 50.72693 821.558536 
L 52.606059 821.572068 
L 55.495989 821.721698 
L 58.473707 822.212894 
L 59.486247 822.544958 
L 59.996317 822.865413 
L 61.541881 824.440008 
L 62.06223 824.310144 
L 63.110745 823.425483 
L 63.638937 823.133151 
L 66.31978 822.422719 
L 67.960671 822.280862 
L 71.88626 822.248898 
L 73.611066 822.5601 
L 75.361874 823.064111 
L 76.543718 823.806461 
L 78.338736 825.284751 
L 79.550423 825.947645 
L 80.774257 826.570365 
L 81.390767 827.104076 
L 82.01036 827.861379 
L 82.633051 828.868878 
L 83.258855 830.210007 
L 84.519866 833.464289 
L 85.155104 834.17881 
L 85.793519 833.733759 
L 87.727979 830.462622 
L 89.033793 829.670797 
L 89.691601 828.883955 
L 91.0171 826.883347 
L 91.684825 826.111526 
L 93.030306 825.024556 
L 94.389276 824.233558 
L 95.76187 823.68199 
L 97.846604 823.106623 
L 100.675218 822.614339 
L 104.291274 822.353844 
L 106.504589 822.424868 
L 108.751271 822.767096 
L 110.267844 823.148274 
L 111.79962 823.814921 
L 113.346753 824.856756 
L 116.487703 827.837658 
L 117.28278 828.297291 
L 118.081833 828.554903 
L 118.884881 828.658724 
L 119.691945 828.544382 
L 121.318197 828.009831 
L 122.137427 827.961085 
L 122.960754 828.190353 
L 123.788196 828.735779 
L 124.619776 829.677864 
L 125.455514 831.14503 
L 126.295431 833.181983 
L 127.987884 838.049086 
L 128.840462 839.468357 
L 129.697303 839.204617 
L 131.42386 836.262002 
L 133.167725 833.412643 
L 134.929073 830.953752 
L 135.816357 829.996367 
L 136.708078 829.284783 
L 137.604257 828.778853 
L 138.504917 828.420569 
L 140.31977 828.044892 
L 143.07622 827.840813 
L 144.936901 827.925223 
L 146.816234 828.297762 
L 148.714408 828.655952 
L 150.631611 828.690474 
L 153.543513 828.548654 
L 156.499313 828.678352 
L 160.509809 829.228938 
L 162.545261 829.696208 
L 167.723612 831.311228 
L 168.774869 831.76137 
L 169.831383 832.343604 
L 170.893178 833.085817 
L 171.960283 833.983558 
L 173.032724 835.049809 
L 178.475897 841.281969 
L 179.580915 842.157981 
L 180.691459 842.846086 
L 181.807555 843.350005 
L 182.929232 843.684277 
L 184.056517 843.89569 
L 184.056517 843.89569 
" clip-path="url(#p4181b7af21)" style="fill: none; stroke-dasharray: 2,0.75; stroke-dashoffset: 0; stroke: #ff7f0e; stroke-width: 0.5"/>
   </g>
   <g id="line2d_58">
    <path d="M 38.168771 808.331784 
L 48.430128 809.257586 
L 52.132757 809.103167 
L 54.523054 808.782926 
L 56.478677 808.333575 
L 61.024122 806.928978 
L 63.638937 805.954295 
L 66.31978 804.928771 
L 68.513114 804.247918 
L 70.750643 803.757145 
L 74.19176 803.340191 
L 89.691601 802.36514 
L 91.684825 802.488054 
L 95.76187 803.025801 
L 97.148224 802.681752 
L 99.962765 801.777705 
L 102.834021 801.086416 
L 116.487703 798.270907 
L 118.884881 797.879371 
L 120.503043 797.99345 
L 121.318197 798.078979 
L 122.137427 798.002407 
L 124.619776 797.254323 
L 127.139547 796.773608 
L 128.840462 796.413374 
L 130.558429 796.398397 
L 132.293618 796.53648 
L 133.167725 796.298055 
L 134.929073 795.639801 
L 136.708078 795.369072 
L 142.152817 794.895016 
L 144.936901 794.83675 
L 148.714408 794.957927 
L 150.631611 795.309271 
L 152.568034 795.99173 
L 154.52387 796.920997 
L 155.509128 797.592441 
L 156.499313 798.545748 
L 157.494448 799.965844 
L 158.494559 801.781299 
L 159.499671 803.251648 
L 160.509809 803.776441 
L 161.524997 804.030602 
L 162.545261 804.766144 
L 163.570626 806.014204 
L 164.601118 807.480873 
L 165.636763 808.681215 
L 166.677585 809.213138 
L 167.723612 808.735337 
L 168.774869 807.129504 
L 170.893178 802.674049 
L 171.960283 801.021626 
L 173.032724 799.874504 
L 174.110526 799.145612 
L 175.193718 798.76043 
L 176.282325 798.633958 
L 177.376376 798.711685 
L 178.475897 798.938783 
L 181.807555 800.13109 
L 184.056517 800.808581 
L 184.056517 800.808581 
" clip-path="url(#p4181b7af21)" style="fill: none; stroke-dasharray: 2,0.75; stroke-dashoffset: 0; stroke: #ff7f0e; stroke-width: 0.5"/>
   </g>
   <g id="line2d_59">
    <path d="M 38.168771 771.207121 
L 42.719721 771.261053 
L 44.872328 771.18841 
L 47.07929 771.225502 
L 52.132757 771.213586 
L 54.523054 771.207883 
L 64.169771 771.143203 
L 69.068318 771.139391 
L 72.45833 771.074557 
L 90.352698 771.294251 
L 93.708097 771.179427 
L 99.962765 771.026052 
L 106.504589 771.031722 
L 114.126125 770.907565 
L 119.691945 771.059479 
L 126.295431 771.391872 
L 130.558429 772.049276 
L 133.167725 772.141081 
L 135.816357 772.018378 
L 141.234008 771.374769 
L 149.670619 771.037194 
L 162.545261 771.070338 
L 165.636763 771.12675 
L 184.056517 772.065423 
L 184.056517 772.065423 
" clip-path="url(#p4181b7af21)" style="fill: none; stroke-dasharray: 2,0.75; stroke-dashoffset: 0; stroke: #ff7f0e; stroke-width: 0.5"/>
   </g>
   <g id="line2d_60">
    <path d="M 38.168771 731.956016 
L 41.45369 732.031259 
L 44.004838 732.128967 
L 58.473707 732.404604 
L 63.110745 732.648889 
L 71.88626 732.861825 
L 75.361874 733.129914 
L 77.73741 733.57733 
L 79.550423 734.102791 
L 80.774257 734.78998 
L 82.01036 735.728777 
L 83.258855 736.780769 
L 83.887788 737.096061 
L 84.519866 737.204342 
L 85.793519 737.116437 
L 90.352698 736.440401 
L 93.030306 735.859416 
L 95.76187 735.478602 
L 99.253857 735.242949 
L 103.560831 735.2147 
L 108.751271 735.425105 
L 112.571257 735.761634 
L 122.137427 736.938032 
L 122.960754 737.161347 
L 123.788196 737.506166 
L 124.619776 738.051838 
L 125.455514 738.897228 
L 127.139547 741.362529 
L 127.987884 742.259839 
L 128.840462 742.593313 
L 129.697303 742.597469 
L 131.42386 742.299845 
L 134.046203 741.59595 
L 138.504917 740.188361 
L 141.234008 739.667174 
L 144.00424 739.401537 
L 146.816234 739.304436 
L 148.714408 739.361143 
L 150.631611 739.611078 
L 152.568034 740.152783 
L 155.509128 741.104227 
L 157.494448 741.323009 
L 161.524997 741.381033 
L 166.677585 741.363088 
L 168.774869 741.560997 
L 170.893178 741.936539 
L 174.110526 742.808679 
L 178.475897 744.113915 
L 181.807555 744.802589 
L 186.328025 745.419625 
L 190.939584 746.062883 
L 193.280095 746.547181 
L 195.644069 747.261819 
L 200.443351 749.17938 
L 202.879137 749.638139 
L 206.578677 749.851111 
L 216.719065 750.039603 
L 232.708844 750.012674 
L 235.468091 749.99464 
L 235.468091 749.99464 
" clip-path="url(#p4181b7af21)" style="fill: none; stroke-dasharray: 2,0.75; stroke-dashoffset: 0; stroke: #ff7f0e; stroke-width: 0.5"/>
   </g>
   <g id="line2d_61">
    <path d="M 38.168771 700.523833 
L 49.341982 700.471951 
L 55.986108 700.409666 
L 71.317036 700.406114 
L 74.775358 700.489781 
L 79.550423 700.510315 
L 85.793519 700.833985 
L 87.727979 701.078351 
L 88.379258 701.273707 
L 90.352698 702.163257 
L 92.355888 701.007279 
L 93.708097 700.746474 
L 95.76187 700.606413 
L 100.675218 700.503168 
L 121.318197 700.665331 
L 125.455514 700.928366 
L 128.840462 701.263233 
L 131.42386 701.310484 
L 142.152817 700.966205 
L 145.874224 701.049982 
L 150.631611 701.351086 
L 152.568034 701.611935 
L 154.52387 702.107883 
L 155.509128 702.594731 
L 157.494448 703.774337 
L 158.494559 703.927761 
L 159.499671 703.77764 
L 160.509809 703.765931 
L 162.545261 704.35485 
L 163.570626 704.483147 
L 164.601118 704.782294 
L 165.636763 705.980086 
L 166.677585 707.789672 
L 167.723612 709.093617 
L 168.774869 709.657569 
L 169.831383 709.394289 
L 173.032724 707.470165 
L 174.110526 706.691936 
L 175.193718 706.047079 
L 176.282325 705.650472 
L 177.376376 705.611003 
L 180.691459 706.22417 
L 181.807555 706.39114 
L 185.189439 707.415749 
L 190.939584 707.859855 
L 193.280095 707.720957 
L 194.459134 707.665823 
L 195.644069 707.837993 
L 198.031742 708.644049 
L 199.234539 709.173611 
L 200.443351 709.854594 
L 201.658207 710.748781 
L 206.578677 714.969245 
L 207.824209 715.650206 
L 210.333988 716.817064 
L 211.598297 717.881034 
L 212.868928 719.323038 
L 214.145911 720.39022 
L 215.42928 720.603124 
L 216.719065 720.028193 
L 219.318015 718.171912 
L 220.627244 717.618645 
L 227.272238 716.551267 
L 229.976984 715.927106 
L 232.708844 715.568115 
L 235.468091 715.349486 
L 235.468091 715.349486 
" clip-path="url(#p4181b7af21)" style="fill: none; stroke-dasharray: 2,0.75; stroke-dashoffset: 0; stroke: #ff7f0e; stroke-width: 0.5"/>
   </g>
   <g id="line2d_62">
    <path d="M 38.168771 682.953147 
L 43.574327 683.481285 
L 53.559776 684.096937 
L 56.97371 683.997514 
L 61.541881 683.624195 
L 66.31978 683.309986 
L 78.943068 682.78948 
L 83.258855 682.279374 
L 89.033793 681.30027 
L 94.389276 680.189074 
L 101.391233 678.760296 
L 107.998639 677.572311 
L 114.126125 676.795514 
L 118.884881 676.395033 
L 127.139547 676.016306 
L 144.00424 675.829971 
L 159.499671 675.911759 
L 185.189439 676.484215 
L 195.644069 676.917746 
L 199.234539 677.337176 
L 201.658207 677.802298 
L 202.879137 678.1906 
L 205.339341 679.215567 
L 207.824209 679.763562 
L 210.333988 680.014012 
L 219.318015 680.458597 
L 228.621238 680.62634 
L 235.468091 680.651155 
L 235.468091 680.651155 
" clip-path="url(#p4181b7af21)" style="fill: none; stroke-dasharray: 0.5,0.5; stroke-dashoffset: 0; stroke: #2ca02c; stroke-width: 0.5"/>
   </g>
   <g id="line2d_63">
    <path d="M 38.168771 654.729573 
L 40.20646 655.442381 
L 43.145959 656.74321 
L 46.189895 658.04833 
L 47.977601 658.62583 
L 49.80133 659.011435 
L 51.661808 659.164738 
L 53.559776 659.092879 
L 55.495989 658.793091 
L 64.703259 656.897139 
L 71.317036 655.824297 
L 74.19176 655.129517 
L 77.139075 654.225565 
L 80.774257 652.844228 
L 84.519866 651.174965 
L 96.453318 645.582833 
L 99.962765 644.286488 
L 103.560831 643.246192 
L 107.249751 642.429994 
L 111.031822 641.84564 
L 114.909395 641.487673 
L 121.318197 641.152603 
L 130.558429 640.889542 
L 141.234008 640.682176 
L 167.723612 640.394289 
L 181.807555 640.469681 
L 186.328025 640.483243 
L 189.778055 640.291314 
L 196.834928 639.73462 
L 199.234539 639.734646 
L 202.879137 639.982158 
L 211.598297 640.809302 
L 219.318015 641.118775 
L 234.085027 641.598307 
L 235.468091 641.612902 
L 235.468091 641.612902 
" clip-path="url(#p4181b7af21)" style="fill: none; stroke-dasharray: 0.5,0.5; stroke-dashoffset: 0; stroke: #2ca02c; stroke-width: 0.5"/>
   </g>
   <g id="line2d_64">
    <path d="M 38.168771 628.725316 
L 39.794847 628.311031 
L 41.035871 627.817363 
L 43.145959 626.766191 
L 46.189895 624.647101 
L 49.80133 622.024538 
L 51.661808 620.945064 
L 55.986108 618.553362 
L 58.978715 616.645404 
L 64.169771 613.066613 
L 66.31978 611.941234 
L 67.960671 611.283834 
L 70.187069 610.596366 
L 72.45833 610.168906 
L 75.361874 609.835648 
L 78.338736 609.668337 
L 80.160814 609.653595 
L 82.633051 609.804053 
L 85.793519 609.751919 
L 90.352698 609.506861 
L 92.355888 609.433491 
L 102.834021 609.177437 
L 108.751271 609.189717 
L 111.031822 609.120526 
L 113.346753 609.168918 
L 119.691945 609.286484 
L 123.788196 609.571316 
L 125.455514 610.033704 
L 126.295431 610.327181 
L 127.139547 610.436454 
L 129.697303 610.489068 
L 132.293618 610.512387 
L 139.410081 610.088677 
L 148.714408 609.574543 
L 152.568034 609.694996 
L 158.494559 610.123374 
L 166.677585 610.704801 
L 173.032724 611.453528 
L 181.807555 612.390092 
L 184.056517 612.626564 
L 184.056517 612.626564 
" clip-path="url(#p4181b7af21)" style="fill: none; stroke-dasharray: 0.5,0.5; stroke-dashoffset: 0; stroke: #2ca02c; stroke-width: 0.5"/>
   </g>
   <g id="line2d_65">
    <path d="M 38.168771 596.736977 
L 39.794847 596.741965 
L 41.45369 596.512557 
L 43.145959 595.975634 
L 44.437501 595.308192 
L 45.748514 594.358346 
L 47.07929 593.110243 
L 48.430128 591.533545 
L 50.72693 588.442945 
L 53.081729 585.345019 
L 54.523054 583.822128 
L 55.986108 582.613193 
L 57.471217 581.724321 
L 58.978715 581.126932 
L 61.024122 580.62315 
L 63.638937 580.255752 
L 66.864018 580.045118 
L 70.750643 580.043417 
L 73.611066 580.235323 
L 75.951322 580.550558 
L 78.338736 581.084878 
L 81.390767 582.046105 
L 83.258855 582.803662 
L 85.155104 583.410866 
L 87.727979 584.474806 
L 99.962765 589.819703 
L 103.560831 591.099349 
L 107.998639 592.351396 
L 111.031822 593.028479 
L 114.909395 593.700774 
L 118.884881 594.183321 
L 122.960754 594.423212 
L 126.295431 594.40627 
L 129.697303 594.213469 
L 134.046203 593.708739 
L 137.604257 593.035181 
L 141.234008 592.147568 
L 144.936901 591.030614 
L 153.543513 588.021699 
L 159.499671 585.97884 
L 161.524997 585.416551 
L 166.677585 584.23053 
L 168.774869 583.683156 
L 171.960283 583.209153 
L 175.193718 582.811179 
L 181.807555 582.454372 
L 194.459134 582.031165 
L 195.644069 582.189616 
L 196.834928 582.559078 
L 198.031742 583.36911 
L 199.234539 584.823797 
L 200.443351 586.497037 
L 201.658207 587.482606 
L 202.879137 587.562862 
L 212.868928 586.308992 
L 218.015299 585.945063 
L 224.594339 585.851229 
L 235.468091 585.773097 
L 235.468091 585.773097 
" clip-path="url(#p4181b7af21)" style="fill: none; stroke-dasharray: 0.5,0.5; stroke-dashoffset: 0; stroke: #2ca02c; stroke-width: 0.5"/>
   </g>
   <g id="line2d_66">
    <path d="M 38.168771 557.462594 
L 43.145959 557.621666 
L 48.884918 558.050532 
L 56.478677 558.511021 
L 68.513114 558.905781 
L 74.19176 558.894881 
L 81.390767 558.603199 
L 103.560831 557.454657 
L 120.503043 557.326812 
L 145.874224 557.29173 
L 161.524997 557.120133 
L 184.056517 556.8201 
L 199.234539 556.95994 
L 207.824209 557.263088 
L 221.943019 557.707988 
L 235.468091 557.805695 
L 235.468091 557.805695 
" clip-path="url(#p4181b7af21)" style="fill: none; stroke-dasharray: 0.5,0.5; stroke-dashoffset: 0; stroke: #2ca02c; stroke-width: 0.5"/>
   </g>
   <g id="line2d_67">
    <path d="M 38.168771 530.083157 
L 44.872328 532.139869 
L 47.07929 532.446027 
L 49.341982 532.48235 
L 51.661808 532.262647 
L 54.040214 531.764967 
L 56.478677 531.016251 
L 63.638937 528.632951 
L 67.410977 527.702976 
L 73.033261 526.564569 
L 79.550423 525.451675 
L 86.435125 524.434651 
L 93.030306 523.688109 
L 98.548476 523.262033 
L 103.560831 523.056119 
L 110.267844 523.015457 
L 115.696581 523.222041 
L 122.137427 523.718034 
L 127.987884 524.307515 
L 150.631611 526.723463 
L 156.499313 527.103017 
L 161.524997 527.179189 
L 166.677585 527.007446 
L 173.032724 526.464777 
L 177.376376 525.866602 
L 182.929232 524.921189 
L 187.472304 524.120051 
L 193.280095 523.289348 
L 198.031742 522.797661 
L 201.658207 522.616376 
L 206.578677 522.748596 
L 216.719065 522.861826 
L 235.468091 522.212532 
L 235.468091 522.212532 
" clip-path="url(#p4181b7af21)" style="fill: none; stroke-dasharray: 0.5,0.5; stroke-dashoffset: 0; stroke: #2ca02c; stroke-width: 0.5"/>
   </g>
   <g id="line2d_68">
    <path d="M 38.168771 497.111046 
L 41.035871 496.877931 
L 46.633484 496.35193 
L 51.661808 496.236831 
L 56.97371 496.143731 
L 61.024122 495.866615 
L 66.864018 495.204898 
L 80.160814 493.660772 
L 81.390767 493.702425 
L 82.01036 493.828405 
L 82.633051 493.794551 
L 84.519866 493.423882 
L 93.030306 492.514669 
L 114.909395 490.867487 
L 123.788196 490.706078 
L 138.504917 490.646981 
L 143.07622 490.240496 
L 145.874224 490.196758 
L 153.543513 490.390032 
L 155.509128 490.666448 
L 156.499313 490.910198 
L 159.499671 491.971657 
L 161.524997 492.335228 
L 164.601118 493.32088 
L 165.636763 493.546052 
L 166.677585 493.625446 
L 167.723612 493.500469 
L 170.893178 492.747342 
L 174.110526 492.378078 
L 176.282325 492.537318 
L 179.580915 492.964177 
L 186.328025 493.104171 
L 189.778055 493.086365 
L 193.280095 493.077832 
L 194.459134 493.219832 
L 195.644069 493.486281 
L 196.834928 493.954071 
L 198.031742 494.78107 
L 199.234539 496.185939 
L 200.443351 498.358903 
L 201.658207 500.245177 
L 202.879137 501.254332 
L 204.106171 501.946139 
L 206.578677 502.946736 
L 207.824209 503.257159 
L 209.075969 503.412143 
L 211.598297 503.40915 
L 214.145911 503.342033 
L 220.627244 503.414064 
L 223.265373 503.13036 
L 225.92995 502.680975 
L 229.976984 501.721557 
L 235.468091 500.189172 
L 235.468091 500.189172 
" clip-path="url(#p4181b7af21)" style="fill: none; stroke-dasharray: 1.5,0.625,0.75,0.625; stroke-dashoffset: 0; stroke: #d62728; stroke-width: 0.5"/>
   </g>
   <g id="line2d_69">
    <path d="M 38.168771 465.432078 
L 44.437501 465.28592 
L 49.341982 465.143596 
L 56.97371 464.972049 
L 63.638937 464.366035 
L 78.943068 462.24662 
L 81.390767 461.989638 
L 82.633051 462.050018 
L 83.887788 462.166306 
L 84.519866 462.129274 
L 90.352698 460.843927 
L 97.148224 459.978059 
L 105.763135 459.174691 
L 112.571257 458.754836 
L 122.137427 458.284144 
L 124.619776 458.356306 
L 126.295431 458.690205 
L 128.840462 459.52993 
L 130.558429 459.412338 
L 136.708078 458.628915 
L 141.234008 458.156524 
L 144.936901 458.042976 
L 150.631611 458.209058 
L 152.568034 458.575842 
L 156.499313 459.835849 
L 157.494448 459.811996 
L 162.545261 458.983945 
L 163.570626 459.039487 
L 165.636763 459.529542 
L 167.723612 460.114878 
L 168.774869 460.252929 
L 174.110526 460.456591 
L 177.376376 460.913048 
L 181.807555 461.019197 
L 185.189439 461.064182 
L 188.622304 461.373004 
L 193.280095 462.062826 
L 194.459134 462.337556 
L 195.644069 462.785693 
L 196.834928 463.541941 
L 198.031742 464.768902 
L 199.234539 466.541799 
L 202.879137 472.814459 
L 204.106171 474.029902 
L 205.339341 474.582745 
L 206.578677 474.526025 
L 207.824209 473.989108 
L 210.333988 472.2581 
L 212.868928 470.543923 
L 214.145911 469.976388 
L 215.42928 469.637808 
L 218.015299 469.347622 
L 228.621238 468.8078 
L 234.085027 468.523976 
L 235.468091 468.410854 
L 235.468091 468.410854 
" clip-path="url(#p4181b7af21)" style="fill: none; stroke-dasharray: 1.5,0.625,0.75,0.625; stroke-dashoffset: 0; stroke: #d62728; stroke-width: 0.5"/>
   </g>
   <g id="line2d_70">
    <path d="M 38.168771 421.814308 
L 42.295604 421.849647 
L 44.004838 421.917075 
L 47.07929 421.673067 
L 51.193204 421.555751 
L 62.06223 421.354306 
L 66.864018 421.433094 
L 69.068318 421.626426 
L 71.317036 421.672632 
L 73.033261 421.970341 
L 75.361874 422.523856 
L 77.73741 422.987864 
L 78.943068 423.544399 
L 80.160814 424.134692 
L 80.774257 424.603925 
L 82.01036 425.91889 
L 82.633051 426.375962 
L 83.887788 426.585458 
L 84.519866 426.346859 
L 85.793519 424.045377 
L 86.435125 423.408662 
L 87.07994 423.058075 
L 88.379258 422.675076 
L 91.0171 422.279932 
L 98.548476 421.866014 
L 102.834021 421.857555 
L 114.909395 422.387958 
L 122.960754 423.200635 
L 124.619776 423.392014 
L 126.295431 423.986993 
L 128.840462 424.965545 
L 130.558429 425.179166 
L 134.046203 425.02767 
L 137.604257 424.981109 
L 140.31977 425.182462 
L 142.152817 425.512615 
L 144.936901 426.387859 
L 146.816234 427.231063 
L 147.762954 427.748512 
L 148.714408 428.434141 
L 149.670619 429.502426 
L 150.631611 430.821936 
L 151.597408 431.84818 
L 152.568034 432.400691 
L 155.509128 433.489831 
L 156.499313 432.481845 
L 157.494448 431.232431 
L 158.494559 430.689095 
L 159.499671 430.523874 
L 160.509809 430.589953 
L 162.545261 431.210317 
L 165.636763 432.524686 
L 167.723612 433.129487 
L 169.831383 433.940533 
L 170.893178 434.2939 
L 171.960283 434.465287 
L 173.032724 434.464599 
L 174.110526 434.615276 
L 175.193718 435.008503 
L 177.376376 436.024194 
L 182.929232 437.898472 
L 188.622304 439.533961 
L 190.939584 440.293359 
L 192.106921 440.759671 
L 193.280095 441.377809 
L 194.459134 442.22228 
L 195.644069 443.334395 
L 196.834928 444.804047 
L 199.234539 448.468512 
L 200.443351 449.675911 
L 201.658207 450.124415 
L 202.879137 450.246426 
L 204.106171 450.125969 
L 205.339341 449.707987 
L 207.824209 447.936871 
L 209.075969 447.237671 
L 211.598297 446.307884 
L 215.42928 445.370263 
L 219.318015 444.656094 
L 221.943019 443.721296 
L 225.92995 442.807841 
L 231.339508 441.749951 
L 235.468091 441.100688 
L 235.468091 441.100688 
" clip-path="url(#p4181b7af21)" style="fill: none; stroke-dasharray: 1.5,0.625,0.75,0.625; stroke-dashoffset: 0; stroke: #d62728; stroke-width: 0.5"/>
   </g>
   <g id="line2d_71">
    <path d="M 38.168771 406.382256 
L 41.035871 406.33278 
L 49.80133 406.071385 
L 55.986108 406.021131 
L 62.58518 405.580857 
L 67.960671 404.938935 
L 78.338736 403.656574 
L 80.160814 403.557173 
L 81.390767 403.681997 
L 82.01036 403.895366 
L 82.633051 404.345419 
L 83.258855 405.065313 
L 83.887788 405.541194 
L 84.519866 405.168718 
L 85.155104 404.38874 
L 85.793519 403.809678 
L 87.07994 403.22705 
L 89.033793 402.841491 
L 91.684825 402.530702 
L 98.548476 402.042369 
L 105.025369 401.43278 
L 111.031822 401.09504 
L 119.691945 401.022551 
L 137.604257 401.781535 
L 142.152817 401.413657 
L 144.936901 401.515315 
L 146.816234 401.83969 
L 147.762954 402.168923 
L 149.670619 403.29113 
L 151.597408 404.633149 
L 154.52387 407.261966 
L 155.509128 407.433418 
L 157.494448 406.296286 
L 158.494559 406.381521 
L 159.499671 406.787911 
L 160.509809 407.032727 
L 161.524997 407.088644 
L 162.545261 407.319491 
L 165.636763 408.734434 
L 166.677585 409.147421 
L 167.723612 409.421809 
L 168.774869 409.441613 
L 170.893178 409.192653 
L 173.032724 409.316061 
L 176.282325 409.562809 
L 179.580915 409.370461 
L 181.807555 409.275891 
L 184.056517 409.332738 
L 184.056517 409.332738 
" clip-path="url(#p4181b7af21)" style="fill: none; stroke-dasharray: 1.5,0.625,0.75,0.625; stroke-dashoffset: 0; stroke: #d62728; stroke-width: 0.5"/>
   </g>
   <g id="line2d_72">
    <path d="M 38.168771 367.406552 
L 47.07929 367.125828 
L 51.193204 367.014497 
L 53.081729 366.956121 
L 56.478677 366.816214 
L 63.638937 366.598431 
L 69.068318 366.210999 
L 75.951322 366.2219 
L 79.550423 366.365088 
L 80.774257 366.634761 
L 82.01036 367.230872 
L 83.887788 368.423583 
L 84.519866 368.438012 
L 87.07994 367.216277 
L 92.355888 366.283844 
L 95.76187 365.949538 
L 108.751271 365.474348 
L 113.346753 365.578557 
L 122.137427 366.146218 
L 123.788196 366.539155 
L 124.619776 366.921498 
L 125.455514 367.593981 
L 126.295431 368.682083 
L 127.987884 371.369526 
L 128.840462 371.643395 
L 129.697303 371.101561 
L 130.558429 370.425279 
L 131.42386 369.934099 
L 133.167725 369.362342 
L 135.816357 368.52084 
L 138.504917 367.64934 
L 140.31977 367.276487 
L 143.07622 367.019297 
L 147.762954 366.977631 
L 149.670619 367.082464 
L 150.631611 367.234708 
L 151.597408 367.503515 
L 153.543513 368.42326 
L 154.52387 368.939182 
L 155.509128 369.190118 
L 156.499313 369.002026 
L 159.499671 368.121242 
L 160.509809 367.971305 
L 161.524997 367.962764 
L 163.570626 368.246169 
L 166.677585 368.975556 
L 174.110526 371.292534 
L 177.376376 372.338667 
L 180.691459 373.092561 
L 185.189439 373.954954 
L 192.106921 374.846378 
L 194.459134 375.483618 
L 195.644069 375.994537 
L 196.834928 376.815906 
L 198.031742 378.21086 
L 199.234539 380.091074 
L 200.443351 381.663236 
L 201.658207 382.807753 
L 202.879137 383.622961 
L 204.106171 384.0178 
L 205.339341 384.024816 
L 206.578677 383.706729 
L 207.824209 383.122801 
L 210.333988 381.621997 
L 211.598297 381.031454 
L 212.868928 380.616224 
L 215.42928 380.115703 
L 220.627244 379.453739 
L 235.468091 377.775996 
L 235.468091 377.775996 
" clip-path="url(#p4181b7af21)" style="fill: none; stroke-dasharray: 1.5,0.625,0.75,0.625; stroke-dashoffset: 0; stroke: #d62728; stroke-width: 0.5"/>
   </g>
   <g id="line2d_73">
    <path d="M 38.168771 341.491762 
L 40.620132 341.557912 
L 44.004838 341.39791 
L 47.07929 341.01819 
L 51.193204 340.246796 
L 59.486247 338.526421 
L 66.864018 337.648034 
L 71.317036 337.425314 
L 75.361874 337.412031 
L 80.160814 337.681954 
L 81.390767 338.000098 
L 82.633051 338.740709 
L 83.887788 339.652085 
L 84.519866 339.905346 
L 85.155104 340.001767 
L 85.793519 339.973375 
L 86.435125 339.768573 
L 87.727979 339.079638 
L 89.691601 338.56665 
L 92.355888 338.022848 
L 95.76187 337.633838 
L 102.110828 337.244529 
L 111.79962 336.991903 
L 119.691945 337.104593 
L 122.960754 337.263329 
L 124.619776 337.535802 
L 125.455514 337.822019 
L 126.295431 338.309025 
L 127.987884 339.746109 
L 128.840462 339.998751 
L 129.697303 339.808826 
L 132.293618 338.873981 
L 134.929073 338.341772 
L 139.410081 337.699974 
L 142.152817 337.465277 
L 146.816234 337.34451 
L 151.597408 337.386758 
L 154.52387 337.675192 
L 159.499671 338.523231 
L 162.545261 339.524554 
L 165.636763 338.732143 
L 166.677585 338.714738 
L 168.774869 338.988362 
L 174.110526 339.967092 
L 178.475897 340.262623 
L 185.189439 341.067114 
L 188.622304 341.518873 
L 192.106921 342.255441 
L 194.459134 343.020638 
L 195.644069 343.562977 
L 196.834928 344.294566 
L 198.031742 345.244419 
L 199.234539 346.415215 
L 201.658207 349.080458 
L 202.879137 350.095425 
L 204.106171 350.774259 
L 205.339341 351.18195 
L 206.578677 351.396662 
L 207.824209 351.464648 
L 209.075969 351.341549 
L 212.868928 350.514047 
L 216.719065 350.152159 
L 235.468091 349.363146 
L 235.468091 349.363146 
" clip-path="url(#p4181b7af21)" style="fill: none; stroke-dasharray: 1.5,0.625,0.75,0.625; stroke-dashoffset: 0; stroke: #d62728; stroke-width: 0.5"/>
   </g>
   <g id="line2d_74">
    <path d="M 38.168771 300.3598 
L 41.873597 300.675466 
L 42.719721 300.86102 
L 46.633484 300.69493 
L 54.523054 300.377665 
L 58.473707 300.489262 
L 59.486247 300.695499 
L 61.024122 301.115641 
L 62.06223 301.028173 
L 64.169771 300.77435 
L 68.513114 300.583262 
L 71.317036 300.662764 
L 74.775358 301.029361 
L 75.951322 301.379172 
L 78.338736 302.348539 
L 79.550423 303.013238 
L 80.160814 303.500768 
L 80.774257 304.314407 
L 81.390767 305.716837 
L 82.01036 307.436963 
L 82.633051 308.013081 
L 83.258855 308.097184 
L 83.887788 308.36797 
L 84.519866 308.43462 
L 85.155104 308.186737 
L 87.07994 307.039968 
L 89.691601 306.014632 
L 91.684825 304.881445 
L 93.708097 304.093028 
L 96.453318 303.312463 
L 99.253857 302.796262 
L 102.110828 302.479295 
L 105.763135 302.285014 
L 109.507667 302.46042 
L 111.79962 302.813209 
L 114.909395 303.577783 
L 122.137427 305.517749 
L 122.960754 305.934357 
L 123.788196 306.574114 
L 124.619776 307.570283 
L 125.455514 309.046023 
L 126.295431 311.114831 
L 127.139547 313.544965 
L 127.987884 315.428607 
L 128.840462 316.057685 
L 129.697303 315.700975 
L 131.42386 314.381298 
L 135.816357 311.730931 
L 138.504917 309.966816 
L 140.31977 309.102122 
L 142.152817 308.5602 
L 144.00424 308.266449 
L 150.631611 307.761735 
L 154.52387 307.798104 
L 156.499313 308.007318 
L 158.494559 308.461906 
L 159.499671 308.812342 
L 160.509809 309.41052 
L 161.524997 310.400761 
L 162.545261 311.74518 
L 163.570626 312.889596 
L 164.601118 313.745686 
L 165.636763 313.850986 
L 166.677585 313.118807 
L 167.723612 312.628543 
L 168.774869 312.705575 
L 169.831383 313.201521 
L 170.893178 313.917681 
L 171.960283 314.426775 
L 174.110526 314.740719 
L 181.807555 317.559026 
L 184.056517 318.174547 
L 186.328025 318.60339 
L 192.106921 319.341595 
L 193.280095 319.632152 
L 194.459134 320.065052 
L 195.644069 320.746441 
L 196.834928 321.836176 
L 199.234539 324.617899 
L 200.443351 325.880001 
L 201.658207 326.783072 
L 204.106171 326.933265 
L 207.824209 327.054458 
L 224.594339 326.809606 
L 229.976984 326.366733 
L 235.468091 325.891117 
L 235.468091 325.891117 
" clip-path="url(#p4181b7af21)" style="fill: none; stroke-dasharray: 1.5,0.625,0.75,0.625; stroke-dashoffset: 0; stroke: #d62728; stroke-width: 0.5"/>
   </g>
   <g id="line2d_75">
    <path d="M 38.168771 279.711713 
L 42.719721 279.469622 
L 47.527326 279.021309 
L 53.081729 278.87005 
L 59.486247 278.635204 
L 64.169771 278.296213 
L 78.943068 277.161748 
L 80.160814 277.265657 
L 80.774257 277.452061 
L 82.01036 278.133088 
L 82.633051 278.102002 
L 84.519866 277.252235 
L 86.435125 276.809477 
L 89.033793 276.485666 
L 96.453318 275.958641 
L 105.025369 275.584817 
L 113.346753 275.433351 
L 123.788196 275.609659 
L 125.455514 275.772493 
L 127.987884 276.384923 
L 129.697303 276.731286 
L 132.293618 276.800769 
L 136.708078 276.740805 
L 143.07622 276.351159 
L 145.874224 276.533937 
L 148.714408 276.634839 
L 153.543513 276.600022 
L 155.509128 276.803545 
L 157.494448 277.296987 
L 165.636763 280.438719 
L 166.677585 280.583786 
L 167.723612 280.336325 
L 168.774869 279.958885 
L 169.831383 279.811465 
L 173.032724 280.103413 
L 180.691459 281.087842 
L 181.807555 281.317266 
L 182.929232 281.429758 
L 190.939584 281.367695 
L 192.106921 281.475853 
L 193.280095 281.724314 
L 194.459134 282.215823 
L 195.644069 283.033433 
L 196.834928 284.34989 
L 199.234539 288.728407 
L 200.443351 290.209385 
L 201.658207 290.788456 
L 202.879137 290.940305 
L 205.339341 290.819066 
L 211.598297 290.235947 
L 219.318015 289.485059 
L 235.468091 287.956626 
L 235.468091 287.956626 
" clip-path="url(#p4181b7af21)" style="fill: none; stroke-dasharray: 1.5,0.625,0.75,0.625; stroke-dashoffset: 0; stroke: #d62728; stroke-width: 0.5"/>
   </g>
   <g id="line2d_76">
    <path d="M 38.168771 248.560162 
L 40.620132 248.398969 
L 41.45369 248.435147 
L 42.719721 248.679026 
L 44.004838 248.270479 
L 45.748514 248.160273 
L 53.559776 247.608533 
L 67.410977 246.246046 
L 70.750643 246.169815 
L 71.88626 246.305941 
L 75.951322 246.071169 
L 78.338736 246.111521 
L 79.550423 246.337742 
L 80.160814 246.610289 
L 80.774257 247.204892 
L 81.390767 248.529019 
L 82.01036 250.366299 
L 82.633051 250.567125 
L 83.258855 248.976681 
L 83.887788 247.819973 
L 84.519866 247.314119 
L 85.793519 246.86656 
L 88.379258 246.263297 
L 92.355888 245.756316 
L 104.291274 245.135617 
L 114.909395 244.859903 
L 118.884881 245.085448 
L 122.137427 245.465222 
L 124.619776 245.795637 
L 125.455514 246.038032 
L 126.295431 246.405056 
L 127.987884 247.342057 
L 128.840462 247.561414 
L 130.558429 247.479403 
L 134.046203 247.303872 
L 138.504917 247.376824 
L 139.410081 247.217109 
L 140.31977 247.204336 
L 141.234008 247.375792 
L 142.152817 247.718943 
L 143.07622 248.27153 
L 144.00424 248.677172 
L 146.816234 248.765857 
L 148.714408 249.206187 
L 151.597408 249.107053 
L 152.568034 249.192055 
L 154.52387 249.215117 
L 155.509128 249.540949 
L 158.494559 251.708378 
L 159.499671 252.642614 
L 160.509809 254.287736 
L 162.545261 258.697893 
L 163.570626 260.058263 
L 164.601118 260.46977 
L 165.636763 259.448478 
L 166.677585 257.456252 
L 167.723612 256.311229 
L 168.774869 256.46838 
L 170.893178 258.311037 
L 171.960283 258.473954 
L 174.110526 257.128991 
L 175.193718 256.934484 
L 178.475897 257.386293 
L 179.580915 257.219374 
L 181.807555 256.740457 
L 184.056517 256.615933 
L 184.056517 256.615933 
" clip-path="url(#p4181b7af21)" style="fill: none; stroke-dasharray: 1.5,0.625,0.75,0.625; stroke-dashoffset: 0; stroke: #d62728; stroke-width: 0.5"/>
   </g>
   <g id="line2d_77">
    <path d="M 38.168771 208.697866 
L 41.035871 208.604034 
L 43.145959 208.620057 
L 44.872328 208.786733 
L 47.07929 209.145613 
L 47.977601 209.047746 
L 51.193204 208.299432 
L 54.523054 208.14894 
L 64.169771 208.167731 
L 66.31978 208.473248 
L 69.626299 209.41407 
L 70.750643 209.918389 
L 71.317036 209.981497 
L 71.88626 209.795533 
L 73.033261 209.192286 
L 73.611066 209.017138 
L 74.775358 209.010152 
L 76.543718 209.541071 
L 77.73741 209.931884 
L 79.550423 210.010085 
L 80.774257 210.068203 
L 82.01036 210.569401 
L 82.633051 211.013374 
L 83.258855 211.66954 
L 83.887788 212.632553 
L 85.155104 215.771541 
L 85.793519 216.282796 
L 86.435125 215.828675 
L 87.07994 215.704155 
L 87.727979 216.129411 
L 89.033793 217.430364 
L 89.691601 218.285013 
L 90.352698 217.84446 
L 91.0171 216.248938 
L 91.684825 215.060103 
L 93.030306 213.467586 
L 93.708097 212.939397 
L 95.073861 212.377697 
L 96.453318 212.106675 
L 98.548476 212.014342 
L 103.560831 212.260951 
L 105.763135 212.465388 
L 107.998639 212.904139 
L 110.267844 213.550162 
L 111.031822 213.887875 
L 111.79962 214.360902 
L 113.346753 215.69415 
L 114.126125 216.393379 
L 114.909395 216.925412 
L 115.696581 217.164573 
L 116.487703 216.971391 
L 117.28278 216.345947 
L 118.884881 214.723926 
L 119.691945 214.274656 
L 120.503043 214.071894 
L 122.137427 214.057805 
L 123.788196 214.347162 
L 125.455514 214.899472 
L 127.987884 216.255583 
L 129.697303 217.199174 
L 131.42386 217.83739 
L 133.167725 218.340723 
L 135.816357 218.929603 
L 137.604257 219.67742 
L 144.00424 221.337903 
L 144.936901 221.728237 
L 145.874224 222.381449 
L 146.816234 223.321537 
L 148.714408 225.460957 
L 149.670619 226.23846 
L 150.631611 226.868224 
L 151.597408 227.203122 
L 152.568034 227.166485 
L 153.543513 226.727053 
L 155.509128 225.19441 
L 157.494448 222.331202 
L 158.494559 221.448961 
L 159.499671 221.069886 
L 160.509809 220.99145 
L 161.524997 221.101762 
L 162.545261 221.418388 
L 163.570626 222.043323 
L 164.601118 223.014061 
L 165.636763 223.788381 
L 166.677585 223.749232 
L 167.723612 223.384207 
L 168.774869 223.346983 
L 169.831383 223.859657 
L 170.893178 224.919834 
L 171.960283 226.14576 
L 173.032724 227.038852 
L 175.193718 228.356186 
L 176.282325 228.614111 
L 177.376376 228.727491 
L 180.691459 229.437696 
L 181.807555 230.067019 
L 182.929232 230.458478 
L 184.056517 230.14265 
L 185.189439 229.615846 
L 186.328025 229.283555 
L 188.622304 229.041345 
L 189.778055 228.754546 
L 192.106921 228.002457 
L 193.280095 227.748084 
L 194.459134 227.749285 
L 195.644069 228.224651 
L 198.031742 229.36274 
L 199.234539 229.859742 
L 200.443351 230.708708 
L 204.106171 234.009232 
L 205.339341 234.860495 
L 206.578677 235.490886 
L 207.824209 235.885781 
L 209.075969 236.139173 
L 210.333988 236.273812 
L 211.598297 236.208335 
L 212.868928 235.918566 
L 214.145911 235.46637 
L 215.42928 235.471459 
L 216.719065 235.792268 
L 219.318015 236.106801 
L 223.265373 236.212473 
L 235.468091 236.059108 
L 235.468091 236.059108 
" clip-path="url(#p4181b7af21)" style="fill: none; stroke-dasharray: 2.5,0.5,0.5,0.5; stroke-dashoffset: 0; stroke: #9467bd; stroke-width: 0.5"/>
   </g>
   <g id="line2d_78">
    <path d="M 38.168771 181.247612 
L 44.004838 181.717873 
L 45.309328 181.785616 
L 51.661808 181.366245 
L 56.478677 181.516837 
L 59.486247 181.867316 
L 60.508938 182.21252 
L 62.06223 182.927557 
L 62.58518 182.897395 
L 64.169771 182.474189 
L 67.410977 182.188696 
L 70.750643 182.107272 
L 73.611066 182.346639 
L 75.361874 182.745317 
L 76.543718 183.254344 
L 77.73741 183.878708 
L 80.160814 184.550989 
L 80.774257 184.941005 
L 83.258855 187.351554 
L 85.155104 189.306402 
L 85.793519 189.422249 
L 86.435125 189.148213 
L 88.379258 187.710631 
L 90.352698 187.091524 
L 92.355888 185.951693 
L 93.708097 185.468111 
L 96.453318 184.962446 
L 98.548476 184.387397 
L 101.391233 183.951797 
L 104.291274 183.745599 
L 105.763135 183.764564 
L 107.998639 184.122039 
L 109.507667 184.455245 
L 111.031822 184.997072 
L 112.571257 185.760232 
L 114.909395 186.96948 
L 115.696581 187.223766 
L 116.487703 187.356211 
L 117.28278 187.360991 
L 118.884881 187.071815 
L 120.503043 186.800732 
L 121.318197 186.836436 
L 122.137427 187.025908 
L 122.960754 187.373771 
L 123.788196 187.882199 
L 124.619776 188.589885 
L 125.455514 189.571116 
L 126.295431 190.897486 
L 127.139547 192.631686 
L 128.840462 196.898603 
L 129.697303 198.185628 
L 130.558429 198.15182 
L 132.293618 196.585 
L 134.046203 194.767093 
L 135.816357 193.153312 
L 137.604257 191.324484 
L 138.504917 190.657096 
L 139.410081 190.206656 
L 140.31977 189.944036 
L 141.234008 189.830882 
L 143.07622 189.969991 
L 146.816234 190.666648 
L 150.631611 190.978443 
L 154.52387 191.786935 
L 157.494448 192.435587 
L 162.545261 193.312511 
L 165.636763 193.60029 
L 166.677585 193.847722 
L 167.723612 194.236873 
L 169.831383 195.39512 
L 171.960283 196.874603 
L 176.282325 200.233608 
L 177.376376 200.878346 
L 178.475897 201.392145 
L 179.580915 201.740829 
L 180.691459 201.946753 
L 181.807555 201.997476 
L 184.056517 201.776513 
L 184.056517 201.776513 
" clip-path="url(#p4181b7af21)" style="fill: none; stroke-dasharray: 2.5,0.5,0.5,0.5; stroke-dashoffset: 0; stroke: #9467bd; stroke-width: 0.5"/>
   </g>
   <g id="line2d_79">
    <path d="M 38.168771 146.268397 
L 44.004838 146.541567 
L 47.07929 146.834699 
L 50.262976 146.493169 
L 52.606059 146.375216 
L 55.495989 146.41623 
L 59.486247 146.679293 
L 61.024122 147.029958 
L 63.638937 147.865847 
L 65.239414 147.973462 
L 66.31978 147.917621 
L 71.317036 147.411227 
L 74.19176 147.479478 
L 75.951322 147.760489 
L 77.73741 148.323739 
L 81.390767 149.635171 
L 82.633051 150.078035 
L 83.258855 150.47196 
L 84.519866 151.685147 
L 87.07994 154.676666 
L 87.727979 154.741917 
L 89.033793 154.128173 
L 90.352698 153.903092 
L 91.0171 153.892953 
L 91.684825 153.709768 
L 93.030306 152.981475 
L 93.708097 152.804958 
L 95.76187 152.56455 
L 97.148224 151.746912 
L 98.548476 150.958848 
L 100.675218 150.080357 
L 102.834021 149.331281 
L 105.025369 148.805091 
L 106.504589 148.626666 
L 107.998639 148.672608 
L 109.507667 149.093479 
L 111.031822 150.011711 
L 113.346753 151.876354 
L 114.126125 152.289341 
L 114.909395 152.429747 
L 116.487703 152.226329 
L 118.081833 151.762897 
L 119.691945 151.240945 
L 121.318197 151.088656 
L 122.137427 151.1925 
L 122.960754 151.457556 
L 123.788196 151.922329 
L 124.619776 152.650303 
L 125.455514 153.684265 
L 127.139547 156.449272 
L 129.697303 161.435642 
L 130.558429 163.137443 
L 131.42386 164.374862 
L 132.293618 164.691674 
L 133.167725 164.144818 
L 134.929073 162.519958 
L 135.816357 161.451002 
L 138.504917 156.982172 
L 139.410081 156.0863 
L 140.31977 155.492306 
L 141.234008 155.124807 
L 142.152817 154.94989 
L 144.00424 154.916805 
L 145.874224 155.245978 
L 149.670619 156.487145 
L 152.568034 157.437628 
L 155.509128 158.122951 
L 156.499313 158.233415 
L 159.499671 157.778377 
L 161.524997 157.698929 
L 163.570626 157.311602 
L 164.601118 157.279265 
L 165.636763 157.37473 
L 166.677585 157.600717 
L 167.723612 157.989233 
L 168.774869 158.546092 
L 169.831383 159.277283 
L 170.893178 160.202567 
L 174.110526 163.466616 
L 175.193718 164.1676 
L 176.282325 164.641478 
L 179.580915 165.62641 
L 180.691459 165.785336 
L 182.929232 165.722211 
L 185.189439 165.682674 
L 189.778055 166.155962 
L 193.280095 166.700884 
L 194.459134 167.016753 
L 196.834928 168.023665 
L 198.031742 168.687243 
L 199.234539 169.489411 
L 205.339341 174.198447 
L 206.578677 174.749933 
L 209.075969 175.381582 
L 212.868928 175.863545 
L 215.42928 175.921474 
L 225.92995 175.431665 
L 232.708844 174.785454 
L 234.085027 174.626918 
L 235.468091 174.345772 
L 235.468091 174.345772 
" clip-path="url(#p4181b7af21)" style="fill: none; stroke-dasharray: 2.5,0.5,0.5,0.5; stroke-dashoffset: 0; stroke: #9467bd; stroke-width: 0.5"/>
   </g>
   <g id="line2d_80">
    <path d="M 38.168771 132.518251 
L 39.794847 132.56917 
L 41.873597 132.364862 
L 44.004838 131.997914 
L 46.189895 131.354048 
L 48.430128 130.520354 
L 50.72693 129.458143 
L 59.996317 124.89023 
L 62.58518 123.854627 
L 69.626299 121.357764 
L 76.543718 119.295911 
L 80.160814 118.421269 
L 83.258855 117.832746 
L 85.155104 117.632551 
L 86.435125 117.657388 
L 87.727979 117.9778 
L 89.033793 118.832545 
L 89.691601 119.238395 
L 90.352698 119.248617 
L 91.684825 118.386367 
L 92.355888 118.177343 
L 93.708097 118.08182 
L 96.453318 118.08639 
L 98.548476 117.77331 
L 102.110828 117.260974 
L 105.025369 117.071493 
L 113.346753 117.102178 
L 118.081833 117.506733 
L 119.691945 117.829373 
L 120.503043 118.131641 
L 121.318197 118.581179 
L 122.960754 119.759439 
L 123.788196 119.830477 
L 124.619776 119.507965 
L 126.295431 118.435195 
L 127.139547 118.137767 
L 127.987884 118.061817 
L 129.697303 118.241854 
L 132.293618 118.550259 
L 137.604257 118.761124 
L 140.31977 119.12315 
L 144.936901 119.821938 
L 146.816234 120.139401 
L 151.597408 121.307376 
L 153.543513 121.886581 
L 155.509128 122.701758 
L 160.509809 125.10134 
L 161.524997 125.080521 
L 165.636763 122.364029 
L 166.677585 122.018764 
L 167.723612 121.981601 
L 168.774869 122.221947 
L 169.831383 122.728028 
L 170.893178 123.465985 
L 173.032724 125.258125 
L 174.110526 125.837446 
L 176.282325 126.445686 
L 178.475897 127.350842 
L 180.691459 127.713398 
L 181.807555 128.205934 
L 182.929232 128.849449 
L 184.056517 129.124537 
L 186.328025 129.24068 
L 187.472304 129.456522 
L 188.622304 129.855274 
L 190.939584 130.918625 
L 192.106921 131.248321 
L 193.280095 131.253322 
L 198.031742 130.13968 
L 199.234539 130.068621 
L 200.443351 130.357669 
L 201.658207 131.03554 
L 202.879137 131.971339 
L 204.106171 133.110907 
L 207.824209 136.966596 
L 212.868928 140.735119 
L 215.42928 142.235282 
L 216.719065 142.849389 
L 218.015299 143.320895 
L 220.627244 143.93238 
L 221.943019 144.105424 
L 224.594339 144.093287 
L 235.468091 143.317705 
L 235.468091 143.317705 
" clip-path="url(#p4181b7af21)" style="fill: none; stroke-dasharray: 2.5,0.5,0.5,0.5; stroke-dashoffset: 0; stroke: #9467bd; stroke-width: 0.5"/>
   </g>
   <g id="line2d_81">
    <path d="M 38.168771 86.032071 
L 42.295604 86.123209 
L 47.07929 86.522034 
L 51.661808 86.401207 
L 55.986108 86.109459 
L 58.473707 86.146431 
L 59.996317 86.361386 
L 70.187069 88.726615 
L 77.139075 89.938028 
L 80.160814 91.144097 
L 81.390767 91.739281 
L 82.633051 92.650463 
L 83.887788 93.960707 
L 85.155104 95.357198 
L 86.435125 96.466479 
L 87.727979 97.31834 
L 89.033793 97.97695 
L 90.352698 98.435456 
L 93.030306 99.23291 
L 96.453318 100.373065 
L 100.675218 100.739794 
L 102.834021 100.931672 
L 105.025369 100.835886 
L 107.998639 100.792953 
L 111.79962 100.740462 
L 114.909395 100.349817 
L 120.503043 99.597273 
L 122.137427 99.648726 
L 123.788196 100.08098 
L 124.619776 100.499264 
L 125.455514 101.124023 
L 127.139547 102.876485 
L 128.840462 104.758789 
L 129.697303 105.508985 
L 131.42386 106.495137 
L 133.167725 107.30545 
L 134.046203 107.557035 
L 135.816357 107.650515 
L 137.604257 107.71357 
L 139.410081 108.136886 
L 141.234008 108.705905 
L 143.07622 108.977225 
L 146.816234 109.004864 
L 148.714408 108.920887 
L 149.670619 108.636977 
L 150.631611 108.066942 
L 152.568034 106.536934 
L 153.543513 105.931783 
L 154.52387 105.517952 
L 156.499313 105.109146 
L 159.499671 104.806166 
L 160.509809 104.846814 
L 162.545261 105.240057 
L 166.677585 106.224753 
L 168.774869 107.068939 
L 171.960283 108.66364 
L 173.032724 108.906373 
L 176.282325 108.690371 
L 178.475897 108.95925 
L 184.056517 109.894704 
L 192.106921 110.823146 
L 200.443351 111.913711 
L 206.578677 113.409413 
L 209.075969 113.699169 
L 214.145911 113.977381 
L 220.627244 114.087853 
L 235.468091 114.053767 
L 235.468091 114.053767 
" clip-path="url(#p4181b7af21)" style="fill: none; stroke-dasharray: 2.5,0.5,0.5,0.5; stroke-dashoffset: 0; stroke: #9467bd; stroke-width: 0.5"/>
   </g>
   <g id="line2d_82">
    <path d="M 38.168771 54.277386 
L 41.873597 54.478887 
L 43.574327 54.740426 
L 45.309328 55.084726 
L 47.07929 55.06353 
L 48.884918 54.872211 
L 52.606059 54.466636 
L 55.008308 54.459524 
L 57.971212 54.665137 
L 59.996317 55.034627 
L 63.638937 56.250718 
L 66.31978 56.410203 
L 69.068318 56.432089 
L 73.611066 56.434229 
L 76.543718 56.711351 
L 80.160814 57.301555 
L 81.390767 57.637917 
L 82.633051 58.207299 
L 83.887788 59.090314 
L 85.155104 60.004152 
L 85.793519 60.325663 
L 86.435125 60.511827 
L 87.727979 60.523534 
L 89.691601 60.222074 
L 95.76187 58.936926 
L 99.253857 58.631256 
L 104.291274 58.404855 
L 107.998639 58.438749 
L 121.318197 59.323628 
L 122.960754 59.653693 
L 123.788196 59.933966 
L 124.619776 60.33939 
L 125.455514 60.920521 
L 126.295431 61.726834 
L 127.139547 62.796998 
L 129.697303 66.801222 
L 130.558429 67.568688 
L 131.42386 67.836023 
L 132.293618 67.716459 
L 134.046203 66.978442 
L 138.504917 64.733799 
L 140.31977 64.078012 
L 143.07622 63.366799 
L 145.874224 62.860661 
L 149.670619 62.431017 
L 154.52387 62.15089 
L 157.494448 62.235258 
L 159.499671 62.508196 
L 161.524997 63.021284 
L 163.570626 63.787677 
L 165.636763 64.882875 
L 167.723612 66.365269 
L 170.893178 68.740274 
L 171.960283 69.374674 
L 173.032724 69.877399 
L 175.193718 70.491647 
L 184.056517 72.026646 
L 187.472304 72.535084 
L 190.939584 73.068847 
L 193.280095 73.753197 
L 194.459134 74.262838 
L 195.644069 74.905664 
L 196.834928 75.695975 
L 198.031742 76.651278 
L 200.443351 79.004409 
L 202.879137 81.536108 
L 204.106171 82.612831 
L 205.339341 83.406115 
L 206.578677 83.926419 
L 207.824209 84.249582 
L 210.333988 84.584924 
L 214.145911 84.767268 
L 219.318015 84.775607 
L 225.92995 84.527433 
L 235.468091 83.926998 
L 235.468091 83.926998 
" clip-path="url(#p4181b7af21)" style="fill: none; stroke-dasharray: 2.5,0.5,0.5,0.5; stroke-dashoffset: 0; stroke: #9467bd; stroke-width: 0.5"/>
   </g>
   <g id="line2d_83"/>
   <g id="line2d_84"/>
   <g id="line2d_85"/>
   <g id="line2d_86"/>
   <g id="line2d_87"/>
   <g id="patch_3">
    <path d="M 32.789 940.448734 
L 32.789 12.07875 
" style="fill: none; stroke: #000000; stroke-linejoin: miter; stroke-linecap: square"/>
   </g>
   <g id="patch_4">
    <path d="M 32.789 940.448734 
L 245.289957 940.448734 
" style="fill: none; stroke: #000000; stroke-linejoin: miter; stroke-linecap: square"/>
   </g>
   <g id="text_14">
    <text style="font: 6px 'DejaVu Sans', 'Bitstream Vera Sans', 'Computer Modern Sans Serif', 'Lucida Grande', 'Verdana', 'Geneva', 'Lucid', 'Arial', 'Helvetica', 'Avant Garde', sans-serif; text-anchor: start" x="246.186586" y="899.905724" transform="rotate(-0 246.186586 899.905724)">Calcite CAGR01</text>
   </g>
   <g id="text_15">
    <text style="font: 6px 'DejaVu Sans', 'Bitstream Vera Sans', 'Computer Modern Sans Serif', 'Lucida Grande', 'Verdana', 'Geneva', 'Lucid', 'Arial', 'Helvetica', 'Avant Garde', sans-serif; text-anchor: start" x="246.186586" y="878.725532" transform="rotate(-0 246.186586 878.725532)">Magnesite F1CC06B</text>
   </g>
   <g id="text_16">
    <text style="font: 6px 'DejaVu Sans', 'Bitstream Vera Sans', 'Computer Modern Sans Serif', 'Lucida Grande', 'Verdana', 'Geneva', 'Lucid', 'Arial', 'Helvetica', 'Avant Garde', sans-serif; text-anchor: start" x="246.186586" y="845.551315" transform="rotate(-0 246.186586 845.551315)">Analcime GDS1</text>
   </g>
   <g id="text_17">
    <text style="font: 6px 'DejaVu Sans', 'Bitstream Vera Sans', 'Computer Modern Sans Serif', 'Lucida Grande', 'Verdana', 'Geneva', 'Lucid', 'Arial', 'Helvetica', 'Avant Garde', sans-serif; text-anchor: start" x="246.186586" y="802.464206" transform="rotate(-0 246.186586 802.464206)">Epidote GDS26</text>
   </g>
   <g id="text_18">
    <text style="font: 6px 'DejaVu Sans', 'Bitstream Vera Sans', 'Computer Modern Sans Serif', 'Lucida Grande', 'Verdana', 'Geneva', 'Lucid', 'Arial', 'Helvetica', 'Avant Garde', sans-serif; text-anchor: start" x="246.186586" y="773.721048" transform="rotate(-0 246.186586 773.721048)">Halite HS433</text>
   </g>
   <g id="text_19">
    <text style="font: 6px 'DejaVu Sans', 'Bitstream Vera Sans', 'Computer Modern Sans Serif', 'Lucida Grande', 'Verdana', 'Geneva', 'Lucid', 'Arial', 'Helvetica', 'Avant Garde', sans-serif; text-anchor: start" x="246.186586" y="751.650265" transform="rotate(-0 246.186586 751.650265)">Hydrated-Silica bkr1jb329c</text>
   </g>
   <g id="text_20">
    <text style="font: 6px 'DejaVu Sans', 'Bitstream Vera Sans', 'Computer Modern Sans Serif', 'Lucida Grande', 'Verdana', 'Geneva', 'Lucid', 'Arial', 'Helvetica', 'Avant Garde', sans-serif; text-anchor: start" x="246.186586" y="717.005111" transform="rotate(-0 246.186586 717.005111)">Zeolite-Prehnite LAZE03</text>
   </g>
   <g id="text_21">
    <text style="font: 6px 'DejaVu Sans', 'Bitstream Vera Sans', 'Computer Modern Sans Serif', 'Lucida Grande', 'Verdana', 'Geneva', 'Lucid', 'Arial', 'Helvetica', 'Avant Garde', sans-serif; text-anchor: start" x="246.186586" y="682.30678" transform="rotate(-0 246.186586 682.30678)">Fayalite LAPO05</text>
   </g>
   <g id="text_22">
    <text style="font: 6px 'DejaVu Sans', 'Bitstream Vera Sans', 'Computer Modern Sans Serif', 'Lucida Grande', 'Verdana', 'Geneva', 'Lucid', 'Arial', 'Helvetica', 'Avant Garde', sans-serif; text-anchor: start" x="246.186586" y="643.268527" transform="rotate(-0 246.186586 643.268527)">Forsterite LASC02</text>
   </g>
   <g id="text_23">
    <text style="font: 6px 'DejaVu Sans', 'Bitstream Vera Sans', 'Computer Modern Sans Serif', 'Lucida Grande', 'Verdana', 'Geneva', 'Lucid', 'Arial', 'Helvetica', 'Avant Garde', sans-serif; text-anchor: start" x="246.186586" y="614.282189" transform="rotate(-0 246.186586 614.282189)">Hematite GDS27</text>
   </g>
   <g id="text_24">
    <text style="font: 6px 'DejaVu Sans', 'Bitstream Vera Sans', 'Computer Modern Sans Serif', 'Lucida Grande', 'Verdana', 'Geneva', 'Lucid', 'Arial', 'Helvetica', 'Avant Garde', sans-serif; text-anchor: start" x="246.186586" y="587.428722" transform="rotate(-0 246.186586 587.428722)">Orthopyroxene LAPP47B</text>
   </g>
   <g id="text_25">
    <text style="font: 6px 'DejaVu Sans', 'Bitstream Vera Sans', 'Computer Modern Sans Serif', 'Lucida Grande', 'Verdana', 'Geneva', 'Lucid', 'Arial', 'Helvetica', 'Avant Garde', sans-serif; text-anchor: start" x="246.186586" y="559.46132" transform="rotate(-0 246.186586 559.46132)">Plagioclase NCLS04</text>
   </g>
   <g id="text_26">
    <text style="font: 6px 'DejaVu Sans', 'Bitstream Vera Sans', 'Computer Modern Sans Serif', 'Lucida Grande', 'Verdana', 'Geneva', 'Lucid', 'Arial', 'Helvetica', 'Avant Garde', sans-serif; text-anchor: start" x="246.186586" y="523.868157" transform="rotate(-0 246.186586 523.868157)">Pyroxene NBPP22</text>
   </g>
   <g id="text_27">
    <text style="font: 6px 'DejaVu Sans', 'Bitstream Vera Sans', 'Computer Modern Sans Serif', 'Lucida Grande', 'Verdana', 'Geneva', 'Lucid', 'Arial', 'Helvetica', 'Avant Garde', sans-serif; text-anchor: start" x="246.186586" y="501.844797" transform="rotate(-0 246.186586 501.844797)">Chlorite LACL14</text>
   </g>
   <g id="text_28">
    <text style="font: 6px 'DejaVu Sans', 'Bitstream Vera Sans', 'Computer Modern Sans Serif', 'Lucida Grande', 'Verdana', 'Geneva', 'Lucid', 'Arial', 'Helvetica', 'Avant Garde', sans-serif; text-anchor: start" x="246.186586" y="470.066479" transform="rotate(-0 246.186586 470.066479)">Illite LAIL02</text>
   </g>
   <g id="text_29">
    <text style="font: 6px 'DejaVu Sans', 'Bitstream Vera Sans', 'Computer Modern Sans Serif', 'Lucida Grande', 'Verdana', 'Geneva', 'Lucid', 'Arial', 'Helvetica', 'Avant Garde', sans-serif; text-anchor: start" x="246.186586" y="442.756313" transform="rotate(-0 246.186586 442.756313)">Kaolinite LAKA04</text>
   </g>
   <g id="text_30">
    <text style="font: 6px 'DejaVu Sans', 'Bitstream Vera Sans', 'Computer Modern Sans Serif', 'Lucida Grande', 'Verdana', 'Geneva', 'Lucid', 'Arial', 'Helvetica', 'Avant Garde', sans-serif; text-anchor: start" x="246.186586" y="410.988363" transform="rotate(-0 246.186586 410.988363)">Margarite GDS106</text>
   </g>
   <g id="text_31">
    <text style="font: 6px 'DejaVu Sans', 'Bitstream Vera Sans', 'Computer Modern Sans Serif', 'Lucida Grande', 'Verdana', 'Geneva', 'Lucid', 'Arial', 'Helvetica', 'Avant Garde', sans-serif; text-anchor: start" x="246.186586" y="379.431621" transform="rotate(-0 246.186586 379.431621)">Montmorillonite LAMO02</text>
   </g>
   <g id="text_32">
    <text style="font: 6px 'DejaVu Sans', 'Bitstream Vera Sans', 'Computer Modern Sans Serif', 'Lucida Grande', 'Verdana', 'Geneva', 'Lucid', 'Arial', 'Helvetica', 'Avant Garde', sans-serif; text-anchor: start" x="246.186586" y="351.018771" transform="rotate(-0 246.186586 351.018771)">Nontronite NCJB26</text>
   </g>
   <g id="text_33">
    <text style="font: 6px 'DejaVu Sans', 'Bitstream Vera Sans', 'Computer Modern Sans Serif', 'Lucida Grande', 'Verdana', 'Geneva', 'Lucid', 'Arial', 'Helvetica', 'Avant Garde', sans-serif; text-anchor: start" x="246.186586" y="327.546742" transform="rotate(-0 246.186586 327.546742)">Saponite LASA58</text>
   </g>
   <g id="text_34">
    <text style="font: 6px 'DejaVu Sans', 'Bitstream Vera Sans', 'Computer Modern Sans Serif', 'Lucida Grande', 'Verdana', 'Geneva', 'Lucid', 'Arial', 'Helvetica', 'Avant Garde', sans-serif; text-anchor: start" x="246.186586" y="289.612251" transform="rotate(-0 246.186586 289.612251)">Serpentine LALZ01</text>
   </g>
   <g id="text_35">
    <text style="font: 6px 'DejaVu Sans', 'Bitstream Vera Sans', 'Computer Modern Sans Serif', 'Lucida Grande', 'Verdana', 'Geneva', 'Lucid', 'Arial', 'Helvetica', 'Avant Garde', sans-serif; text-anchor: start" x="246.186586" y="258.271558" transform="rotate(-0 246.186586 258.271558)">Talc GDS23</text>
   </g>
   <g id="text_36">
    <text style="font: 6px 'DejaVu Sans', 'Bitstream Vera Sans', 'Computer Modern Sans Serif', 'Lucida Grande', 'Verdana', 'Geneva', 'Lucid', 'Arial', 'Helvetica', 'Avant Garde', sans-serif; text-anchor: start" x="246.186586" y="237.714733" transform="rotate(-0 246.186586 237.714733)">Alunite F1CC08B</text>
   </g>
   <g id="text_37">
    <text style="font: 6px 'DejaVu Sans', 'Bitstream Vera Sans', 'Computer Modern Sans Serif', 'Lucida Grande', 'Verdana', 'Geneva', 'Lucid', 'Arial', 'Helvetica', 'Avant Garde', sans-serif; text-anchor: start" x="246.186586" y="203.432138" transform="rotate(-0 246.186586 203.432138)">Bassanite GDS145</text>
   </g>
   <g id="text_38">
    <text style="font: 6px 'DejaVu Sans', 'Bitstream Vera Sans', 'Computer Modern Sans Serif', 'Lucida Grande', 'Verdana', 'Geneva', 'Lucid', 'Arial', 'Helvetica', 'Avant Garde', sans-serif; text-anchor: start" x="246.186586" y="176.001397" transform="rotate(-0 246.186586 176.001397)">GYPSUM LASF41A</text>
   </g>
   <g id="text_39">
    <text style="font: 6px 'DejaVu Sans', 'Bitstream Vera Sans', 'Computer Modern Sans Serif', 'Lucida Grande', 'Verdana', 'Geneva', 'Lucid', 'Arial', 'Helvetica', 'Avant Garde', sans-serif; text-anchor: start" x="246.186586" y="144.97333" transform="rotate(-0 246.186586 144.97333)">Jarosite LASF21A</text>
   </g>
   <g id="text_40">
    <text style="font: 6px 'DejaVu Sans', 'Bitstream Vera Sans', 'Computer Modern Sans Serif', 'Lucida Grande', 'Verdana', 'Geneva', 'Lucid', 'Arial', 'Helvetica', 'Avant Garde', sans-serif; text-anchor: start" x="246.186586" y="115.709392" transform="rotate(-0 246.186586 115.709392)">Kieserite F1CC15</text>
   </g>
   <g id="text_41">
    <text style="font: 6px 'DejaVu Sans', 'Bitstream Vera Sans', 'Computer Modern Sans Serif', 'Lucida Grande', 'Verdana', 'Geneva', 'Lucid', 'Arial', 'Helvetica', 'Avant Garde', sans-serif; text-anchor: start" x="246.186586" y="85.582623" transform="rotate(-0 246.186586 85.582623)">Magnesium-Sulfate 799F366</text>
   </g>
   <g id="text_42">
    <text style="font: 8px 'DejaVu Sans', 'Bitstream Vera Sans', 'Computer Modern Sans Serif', 'Lucida Grande', 'Verdana', 'Geneva', 'Lucid', 'Arial', 'Helvetica', 'Avant Garde', sans-serif; text-anchor: middle" x="139.039479" y="6.07875" transform="rotate(-0 139.039479 6.07875)">enfys All Entries</text>
   </g>
   <g id="legend_1">
    <g id="patch_5">
     <path d="M 253.739976 74.3505 
L 328.184976 74.3505 
Q 329.384976 74.3505 329.384976 73.1505 
L 329.384976 16.27875 
Q 329.384976 15.07875 328.184976 15.07875 
L 253.739976 15.07875 
Q 252.539976 15.07875 252.539976 16.27875 
L 252.539976 73.1505 
Q 252.539976 74.3505 253.739976 74.3505 
z
" style="fill: #ffffff; opacity: 0.8; stroke: #cccccc; stroke-width: 0.8; stroke-linejoin: miter"/>
    </g>
    <g id="line2d_88">
     <path d="M 254.939976 19.937812 
L 260.939976 19.937812 
L 266.939976 19.937812 
" style="fill: none; stroke: #1f77b4; stroke-width: 1.2; stroke-linecap: square"/>
    </g>
    <g id="text_43">
     <text style="font: 6px 'DejaVu Sans', 'Bitstream Vera Sans', 'Computer Modern Sans Serif', 'Lucida Grande', 'Verdana', 'Geneva', 'Lucid', 'Arial', 'Helvetica', 'Avant Garde', sans-serif; text-anchor: start" x="271.739976" y="22.037812" transform="rotate(-0 271.739976 22.037812)">carbonates</text>
    </g>
    <g id="line2d_89">
     <path d="M 254.939976 32.727937 
L 260.939976 32.727937 
L 266.939976 32.727937 
" style="fill: none; stroke-dasharray: 4.8,1.8; stroke-dashoffset: 0; stroke: #ff7f0e; stroke-width: 1.2"/>
    </g>
    <g id="text_44">
     <text style="font: 6px 'DejaVu Sans', 'Bitstream Vera Sans', 'Computer Modern Sans Serif', 'Lucida Grande', 'Verdana', 'Geneva', 'Lucid', 'Arial', 'Helvetica', 'Avant Garde', sans-serif" transform="translate(271.739976 30.844687)">hydrated silicates </text>
     <text style="font: 6px 'DejaVu Sans', 'Bitstream Vera Sans', 'Computer Modern Sans Serif', 'Lucida Grande', 'Verdana', 'Geneva', 'Lucid', 'Arial', 'Helvetica', 'Avant Garde', sans-serif" transform="translate(271.739976 37.563375)"> &amp; halides</text>
    </g>
    <g id="line2d_90">
     <path d="M 254.939976 48.2535 
L 260.939976 48.2535 
L 266.939976 48.2535 
" style="fill: none; stroke-dasharray: 1.2,1.2; stroke-dashoffset: 0; stroke: #2ca02c; stroke-width: 1.2"/>
    </g>
    <g id="text_45">
     <text style="font: 6px 'DejaVu Sans', 'Bitstream Vera Sans', 'Computer Modern Sans Serif', 'Lucida Grande', 'Verdana', 'Geneva', 'Lucid', 'Arial', 'Helvetica', 'Avant Garde', sans-serif" transform="translate(271.739976 46.37025)">iron oxides &amp; </text>
     <text style="font: 6px 'DejaVu Sans', 'Bitstream Vera Sans', 'Computer Modern Sans Serif', 'Lucida Grande', 'Verdana', 'Geneva', 'Lucid', 'Arial', 'Helvetica', 'Avant Garde', sans-serif" transform="translate(271.739976 53.088937)"> primary silicates</text>
    </g>
    <g id="line2d_91">
     <path d="M 254.939976 59.795812 
L 260.939976 59.795812 
L 266.939976 59.795812 
" style="fill: none; stroke-dasharray: 3.6,1.5,1.8,1.5; stroke-dashoffset: 0; stroke: #d62728; stroke-width: 1.2"/>
    </g>
    <g id="text_46">
     <text style="font: 6px 'DejaVu Sans', 'Bitstream Vera Sans', 'Computer Modern Sans Serif', 'Lucida Grande', 'Verdana', 'Geneva', 'Lucid', 'Arial', 'Helvetica', 'Avant Garde', sans-serif; text-anchor: start" x="271.739976" y="61.895812" transform="rotate(-0 271.739976 61.895812)">phyllosilicate</text>
    </g>
    <g id="line2d_92">
     <path d="M 254.939976 68.602687 
L 260.939976 68.602687 
L 266.939976 68.602687 
" style="fill: none; stroke-dasharray: 6,1.2,1.2,1.2; stroke-dashoffset: 0; stroke: #9467bd; stroke-width: 1.2"/>
    </g>
    <g id="text_47">
     <text style="font: 6px 'DejaVu Sans', 'Bitstream Vera Sans', 'Computer Modern Sans Serif', 'Lucida Grande', 'Verdana', 'Geneva', 'Lucid', 'Arial', 'Helvetica', 'Avant Garde', sans-serif; text-anchor: start" x="271.739976" y="70.702687" transform="rotate(-0 271.739976 70.702687)">sulfates</text>
    </g>
   </g>
  </g>
 </g>
 <defs>
  <clipPath id="p4181b7af21">
   <rect x="32.789" y="12.07875" width="212.500957" height="928.369984"/>
  </clipPath>
 </defs>
</svg>
