<?xml version="1.0" encoding="utf-8" standalone="no"?>
<!DOCTYPE svg PUBLIC "-//W3C//DTD SVG 1.1//EN"
  "http://www.w3.org/Graphics/SVG/1.1/DTD/svg11.dtd">
<svg xmlns:xlink="http://www.w3.org/1999/xlink" width="271.51383pt" height="176.855697pt" viewBox="0 0 271.51383 176.855697" xmlns="http://www.w3.org/2000/svg" version="1.1">
 <metadata>
  <rdf:RDF xmlns:dc="http://purl.org/dc/elements/1.1/" xmlns:cc="http://creativecommons.org/ns#" xmlns:rdf="http://www.w3.org/1999/02/22-rdf-syntax-ns#">
   <cc:Work>
    <dc:type rdf:resource="http://purl.org/dc/dcmitype/StillImage"/>
    <dc:date>2025-02-12T16:36:02.842883</dc:date>
    <dc:format>image/svg+xml</dc:format>
    <dc:creator>
     <cc:Agent>
      <dc:title>Matplotlib v3.6.2, https://matplotlib.org/</dc:title>
     </cc:Agent>
    </dc:creator>
   </cc:Work>
  </rdf:RDF>
 </metadata>
 <defs>
  <style type="text/css">*{stroke-linejoin: round; stroke-linecap: butt}</style>
 </defs>
 <g id="figure_1">
  <g id="patch_1">
   <path d="M -0 176.855697 
L 271.51383 176.855697 
L 271.51383 0 
L -0 0 
z
" style="fill: #ffffff"/>
  </g>
  <g id="axes_1">
   <g id="patch_2">
    <path d="M 35.58575 146.747947 
L 158.323451 146.747947 
L 158.323451 12.07875 
L 35.58575 12.07875 
z
" style="fill: #ffffff"/>
   </g>
   <g id="matplotlib.axis_1">
    <g id="xtick_1">
     <g id="line2d_1">
      <path d="M 41.667348 146.747947 
L 41.667348 12.07875 
" clip-path="url(#pc418ce76d9)" style="fill: none; stroke: #b0b0b0; stroke-width: 0.6; stroke-linecap: square"/>
     </g>
     <g id="line2d_2">
      <defs>
       <path id="m042f8ca74f" d="M 0 0 
L 0 4.8 
" style="stroke: #000000"/>
      </defs>
      <g>
       <use xlink:href="#m042f8ca74f" x="41.667348" y="146.747947" style="stroke: #000000"/>
      </g>
     </g>
     <g id="text_1">
      <text style="font: 8.8px 'DejaVu Sans', 'Bitstream Vera Sans', 'Computer Modern Sans Serif', 'Lucida Grande', 'Verdana', 'Geneva', 'Lucid', 'Arial', 'Helvetica', 'Avant Garde', sans-serif; text-anchor: middle" x="41.667348" y="161.734572" transform="rotate(-0 41.667348 161.734572)">1000</text>
     </g>
    </g>
    <g id="xtick_2">
     <g id="line2d_3">
      <path d="M 69.310974 146.747947 
L 69.310974 12.07875 
" clip-path="url(#pc418ce76d9)" style="fill: none; stroke: #b0b0b0; stroke-width: 0.6; stroke-linecap: square"/>
     </g>
     <g id="line2d_4">
      <g>
       <use xlink:href="#m042f8ca74f" x="69.310974" y="146.747947" style="stroke: #000000"/>
      </g>
     </g>
     <g id="text_2">
      <text style="font: 8.8px 'DejaVu Sans', 'Bitstream Vera Sans', 'Computer Modern Sans Serif', 'Lucida Grande', 'Verdana', 'Geneva', 'Lucid', 'Arial', 'Helvetica', 'Avant Garde', sans-serif; text-anchor: middle" x="69.310974" y="161.734572" transform="rotate(-0 69.310974 161.734572)">1500</text>
     </g>
    </g>
    <g id="xtick_3">
     <g id="line2d_5">
      <path d="M 96.9546 146.747947 
L 96.9546 12.07875 
" clip-path="url(#pc418ce76d9)" style="fill: none; stroke: #b0b0b0; stroke-width: 0.6; stroke-linecap: square"/>
     </g>
     <g id="line2d_6">
      <g>
       <use xlink:href="#m042f8ca74f" x="96.9546" y="146.747947" style="stroke: #000000"/>
      </g>
     </g>
     <g id="text_3">
      <text style="font: 8.8px 'DejaVu Sans', 'Bitstream Vera Sans', 'Computer Modern Sans Serif', 'Lucida Grande', 'Verdana', 'Geneva', 'Lucid', 'Arial', 'Helvetica', 'Avant Garde', sans-serif; text-anchor: middle" x="96.9546" y="161.734572" transform="rotate(-0 96.9546 161.734572)">2000</text>
     </g>
    </g>
    <g id="xtick_4">
     <g id="line2d_7">
      <path d="M 124.598227 146.747947 
L 124.598227 12.07875 
" clip-path="url(#pc418ce76d9)" style="fill: none; stroke: #b0b0b0; stroke-width: 0.6; stroke-linecap: square"/>
     </g>
     <g id="line2d_8">
      <g>
       <use xlink:href="#m042f8ca74f" x="124.598227" y="146.747947" style="stroke: #000000"/>
      </g>
     </g>
     <g id="text_4">
      <text style="font: 8.8px 'DejaVu Sans', 'Bitstream Vera Sans', 'Computer Modern Sans Serif', 'Lucida Grande', 'Verdana', 'Geneva', 'Lucid', 'Arial', 'Helvetica', 'Avant Garde', sans-serif; text-anchor: middle" x="124.598227" y="161.734572" transform="rotate(-0 124.598227 161.734572)">2500</text>
     </g>
    </g>
    <g id="xtick_5">
     <g id="line2d_9">
      <path d="M 152.241853 146.747947 
L 152.241853 12.07875 
" clip-path="url(#pc418ce76d9)" style="fill: none; stroke: #b0b0b0; stroke-width: 0.6; stroke-linecap: square"/>
     </g>
     <g id="line2d_10">
      <g>
       <use xlink:href="#m042f8ca74f" x="152.241853" y="146.747947" style="stroke: #000000"/>
      </g>
     </g>
     <g id="text_5">
      <text style="font: 8.8px 'DejaVu Sans', 'Bitstream Vera Sans', 'Computer Modern Sans Serif', 'Lucida Grande', 'Verdana', 'Geneva', 'Lucid', 'Arial', 'Helvetica', 'Avant Garde', sans-serif; text-anchor: middle" x="152.241853" y="161.734572" transform="rotate(-0 152.241853 161.734572)">3000</text>
     </g>
    </g>
    <g id="xtick_6">
     <g id="line2d_11">
      <path d="M 36.138623 146.747947 
L 36.138623 12.07875 
" clip-path="url(#pc418ce76d9)" style="fill: none; stroke: #b0b0b0; stroke-width: 0.3; stroke-linecap: square"/>
     </g>
     <g id="line2d_12">
      <defs>
       <path id="m2fc565b8ea" d="M 0 0 
L 0 3.2 
" style="stroke: #000000; stroke-width: 0.8"/>
      </defs>
      <g>
       <use xlink:href="#m2fc565b8ea" x="36.138623" y="146.747947" style="stroke: #000000; stroke-width: 0.8"/>
      </g>
     </g>
    </g>
    <g id="xtick_7">
     <g id="line2d_13">
      <path d="M 47.196073 146.747947 
L 47.196073 12.07875 
" clip-path="url(#pc418ce76d9)" style="fill: none; stroke: #b0b0b0; stroke-width: 0.3; stroke-linecap: square"/>
     </g>
     <g id="line2d_14">
      <g>
       <use xlink:href="#m2fc565b8ea" x="47.196073" y="146.747947" style="stroke: #000000; stroke-width: 0.8"/>
      </g>
     </g>
    </g>
    <g id="xtick_8">
     <g id="line2d_15">
      <path d="M 52.724798 146.747947 
L 52.724798 12.07875 
" clip-path="url(#pc418ce76d9)" style="fill: none; stroke: #b0b0b0; stroke-width: 0.3; stroke-linecap: square"/>
     </g>
     <g id="line2d_16">
      <g>
       <use xlink:href="#m2fc565b8ea" x="52.724798" y="146.747947" style="stroke: #000000; stroke-width: 0.8"/>
      </g>
     </g>
    </g>
    <g id="xtick_9">
     <g id="line2d_17">
      <path d="M 58.253524 146.747947 
L 58.253524 12.07875 
" clip-path="url(#pc418ce76d9)" style="fill: none; stroke: #b0b0b0; stroke-width: 0.3; stroke-linecap: square"/>
     </g>
     <g id="line2d_18">
      <g>
       <use xlink:href="#m2fc565b8ea" x="58.253524" y="146.747947" style="stroke: #000000; stroke-width: 0.8"/>
      </g>
     </g>
    </g>
    <g id="xtick_10">
     <g id="line2d_19">
      <path d="M 63.782249 146.747947 
L 63.782249 12.07875 
" clip-path="url(#pc418ce76d9)" style="fill: none; stroke: #b0b0b0; stroke-width: 0.3; stroke-linecap: square"/>
     </g>
     <g id="line2d_20">
      <g>
       <use xlink:href="#m2fc565b8ea" x="63.782249" y="146.747947" style="stroke: #000000; stroke-width: 0.8"/>
      </g>
     </g>
    </g>
    <g id="xtick_11">
     <g id="line2d_21">
      <path d="M 74.839699 146.747947 
L 74.839699 12.07875 
" clip-path="url(#pc418ce76d9)" style="fill: none; stroke: #b0b0b0; stroke-width: 0.3; stroke-linecap: square"/>
     </g>
     <g id="line2d_22">
      <g>
       <use xlink:href="#m2fc565b8ea" x="74.839699" y="146.747947" style="stroke: #000000; stroke-width: 0.8"/>
      </g>
     </g>
    </g>
    <g id="xtick_12">
     <g id="line2d_23">
      <path d="M 80.368425 146.747947 
L 80.368425 12.07875 
" clip-path="url(#pc418ce76d9)" style="fill: none; stroke: #b0b0b0; stroke-width: 0.3; stroke-linecap: square"/>
     </g>
     <g id="line2d_24">
      <g>
       <use xlink:href="#m2fc565b8ea" x="80.368425" y="146.747947" style="stroke: #000000; stroke-width: 0.8"/>
      </g>
     </g>
    </g>
    <g id="xtick_13">
     <g id="line2d_25">
      <path d="M 85.89715 146.747947 
L 85.89715 12.07875 
" clip-path="url(#pc418ce76d9)" style="fill: none; stroke: #b0b0b0; stroke-width: 0.3; stroke-linecap: square"/>
     </g>
     <g id="line2d_26">
      <g>
       <use xlink:href="#m2fc565b8ea" x="85.89715" y="146.747947" style="stroke: #000000; stroke-width: 0.8"/>
      </g>
     </g>
    </g>
    <g id="xtick_14">
     <g id="line2d_27">
      <path d="M 91.425875 146.747947 
L 91.425875 12.07875 
" clip-path="url(#pc418ce76d9)" style="fill: none; stroke: #b0b0b0; stroke-width: 0.3; stroke-linecap: square"/>
     </g>
     <g id="line2d_28">
      <g>
       <use xlink:href="#m2fc565b8ea" x="91.425875" y="146.747947" style="stroke: #000000; stroke-width: 0.8"/>
      </g>
     </g>
    </g>
    <g id="xtick_15">
     <g id="line2d_29">
      <path d="M 102.483326 146.747947 
L 102.483326 12.07875 
" clip-path="url(#pc418ce76d9)" style="fill: none; stroke: #b0b0b0; stroke-width: 0.3; stroke-linecap: square"/>
     </g>
     <g id="line2d_30">
      <g>
       <use xlink:href="#m2fc565b8ea" x="102.483326" y="146.747947" style="stroke: #000000; stroke-width: 0.8"/>
      </g>
     </g>
    </g>
    <g id="xtick_16">
     <g id="line2d_31">
      <path d="M 108.012051 146.747947 
L 108.012051 12.07875 
" clip-path="url(#pc418ce76d9)" style="fill: none; stroke: #b0b0b0; stroke-width: 0.3; stroke-linecap: square"/>
     </g>
     <g id="line2d_32">
      <g>
       <use xlink:href="#m2fc565b8ea" x="108.012051" y="146.747947" style="stroke: #000000; stroke-width: 0.8"/>
      </g>
     </g>
    </g>
    <g id="xtick_17">
     <g id="line2d_33">
      <path d="M 113.540776 146.747947 
L 113.540776 12.07875 
" clip-path="url(#pc418ce76d9)" style="fill: none; stroke: #b0b0b0; stroke-width: 0.3; stroke-linecap: square"/>
     </g>
     <g id="line2d_34">
      <g>
       <use xlink:href="#m2fc565b8ea" x="113.540776" y="146.747947" style="stroke: #000000; stroke-width: 0.8"/>
      </g>
     </g>
    </g>
    <g id="xtick_18">
     <g id="line2d_35">
      <path d="M 119.069501 146.747947 
L 119.069501 12.07875 
" clip-path="url(#pc418ce76d9)" style="fill: none; stroke: #b0b0b0; stroke-width: 0.3; stroke-linecap: square"/>
     </g>
     <g id="line2d_36">
      <g>
       <use xlink:href="#m2fc565b8ea" x="119.069501" y="146.747947" style="stroke: #000000; stroke-width: 0.8"/>
      </g>
     </g>
    </g>
    <g id="xtick_19">
     <g id="line2d_37">
      <path d="M 130.126952 146.747947 
L 130.126952 12.07875 
" clip-path="url(#pc418ce76d9)" style="fill: none; stroke: #b0b0b0; stroke-width: 0.3; stroke-linecap: square"/>
     </g>
     <g id="line2d_38">
      <g>
       <use xlink:href="#m2fc565b8ea" x="130.126952" y="146.747947" style="stroke: #000000; stroke-width: 0.8"/>
      </g>
     </g>
    </g>
    <g id="xtick_20">
     <g id="line2d_39">
      <path d="M 135.655677 146.747947 
L 135.655677 12.07875 
" clip-path="url(#pc418ce76d9)" style="fill: none; stroke: #b0b0b0; stroke-width: 0.3; stroke-linecap: square"/>
     </g>
     <g id="line2d_40">
      <g>
       <use xlink:href="#m2fc565b8ea" x="135.655677" y="146.747947" style="stroke: #000000; stroke-width: 0.8"/>
      </g>
     </g>
    </g>
    <g id="xtick_21">
     <g id="line2d_41">
      <path d="M 141.184402 146.747947 
L 141.184402 12.07875 
" clip-path="url(#pc418ce76d9)" style="fill: none; stroke: #b0b0b0; stroke-width: 0.3; stroke-linecap: square"/>
     </g>
     <g id="line2d_42">
      <g>
       <use xlink:href="#m2fc565b8ea" x="141.184402" y="146.747947" style="stroke: #000000; stroke-width: 0.8"/>
      </g>
     </g>
    </g>
    <g id="xtick_22">
     <g id="line2d_43">
      <path d="M 146.713128 146.747947 
L 146.713128 12.07875 
" clip-path="url(#pc418ce76d9)" style="fill: none; stroke: #b0b0b0; stroke-width: 0.3; stroke-linecap: square"/>
     </g>
     <g id="line2d_44">
      <g>
       <use xlink:href="#m2fc565b8ea" x="146.713128" y="146.747947" style="stroke: #000000; stroke-width: 0.8"/>
      </g>
     </g>
    </g>
    <g id="xtick_23">
     <g id="line2d_45">
      <path d="M 157.770578 146.747947 
L 157.770578 12.07875 
" clip-path="url(#pc418ce76d9)" style="fill: none; stroke: #b0b0b0; stroke-width: 0.3; stroke-linecap: square"/>
     </g>
     <g id="line2d_46">
      <g>
       <use xlink:href="#m2fc565b8ea" x="157.770578" y="146.747947" style="stroke: #000000; stroke-width: 0.8"/>
      </g>
     </g>
    </g>
    <g id="text_6">
     <text style="font: 9.6px 'DejaVu Sans', 'Bitstream Vera Sans', 'Computer Modern Sans Serif', 'Lucida Grande', 'Verdana', 'Geneva', 'Lucid', 'Arial', 'Helvetica', 'Avant Garde', sans-serif; text-anchor: middle" x="96.9546" y="174.859197" transform="rotate(-0 96.9546 174.859197)">Wavelength (nm)</text>
    </g>
   </g>
   <g id="matplotlib.axis_2">
    <g id="ytick_1">
     <g id="line2d_47">
      <path d="M 35.58575 143.293482 
L 158.323451 143.293482 
" clip-path="url(#pc418ce76d9)" style="fill: none; stroke: #b0b0b0; stroke-width: 0.6; stroke-linecap: square"/>
     </g>
     <g id="line2d_48">
      <defs>
       <path id="m262aa336e8" d="M 0 0 
L -4.8 0 
" style="stroke: #000000"/>
      </defs>
      <g>
       <use xlink:href="#m262aa336e8" x="35.58575" y="143.293482" style="stroke: #000000"/>
      </g>
     </g>
     <g id="text_7">
      <text style="font: 8.8px 'DejaVu Sans', 'Bitstream Vera Sans', 'Computer Modern Sans Serif', 'Lucida Grande', 'Verdana', 'Geneva', 'Lucid', 'Arial', 'Helvetica', 'Avant Garde', sans-serif; text-anchor: end" x="27.28575" y="146.636795" transform="rotate(-0 27.28575 146.636795)">0.0</text>
     </g>
    </g>
    <g id="ytick_2">
     <g id="line2d_49">
      <path d="M 35.58575 116.980575 
L 158.323451 116.980575 
" clip-path="url(#pc418ce76d9)" style="fill: none; stroke: #b0b0b0; stroke-width: 0.6; stroke-linecap: square"/>
     </g>
     <g id="line2d_50">
      <g>
       <use xlink:href="#m262aa336e8" x="35.58575" y="116.980575" style="stroke: #000000"/>
      </g>
     </g>
     <g id="text_8">
      <text style="font: 8.8px 'DejaVu Sans', 'Bitstream Vera Sans', 'Computer Modern Sans Serif', 'Lucida Grande', 'Verdana', 'Geneva', 'Lucid', 'Arial', 'Helvetica', 'Avant Garde', sans-serif; text-anchor: end" x="27.28575" y="120.323887" transform="rotate(-0 27.28575 120.323887)">0.2</text>
     </g>
    </g>
    <g id="ytick_3">
     <g id="line2d_51">
      <path d="M 35.58575 90.667667 
L 158.323451 90.667667 
" clip-path="url(#pc418ce76d9)" style="fill: none; stroke: #b0b0b0; stroke-width: 0.6; stroke-linecap: square"/>
     </g>
     <g id="line2d_52">
      <g>
       <use xlink:href="#m262aa336e8" x="35.58575" y="90.667667" style="stroke: #000000"/>
      </g>
     </g>
     <g id="text_9">
      <text style="font: 8.8px 'DejaVu Sans', 'Bitstream Vera Sans', 'Computer Modern Sans Serif', 'Lucida Grande', 'Verdana', 'Geneva', 'Lucid', 'Arial', 'Helvetica', 'Avant Garde', sans-serif; text-anchor: end" x="27.28575" y="94.01098" transform="rotate(-0 27.28575 94.01098)">0.4</text>
     </g>
    </g>
    <g id="ytick_4">
     <g id="line2d_53">
      <path d="M 35.58575 64.35476 
L 158.323451 64.35476 
" clip-path="url(#pc418ce76d9)" style="fill: none; stroke: #b0b0b0; stroke-width: 0.6; stroke-linecap: square"/>
     </g>
     <g id="line2d_54">
      <g>
       <use xlink:href="#m262aa336e8" x="35.58575" y="64.35476" style="stroke: #000000"/>
      </g>
     </g>
     <g id="text_10">
      <text style="font: 8.8px 'DejaVu Sans', 'Bitstream Vera Sans', 'Computer Modern Sans Serif', 'Lucida Grande', 'Verdana', 'Geneva', 'Lucid', 'Arial', 'Helvetica', 'Avant Garde', sans-serif; text-anchor: end" x="27.28575" y="67.698072" transform="rotate(-0 27.28575 67.698072)">0.6</text>
     </g>
    </g>
    <g id="ytick_5">
     <g id="line2d_55">
      <path d="M 35.58575 38.041852 
L 158.323451 38.041852 
" clip-path="url(#pc418ce76d9)" style="fill: none; stroke: #b0b0b0; stroke-width: 0.6; stroke-linecap: square"/>
     </g>
     <g id="line2d_56">
      <g>
       <use xlink:href="#m262aa336e8" x="35.58575" y="38.041852" style="stroke: #000000"/>
      </g>
     </g>
     <g id="text_11">
      <text style="font: 8.8px 'DejaVu Sans', 'Bitstream Vera Sans', 'Computer Modern Sans Serif', 'Lucida Grande', 'Verdana', 'Geneva', 'Lucid', 'Arial', 'Helvetica', 'Avant Garde', sans-serif; text-anchor: end" x="27.28575" y="41.385165" transform="rotate(-0 27.28575 41.385165)">0.8</text>
     </g>
    </g>
    <g id="text_12">
     <text style="font: 9.6px 'DejaVu Sans', 'Bitstream Vera Sans', 'Computer Modern Sans Serif', 'Lucida Grande', 'Verdana', 'Geneva', 'Lucid', 'Arial', 'Helvetica', 'Avant Garde', sans-serif; text-anchor: middle" x="7.2945" y="79.413348" transform="rotate(-90 7.2945 79.413348)">Reflectance</text>
    </g>
   </g>
   <g id="line2d_57">
    <path d="M 36.641234 18.610714 
L 37.654021 18.850924 
L 38.687216 19.413252 
L 39.211595 19.914036 
L 40.276176 21.408857 
L 40.545657 21.65561 
L 41.088667 21.708014 
L 41.913405 21.448051 
L 42.750577 20.795789 
L 44.462971 19.423782 
L 45.338578 19.126366 
L 46.227385 19.120211 
L 47.12959 19.345996 
L 48.045396 19.774223 
L 48.663591 20.234914 
L 49.287983 20.910275 
L 49.918634 22.154371 
L 51.198968 25.486968 
L 51.848777 26.233103 
L 52.505101 26.607734 
L 53.837553 26.947501 
L 54.854482 26.979131 
L 57.287336 26.809986 
L 57.998181 26.950707 
L 58.716152 27.26248 
L 59.806627 28.045711 
L 61.286209 29.471776 
L 62.037142 30.375429 
L 62.795604 31.706478 
L 63.177682 32.678134 
L 63.947578 35.578109 
L 65.116917 41.046909 
L 65.510601 42.307156 
L 65.906254 43.032587 
L 66.303885 43.226369 
L 66.703504 43.06742 
L 67.508746 42.349961 
L 68.322061 41.279839 
L 70.391198 38.019466 
L 71.233409 37.153115 
L 72.512583 36.237239 
L 73.811041 35.602472 
L 75.572819 35.000736 
L 76.91741 34.709793 
L 78.282272 34.642815 
L 79.203591 34.845523 
L 81.074031 35.707834 
L 82.982161 36.439784 
L 85.421484 37.176614 
L 86.414374 37.636639 
L 87.417218 38.334285 
L 87.922403 38.874668 
L 88.430115 39.642025 
L 88.940365 40.753106 
L 89.453166 42.360255 
L 89.968532 44.663493 
L 90.486474 47.857311 
L 91.007006 52.093342 
L 92.58427 67.870418 
L 93.11529 70.865894 
L 93.648966 71.892211 
L 94.185311 71.402738 
L 94.724337 70.108951 
L 95.810488 66.68704 
L 97.460165 61.205387 
L 98.573742 58.251348 
L 99.698484 56.000121 
L 100.834501 54.247836 
L 101.981906 52.840946 
L 103.140814 51.737723 
L 104.31134 50.897544 
L 106.089169 49.998653 
L 107.289252 49.570702 
L 108.501366 49.437033 
L 109.111973 49.539949 
L 109.725632 49.790087 
L 110.34236 50.220392 
L 110.962171 50.870928 
L 111.585082 51.766361 
L 112.211106 52.899436 
L 112.840262 54.275802 
L 113.472562 55.928075 
L 114.108025 57.90278 
L 115.388497 63.01306 
L 117.988081 75.468263 
L 118.646121 77.962237 
L 119.307451 79.935719 
L 119.972088 81.365417 
L 120.640048 82.342466 
L 121.986004 83.608035 
L 123.345453 84.894151 
L 124.718531 86.590435 
L 126.105374 88.384667 
L 127.50612 89.803463 
L 129.633612 91.628245 
L 130.34988 92.484628 
L 131.069729 93.64179 
L 131.793177 95.191705 
L 132.520242 97.208077 
L 133.250943 99.751285 
L 133.985297 102.878328 
L 134.723323 106.658185 
L 136.210464 115.96161 
L 137.712513 125.957372 
L 138.469176 130.197667 
L 139.229621 133.315991 
L 139.993869 135.359475 
L 140.761937 136.629228 
L 141.533847 137.432754 
L 142.309615 137.949868 
L 143.872809 138.526848 
L 145.451673 138.763515 
L 147.046366 138.795204 
L 148.657045 138.600117 
L 150.283872 138.26123 
L 153.586615 137.216338 
L 155.26286 136.684391 
L 155.26286 136.684391 
" clip-path="url(#pc418ce76d9)" style="fill: none; stroke: #1f77b4; stroke-width: 0.5; stroke-linecap: square"/>
   </g>
   <g id="line2d_58"/>
   <g id="line2d_59">
    <path d="M 36.138623 18.320857 
L 36.470346 18.261018 
L 36.80207 18.469417 
L 37.133793 18.473524 
L 38.294825 18.979995 
L 38.571262 19.116243 
L 39.068847 19.387264 
L 39.345283 19.908787 
L 39.953443 21.010166 
L 40.672177 22.046551 
L 41.556773 21.674197 
L 41.888497 21.60789 
L 42.109646 21.426013 
L 44.818721 18.885344 
L 45.924466 18.652974 
L 46.422052 18.726655 
L 46.919637 18.825802 
L 48.522967 19.598608 
L 48.965265 19.913365 
L 49.186414 20.055978 
L 49.905148 21.576287 
L 51.453191 26.377158 
L 52.558937 26.827107 
L 53.111809 26.836318 
L 53.388245 26.799635 
L 54.051692 27.045372 
L 55.378586 26.798031 
L 56.594906 26.485752 
L 57.368928 26.435376 
L 57.755938 26.479766 
L 58.585247 26.729018 
L 60.13329 27.879122 
L 61.128461 28.809207 
L 62.787078 30.855778 
L 63.229376 31.897583 
L 63.837536 34.507816 
L 64.611558 39.581607 
L 65.330292 43.524945 
L 65.717303 44.755351 
L 65.993739 45.112109 
L 66.049026 45.064349 
L 66.601899 44.470273 
L 67.431208 43.283181 
L 67.873506 42.737444 
L 68.371091 41.794777 
L 70.250857 38.017231 
L 71.080166 37.038113 
L 72.185911 36.137079 
L 73.457518 35.41239 
L 74.23154 35.098952 
L 77.714636 34.075304 
L 79.152105 34.242883 
L 79.704978 34.498141 
L 80.534286 35.041806 
L 81.031872 35.24655 
L 83.298649 35.998073 
L 84.072671 36.058855 
L 86.947608 36.709686 
L 87.832204 37.091606 
L 88.661513 37.939711 
L 89.269672 39.24137 
L 89.767258 40.940225 
L 90.375417 44.478639 
L 90.983577 49.979915 
L 91.481162 56.605154 
L 92.642195 73.991981 
L 93.084493 77.089212 
L 93.360929 77.709119 
L 93.416216 77.682804 
L 93.637365 77.577548 
L 94.134951 75.771756 
L 97.56276 60.991464 
L 98.502643 58.1476 
L 99.38724 56.101758 
L 99.995399 54.996378 
L 101.488155 52.754523 
L 103.478496 50.654051 
L 105.634699 49.247784 
L 108.564923 47.967384 
L 109.22837 47.965144 
L 110.002392 48.17714 
L 110.665839 48.641581 
L 111.218712 49.2731 
L 111.771584 50.178675 
L 112.877329 52.422237 
L 113.651351 54.505053 
L 114.591234 57.859105 
L 115.420543 61.814069 
L 116.194564 66.382042 
L 117.632033 74.907265 
L 118.461342 78.868214 
L 119.124789 81.236908 
L 119.732948 82.610688 
L 120.285821 83.356626 
L 120.949268 83.743458 
L 122.71846 84.436996 
L 123.381907 84.99345 
L 124.211216 85.963509 
L 125.980408 88.498785 
L 127.252015 89.66945 
L 128.413047 90.165518 
L 129.187069 90.499553 
L 130.845686 91.781276 
L 131.619708 93.098568 
L 132.283155 94.71464 
L 133.001889 97.041556 
L 133.941772 100.982968 
L 134.99223 107.090003 
L 136.153262 116.002477 
L 137.20372 124.805585 
L 138.143604 132.505232 
L 138.585902 135.156776 
L 139.249349 137.858965 
L 139.746934 138.967234 
L 140.189232 139.639606 
L 141.294977 140.337687 
L 143.561754 140.605915 
L 147.708298 140.157906 
L 147.818873 140.155597 
L 147.984735 140.111896 
L 148.205884 140.034565 
L 149.809214 139.531026 
L 149.919788 139.470445 
L 150.08565 139.578766 
L 151.246682 139.053644 
L 151.412544 138.953534 
L 151.744268 138.803995 
L 152.020704 138.727073 
L 152.241853 138.529467 
L 152.463002 138.572729 
L 152.794726 138.361959 
L 153.458173 138.029146 
L 154.011045 137.863739 
L 154.176907 137.805783 
L 157.217706 136.47598 
L 157.438855 136.240129 
L 157.715291 136.208684 
L 157.715291 136.208684 
" clip-path="url(#pc418ce76d9)" style="fill: none; stroke: #1f77b4; stroke-opacity: 0.5; stroke-width: 0.5; stroke-linecap: square"/>
   </g>
   <g id="patch_3">
    <path d="M 35.58575 146.747947 
L 35.58575 12.07875 
" style="fill: none; stroke: #000000; stroke-linejoin: miter; stroke-linecap: square"/>
   </g>
   <g id="patch_4">
    <path d="M 158.323451 146.747947 
L 158.323451 12.07875 
" style="fill: none; stroke: #000000; stroke-linejoin: miter; stroke-linecap: square"/>
   </g>
   <g id="patch_5">
    <path d="M 35.58575 146.747947 
L 158.323451 146.747947 
" style="fill: none; stroke: #000000; stroke-linejoin: miter; stroke-linecap: square"/>
   </g>
   <g id="patch_6">
    <path d="M 35.58575 12.07875 
L 158.323451 12.07875 
" style="fill: none; stroke: #000000; stroke-linejoin: miter; stroke-linecap: square"/>
   </g>
   <g id="text_13">
    <text style="font: 8px 'DejaVu Sans', 'Bitstream Vera Sans', 'Computer Modern Sans Serif', 'Lucida Grande', 'Verdana', 'Geneva', 'Lucid', 'Arial', 'Helvetica', 'Avant Garde', sans-serif; text-anchor: middle" x="96.9546" y="6.07875" transform="rotate(-0 96.9546 6.07875)">enfys Sulfates Magnesium-sulfate</text>
   </g>
   <g id="legend_1">
    <g id="patch_7">
     <path d="M 164.978205 84.716786 
L 270.31383 84.716786 
Q 271.51383 84.716786 271.51383 83.516786 
L 271.51383 75.309911 
Q 271.51383 74.109911 270.31383 74.109911 
L 164.978205 74.109911 
Q 163.778205 74.109911 163.778205 75.309911 
L 163.778205 83.516786 
Q 163.778205 84.716786 164.978205 84.716786 
z
" style="fill: #ffffff; opacity: 0.8; stroke: #cccccc; stroke-width: 0.8; stroke-linejoin: miter"/>
    </g>
    <g id="line2d_60">
     <path d="M 166.178205 78.968973 
L 172.178205 78.968973 
L 178.178205 78.968973 
" style="fill: none; stroke: #1f77b4; stroke-width: 1.2; stroke-linecap: square"/>
    </g>
    <g id="text_14">
     <text style="font: 6px 'DejaVu Sans', 'Bitstream Vera Sans', 'Computer Modern Sans Serif', 'Lucida Grande', 'Verdana', 'Geneva', 'Lucid', 'Arial', 'Helvetica', 'Avant Garde', sans-serif; text-anchor: start" x="182.978205" y="81.068973" transform="rotate(-0 182.978205 81.068973)">Magnesium-Sulfate 799F366</text>
    </g>
   </g>
  </g>
 </g>
 <defs>
  <clipPath id="pc418ce76d9">
   <rect x="35.58575" y="12.07875" width="122.737701" height="134.669197"/>
  </clipPath>
 </defs>
</svg>
