<?xml version="1.0" encoding="utf-8" standalone="no"?>
<!DOCTYPE svg PUBLIC "-//W3C//DTD SVG 1.1//EN"
  "http://www.w3.org/Graphics/SVG/1.1/DTD/svg11.dtd">
<svg xmlns:xlink="http://www.w3.org/1999/xlink" width="272.417317pt" height="176.645947pt" viewBox="0 0 272.417317 176.645947" xmlns="http://www.w3.org/2000/svg" version="1.1">
 <metadata>
  <rdf:RDF xmlns:dc="http://purl.org/dc/elements/1.1/" xmlns:cc="http://creativecommons.org/ns#" xmlns:rdf="http://www.w3.org/1999/02/22-rdf-syntax-ns#">
   <cc:Work>
    <dc:type rdf:resource="http://purl.org/dc/dcmitype/StillImage"/>
    <dc:date>2025-02-12T16:36:04.397756</dc:date>
    <dc:format>image/svg+xml</dc:format>
    <dc:creator>
     <cc:Agent>
      <dc:title>Matplotlib v3.6.2, https://matplotlib.org/</dc:title>
     </cc:Agent>
    </dc:creator>
   </cc:Work>
  </rdf:RDF>
 </metadata>
 <defs>
  <style type="text/css">*{stroke-linejoin: round; stroke-linecap: butt}</style>
 </defs>
 <g id="figure_1">
  <g id="patch_1">
   <path d="M -0 176.645947 
L 272.417317 176.645947 
L 272.417317 0 
L -0 0 
z
" style="fill: #ffffff"/>
  </g>
  <g id="axes_1">
   <g id="patch_2">
    <path d="M 35.58575 146.538197 
L 198.013451 146.538197 
L 198.013451 21.037 
L 35.58575 21.037 
z
" style="fill: #ffffff"/>
   </g>
   <g id="matplotlib.axis_1">
    <g id="xtick_1">
     <g id="line2d_1">
      <path d="M 43.633969 146.538197 
L 43.633969 21.037 
" clip-path="url(#pf4b9deba2d)" style="fill: none; stroke: #b0b0b0; stroke-width: 0.6; stroke-linecap: square"/>
     </g>
     <g id="line2d_2">
      <defs>
       <path id="me6284e0157" d="M 0 0 
L 0 4.8 
" style="stroke: #000000"/>
      </defs>
      <g>
       <use xlink:href="#me6284e0157" x="43.633969" y="146.538197" style="stroke: #000000"/>
      </g>
     </g>
     <g id="text_1">
      <text style="font: 8.8px 'DejaVu Sans', 'Bitstream Vera Sans', 'Computer Modern Sans Serif', 'Lucida Grande', 'Verdana', 'Geneva', 'Lucid', 'Arial', 'Helvetica', 'Avant Garde', sans-serif; text-anchor: middle" x="43.633969" y="161.524822" transform="rotate(-0 43.633969 161.524822)">1000</text>
     </g>
    </g>
    <g id="xtick_2">
     <g id="line2d_3">
      <path d="M 80.216785 146.538197 
L 80.216785 21.037 
" clip-path="url(#pf4b9deba2d)" style="fill: none; stroke: #b0b0b0; stroke-width: 0.6; stroke-linecap: square"/>
     </g>
     <g id="line2d_4">
      <g>
       <use xlink:href="#me6284e0157" x="80.216785" y="146.538197" style="stroke: #000000"/>
      </g>
     </g>
     <g id="text_2">
      <text style="font: 8.8px 'DejaVu Sans', 'Bitstream Vera Sans', 'Computer Modern Sans Serif', 'Lucida Grande', 'Verdana', 'Geneva', 'Lucid', 'Arial', 'Helvetica', 'Avant Garde', sans-serif; text-anchor: middle" x="80.216785" y="161.524822" transform="rotate(-0 80.216785 161.524822)">1500</text>
     </g>
    </g>
    <g id="xtick_3">
     <g id="line2d_5">
      <path d="M 116.7996 146.538197 
L 116.7996 21.037 
" clip-path="url(#pf4b9deba2d)" style="fill: none; stroke: #b0b0b0; stroke-width: 0.6; stroke-linecap: square"/>
     </g>
     <g id="line2d_6">
      <g>
       <use xlink:href="#me6284e0157" x="116.7996" y="146.538197" style="stroke: #000000"/>
      </g>
     </g>
     <g id="text_3">
      <text style="font: 8.8px 'DejaVu Sans', 'Bitstream Vera Sans', 'Computer Modern Sans Serif', 'Lucida Grande', 'Verdana', 'Geneva', 'Lucid', 'Arial', 'Helvetica', 'Avant Garde', sans-serif; text-anchor: middle" x="116.7996" y="161.524822" transform="rotate(-0 116.7996 161.524822)">2000</text>
     </g>
    </g>
    <g id="xtick_4">
     <g id="line2d_7">
      <path d="M 153.382416 146.538197 
L 153.382416 21.037 
" clip-path="url(#pf4b9deba2d)" style="fill: none; stroke: #b0b0b0; stroke-width: 0.6; stroke-linecap: square"/>
     </g>
     <g id="line2d_8">
      <g>
       <use xlink:href="#me6284e0157" x="153.382416" y="146.538197" style="stroke: #000000"/>
      </g>
     </g>
     <g id="text_4">
      <text style="font: 8.8px 'DejaVu Sans', 'Bitstream Vera Sans', 'Computer Modern Sans Serif', 'Lucida Grande', 'Verdana', 'Geneva', 'Lucid', 'Arial', 'Helvetica', 'Avant Garde', sans-serif; text-anchor: middle" x="153.382416" y="161.524822" transform="rotate(-0 153.382416 161.524822)">2500</text>
     </g>
    </g>
    <g id="xtick_5">
     <g id="line2d_9">
      <path d="M 189.965231 146.538197 
L 189.965231 21.037 
" clip-path="url(#pf4b9deba2d)" style="fill: none; stroke: #b0b0b0; stroke-width: 0.6; stroke-linecap: square"/>
     </g>
     <g id="line2d_10">
      <g>
       <use xlink:href="#me6284e0157" x="189.965231" y="146.538197" style="stroke: #000000"/>
      </g>
     </g>
     <g id="text_5">
      <text style="font: 8.8px 'DejaVu Sans', 'Bitstream Vera Sans', 'Computer Modern Sans Serif', 'Lucida Grande', 'Verdana', 'Geneva', 'Lucid', 'Arial', 'Helvetica', 'Avant Garde', sans-serif; text-anchor: middle" x="189.965231" y="161.524822" transform="rotate(-0 189.965231 161.524822)">3000</text>
     </g>
    </g>
    <g id="xtick_6">
     <g id="line2d_11">
      <path d="M 36.317406 146.538197 
L 36.317406 21.037 
" clip-path="url(#pf4b9deba2d)" style="fill: none; stroke: #b0b0b0; stroke-width: 0.3; stroke-linecap: square"/>
     </g>
     <g id="line2d_12">
      <defs>
       <path id="m2888db7abd" d="M 0 0 
L 0 3.2 
" style="stroke: #000000; stroke-width: 0.8"/>
      </defs>
      <g>
       <use xlink:href="#m2888db7abd" x="36.317406" y="146.538197" style="stroke: #000000; stroke-width: 0.8"/>
      </g>
     </g>
    </g>
    <g id="xtick_7">
     <g id="line2d_13">
      <path d="M 50.950533 146.538197 
L 50.950533 21.037 
" clip-path="url(#pf4b9deba2d)" style="fill: none; stroke: #b0b0b0; stroke-width: 0.3; stroke-linecap: square"/>
     </g>
     <g id="line2d_14">
      <g>
       <use xlink:href="#m2888db7abd" x="50.950533" y="146.538197" style="stroke: #000000; stroke-width: 0.8"/>
      </g>
     </g>
    </g>
    <g id="xtick_8">
     <g id="line2d_15">
      <path d="M 58.267096 146.538197 
L 58.267096 21.037 
" clip-path="url(#pf4b9deba2d)" style="fill: none; stroke: #b0b0b0; stroke-width: 0.3; stroke-linecap: square"/>
     </g>
     <g id="line2d_16">
      <g>
       <use xlink:href="#m2888db7abd" x="58.267096" y="146.538197" style="stroke: #000000; stroke-width: 0.8"/>
      </g>
     </g>
    </g>
    <g id="xtick_9">
     <g id="line2d_17">
      <path d="M 65.583659 146.538197 
L 65.583659 21.037 
" clip-path="url(#pf4b9deba2d)" style="fill: none; stroke: #b0b0b0; stroke-width: 0.3; stroke-linecap: square"/>
     </g>
     <g id="line2d_18">
      <g>
       <use xlink:href="#m2888db7abd" x="65.583659" y="146.538197" style="stroke: #000000; stroke-width: 0.8"/>
      </g>
     </g>
    </g>
    <g id="xtick_10">
     <g id="line2d_19">
      <path d="M 72.900222 146.538197 
L 72.900222 21.037 
" clip-path="url(#pf4b9deba2d)" style="fill: none; stroke: #b0b0b0; stroke-width: 0.3; stroke-linecap: square"/>
     </g>
     <g id="line2d_20">
      <g>
       <use xlink:href="#m2888db7abd" x="72.900222" y="146.538197" style="stroke: #000000; stroke-width: 0.8"/>
      </g>
     </g>
    </g>
    <g id="xtick_11">
     <g id="line2d_21">
      <path d="M 87.533348 146.538197 
L 87.533348 21.037 
" clip-path="url(#pf4b9deba2d)" style="fill: none; stroke: #b0b0b0; stroke-width: 0.3; stroke-linecap: square"/>
     </g>
     <g id="line2d_22">
      <g>
       <use xlink:href="#m2888db7abd" x="87.533348" y="146.538197" style="stroke: #000000; stroke-width: 0.8"/>
      </g>
     </g>
    </g>
    <g id="xtick_12">
     <g id="line2d_23">
      <path d="M 94.849911 146.538197 
L 94.849911 21.037 
" clip-path="url(#pf4b9deba2d)" style="fill: none; stroke: #b0b0b0; stroke-width: 0.3; stroke-linecap: square"/>
     </g>
     <g id="line2d_24">
      <g>
       <use xlink:href="#m2888db7abd" x="94.849911" y="146.538197" style="stroke: #000000; stroke-width: 0.8"/>
      </g>
     </g>
    </g>
    <g id="xtick_13">
     <g id="line2d_25">
      <path d="M 102.166474 146.538197 
L 102.166474 21.037 
" clip-path="url(#pf4b9deba2d)" style="fill: none; stroke: #b0b0b0; stroke-width: 0.3; stroke-linecap: square"/>
     </g>
     <g id="line2d_26">
      <g>
       <use xlink:href="#m2888db7abd" x="102.166474" y="146.538197" style="stroke: #000000; stroke-width: 0.8"/>
      </g>
     </g>
    </g>
    <g id="xtick_14">
     <g id="line2d_27">
      <path d="M 109.483037 146.538197 
L 109.483037 21.037 
" clip-path="url(#pf4b9deba2d)" style="fill: none; stroke: #b0b0b0; stroke-width: 0.3; stroke-linecap: square"/>
     </g>
     <g id="line2d_28">
      <g>
       <use xlink:href="#m2888db7abd" x="109.483037" y="146.538197" style="stroke: #000000; stroke-width: 0.8"/>
      </g>
     </g>
    </g>
    <g id="xtick_15">
     <g id="line2d_29">
      <path d="M 124.116163 146.538197 
L 124.116163 21.037 
" clip-path="url(#pf4b9deba2d)" style="fill: none; stroke: #b0b0b0; stroke-width: 0.3; stroke-linecap: square"/>
     </g>
     <g id="line2d_30">
      <g>
       <use xlink:href="#m2888db7abd" x="124.116163" y="146.538197" style="stroke: #000000; stroke-width: 0.8"/>
      </g>
     </g>
    </g>
    <g id="xtick_16">
     <g id="line2d_31">
      <path d="M 131.432727 146.538197 
L 131.432727 21.037 
" clip-path="url(#pf4b9deba2d)" style="fill: none; stroke: #b0b0b0; stroke-width: 0.3; stroke-linecap: square"/>
     </g>
     <g id="line2d_32">
      <g>
       <use xlink:href="#m2888db7abd" x="131.432727" y="146.538197" style="stroke: #000000; stroke-width: 0.8"/>
      </g>
     </g>
    </g>
    <g id="xtick_17">
     <g id="line2d_33">
      <path d="M 138.74929 146.538197 
L 138.74929 21.037 
" clip-path="url(#pf4b9deba2d)" style="fill: none; stroke: #b0b0b0; stroke-width: 0.3; stroke-linecap: square"/>
     </g>
     <g id="line2d_34">
      <g>
       <use xlink:href="#m2888db7abd" x="138.74929" y="146.538197" style="stroke: #000000; stroke-width: 0.8"/>
      </g>
     </g>
    </g>
    <g id="xtick_18">
     <g id="line2d_35">
      <path d="M 146.065853 146.538197 
L 146.065853 21.037 
" clip-path="url(#pf4b9deba2d)" style="fill: none; stroke: #b0b0b0; stroke-width: 0.3; stroke-linecap: square"/>
     </g>
     <g id="line2d_36">
      <g>
       <use xlink:href="#m2888db7abd" x="146.065853" y="146.538197" style="stroke: #000000; stroke-width: 0.8"/>
      </g>
     </g>
    </g>
    <g id="xtick_19">
     <g id="line2d_37">
      <path d="M 160.698979 146.538197 
L 160.698979 21.037 
" clip-path="url(#pf4b9deba2d)" style="fill: none; stroke: #b0b0b0; stroke-width: 0.3; stroke-linecap: square"/>
     </g>
     <g id="line2d_38">
      <g>
       <use xlink:href="#m2888db7abd" x="160.698979" y="146.538197" style="stroke: #000000; stroke-width: 0.8"/>
      </g>
     </g>
    </g>
    <g id="xtick_20">
     <g id="line2d_39">
      <path d="M 168.015542 146.538197 
L 168.015542 21.037 
" clip-path="url(#pf4b9deba2d)" style="fill: none; stroke: #b0b0b0; stroke-width: 0.3; stroke-linecap: square"/>
     </g>
     <g id="line2d_40">
      <g>
       <use xlink:href="#m2888db7abd" x="168.015542" y="146.538197" style="stroke: #000000; stroke-width: 0.8"/>
      </g>
     </g>
    </g>
    <g id="xtick_21">
     <g id="line2d_41">
      <path d="M 175.332105 146.538197 
L 175.332105 21.037 
" clip-path="url(#pf4b9deba2d)" style="fill: none; stroke: #b0b0b0; stroke-width: 0.3; stroke-linecap: square"/>
     </g>
     <g id="line2d_42">
      <g>
       <use xlink:href="#m2888db7abd" x="175.332105" y="146.538197" style="stroke: #000000; stroke-width: 0.8"/>
      </g>
     </g>
    </g>
    <g id="xtick_22">
     <g id="line2d_43">
      <path d="M 182.648668 146.538197 
L 182.648668 21.037 
" clip-path="url(#pf4b9deba2d)" style="fill: none; stroke: #b0b0b0; stroke-width: 0.3; stroke-linecap: square"/>
     </g>
     <g id="line2d_44">
      <g>
       <use xlink:href="#m2888db7abd" x="182.648668" y="146.538197" style="stroke: #000000; stroke-width: 0.8"/>
      </g>
     </g>
    </g>
    <g id="xtick_23">
     <g id="line2d_45">
      <path d="M 197.281794 146.538197 
L 197.281794 21.037 
" clip-path="url(#pf4b9deba2d)" style="fill: none; stroke: #b0b0b0; stroke-width: 0.3; stroke-linecap: square"/>
     </g>
     <g id="line2d_46">
      <g>
       <use xlink:href="#m2888db7abd" x="197.281794" y="146.538197" style="stroke: #000000; stroke-width: 0.8"/>
      </g>
     </g>
    </g>
    <g id="text_6">
     <text style="font: 9.6px 'DejaVu Sans', 'Bitstream Vera Sans', 'Computer Modern Sans Serif', 'Lucida Grande', 'Verdana', 'Geneva', 'Lucid', 'Arial', 'Helvetica', 'Avant Garde', sans-serif; text-anchor: middle" x="116.7996" y="174.649447" transform="rotate(-0 116.7996 174.649447)">Wavelength (nm)</text>
    </g>
   </g>
   <g id="matplotlib.axis_2">
    <g id="ytick_1">
     <g id="line2d_47">
      <path d="M 35.58575 141.348164 
L 198.013451 141.348164 
" clip-path="url(#pf4b9deba2d)" style="fill: none; stroke: #b0b0b0; stroke-width: 0.6; stroke-linecap: square"/>
     </g>
     <g id="line2d_48">
      <defs>
       <path id="m4ec215c4cd" d="M 0 0 
L -4.8 0 
" style="stroke: #000000"/>
      </defs>
      <g>
       <use xlink:href="#m4ec215c4cd" x="35.58575" y="141.348164" style="stroke: #000000"/>
      </g>
     </g>
     <g id="text_7">
      <text style="font: 8.8px 'DejaVu Sans', 'Bitstream Vera Sans', 'Computer Modern Sans Serif', 'Lucida Grande', 'Verdana', 'Geneva', 'Lucid', 'Arial', 'Helvetica', 'Avant Garde', sans-serif; text-anchor: end" x="27.28575" y="144.691476" transform="rotate(-0 27.28575 144.691476)">0.2</text>
     </g>
    </g>
    <g id="ytick_2">
     <g id="line2d_49">
      <path d="M 35.58575 109.10048 
L 198.013451 109.10048 
" clip-path="url(#pf4b9deba2d)" style="fill: none; stroke: #b0b0b0; stroke-width: 0.6; stroke-linecap: square"/>
     </g>
     <g id="line2d_50">
      <g>
       <use xlink:href="#m4ec215c4cd" x="35.58575" y="109.10048" style="stroke: #000000"/>
      </g>
     </g>
     <g id="text_8">
      <text style="font: 8.8px 'DejaVu Sans', 'Bitstream Vera Sans', 'Computer Modern Sans Serif', 'Lucida Grande', 'Verdana', 'Geneva', 'Lucid', 'Arial', 'Helvetica', 'Avant Garde', sans-serif; text-anchor: end" x="27.28575" y="112.443792" transform="rotate(-0 27.28575 112.443792)">0.4</text>
     </g>
    </g>
    <g id="ytick_3">
     <g id="line2d_51">
      <path d="M 35.58575 76.852796 
L 198.013451 76.852796 
" clip-path="url(#pf4b9deba2d)" style="fill: none; stroke: #b0b0b0; stroke-width: 0.6; stroke-linecap: square"/>
     </g>
     <g id="line2d_52">
      <g>
       <use xlink:href="#m4ec215c4cd" x="35.58575" y="76.852796" style="stroke: #000000"/>
      </g>
     </g>
     <g id="text_9">
      <text style="font: 8.8px 'DejaVu Sans', 'Bitstream Vera Sans', 'Computer Modern Sans Serif', 'Lucida Grande', 'Verdana', 'Geneva', 'Lucid', 'Arial', 'Helvetica', 'Avant Garde', sans-serif; text-anchor: end" x="27.28575" y="80.196109" transform="rotate(-0 27.28575 80.196109)">0.6</text>
     </g>
    </g>
    <g id="ytick_4">
     <g id="line2d_53">
      <path d="M 35.58575 44.605112 
L 198.013451 44.605112 
" clip-path="url(#pf4b9deba2d)" style="fill: none; stroke: #b0b0b0; stroke-width: 0.6; stroke-linecap: square"/>
     </g>
     <g id="line2d_54">
      <g>
       <use xlink:href="#m4ec215c4cd" x="35.58575" y="44.605112" style="stroke: #000000"/>
      </g>
     </g>
     <g id="text_10">
      <text style="font: 8.8px 'DejaVu Sans', 'Bitstream Vera Sans', 'Computer Modern Sans Serif', 'Lucida Grande', 'Verdana', 'Geneva', 'Lucid', 'Arial', 'Helvetica', 'Avant Garde', sans-serif; text-anchor: end" x="27.28575" y="47.948425" transform="rotate(-0 27.28575 47.948425)">0.8</text>
     </g>
    </g>
    <g id="text_11">
     <text style="font: 9.6px 'DejaVu Sans', 'Bitstream Vera Sans', 'Computer Modern Sans Serif', 'Lucida Grande', 'Verdana', 'Geneva', 'Lucid', 'Arial', 'Helvetica', 'Avant Garde', sans-serif; text-anchor: middle" x="7.2945" y="83.787598" transform="rotate(-90 7.2945 83.787598)">Reflectance</text>
    </g>
   </g>
   <g id="line2d_55">
    <path d="M 36.982548 27.607908 
L 37.985258 28.404618 
L 39.003084 29.653025 
L 40.036254 31.027613 
L 40.384094 31.782152 
L 41.438083 35.121656 
L 41.792931 35.180232 
L 42.149554 34.649706 
L 44.327051 29.889995 
L 45.067485 29.200805 
L 45.815341 28.91287 
L 46.570695 28.911359 
L 47.333621 28.826072 
L 50.064598 29.481355 
L 50.862551 30.042466 
L 52.892605 32.082396 
L 53.304727 32.731829 
L 53.718909 33.697998 
L 54.135161 35.259963 
L 55.396449 42.854833 
L 55.82109 42.189435 
L 56.676751 37.908942 
L 57.107793 36.506083 
L 57.54099 35.726644 
L 57.976354 35.19465 
L 59.295548 33.077861 
L 59.739684 32.684916 
L 60.186041 32.464549 
L 61.538546 32.156808 
L 62.451525 31.97489 
L 63.373657 32.072578 
L 63.838183 32.246421 
L 64.305032 32.597291 
L 65.245745 33.756236 
L 66.195889 35.162644 
L 66.674526 36.201194 
L 67.155557 37.71752 
L 68.124847 42.312246 
L 69.103853 46.945158 
L 70.092674 50.13848 
L 70.590796 51.460889 
L 71.091408 53.159368 
L 71.594524 55.754624 
L 72.100155 59.431277 
L 72.608314 64.321163 
L 73.119014 70.830698 
L 74.148087 86.537911 
L 74.666485 89.906504 
L 75.187476 87.681062 
L 76.76613 71.887574 
L 77.297619 69.729088 
L 77.831765 68.070803 
L 78.368583 64.232194 
L 79.450283 54.573188 
L 79.995192 50.856067 
L 81.093199 45.619422 
L 82.202213 41.804305 
L 83.322345 39.145287 
L 84.453707 37.121121 
L 86.17205 35.021133 
L 86.750569 34.403453 
L 88.503538 33.307027 
L 89.093714 32.988024 
L 90.282934 32.741182 
L 91.484075 32.838382 
L 92.089154 33.088851 
L 92.697258 33.495914 
L 93.922603 34.748409 
L 94.539874 35.545394 
L 95.160232 36.597844 
L 95.783691 38.038188 
L 96.410268 39.829994 
L 97.039977 42.0616 
L 97.672836 44.881927 
L 98.948061 52.242932 
L 100.23607 59.280593 
L 100.884909 61.48438 
L 101.536991 62.717619 
L 102.192335 63.205917 
L 102.850955 62.636002 
L 104.17809 60.056564 
L 104.846639 59.839168 
L 105.518531 60.968354 
L 106.193782 63.629056 
L 106.872409 68.215089 
L 107.554429 75.346967 
L 108.23986 85.228498 
L 109.621019 108.73658 
L 110.316783 115.483414 
L 111.016025 114.092408 
L 112.425015 99.832622 
L 113.848131 86.07556 
L 115.285513 74.211775 
L 116.009599 69.602151 
L 116.737306 66.179742 
L 117.46865 63.746985 
L 118.203652 62.024214 
L 118.942329 60.915033 
L 119.684698 60.219923 
L 120.43078 59.72934 
L 121.934154 59.239502 
L 122.691483 59.270537 
L 123.452599 59.656479 
L 124.21752 60.402361 
L 125.758855 62.493596 
L 126.535308 63.183934 
L 127.315643 63.420202 
L 128.099879 63.339243 
L 129.680136 62.697325 
L 131.276234 62.709395 
L 132.080273 62.874051 
L 132.888333 63.286598 
L 135.336835 65.151371 
L 136.161177 65.949335 
L 136.989641 66.947471 
L 138.659017 69.675635 
L 141.194513 74.153357 
L 142.048144 76.022816 
L 142.906043 78.205108 
L 143.768231 81.029551 
L 144.634731 84.628434 
L 145.505563 88.978269 
L 146.380749 94.145833 
L 148.144271 106.547344 
L 149.925472 118.960828 
L 150.822758 124.261748 
L 151.72453 128.481109 
L 152.630811 131.795835 
L 153.541623 134.21815 
L 154.45699 135.824602 
L 155.376933 136.837764 
L 155.376933 136.837764 
" clip-path="url(#pf4b9deba2d)" style="fill: none; stroke: #1f77b4; stroke-width: 0.5; stroke-linecap: square"/>
   </g>
   <g id="line2d_56"/>
   <g id="line2d_57">
    <path d="M 36.317406 26.953724 
L 36.683234 26.7416 
L 37.561222 27.645725 
L 38.146547 28.050097 
L 39.536694 30.014693 
L 40.122019 30.63749 
L 40.414682 31.311939 
L 40.926841 33.885255 
L 41.439 37.665816 
L 41.512166 37.446965 
L 42.755982 33.409521 
L 43.341307 31.262238 
L 43.707135 30.590875 
L 44.146129 29.494933 
L 45.682607 28.271866 
L 45.828938 28.203481 
L 46.267932 28.647979 
L 46.63376 28.55083 
L 47.14592 28.204129 
L 47.365417 28.233339 
L 47.80441 28.540074 
L 48.609232 28.634344 
L 48.97506 28.710513 
L 49.853048 28.794579 
L 50.731036 29.244622 
L 51.682189 30.585545 
L 52.560176 30.975187 
L 53.291833 31.681956 
L 53.877158 32.710151 
L 54.242986 34.052419 
L 54.755145 40.175002 
L 55.34047 49.214603 
L 55.706299 47.478062 
L 56.437955 38.854652 
L 56.950114 35.917358 
L 57.462274 34.99222 
L 57.535439 34.884299 
L 57.901267 35.49605 
L 58.413427 34.107536 
L 58.925586 32.578161 
L 59.145083 32.295688 
L 59.657243 31.795362 
L 60.096236 31.438933 
L 61.04739 31.711245 
L 61.559549 31.348517 
L 62.071708 30.928782 
L 62.510702 31.004027 
L 62.730199 31.014539 
L 63.169193 30.874994 
L 63.608187 30.867636 
L 63.900849 30.882801 
L 64.193512 31.045948 
L 64.925168 32.053359 
L 65.583659 32.901026 
L 66.315315 33.565414 
L 66.827474 34.543405 
L 67.193303 35.809268 
L 67.778628 38.960791 
L 68.510284 44.2384 
L 69.315106 48.099965 
L 69.827265 49.562479 
L 70.193093 50.005608 
L 70.778419 50.609488 
L 71.071081 50.930242 
L 71.58324 53.5369 
L 72.241731 58.796625 
L 72.900222 66.278833 
L 73.485547 79.378701 
L 74.4367 104.147864 
L 74.729363 105.516596 
L 75.241522 97.326257 
L 76.339006 75.380082 
L 76.778 70.549951 
L 76.924332 69.367195 
L 76.997497 69.499185 
L 77.29016 70.027143 
L 77.655988 73.667911 
L 77.729153 73.615879 
L 78.021816 73.407753 
L 78.899804 58.947993 
L 79.558294 52.151898 
L 80.216785 47.564682 
L 81.167938 43.783246 
L 81.533766 42.347413 
L 82.045926 40.443479 
L 82.923913 38.286899 
L 83.216576 37.91688 
L 84.31406 35.665955 
L 85.192048 34.755795 
L 85.48471 34.498874 
L 86.435864 33.174533 
L 86.874857 32.454218 
L 87.387017 32.477083 
L 87.679679 32.460199 
L 88.118673 32.157617 
L 89.289323 31.166601 
L 90.094145 31.038586 
L 91.630623 30.828646 
L 91.996451 31.231793 
L 92.581777 31.13312 
L 92.654942 31.133366 
L 93.093936 32.119173 
L 93.825592 32.481621 
L 94.264586 33.13793 
L 94.630414 33.319262 
L 94.849911 33.334059 
L 96.386389 37.286872 
L 97.118046 39.877321 
L 97.849702 43.543497 
L 100.629996 63.622742 
L 100.776327 63.997857 
L 101.215321 64.267737 
L 101.581149 64.791532 
L 101.946977 65.326032 
L 102.532302 65.571188 
L 104.361443 56.571015 
L 104.727271 55.577485 
L 104.800437 55.618013 
L 105.458928 55.982753 
L 106.26375 58.644293 
L 106.995406 63.523439 
L 107.800228 74.808319 
L 108.824547 98.590857 
L 109.409872 116.258455 
L 109.995197 132.899166 
L 110.580522 139.013931 
L 112.190166 106.99413 
L 113.214484 94.147942 
L 115.775282 67.849959 
L 116.726435 63.03208 
L 117.458091 60.809546 
L 118.701907 58.2664 
L 119.360397 58.535625 
L 120.165219 57.629655 
L 120.970041 57.701025 
L 122.360188 57.159299 
L 123.091845 57.285999 
L 124.481992 58.977038 
L 125.433145 61.682368 
L 126.676961 63.533692 
L 127.847611 63.055167 
L 128.286604 62.86592 
L 128.945095 62.249033 
L 129.603586 60.86164 
L 129.676751 60.9176 
L 130.481573 61.401424 
L 131.579058 61.14305 
L 132.018052 61.099601 
L 132.603377 61.26166 
L 133.627696 62.275699 
L 134.286186 62.844922 
L 134.798346 63.30252 
L 135.456836 63.182032 
L 136.407989 64.335607 
L 136.993315 64.807056 
L 138.23713 67.093166 
L 139.91994 70.289861 
L 140.57843 70.187735 
L 141.529584 72.714841 
L 142.992896 75.332415 
L 144.017215 78.741848 
L 144.456209 80.701623 
L 146.212184 90.481329 
L 148.480319 110.097909 
L 149.724134 120.427541 
L 151.041116 129.981104 
L 151.845938 133.261208 
L 153.162919 138.123331 
L 153.748244 138.938474 
L 155.431054 140.769932 
L 155.65055 140.78297 
L 157.626022 139.41622 
L 157.626022 139.41622 
" clip-path="url(#pf4b9deba2d)" style="fill: none; stroke: #1f77b4; stroke-opacity: 0.5; stroke-width: 0.5; stroke-linecap: square"/>
   </g>
   <g id="patch_3">
    <path d="M 35.58575 146.538197 
L 35.58575 21.037 
" style="fill: none; stroke: #000000; stroke-linejoin: miter; stroke-linecap: square"/>
   </g>
   <g id="patch_4">
    <path d="M 198.013451 146.538197 
L 198.013451 21.037 
" style="fill: none; stroke: #000000; stroke-linejoin: miter; stroke-linecap: square"/>
   </g>
   <g id="patch_5">
    <path d="M 35.58575 146.538197 
L 198.013451 146.538197 
" style="fill: none; stroke: #000000; stroke-linejoin: miter; stroke-linecap: square"/>
   </g>
   <g id="patch_6">
    <path d="M 35.58575 21.037 
L 198.013451 21.037 
" style="fill: none; stroke: #000000; stroke-linejoin: miter; stroke-linecap: square"/>
   </g>
   <g id="text_12">
    <text style="font: 8px 'DejaVu Sans', 'Bitstream Vera Sans', 'Computer Modern Sans Serif', 'Lucida Grande', 'Verdana', 'Geneva', 'Lucid', 'Arial', 'Helvetica', 'Avant Garde', sans-serif" transform="translate(67.4396 6.07875)">enfys Hydrated silicates </text>
    <text style="font: 8px 'DejaVu Sans', 'Bitstream Vera Sans', 'Computer Modern Sans Serif', 'Lucida Grande', 'Verdana', 'Geneva', 'Lucid', 'Arial', 'Helvetica', 'Avant Garde', sans-serif" transform="translate(77.071475 15.037)"> &amp; halides Analcime</text>
   </g>
   <g id="legend_1">
    <g id="patch_7">
     <path d="M 205.462005 89.091036 
L 271.217317 89.091036 
Q 272.417317 89.091036 272.417317 87.891036 
L 272.417317 79.684161 
Q 272.417317 78.484161 271.217317 78.484161 
L 205.462005 78.484161 
Q 204.262005 78.484161 204.262005 79.684161 
L 204.262005 87.891036 
Q 204.262005 89.091036 205.462005 89.091036 
z
" style="fill: #ffffff; opacity: 0.8; stroke: #cccccc; stroke-width: 0.8; stroke-linejoin: miter"/>
    </g>
    <g id="line2d_58">
     <path d="M 206.662005 83.343223 
L 212.662005 83.343223 
L 218.662005 83.343223 
" style="fill: none; stroke: #1f77b4; stroke-width: 1.2; stroke-linecap: square"/>
    </g>
    <g id="text_13">
     <text style="font: 6px 'DejaVu Sans', 'Bitstream Vera Sans', 'Computer Modern Sans Serif', 'Lucida Grande', 'Verdana', 'Geneva', 'Lucid', 'Arial', 'Helvetica', 'Avant Garde', sans-serif; text-anchor: start" x="223.462005" y="85.443223" transform="rotate(-0 223.462005 85.443223)">Analcime GDS1</text>
    </g>
   </g>
  </g>
 </g>
 <defs>
  <clipPath id="pf4b9deba2d">
   <rect x="35.58575" y="21.037" width="162.427701" height="125.501197"/>
  </clipPath>
 </defs>
</svg>
