<?xml version="1.0" encoding="utf-8" standalone="no"?>
<!DOCTYPE svg PUBLIC "-//W3C//DTD SVG 1.1//EN"
  "http://www.w3.org/Graphics/SVG/1.1/DTD/svg11.dtd">
<svg xmlns:xlink="http://www.w3.org/1999/xlink" width="271.782292pt" height="176.855697pt" viewBox="0 0 271.782292 176.855697" xmlns="http://www.w3.org/2000/svg" version="1.1">
 <metadata>
  <rdf:RDF xmlns:dc="http://purl.org/dc/elements/1.1/" xmlns:cc="http://creativecommons.org/ns#" xmlns:rdf="http://www.w3.org/1999/02/22-rdf-syntax-ns#">
   <cc:Work>
    <dc:type rdf:resource="http://purl.org/dc/dcmitype/StillImage"/>
    <dc:date>2025-02-12T16:36:03.443730</dc:date>
    <dc:format>image/svg+xml</dc:format>
    <dc:creator>
     <cc:Agent>
      <dc:title>Matplotlib v3.6.2, https://matplotlib.org/</dc:title>
     </cc:Agent>
    </dc:creator>
   </cc:Work>
  </rdf:RDF>
 </metadata>
 <defs>
  <style type="text/css">*{stroke-linejoin: round; stroke-linecap: butt}</style>
 </defs>
 <g id="figure_1">
  <g id="patch_1">
   <path d="M -0 176.855697 
L 271.782292 176.855697 
L 271.782292 0 
L -0 0 
z
" style="fill: #ffffff"/>
  </g>
  <g id="axes_1">
   <g id="patch_2">
    <path d="M 35.58575 146.747947 
L 170.293451 146.747947 
L 170.293451 12.07875 
L 35.58575 12.07875 
z
" style="fill: #ffffff"/>
   </g>
   <g id="matplotlib.axis_1">
    <g id="xtick_1">
     <g id="line2d_1">
      <path d="M 42.260456 146.747947 
L 42.260456 12.07875 
" clip-path="url(#pf799fdaeda)" style="fill: none; stroke: #b0b0b0; stroke-width: 0.6; stroke-linecap: square"/>
     </g>
     <g id="line2d_2">
      <defs>
       <path id="mda4f22d63d" d="M 0 0 
L 0 4.8 
" style="stroke: #000000"/>
      </defs>
      <g>
       <use xlink:href="#mda4f22d63d" x="42.260456" y="146.747947" style="stroke: #000000"/>
      </g>
     </g>
     <g id="text_1">
      <text style="font: 8.8px 'DejaVu Sans', 'Bitstream Vera Sans', 'Computer Modern Sans Serif', 'Lucida Grande', 'Verdana', 'Geneva', 'Lucid', 'Arial', 'Helvetica', 'Avant Garde', sans-serif; text-anchor: middle" x="42.260456" y="161.734572" transform="rotate(-0 42.260456 161.734572)">1000</text>
     </g>
    </g>
    <g id="xtick_2">
     <g id="line2d_3">
      <path d="M 72.600028 146.747947 
L 72.600028 12.07875 
" clip-path="url(#pf799fdaeda)" style="fill: none; stroke: #b0b0b0; stroke-width: 0.6; stroke-linecap: square"/>
     </g>
     <g id="line2d_4">
      <g>
       <use xlink:href="#mda4f22d63d" x="72.600028" y="146.747947" style="stroke: #000000"/>
      </g>
     </g>
     <g id="text_2">
      <text style="font: 8.8px 'DejaVu Sans', 'Bitstream Vera Sans', 'Computer Modern Sans Serif', 'Lucida Grande', 'Verdana', 'Geneva', 'Lucid', 'Arial', 'Helvetica', 'Avant Garde', sans-serif; text-anchor: middle" x="72.600028" y="161.734572" transform="rotate(-0 72.600028 161.734572)">1500</text>
     </g>
    </g>
    <g id="xtick_3">
     <g id="line2d_5">
      <path d="M 102.9396 146.747947 
L 102.9396 12.07875 
" clip-path="url(#pf799fdaeda)" style="fill: none; stroke: #b0b0b0; stroke-width: 0.6; stroke-linecap: square"/>
     </g>
     <g id="line2d_6">
      <g>
       <use xlink:href="#mda4f22d63d" x="102.9396" y="146.747947" style="stroke: #000000"/>
      </g>
     </g>
     <g id="text_3">
      <text style="font: 8.8px 'DejaVu Sans', 'Bitstream Vera Sans', 'Computer Modern Sans Serif', 'Lucida Grande', 'Verdana', 'Geneva', 'Lucid', 'Arial', 'Helvetica', 'Avant Garde', sans-serif; text-anchor: middle" x="102.9396" y="161.734572" transform="rotate(-0 102.9396 161.734572)">2000</text>
     </g>
    </g>
    <g id="xtick_4">
     <g id="line2d_7">
      <path d="M 133.279173 146.747947 
L 133.279173 12.07875 
" clip-path="url(#pf799fdaeda)" style="fill: none; stroke: #b0b0b0; stroke-width: 0.6; stroke-linecap: square"/>
     </g>
     <g id="line2d_8">
      <g>
       <use xlink:href="#mda4f22d63d" x="133.279173" y="146.747947" style="stroke: #000000"/>
      </g>
     </g>
     <g id="text_4">
      <text style="font: 8.8px 'DejaVu Sans', 'Bitstream Vera Sans', 'Computer Modern Sans Serif', 'Lucida Grande', 'Verdana', 'Geneva', 'Lucid', 'Arial', 'Helvetica', 'Avant Garde', sans-serif; text-anchor: middle" x="133.279173" y="161.734572" transform="rotate(-0 133.279173 161.734572)">2500</text>
     </g>
    </g>
    <g id="xtick_5">
     <g id="line2d_9">
      <path d="M 163.618745 146.747947 
L 163.618745 12.07875 
" clip-path="url(#pf799fdaeda)" style="fill: none; stroke: #b0b0b0; stroke-width: 0.6; stroke-linecap: square"/>
     </g>
     <g id="line2d_10">
      <g>
       <use xlink:href="#mda4f22d63d" x="163.618745" y="146.747947" style="stroke: #000000"/>
      </g>
     </g>
     <g id="text_5">
      <text style="font: 8.8px 'DejaVu Sans', 'Bitstream Vera Sans', 'Computer Modern Sans Serif', 'Lucida Grande', 'Verdana', 'Geneva', 'Lucid', 'Arial', 'Helvetica', 'Avant Garde', sans-serif; text-anchor: middle" x="163.618745" y="161.734572" transform="rotate(-0 163.618745 161.734572)">3000</text>
     </g>
    </g>
    <g id="xtick_6">
     <g id="line2d_11">
      <path d="M 36.192541 146.747947 
L 36.192541 12.07875 
" clip-path="url(#pf799fdaeda)" style="fill: none; stroke: #b0b0b0; stroke-width: 0.3; stroke-linecap: square"/>
     </g>
     <g id="line2d_12">
      <defs>
       <path id="m9b5f2a2208" d="M 0 0 
L 0 3.2 
" style="stroke: #000000; stroke-width: 0.8"/>
      </defs>
      <g>
       <use xlink:href="#m9b5f2a2208" x="36.192541" y="146.747947" style="stroke: #000000; stroke-width: 0.8"/>
      </g>
     </g>
    </g>
    <g id="xtick_7">
     <g id="line2d_13">
      <path d="M 48.32837 146.747947 
L 48.32837 12.07875 
" clip-path="url(#pf799fdaeda)" style="fill: none; stroke: #b0b0b0; stroke-width: 0.3; stroke-linecap: square"/>
     </g>
     <g id="line2d_14">
      <g>
       <use xlink:href="#m9b5f2a2208" x="48.32837" y="146.747947" style="stroke: #000000; stroke-width: 0.8"/>
      </g>
     </g>
    </g>
    <g id="xtick_8">
     <g id="line2d_15">
      <path d="M 54.396285 146.747947 
L 54.396285 12.07875 
" clip-path="url(#pf799fdaeda)" style="fill: none; stroke: #b0b0b0; stroke-width: 0.3; stroke-linecap: square"/>
     </g>
     <g id="line2d_16">
      <g>
       <use xlink:href="#m9b5f2a2208" x="54.396285" y="146.747947" style="stroke: #000000; stroke-width: 0.8"/>
      </g>
     </g>
    </g>
    <g id="xtick_9">
     <g id="line2d_17">
      <path d="M 60.464199 146.747947 
L 60.464199 12.07875 
" clip-path="url(#pf799fdaeda)" style="fill: none; stroke: #b0b0b0; stroke-width: 0.3; stroke-linecap: square"/>
     </g>
     <g id="line2d_18">
      <g>
       <use xlink:href="#m9b5f2a2208" x="60.464199" y="146.747947" style="stroke: #000000; stroke-width: 0.8"/>
      </g>
     </g>
    </g>
    <g id="xtick_10">
     <g id="line2d_19">
      <path d="M 66.532114 146.747947 
L 66.532114 12.07875 
" clip-path="url(#pf799fdaeda)" style="fill: none; stroke: #b0b0b0; stroke-width: 0.3; stroke-linecap: square"/>
     </g>
     <g id="line2d_20">
      <g>
       <use xlink:href="#m9b5f2a2208" x="66.532114" y="146.747947" style="stroke: #000000; stroke-width: 0.8"/>
      </g>
     </g>
    </g>
    <g id="xtick_11">
     <g id="line2d_21">
      <path d="M 78.667943 146.747947 
L 78.667943 12.07875 
" clip-path="url(#pf799fdaeda)" style="fill: none; stroke: #b0b0b0; stroke-width: 0.3; stroke-linecap: square"/>
     </g>
     <g id="line2d_22">
      <g>
       <use xlink:href="#m9b5f2a2208" x="78.667943" y="146.747947" style="stroke: #000000; stroke-width: 0.8"/>
      </g>
     </g>
    </g>
    <g id="xtick_12">
     <g id="line2d_23">
      <path d="M 84.735857 146.747947 
L 84.735857 12.07875 
" clip-path="url(#pf799fdaeda)" style="fill: none; stroke: #b0b0b0; stroke-width: 0.3; stroke-linecap: square"/>
     </g>
     <g id="line2d_24">
      <g>
       <use xlink:href="#m9b5f2a2208" x="84.735857" y="146.747947" style="stroke: #000000; stroke-width: 0.8"/>
      </g>
     </g>
    </g>
    <g id="xtick_13">
     <g id="line2d_25">
      <path d="M 90.803771 146.747947 
L 90.803771 12.07875 
" clip-path="url(#pf799fdaeda)" style="fill: none; stroke: #b0b0b0; stroke-width: 0.3; stroke-linecap: square"/>
     </g>
     <g id="line2d_26">
      <g>
       <use xlink:href="#m9b5f2a2208" x="90.803771" y="146.747947" style="stroke: #000000; stroke-width: 0.8"/>
      </g>
     </g>
    </g>
    <g id="xtick_14">
     <g id="line2d_27">
      <path d="M 96.871686 146.747947 
L 96.871686 12.07875 
" clip-path="url(#pf799fdaeda)" style="fill: none; stroke: #b0b0b0; stroke-width: 0.3; stroke-linecap: square"/>
     </g>
     <g id="line2d_28">
      <g>
       <use xlink:href="#m9b5f2a2208" x="96.871686" y="146.747947" style="stroke: #000000; stroke-width: 0.8"/>
      </g>
     </g>
    </g>
    <g id="xtick_15">
     <g id="line2d_29">
      <path d="M 109.007515 146.747947 
L 109.007515 12.07875 
" clip-path="url(#pf799fdaeda)" style="fill: none; stroke: #b0b0b0; stroke-width: 0.3; stroke-linecap: square"/>
     </g>
     <g id="line2d_30">
      <g>
       <use xlink:href="#m9b5f2a2208" x="109.007515" y="146.747947" style="stroke: #000000; stroke-width: 0.8"/>
      </g>
     </g>
    </g>
    <g id="xtick_16">
     <g id="line2d_31">
      <path d="M 115.075429 146.747947 
L 115.075429 12.07875 
" clip-path="url(#pf799fdaeda)" style="fill: none; stroke: #b0b0b0; stroke-width: 0.3; stroke-linecap: square"/>
     </g>
     <g id="line2d_32">
      <g>
       <use xlink:href="#m9b5f2a2208" x="115.075429" y="146.747947" style="stroke: #000000; stroke-width: 0.8"/>
      </g>
     </g>
    </g>
    <g id="xtick_17">
     <g id="line2d_33">
      <path d="M 121.143344 146.747947 
L 121.143344 12.07875 
" clip-path="url(#pf799fdaeda)" style="fill: none; stroke: #b0b0b0; stroke-width: 0.3; stroke-linecap: square"/>
     </g>
     <g id="line2d_34">
      <g>
       <use xlink:href="#m9b5f2a2208" x="121.143344" y="146.747947" style="stroke: #000000; stroke-width: 0.8"/>
      </g>
     </g>
    </g>
    <g id="xtick_18">
     <g id="line2d_35">
      <path d="M 127.211258 146.747947 
L 127.211258 12.07875 
" clip-path="url(#pf799fdaeda)" style="fill: none; stroke: #b0b0b0; stroke-width: 0.3; stroke-linecap: square"/>
     </g>
     <g id="line2d_36">
      <g>
       <use xlink:href="#m9b5f2a2208" x="127.211258" y="146.747947" style="stroke: #000000; stroke-width: 0.8"/>
      </g>
     </g>
    </g>
    <g id="xtick_19">
     <g id="line2d_37">
      <path d="M 139.347087 146.747947 
L 139.347087 12.07875 
" clip-path="url(#pf799fdaeda)" style="fill: none; stroke: #b0b0b0; stroke-width: 0.3; stroke-linecap: square"/>
     </g>
     <g id="line2d_38">
      <g>
       <use xlink:href="#m9b5f2a2208" x="139.347087" y="146.747947" style="stroke: #000000; stroke-width: 0.8"/>
      </g>
     </g>
    </g>
    <g id="xtick_20">
     <g id="line2d_39">
      <path d="M 145.415002 146.747947 
L 145.415002 12.07875 
" clip-path="url(#pf799fdaeda)" style="fill: none; stroke: #b0b0b0; stroke-width: 0.3; stroke-linecap: square"/>
     </g>
     <g id="line2d_40">
      <g>
       <use xlink:href="#m9b5f2a2208" x="145.415002" y="146.747947" style="stroke: #000000; stroke-width: 0.8"/>
      </g>
     </g>
    </g>
    <g id="xtick_21">
     <g id="line2d_41">
      <path d="M 151.482916 146.747947 
L 151.482916 12.07875 
" clip-path="url(#pf799fdaeda)" style="fill: none; stroke: #b0b0b0; stroke-width: 0.3; stroke-linecap: square"/>
     </g>
     <g id="line2d_42">
      <g>
       <use xlink:href="#m9b5f2a2208" x="151.482916" y="146.747947" style="stroke: #000000; stroke-width: 0.8"/>
      </g>
     </g>
    </g>
    <g id="xtick_22">
     <g id="line2d_43">
      <path d="M 157.55083 146.747947 
L 157.55083 12.07875 
" clip-path="url(#pf799fdaeda)" style="fill: none; stroke: #b0b0b0; stroke-width: 0.3; stroke-linecap: square"/>
     </g>
     <g id="line2d_44">
      <g>
       <use xlink:href="#m9b5f2a2208" x="157.55083" y="146.747947" style="stroke: #000000; stroke-width: 0.8"/>
      </g>
     </g>
    </g>
    <g id="xtick_23">
     <g id="line2d_45">
      <path d="M 169.686659 146.747947 
L 169.686659 12.07875 
" clip-path="url(#pf799fdaeda)" style="fill: none; stroke: #b0b0b0; stroke-width: 0.3; stroke-linecap: square"/>
     </g>
     <g id="line2d_46">
      <g>
       <use xlink:href="#m9b5f2a2208" x="169.686659" y="146.747947" style="stroke: #000000; stroke-width: 0.8"/>
      </g>
     </g>
    </g>
    <g id="text_6">
     <text style="font: 9.6px 'DejaVu Sans', 'Bitstream Vera Sans', 'Computer Modern Sans Serif', 'Lucida Grande', 'Verdana', 'Geneva', 'Lucid', 'Arial', 'Helvetica', 'Avant Garde', sans-serif; text-anchor: middle" x="102.9396" y="174.859197" transform="rotate(-0 102.9396 174.859197)">Wavelength (nm)</text>
    </g>
   </g>
   <g id="matplotlib.axis_2">
    <g id="ytick_1">
     <g id="line2d_47">
      <path d="M 35.58575 127.158161 
L 170.293451 127.158161 
" clip-path="url(#pf799fdaeda)" style="fill: none; stroke: #b0b0b0; stroke-width: 0.6; stroke-linecap: square"/>
     </g>
     <g id="line2d_48">
      <defs>
       <path id="m0565b51d17" d="M 0 0 
L -4.8 0 
" style="stroke: #000000"/>
      </defs>
      <g>
       <use xlink:href="#m0565b51d17" x="35.58575" y="127.158161" style="stroke: #000000"/>
      </g>
     </g>
     <g id="text_7">
      <text style="font: 8.8px 'DejaVu Sans', 'Bitstream Vera Sans', 'Computer Modern Sans Serif', 'Lucida Grande', 'Verdana', 'Geneva', 'Lucid', 'Arial', 'Helvetica', 'Avant Garde', sans-serif; text-anchor: end" x="27.28575" y="130.501474" transform="rotate(-0 27.28575 130.501474)">0.1</text>
     </g>
    </g>
    <g id="ytick_2">
     <g id="line2d_49">
      <path d="M 35.58575 107.067315 
L 170.293451 107.067315 
" clip-path="url(#pf799fdaeda)" style="fill: none; stroke: #b0b0b0; stroke-width: 0.6; stroke-linecap: square"/>
     </g>
     <g id="line2d_50">
      <g>
       <use xlink:href="#m0565b51d17" x="35.58575" y="107.067315" style="stroke: #000000"/>
      </g>
     </g>
     <g id="text_8">
      <text style="font: 8.8px 'DejaVu Sans', 'Bitstream Vera Sans', 'Computer Modern Sans Serif', 'Lucida Grande', 'Verdana', 'Geneva', 'Lucid', 'Arial', 'Helvetica', 'Avant Garde', sans-serif; text-anchor: end" x="27.28575" y="110.410628" transform="rotate(-0 27.28575 110.410628)">0.2</text>
     </g>
    </g>
    <g id="ytick_3">
     <g id="line2d_51">
      <path d="M 35.58575 86.976469 
L 170.293451 86.976469 
" clip-path="url(#pf799fdaeda)" style="fill: none; stroke: #b0b0b0; stroke-width: 0.6; stroke-linecap: square"/>
     </g>
     <g id="line2d_52">
      <g>
       <use xlink:href="#m0565b51d17" x="35.58575" y="86.976469" style="stroke: #000000"/>
      </g>
     </g>
     <g id="text_9">
      <text style="font: 8.8px 'DejaVu Sans', 'Bitstream Vera Sans', 'Computer Modern Sans Serif', 'Lucida Grande', 'Verdana', 'Geneva', 'Lucid', 'Arial', 'Helvetica', 'Avant Garde', sans-serif; text-anchor: end" x="27.28575" y="90.319782" transform="rotate(-0 27.28575 90.319782)">0.3</text>
     </g>
    </g>
    <g id="ytick_4">
     <g id="line2d_53">
      <path d="M 35.58575 66.885623 
L 170.293451 66.885623 
" clip-path="url(#pf799fdaeda)" style="fill: none; stroke: #b0b0b0; stroke-width: 0.6; stroke-linecap: square"/>
     </g>
     <g id="line2d_54">
      <g>
       <use xlink:href="#m0565b51d17" x="35.58575" y="66.885623" style="stroke: #000000"/>
      </g>
     </g>
     <g id="text_10">
      <text style="font: 8.8px 'DejaVu Sans', 'Bitstream Vera Sans', 'Computer Modern Sans Serif', 'Lucida Grande', 'Verdana', 'Geneva', 'Lucid', 'Arial', 'Helvetica', 'Avant Garde', sans-serif; text-anchor: end" x="27.28575" y="70.228936" transform="rotate(-0 27.28575 70.228936)">0.4</text>
     </g>
    </g>
    <g id="ytick_5">
     <g id="line2d_55">
      <path d="M 35.58575 46.794777 
L 170.293451 46.794777 
" clip-path="url(#pf799fdaeda)" style="fill: none; stroke: #b0b0b0; stroke-width: 0.6; stroke-linecap: square"/>
     </g>
     <g id="line2d_56">
      <g>
       <use xlink:href="#m0565b51d17" x="35.58575" y="46.794777" style="stroke: #000000"/>
      </g>
     </g>
     <g id="text_11">
      <text style="font: 8.8px 'DejaVu Sans', 'Bitstream Vera Sans', 'Computer Modern Sans Serif', 'Lucida Grande', 'Verdana', 'Geneva', 'Lucid', 'Arial', 'Helvetica', 'Avant Garde', sans-serif; text-anchor: end" x="27.28575" y="50.13809" transform="rotate(-0 27.28575 50.13809)">0.5</text>
     </g>
    </g>
    <g id="ytick_6">
     <g id="line2d_57">
      <path d="M 35.58575 26.703932 
L 170.293451 26.703932 
" clip-path="url(#pf799fdaeda)" style="fill: none; stroke: #b0b0b0; stroke-width: 0.6; stroke-linecap: square"/>
     </g>
     <g id="line2d_58">
      <g>
       <use xlink:href="#m0565b51d17" x="35.58575" y="26.703932" style="stroke: #000000"/>
      </g>
     </g>
     <g id="text_12">
      <text style="font: 8.8px 'DejaVu Sans', 'Bitstream Vera Sans', 'Computer Modern Sans Serif', 'Lucida Grande', 'Verdana', 'Geneva', 'Lucid', 'Arial', 'Helvetica', 'Avant Garde', sans-serif; text-anchor: end" x="27.28575" y="30.047244" transform="rotate(-0 27.28575 30.047244)">0.6</text>
     </g>
    </g>
    <g id="text_13">
     <text style="font: 9.6px 'DejaVu Sans', 'Bitstream Vera Sans', 'Computer Modern Sans Serif', 'Lucida Grande', 'Verdana', 'Geneva', 'Lucid', 'Arial', 'Helvetica', 'Avant Garde', sans-serif; text-anchor: middle" x="7.2945" y="79.413348" transform="rotate(-90 7.2945 79.413348)">Reflectance</text>
    </g>
   </g>
   <g id="line2d_59">
    <path d="M 36.74417 30.782723 
L 37.297178 30.740032 
L 37.855729 30.464798 
L 38.41988 30.128052 
L 38.989687 30.10422 
L 39.565206 29.994745 
L 40.43932 29.912547 
L 40.73361 29.790692 
L 41.326612 29.359014 
L 44.069554 28.791099 
L 44.695998 28.526503 
L 45.967791 28.376608 
L 46.938425 27.734993 
L 48.923811 27.252658 
L 49.939008 27.111221 
L 50.280796 26.950412 
L 51.665125 26.742483 
L 52.367716 26.342001 
L 53.077349 26.170462 
L 53.794097 25.700098 
L 54.51803 24.915142 
L 54.882714 24.471067 
L 55.249221 24.203785 
L 56.359774 23.993403 
L 57.109428 23.655452 
L 59.403784 23.465719 
L 60.576967 23.656981 
L 61.368899 23.641581 
L 62.16877 23.755217 
L 62.976659 23.772548 
L 63.792647 24.086926 
L 64.203704 24.59615 
L 65.031993 26.225607 
L 65.449247 27.697223 
L 66.290023 32.286159 
L 67.139228 37.00078 
L 67.567017 37.05396 
L 68.429024 32.945335 
L 68.863262 31.029654 
L 69.299672 29.696095 
L 69.738264 28.931133 
L 70.622037 27.758106 
L 71.964338 25.282425 
L 72.870427 24.087634 
L 73.785601 23.162755 
L 75.175592 22.078569 
L 76.586537 21.437448 
L 77.061564 21.10985 
L 79.47256 20.113981 
L 80.948282 19.963855 
L 82.446252 19.516746 
L 83.457423 19.243339 
L 84.993218 19.236929 
L 86.029922 19.398519 
L 87.07702 19.851079 
L 88.667381 20.554497 
L 91.920389 22.16091 
L 92.472084 22.596021 
L 93.026538 23.275993 
L 93.583764 24.274354 
L 94.143776 25.654951 
L 94.706589 27.976339 
L 95.272215 32.060015 
L 95.84067 38.650458 
L 96.98612 54.78958 
L 97.563144 56.340546 
L 98.143053 53.03653 
L 98.725862 48.973845 
L 99.311584 46.034722 
L 99.900236 44.110792 
L 101.683908 39.388375 
L 103.49447 33.874867 
L 104.104036 32.287708 
L 104.716649 31.005268 
L 105.332326 30.051389 
L 105.951081 29.352969 
L 106.57293 28.851146 
L 107.197888 28.510246 
L 108.457194 28.356919 
L 110.369864 28.261531 
L 111.013807 28.443007 
L 111.660969 28.900669 
L 112.311368 29.825664 
L 112.965018 31.456503 
L 113.621936 33.933047 
L 114.945644 40.110325 
L 115.612465 41.581786 
L 116.282621 40.417992 
L 117.633002 36.668655 
L 118.31326 35.121021 
L 118.99692 34.229908 
L 119.683998 34.189861 
L 120.374511 34.843124 
L 121.765913 37.174766 
L 123.171264 40.307497 
L 127.472414 52.115783 
L 130.412193 60.558544 
L 131.904222 63.713339 
L 134.933304 69.247233 
L 135.700064 70.277148 
L 137.245105 71.703626 
L 138.805634 73.227112 
L 139.591756 74.302655 
L 140.381808 75.653014 
L 141.175811 77.330728 
L 141.973783 79.508814 
L 142.775745 82.608324 
L 143.581718 87.601328 
L 144.39172 96.076716 
L 145.205772 107.429759 
L 146.023894 116.870101 
L 146.846107 123.753472 
L 147.672431 128.644243 
L 148.502886 130.99798 
L 149.337494 131.017203 
L 150.176275 129.079822 
L 151.01925 125.542117 
L 152.717865 116.494879 
L 153.573548 112.951499 
L 154.433509 110.464835 
L 155.29777 108.756363 
L 157.039278 106.36903 
L 158.798244 104.416038 
L 164.181653 99.11636 
L 166.934376 96.768849 
L 166.934376 96.768849 
" clip-path="url(#pf799fdaeda)" style="fill: none; stroke: #1f77b4; stroke-width: 0.5; stroke-linecap: square"/>
   </g>
   <g id="line2d_60"/>
   <g id="line2d_61">
    <path d="M 36.192541 30.736366 
L 36.617295 30.8418 
L 36.860012 30.974122 
L 37.224087 30.898986 
L 37.527483 30.876362 
L 37.891557 30.564388 
L 38.073595 30.265796 
L 38.316312 29.629163 
L 38.619707 30.416524 
L 38.680386 30.380561 
L 39.529894 29.996822 
L 39.954648 30.054082 
L 40.197365 29.993167 
L 40.622119 30.128979 
L 40.743477 30.13123 
L 41.168231 29.283035 
L 41.532306 29.136575 
L 41.653664 29.1287 
L 41.95706 29.741465 
L 42.503172 28.689311 
L 42.563852 28.607341 
L 42.867247 29.327798 
L 42.927926 29.248197 
L 43.170643 28.929794 
L 43.231322 29.023339 
L 43.474039 29.397517 
L 43.777435 28.785339 
L 43.838114 28.835486 
L 44.08083 29.036073 
L 44.384226 28.365648 
L 44.444905 28.404503 
L 44.748301 28.479879 
L 44.991017 28.159713 
L 45.294413 28.856866 
L 45.355092 28.815317 
L 45.658488 28.675523 
L 45.901205 28.781124 
L 46.386638 27.997539 
L 46.690033 27.89556 
L 46.811392 27.888489 
L 47.114787 27.106756 
L 47.418183 28.008025 
L 47.478862 27.87193 
L 47.842937 27.262859 
L 48.085654 27.21504 
L 48.389049 27.361622 
L 48.753124 27.178317 
L 49.481274 27.381117 
L 49.663312 27.406754 
L 49.906028 27.248194 
L 50.330782 26.695815 
L 50.51282 26.695374 
L 50.816215 26.996777 
L 51.058932 26.860645 
L 51.362328 27.603602 
L 51.787082 26.614166 
L 51.969119 26.559675 
L 52.272515 25.817124 
L 52.57591 26.596247 
L 52.63659 26.565828 
L 53.000664 26.297007 
L 53.243381 26.120772 
L 53.486098 26.298702 
L 53.910852 25.614724 
L 54.153568 25.443835 
L 54.76036 24.266148 
L 55.063755 23.672187 
L 55.609868 23.790762 
L 56.15598 24.169148 
L 56.216659 24.22693 
L 56.823451 23.213347 
L 57.733638 23.445604 
L 58.340429 22.767934 
L 58.643825 23.789552 
L 58.704504 23.626816 
L 59.0079 22.98692 
L 59.554012 23.197073 
L 59.918087 23.351935 
L 60.160804 23.177386 
L 60.524878 23.671943 
L 60.767595 23.557499 
L 61.070991 22.774161 
L 61.374386 23.541429 
L 61.435066 23.483287 
L 61.677782 23.250722 
L 61.981178 23.766656 
L 62.041857 23.655352 
L 62.284574 23.210138 
L 62.345253 23.24819 
L 62.648648 23.350613 
L 63.134082 23.070138 
L 63.25544 23.133946 
L 63.498156 23.470512 
L 63.801552 22.838252 
L 63.862231 22.901579 
L 64.104948 23.154885 
L 64.529702 24.572732 
L 65.075814 25.027957 
L 65.318531 24.782047 
L 65.743285 29.042707 
L 66.10736 31.153085 
L 66.471435 34.51766 
L 67.320943 42.567745 
L 67.442301 42.7304 
L 67.806376 39.819151 
L 68.23113 34.827987 
L 68.959279 29.96207 
L 69.566071 28.383731 
L 69.930146 28.806923 
L 70.233542 28.604846 
L 70.597616 28.16172 
L 70.779654 28.089395 
L 71.265087 26.18177 
L 71.932558 24.980493 
L 72.539349 24.161716 
L 72.842745 23.857461 
L 72.964103 23.607409 
L 73.20682 22.874812 
L 73.267499 22.937858 
L 73.510215 23.190044 
L 73.570894 23.112695 
L 74.359723 22.251437 
L 74.723798 22.12322 
L 75.33059 21.111242 
L 75.633985 21.79272 
L 75.694665 21.738315 
L 76.301456 21.285671 
L 76.544173 21.474686 
L 77.150964 20.091636 
L 77.45436 20.95674 
L 77.515039 20.796858 
L 77.757755 20.157332 
L 77.818435 20.248223 
L 78.061151 20.611786 
L 78.12183 20.516354 
L 78.667943 19.585342 
L 78.728622 19.639146 
L 78.971338 19.854362 
L 79.032017 19.764796 
L 79.335413 19.426782 
L 80.063563 19.769782 
L 80.2456 19.889241 
L 80.670354 19.746915 
L 80.852392 19.642564 
L 81.095108 19.224509 
L 81.155788 19.317007 
L 81.398504 19.686999 
L 81.459183 19.613146 
L 81.823258 19.312672 
L 82.126654 19.222948 
L 83.09752 18.656419 
L 83.279558 18.646211 
L 83.643632 18.482191 
L 84.311103 18.578267 
L 84.55382 18.513898 
L 85.342648 18.607517 
L 85.646044 18.200077 
L 85.94944 18.946256 
L 86.010119 18.862356 
L 86.313515 18.557013 
L 86.67759 18.844473 
L 87.041665 19.158732 
L 87.284381 19.341961 
L 87.648456 19.623076 
L 87.891173 19.63802 
L 88.437285 19.605956 
L 88.80136 19.95433 
L 89.226114 20.119277 
L 89.529509 20.184534 
L 90.318338 20.363217 
L 90.621734 20.532025 
L 91.107167 20.540869 
L 91.65328 20.913304 
L 91.774638 20.865931 
L 92.017354 20.578232 
L 92.078034 20.667274 
L 92.381429 20.988766 
L 92.745504 20.901659 
L 92.988221 21.122135 
L 93.412975 21.887352 
L 93.959087 22.34554 
L 94.141124 22.23211 
L 95.051312 24.813385 
L 95.90082 36.950866 
L 96.082857 41.352649 
L 96.750328 62.819115 
L 97.114403 70.680343 
L 97.175082 71.737564 
L 97.235761 71.356038 
L 97.539157 68.761946 
L 98.69206 49.988417 
L 99.177493 46.662261 
L 99.844964 44.653854 
L 100.14836 44.086528 
L 101.119226 41.939423 
L 104.274542 30.571261 
L 104.699296 29.620519 
L 105.06337 28.972797 
L 105.609483 28.329405 
L 106.034237 27.864381 
L 106.337632 27.779195 
L 107.24782 26.973869 
L 107.672574 27.140267 
L 107.975969 27.217456 
L 108.522082 27.283715 
L 108.764798 27.362911 
L 109.310911 27.044474 
L 109.674985 27.196675 
L 110.281777 26.637386 
L 110.645852 26.638837 
L 111.009927 26.69067 
L 111.49536 26.71571 
L 111.859435 26.914123 
L 112.344868 27.573461 
L 112.708943 28.175906 
L 113.376413 31.072804 
L 114.529317 39.141371 
L 115.378825 47.177309 
L 115.500183 47.147815 
L 115.682221 47.103573 
L 116.167654 43.211657 
L 116.653087 39.07081 
L 117.927349 34.611204 
L 118.473461 32.385941 
L 118.898215 31.531562 
L 119.140932 31.391568 
L 119.565686 31.261256 
L 119.626365 31.232805 
L 120.111798 32.126165 
L 120.354515 32.490457 
L 120.961306 33.936196 
L 121.325381 34.535062 
L 121.507419 34.815212 
L 123.691868 40.405128 
L 124.784092 44.223154 
L 125.390884 45.689777 
L 125.876317 46.897239 
L 127.332616 51.19407 
L 128.121445 53.735963 
L 130.60929 61.757034 
L 130.912686 62.218077 
L 131.398119 63.225354 
L 131.640836 63.712957 
L 132.004911 64.294788 
L 132.975777 65.641801 
L 133.764606 67.657352 
L 134.796151 69.665391 
L 135.342264 70.298736 
L 135.827697 70.934209 
L 136.070413 70.918964 
L 136.495167 71.242475 
L 136.677205 71.156042 
L 137.101959 71.252293 
L 137.223317 71.271525 
L 138.012146 71.572406 
L 138.133504 71.58799 
L 138.376221 72.004053 
L 138.4369 71.958085 
L 138.558258 71.837367 
L 138.740296 71.971395 
L 138.861654 71.902604 
L 139.104371 72.505931 
L 139.225729 72.181592 
L 139.589804 72.878908 
L 139.771841 73.132511 
L 139.893199 73.177526 
L 140.378633 73.913981 
L 140.924745 74.59079 
L 141.28882 75.210949 
L 141.349499 75.203574 
L 141.652895 75.801305 
L 142.381044 77.09096 
L 143.291231 79.867264 
L 143.776665 82.642411 
L 144.08006 85.781939 
L 144.383456 90.274543 
L 144.747531 100.274415 
L 145.354322 117.171914 
L 145.718397 122.144783 
L 146.26451 126.040261 
L 146.628584 129.334549 
L 147.538772 137.86202 
L 147.963526 139.577341 
L 148.266921 140.260468 
L 148.630996 140.611723 
L 148.873713 140.460937 
L 149.177109 140.06231 
L 149.480504 139.226551 
L 150.208654 136.275493 
L 150.876125 132.201978 
L 151.725633 125.016407 
L 152.696499 116.89283 
L 153.181932 114.13272 
L 153.910082 111.291897 
L 154.395515 110.051613 
L 155.062986 108.930901 
L 158.036264 105.447877 
L 158.703734 104.792934 
L 159.067809 104.430212 
L 160.584788 102.927395 
L 161.191579 102.276693 
L 162.52652 100.715056 
L 163.193991 100.0394 
L 166.895419 96.551022 
L 167.077456 96.382799 
L 167.380852 96.102034 
L 168.048322 95.484634 
L 168.412397 95.119122 
L 168.594435 94.959107 
L 169.322584 94.005041 
L 169.62598 93.510716 
L 169.62598 93.510716 
" clip-path="url(#pf799fdaeda)" style="fill: none; stroke: #1f77b4; stroke-opacity: 0.5; stroke-width: 0.5; stroke-linecap: square"/>
   </g>
   <g id="patch_3">
    <path d="M 35.58575 146.747947 
L 35.58575 12.07875 
" style="fill: none; stroke: #000000; stroke-linejoin: miter; stroke-linecap: square"/>
   </g>
   <g id="patch_4">
    <path d="M 170.293451 146.747947 
L 170.293451 12.07875 
" style="fill: none; stroke: #000000; stroke-linejoin: miter; stroke-linecap: square"/>
   </g>
   <g id="patch_5">
    <path d="M 35.58575 146.747947 
L 170.293451 146.747947 
" style="fill: none; stroke: #000000; stroke-linejoin: miter; stroke-linecap: square"/>
   </g>
   <g id="patch_6">
    <path d="M 35.58575 12.07875 
L 170.293451 12.07875 
" style="fill: none; stroke: #000000; stroke-linejoin: miter; stroke-linecap: square"/>
   </g>
   <g id="text_14">
    <text style="font: 8px 'DejaVu Sans', 'Bitstream Vera Sans', 'Computer Modern Sans Serif', 'Lucida Grande', 'Verdana', 'Geneva', 'Lucid', 'Arial', 'Helvetica', 'Avant Garde', sans-serif; text-anchor: middle" x="102.9396" y="6.07875" transform="rotate(-0 102.9396 6.07875)">enfys Phyllosilicate Montmorillonite</text>
   </g>
   <g id="legend_1">
    <g id="patch_7">
     <path d="M 177.187605 84.716786 
L 270.582292 84.716786 
Q 271.782292 84.716786 271.782292 83.516786 
L 271.782292 75.309911 
Q 271.782292 74.109911 270.582292 74.109911 
L 177.187605 74.109911 
Q 175.987605 74.109911 175.987605 75.309911 
L 175.987605 83.516786 
Q 175.987605 84.716786 177.187605 84.716786 
z
" style="fill: #ffffff; opacity: 0.8; stroke: #cccccc; stroke-width: 0.8; stroke-linejoin: miter"/>
    </g>
    <g id="line2d_62">
     <path d="M 178.387605 78.968973 
L 184.387605 78.968973 
L 190.387605 78.968973 
" style="fill: none; stroke: #1f77b4; stroke-width: 1.2; stroke-linecap: square"/>
    </g>
    <g id="text_15">
     <text style="font: 6px 'DejaVu Sans', 'Bitstream Vera Sans', 'Computer Modern Sans Serif', 'Lucida Grande', 'Verdana', 'Geneva', 'Lucid', 'Arial', 'Helvetica', 'Avant Garde', sans-serif; text-anchor: start" x="195.187605" y="81.068973" transform="rotate(-0 195.187605 81.068973)">Montmorillonite LAMO02</text>
    </g>
   </g>
  </g>
 </g>
 <defs>
  <clipPath id="pf799fdaeda">
   <rect x="35.58575" y="12.07875" width="134.707701" height="134.669197"/>
  </clipPath>
 </defs>
</svg>
