<?xml version="1.0" encoding="utf-8" standalone="no"?>
<!DOCTYPE svg PUBLIC "-//W3C//DTD SVG 1.1//EN"
  "http://www.w3.org/Graphics/SVG/1.1/DTD/svg11.dtd">
<svg xmlns:xlink="http://www.w3.org/1999/xlink" width="272.042567pt" height="176.645947pt" viewBox="0 0 272.042567 176.645947" xmlns="http://www.w3.org/2000/svg" version="1.1">
 <metadata>
  <rdf:RDF xmlns:dc="http://purl.org/dc/elements/1.1/" xmlns:cc="http://creativecommons.org/ns#" xmlns:rdf="http://www.w3.org/1999/02/22-rdf-syntax-ns#">
   <cc:Work>
    <dc:type rdf:resource="http://purl.org/dc/dcmitype/StillImage"/>
    <dc:date>2025-02-12T16:36:02.002866</dc:date>
    <dc:format>image/svg+xml</dc:format>
    <dc:creator>
     <cc:Agent>
      <dc:title>Matplotlib v3.6.2, https://matplotlib.org/</dc:title>
     </cc:Agent>
    </dc:creator>
   </cc:Work>
  </rdf:RDF>
 </metadata>
 <defs>
  <style type="text/css">*{stroke-linejoin: round; stroke-linecap: butt}</style>
 </defs>
 <g id="figure_1">
  <g id="patch_1">
   <path d="M 0 176.645947 
L 272.042567 176.645947 
L 272.042567 0 
L 0 0 
z
" style="fill: #ffffff"/>
  </g>
  <g id="axes_1">
   <g id="patch_2">
    <path d="M 41.18475 146.538197 
L 185.612451 146.538197 
L 185.612451 21.037 
L 41.18475 21.037 
z
" style="fill: #ffffff"/>
   </g>
   <g id="matplotlib.axis_1">
    <g id="xtick_1">
     <g id="line2d_1">
      <path d="M 48.341078 146.538197 
L 48.341078 21.037 
" clip-path="url(#pd08d869019)" style="fill: none; stroke: #b0b0b0; stroke-width: 0.6; stroke-linecap: square"/>
     </g>
     <g id="line2d_2">
      <defs>
       <path id="mc9d9e0d4b3" d="M 0 0 
L 0 4.8 
" style="stroke: #000000"/>
      </defs>
      <g>
       <use xlink:href="#mc9d9e0d4b3" x="48.341078" y="146.538197" style="stroke: #000000"/>
      </g>
     </g>
     <g id="text_1">
      <text style="font: 8.8px 'DejaVu Sans', 'Bitstream Vera Sans', 'Computer Modern Sans Serif', 'Lucida Grande', 'Verdana', 'Geneva', 'Lucid', 'Arial', 'Helvetica', 'Avant Garde', sans-serif; text-anchor: middle" x="48.341078" y="161.524822" transform="rotate(-0 48.341078 161.524822)">1000</text>
     </g>
    </g>
    <g id="xtick_2">
     <g id="line2d_3">
      <path d="M 80.869839 146.538197 
L 80.869839 21.037 
" clip-path="url(#pd08d869019)" style="fill: none; stroke: #b0b0b0; stroke-width: 0.6; stroke-linecap: square"/>
     </g>
     <g id="line2d_4">
      <g>
       <use xlink:href="#mc9d9e0d4b3" x="80.869839" y="146.538197" style="stroke: #000000"/>
      </g>
     </g>
     <g id="text_2">
      <text style="font: 8.8px 'DejaVu Sans', 'Bitstream Vera Sans', 'Computer Modern Sans Serif', 'Lucida Grande', 'Verdana', 'Geneva', 'Lucid', 'Arial', 'Helvetica', 'Avant Garde', sans-serif; text-anchor: middle" x="80.869839" y="161.524822" transform="rotate(-0 80.869839 161.524822)">1500</text>
     </g>
    </g>
    <g id="xtick_3">
     <g id="line2d_5">
      <path d="M 113.3986 146.538197 
L 113.3986 21.037 
" clip-path="url(#pd08d869019)" style="fill: none; stroke: #b0b0b0; stroke-width: 0.6; stroke-linecap: square"/>
     </g>
     <g id="line2d_6">
      <g>
       <use xlink:href="#mc9d9e0d4b3" x="113.3986" y="146.538197" style="stroke: #000000"/>
      </g>
     </g>
     <g id="text_3">
      <text style="font: 8.8px 'DejaVu Sans', 'Bitstream Vera Sans', 'Computer Modern Sans Serif', 'Lucida Grande', 'Verdana', 'Geneva', 'Lucid', 'Arial', 'Helvetica', 'Avant Garde', sans-serif; text-anchor: middle" x="113.3986" y="161.524822" transform="rotate(-0 113.3986 161.524822)">2000</text>
     </g>
    </g>
    <g id="xtick_4">
     <g id="line2d_7">
      <path d="M 145.927362 146.538197 
L 145.927362 21.037 
" clip-path="url(#pd08d869019)" style="fill: none; stroke: #b0b0b0; stroke-width: 0.6; stroke-linecap: square"/>
     </g>
     <g id="line2d_8">
      <g>
       <use xlink:href="#mc9d9e0d4b3" x="145.927362" y="146.538197" style="stroke: #000000"/>
      </g>
     </g>
     <g id="text_4">
      <text style="font: 8.8px 'DejaVu Sans', 'Bitstream Vera Sans', 'Computer Modern Sans Serif', 'Lucida Grande', 'Verdana', 'Geneva', 'Lucid', 'Arial', 'Helvetica', 'Avant Garde', sans-serif; text-anchor: middle" x="145.927362" y="161.524822" transform="rotate(-0 145.927362 161.524822)">2500</text>
     </g>
    </g>
    <g id="xtick_5">
     <g id="line2d_9">
      <path d="M 178.456123 146.538197 
L 178.456123 21.037 
" clip-path="url(#pd08d869019)" style="fill: none; stroke: #b0b0b0; stroke-width: 0.6; stroke-linecap: square"/>
     </g>
     <g id="line2d_10">
      <g>
       <use xlink:href="#mc9d9e0d4b3" x="178.456123" y="146.538197" style="stroke: #000000"/>
      </g>
     </g>
     <g id="text_5">
      <text style="font: 8.8px 'DejaVu Sans', 'Bitstream Vera Sans', 'Computer Modern Sans Serif', 'Lucida Grande', 'Verdana', 'Geneva', 'Lucid', 'Arial', 'Helvetica', 'Avant Garde', sans-serif; text-anchor: middle" x="178.456123" y="161.524822" transform="rotate(-0 178.456123 161.524822)">3000</text>
     </g>
    </g>
    <g id="xtick_6">
     <g id="line2d_11">
      <path d="M 41.835325 146.538197 
L 41.835325 21.037 
" clip-path="url(#pd08d869019)" style="fill: none; stroke: #b0b0b0; stroke-width: 0.3; stroke-linecap: square"/>
     </g>
     <g id="line2d_12">
      <defs>
       <path id="me62b7a7ac3" d="M 0 0 
L 0 3.2 
" style="stroke: #000000; stroke-width: 0.8"/>
      </defs>
      <g>
       <use xlink:href="#me62b7a7ac3" x="41.835325" y="146.538197" style="stroke: #000000; stroke-width: 0.8"/>
      </g>
     </g>
    </g>
    <g id="xtick_7">
     <g id="line2d_13">
      <path d="M 54.84683 146.538197 
L 54.84683 21.037 
" clip-path="url(#pd08d869019)" style="fill: none; stroke: #b0b0b0; stroke-width: 0.3; stroke-linecap: square"/>
     </g>
     <g id="line2d_14">
      <g>
       <use xlink:href="#me62b7a7ac3" x="54.84683" y="146.538197" style="stroke: #000000; stroke-width: 0.8"/>
      </g>
     </g>
    </g>
    <g id="xtick_8">
     <g id="line2d_15">
      <path d="M 61.352582 146.538197 
L 61.352582 21.037 
" clip-path="url(#pd08d869019)" style="fill: none; stroke: #b0b0b0; stroke-width: 0.3; stroke-linecap: square"/>
     </g>
     <g id="line2d_16">
      <g>
       <use xlink:href="#me62b7a7ac3" x="61.352582" y="146.538197" style="stroke: #000000; stroke-width: 0.8"/>
      </g>
     </g>
    </g>
    <g id="xtick_9">
     <g id="line2d_17">
      <path d="M 67.858334 146.538197 
L 67.858334 21.037 
" clip-path="url(#pd08d869019)" style="fill: none; stroke: #b0b0b0; stroke-width: 0.3; stroke-linecap: square"/>
     </g>
     <g id="line2d_18">
      <g>
       <use xlink:href="#me62b7a7ac3" x="67.858334" y="146.538197" style="stroke: #000000; stroke-width: 0.8"/>
      </g>
     </g>
    </g>
    <g id="xtick_10">
     <g id="line2d_19">
      <path d="M 74.364087 146.538197 
L 74.364087 21.037 
" clip-path="url(#pd08d869019)" style="fill: none; stroke: #b0b0b0; stroke-width: 0.3; stroke-linecap: square"/>
     </g>
     <g id="line2d_20">
      <g>
       <use xlink:href="#me62b7a7ac3" x="74.364087" y="146.538197" style="stroke: #000000; stroke-width: 0.8"/>
      </g>
     </g>
    </g>
    <g id="xtick_11">
     <g id="line2d_21">
      <path d="M 87.375591 146.538197 
L 87.375591 21.037 
" clip-path="url(#pd08d869019)" style="fill: none; stroke: #b0b0b0; stroke-width: 0.3; stroke-linecap: square"/>
     </g>
     <g id="line2d_22">
      <g>
       <use xlink:href="#me62b7a7ac3" x="87.375591" y="146.538197" style="stroke: #000000; stroke-width: 0.8"/>
      </g>
     </g>
    </g>
    <g id="xtick_12">
     <g id="line2d_23">
      <path d="M 93.881344 146.538197 
L 93.881344 21.037 
" clip-path="url(#pd08d869019)" style="fill: none; stroke: #b0b0b0; stroke-width: 0.3; stroke-linecap: square"/>
     </g>
     <g id="line2d_24">
      <g>
       <use xlink:href="#me62b7a7ac3" x="93.881344" y="146.538197" style="stroke: #000000; stroke-width: 0.8"/>
      </g>
     </g>
    </g>
    <g id="xtick_13">
     <g id="line2d_25">
      <path d="M 100.387096 146.538197 
L 100.387096 21.037 
" clip-path="url(#pd08d869019)" style="fill: none; stroke: #b0b0b0; stroke-width: 0.3; stroke-linecap: square"/>
     </g>
     <g id="line2d_26">
      <g>
       <use xlink:href="#me62b7a7ac3" x="100.387096" y="146.538197" style="stroke: #000000; stroke-width: 0.8"/>
      </g>
     </g>
    </g>
    <g id="xtick_14">
     <g id="line2d_27">
      <path d="M 106.892848 146.538197 
L 106.892848 21.037 
" clip-path="url(#pd08d869019)" style="fill: none; stroke: #b0b0b0; stroke-width: 0.3; stroke-linecap: square"/>
     </g>
     <g id="line2d_28">
      <g>
       <use xlink:href="#me62b7a7ac3" x="106.892848" y="146.538197" style="stroke: #000000; stroke-width: 0.8"/>
      </g>
     </g>
    </g>
    <g id="xtick_15">
     <g id="line2d_29">
      <path d="M 119.904353 146.538197 
L 119.904353 21.037 
" clip-path="url(#pd08d869019)" style="fill: none; stroke: #b0b0b0; stroke-width: 0.3; stroke-linecap: square"/>
     </g>
     <g id="line2d_30">
      <g>
       <use xlink:href="#me62b7a7ac3" x="119.904353" y="146.538197" style="stroke: #000000; stroke-width: 0.8"/>
      </g>
     </g>
    </g>
    <g id="xtick_16">
     <g id="line2d_31">
      <path d="M 126.410105 146.538197 
L 126.410105 21.037 
" clip-path="url(#pd08d869019)" style="fill: none; stroke: #b0b0b0; stroke-width: 0.3; stroke-linecap: square"/>
     </g>
     <g id="line2d_32">
      <g>
       <use xlink:href="#me62b7a7ac3" x="126.410105" y="146.538197" style="stroke: #000000; stroke-width: 0.8"/>
      </g>
     </g>
    </g>
    <g id="xtick_17">
     <g id="line2d_33">
      <path d="M 132.915857 146.538197 
L 132.915857 21.037 
" clip-path="url(#pd08d869019)" style="fill: none; stroke: #b0b0b0; stroke-width: 0.3; stroke-linecap: square"/>
     </g>
     <g id="line2d_34">
      <g>
       <use xlink:href="#me62b7a7ac3" x="132.915857" y="146.538197" style="stroke: #000000; stroke-width: 0.8"/>
      </g>
     </g>
    </g>
    <g id="xtick_18">
     <g id="line2d_35">
      <path d="M 139.42161 146.538197 
L 139.42161 21.037 
" clip-path="url(#pd08d869019)" style="fill: none; stroke: #b0b0b0; stroke-width: 0.3; stroke-linecap: square"/>
     </g>
     <g id="line2d_36">
      <g>
       <use xlink:href="#me62b7a7ac3" x="139.42161" y="146.538197" style="stroke: #000000; stroke-width: 0.8"/>
      </g>
     </g>
    </g>
    <g id="xtick_19">
     <g id="line2d_37">
      <path d="M 152.433114 146.538197 
L 152.433114 21.037 
" clip-path="url(#pd08d869019)" style="fill: none; stroke: #b0b0b0; stroke-width: 0.3; stroke-linecap: square"/>
     </g>
     <g id="line2d_38">
      <g>
       <use xlink:href="#me62b7a7ac3" x="152.433114" y="146.538197" style="stroke: #000000; stroke-width: 0.8"/>
      </g>
     </g>
    </g>
    <g id="xtick_20">
     <g id="line2d_39">
      <path d="M 158.938866 146.538197 
L 158.938866 21.037 
" clip-path="url(#pd08d869019)" style="fill: none; stroke: #b0b0b0; stroke-width: 0.3; stroke-linecap: square"/>
     </g>
     <g id="line2d_40">
      <g>
       <use xlink:href="#me62b7a7ac3" x="158.938866" y="146.538197" style="stroke: #000000; stroke-width: 0.8"/>
      </g>
     </g>
    </g>
    <g id="xtick_21">
     <g id="line2d_41">
      <path d="M 165.444619 146.538197 
L 165.444619 21.037 
" clip-path="url(#pd08d869019)" style="fill: none; stroke: #b0b0b0; stroke-width: 0.3; stroke-linecap: square"/>
     </g>
     <g id="line2d_42">
      <g>
       <use xlink:href="#me62b7a7ac3" x="165.444619" y="146.538197" style="stroke: #000000; stroke-width: 0.8"/>
      </g>
     </g>
    </g>
    <g id="xtick_22">
     <g id="line2d_43">
      <path d="M 171.950371 146.538197 
L 171.950371 21.037 
" clip-path="url(#pd08d869019)" style="fill: none; stroke: #b0b0b0; stroke-width: 0.3; stroke-linecap: square"/>
     </g>
     <g id="line2d_44">
      <g>
       <use xlink:href="#me62b7a7ac3" x="171.950371" y="146.538197" style="stroke: #000000; stroke-width: 0.8"/>
      </g>
     </g>
    </g>
    <g id="xtick_23">
     <g id="line2d_45">
      <path d="M 184.961876 146.538197 
L 184.961876 21.037 
" clip-path="url(#pd08d869019)" style="fill: none; stroke: #b0b0b0; stroke-width: 0.3; stroke-linecap: square"/>
     </g>
     <g id="line2d_46">
      <g>
       <use xlink:href="#me62b7a7ac3" x="184.961876" y="146.538197" style="stroke: #000000; stroke-width: 0.8"/>
      </g>
     </g>
    </g>
    <g id="text_6">
     <text style="font: 9.6px 'DejaVu Sans', 'Bitstream Vera Sans', 'Computer Modern Sans Serif', 'Lucida Grande', 'Verdana', 'Geneva', 'Lucid', 'Arial', 'Helvetica', 'Avant Garde', sans-serif; text-anchor: middle" x="113.3986" y="174.649447" transform="rotate(-0 113.3986 174.649447)">Wavelength (nm)</text>
    </g>
   </g>
   <g id="matplotlib.axis_2">
    <g id="ytick_1">
     <g id="line2d_47">
      <path d="M 41.18475 113.837916 
L 185.612451 113.837916 
" clip-path="url(#pd08d869019)" style="fill: none; stroke: #b0b0b0; stroke-width: 0.6; stroke-linecap: square"/>
     </g>
     <g id="line2d_48">
      <defs>
       <path id="mb95a8723d9" d="M 0 0 
L -4.8 0 
" style="stroke: #000000"/>
      </defs>
      <g>
       <use xlink:href="#mb95a8723d9" x="41.18475" y="113.837916" style="stroke: #000000"/>
      </g>
     </g>
     <g id="text_7">
      <text style="font: 8.8px 'DejaVu Sans', 'Bitstream Vera Sans', 'Computer Modern Sans Serif', 'Lucida Grande', 'Verdana', 'Geneva', 'Lucid', 'Arial', 'Helvetica', 'Avant Garde', sans-serif; text-anchor: end" x="32.88475" y="117.181229" transform="rotate(-0 32.88475 117.181229)">0.30</text>
     </g>
    </g>
    <g id="ytick_2">
     <g id="line2d_49">
      <path d="M 41.18475 79.38049 
L 185.612451 79.38049 
" clip-path="url(#pd08d869019)" style="fill: none; stroke: #b0b0b0; stroke-width: 0.6; stroke-linecap: square"/>
     </g>
     <g id="line2d_50">
      <g>
       <use xlink:href="#mb95a8723d9" x="41.18475" y="79.38049" style="stroke: #000000"/>
      </g>
     </g>
     <g id="text_8">
      <text style="font: 8.8px 'DejaVu Sans', 'Bitstream Vera Sans', 'Computer Modern Sans Serif', 'Lucida Grande', 'Verdana', 'Geneva', 'Lucid', 'Arial', 'Helvetica', 'Avant Garde', sans-serif; text-anchor: end" x="32.88475" y="82.723803" transform="rotate(-0 32.88475 82.723803)">0.32</text>
     </g>
    </g>
    <g id="ytick_3">
     <g id="line2d_51">
      <path d="M 41.18475 44.923065 
L 185.612451 44.923065 
" clip-path="url(#pd08d869019)" style="fill: none; stroke: #b0b0b0; stroke-width: 0.6; stroke-linecap: square"/>
     </g>
     <g id="line2d_52">
      <g>
       <use xlink:href="#mb95a8723d9" x="41.18475" y="44.923065" style="stroke: #000000"/>
      </g>
     </g>
     <g id="text_9">
      <text style="font: 8.8px 'DejaVu Sans', 'Bitstream Vera Sans', 'Computer Modern Sans Serif', 'Lucida Grande', 'Verdana', 'Geneva', 'Lucid', 'Arial', 'Helvetica', 'Avant Garde', sans-serif; text-anchor: end" x="32.88475" y="48.266377" transform="rotate(-0 32.88475 48.266377)">0.34</text>
     </g>
    </g>
    <g id="text_10">
     <text style="font: 9.6px 'DejaVu Sans', 'Bitstream Vera Sans', 'Computer Modern Sans Serif', 'Lucida Grande', 'Verdana', 'Geneva', 'Lucid', 'Arial', 'Helvetica', 'Avant Garde', sans-serif; text-anchor: middle" x="7.2945" y="83.787598" transform="rotate(-90 7.2945 83.787598)">Reflectance</text>
    </g>
   </g>
   <g id="line2d_53">
    <path d="M 42.426757 63.556621 
L 43.019668 63.951657 
L 43.318348 64.340601 
L 44.52808 67.41912 
L 46.388536 75.170886 
L 48.957353 89.659146 
L 50.280713 96.676839 
L 53.356591 110.955534 
L 54.412951 114.784524 
L 57.308418 123.091772 
L 59.177639 128.272023 
L 59.938477 130.195207 
L 60.706943 132.077659 
L 61.483112 133.961346 
L 62.66198 135.743813 
L 63.457749 136.794125 
L 64.261495 137.714809 
L 65.073299 138.312698 
L 65.893241 138.636074 
L 66.30629 138.614957 
L 66.721404 138.398032 
L 67.557868 137.307358 
L 68.402718 135.862507 
L 70.552084 131.038561 
L 71.867668 127.084554 
L 74.104527 117.934193 
L 75.473665 111.44743 
L 80.672803 87.417199 
L 83.132003 77.545537 
L 84.132984 74.139097 
L 85.653302 70.081373 
L 88.238266 63.684008 
L 88.76304 62.845673 
L 91.967244 59.346994 
L 92.510662 58.424962 
L 94.157275 56.370072 
L 95.268784 55.537983 
L 95.82871 55.187123 
L 96.391436 55.021008 
L 96.956975 55.035818 
L 98.670616 55.522815 
L 100.995723 55.518525 
L 102.175788 55.811306 
L 106.399957 56.380115 
L 107.015539 56.463967 
L 110.774208 56.233034 
L 113.343209 55.724266 
L 114.647057 55.439857 
L 116.627378 54.979535 
L 117.294097 54.95902 
L 117.96415 54.771427 
L 119.994477 53.87128 
L 122.74927 52.889817 
L 124.147414 52.236373 
L 124.851734 51.772393 
L 126.270955 50.247335 
L 127.704403 48.656232 
L 129.881566 46.57896 
L 131.351211 44.993214 
L 132.835589 43.069036 
L 134.334848 41.740865 
L 136.611965 40.454252 
L 138.149082 38.707454 
L 140.4837 35.336389 
L 143.651361 31.863624 
L 146.882853 29.669639 
L 147.700849 29.479468 
L 148.522936 29.623814 
L 150.179461 30.377505 
L 151.852592 31.57079 
L 152.695437 31.963753 
L 154.393791 32.400713 
L 155.249343 32.818875 
L 156.109171 33.444244 
L 156.9733 34.279023 
L 158.714539 36.678667 
L 159.591694 38.135978 
L 160.473235 39.884187 
L 162.249561 44.618894 
L 164.947496 52.336508 
L 167.686103 60.02116 
L 169.534739 65.321743 
L 170.465994 67.727033 
L 171.401907 69.747038 
L 172.342498 71.421033 
L 174.237814 74.201162 
L 175.192586 75.308677 
L 177.116474 77.008287 
L 178.085638 77.747437 
L 180.038529 78.787251 
L 181.022304 79.212924 
L 182.010998 79.511102 
L 182.010998 79.511102 
" clip-path="url(#pd08d869019)" style="fill: none; stroke: #1f77b4; stroke-width: 0.5; stroke-linecap: square"/>
   </g>
   <g id="line2d_54"/>
   <g id="line2d_55">
    <path d="M 41.835325 62.079409 
L 42.160613 61.877826 
L 42.616016 62.70792 
L 42.876246 62.669688 
L 43.136476 62.363709 
L 43.526821 63.322988 
L 43.787051 64.706813 
L 43.852108 64.617913 
L 44.112339 64.262314 
L 44.958086 68.132209 
L 45.218316 69.233469 
L 45.413489 69.513631 
L 45.933949 71.621726 
L 46.129122 72.338099 
L 47.170042 78.462567 
L 47.365215 78.615556 
L 47.820617 81.789411 
L 48.406135 86.551065 
L 48.666365 87.233345 
L 49.381998 92.016359 
L 49.707285 93.366408 
L 50.357861 97.1843 
L 50.683148 98.298304 
L 51.593954 103.931385 
L 52.374644 106.769316 
L 52.830047 109.083841 
L 53.350507 111.557536 
L 53.675794 112.791124 
L 54.196255 115.26443 
L 54.521542 115.414359 
L 55.432348 118.395236 
L 55.822693 119.464805 
L 56.40821 121.303448 
L 56.993728 122.939174 
L 57.253958 123.720654 
L 57.514188 124.184089 
L 58.229821 126.180558 
L 58.424994 126.37181 
L 58.945454 128.26144 
L 59.140626 128.941974 
L 59.530971 130.674517 
L 59.856259 131.077652 
L 60.051432 131.130363 
L 60.571892 132.649946 
L 61.41764 135.532989 
L 61.67787 135.466856 
L 62.003157 136.579822 
L 62.068215 136.476104 
L 62.328445 136.061232 
L 63.044078 137.982234 
L 63.629595 138.230325 
L 64.215113 139.390509 
L 64.410286 139.527653 
L 64.735573 139.744054 
L 65.256033 140.235729 
L 65.581321 140.168569 
L 65.906609 140.833597 
L 65.971666 140.774324 
L 66.296954 140.596504 
L 66.557184 140.833597 
L 66.622241 140.753652 
L 67.077644 140.024535 
L 67.663162 138.94256 
L 67.923392 138.797827 
L 68.313737 137.965352 
L 68.76914 136.819308 
L 68.964312 136.223874 
L 69.2896 135.341757 
L 69.54983 134.863145 
L 69.81006 134.060963 
L 69.875118 134.149524 
L 70.135348 134.503767 
L 70.59075 132.621346 
L 70.85098 131.989765 
L 71.241326 130.679693 
L 71.501556 130.132154 
L 71.956958 128.843422 
L 72.087073 128.62013 
L 72.607534 124.883919 
L 72.802706 123.700311 
L 73.062936 123.599715 
L 73.518339 121.469901 
L 73.778569 120.171556 
L 74.038799 120.097126 
L 74.494202 117.371169 
L 74.689374 117.078622 
L 75.60018 111.606458 
L 75.730295 111.116129 
L 76.836273 105.599828 
L 77.031445 104.885868 
L 78.007308 99.504309 
L 78.397653 98.134306 
L 79.113286 95.122355 
L 79.373516 93.773692 
L 80.349379 88.09098 
L 80.674666 86.966985 
L 80.869839 86.673421 
L 81.845702 81.821779 
L 82.170989 81.334201 
L 82.626392 78.250644 
L 82.886622 77.65521 
L 83.276967 76.444378 
L 83.47214 76.203496 
L 83.862485 73.196412 
L 84.187773 73.055489 
L 84.77329 71.896322 
L 85.098578 69.298236 
L 85.163635 69.547026 
L 85.423866 70.542185 
L 85.879268 68.577057 
L 86.139498 68.001976 
L 86.399728 67.061983 
L 86.464786 67.157773 
L 86.725016 67.540934 
L 87.505706 64.524854 
L 88.481569 61.447119 
L 88.741799 61.395424 
L 89.067087 61.530525 
L 89.652605 60.835511 
L 89.717662 60.957488 
L 89.977892 61.445394 
L 90.30318 59.738051 
L 90.628467 61.011216 
L 91.279043 58.471715 
L 91.60433 59.756998 
L 91.669388 59.691871 
L 91.929618 59.431364 
L 92.450078 57.253295 
L 92.580193 56.573111 
L 92.645251 56.609987 
L 93.035596 56.948375 
L 93.230768 57.234698 
L 94.401804 54.759277 
L 94.596976 54.662111 
L 94.922264 54.813056 
L 95.247552 54.600784 
L 95.507782 54.733091 
L 95.833069 53.554659 
L 95.898127 53.630804 
L 96.288472 53.946415 
L 96.678817 53.87408 
L 96.939047 53.845141 
L 97.13422 53.890613 
L 97.589622 54.720675 
L 97.979967 54.770306 
L 98.17514 54.858867 
L 98.43537 55.265442 
L 98.500428 55.206867 
L 98.825715 55.044584 
L 99.085945 55.332653 
L 99.151003 55.273041 
L 99.541348 54.807172 
L 99.736521 54.466043 
L 99.801578 54.568723 
L 100.322038 55.190333 
L 100.452153 55.204813 
L 100.842498 54.878851 
L 101.102729 54.634528 
L 101.362959 54.695198 
L 101.688246 56.04764 
L 101.753304 55.932554 
L 102.143649 55.458429 
L 102.729167 55.42603 
L 102.989397 55.847803 
L 103.054454 55.807137 
L 103.444799 55.655504 
L 103.835145 55.592472 
L 104.030317 55.598335 
L 104.290547 55.833991 
L 104.615835 54.9605 
L 105.26641 56.943517 
L 105.591698 55.348159 
L 105.656755 55.538015 
L 106.112158 56.574487 
L 106.242273 56.759187 
L 106.56756 55.527355 
L 107.088021 56.930773 
L 107.218136 57.14166 
L 107.543423 55.69962 
L 107.608481 55.808852 
L 108.063884 56.386356 
L 108.584344 56.629621 
L 108.844574 56.731614 
L 109.169861 56.150999 
L 109.234919 56.20372 
L 109.495149 56.414607 
L 109.560207 56.334323 
L 110.145724 55.687554 
L 110.471012 56.72648 
L 110.536069 56.639983 
L 111.121587 55.9908 
L 111.446875 56.414607 
L 111.772162 55.498037 
L 111.83722 55.643109 
L 112.09745 56.223396 
L 112.162507 56.178602 
L 112.487795 56.042146 
L 112.813083 56.164102 
L 113.333543 55.641733 
L 113.65883 55.393292 
L 114.049176 55.199976 
L 114.699751 55.641034 
L 115.350326 55.296454 
L 115.675614 55.448078 
L 116.000901 54.347178 
L 116.065959 54.435728 
L 116.456304 54.800282 
L 116.716534 54.931583 
L 117.041822 55.359527 
L 117.627339 55.12419 
L 117.952627 55.53249 
L 118.277915 54.354058 
L 118.342972 54.395062 
L 118.733317 54.528766 
L 118.993547 54.385091 
L 119.579065 53.552913 
L 120.164583 54.084278 
L 120.294698 54.059807 
L 120.880216 53.568419 
L 121.205503 53.881987 
L 121.530791 52.805219 
L 121.595848 52.947528 
L 121.856078 53.516766 
L 121.921136 53.464383 
L 122.246424 53.313437 
L 122.506654 53.547778 
L 122.896999 52.824864 
L 123.547574 52.838265 
L 123.937919 52.64118 
L 124.263207 52.586733 
L 124.653552 52.455463 
L 124.848724 52.364848 
L 125.23907 52.018204 
L 125.434242 51.979942 
L 125.889645 50.582028 
L 126.475162 50.116149 
L 126.735393 50.172629 
L 127.190795 48.969048 
L 127.516083 48.588649 
L 127.776313 48.265439 
L 128.036543 48.299902 
L 128.361831 47.762365 
L 128.426888 47.841273 
L 128.687118 48.156905 
L 129.142521 47.035312 
L 129.402751 46.973615 
L 129.662981 47.243775 
L 130.118384 46.111513 
L 131.614707 44.804193 
L 132.265282 43.484458 
L 133.045972 41.920452 
L 133.501375 41.844656 
L 133.89172 41.658199 
L 134.41218 40.898429 
L 134.67241 40.790233 
L 134.997698 40.886732 
L 135.322986 40.98321 
L 135.713331 40.788878 
L 135.843446 40.695162 
L 136.168733 41.53764 
L 136.689194 40.376409 
L 137.014481 40.108323 
L 137.274711 39.890536 
L 137.534941 39.467058 
L 137.795171 38.682826 
L 137.860229 38.733474 
L 138.120459 38.936063 
L 138.575862 38.048472 
L 138.771034 37.890308 
L 139.551725 35.481379 
L 140.007127 34.763969 
L 140.137242 34.707807 
L 140.397472 34.789138 
L 141.113105 33.690631 
L 142.02391 33.014584 
L 142.804601 31.278272 
L 142.999773 31.322696 
L 143.455176 30.665596 
L 143.715406 30.403374 
L 143.975636 29.772112 
L 144.300924 31.097033 
L 144.691269 29.775254 
L 145.081614 29.864821 
L 145.276787 30.001267 
L 145.732189 28.862094 
L 145.927362 28.187074 
L 145.992419 28.246573 
L 146.252649 28.48457 
L 146.577937 27.32642 
L 146.903225 28.642098 
L 146.968282 28.530976 
L 147.5538 27.339615 
L 147.683915 27.448468 
L 147.879088 27.611747 
L 148.009203 26.7416 
L 148.139318 27.805872 
L 148.269433 28.829394 
L 148.464605 27.483804 
L 148.59472 27.538995 
L 148.789893 28.247801 
L 148.920008 27.566141 
L 149.050123 28.61597 
L 149.245295 30.155044 
L 149.505526 28.101502 
L 149.700698 29.077342 
L 149.765756 28.941057 
L 149.960928 27.480625 
L 150.221158 28.636349 
L 150.416331 29.379172 
L 150.546446 29.784488 
L 150.741619 31.205357 
L 150.936791 28.989757 
L 151.066906 30.25015 
L 151.131964 29.961185 
L 151.262079 29.424977 
L 151.457251 31.543603 
L 151.587366 30.922932 
L 151.652424 31.736641 
L 151.717481 31.697611 
L 151.977711 29.236415 
L 152.042769 29.46221 
L 152.172884 32.048421 
L 152.237942 31.97156 
L 152.433114 30.038472 
L 152.498172 30.271739 
L 152.758402 32.329458 
L 152.823459 32.313143 
L 152.953574 31.7486 
L 153.018632 30.965463 
L 153.083689 31.087393 
L 153.213804 31.286001 
L 153.343919 29.991068 
L 153.408977 30.057281 
L 153.60415 32.043455 
L 153.669207 31.611093 
L 153.86438 30.179025 
L 153.929437 30.052788 
L 153.994495 30.178882 
L 154.319782 32.194377 
L 154.514955 30.949921 
L 154.64507 29.401259 
L 154.840242 31.574162 
L 154.9053 31.495052 
L 155.100473 30.818021 
L 155.16553 31.142145 
L 155.295645 32.28469 
L 155.555875 31.26862 
L 155.68599 29.85109 
L 155.816105 31.098242 
L 156.011278 32.346155 
L 156.076335 32.665632 
L 156.141393 32.597222 
L 156.466681 31.322563 
L 156.531738 31.375222 
L 156.791968 33.364618 
L 156.987141 32.269241 
L 157.052198 32.384894 
L 157.117256 33.14196 
L 157.247371 31.739565 
L 157.312428 31.818833 
L 157.507601 33.672406 
L 157.572658 33.585044 
L 157.767831 32.98766 
L 158.093119 35.096297 
L 158.158176 35.008872 
L 158.288291 34.412415 
L 158.353349 34.526049 
L 158.613579 35.234988 
L 158.678636 35.09392 
L 158.808751 35.044897 
L 158.938866 35.101166 
L 159.068981 35.69038 
L 159.199096 35.48333 
L 159.329212 36.227908 
L 159.394269 36.163162 
L 159.459327 35.95107 
L 159.524384 36.002514 
L 159.914729 37.62303 
L 159.979787 37.7833 
L 160.174959 37.138185 
L 160.435189 38.408253 
L 160.565304 37.551792 
L 160.630362 37.59083 
L 160.890592 39.027247 
L 161.150822 40.047098 
L 161.280937 40.701807 
L 161.345995 40.656658 
L 161.411052 40.676065 
L 161.671282 42.766652 
L 161.73634 42.460036 
L 161.866455 41.583108 
L 161.931512 41.734561 
L 162.126685 43.083283 
L 162.2568 43.728301 
L 162.51703 44.943482 
L 162.582088 44.909263 
L 162.77726 45.699033 
L 162.842318 45.764664 
L 162.907375 45.685985 
L 162.972433 45.509153 
L 163.03749 45.661513 
L 163.362778 48.058362 
L 163.492893 48.035742 
L 163.557951 48.27354 
L 163.688066 49.086868 
L 163.818181 48.715133 
L 164.013353 49.767509 
L 164.078411 49.713391 
L 164.143468 49.678245 
L 164.273583 50.29324 
L 164.468756 51.471778 
L 164.533813 51.398436 
L 164.598871 51.150368 
L 164.924159 52.45685 
L 164.989216 52.899544 
L 165.054274 52.832288 
L 165.184389 52.576409 
L 165.444619 53.507372 
L 165.769906 54.950259 
L 165.900021 54.871176 
L 166.030136 55.341431 
L 166.095194 55.224245 
L 166.160251 55.326226 
L 166.290366 55.828378 
L 166.355424 55.752937 
L 166.485539 55.726104 
L 167.331287 60.054814 
L 167.396344 60.132749 
L 167.461402 60.051063 
L 167.591517 59.971586 
L 167.721632 59.594065 
L 167.916805 60.691763 
L 168.177035 62.419204 
L 168.30715 62.492895 
L 169.08784 65.329081 
L 169.152897 65.229315 
L 169.217955 65.088049 
L 169.673358 67.021715 
L 169.738415 67.111382 
L 169.933588 68.36095 
L 169.998645 68.101994 
L 170.063703 68.001779 
L 170.12876 68.066784 
L 170.258875 68.427602 
L 170.323933 68.331143 
L 170.454048 68.912015 
L 170.714278 70.477671 
L 170.974508 71.42447 
L 171.104623 71.701628 
L 171.299796 70.551875 
L 171.364853 70.668503 
L 171.885313 72.492439 
L 172.145544 72.753322 
L 172.340716 72.58586 
L 172.535889 73.789588 
L 172.666004 73.532447 
L 172.731061 73.658494 
L 172.991291 74.13236 
L 173.186464 74.484068 
L 173.381636 73.880798 
L 173.446694 74.026448 
L 173.641867 74.843366 
L 173.706924 74.771761 
L 173.837039 74.810678 
L 174.097269 76.115791 
L 174.292442 75.865717 
L 174.487614 76.249619 
L 174.552672 76.120671 
L 174.617729 76.162075 
L 174.87796 76.698383 
L 175.203247 76.992027 
L 175.333362 76.904216 
L 175.463477 76.842557 
L 175.65865 77.447183 
L 175.723707 77.418997 
L 175.91888 77.272988 
L 176.114052 77.628761 
L 176.244167 77.352969 
L 176.309225 77.429987 
L 176.504398 78.168465 
L 176.569455 78.119919 
L 176.829685 77.827443 
L 176.894743 77.597932 
L 176.9598 77.732932 
L 177.22003 79.079767 
L 177.285088 78.803379 
L 177.48026 78.382457 
L 177.675433 78.559656 
L 177.805548 78.48246 
L 178.260951 79.797802 
L 178.326008 79.586662 
L 178.391066 79.690021 
L 178.456123 79.955395 
L 178.521181 79.839961 
L 178.781411 78.951065 
L 178.846468 79.188981 
L 178.911526 79.550377 
L 178.976583 79.504012 
L 179.106698 79.296022 
L 179.171756 79.41407 
L 179.366929 80.14502 
L 179.497044 79.742694 
L 179.692216 80.144657 
L 179.887389 79.615917 
L 179.952446 79.66615 
L 180.082561 80.171244 
L 180.277734 79.718045 
L 180.472906 79.8354 
L 180.603022 80.246108 
L 180.798194 81.060488 
L 180.863252 81.037029 
L 181.123482 79.913328 
L 181.513827 80.674113 
L 181.774057 81.138307 
L 181.904172 80.575254 
L 181.96923 80.648995 
L 182.164402 80.82852 
L 182.48969 80.116457 
L 182.74992 80.611813 
L 182.945092 80.373379 
L 183.140265 80.812821 
L 183.400495 81.319695 
L 183.79084 81.519231 
L 184.05107 80.608208 
L 184.116128 80.654084 
L 184.3113 81.201056 
L 184.506473 81.62855 
L 184.701645 81.04129 
L 184.831761 80.783842 
L 184.896818 80.817365 
L 184.896818 80.817365 
" clip-path="url(#pd08d869019)" style="fill: none; stroke: #1f77b4; stroke-opacity: 0.5; stroke-width: 0.5; stroke-linecap: square"/>
   </g>
   <g id="patch_3">
    <path d="M 41.18475 146.538197 
L 41.18475 21.037 
" style="fill: none; stroke: #000000; stroke-linejoin: miter; stroke-linecap: square"/>
   </g>
   <g id="patch_4">
    <path d="M 185.612451 146.538197 
L 185.612451 21.037 
" style="fill: none; stroke: #000000; stroke-linejoin: miter; stroke-linecap: square"/>
   </g>
   <g id="patch_5">
    <path d="M 41.18475 146.538197 
L 185.612451 146.538197 
" style="fill: none; stroke: #000000; stroke-linejoin: miter; stroke-linecap: square"/>
   </g>
   <g id="patch_6">
    <path d="M 41.18475 21.037 
L 185.612451 21.037 
" style="fill: none; stroke: #000000; stroke-linejoin: miter; stroke-linecap: square"/>
   </g>
   <g id="text_11">
    <text style="font: 8px 'DejaVu Sans', 'Bitstream Vera Sans', 'Computer Modern Sans Serif', 'Lucida Grande', 'Verdana', 'Geneva', 'Lucid', 'Arial', 'Helvetica', 'Avant Garde', sans-serif" transform="translate(73.8061 6.07875)">enfys Iron oxides &amp; </text>
    <text style="font: 8px 'DejaVu Sans', 'Bitstream Vera Sans', 'Computer Modern Sans Serif', 'Lucida Grande', 'Verdana', 'Geneva', 'Lucid', 'Arial', 'Helvetica', 'Avant Garde', sans-serif" transform="translate(55.36985 15.037)"> primary silicates Plagioclase</text>
   </g>
   <g id="legend_1">
    <g id="patch_7">
     <path d="M 192.701005 89.091036 
L 270.842567 89.091036 
Q 272.042567 89.091036 272.042567 87.891036 
L 272.042567 79.684161 
Q 272.042567 78.484161 270.842567 78.484161 
L 192.701005 78.484161 
Q 191.501005 78.484161 191.501005 79.684161 
L 191.501005 87.891036 
Q 191.501005 89.091036 192.701005 89.091036 
z
" style="fill: #ffffff; opacity: 0.8; stroke: #cccccc; stroke-width: 0.8; stroke-linejoin: miter"/>
    </g>
    <g id="line2d_56">
     <path d="M 193.901005 83.343223 
L 199.901005 83.343223 
L 205.901005 83.343223 
" style="fill: none; stroke: #1f77b4; stroke-width: 1.2; stroke-linecap: square"/>
    </g>
    <g id="text_12">
     <text style="font: 6px 'DejaVu Sans', 'Bitstream Vera Sans', 'Computer Modern Sans Serif', 'Lucida Grande', 'Verdana', 'Geneva', 'Lucid', 'Arial', 'Helvetica', 'Avant Garde', sans-serif; text-anchor: start" x="210.701005" y="85.443223" transform="rotate(-0 210.701005 85.443223)">Plagioclase NCLS04</text>
    </g>
   </g>
  </g>
 </g>
 <defs>
  <clipPath id="pd08d869019">
   <rect x="41.18475" y="21.037" width="144.427701" height="125.501197"/>
  </clipPath>
 </defs>
</svg>
