<?xml version="1.0" encoding="utf-8" standalone="no"?>
<!DOCTYPE svg PUBLIC "-//W3C//DTD SVG 1.1//EN"
  "http://www.w3.org/Graphics/SVG/1.1/DTD/svg11.dtd">
<svg xmlns:xlink="http://www.w3.org/1999/xlink" width="272.116605pt" height="176.855697pt" viewBox="0 0 272.116605 176.855697" xmlns="http://www.w3.org/2000/svg" version="1.1">
 <metadata>
  <rdf:RDF xmlns:dc="http://purl.org/dc/elements/1.1/" xmlns:cc="http://creativecommons.org/ns#" xmlns:rdf="http://www.w3.org/1999/02/22-rdf-syntax-ns#">
   <cc:Work>
    <dc:type rdf:resource="http://purl.org/dc/dcmitype/StillImage"/>
    <dc:date>2025-02-12T16:36:04.281595</dc:date>
    <dc:format>image/svg+xml</dc:format>
    <dc:creator>
     <cc:Agent>
      <dc:title>Matplotlib v3.6.2, https://matplotlib.org/</dc:title>
     </cc:Agent>
    </dc:creator>
   </cc:Work>
  </rdf:RDF>
 </metadata>
 <defs>
  <style type="text/css">*{stroke-linejoin: round; stroke-linecap: butt}</style>
 </defs>
 <g id="figure_1">
  <g id="patch_1">
   <path d="M -0 176.855697 
L 272.116605 176.855697 
L 272.116605 0 
L -0 0 
z
" style="fill: #ffffff"/>
  </g>
  <g id="axes_1">
   <g id="patch_2">
    <path d="M 35.58575 146.747947 
L 184.243451 146.747947 
L 184.243451 12.07875 
L 35.58575 12.07875 
z
" style="fill: #ffffff"/>
   </g>
   <g id="matplotlib.axis_1">
    <g id="xtick_1">
     <g id="line2d_1">
      <path d="M 42.951672 146.747947 
L 42.951672 12.07875 
" clip-path="url(#p86cf687f99)" style="fill: none; stroke: #b0b0b0; stroke-width: 0.6; stroke-linecap: square"/>
     </g>
     <g id="line2d_2">
      <defs>
       <path id="m09ede99257" d="M 0 0 
L 0 4.8 
" style="stroke: #000000"/>
      </defs>
      <g>
       <use xlink:href="#m09ede99257" x="42.951672" y="146.747947" style="stroke: #000000"/>
      </g>
     </g>
     <g id="text_1">
      <text style="font: 8.8px 'DejaVu Sans', 'Bitstream Vera Sans', 'Computer Modern Sans Serif', 'Lucida Grande', 'Verdana', 'Geneva', 'Lucid', 'Arial', 'Helvetica', 'Avant Garde', sans-serif; text-anchor: middle" x="42.951672" y="161.734572" transform="rotate(-0 42.951672 161.734572)">1000</text>
     </g>
    </g>
    <g id="xtick_2">
     <g id="line2d_3">
      <path d="M 76.433136 146.747947 
L 76.433136 12.07875 
" clip-path="url(#p86cf687f99)" style="fill: none; stroke: #b0b0b0; stroke-width: 0.6; stroke-linecap: square"/>
     </g>
     <g id="line2d_4">
      <g>
       <use xlink:href="#m09ede99257" x="76.433136" y="146.747947" style="stroke: #000000"/>
      </g>
     </g>
     <g id="text_2">
      <text style="font: 8.8px 'DejaVu Sans', 'Bitstream Vera Sans', 'Computer Modern Sans Serif', 'Lucida Grande', 'Verdana', 'Geneva', 'Lucid', 'Arial', 'Helvetica', 'Avant Garde', sans-serif; text-anchor: middle" x="76.433136" y="161.734572" transform="rotate(-0 76.433136 161.734572)">1500</text>
     </g>
    </g>
    <g id="xtick_3">
     <g id="line2d_5">
      <path d="M 109.9146 146.747947 
L 109.9146 12.07875 
" clip-path="url(#p86cf687f99)" style="fill: none; stroke: #b0b0b0; stroke-width: 0.6; stroke-linecap: square"/>
     </g>
     <g id="line2d_6">
      <g>
       <use xlink:href="#m09ede99257" x="109.9146" y="146.747947" style="stroke: #000000"/>
      </g>
     </g>
     <g id="text_3">
      <text style="font: 8.8px 'DejaVu Sans', 'Bitstream Vera Sans', 'Computer Modern Sans Serif', 'Lucida Grande', 'Verdana', 'Geneva', 'Lucid', 'Arial', 'Helvetica', 'Avant Garde', sans-serif; text-anchor: middle" x="109.9146" y="161.734572" transform="rotate(-0 109.9146 161.734572)">2000</text>
     </g>
    </g>
    <g id="xtick_4">
     <g id="line2d_7">
      <path d="M 143.396065 146.747947 
L 143.396065 12.07875 
" clip-path="url(#p86cf687f99)" style="fill: none; stroke: #b0b0b0; stroke-width: 0.6; stroke-linecap: square"/>
     </g>
     <g id="line2d_8">
      <g>
       <use xlink:href="#m09ede99257" x="143.396065" y="146.747947" style="stroke: #000000"/>
      </g>
     </g>
     <g id="text_4">
      <text style="font: 8.8px 'DejaVu Sans', 'Bitstream Vera Sans', 'Computer Modern Sans Serif', 'Lucida Grande', 'Verdana', 'Geneva', 'Lucid', 'Arial', 'Helvetica', 'Avant Garde', sans-serif; text-anchor: middle" x="143.396065" y="161.734572" transform="rotate(-0 143.396065 161.734572)">2500</text>
     </g>
    </g>
    <g id="xtick_5">
     <g id="line2d_9">
      <path d="M 176.877529 146.747947 
L 176.877529 12.07875 
" clip-path="url(#p86cf687f99)" style="fill: none; stroke: #b0b0b0; stroke-width: 0.6; stroke-linecap: square"/>
     </g>
     <g id="line2d_10">
      <g>
       <use xlink:href="#m09ede99257" x="176.877529" y="146.747947" style="stroke: #000000"/>
      </g>
     </g>
     <g id="text_5">
      <text style="font: 8.8px 'DejaVu Sans', 'Bitstream Vera Sans', 'Computer Modern Sans Serif', 'Lucida Grande', 'Verdana', 'Geneva', 'Lucid', 'Arial', 'Helvetica', 'Avant Garde', sans-serif; text-anchor: middle" x="176.877529" y="161.734572" transform="rotate(-0 176.877529 161.734572)">3000</text>
     </g>
    </g>
    <g id="xtick_6">
     <g id="line2d_11">
      <path d="M 36.255379 146.747947 
L 36.255379 12.07875 
" clip-path="url(#p86cf687f99)" style="fill: none; stroke: #b0b0b0; stroke-width: 0.3; stroke-linecap: square"/>
     </g>
     <g id="line2d_12">
      <defs>
       <path id="m95ad346d64" d="M 0 0 
L 0 3.2 
" style="stroke: #000000; stroke-width: 0.8"/>
      </defs>
      <g>
       <use xlink:href="#m95ad346d64" x="36.255379" y="146.747947" style="stroke: #000000; stroke-width: 0.8"/>
      </g>
     </g>
    </g>
    <g id="xtick_7">
     <g id="line2d_13">
      <path d="M 49.647965 146.747947 
L 49.647965 12.07875 
" clip-path="url(#p86cf687f99)" style="fill: none; stroke: #b0b0b0; stroke-width: 0.3; stroke-linecap: square"/>
     </g>
     <g id="line2d_14">
      <g>
       <use xlink:href="#m95ad346d64" x="49.647965" y="146.747947" style="stroke: #000000; stroke-width: 0.8"/>
      </g>
     </g>
    </g>
    <g id="xtick_8">
     <g id="line2d_15">
      <path d="M 56.344258 146.747947 
L 56.344258 12.07875 
" clip-path="url(#p86cf687f99)" style="fill: none; stroke: #b0b0b0; stroke-width: 0.3; stroke-linecap: square"/>
     </g>
     <g id="line2d_16">
      <g>
       <use xlink:href="#m95ad346d64" x="56.344258" y="146.747947" style="stroke: #000000; stroke-width: 0.8"/>
      </g>
     </g>
    </g>
    <g id="xtick_9">
     <g id="line2d_17">
      <path d="M 63.040551 146.747947 
L 63.040551 12.07875 
" clip-path="url(#p86cf687f99)" style="fill: none; stroke: #b0b0b0; stroke-width: 0.3; stroke-linecap: square"/>
     </g>
     <g id="line2d_18">
      <g>
       <use xlink:href="#m95ad346d64" x="63.040551" y="146.747947" style="stroke: #000000; stroke-width: 0.8"/>
      </g>
     </g>
    </g>
    <g id="xtick_10">
     <g id="line2d_19">
      <path d="M 69.736843 146.747947 
L 69.736843 12.07875 
" clip-path="url(#p86cf687f99)" style="fill: none; stroke: #b0b0b0; stroke-width: 0.3; stroke-linecap: square"/>
     </g>
     <g id="line2d_20">
      <g>
       <use xlink:href="#m95ad346d64" x="69.736843" y="146.747947" style="stroke: #000000; stroke-width: 0.8"/>
      </g>
     </g>
    </g>
    <g id="xtick_11">
     <g id="line2d_21">
      <path d="M 83.129429 146.747947 
L 83.129429 12.07875 
" clip-path="url(#p86cf687f99)" style="fill: none; stroke: #b0b0b0; stroke-width: 0.3; stroke-linecap: square"/>
     </g>
     <g id="line2d_22">
      <g>
       <use xlink:href="#m95ad346d64" x="83.129429" y="146.747947" style="stroke: #000000; stroke-width: 0.8"/>
      </g>
     </g>
    </g>
    <g id="xtick_12">
     <g id="line2d_23">
      <path d="M 89.825722 146.747947 
L 89.825722 12.07875 
" clip-path="url(#p86cf687f99)" style="fill: none; stroke: #b0b0b0; stroke-width: 0.3; stroke-linecap: square"/>
     </g>
     <g id="line2d_24">
      <g>
       <use xlink:href="#m95ad346d64" x="89.825722" y="146.747947" style="stroke: #000000; stroke-width: 0.8"/>
      </g>
     </g>
    </g>
    <g id="xtick_13">
     <g id="line2d_25">
      <path d="M 96.522015 146.747947 
L 96.522015 12.07875 
" clip-path="url(#p86cf687f99)" style="fill: none; stroke: #b0b0b0; stroke-width: 0.3; stroke-linecap: square"/>
     </g>
     <g id="line2d_26">
      <g>
       <use xlink:href="#m95ad346d64" x="96.522015" y="146.747947" style="stroke: #000000; stroke-width: 0.8"/>
      </g>
     </g>
    </g>
    <g id="xtick_14">
     <g id="line2d_27">
      <path d="M 103.218308 146.747947 
L 103.218308 12.07875 
" clip-path="url(#p86cf687f99)" style="fill: none; stroke: #b0b0b0; stroke-width: 0.3; stroke-linecap: square"/>
     </g>
     <g id="line2d_28">
      <g>
       <use xlink:href="#m95ad346d64" x="103.218308" y="146.747947" style="stroke: #000000; stroke-width: 0.8"/>
      </g>
     </g>
    </g>
    <g id="xtick_15">
     <g id="line2d_29">
      <path d="M 116.610893 146.747947 
L 116.610893 12.07875 
" clip-path="url(#p86cf687f99)" style="fill: none; stroke: #b0b0b0; stroke-width: 0.3; stroke-linecap: square"/>
     </g>
     <g id="line2d_30">
      <g>
       <use xlink:href="#m95ad346d64" x="116.610893" y="146.747947" style="stroke: #000000; stroke-width: 0.8"/>
      </g>
     </g>
    </g>
    <g id="xtick_16">
     <g id="line2d_31">
      <path d="M 123.307186 146.747947 
L 123.307186 12.07875 
" clip-path="url(#p86cf687f99)" style="fill: none; stroke: #b0b0b0; stroke-width: 0.3; stroke-linecap: square"/>
     </g>
     <g id="line2d_32">
      <g>
       <use xlink:href="#m95ad346d64" x="123.307186" y="146.747947" style="stroke: #000000; stroke-width: 0.8"/>
      </g>
     </g>
    </g>
    <g id="xtick_17">
     <g id="line2d_33">
      <path d="M 130.003479 146.747947 
L 130.003479 12.07875 
" clip-path="url(#p86cf687f99)" style="fill: none; stroke: #b0b0b0; stroke-width: 0.3; stroke-linecap: square"/>
     </g>
     <g id="line2d_34">
      <g>
       <use xlink:href="#m95ad346d64" x="130.003479" y="146.747947" style="stroke: #000000; stroke-width: 0.8"/>
      </g>
     </g>
    </g>
    <g id="xtick_18">
     <g id="line2d_35">
      <path d="M 136.699772 146.747947 
L 136.699772 12.07875 
" clip-path="url(#p86cf687f99)" style="fill: none; stroke: #b0b0b0; stroke-width: 0.3; stroke-linecap: square"/>
     </g>
     <g id="line2d_36">
      <g>
       <use xlink:href="#m95ad346d64" x="136.699772" y="146.747947" style="stroke: #000000; stroke-width: 0.8"/>
      </g>
     </g>
    </g>
    <g id="xtick_19">
     <g id="line2d_37">
      <path d="M 150.092357 146.747947 
L 150.092357 12.07875 
" clip-path="url(#p86cf687f99)" style="fill: none; stroke: #b0b0b0; stroke-width: 0.3; stroke-linecap: square"/>
     </g>
     <g id="line2d_38">
      <g>
       <use xlink:href="#m95ad346d64" x="150.092357" y="146.747947" style="stroke: #000000; stroke-width: 0.8"/>
      </g>
     </g>
    </g>
    <g id="xtick_20">
     <g id="line2d_39">
      <path d="M 156.78865 146.747947 
L 156.78865 12.07875 
" clip-path="url(#p86cf687f99)" style="fill: none; stroke: #b0b0b0; stroke-width: 0.3; stroke-linecap: square"/>
     </g>
     <g id="line2d_40">
      <g>
       <use xlink:href="#m95ad346d64" x="156.78865" y="146.747947" style="stroke: #000000; stroke-width: 0.8"/>
      </g>
     </g>
    </g>
    <g id="xtick_21">
     <g id="line2d_41">
      <path d="M 163.484943 146.747947 
L 163.484943 12.07875 
" clip-path="url(#p86cf687f99)" style="fill: none; stroke: #b0b0b0; stroke-width: 0.3; stroke-linecap: square"/>
     </g>
     <g id="line2d_42">
      <g>
       <use xlink:href="#m95ad346d64" x="163.484943" y="146.747947" style="stroke: #000000; stroke-width: 0.8"/>
      </g>
     </g>
    </g>
    <g id="xtick_22">
     <g id="line2d_43">
      <path d="M 170.181236 146.747947 
L 170.181236 12.07875 
" clip-path="url(#p86cf687f99)" style="fill: none; stroke: #b0b0b0; stroke-width: 0.3; stroke-linecap: square"/>
     </g>
     <g id="line2d_44">
      <g>
       <use xlink:href="#m95ad346d64" x="170.181236" y="146.747947" style="stroke: #000000; stroke-width: 0.8"/>
      </g>
     </g>
    </g>
    <g id="xtick_23">
     <g id="line2d_45">
      <path d="M 183.573822 146.747947 
L 183.573822 12.07875 
" clip-path="url(#p86cf687f99)" style="fill: none; stroke: #b0b0b0; stroke-width: 0.3; stroke-linecap: square"/>
     </g>
     <g id="line2d_46">
      <g>
       <use xlink:href="#m95ad346d64" x="183.573822" y="146.747947" style="stroke: #000000; stroke-width: 0.8"/>
      </g>
     </g>
    </g>
    <g id="text_6">
     <text style="font: 9.6px 'DejaVu Sans', 'Bitstream Vera Sans', 'Computer Modern Sans Serif', 'Lucida Grande', 'Verdana', 'Geneva', 'Lucid', 'Arial', 'Helvetica', 'Avant Garde', sans-serif; text-anchor: middle" x="109.9146" y="174.859197" transform="rotate(-0 109.9146 174.859197)">Wavelength (nm)</text>
    </g>
   </g>
   <g id="matplotlib.axis_2">
    <g id="ytick_1">
     <g id="line2d_47">
      <path d="M 35.58575 118.75321 
L 184.243451 118.75321 
" clip-path="url(#p86cf687f99)" style="fill: none; stroke: #b0b0b0; stroke-width: 0.6; stroke-linecap: square"/>
     </g>
     <g id="line2d_48">
      <defs>
       <path id="m99c6b1f604" d="M 0 0 
L -4.8 0 
" style="stroke: #000000"/>
      </defs>
      <g>
       <use xlink:href="#m99c6b1f604" x="35.58575" y="118.75321" style="stroke: #000000"/>
      </g>
     </g>
     <g id="text_7">
      <text style="font: 8.8px 'DejaVu Sans', 'Bitstream Vera Sans', 'Computer Modern Sans Serif', 'Lucida Grande', 'Verdana', 'Geneva', 'Lucid', 'Arial', 'Helvetica', 'Avant Garde', sans-serif; text-anchor: end" x="27.28575" y="122.096523" transform="rotate(-0 27.28575 122.096523)">0.2</text>
     </g>
    </g>
    <g id="ytick_2">
     <g id="line2d_49">
      <path d="M 35.58575 90.249372 
L 184.243451 90.249372 
" clip-path="url(#p86cf687f99)" style="fill: none; stroke: #b0b0b0; stroke-width: 0.6; stroke-linecap: square"/>
     </g>
     <g id="line2d_50">
      <g>
       <use xlink:href="#m99c6b1f604" x="35.58575" y="90.249372" style="stroke: #000000"/>
      </g>
     </g>
     <g id="text_8">
      <text style="font: 8.8px 'DejaVu Sans', 'Bitstream Vera Sans', 'Computer Modern Sans Serif', 'Lucida Grande', 'Verdana', 'Geneva', 'Lucid', 'Arial', 'Helvetica', 'Avant Garde', sans-serif; text-anchor: end" x="27.28575" y="93.592684" transform="rotate(-0 27.28575 93.592684)">0.4</text>
     </g>
    </g>
    <g id="ytick_3">
     <g id="line2d_51">
      <path d="M 35.58575 61.745534 
L 184.243451 61.745534 
" clip-path="url(#p86cf687f99)" style="fill: none; stroke: #b0b0b0; stroke-width: 0.6; stroke-linecap: square"/>
     </g>
     <g id="line2d_52">
      <g>
       <use xlink:href="#m99c6b1f604" x="35.58575" y="61.745534" style="stroke: #000000"/>
      </g>
     </g>
     <g id="text_9">
      <text style="font: 8.8px 'DejaVu Sans', 'Bitstream Vera Sans', 'Computer Modern Sans Serif', 'Lucida Grande', 'Verdana', 'Geneva', 'Lucid', 'Arial', 'Helvetica', 'Avant Garde', sans-serif; text-anchor: end" x="27.28575" y="65.088846" transform="rotate(-0 27.28575 65.088846)">0.6</text>
     </g>
    </g>
    <g id="ytick_4">
     <g id="line2d_53">
      <path d="M 35.58575 33.241695 
L 184.243451 33.241695 
" clip-path="url(#p86cf687f99)" style="fill: none; stroke: #b0b0b0; stroke-width: 0.6; stroke-linecap: square"/>
     </g>
     <g id="line2d_54">
      <g>
       <use xlink:href="#m99c6b1f604" x="35.58575" y="33.241695" style="stroke: #000000"/>
      </g>
     </g>
     <g id="text_10">
      <text style="font: 8.8px 'DejaVu Sans', 'Bitstream Vera Sans', 'Computer Modern Sans Serif', 'Lucida Grande', 'Verdana', 'Geneva', 'Lucid', 'Arial', 'Helvetica', 'Avant Garde', sans-serif; text-anchor: end" x="27.28575" y="36.585008" transform="rotate(-0 27.28575 36.585008)">0.8</text>
     </g>
    </g>
    <g id="text_11">
     <text style="font: 9.6px 'DejaVu Sans', 'Bitstream Vera Sans', 'Computer Modern Sans Serif', 'Lucida Grande', 'Verdana', 'Geneva', 'Lucid', 'Arial', 'Helvetica', 'Avant Garde', sans-serif; text-anchor: middle" x="7.2945" y="79.413348" transform="rotate(-90 7.2945 79.413348)">Reflectance</text>
    </g>
   </g>
   <g id="line2d_55">
    <path d="M 36.864133 18.905868 
L 39.34219 19.009879 
L 41.921122 18.991771 
L 42.915061 18.995624 
L 44.263659 18.751189 
L 47.042929 18.602559 
L 48.11408 18.524308 
L 52.181649 18.496669 
L 56.88106 18.926037 
L 58.100522 19.086101 
L 61.017904 19.205434 
L 63.600878 19.624977 
L 64.921642 19.946256 
L 66.262317 20.507552 
L 67.167309 21.108542 
L 68.081374 21.930895 
L 69.937087 24.75553 
L 70.878919 26.109588 
L 72.3094 27.618613 
L 73.275015 28.476152 
L 74.741617 29.415433 
L 76.230329 30.119122 
L 77.235251 30.449373 
L 78.761555 30.628988 
L 79.791852 30.549177 
L 82.945132 29.997466 
L 84.557513 29.900319 
L 85.645915 30.058529 
L 88.414896 30.729728 
L 90.680339 31.324227 
L 92.40933 31.704466 
L 93.576446 31.91672 
L 94.755263 32.302407 
L 96.545683 33.142902 
L 98.363094 34.261152 
L 100.828998 36.161767 
L 101.453199 36.959259 
L 102.080522 38.398667 
L 103.344592 42.404556 
L 104.621334 46.718446 
L 105.264497 48.360842 
L 105.910876 49.560401 
L 107.213345 51.229737 
L 107.869468 51.817223 
L 108.528872 52.233426 
L 109.191573 52.457009 
L 110.526931 52.589462 
L 111.875676 52.526033 
L 113.237943 52.195118 
L 114.613866 51.612893 
L 116.703657 50.338269 
L 118.824952 48.864137 
L 120.256885 47.833936 
L 120.978226 47.574821 
L 121.703173 47.583731 
L 122.431745 47.882088 
L 123.16396 48.530714 
L 123.899836 49.550842 
L 124.639392 50.954215 
L 126.129614 54.753413 
L 127.634777 58.609524 
L 129.155028 61.267531 
L 129.92086 62.177783 
L 130.69052 62.42852 
L 131.464029 61.748162 
L 132.241405 60.495183 
L 133.022669 59.497382 
L 133.807838 59.440679 
L 134.596934 60.279847 
L 135.389975 61.620734 
L 136.987972 65.210223 
L 138.601989 69.785591 
L 140.232187 74.613975 
L 141.053404 76.434482 
L 141.878728 77.790663 
L 142.708178 78.742912 
L 143.541775 78.996849 
L 144.37954 77.926716 
L 145.221494 75.399299 
L 146.067658 72.318739 
L 146.918052 70.064776 
L 147.772699 68.939909 
L 148.631619 68.60659 
L 149.494833 68.824188 
L 150.362363 69.501624 
L 151.234231 70.555161 
L 152.110459 72.012467 
L 152.991068 73.964996 
L 153.876079 76.429685 
L 154.765516 79.499667 
L 155.6594 83.547306 
L 161.117347 114.61905 
L 162.973261 121.740873 
L 163.908184 124.695196 
L 164.847781 127.078349 
L 165.792076 128.82922 
L 167.694854 131.788207 
L 169.616708 134.367267 
L 171.557828 136.436123 
L 172.535674 137.249294 
L 173.518408 137.893171 
L 174.506057 138.33682 
L 175.498643 138.565454 
L 176.496193 138.602333 
L 180.536518 138.210605 
L 180.536518 138.210605 
" clip-path="url(#p86cf687f99)" style="fill: none; stroke: #1f77b4; stroke-width: 0.5; stroke-linecap: square"/>
   </g>
   <g id="line2d_56"/>
   <g id="line2d_57">
    <path d="M 36.255379 18.758322 
L 36.657157 18.681281 
L 36.991971 18.952547 
L 37.326786 18.810458 
L 37.929452 18.969112 
L 38.398193 18.980857 
L 38.666045 19.026204 
L 39.000859 18.878982 
L 39.402637 18.98952 
L 40.072266 18.911306 
L 40.674933 18.914011 
L 41.344562 18.871141 
L 41.679376 18.977175 
L 42.014191 18.892951 
L 42.415969 19.014549 
L 42.817746 19.037633 
L 43.018635 19.022153 
L 43.487376 18.76454 
L 44.424857 18.648669 
L 44.759671 18.665659 
L 45.161449 18.618716 
L 45.630189 18.613383 
L 46.165893 18.536225 
L 46.902485 18.56829 
L 47.2373 18.43988 
L 47.70604 18.331877 
L 48.442632 18.41793 
L 49.045299 18.321587 
L 49.514039 18.394904 
L 51.656853 18.256228 
L 52.527371 18.333648 
L 52.795223 18.369734 
L 53.197 18.479444 
L 55.741591 18.591576 
L 56.746035 18.692227 
L 57.147813 18.776309 
L 57.616553 18.958364 
L 58.085294 18.931313 
L 58.888849 18.869262 
L 59.290627 18.830839 
L 61.232552 18.969853 
L 61.768255 19.158206 
L 62.638773 19.052144 
L 62.906625 19.136911 
L 63.643217 19.327205 
L 64.312846 19.376771 
L 65.116401 19.608166 
L 66.254771 19.986642 
L 66.857438 20.367938 
L 67.058326 20.335017 
L 67.460104 20.95429 
L 67.861881 21.08421 
L 68.330622 21.347612 
L 68.397585 21.369702 
L 68.799362 23.040142 
L 69.134177 23.227186 
L 69.937732 24.614184 
L 70.473436 25.941689 
L 70.741287 25.887418 
L 71.343954 26.771725 
L 73.687656 28.948844 
L 74.022471 29.223853 
L 74.22336 29.303522 
L 74.558174 29.446638 
L 75.093878 29.789167 
L 76.567062 30.415139 
L 76.96884 30.59617 
L 78.910765 30.790847 
L 79.915209 30.564675 
L 80.250023 30.413092 
L 80.85269 30.344027 
L 81.388393 30.056019 
L 81.656245 29.963353 
L 82.861577 29.815389 
L 83.330318 29.719447 
L 83.665133 29.66492 
L 84.200836 29.600528 
L 84.602614 29.539073 
L 85.138317 29.588214 
L 85.540094 29.666974 
L 85.874909 29.938303 
L 86.34365 29.94329 
L 86.611501 29.920371 
L 86.879353 29.924846 
L 87.214168 30.266611 
L 87.816834 30.17055 
L 88.352537 30.439451 
L 88.888241 30.582573 
L 89.490907 30.903668 
L 90.361425 30.913674 
L 91.031055 31.140478 
L 92.102461 31.34918 
L 92.906017 31.327748 
L 93.642609 31.43863 
L 94.312238 31.594284 
L 94.647053 31.700405 
L 95.249719 31.986075 
L 99.066606 33.98607 
L 99.267495 34.199422 
L 99.870161 35.102286 
L 100.271939 35.167928 
L 101.20942 34.564556 
L 101.67816 35.704741 
L 103.017419 40.567866 
L 103.754011 44.0841 
L 104.825418 48.627557 
L 105.160232 49.495951 
L 105.628973 50.345193 
L 107.771787 52.784552 
L 108.642305 53.365946 
L 110.048526 53.26872 
L 112.124377 53.052546 
L 112.526155 52.824515 
L 112.794006 52.758332 
L 113.262747 52.605349 
L 114.334154 52.0491 
L 115.204672 51.495638 
L 115.740375 50.998675 
L 116.343042 50.473093 
L 116.811782 50.171123 
L 119.624225 47.456706 
L 120.494743 46.392509 
L 121.097409 46.134979 
L 121.700076 46.057816 
L 122.302742 46.109897 
L 122.972371 46.599733 
L 123.909852 47.985734 
L 124.847333 50.092053 
L 125.583926 52.36578 
L 126.119629 54.317591 
L 127.191036 58.251866 
L 127.726739 59.708746 
L 128.865109 61.728887 
L 129.936516 63.78173 
L 130.472219 64.461947 
L 130.673108 64.533262 
L 131.342737 63.253596 
L 133.150737 56.970783 
L 133.418588 56.833592 
L 133.887329 57.082093 
L 134.088218 57.379204 
L 134.690884 58.750007 
L 135.360513 60.101199 
L 137.905104 67.158614 
L 138.842585 70.725289 
L 139.980955 75.421369 
L 140.717547 77.674268 
L 143.396065 82.391009 
L 143.797842 82.473563 
L 144.132657 81.949764 
L 144.534434 80.622379 
L 145.003175 78.108265 
L 145.538878 74.240541 
L 146.208508 69.473777 
L 146.543322 68.011454 
L 146.9451 67.077004 
L 147.279914 66.734716 
L 147.882581 66.086582 
L 148.016507 66.107049 
L 148.150432 65.86625 
L 148.217395 65.897775 
L 148.284358 65.964693 
L 148.418284 65.800933 
L 148.55221 65.896258 
L 148.619173 65.817961 
L 148.820062 66.031 
L 149.154876 65.925961 
L 149.221839 66.145706 
L 149.288802 66.043638 
L 149.69058 66.1881 
L 149.824506 65.747648 
L 150.092357 66.863327 
L 150.561098 66.975641 
L 150.761987 67.456484 
L 150.895913 67.53749 
L 151.096801 67.766217 
L 151.230727 67.764622 
L 151.29769 67.700602 
L 151.498579 68.158398 
L 151.565542 68.140584 
L 151.833393 68.785308 
L 151.967319 68.83237 
L 152.101245 69.221819 
L 152.235171 69.17353 
L 152.569986 70.172334 
L 152.770874 70.615132 
L 153.373541 72.097269 
L 154.04317 74.08157 
L 154.177096 74.344015 
L 155.449392 79.105765 
L 156.453836 85.885649 
L 157.592205 96.177694 
L 157.993983 98.015063 
L 158.39576 99.249785 
L 158.596649 100.230871 
L 160.739463 116.184526 
L 161.409092 118.800945 
L 162.480499 122.979741 
L 163.351017 125.95548 
L 164.690276 130.41178 
L 164.958127 130.746388 
L 166.029534 131.803884 
L 166.364349 132.242129 
L 166.699164 132.640631 
L 167.368793 133.683056 
L 168.105385 134.667458 
L 168.507163 135.281519 
L 171.65442 138.776326 
L 172.457975 139.373038 
L 173.797234 140.21776 
L 175.605233 140.549764 
L 176.877529 140.254145 
L 179.623009 139.399242 
L 180.56049 139.370559 
L 181.096193 139.338978 
L 181.832785 139.360841 
L 183.506859 139.295545 
L 183.506859 139.295545 
" clip-path="url(#p86cf687f99)" style="fill: none; stroke: #1f77b4; stroke-opacity: 0.5; stroke-width: 0.5; stroke-linecap: square"/>
   </g>
   <g id="patch_3">
    <path d="M 35.58575 146.747947 
L 35.58575 12.07875 
" style="fill: none; stroke: #000000; stroke-linejoin: miter; stroke-linecap: square"/>
   </g>
   <g id="patch_4">
    <path d="M 184.243451 146.747947 
L 184.243451 12.07875 
" style="fill: none; stroke: #000000; stroke-linejoin: miter; stroke-linecap: square"/>
   </g>
   <g id="patch_5">
    <path d="M 35.58575 146.747947 
L 184.243451 146.747947 
" style="fill: none; stroke: #000000; stroke-linejoin: miter; stroke-linecap: square"/>
   </g>
   <g id="patch_6">
    <path d="M 35.58575 12.07875 
L 184.243451 12.07875 
" style="fill: none; stroke: #000000; stroke-linejoin: miter; stroke-linecap: square"/>
   </g>
   <g id="text_12">
    <text style="font: 8px 'DejaVu Sans', 'Bitstream Vera Sans', 'Computer Modern Sans Serif', 'Lucida Grande', 'Verdana', 'Geneva', 'Lucid', 'Arial', 'Helvetica', 'Avant Garde', sans-serif; text-anchor: middle" x="109.9146" y="6.07875" transform="rotate(-0 109.9146 6.07875)">enfys Carbonates Magnesite</text>
   </g>
   <g id="legend_1">
    <g id="patch_7">
     <path d="M 191.416605 84.716786 
L 270.916605 84.716786 
Q 272.116605 84.716786 272.116605 83.516786 
L 272.116605 75.309911 
Q 272.116605 74.109911 270.916605 74.109911 
L 191.416605 74.109911 
Q 190.216605 74.109911 190.216605 75.309911 
L 190.216605 83.516786 
Q 190.216605 84.716786 191.416605 84.716786 
z
" style="fill: #ffffff; opacity: 0.8; stroke: #cccccc; stroke-width: 0.8; stroke-linejoin: miter"/>
    </g>
    <g id="line2d_58">
     <path d="M 192.616605 78.968973 
L 198.616605 78.968973 
L 204.616605 78.968973 
" style="fill: none; stroke: #1f77b4; stroke-width: 1.2; stroke-linecap: square"/>
    </g>
    <g id="text_13">
     <text style="font: 6px 'DejaVu Sans', 'Bitstream Vera Sans', 'Computer Modern Sans Serif', 'Lucida Grande', 'Verdana', 'Geneva', 'Lucid', 'Arial', 'Helvetica', 'Avant Garde', sans-serif; text-anchor: start" x="209.416605" y="81.068973" transform="rotate(-0 209.416605 81.068973)">Magnesite F1CC06B</text>
    </g>
   </g>
  </g>
 </g>
 <defs>
  <clipPath id="p86cf687f99">
   <rect x="35.58575" y="12.07875" width="148.657701" height="134.669197"/>
  </clipPath>
 </defs>
</svg>
