<?xml version="1.0" encoding="utf-8" standalone="no"?>
<!DOCTYPE svg PUBLIC "-//W3C//DTD SVG 1.1//EN"
  "http://www.w3.org/Graphics/SVG/1.1/DTD/svg11.dtd">
<svg xmlns:xlink="http://www.w3.org/1999/xlink" width="272.14668pt" height="176.855697pt" viewBox="0 0 272.14668 176.855697" xmlns="http://www.w3.org/2000/svg" version="1.1">
 <metadata>
  <rdf:RDF xmlns:dc="http://purl.org/dc/elements/1.1/" xmlns:cc="http://creativecommons.org/ns#" xmlns:rdf="http://www.w3.org/1999/02/22-rdf-syntax-ns#">
   <cc:Work>
    <dc:type rdf:resource="http://purl.org/dc/dcmitype/StillImage"/>
    <dc:date>2025-02-12T16:36:03.909601</dc:date>
    <dc:format>image/svg+xml</dc:format>
    <dc:creator>
     <cc:Agent>
      <dc:title>Matplotlib v3.6.2, https://matplotlib.org/</dc:title>
     </cc:Agent>
    </dc:creator>
   </cc:Work>
  </rdf:RDF>
 </metadata>
 <defs>
  <style type="text/css">*{stroke-linejoin: round; stroke-linecap: butt}</style>
 </defs>
 <g id="figure_1">
  <g id="patch_1">
   <path d="M -0 176.855697 
L 272.14668 176.855697 
L 272.14668 0 
L -0 0 
z
" style="fill: #ffffff"/>
  </g>
  <g id="axes_1">
   <g id="patch_2">
    <path d="M 35.58575 146.747947 
L 187.153451 146.747947 
L 187.153451 12.07875 
L 35.58575 12.07875 
z
" style="fill: #ffffff"/>
   </g>
   <g id="matplotlib.axis_1">
    <g id="xtick_1">
     <g id="line2d_1">
      <path d="M 43.095861 146.747947 
L 43.095861 12.07875 
" clip-path="url(#p255a89cda4)" style="fill: none; stroke: #b0b0b0; stroke-width: 0.6; stroke-linecap: square"/>
     </g>
     <g id="line2d_2">
      <defs>
       <path id="mc47244da0e" d="M 0 0 
L 0 4.8 
" style="stroke: #000000"/>
      </defs>
      <g>
       <use xlink:href="#mc47244da0e" x="43.095861" y="146.747947" style="stroke: #000000"/>
      </g>
     </g>
     <g id="text_1">
      <text style="font: 8.8px 'DejaVu Sans', 'Bitstream Vera Sans', 'Computer Modern Sans Serif', 'Lucida Grande', 'Verdana', 'Geneva', 'Lucid', 'Arial', 'Helvetica', 'Avant Garde', sans-serif; text-anchor: middle" x="43.095861" y="161.734572" transform="rotate(-0 43.095861 161.734572)">1000</text>
     </g>
    </g>
    <g id="xtick_2">
     <g id="line2d_3">
      <path d="M 77.232731 146.747947 
L 77.232731 12.07875 
" clip-path="url(#p255a89cda4)" style="fill: none; stroke: #b0b0b0; stroke-width: 0.6; stroke-linecap: square"/>
     </g>
     <g id="line2d_4">
      <g>
       <use xlink:href="#mc47244da0e" x="77.232731" y="146.747947" style="stroke: #000000"/>
      </g>
     </g>
     <g id="text_2">
      <text style="font: 8.8px 'DejaVu Sans', 'Bitstream Vera Sans', 'Computer Modern Sans Serif', 'Lucida Grande', 'Verdana', 'Geneva', 'Lucid', 'Arial', 'Helvetica', 'Avant Garde', sans-serif; text-anchor: middle" x="77.232731" y="161.734572" transform="rotate(-0 77.232731 161.734572)">1500</text>
     </g>
    </g>
    <g id="xtick_3">
     <g id="line2d_5">
      <path d="M 111.3696 146.747947 
L 111.3696 12.07875 
" clip-path="url(#p255a89cda4)" style="fill: none; stroke: #b0b0b0; stroke-width: 0.6; stroke-linecap: square"/>
     </g>
     <g id="line2d_6">
      <g>
       <use xlink:href="#mc47244da0e" x="111.3696" y="146.747947" style="stroke: #000000"/>
      </g>
     </g>
     <g id="text_3">
      <text style="font: 8.8px 'DejaVu Sans', 'Bitstream Vera Sans', 'Computer Modern Sans Serif', 'Lucida Grande', 'Verdana', 'Geneva', 'Lucid', 'Arial', 'Helvetica', 'Avant Garde', sans-serif; text-anchor: middle" x="111.3696" y="161.734572" transform="rotate(-0 111.3696 161.734572)">2000</text>
     </g>
    </g>
    <g id="xtick_4">
     <g id="line2d_7">
      <path d="M 145.50647 146.747947 
L 145.50647 12.07875 
" clip-path="url(#p255a89cda4)" style="fill: none; stroke: #b0b0b0; stroke-width: 0.6; stroke-linecap: square"/>
     </g>
     <g id="line2d_8">
      <g>
       <use xlink:href="#mc47244da0e" x="145.50647" y="146.747947" style="stroke: #000000"/>
      </g>
     </g>
     <g id="text_4">
      <text style="font: 8.8px 'DejaVu Sans', 'Bitstream Vera Sans', 'Computer Modern Sans Serif', 'Lucida Grande', 'Verdana', 'Geneva', 'Lucid', 'Arial', 'Helvetica', 'Avant Garde', sans-serif; text-anchor: middle" x="145.50647" y="161.734572" transform="rotate(-0 145.50647 161.734572)">2500</text>
     </g>
    </g>
    <g id="xtick_5">
     <g id="line2d_9">
      <path d="M 179.643339 146.747947 
L 179.643339 12.07875 
" clip-path="url(#p255a89cda4)" style="fill: none; stroke: #b0b0b0; stroke-width: 0.6; stroke-linecap: square"/>
     </g>
     <g id="line2d_10">
      <g>
       <use xlink:href="#mc47244da0e" x="179.643339" y="146.747947" style="stroke: #000000"/>
      </g>
     </g>
     <g id="text_5">
      <text style="font: 8.8px 'DejaVu Sans', 'Bitstream Vera Sans', 'Computer Modern Sans Serif', 'Lucida Grande', 'Verdana', 'Geneva', 'Lucid', 'Arial', 'Helvetica', 'Avant Garde', sans-serif; text-anchor: middle" x="179.643339" y="161.734572" transform="rotate(-0 179.643339 161.734572)">3000</text>
     </g>
    </g>
    <g id="xtick_6">
     <g id="line2d_11">
      <path d="M 36.268487 146.747947 
L 36.268487 12.07875 
" clip-path="url(#p255a89cda4)" style="fill: none; stroke: #b0b0b0; stroke-width: 0.3; stroke-linecap: square"/>
     </g>
     <g id="line2d_12">
      <defs>
       <path id="m800979c6a1" d="M 0 0 
L 0 3.2 
" style="stroke: #000000; stroke-width: 0.8"/>
      </defs>
      <g>
       <use xlink:href="#m800979c6a1" x="36.268487" y="146.747947" style="stroke: #000000; stroke-width: 0.8"/>
      </g>
     </g>
    </g>
    <g id="xtick_7">
     <g id="line2d_13">
      <path d="M 49.923235 146.747947 
L 49.923235 12.07875 
" clip-path="url(#p255a89cda4)" style="fill: none; stroke: #b0b0b0; stroke-width: 0.3; stroke-linecap: square"/>
     </g>
     <g id="line2d_14">
      <g>
       <use xlink:href="#m800979c6a1" x="49.923235" y="146.747947" style="stroke: #000000; stroke-width: 0.8"/>
      </g>
     </g>
    </g>
    <g id="xtick_8">
     <g id="line2d_15">
      <path d="M 56.750609 146.747947 
L 56.750609 12.07875 
" clip-path="url(#p255a89cda4)" style="fill: none; stroke: #b0b0b0; stroke-width: 0.3; stroke-linecap: square"/>
     </g>
     <g id="line2d_16">
      <g>
       <use xlink:href="#m800979c6a1" x="56.750609" y="146.747947" style="stroke: #000000; stroke-width: 0.8"/>
      </g>
     </g>
    </g>
    <g id="xtick_9">
     <g id="line2d_17">
      <path d="M 63.577983 146.747947 
L 63.577983 12.07875 
" clip-path="url(#p255a89cda4)" style="fill: none; stroke: #b0b0b0; stroke-width: 0.3; stroke-linecap: square"/>
     </g>
     <g id="line2d_18">
      <g>
       <use xlink:href="#m800979c6a1" x="63.577983" y="146.747947" style="stroke: #000000; stroke-width: 0.8"/>
      </g>
     </g>
    </g>
    <g id="xtick_10">
     <g id="line2d_19">
      <path d="M 70.405357 146.747947 
L 70.405357 12.07875 
" clip-path="url(#p255a89cda4)" style="fill: none; stroke: #b0b0b0; stroke-width: 0.3; stroke-linecap: square"/>
     </g>
     <g id="line2d_20">
      <g>
       <use xlink:href="#m800979c6a1" x="70.405357" y="146.747947" style="stroke: #000000; stroke-width: 0.8"/>
      </g>
     </g>
    </g>
    <g id="xtick_11">
     <g id="line2d_21">
      <path d="M 84.060105 146.747947 
L 84.060105 12.07875 
" clip-path="url(#p255a89cda4)" style="fill: none; stroke: #b0b0b0; stroke-width: 0.3; stroke-linecap: square"/>
     </g>
     <g id="line2d_22">
      <g>
       <use xlink:href="#m800979c6a1" x="84.060105" y="146.747947" style="stroke: #000000; stroke-width: 0.8"/>
      </g>
     </g>
    </g>
    <g id="xtick_12">
     <g id="line2d_23">
      <path d="M 90.887479 146.747947 
L 90.887479 12.07875 
" clip-path="url(#p255a89cda4)" style="fill: none; stroke: #b0b0b0; stroke-width: 0.3; stroke-linecap: square"/>
     </g>
     <g id="line2d_24">
      <g>
       <use xlink:href="#m800979c6a1" x="90.887479" y="146.747947" style="stroke: #000000; stroke-width: 0.8"/>
      </g>
     </g>
    </g>
    <g id="xtick_13">
     <g id="line2d_25">
      <path d="M 97.714853 146.747947 
L 97.714853 12.07875 
" clip-path="url(#p255a89cda4)" style="fill: none; stroke: #b0b0b0; stroke-width: 0.3; stroke-linecap: square"/>
     </g>
     <g id="line2d_26">
      <g>
       <use xlink:href="#m800979c6a1" x="97.714853" y="146.747947" style="stroke: #000000; stroke-width: 0.8"/>
      </g>
     </g>
    </g>
    <g id="xtick_14">
     <g id="line2d_27">
      <path d="M 104.542226 146.747947 
L 104.542226 12.07875 
" clip-path="url(#p255a89cda4)" style="fill: none; stroke: #b0b0b0; stroke-width: 0.3; stroke-linecap: square"/>
     </g>
     <g id="line2d_28">
      <g>
       <use xlink:href="#m800979c6a1" x="104.542226" y="146.747947" style="stroke: #000000; stroke-width: 0.8"/>
      </g>
     </g>
    </g>
    <g id="xtick_15">
     <g id="line2d_29">
      <path d="M 118.196974 146.747947 
L 118.196974 12.07875 
" clip-path="url(#p255a89cda4)" style="fill: none; stroke: #b0b0b0; stroke-width: 0.3; stroke-linecap: square"/>
     </g>
     <g id="line2d_30">
      <g>
       <use xlink:href="#m800979c6a1" x="118.196974" y="146.747947" style="stroke: #000000; stroke-width: 0.8"/>
      </g>
     </g>
    </g>
    <g id="xtick_16">
     <g id="line2d_31">
      <path d="M 125.024348 146.747947 
L 125.024348 12.07875 
" clip-path="url(#p255a89cda4)" style="fill: none; stroke: #b0b0b0; stroke-width: 0.3; stroke-linecap: square"/>
     </g>
     <g id="line2d_32">
      <g>
       <use xlink:href="#m800979c6a1" x="125.024348" y="146.747947" style="stroke: #000000; stroke-width: 0.8"/>
      </g>
     </g>
    </g>
    <g id="xtick_17">
     <g id="line2d_33">
      <path d="M 131.851722 146.747947 
L 131.851722 12.07875 
" clip-path="url(#p255a89cda4)" style="fill: none; stroke: #b0b0b0; stroke-width: 0.3; stroke-linecap: square"/>
     </g>
     <g id="line2d_34">
      <g>
       <use xlink:href="#m800979c6a1" x="131.851722" y="146.747947" style="stroke: #000000; stroke-width: 0.8"/>
      </g>
     </g>
    </g>
    <g id="xtick_18">
     <g id="line2d_35">
      <path d="M 138.679096 146.747947 
L 138.679096 12.07875 
" clip-path="url(#p255a89cda4)" style="fill: none; stroke: #b0b0b0; stroke-width: 0.3; stroke-linecap: square"/>
     </g>
     <g id="line2d_36">
      <g>
       <use xlink:href="#m800979c6a1" x="138.679096" y="146.747947" style="stroke: #000000; stroke-width: 0.8"/>
      </g>
     </g>
    </g>
    <g id="xtick_19">
     <g id="line2d_37">
      <path d="M 152.333844 146.747947 
L 152.333844 12.07875 
" clip-path="url(#p255a89cda4)" style="fill: none; stroke: #b0b0b0; stroke-width: 0.3; stroke-linecap: square"/>
     </g>
     <g id="line2d_38">
      <g>
       <use xlink:href="#m800979c6a1" x="152.333844" y="146.747947" style="stroke: #000000; stroke-width: 0.8"/>
      </g>
     </g>
    </g>
    <g id="xtick_20">
     <g id="line2d_39">
      <path d="M 159.161218 146.747947 
L 159.161218 12.07875 
" clip-path="url(#p255a89cda4)" style="fill: none; stroke: #b0b0b0; stroke-width: 0.3; stroke-linecap: square"/>
     </g>
     <g id="line2d_40">
      <g>
       <use xlink:href="#m800979c6a1" x="159.161218" y="146.747947" style="stroke: #000000; stroke-width: 0.8"/>
      </g>
     </g>
    </g>
    <g id="xtick_21">
     <g id="line2d_41">
      <path d="M 165.988592 146.747947 
L 165.988592 12.07875 
" clip-path="url(#p255a89cda4)" style="fill: none; stroke: #b0b0b0; stroke-width: 0.3; stroke-linecap: square"/>
     </g>
     <g id="line2d_42">
      <g>
       <use xlink:href="#m800979c6a1" x="165.988592" y="146.747947" style="stroke: #000000; stroke-width: 0.8"/>
      </g>
     </g>
    </g>
    <g id="xtick_22">
     <g id="line2d_43">
      <path d="M 172.815966 146.747947 
L 172.815966 12.07875 
" clip-path="url(#p255a89cda4)" style="fill: none; stroke: #b0b0b0; stroke-width: 0.3; stroke-linecap: square"/>
     </g>
     <g id="line2d_44">
      <g>
       <use xlink:href="#m800979c6a1" x="172.815966" y="146.747947" style="stroke: #000000; stroke-width: 0.8"/>
      </g>
     </g>
    </g>
    <g id="xtick_23">
     <g id="line2d_45">
      <path d="M 186.470713 146.747947 
L 186.470713 12.07875 
" clip-path="url(#p255a89cda4)" style="fill: none; stroke: #b0b0b0; stroke-width: 0.3; stroke-linecap: square"/>
     </g>
     <g id="line2d_46">
      <g>
       <use xlink:href="#m800979c6a1" x="186.470713" y="146.747947" style="stroke: #000000; stroke-width: 0.8"/>
      </g>
     </g>
    </g>
    <g id="text_6">
     <text style="font: 9.6px 'DejaVu Sans', 'Bitstream Vera Sans', 'Computer Modern Sans Serif', 'Lucida Grande', 'Verdana', 'Geneva', 'Lucid', 'Arial', 'Helvetica', 'Avant Garde', sans-serif; text-anchor: middle" x="111.3696" y="174.859197" transform="rotate(-0 111.3696 174.859197)">Wavelength (nm)</text>
    </g>
   </g>
   <g id="matplotlib.axis_2">
    <g id="ytick_1">
     <g id="line2d_47">
      <path d="M 35.58575 145.014058 
L 187.153451 145.014058 
" clip-path="url(#p255a89cda4)" style="fill: none; stroke: #b0b0b0; stroke-width: 0.6; stroke-linecap: square"/>
     </g>
     <g id="line2d_48">
      <defs>
       <path id="m7346d6a27e" d="M 0 0 
L -4.8 0 
" style="stroke: #000000"/>
      </defs>
      <g>
       <use xlink:href="#m7346d6a27e" x="35.58575" y="145.014058" style="stroke: #000000"/>
      </g>
     </g>
     <g id="text_7">
      <text style="font: 8.8px 'DejaVu Sans', 'Bitstream Vera Sans', 'Computer Modern Sans Serif', 'Lucida Grande', 'Verdana', 'Geneva', 'Lucid', 'Arial', 'Helvetica', 'Avant Garde', sans-serif; text-anchor: end" x="27.28575" y="148.357371" transform="rotate(-0 27.28575 148.357371)">0.0</text>
     </g>
    </g>
    <g id="ytick_2">
     <g id="line2d_49">
      <path d="M 35.58575 121.218844 
L 187.153451 121.218844 
" clip-path="url(#p255a89cda4)" style="fill: none; stroke: #b0b0b0; stroke-width: 0.6; stroke-linecap: square"/>
     </g>
     <g id="line2d_50">
      <g>
       <use xlink:href="#m7346d6a27e" x="35.58575" y="121.218844" style="stroke: #000000"/>
      </g>
     </g>
     <g id="text_8">
      <text style="font: 8.8px 'DejaVu Sans', 'Bitstream Vera Sans', 'Computer Modern Sans Serif', 'Lucida Grande', 'Verdana', 'Geneva', 'Lucid', 'Arial', 'Helvetica', 'Avant Garde', sans-serif; text-anchor: end" x="27.28575" y="124.562157" transform="rotate(-0 27.28575 124.562157)">0.1</text>
     </g>
    </g>
    <g id="ytick_3">
     <g id="line2d_51">
      <path d="M 35.58575 97.42363 
L 187.153451 97.42363 
" clip-path="url(#p255a89cda4)" style="fill: none; stroke: #b0b0b0; stroke-width: 0.6; stroke-linecap: square"/>
     </g>
     <g id="line2d_52">
      <g>
       <use xlink:href="#m7346d6a27e" x="35.58575" y="97.42363" style="stroke: #000000"/>
      </g>
     </g>
     <g id="text_9">
      <text style="font: 8.8px 'DejaVu Sans', 'Bitstream Vera Sans', 'Computer Modern Sans Serif', 'Lucida Grande', 'Verdana', 'Geneva', 'Lucid', 'Arial', 'Helvetica', 'Avant Garde', sans-serif; text-anchor: end" x="27.28575" y="100.766942" transform="rotate(-0 27.28575 100.766942)">0.2</text>
     </g>
    </g>
    <g id="ytick_4">
     <g id="line2d_53">
      <path d="M 35.58575 73.628415 
L 187.153451 73.628415 
" clip-path="url(#p255a89cda4)" style="fill: none; stroke: #b0b0b0; stroke-width: 0.6; stroke-linecap: square"/>
     </g>
     <g id="line2d_54">
      <g>
       <use xlink:href="#m7346d6a27e" x="35.58575" y="73.628415" style="stroke: #000000"/>
      </g>
     </g>
     <g id="text_10">
      <text style="font: 8.8px 'DejaVu Sans', 'Bitstream Vera Sans', 'Computer Modern Sans Serif', 'Lucida Grande', 'Verdana', 'Geneva', 'Lucid', 'Arial', 'Helvetica', 'Avant Garde', sans-serif; text-anchor: end" x="27.28575" y="76.971728" transform="rotate(-0 27.28575 76.971728)">0.3</text>
     </g>
    </g>
    <g id="ytick_5">
     <g id="line2d_55">
      <path d="M 35.58575 49.833201 
L 187.153451 49.833201 
" clip-path="url(#p255a89cda4)" style="fill: none; stroke: #b0b0b0; stroke-width: 0.6; stroke-linecap: square"/>
     </g>
     <g id="line2d_56">
      <g>
       <use xlink:href="#m7346d6a27e" x="35.58575" y="49.833201" style="stroke: #000000"/>
      </g>
     </g>
     <g id="text_11">
      <text style="font: 8.8px 'DejaVu Sans', 'Bitstream Vera Sans', 'Computer Modern Sans Serif', 'Lucida Grande', 'Verdana', 'Geneva', 'Lucid', 'Arial', 'Helvetica', 'Avant Garde', sans-serif; text-anchor: end" x="27.28575" y="53.176514" transform="rotate(-0 27.28575 53.176514)">0.4</text>
     </g>
    </g>
    <g id="ytick_6">
     <g id="line2d_57">
      <path d="M 35.58575 26.037987 
L 187.153451 26.037987 
" clip-path="url(#p255a89cda4)" style="fill: none; stroke: #b0b0b0; stroke-width: 0.6; stroke-linecap: square"/>
     </g>
     <g id="line2d_58">
      <g>
       <use xlink:href="#m7346d6a27e" x="35.58575" y="26.037987" style="stroke: #000000"/>
      </g>
     </g>
     <g id="text_12">
      <text style="font: 8.8px 'DejaVu Sans', 'Bitstream Vera Sans', 'Computer Modern Sans Serif', 'Lucida Grande', 'Verdana', 'Geneva', 'Lucid', 'Arial', 'Helvetica', 'Avant Garde', sans-serif; text-anchor: end" x="27.28575" y="29.381299" transform="rotate(-0 27.28575 29.381299)">0.5</text>
     </g>
    </g>
    <g id="text_13">
     <text style="font: 9.6px 'DejaVu Sans', 'Bitstream Vera Sans', 'Computer Modern Sans Serif', 'Lucida Grande', 'Verdana', 'Geneva', 'Lucid', 'Arial', 'Helvetica', 'Avant Garde', sans-serif; text-anchor: middle" x="7.2945" y="79.413348" transform="rotate(-90 7.2945 79.413348)">Reflectance</text>
    </g>
   </g>
   <g id="line2d_59">
    <path d="M 36.889158 49.26447 
L 38.456428 48.717754 
L 40.38948 47.0265 
L 41.710695 45.551457 
L 42.719049 44.913532 
L 44.433531 44.078253 
L 45.131385 43.770304 
L 49.096535 43.297989 
L 50.593201 42.752082 
L 52.894938 41.645859 
L 54.071896 41.032243 
L 58.541253 37.406152 
L 59.380537 36.793404 
L 61.515743 34.941022 
L 62.82266 33.893936 
L 63.704865 33.04426 
L 66.404902 31.292136 
L 66.862816 31.224853 
L 67.323019 31.324222 
L 67.785524 31.604024 
L 68.250341 32.073335 
L 68.717482 33.424698 
L 69.186958 36.187159 
L 69.658783 38.265153 
L 70.132966 38.007142 
L 71.569789 31.944525 
L 72.539684 29.64157 
L 73.519303 28.058566 
L 74.508742 26.923515 
L 77.536973 24.451177 
L 79.085412 23.535007 
L 81.718191 22.154108 
L 82.789824 21.667901 
L 89.449036 19.434368 
L 91.177051 19.10948 
L 94.115159 19.055747 
L 96.518973 19.371836 
L 98.353568 19.366293 
L 100.21582 19.581669 
L 101.472892 20.255195 
L 102.106146 20.677547 
L 102.742566 21.425936 
L 103.382168 22.630388 
L 104.670983 25.8034 
L 105.320227 27.358039 
L 105.972718 28.255661 
L 106.628471 28.594131 
L 109.284434 28.895463 
L 109.956746 28.906385 
L 110.632419 28.708719 
L 111.993917 27.824714 
L 114.757998 25.949122 
L 115.457677 25.587692 
L 116.160855 25.531205 
L 116.867549 25.75149 
L 119.008901 27.226702 
L 119.729835 27.449442 
L 120.454374 27.549769 
L 121.182535 27.385403 
L 121.914337 27.040947 
L 122.649798 26.88985 
L 123.388936 26.980026 
L 124.13177 27.304297 
L 124.878319 27.86669 
L 125.6286 28.764947 
L 126.382632 30.169558 
L 127.140435 32.304122 
L 128.667426 37.474096 
L 130.209725 42.676006 
L 131.767486 48.260698 
L 133.340863 54.705986 
L 134.133456 55.697665 
L 134.930013 53.895907 
L 135.730553 51.212707 
L 136.535095 50.190353 
L 137.34366 50.687914 
L 139.793692 53.171767 
L 140.61855 54.257196 
L 141.447532 55.10659 
L 142.280659 55.424418 
L 143.117952 56.055346 
L 143.959431 57.52597 
L 145.655033 60.939569 
L 146.509197 61.722927 
L 148.23036 61.463226 
L 149.097401 61.663529 
L 149.968778 61.745943 
L 151.724623 61.147004 
L 152.609135 61.264964 
L 153.49807 62.045146 
L 154.39145 63.835971 
L 155.289297 67.374199 
L 156.191633 73.24935 
L 157.09848 82.724911 
L 158.925801 114.03484 
L 159.846319 124.507468 
L 160.77144 128.578359 
L 161.701187 129.641119 
L 162.635582 129.463427 
L 166.420117 126.584525 
L 172.240387 120.94138 
L 176.218464 117.548874 
L 182.336383 111.825462 
L 183.373955 110.977003 
L 183.373955 110.977003 
" clip-path="url(#p255a89cda4)" style="fill: none; stroke: #1f77b4; stroke-width: 0.5; stroke-linecap: square"/>
   </g>
   <g id="line2d_60"/>
   <g id="line2d_61">
    <path d="M 36.268487 49.696142 
L 36.814677 49.612954 
L 37.019499 49.576403 
L 37.497415 49.254118 
L 37.838783 49.040773 
L 37.975331 48.928746 
L 38.3167 49.495069 
L 38.862889 48.562821 
L 39.135984 48.416052 
L 39.545627 48.273712 
L 39.818722 48.009394 
L 42.003481 45.304305 
L 43.778599 44.394332 
L 44.188241 44.32651 
L 45.0758 43.585339 
L 45.212347 43.617036 
L 45.553716 43.869742 
L 46.031632 43.592241 
L 46.509548 43.591954 
L 46.850917 44.087368 
L 47.192286 43.235981 
L 47.533654 43.879877 
L 47.601928 43.790693 
L 47.943297 43.448327 
L 48.967403 43.5604 
L 49.377045 43.433337 
L 49.786688 43.250018 
L 50.19633 43.104869 
L 50.469425 43.078787 
L 50.605973 43.082974 
L 50.947341 42.447878 
L 51.015615 42.498086 
L 51.356984 42.656087 
L 52.585911 41.769716 
L 52.654185 41.677866 
L 52.722459 41.733357 
L 52.995553 41.955322 
L 53.336922 41.397084 
L 53.405196 41.482462 
L 53.678291 41.823973 
L 54.565849 40.74162 
L 55.863051 39.721856 
L 56.40924 39.100132 
L 56.750609 39.24243 
L 57.365073 38.327072 
L 58.320905 37.476681 
L 59.14019 37.139885 
L 60.710486 35.290374 
L 60.915307 35.140796 
L 61.188402 35.321454 
L 61.87114 34.47601 
L 62.212508 34.665176 
L 62.758698 33.959178 
L 62.963519 33.726128 
L 63.509709 32.863026 
L 63.782804 32.695841 
L 64.192447 32.632258 
L 64.328994 32.541122 
L 65.421374 31.264464 
L 65.967564 30.972165 
L 66.44548 30.727023 
L 66.718575 30.68172 
L 67.059944 30.412595 
L 67.469586 30.73069 
L 67.742681 30.985343 
L 68.08405 30.881833 
L 68.63024 30.391462 
L 68.698513 30.347061 
L 69.244703 39.365356 
L 69.449525 42.3577 
L 69.927441 43.532418 
L 70.063988 43.731154 
L 70.678452 36.47233 
L 71.156368 33.201158 
L 71.770832 30.641409 
L 72.248748 29.779879 
L 72.65839 28.951664 
L 73.409401 27.716738 
L 73.955591 26.992363 
L 74.911424 26.125411 
L 75.321066 26.029755 
L 75.525887 26.06987 
L 76.140351 25.02688 
L 76.345172 24.917565 
L 76.618267 24.805443 
L 77.164457 24.319259 
L 78.120289 23.619152 
L 78.393384 23.43479 
L 78.734753 23.33561 
L 79.212669 23.152391 
L 79.622312 22.968405 
L 80.100228 22.729784 
L 80.50987 22.463665 
L 81.329155 22.12962 
L 81.807071 21.655239 
L 82.284988 21.40663 
L 82.489809 21.379121 
L 82.762904 21.327432 
L 83.104272 21.062118 
L 83.445641 21.217317 
L 84.264926 20.808465 
L 84.469747 20.794852 
L 85.084211 20.205774 
L 85.562127 20.326761 
L 87.200697 19.600622 
L 87.610339 19.47622 
L 87.951708 19.493206 
L 88.36135 19.283336 
L 88.702719 19.168263 
L 89.317183 19.027536 
L 89.863373 18.742139 
L 90.273015 18.811857 
L 90.955752 18.428994 
L 91.365395 18.65143 
L 92.73087 18.436174 
L 93.345333 18.276078 
L 93.686702 18.553814 
L 94.164618 18.469439 
L 94.437713 18.575471 
L 94.779082 18.683645 
L 95.188724 18.69493 
L 96.690746 19.014823 
L 97.168663 18.756552 
L 99.148601 18.776312 
L 99.48997 18.845792 
L 99.899612 18.495425 
L 100.445802 18.518699 
L 100.991992 19.136567 
L 101.401634 19.280383 
L 101.606456 19.405691 
L 101.947824 19.580162 
L 102.152646 19.590442 
L 102.494014 18.806615 
L 103.176752 21.46954 
L 103.722942 22.333353 
L 103.927763 22.919003 
L 105.361511 28.900266 
L 105.634606 29.085487 
L 106.044249 29.555587 
L 106.317344 29.525843 
L 106.79526 29.257953 
L 107.068355 29.098336 
L 107.34145 28.927824 
L 108.092461 28.989117 
L 108.502103 28.909163 
L 108.706925 28.89303 
L 109.321388 29.184192 
L 110.277221 29.361225 
L 110.413768 29.301022 
L 111.233053 28.404706 
L 111.574422 28.128823 
L 111.847517 27.862411 
L 112.530254 27.079362 
L 112.939896 26.803669 
L 113.212991 26.61064 
L 114.032276 25.886222 
L 114.510192 25.493885 
L 115.397751 24.261574 
L 115.534298 24.196805 
L 116.421857 24.45056 
L 116.558405 24.44875 
L 116.899773 24.312828 
L 117.241142 24.796777 
L 117.787332 25.936669 
L 118.128701 26.292024 
L 118.811438 26.776877 
L 119.76727 26.943061 
L 119.972092 26.957433 
L 120.381734 27.309124 
L 120.85965 27.264628 
L 120.996198 27.161072 
L 121.40584 26.503086 
L 121.815482 25.802931 
L 122.361672 25.269302 
L 122.839589 25.407845 
L 123.04441 25.318282 
L 123.317505 24.962684 
L 123.727147 25.455713 
L 124.341611 25.437873 
L 125.160896 25.9351 
L 125.365717 25.826447 
L 126.116728 27.214613 
L 126.458097 27.606279 
L 126.936013 29.0092 
L 127.209108 30.360959 
L 128.16494 35.71712 
L 128.915951 37.270091 
L 129.120773 37.202702 
L 129.598689 39.842589 
L 130.008331 42.281979 
L 130.3497 43.188482 
L 130.827616 44.3396 
L 132.193091 50.322196 
L 133.080649 57.718221 
L 133.490292 60.767909 
L 133.695113 61.408002 
L 133.968208 61.694593 
L 134.241303 61.549728 
L 134.582672 60.23766 
L 135.743325 48.460406 
L 136.084694 47.225767 
L 136.289515 46.877834 
L 136.767431 48.072829 
L 137.313621 49.861516 
L 138.610822 51.650439 
L 138.679096 51.762038 
L 138.74737 51.70631 
L 139.020465 51.483398 
L 139.088738 51.569109 
L 140.044571 52.918014 
L 141.000403 55.322807 
L 141.205224 55.710765 
L 141.410046 55.884803 
L 141.478319 55.803232 
L 141.956236 55.063056 
L 142.570699 54.006214 
L 142.843794 53.857162 
L 143.185163 54.230601 
L 143.731353 55.867717 
L 144.823733 59.359616 
L 145.233375 60.445485 
L 145.847839 62.999994 
L 146.189207 63.569047 
L 146.257481 63.505653 
L 146.59885 63.091293 
L 147.827777 60.460479 
L 147.964325 60.400902 
L 148.920157 60.635142 
L 149.124978 60.933943 
L 149.671168 61.610689 
L 149.875989 61.398828 
L 150.627 59.999219 
L 151.036643 59.374335 
L 151.378012 58.951477 
L 151.787654 58.138735 
L 152.060749 57.69249 
L 152.333844 57.484052 
L 153.084855 57.303829 
L 153.90414 57.120188 
L 154.177235 57.188907 
L 154.655151 57.781766 
L 154.99652 58.643323 
L 155.474436 60.833997 
L 156.293721 65.695322 
L 156.635089 67.508282 
L 157.044732 71.020223 
L 157.317827 75.326507 
L 157.659195 84.491098 
L 159.161218 134.093726 
L 159.434313 138.008099 
L 159.843955 140.249472 
L 160.048776 140.62662 
L 160.185324 140.511629 
L 160.526693 139.798555 
L 161.072882 138.367762 
L 162.574905 135.514254 
L 163.39419 133.318156 
L 163.872106 132.489251 
L 164.418296 131.827154 
L 164.759664 131.49033 
L 167.217519 128.455797 
L 168.173351 126.944906 
L 171.382217 123.052571 
L 172.338049 122.150133 
L 172.952513 121.542133 
L 173.908345 120.745979 
L 177.731675 116.824386 
L 178.277865 116.241299 
L 181.145362 113.093026 
L 182.852205 111.392832 
L 184.900417 109.542358 
L 186.40244 108.51397 
L 186.40244 108.51397 
" clip-path="url(#p255a89cda4)" style="fill: none; stroke: #1f77b4; stroke-opacity: 0.5; stroke-width: 0.5; stroke-linecap: square"/>
   </g>
   <g id="patch_3">
    <path d="M 35.58575 146.747947 
L 35.58575 12.07875 
" style="fill: none; stroke: #000000; stroke-linejoin: miter; stroke-linecap: square"/>
   </g>
   <g id="patch_4">
    <path d="M 187.153451 146.747947 
L 187.153451 12.07875 
" style="fill: none; stroke: #000000; stroke-linejoin: miter; stroke-linecap: square"/>
   </g>
   <g id="patch_5">
    <path d="M 35.58575 146.747947 
L 187.153451 146.747947 
" style="fill: none; stroke: #000000; stroke-linejoin: miter; stroke-linecap: square"/>
   </g>
   <g id="patch_6">
    <path d="M 35.58575 12.07875 
L 187.153451 12.07875 
" style="fill: none; stroke: #000000; stroke-linejoin: miter; stroke-linecap: square"/>
   </g>
   <g id="text_14">
    <text style="font: 8px 'DejaVu Sans', 'Bitstream Vera Sans', 'Computer Modern Sans Serif', 'Lucida Grande', 'Verdana', 'Geneva', 'Lucid', 'Arial', 'Helvetica', 'Avant Garde', sans-serif; text-anchor: middle" x="111.3696" y="6.07875" transform="rotate(-0 111.3696 6.07875)">enfys Phyllosilicate Serpentine</text>
   </g>
   <g id="legend_1">
    <g id="patch_7">
     <path d="M 194.384805 84.716786 
L 270.94668 84.716786 
Q 272.14668 84.716786 272.14668 83.516786 
L 272.14668 75.309911 
Q 272.14668 74.109911 270.94668 74.109911 
L 194.384805 74.109911 
Q 193.184805 74.109911 193.184805 75.309911 
L 193.184805 83.516786 
Q 193.184805 84.716786 194.384805 84.716786 
z
" style="fill: #ffffff; opacity: 0.8; stroke: #cccccc; stroke-width: 0.8; stroke-linejoin: miter"/>
    </g>
    <g id="line2d_62">
     <path d="M 195.584805 78.968973 
L 201.584805 78.968973 
L 207.584805 78.968973 
" style="fill: none; stroke: #1f77b4; stroke-width: 1.2; stroke-linecap: square"/>
    </g>
    <g id="text_15">
     <text style="font: 6px 'DejaVu Sans', 'Bitstream Vera Sans', 'Computer Modern Sans Serif', 'Lucida Grande', 'Verdana', 'Geneva', 'Lucid', 'Arial', 'Helvetica', 'Avant Garde', sans-serif; text-anchor: start" x="212.384805" y="81.068973" transform="rotate(-0 212.384805 81.068973)">Serpentine LALZ01</text>
    </g>
   </g>
  </g>
 </g>
 <defs>
  <clipPath id="p255a89cda4">
   <rect x="35.58575" y="12.07875" width="151.567701" height="134.669197"/>
  </clipPath>
 </defs>
</svg>
