<?xml version="1.0" encoding="utf-8" standalone="no"?>
<!DOCTYPE svg PUBLIC "-//W3C//DTD SVG 1.1//EN"
  "http://www.w3.org/Graphics/SVG/1.1/DTD/svg11.dtd">
<svg xmlns:xlink="http://www.w3.org/1999/xlink" width="272.200005pt" height="176.855697pt" viewBox="0 0 272.200005 176.855697" xmlns="http://www.w3.org/2000/svg" version="1.1">
 <metadata>
  <rdf:RDF xmlns:dc="http://purl.org/dc/elements/1.1/" xmlns:cc="http://creativecommons.org/ns#" xmlns:rdf="http://www.w3.org/1999/02/22-rdf-syntax-ns#">
   <cc:Work>
    <dc:type rdf:resource="http://purl.org/dc/dcmitype/StillImage"/>
    <dc:date>2025-02-12T16:36:02.609813</dc:date>
    <dc:format>image/svg+xml</dc:format>
    <dc:creator>
     <cc:Agent>
      <dc:title>Matplotlib v3.6.2, https://matplotlib.org/</dc:title>
     </cc:Agent>
    </dc:creator>
   </cc:Work>
  </rdf:RDF>
 </metadata>
 <defs>
  <style type="text/css">*{stroke-linejoin: round; stroke-linecap: butt}</style>
 </defs>
 <g id="figure_1">
  <g id="patch_1">
   <path d="M -0 176.855697 
L 272.200005 176.855697 
L 272.200005 0 
L -0 0 
z
" style="fill: #ffffff"/>
  </g>
  <g id="axes_1">
   <g id="patch_2">
    <path d="M 35.58575 146.747947 
L 193.663451 146.747947 
L 193.663451 12.07875 
L 35.58575 12.07875 
z
" style="fill: #ffffff"/>
   </g>
   <g id="matplotlib.axis_1">
    <g id="xtick_1">
     <g id="line2d_1">
      <path d="M 43.418429 146.747947 
L 43.418429 12.07875 
" clip-path="url(#p8827a1521e)" style="fill: none; stroke: #b0b0b0; stroke-width: 0.6; stroke-linecap: square"/>
     </g>
     <g id="line2d_2">
      <defs>
       <path id="m12b48c2030" d="M 0 0 
L 0 4.8 
" style="stroke: #000000"/>
      </defs>
      <g>
       <use xlink:href="#m12b48c2030" x="43.418429" y="146.747947" style="stroke: #000000"/>
      </g>
     </g>
     <g id="text_1">
      <text style="font: 8.8px 'DejaVu Sans', 'Bitstream Vera Sans', 'Computer Modern Sans Serif', 'Lucida Grande', 'Verdana', 'Geneva', 'Lucid', 'Arial', 'Helvetica', 'Avant Garde', sans-serif; text-anchor: middle" x="43.418429" y="161.734572" transform="rotate(-0 43.418429 161.734572)">1000</text>
     </g>
    </g>
    <g id="xtick_2">
     <g id="line2d_3">
      <path d="M 79.021515 146.747947 
L 79.021515 12.07875 
" clip-path="url(#p8827a1521e)" style="fill: none; stroke: #b0b0b0; stroke-width: 0.6; stroke-linecap: square"/>
     </g>
     <g id="line2d_4">
      <g>
       <use xlink:href="#m12b48c2030" x="79.021515" y="146.747947" style="stroke: #000000"/>
      </g>
     </g>
     <g id="text_2">
      <text style="font: 8.8px 'DejaVu Sans', 'Bitstream Vera Sans', 'Computer Modern Sans Serif', 'Lucida Grande', 'Verdana', 'Geneva', 'Lucid', 'Arial', 'Helvetica', 'Avant Garde', sans-serif; text-anchor: middle" x="79.021515" y="161.734572" transform="rotate(-0 79.021515 161.734572)">1500</text>
     </g>
    </g>
    <g id="xtick_3">
     <g id="line2d_5">
      <path d="M 114.6246 146.747947 
L 114.6246 12.07875 
" clip-path="url(#p8827a1521e)" style="fill: none; stroke: #b0b0b0; stroke-width: 0.6; stroke-linecap: square"/>
     </g>
     <g id="line2d_6">
      <g>
       <use xlink:href="#m12b48c2030" x="114.6246" y="146.747947" style="stroke: #000000"/>
      </g>
     </g>
     <g id="text_3">
      <text style="font: 8.8px 'DejaVu Sans', 'Bitstream Vera Sans', 'Computer Modern Sans Serif', 'Lucida Grande', 'Verdana', 'Geneva', 'Lucid', 'Arial', 'Helvetica', 'Avant Garde', sans-serif; text-anchor: middle" x="114.6246" y="161.734572" transform="rotate(-0 114.6246 161.734572)">2000</text>
     </g>
    </g>
    <g id="xtick_4">
     <g id="line2d_7">
      <path d="M 150.227686 146.747947 
L 150.227686 12.07875 
" clip-path="url(#p8827a1521e)" style="fill: none; stroke: #b0b0b0; stroke-width: 0.6; stroke-linecap: square"/>
     </g>
     <g id="line2d_8">
      <g>
       <use xlink:href="#m12b48c2030" x="150.227686" y="146.747947" style="stroke: #000000"/>
      </g>
     </g>
     <g id="text_4">
      <text style="font: 8.8px 'DejaVu Sans', 'Bitstream Vera Sans', 'Computer Modern Sans Serif', 'Lucida Grande', 'Verdana', 'Geneva', 'Lucid', 'Arial', 'Helvetica', 'Avant Garde', sans-serif; text-anchor: middle" x="150.227686" y="161.734572" transform="rotate(-0 150.227686 161.734572)">2500</text>
     </g>
    </g>
    <g id="xtick_5">
     <g id="line2d_9">
      <path d="M 185.830772 146.747947 
L 185.830772 12.07875 
" clip-path="url(#p8827a1521e)" style="fill: none; stroke: #b0b0b0; stroke-width: 0.6; stroke-linecap: square"/>
     </g>
     <g id="line2d_10">
      <g>
       <use xlink:href="#m12b48c2030" x="185.830772" y="146.747947" style="stroke: #000000"/>
      </g>
     </g>
     <g id="text_5">
      <text style="font: 8.8px 'DejaVu Sans', 'Bitstream Vera Sans', 'Computer Modern Sans Serif', 'Lucida Grande', 'Verdana', 'Geneva', 'Lucid', 'Arial', 'Helvetica', 'Avant Garde', sans-serif; text-anchor: middle" x="185.830772" y="161.734572" transform="rotate(-0 185.830772 161.734572)">3000</text>
     </g>
    </g>
    <g id="xtick_6">
     <g id="line2d_11">
      <path d="M 36.297812 146.747947 
L 36.297812 12.07875 
" clip-path="url(#p8827a1521e)" style="fill: none; stroke: #b0b0b0; stroke-width: 0.3; stroke-linecap: square"/>
     </g>
     <g id="line2d_12">
      <defs>
       <path id="mef7b20b26a" d="M 0 0 
L 0 3.2 
" style="stroke: #000000; stroke-width: 0.8"/>
      </defs>
      <g>
       <use xlink:href="#mef7b20b26a" x="36.297812" y="146.747947" style="stroke: #000000; stroke-width: 0.8"/>
      </g>
     </g>
    </g>
    <g id="xtick_7">
     <g id="line2d_13">
      <path d="M 50.539046 146.747947 
L 50.539046 12.07875 
" clip-path="url(#p8827a1521e)" style="fill: none; stroke: #b0b0b0; stroke-width: 0.3; stroke-linecap: square"/>
     </g>
     <g id="line2d_14">
      <g>
       <use xlink:href="#mef7b20b26a" x="50.539046" y="146.747947" style="stroke: #000000; stroke-width: 0.8"/>
      </g>
     </g>
    </g>
    <g id="xtick_8">
     <g id="line2d_15">
      <path d="M 57.659663 146.747947 
L 57.659663 12.07875 
" clip-path="url(#p8827a1521e)" style="fill: none; stroke: #b0b0b0; stroke-width: 0.3; stroke-linecap: square"/>
     </g>
     <g id="line2d_16">
      <g>
       <use xlink:href="#mef7b20b26a" x="57.659663" y="146.747947" style="stroke: #000000; stroke-width: 0.8"/>
      </g>
     </g>
    </g>
    <g id="xtick_9">
     <g id="line2d_17">
      <path d="M 64.78028 146.747947 
L 64.78028 12.07875 
" clip-path="url(#p8827a1521e)" style="fill: none; stroke: #b0b0b0; stroke-width: 0.3; stroke-linecap: square"/>
     </g>
     <g id="line2d_18">
      <g>
       <use xlink:href="#mef7b20b26a" x="64.78028" y="146.747947" style="stroke: #000000; stroke-width: 0.8"/>
      </g>
     </g>
    </g>
    <g id="xtick_10">
     <g id="line2d_19">
      <path d="M 71.900897 146.747947 
L 71.900897 12.07875 
" clip-path="url(#p8827a1521e)" style="fill: none; stroke: #b0b0b0; stroke-width: 0.3; stroke-linecap: square"/>
     </g>
     <g id="line2d_20">
      <g>
       <use xlink:href="#mef7b20b26a" x="71.900897" y="146.747947" style="stroke: #000000; stroke-width: 0.8"/>
      </g>
     </g>
    </g>
    <g id="xtick_11">
     <g id="line2d_21">
      <path d="M 86.142132 146.747947 
L 86.142132 12.07875 
" clip-path="url(#p8827a1521e)" style="fill: none; stroke: #b0b0b0; stroke-width: 0.3; stroke-linecap: square"/>
     </g>
     <g id="line2d_22">
      <g>
       <use xlink:href="#mef7b20b26a" x="86.142132" y="146.747947" style="stroke: #000000; stroke-width: 0.8"/>
      </g>
     </g>
    </g>
    <g id="xtick_12">
     <g id="line2d_23">
      <path d="M 93.262749 146.747947 
L 93.262749 12.07875 
" clip-path="url(#p8827a1521e)" style="fill: none; stroke: #b0b0b0; stroke-width: 0.3; stroke-linecap: square"/>
     </g>
     <g id="line2d_24">
      <g>
       <use xlink:href="#mef7b20b26a" x="93.262749" y="146.747947" style="stroke: #000000; stroke-width: 0.8"/>
      </g>
     </g>
    </g>
    <g id="xtick_13">
     <g id="line2d_25">
      <path d="M 100.383366 146.747947 
L 100.383366 12.07875 
" clip-path="url(#p8827a1521e)" style="fill: none; stroke: #b0b0b0; stroke-width: 0.3; stroke-linecap: square"/>
     </g>
     <g id="line2d_26">
      <g>
       <use xlink:href="#mef7b20b26a" x="100.383366" y="146.747947" style="stroke: #000000; stroke-width: 0.8"/>
      </g>
     </g>
    </g>
    <g id="xtick_14">
     <g id="line2d_27">
      <path d="M 107.503983 146.747947 
L 107.503983 12.07875 
" clip-path="url(#p8827a1521e)" style="fill: none; stroke: #b0b0b0; stroke-width: 0.3; stroke-linecap: square"/>
     </g>
     <g id="line2d_28">
      <g>
       <use xlink:href="#mef7b20b26a" x="107.503983" y="146.747947" style="stroke: #000000; stroke-width: 0.8"/>
      </g>
     </g>
    </g>
    <g id="xtick_15">
     <g id="line2d_29">
      <path d="M 121.745218 146.747947 
L 121.745218 12.07875 
" clip-path="url(#p8827a1521e)" style="fill: none; stroke: #b0b0b0; stroke-width: 0.3; stroke-linecap: square"/>
     </g>
     <g id="line2d_30">
      <g>
       <use xlink:href="#mef7b20b26a" x="121.745218" y="146.747947" style="stroke: #000000; stroke-width: 0.8"/>
      </g>
     </g>
    </g>
    <g id="xtick_16">
     <g id="line2d_31">
      <path d="M 128.865835 146.747947 
L 128.865835 12.07875 
" clip-path="url(#p8827a1521e)" style="fill: none; stroke: #b0b0b0; stroke-width: 0.3; stroke-linecap: square"/>
     </g>
     <g id="line2d_32">
      <g>
       <use xlink:href="#mef7b20b26a" x="128.865835" y="146.747947" style="stroke: #000000; stroke-width: 0.8"/>
      </g>
     </g>
    </g>
    <g id="xtick_17">
     <g id="line2d_33">
      <path d="M 135.986452 146.747947 
L 135.986452 12.07875 
" clip-path="url(#p8827a1521e)" style="fill: none; stroke: #b0b0b0; stroke-width: 0.3; stroke-linecap: square"/>
     </g>
     <g id="line2d_34">
      <g>
       <use xlink:href="#mef7b20b26a" x="135.986452" y="146.747947" style="stroke: #000000; stroke-width: 0.8"/>
      </g>
     </g>
    </g>
    <g id="xtick_18">
     <g id="line2d_35">
      <path d="M 143.107069 146.747947 
L 143.107069 12.07875 
" clip-path="url(#p8827a1521e)" style="fill: none; stroke: #b0b0b0; stroke-width: 0.3; stroke-linecap: square"/>
     </g>
     <g id="line2d_36">
      <g>
       <use xlink:href="#mef7b20b26a" x="143.107069" y="146.747947" style="stroke: #000000; stroke-width: 0.8"/>
      </g>
     </g>
    </g>
    <g id="xtick_19">
     <g id="line2d_37">
      <path d="M 157.348303 146.747947 
L 157.348303 12.07875 
" clip-path="url(#p8827a1521e)" style="fill: none; stroke: #b0b0b0; stroke-width: 0.3; stroke-linecap: square"/>
     </g>
     <g id="line2d_38">
      <g>
       <use xlink:href="#mef7b20b26a" x="157.348303" y="146.747947" style="stroke: #000000; stroke-width: 0.8"/>
      </g>
     </g>
    </g>
    <g id="xtick_20">
     <g id="line2d_39">
      <path d="M 164.46892 146.747947 
L 164.46892 12.07875 
" clip-path="url(#p8827a1521e)" style="fill: none; stroke: #b0b0b0; stroke-width: 0.3; stroke-linecap: square"/>
     </g>
     <g id="line2d_40">
      <g>
       <use xlink:href="#mef7b20b26a" x="164.46892" y="146.747947" style="stroke: #000000; stroke-width: 0.8"/>
      </g>
     </g>
    </g>
    <g id="xtick_21">
     <g id="line2d_41">
      <path d="M 171.589538 146.747947 
L 171.589538 12.07875 
" clip-path="url(#p8827a1521e)" style="fill: none; stroke: #b0b0b0; stroke-width: 0.3; stroke-linecap: square"/>
     </g>
     <g id="line2d_42">
      <g>
       <use xlink:href="#mef7b20b26a" x="171.589538" y="146.747947" style="stroke: #000000; stroke-width: 0.8"/>
      </g>
     </g>
    </g>
    <g id="xtick_22">
     <g id="line2d_43">
      <path d="M 178.710155 146.747947 
L 178.710155 12.07875 
" clip-path="url(#p8827a1521e)" style="fill: none; stroke: #b0b0b0; stroke-width: 0.3; stroke-linecap: square"/>
     </g>
     <g id="line2d_44">
      <g>
       <use xlink:href="#mef7b20b26a" x="178.710155" y="146.747947" style="stroke: #000000; stroke-width: 0.8"/>
      </g>
     </g>
    </g>
    <g id="xtick_23">
     <g id="line2d_45">
      <path d="M 192.951389 146.747947 
L 192.951389 12.07875 
" clip-path="url(#p8827a1521e)" style="fill: none; stroke: #b0b0b0; stroke-width: 0.3; stroke-linecap: square"/>
     </g>
     <g id="line2d_46">
      <g>
       <use xlink:href="#mef7b20b26a" x="192.951389" y="146.747947" style="stroke: #000000; stroke-width: 0.8"/>
      </g>
     </g>
    </g>
    <g id="text_6">
     <text style="font: 9.6px 'DejaVu Sans', 'Bitstream Vera Sans', 'Computer Modern Sans Serif', 'Lucida Grande', 'Verdana', 'Geneva', 'Lucid', 'Arial', 'Helvetica', 'Avant Garde', sans-serif; text-anchor: middle" x="114.6246" y="174.859197" transform="rotate(-0 114.6246 174.859197)">Wavelength (nm)</text>
    </g>
   </g>
   <g id="matplotlib.axis_2">
    <g id="ytick_1">
     <g id="line2d_47">
      <path d="M 35.58575 146.150268 
L 193.663451 146.150268 
" clip-path="url(#p8827a1521e)" style="fill: none; stroke: #b0b0b0; stroke-width: 0.6; stroke-linecap: square"/>
     </g>
     <g id="line2d_48">
      <defs>
       <path id="me08dd81ecc" d="M 0 0 
L -4.8 0 
" style="stroke: #000000"/>
      </defs>
      <g>
       <use xlink:href="#me08dd81ecc" x="35.58575" y="146.150268" style="stroke: #000000"/>
      </g>
     </g>
     <g id="text_7">
      <text style="font: 8.8px 'DejaVu Sans', 'Bitstream Vera Sans', 'Computer Modern Sans Serif', 'Lucida Grande', 'Verdana', 'Geneva', 'Lucid', 'Arial', 'Helvetica', 'Avant Garde', sans-serif; text-anchor: end" x="27.28575" y="149.493581" transform="rotate(-0 27.28575 149.493581)">0.0</text>
     </g>
    </g>
    <g id="ytick_2">
     <g id="line2d_49">
      <path d="M 35.58575 117.124508 
L 193.663451 117.124508 
" clip-path="url(#p8827a1521e)" style="fill: none; stroke: #b0b0b0; stroke-width: 0.6; stroke-linecap: square"/>
     </g>
     <g id="line2d_50">
      <g>
       <use xlink:href="#me08dd81ecc" x="35.58575" y="117.124508" style="stroke: #000000"/>
      </g>
     </g>
     <g id="text_8">
      <text style="font: 8.8px 'DejaVu Sans', 'Bitstream Vera Sans', 'Computer Modern Sans Serif', 'Lucida Grande', 'Verdana', 'Geneva', 'Lucid', 'Arial', 'Helvetica', 'Avant Garde', sans-serif; text-anchor: end" x="27.28575" y="120.46782" transform="rotate(-0 27.28575 120.46782)">0.2</text>
     </g>
    </g>
    <g id="ytick_3">
     <g id="line2d_51">
      <path d="M 35.58575 88.098748 
L 193.663451 88.098748 
" clip-path="url(#p8827a1521e)" style="fill: none; stroke: #b0b0b0; stroke-width: 0.6; stroke-linecap: square"/>
     </g>
     <g id="line2d_52">
      <g>
       <use xlink:href="#me08dd81ecc" x="35.58575" y="88.098748" style="stroke: #000000"/>
      </g>
     </g>
     <g id="text_9">
      <text style="font: 8.8px 'DejaVu Sans', 'Bitstream Vera Sans', 'Computer Modern Sans Serif', 'Lucida Grande', 'Verdana', 'Geneva', 'Lucid', 'Arial', 'Helvetica', 'Avant Garde', sans-serif; text-anchor: end" x="27.28575" y="91.44206" transform="rotate(-0 27.28575 91.44206)">0.4</text>
     </g>
    </g>
    <g id="ytick_4">
     <g id="line2d_53">
      <path d="M 35.58575 59.072987 
L 193.663451 59.072987 
" clip-path="url(#p8827a1521e)" style="fill: none; stroke: #b0b0b0; stroke-width: 0.6; stroke-linecap: square"/>
     </g>
     <g id="line2d_54">
      <g>
       <use xlink:href="#me08dd81ecc" x="35.58575" y="59.072987" style="stroke: #000000"/>
      </g>
     </g>
     <g id="text_10">
      <text style="font: 8.8px 'DejaVu Sans', 'Bitstream Vera Sans', 'Computer Modern Sans Serif', 'Lucida Grande', 'Verdana', 'Geneva', 'Lucid', 'Arial', 'Helvetica', 'Avant Garde', sans-serif; text-anchor: end" x="27.28575" y="62.4163" transform="rotate(-0 27.28575 62.4163)">0.6</text>
     </g>
    </g>
    <g id="ytick_5">
     <g id="line2d_55">
      <path d="M 35.58575 30.047227 
L 193.663451 30.047227 
" clip-path="url(#p8827a1521e)" style="fill: none; stroke: #b0b0b0; stroke-width: 0.6; stroke-linecap: square"/>
     </g>
     <g id="line2d_56">
      <g>
       <use xlink:href="#me08dd81ecc" x="35.58575" y="30.047227" style="stroke: #000000"/>
      </g>
     </g>
     <g id="text_11">
      <text style="font: 8.8px 'DejaVu Sans', 'Bitstream Vera Sans', 'Computer Modern Sans Serif', 'Lucida Grande', 'Verdana', 'Geneva', 'Lucid', 'Arial', 'Helvetica', 'Avant Garde', sans-serif; text-anchor: end" x="27.28575" y="33.39054" transform="rotate(-0 27.28575 33.39054)">0.8</text>
     </g>
    </g>
    <g id="text_12">
     <text style="font: 9.6px 'DejaVu Sans', 'Bitstream Vera Sans', 'Computer Modern Sans Serif', 'Lucida Grande', 'Verdana', 'Geneva', 'Lucid', 'Arial', 'Helvetica', 'Avant Garde', sans-serif; text-anchor: middle" x="7.2945" y="79.413348" transform="rotate(-90 7.2945 79.413348)">Reflectance</text>
    </g>
   </g>
   <g id="line2d_57">
    <path d="M 36.945141 86.879396 
L 37.594088 86.820468 
L 38.579727 86.398267 
L 39.917065 85.348912 
L 40.595805 84.681513 
L 41.28135 83.800021 
L 43.379497 80.138649 
L 44.813553 76.990365 
L 46.276505 73.200575 
L 52.830192 55.259757 
L 55.279164 49.69879 
L 59.527217 41.110815 
L 63.535897 34.146031 
L 67.728618 27.675579 
L 71.616807 23.054915 
L 73.115343 21.955332 
L 73.619858 21.800566 
L 74.126896 21.762666 
L 74.63647 21.915374 
L 75.148591 22.380279 
L 75.663272 23.324653 
L 76.180527 24.950293 
L 77.222809 28.807307 
L 77.747862 28.817167 
L 78.805857 25.064777 
L 79.338825 24.166489 
L 79.874457 23.791549 
L 80.412768 23.761354 
L 82.043905 23.929252 
L 82.593063 23.77746 
L 83.144967 23.452802 
L 86.514826 20.525316 
L 87.66071 19.910402 
L 89.401109 19.365986 
L 90.575928 19.417124 
L 91.167746 19.484379 
L 92.961015 19.232188 
L 94.171521 19.090758 
L 95.394163 19.299859 
L 97.251145 20.009257 
L 99.770742 21.265779 
L 100.408534 21.804198 
L 101.049515 22.678663 
L 101.693702 24.000937 
L 102.341109 25.968142 
L 103.645651 31.078829 
L 104.302818 31.35502 
L 104.96327 29.931789 
L 106.294099 25.267934 
L 106.964508 23.990301 
L 107.63827 23.671875 
L 108.3154 23.957354 
L 110.367172 25.511432 
L 111.057946 25.796549 
L 114.563974 26.445986 
L 115.99105 27.081446 
L 116.709944 27.614458 
L 119.621645 30.267881 
L 121.843859 31.919707 
L 123.343916 33.641194 
L 127.16018 38.933086 
L 127.93492 40.315991 
L 129.496039 43.867608 
L 131.072809 47.752033 
L 131.867112 49.523137 
L 133.467652 54.29422 
L 134.273929 54.154055 
L 135.084237 51.17953 
L 135.898597 47.66691 
L 137.539553 42.322382 
L 138.366189 40.839708 
L 139.196959 40.694973 
L 140.031882 41.756977 
L 140.870981 43.973684 
L 141.714274 47.197004 
L 143.413532 54.985773 
L 144.269538 57.481773 
L 145.994412 60.124345 
L 147.736579 64.051376 
L 149.49621 65.627093 
L 150.38263 67.78968 
L 151.273482 70.579175 
L 152.168788 71.745445 
L 153.06857 71.907139 
L 153.972852 72.248292 
L 154.881655 73.195647 
L 155.795002 74.939904 
L 157.635419 79.561361 
L 158.562535 80.973332 
L 159.494286 80.969285 
L 160.430696 79.772225 
L 161.371788 78.269491 
L 162.317586 77.025422 
L 163.268113 76.093832 
L 164.223392 75.792614 
L 165.183448 77.072201 
L 166.148304 80.039111 
L 167.117984 84.123739 
L 168.092512 89.096593 
L 171.045432 105.876937 
L 175.05202 122.293123 
L 177.085488 128.833454 
L 178.109855 131.511315 
L 179.139343 133.567568 
L 180.173978 135.095362 
L 181.213787 136.244261 
L 182.258794 137.00449 
L 183.309027 137.212437 
L 184.364511 136.95659 
L 186.491337 136.167319 
L 188.639485 135.657854 
L 189.721621 135.229362 
L 189.721621 135.229362 
" clip-path="url(#p8827a1521e)" style="fill: none; stroke: #1f77b4; stroke-width: 0.5; stroke-linecap: square"/>
   </g>
   <g id="line2d_58"/>
   <g id="line2d_59">
    <path d="M 36.297812 87.237553 
L 37.152286 87.533674 
L 37.508317 87.485464 
L 37.793141 87.490485 
L 38.576409 87.13364 
L 38.790028 87.132771 
L 39.288471 86.501778 
L 39.644502 86.301036 
L 40.142945 85.967212 
L 40.356563 85.757647 
L 41.567068 84.081842 
L 42.065512 83.178157 
L 42.421542 82.77316 
L 43.20481 81.247825 
L 43.988078 79.613764 
L 45.981851 74.601536 
L 48.260449 67.98465 
L 51.749551 58.184801 
L 52.3192 56.578517 
L 53.102468 54.612803 
L 56.591571 46.931802 
L 57.232426 45.567536 
L 58.015694 43.881922 
L 58.514137 42.823613 
L 58.941374 41.913655 
L 59.439817 41.053361 
L 61.43359 37.434922 
L 61.718415 36.968364 
L 62.00324 36.624815 
L 62.715301 35.277118 
L 63.783394 33.364059 
L 64.139425 32.990409 
L 64.637868 32.069916 
L 64.851486 31.747758 
L 65.421136 30.696097 
L 65.777167 30.039973 
L 66.061991 29.704346 
L 66.346816 29.340187 
L 68.055764 26.697396 
L 68.69662 26.142535 
L 70.120743 23.742106 
L 70.191949 23.794584 
L 70.476774 24.004497 
L 70.904011 22.524124 
L 71.402454 22.327625 
L 71.972104 22.152915 
L 72.328135 21.638176 
L 72.684165 20.92556 
L 73.396227 20.831488 
L 73.823464 20.591852 
L 74.108289 20.571071 
L 74.46432 20.413868 
L 75.105175 20.826324 
L 75.461206 21.106128 
L 75.959649 22.838594 
L 76.31568 24.940757 
L 77.597391 34.029561 
L 78.024628 30.197838 
L 78.451865 24.997469 
L 78.807896 23.577531 
L 79.306339 23.096835 
L 79.875989 22.785881 
L 80.089607 22.773518 
L 80.58805 23.381573 
L 82.08338 24.011928 
L 82.653029 23.897016 
L 83.00906 23.774557 
L 83.436297 23.170008 
L 83.792328 22.661246 
L 84.005947 22.582526 
L 84.433184 21.774596 
L 84.789215 21.597419 
L 85.287658 21.105579 
L 85.501276 20.893284 
L 85.928513 20.308707 
L 86.35575 20.028228 
L 87.067812 19.544693 
L 88.278317 18.96969 
L 88.705554 19.013579 
L 89.34641 18.40862 
L 89.773647 18.688372 
L 90.200884 18.583357 
L 90.485708 18.735542 
L 90.841739 19.139055 
L 91.909832 18.953085 
L 92.265863 18.689678 
L 92.6931 18.74274 
L 93.547574 18.390426 
L 94.117223 18.245938 
L 94.686872 18.323431 
L 95.256522 18.483508 
L 95.683759 18.600481 
L 95.897377 18.725755 
L 96.253408 18.908823 
L 96.894264 19.05572 
L 97.819944 19.59351 
L 98.175975 19.780813 
L 98.674418 19.957877 
L 100.383366 20.413434 
L 101.166634 21.517691 
L 102.16352 23.874465 
L 102.804376 27.677708 
L 103.017994 29.894811 
L 103.587644 35.999246 
L 103.943675 36.3509 
L 104.442118 34.336884 
L 104.726943 33.582101 
L 105.15418 31.079849 
L 106.151066 23.780766 
L 106.649509 22.092046 
L 106.863128 21.759992 
L 107.290365 21.57365 
L 107.503983 21.393051 
L 108.073633 22.41862 
L 108.429663 22.946106 
L 108.714488 23.22272 
L 108.928107 23.266951 
L 109.355344 24.269679 
L 109.711375 24.483886 
L 110.35223 25.364791 
L 110.921879 25.634643 
L 111.135498 25.677544 
L 111.491529 25.410248 
L 112.061178 25.408968 
L 112.346003 25.451375 
L 112.559621 25.441798 
L 112.915652 25.282474 
L 113.69892 25.433175 
L 114.26857 25.458258 
L 114.838219 25.857561 
L 115.123044 25.840901 
L 115.479074 25.797914 
L 115.835105 25.990327 
L 116.547167 26.48504 
L 116.760786 26.570373 
L 117.259229 27.394099 
L 117.544053 27.66346 
L 117.97129 28.347305 
L 118.968177 29.065983 
L 119.395414 29.633377 
L 120.890743 30.458174 
L 121.175568 30.579791 
L 121.531599 30.700772 
L 121.745218 30.655752 
L 122.243661 31.402844 
L 122.528485 31.67351 
L 123.311753 32.828938 
L 123.667784 33.283337 
L 124.593464 34.798015 
L 125.23432 35.707745 
L 126.017588 36.888018 
L 126.444825 37.073203 
L 128.011361 39.643317 
L 128.58101 41.082938 
L 129.862721 44.936052 
L 130.717195 47.826608 
L 131.358051 48.955041 
L 132.141319 49.890251 
L 132.568556 52.196933 
L 132.995793 56.163997 
L 133.494236 60.722087 
L 133.850267 61.519571 
L 134.34871 59.861067 
L 134.633535 58.017759 
L 135.772833 46.306935 
L 135.986452 45.491112 
L 136.057658 45.513781 
L 136.342483 45.604457 
L 136.698514 44.898839 
L 137.481781 38.701488 
L 138.122637 36.824593 
L 138.763493 36.3729 
L 138.977111 36.378936 
L 139.54676 36.614018 
L 140.258822 38.222914 
L 140.828472 40.344755 
L 141.96777 46.133334 
L 142.466213 49.872808 
L 143.4631 57.321426 
L 144.175162 59.791084 
L 144.887223 59.239451 
L 145.31446 58.572264 
L 145.741697 58.669327 
L 145.955316 58.826414 
L 146.453759 60.523869 
L 146.952202 63.390426 
L 147.379439 65.733382 
L 147.806676 66.359472 
L 148.091501 66.217828 
L 148.732357 64.286625 
L 149.017181 63.87147 
L 149.302006 63.688318 
L 149.515624 63.669945 
L 149.942861 64.506555 
L 150.298892 66.012058 
L 150.939748 71.549419 
L 151.438191 75.15886 
L 151.65181 75.720856 
L 152.221459 73.191735 
L 152.506284 72.663002 
L 153.075933 71.959411 
L 153.218345 71.832009 
L 153.360758 71.805677 
L 153.574376 71.49447 
L 153.716789 71.571377 
L 153.930407 71.422576 
L 154.072819 71.489871 
L 154.144026 71.302811 
L 154.215232 71.370299 
L 154.500056 71.723576 
L 154.713675 71.958853 
L 154.856087 71.817256 
L 154.9985 71.987798 
L 155.710561 74.102073 
L 156.84986 78.464545 
L 157.063479 79.291953 
L 157.134685 79.30792 
L 157.348303 80.351671 
L 157.704334 82.363281 
L 158.131571 83.594457 
L 158.558808 84.342154 
L 158.701221 84.012838 
L 158.843633 84.268265 
L 158.986045 84.029267 
L 159.27087 84.209477 
L 159.413282 83.74991 
L 159.484488 83.948216 
L 160.125344 81.698863 
L 160.7662 79.104613 
L 161.834292 76.372747 
L 161.976704 76.349073 
L 162.261529 75.493055 
L 162.332735 75.56089 
L 162.403941 75.708279 
L 162.61756 74.624065 
L 162.759972 74.605413 
L 163.187209 73.832834 
L 163.258416 73.892033 
L 163.472034 73.186084 
L 164.326508 70.721428 
L 164.46892 70.846721 
L 164.896157 71.387407 
L 165.821838 74.874167 
L 166.320281 77.229313 
L 166.462693 77.678288 
L 168.242848 88.02111 
L 170.80627 107.766874 
L 171.233507 109.500702 
L 172.016775 111.412762 
L 172.728836 113.587608 
L 173.298486 116.217937 
L 175.07864 125.676809 
L 176.645176 130.629816 
L 177.855681 134.738967 
L 178.638949 136.432621 
L 179.066186 137.076311 
L 179.707041 138.044752 
L 179.991866 138.265273 
L 180.561515 138.875983 
L 181.273577 139.61906 
L 181.487195 139.731366 
L 182.270463 140.451447 
L 182.911319 140.552425 
L 183.765793 139.958083 
L 184.335442 139.267041 
L 185.261123 138.556488 
L 185.68836 138.022148 
L 186.756452 137.581262 
L 188.394194 137.328201 
L 189.747111 136.580833 
L 190.316761 136.203994 
L 190.530379 136.09675 
L 191.598472 135.026255 
L 192.096915 134.645452 
L 192.38174 134.460711 
L 192.666564 134.366512 
L 192.880183 134.312603 
L 192.880183 134.312603 
" clip-path="url(#p8827a1521e)" style="fill: none; stroke: #1f77b4; stroke-opacity: 0.5; stroke-width: 0.5; stroke-linecap: square"/>
   </g>
   <g id="patch_3">
    <path d="M 35.58575 146.747947 
L 35.58575 12.07875 
" style="fill: none; stroke: #000000; stroke-linejoin: miter; stroke-linecap: square"/>
   </g>
   <g id="patch_4">
    <path d="M 193.663451 146.747947 
L 193.663451 12.07875 
" style="fill: none; stroke: #000000; stroke-linejoin: miter; stroke-linecap: square"/>
   </g>
   <g id="patch_5">
    <path d="M 35.58575 146.747947 
L 193.663451 146.747947 
" style="fill: none; stroke: #000000; stroke-linejoin: miter; stroke-linecap: square"/>
   </g>
   <g id="patch_6">
    <path d="M 35.58575 12.07875 
L 193.663451 12.07875 
" style="fill: none; stroke: #000000; stroke-linejoin: miter; stroke-linecap: square"/>
   </g>
   <g id="text_13">
    <text style="font: 8px 'DejaVu Sans', 'Bitstream Vera Sans', 'Computer Modern Sans Serif', 'Lucida Grande', 'Verdana', 'Geneva', 'Lucid', 'Arial', 'Helvetica', 'Avant Garde', sans-serif; text-anchor: middle" x="114.6246" y="6.07875" transform="rotate(-0 114.6246 6.07875)">enfys Sulfates Jarosite</text>
   </g>
   <g id="legend_1">
    <g id="patch_7">
     <path d="M 201.025005 84.716786 
L 271.000005 84.716786 
Q 272.200005 84.716786 272.200005 83.516786 
L 272.200005 75.309911 
Q 272.200005 74.109911 271.000005 74.109911 
L 201.025005 74.109911 
Q 199.825005 74.109911 199.825005 75.309911 
L 199.825005 83.516786 
Q 199.825005 84.716786 201.025005 84.716786 
z
" style="fill: #ffffff; opacity: 0.8; stroke: #cccccc; stroke-width: 0.8; stroke-linejoin: miter"/>
    </g>
    <g id="line2d_60">
     <path d="M 202.225005 78.968973 
L 208.225005 78.968973 
L 214.225005 78.968973 
" style="fill: none; stroke: #1f77b4; stroke-width: 1.2; stroke-linecap: square"/>
    </g>
    <g id="text_14">
     <text style="font: 6px 'DejaVu Sans', 'Bitstream Vera Sans', 'Computer Modern Sans Serif', 'Lucida Grande', 'Verdana', 'Geneva', 'Lucid', 'Arial', 'Helvetica', 'Avant Garde', sans-serif; text-anchor: start" x="219.025005" y="81.068973" transform="rotate(-0 219.025005 81.068973)">Jarosite LASF21A</text>
    </g>
   </g>
  </g>
 </g>
 <defs>
  <clipPath id="p8827a1521e">
   <rect x="35.58575" y="12.07875" width="158.077701" height="134.669197"/>
  </clipPath>
 </defs>
</svg>
