<?xml version="1.0" encoding="utf-8" standalone="no"?>
<!DOCTYPE svg PUBLIC "-//W3C//DTD SVG 1.1//EN"
  "http://www.w3.org/Graphics/SVG/1.1/DTD/svg11.dtd">
<svg xmlns:xlink="http://www.w3.org/1999/xlink" width="272.175967pt" height="176.645947pt" viewBox="0 0 272.175967 176.645947" xmlns="http://www.w3.org/2000/svg" version="1.1">
 <metadata>
  <rdf:RDF xmlns:dc="http://purl.org/dc/elements/1.1/" xmlns:cc="http://creativecommons.org/ns#" xmlns:rdf="http://www.w3.org/1999/02/22-rdf-syntax-ns#">
   <cc:Work>
    <dc:type rdf:resource="http://purl.org/dc/dcmitype/StillImage"/>
    <dc:date>2025-02-12T16:36:01.609398</dc:date>
    <dc:format>image/svg+xml</dc:format>
    <dc:creator>
     <cc:Agent>
      <dc:title>Matplotlib v3.6.2, https://matplotlib.org/</dc:title>
     </cc:Agent>
    </dc:creator>
   </cc:Work>
  </rdf:RDF>
 </metadata>
 <defs>
  <style type="text/css">*{stroke-linejoin: round; stroke-linecap: butt}</style>
 </defs>
 <g id="figure_1">
  <g id="patch_1">
   <path d="M -0 176.645947 
L 272.175967 176.645947 
L 272.175967 0 
L -0 0 
z
" style="fill: #ffffff"/>
  </g>
  <g id="axes_1">
   <g id="patch_2">
    <path d="M 35.58575 146.538197 
L 190.633451 146.538197 
L 190.633451 21.037 
L 35.58575 21.037 
z
" style="fill: #ffffff"/>
   </g>
   <g id="matplotlib.axis_1">
    <g id="xtick_1">
     <g id="line2d_1">
      <path d="M 43.268294 146.538197 
L 43.268294 21.037 
" clip-path="url(#p19ed0b5e2f)" style="fill: none; stroke: #b0b0b0; stroke-width: 0.6; stroke-linecap: square"/>
     </g>
     <g id="line2d_2">
      <defs>
       <path id="ma94b33c963" d="M 0 0 
L 0 4.8 
" style="stroke: #000000"/>
      </defs>
      <g>
       <use xlink:href="#ma94b33c963" x="43.268294" y="146.538197" style="stroke: #000000"/>
      </g>
     </g>
     <g id="text_1">
      <text style="font: 8.8px 'DejaVu Sans', 'Bitstream Vera Sans', 'Computer Modern Sans Serif', 'Lucida Grande', 'Verdana', 'Geneva', 'Lucid', 'Arial', 'Helvetica', 'Avant Garde', sans-serif; text-anchor: middle" x="43.268294" y="161.524822" transform="rotate(-0 43.268294 161.524822)">1000</text>
     </g>
    </g>
    <g id="xtick_2">
     <g id="line2d_3">
      <path d="M 78.188947 146.538197 
L 78.188947 21.037 
" clip-path="url(#p19ed0b5e2f)" style="fill: none; stroke: #b0b0b0; stroke-width: 0.6; stroke-linecap: square"/>
     </g>
     <g id="line2d_4">
      <g>
       <use xlink:href="#ma94b33c963" x="78.188947" y="146.538197" style="stroke: #000000"/>
      </g>
     </g>
     <g id="text_2">
      <text style="font: 8.8px 'DejaVu Sans', 'Bitstream Vera Sans', 'Computer Modern Sans Serif', 'Lucida Grande', 'Verdana', 'Geneva', 'Lucid', 'Arial', 'Helvetica', 'Avant Garde', sans-serif; text-anchor: middle" x="78.188947" y="161.524822" transform="rotate(-0 78.188947 161.524822)">1500</text>
     </g>
    </g>
    <g id="xtick_3">
     <g id="line2d_5">
      <path d="M 113.1096 146.538197 
L 113.1096 21.037 
" clip-path="url(#p19ed0b5e2f)" style="fill: none; stroke: #b0b0b0; stroke-width: 0.6; stroke-linecap: square"/>
     </g>
     <g id="line2d_6">
      <g>
       <use xlink:href="#ma94b33c963" x="113.1096" y="146.538197" style="stroke: #000000"/>
      </g>
     </g>
     <g id="text_3">
      <text style="font: 8.8px 'DejaVu Sans', 'Bitstream Vera Sans', 'Computer Modern Sans Serif', 'Lucida Grande', 'Verdana', 'Geneva', 'Lucid', 'Arial', 'Helvetica', 'Avant Garde', sans-serif; text-anchor: middle" x="113.1096" y="161.524822" transform="rotate(-0 113.1096 161.524822)">2000</text>
     </g>
    </g>
    <g id="xtick_4">
     <g id="line2d_7">
      <path d="M 148.030254 146.538197 
L 148.030254 21.037 
" clip-path="url(#p19ed0b5e2f)" style="fill: none; stroke: #b0b0b0; stroke-width: 0.6; stroke-linecap: square"/>
     </g>
     <g id="line2d_8">
      <g>
       <use xlink:href="#ma94b33c963" x="148.030254" y="146.538197" style="stroke: #000000"/>
      </g>
     </g>
     <g id="text_4">
      <text style="font: 8.8px 'DejaVu Sans', 'Bitstream Vera Sans', 'Computer Modern Sans Serif', 'Lucida Grande', 'Verdana', 'Geneva', 'Lucid', 'Arial', 'Helvetica', 'Avant Garde', sans-serif; text-anchor: middle" x="148.030254" y="161.524822" transform="rotate(-0 148.030254 161.524822)">2500</text>
     </g>
    </g>
    <g id="xtick_5">
     <g id="line2d_9">
      <path d="M 182.950907 146.538197 
L 182.950907 21.037 
" clip-path="url(#p19ed0b5e2f)" style="fill: none; stroke: #b0b0b0; stroke-width: 0.6; stroke-linecap: square"/>
     </g>
     <g id="line2d_10">
      <g>
       <use xlink:href="#ma94b33c963" x="182.950907" y="146.538197" style="stroke: #000000"/>
      </g>
     </g>
     <g id="text_5">
      <text style="font: 8.8px 'DejaVu Sans', 'Bitstream Vera Sans', 'Computer Modern Sans Serif', 'Lucida Grande', 'Verdana', 'Geneva', 'Lucid', 'Arial', 'Helvetica', 'Avant Garde', sans-serif; text-anchor: middle" x="182.950907" y="161.524822" transform="rotate(-0 182.950907 161.524822)">3000</text>
     </g>
    </g>
    <g id="xtick_6">
     <g id="line2d_11">
      <path d="M 36.284163 146.538197 
L 36.284163 21.037 
" clip-path="url(#p19ed0b5e2f)" style="fill: none; stroke: #b0b0b0; stroke-width: 0.3; stroke-linecap: square"/>
     </g>
     <g id="line2d_12">
      <defs>
       <path id="m0d93ef0270" d="M 0 0 
L 0 3.2 
" style="stroke: #000000; stroke-width: 0.8"/>
      </defs>
      <g>
       <use xlink:href="#m0d93ef0270" x="36.284163" y="146.538197" style="stroke: #000000; stroke-width: 0.8"/>
      </g>
     </g>
    </g>
    <g id="xtick_7">
     <g id="line2d_13">
      <path d="M 50.252424 146.538197 
L 50.252424 21.037 
" clip-path="url(#p19ed0b5e2f)" style="fill: none; stroke: #b0b0b0; stroke-width: 0.3; stroke-linecap: square"/>
     </g>
     <g id="line2d_14">
      <g>
       <use xlink:href="#m0d93ef0270" x="50.252424" y="146.538197" style="stroke: #000000; stroke-width: 0.8"/>
      </g>
     </g>
    </g>
    <g id="xtick_8">
     <g id="line2d_15">
      <path d="M 57.236555 146.538197 
L 57.236555 21.037 
" clip-path="url(#p19ed0b5e2f)" style="fill: none; stroke: #b0b0b0; stroke-width: 0.3; stroke-linecap: square"/>
     </g>
     <g id="line2d_16">
      <g>
       <use xlink:href="#m0d93ef0270" x="57.236555" y="146.538197" style="stroke: #000000; stroke-width: 0.8"/>
      </g>
     </g>
    </g>
    <g id="xtick_9">
     <g id="line2d_17">
      <path d="M 64.220686 146.538197 
L 64.220686 21.037 
" clip-path="url(#p19ed0b5e2f)" style="fill: none; stroke: #b0b0b0; stroke-width: 0.3; stroke-linecap: square"/>
     </g>
     <g id="line2d_18">
      <g>
       <use xlink:href="#m0d93ef0270" x="64.220686" y="146.538197" style="stroke: #000000; stroke-width: 0.8"/>
      </g>
     </g>
    </g>
    <g id="xtick_10">
     <g id="line2d_19">
      <path d="M 71.204816 146.538197 
L 71.204816 21.037 
" clip-path="url(#p19ed0b5e2f)" style="fill: none; stroke: #b0b0b0; stroke-width: 0.3; stroke-linecap: square"/>
     </g>
     <g id="line2d_20">
      <g>
       <use xlink:href="#m0d93ef0270" x="71.204816" y="146.538197" style="stroke: #000000; stroke-width: 0.8"/>
      </g>
     </g>
    </g>
    <g id="xtick_11">
     <g id="line2d_21">
      <path d="M 85.173078 146.538197 
L 85.173078 21.037 
" clip-path="url(#p19ed0b5e2f)" style="fill: none; stroke: #b0b0b0; stroke-width: 0.3; stroke-linecap: square"/>
     </g>
     <g id="line2d_22">
      <g>
       <use xlink:href="#m0d93ef0270" x="85.173078" y="146.538197" style="stroke: #000000; stroke-width: 0.8"/>
      </g>
     </g>
    </g>
    <g id="xtick_12">
     <g id="line2d_23">
      <path d="M 92.157208 146.538197 
L 92.157208 21.037 
" clip-path="url(#p19ed0b5e2f)" style="fill: none; stroke: #b0b0b0; stroke-width: 0.3; stroke-linecap: square"/>
     </g>
     <g id="line2d_24">
      <g>
       <use xlink:href="#m0d93ef0270" x="92.157208" y="146.538197" style="stroke: #000000; stroke-width: 0.8"/>
      </g>
     </g>
    </g>
    <g id="xtick_13">
     <g id="line2d_25">
      <path d="M 99.141339 146.538197 
L 99.141339 21.037 
" clip-path="url(#p19ed0b5e2f)" style="fill: none; stroke: #b0b0b0; stroke-width: 0.3; stroke-linecap: square"/>
     </g>
     <g id="line2d_26">
      <g>
       <use xlink:href="#m0d93ef0270" x="99.141339" y="146.538197" style="stroke: #000000; stroke-width: 0.8"/>
      </g>
     </g>
    </g>
    <g id="xtick_14">
     <g id="line2d_27">
      <path d="M 106.12547 146.538197 
L 106.12547 21.037 
" clip-path="url(#p19ed0b5e2f)" style="fill: none; stroke: #b0b0b0; stroke-width: 0.3; stroke-linecap: square"/>
     </g>
     <g id="line2d_28">
      <g>
       <use xlink:href="#m0d93ef0270" x="106.12547" y="146.538197" style="stroke: #000000; stroke-width: 0.8"/>
      </g>
     </g>
    </g>
    <g id="xtick_15">
     <g id="line2d_29">
      <path d="M 120.093731 146.538197 
L 120.093731 21.037 
" clip-path="url(#p19ed0b5e2f)" style="fill: none; stroke: #b0b0b0; stroke-width: 0.3; stroke-linecap: square"/>
     </g>
     <g id="line2d_30">
      <g>
       <use xlink:href="#m0d93ef0270" x="120.093731" y="146.538197" style="stroke: #000000; stroke-width: 0.8"/>
      </g>
     </g>
    </g>
    <g id="xtick_16">
     <g id="line2d_31">
      <path d="M 127.077862 146.538197 
L 127.077862 21.037 
" clip-path="url(#p19ed0b5e2f)" style="fill: none; stroke: #b0b0b0; stroke-width: 0.3; stroke-linecap: square"/>
     </g>
     <g id="line2d_32">
      <g>
       <use xlink:href="#m0d93ef0270" x="127.077862" y="146.538197" style="stroke: #000000; stroke-width: 0.8"/>
      </g>
     </g>
    </g>
    <g id="xtick_17">
     <g id="line2d_33">
      <path d="M 134.061992 146.538197 
L 134.061992 21.037 
" clip-path="url(#p19ed0b5e2f)" style="fill: none; stroke: #b0b0b0; stroke-width: 0.3; stroke-linecap: square"/>
     </g>
     <g id="line2d_34">
      <g>
       <use xlink:href="#m0d93ef0270" x="134.061992" y="146.538197" style="stroke: #000000; stroke-width: 0.8"/>
      </g>
     </g>
    </g>
    <g id="xtick_18">
     <g id="line2d_35">
      <path d="M 141.046123 146.538197 
L 141.046123 21.037 
" clip-path="url(#p19ed0b5e2f)" style="fill: none; stroke: #b0b0b0; stroke-width: 0.3; stroke-linecap: square"/>
     </g>
     <g id="line2d_36">
      <g>
       <use xlink:href="#m0d93ef0270" x="141.046123" y="146.538197" style="stroke: #000000; stroke-width: 0.8"/>
      </g>
     </g>
    </g>
    <g id="xtick_19">
     <g id="line2d_37">
      <path d="M 155.014384 146.538197 
L 155.014384 21.037 
" clip-path="url(#p19ed0b5e2f)" style="fill: none; stroke: #b0b0b0; stroke-width: 0.3; stroke-linecap: square"/>
     </g>
     <g id="line2d_38">
      <g>
       <use xlink:href="#m0d93ef0270" x="155.014384" y="146.538197" style="stroke: #000000; stroke-width: 0.8"/>
      </g>
     </g>
    </g>
    <g id="xtick_20">
     <g id="line2d_39">
      <path d="M 161.998515 146.538197 
L 161.998515 21.037 
" clip-path="url(#p19ed0b5e2f)" style="fill: none; stroke: #b0b0b0; stroke-width: 0.3; stroke-linecap: square"/>
     </g>
     <g id="line2d_40">
      <g>
       <use xlink:href="#m0d93ef0270" x="161.998515" y="146.538197" style="stroke: #000000; stroke-width: 0.8"/>
      </g>
     </g>
    </g>
    <g id="xtick_21">
     <g id="line2d_41">
      <path d="M 168.982646 146.538197 
L 168.982646 21.037 
" clip-path="url(#p19ed0b5e2f)" style="fill: none; stroke: #b0b0b0; stroke-width: 0.3; stroke-linecap: square"/>
     </g>
     <g id="line2d_42">
      <g>
       <use xlink:href="#m0d93ef0270" x="168.982646" y="146.538197" style="stroke: #000000; stroke-width: 0.8"/>
      </g>
     </g>
    </g>
    <g id="xtick_22">
     <g id="line2d_43">
      <path d="M 175.966776 146.538197 
L 175.966776 21.037 
" clip-path="url(#p19ed0b5e2f)" style="fill: none; stroke: #b0b0b0; stroke-width: 0.3; stroke-linecap: square"/>
     </g>
     <g id="line2d_44">
      <g>
       <use xlink:href="#m0d93ef0270" x="175.966776" y="146.538197" style="stroke: #000000; stroke-width: 0.8"/>
      </g>
     </g>
    </g>
    <g id="xtick_23">
     <g id="line2d_45">
      <path d="M 189.935038 146.538197 
L 189.935038 21.037 
" clip-path="url(#p19ed0b5e2f)" style="fill: none; stroke: #b0b0b0; stroke-width: 0.3; stroke-linecap: square"/>
     </g>
     <g id="line2d_46">
      <g>
       <use xlink:href="#m0d93ef0270" x="189.935038" y="146.538197" style="stroke: #000000; stroke-width: 0.8"/>
      </g>
     </g>
    </g>
    <g id="text_6">
     <text style="font: 9.6px 'DejaVu Sans', 'Bitstream Vera Sans', 'Computer Modern Sans Serif', 'Lucida Grande', 'Verdana', 'Geneva', 'Lucid', 'Arial', 'Helvetica', 'Avant Garde', sans-serif; text-anchor: middle" x="113.1096" y="174.649447" transform="rotate(-0 113.1096 174.649447)">Wavelength (nm)</text>
    </g>
   </g>
   <g id="matplotlib.axis_2">
    <g id="ytick_1">
     <g id="line2d_47">
      <path d="M 35.58575 139.117117 
L 190.633451 139.117117 
" clip-path="url(#p19ed0b5e2f)" style="fill: none; stroke: #b0b0b0; stroke-width: 0.6; stroke-linecap: square"/>
     </g>
     <g id="line2d_48">
      <defs>
       <path id="m2644bbbbcf" d="M 0 0 
L -4.8 0 
" style="stroke: #000000"/>
      </defs>
      <g>
       <use xlink:href="#m2644bbbbcf" x="35.58575" y="139.117117" style="stroke: #000000"/>
      </g>
     </g>
     <g id="text_7">
      <text style="font: 8.8px 'DejaVu Sans', 'Bitstream Vera Sans', 'Computer Modern Sans Serif', 'Lucida Grande', 'Verdana', 'Geneva', 'Lucid', 'Arial', 'Helvetica', 'Avant Garde', sans-serif; text-anchor: end" x="27.28575" y="142.46043" transform="rotate(-0 27.28575 142.46043)">0.2</text>
     </g>
    </g>
    <g id="ytick_2">
     <g id="line2d_49">
      <path d="M 35.58575 120.011152 
L 190.633451 120.011152 
" clip-path="url(#p19ed0b5e2f)" style="fill: none; stroke: #b0b0b0; stroke-width: 0.6; stroke-linecap: square"/>
     </g>
     <g id="line2d_50">
      <g>
       <use xlink:href="#m2644bbbbcf" x="35.58575" y="120.011152" style="stroke: #000000"/>
      </g>
     </g>
     <g id="text_8">
      <text style="font: 8.8px 'DejaVu Sans', 'Bitstream Vera Sans', 'Computer Modern Sans Serif', 'Lucida Grande', 'Verdana', 'Geneva', 'Lucid', 'Arial', 'Helvetica', 'Avant Garde', sans-serif; text-anchor: end" x="27.28575" y="123.354464" transform="rotate(-0 27.28575 123.354464)">0.3</text>
     </g>
    </g>
    <g id="ytick_3">
     <g id="line2d_51">
      <path d="M 35.58575 100.905187 
L 190.633451 100.905187 
" clip-path="url(#p19ed0b5e2f)" style="fill: none; stroke: #b0b0b0; stroke-width: 0.6; stroke-linecap: square"/>
     </g>
     <g id="line2d_52">
      <g>
       <use xlink:href="#m2644bbbbcf" x="35.58575" y="100.905187" style="stroke: #000000"/>
      </g>
     </g>
     <g id="text_9">
      <text style="font: 8.8px 'DejaVu Sans', 'Bitstream Vera Sans', 'Computer Modern Sans Serif', 'Lucida Grande', 'Verdana', 'Geneva', 'Lucid', 'Arial', 'Helvetica', 'Avant Garde', sans-serif; text-anchor: end" x="27.28575" y="104.248499" transform="rotate(-0 27.28575 104.248499)">0.4</text>
     </g>
    </g>
    <g id="ytick_4">
     <g id="line2d_53">
      <path d="M 35.58575 81.799221 
L 190.633451 81.799221 
" clip-path="url(#p19ed0b5e2f)" style="fill: none; stroke: #b0b0b0; stroke-width: 0.6; stroke-linecap: square"/>
     </g>
     <g id="line2d_54">
      <g>
       <use xlink:href="#m2644bbbbcf" x="35.58575" y="81.799221" style="stroke: #000000"/>
      </g>
     </g>
     <g id="text_10">
      <text style="font: 8.8px 'DejaVu Sans', 'Bitstream Vera Sans', 'Computer Modern Sans Serif', 'Lucida Grande', 'Verdana', 'Geneva', 'Lucid', 'Arial', 'Helvetica', 'Avant Garde', sans-serif; text-anchor: end" x="27.28575" y="85.142534" transform="rotate(-0 27.28575 85.142534)">0.5</text>
     </g>
    </g>
    <g id="ytick_5">
     <g id="line2d_55">
      <path d="M 35.58575 62.693256 
L 190.633451 62.693256 
" clip-path="url(#p19ed0b5e2f)" style="fill: none; stroke: #b0b0b0; stroke-width: 0.6; stroke-linecap: square"/>
     </g>
     <g id="line2d_56">
      <g>
       <use xlink:href="#m2644bbbbcf" x="35.58575" y="62.693256" style="stroke: #000000"/>
      </g>
     </g>
     <g id="text_11">
      <text style="font: 8.8px 'DejaVu Sans', 'Bitstream Vera Sans', 'Computer Modern Sans Serif', 'Lucida Grande', 'Verdana', 'Geneva', 'Lucid', 'Arial', 'Helvetica', 'Avant Garde', sans-serif; text-anchor: end" x="27.28575" y="66.036569" transform="rotate(-0 27.28575 66.036569)">0.6</text>
     </g>
    </g>
    <g id="ytick_6">
     <g id="line2d_57">
      <path d="M 35.58575 43.587291 
L 190.633451 43.587291 
" clip-path="url(#p19ed0b5e2f)" style="fill: none; stroke: #b0b0b0; stroke-width: 0.6; stroke-linecap: square"/>
     </g>
     <g id="line2d_58">
      <g>
       <use xlink:href="#m2644bbbbcf" x="35.58575" y="43.587291" style="stroke: #000000"/>
      </g>
     </g>
     <g id="text_12">
      <text style="font: 8.8px 'DejaVu Sans', 'Bitstream Vera Sans', 'Computer Modern Sans Serif', 'Lucida Grande', 'Verdana', 'Geneva', 'Lucid', 'Arial', 'Helvetica', 'Avant Garde', sans-serif; text-anchor: end" x="27.28575" y="46.930603" transform="rotate(-0 27.28575 46.930603)">0.7</text>
     </g>
    </g>
    <g id="ytick_7">
     <g id="line2d_59">
      <path d="M 35.58575 24.481326 
L 190.633451 24.481326 
" clip-path="url(#p19ed0b5e2f)" style="fill: none; stroke: #b0b0b0; stroke-width: 0.6; stroke-linecap: square"/>
     </g>
     <g id="line2d_60">
      <g>
       <use xlink:href="#m2644bbbbcf" x="35.58575" y="24.481326" style="stroke: #000000"/>
      </g>
     </g>
     <g id="text_13">
      <text style="font: 8.8px 'DejaVu Sans', 'Bitstream Vera Sans', 'Computer Modern Sans Serif', 'Lucida Grande', 'Verdana', 'Geneva', 'Lucid', 'Arial', 'Helvetica', 'Avant Garde', sans-serif; text-anchor: end" x="27.28575" y="27.824638" transform="rotate(-0 27.28575 27.824638)">0.8</text>
     </g>
    </g>
    <g id="text_14">
     <text style="font: 9.6px 'DejaVu Sans', 'Bitstream Vera Sans', 'Computer Modern Sans Serif', 'Lucida Grande', 'Verdana', 'Geneva', 'Lucid', 'Arial', 'Helvetica', 'Avant Garde', sans-serif; text-anchor: middle" x="7.2945" y="83.787598" transform="rotate(-90 7.2945 83.787598)">Reflectance</text>
    </g>
   </g>
   <g id="line2d_61">
    <path d="M 36.919084 116.013741 
L 37.876235 118.46446 
L 39.17492 122.555004 
L 42.537278 133.218659 
L 43.579124 135.78287 
L 44.636676 137.710252 
L 45.350554 138.680389 
L 46.071587 139.243823 
L 46.799849 139.534842 
L 47.535412 139.500024 
L 48.278349 139.102764 
L 49.028734 138.405116 
L 49.786642 137.367195 
L 51.325327 134.784263 
L 53.292358 131.334436 
L 54.901685 128.875582 
L 56.543441 126.930334 
L 60.794027 122.190904 
L 62.554517 119.635399 
L 63.898126 117.255242 
L 65.721164 113.418705 
L 67.112511 109.94507 
L 69.000321 104.716894 
L 71.413667 97.122201 
L 81.153404 63.285912 
L 83.324146 57.055643 
L 84.980859 52.952117 
L 86.662548 49.356794 
L 88.369588 46.286729 
L 90.102362 43.624963 
L 91.272033 42.152679 
L 93.048561 40.283982 
L 94.247768 39.368489 
L 96.069156 38.238624 
L 97.918002 37.424543 
L 99.79472 36.680001 
L 104.284489 35.396908 
L 106.921333 34.966171 
L 111.664307 34.361483 
L 113.748252 34.022879 
L 116.575795 33.633959 
L 119.460316 33.237693 
L 122.40296 32.892774 
L 123.896444 32.881252 
L 126.16479 32.95682 
L 131.591472 32.522702 
L 135.585324 32.05139 
L 138.852895 31.961078 
L 143.878123 31.896775 
L 150.816684 32.608561 
L 151.703633 32.490724 
L 152.595016 32.248279 
L 153.490856 31.879901 
L 155.295997 30.7681 
L 157.119233 29.502464 
L 158.960748 28.52477 
L 159.888417 28.191265 
L 160.820724 28.050021 
L 161.757693 28.196971 
L 163.645708 29.017884 
L 164.596802 29.618572 
L 169.424079 33.388776 
L 171.38895 34.352759 
L 173.373519 35.078188 
L 185.705783 38.459735 
L 186.767177 38.602776 
L 186.767177 38.602776 
" clip-path="url(#p19ed0b5e2f)" style="fill: none; stroke: #1f77b4; stroke-width: 0.5; stroke-linecap: square"/>
   </g>
   <g id="line2d_62"/>
   <g id="line2d_63">
    <path d="M 36.284163 113.641414 
L 37.471465 116.674906 
L 40.823848 128.084377 
L 41.731785 131.199414 
L 42.150833 132.615013 
L 42.779405 134.5459 
L 43.407976 136.181638 
L 44.246072 137.938088 
L 44.944485 139.224951 
L 45.363533 139.803021 
L 45.922263 140.212118 
L 46.201629 140.386288 
L 46.620676 140.648919 
L 46.969883 140.669935 
L 47.249248 140.725037 
L 47.528613 140.760307 
L 48.157185 140.257361 
L 48.576233 140.080898 
L 49.693694 138.514209 
L 51.719092 134.721446 
L 52.417505 133.400077 
L 52.906394 132.576992 
L 53.534966 131.446607 
L 54.373061 129.992185 
L 54.861951 129.337079 
L 55.35084 128.77502 
L 55.769888 128.323737 
L 55.979412 128.036116 
L 56.328618 127.621822 
L 56.747666 127.278946 
L 58.214333 125.824677 
L 59.261953 124.713856 
L 60.100049 123.788401 
L 60.868303 122.936963 
L 62.544494 120.554755 
L 63.871479 118.235634 
L 64.849257 116.306811 
L 65.198464 115.514372 
L 66.176242 113.423683 
L 66.385766 112.891237 
L 66.874655 111.416142 
L 67.154021 110.680257 
L 67.64291 109.403673 
L 68.20164 108.008937 
L 68.620688 106.727997 
L 69.528625 103.773909 
L 71.623864 96.969396 
L 72.741325 92.947934 
L 77.350851 75.682982 
L 78.119106 72.91361 
L 82.868315 57.605032 
L 84.404823 53.463432 
L 85.242919 51.606791 
L 85.801649 50.13609 
L 88.106413 45.840648 
L 88.455619 45.204649 
L 88.874667 44.457224 
L 89.57308 43.540176 
L 89.992128 42.740935 
L 90.6207 41.924193 
L 93.554035 38.869837 
L 94.322289 38.489323 
L 94.671495 38.350804 
L 95.230226 37.891497 
L 96.836576 37.093594 
L 97.185782 36.979073 
L 97.465148 36.850222 
L 97.814354 36.896 
L 98.582609 36.455875 
L 99.21118 36.216515 
L 99.70007 36.074634 
L 100.2588 35.814755 
L 100.538165 36.043109 
L 100.887372 35.529159 
L 100.957213 35.62339 
L 101.236578 36.000312 
L 101.30642 35.918882 
L 101.725467 35.572988 
L 102.214357 35.407454 
L 102.982611 35.123539 
L 103.401659 35.228316 
L 104.100072 34.786319 
L 104.728644 34.785746 
L 105.147691 34.596635 
L 105.776263 34.879556 
L 106.6842 34.331368 
L 106.823883 34.172635 
L 107.242931 34.655558 
L 107.592137 34.508136 
L 107.941344 34.206262 
L 108.779439 34.515817 
L 109.058805 34.410046 
L 109.33817 34.269808 
L 110.036583 34.352537 
L 110.525472 34.23794 
L 110.804837 34.199881 
L 111.223885 34.196098 
L 111.782616 33.978175 
L 112.201663 33.746152 
L 112.969918 33.839695 
L 113.179442 33.896325 
L 114.506427 33.527045 
L 115.065157 33.575345 
L 115.274681 33.569842 
L 115.693729 33.329031 
L 116.601666 33.34229 
L 117.719127 33.189366 
L 118.277857 33.045689 
L 118.557222 33.122075 
L 118.836588 33.128418 
L 120.02389 32.828263 
L 120.861985 32.630211 
L 121.63024 32.617486 
L 121.979446 32.625855 
L 122.468335 32.498456 
L 123.23659 32.515002 
L 123.725479 32.561009 
L 124.144527 32.48661 
L 124.493733 32.605793 
L 125.261988 32.904916 
L 125.820718 32.84309 
L 126.309607 32.698878 
L 127.147703 32.707705 
L 127.49691 32.73965 
L 127.846116 32.541445 
L 128.474688 32.645114 
L 129.033418 32.443049 
L 129.242942 32.393412 
L 129.66199 32.52914 
L 130.011197 32.578052 
L 130.290562 32.638923 
L 130.70961 32.439075 
L 131.198499 32.425433 
L 133.433421 32.163758 
L 133.852468 32.002351 
L 134.201675 31.803954 
L 135.039771 31.840065 
L 135.249295 31.857222 
L 136.017549 31.792491 
L 136.227073 31.76792 
L 136.576279 31.616716 
L 136.925486 31.76559 
L 137.344534 31.717672 
L 137.903264 31.808463 
L 138.392153 31.745796 
L 138.811201 31.753935 
L 139.230249 31.758597 
L 139.579456 31.699254 
L 140.068345 31.682249 
L 140.487393 31.786033 
L 140.836599 31.573804 
L 141.046123 31.366542 
L 141.115964 31.452214 
L 141.465171 31.757068 
L 141.884219 31.633185 
L 142.51279 31.691841 
L 142.931838 31.354047 
L 143.281045 31.421759 
L 143.700093 31.589585 
L 144.049299 31.733835 
L 144.468347 31.875602 
L 144.60803 31.842166 
L 145.027078 31.683892 
L 145.376284 31.86047 
L 145.795332 32.090544 
L 146.354062 32.093257 
L 146.633428 31.756686 
L 146.703269 31.81752 
L 147.122317 32.083322 
L 147.541365 32.243583 
L 147.82073 32.2928 
L 148.100095 32.294557 
L 148.588984 32.536248 
L 149.636604 32.59391 
L 149.846128 32.549469 
L 150.404858 32.882593 
L 150.754065 32.820086 
L 151.03343 32.876433 
L 151.871526 32.679143 
L 152.08105 32.59898 
L 152.569939 32.506467 
L 152.779463 32.365017 
L 152.849304 32.443147 
L 152.919145 32.377856 
L 153.058828 32.17515 
L 153.19851 32.417291 
L 153.338193 32.059528 
L 153.477876 32.092405 
L 153.617558 31.934692 
L 153.757241 32.00835 
L 154.106447 31.570481 
L 154.24613 31.571963 
L 154.455654 31.408414 
L 154.525495 31.464831 
L 154.665178 31.751974 
L 154.944543 30.588421 
L 155.154067 30.764693 
L 155.29375 30.629418 
L 155.363591 30.753534 
L 155.433432 30.706042 
L 155.712797 30.180142 
L 155.992163 29.907084 
L 156.131845 29.860393 
L 156.201687 29.953747 
L 156.411211 29.581442 
L 156.481052 29.694597 
L 156.690576 29.20249 
L 156.969941 29.112536 
L 157.039782 28.929485 
L 157.109624 29.009616 
L 157.249306 28.742991 
L 157.319148 28.513801 
L 157.388989 28.66162 
L 157.528671 28.697945 
L 158.227084 28.166438 
L 158.50645 27.87597 
L 158.715974 27.963098 
L 159.06518 27.647537 
L 159.204863 27.765121 
L 159.414387 27.332778 
L 159.484228 27.368619 
L 159.623911 27.496045 
L 159.833435 27.146962 
L 159.973117 27.454967 
L 160.182641 26.774353 
L 160.392165 27.119114 
L 160.741372 26.7416 
L 160.950895 26.910207 
L 161.369943 26.891729 
L 161.649309 27.169183 
L 161.858832 27.019679 
L 162.208039 27.480091 
L 162.27788 27.400957 
L 162.487404 27.71023 
L 162.766769 27.996231 
L 162.976293 27.782422 
L 163.465182 28.367376 
L 163.535024 28.191826 
L 163.604865 28.019017 
L 163.744548 28.341694 
L 163.814389 28.31023 
L 163.954072 28.093928 
L 164.373119 28.774816 
L 164.512802 28.965061 
L 164.582643 28.905108 
L 164.792167 29.369006 
L 164.862009 29.275052 
L 165.071533 29.088178 
L 165.909628 30.654387 
L 166.119152 30.288724 
L 166.5382 30.922085 
L 167.306454 31.694593 
L 167.725502 32.338821 
L 167.935026 32.336734 
L 168.214391 32.625373 
L 168.354074 32.638074 
L 169.262011 33.687603 
L 169.331852 33.590816 
L 169.471535 33.582255 
L 169.7509 33.740097 
L 170.449313 34.035154 
L 171.566774 34.617289 
L 172.40487 34.919855 
L 172.754076 35.109153 
L 173.033442 35.024835 
L 173.522331 35.294588 
L 177.573126 36.221092 
L 177.712809 36.267752 
L 177.992174 36.25242 
L 178.411222 36.380882 
L 178.83027 36.565059 
L 179.947731 36.9552 
L 180.227096 36.96269 
L 180.785827 37.318124 
L 181.135033 37.403862 
L 181.763605 37.709321 
L 182.04297 37.824901 
L 182.392177 37.980686 
L 182.601701 38.004886 
L 182.950907 38.166847 
L 183.928685 38.486063 
L 184.208051 38.386424 
L 184.627098 38.558349 
L 186.093766 38.732901 
L 186.442972 38.749657 
L 186.652496 38.859235 
L 186.931862 38.80416 
L 187.211227 38.908049 
L 187.490592 38.913998 
L 188.398529 39.05396 
L 189.865196 39.166764 
L 189.865196 39.166764 
" clip-path="url(#p19ed0b5e2f)" style="fill: none; stroke: #1f77b4; stroke-opacity: 0.5; stroke-width: 0.5; stroke-linecap: square"/>
   </g>
   <g id="patch_3">
    <path d="M 35.58575 146.538197 
L 35.58575 21.037 
" style="fill: none; stroke: #000000; stroke-linejoin: miter; stroke-linecap: square"/>
   </g>
   <g id="patch_4">
    <path d="M 190.633451 146.538197 
L 190.633451 21.037 
" style="fill: none; stroke: #000000; stroke-linejoin: miter; stroke-linecap: square"/>
   </g>
   <g id="patch_5">
    <path d="M 35.58575 146.538197 
L 190.633451 146.538197 
" style="fill: none; stroke: #000000; stroke-linejoin: miter; stroke-linecap: square"/>
   </g>
   <g id="patch_6">
    <path d="M 35.58575 21.037 
L 190.633451 21.037 
" style="fill: none; stroke: #000000; stroke-linejoin: miter; stroke-linecap: square"/>
   </g>
   <g id="text_15">
    <text style="font: 8px 'DejaVu Sans', 'Bitstream Vera Sans', 'Computer Modern Sans Serif', 'Lucida Grande', 'Verdana', 'Geneva', 'Lucid', 'Arial', 'Helvetica', 'Avant Garde', sans-serif" transform="translate(73.5171 6.07875)">enfys Iron oxides &amp; </text>
    <text style="font: 8px 'DejaVu Sans', 'Bitstream Vera Sans', 'Computer Modern Sans Serif', 'Lucida Grande', 'Verdana', 'Geneva', 'Lucid', 'Arial', 'Helvetica', 'Avant Garde', sans-serif" transform="translate(58.3146 15.037)"> primary silicates Forsterite</text>
   </g>
   <g id="legend_1">
    <g id="patch_7">
     <path d="M 197.934405 89.091036 
L 270.975967 89.091036 
Q 272.175967 89.091036 272.175967 87.891036 
L 272.175967 79.684161 
Q 272.175967 78.484161 270.975967 78.484161 
L 197.934405 78.484161 
Q 196.734405 78.484161 196.734405 79.684161 
L 196.734405 87.891036 
Q 196.734405 89.091036 197.934405 89.091036 
z
" style="fill: #ffffff; opacity: 0.8; stroke: #cccccc; stroke-width: 0.8; stroke-linejoin: miter"/>
    </g>
    <g id="line2d_64">
     <path d="M 199.134405 83.343223 
L 205.134405 83.343223 
L 211.134405 83.343223 
" style="fill: none; stroke: #1f77b4; stroke-width: 1.2; stroke-linecap: square"/>
    </g>
    <g id="text_16">
     <text style="font: 6px 'DejaVu Sans', 'Bitstream Vera Sans', 'Computer Modern Sans Serif', 'Lucida Grande', 'Verdana', 'Geneva', 'Lucid', 'Arial', 'Helvetica', 'Avant Garde', sans-serif; text-anchor: start" x="215.934405" y="85.443223" transform="rotate(-0 215.934405 85.443223)">Forsterite LASC02</text>
    </g>
   </g>
  </g>
 </g>
 <defs>
  <clipPath id="p19ed0b5e2f">
   <rect x="35.58575" y="21.037" width="155.047701" height="125.501197"/>
  </clipPath>
 </defs>
</svg>
