<?xml version="1.0" encoding="utf-8" standalone="no"?>
<!DOCTYPE svg PUBLIC "-//W3C//DTD SVG 1.1//EN"
  "http://www.w3.org/Graphics/SVG/1.1/DTD/svg11.dtd">
<svg xmlns:xlink="http://www.w3.org/1999/xlink" width="272.402905pt" height="176.855697pt" viewBox="0 0 272.402905 176.855697" xmlns="http://www.w3.org/2000/svg" version="1.1">
 <metadata>
  <rdf:RDF xmlns:dc="http://purl.org/dc/elements/1.1/" xmlns:cc="http://creativecommons.org/ns#" xmlns:rdf="http://www.w3.org/1999/02/22-rdf-syntax-ns#">
   <cc:Work>
    <dc:type rdf:resource="http://purl.org/dc/dcmitype/StillImage"/>
    <dc:date>2025-02-12T16:36:04.166011</dc:date>
    <dc:format>image/svg+xml</dc:format>
    <dc:creator>
     <cc:Agent>
      <dc:title>Matplotlib v3.6.2, https://matplotlib.org/</dc:title>
     </cc:Agent>
    </dc:creator>
   </cc:Work>
  </rdf:RDF>
 </metadata>
 <defs>
  <style type="text/css">*{stroke-linejoin: round; stroke-linecap: butt}</style>
 </defs>
 <g id="figure_1">
  <g id="patch_1">
   <path d="M 0 176.855697 
L 272.402905 176.855697 
L 272.402905 0 
L 0 0 
z
" style="fill: #ffffff"/>
  </g>
  <g id="axes_1">
   <g id="patch_2">
    <path d="M 41.18475 146.747947 
L 197.582451 146.747947 
L 197.582451 12.07875 
L 41.18475 12.07875 
z
" style="fill: #ffffff"/>
   </g>
   <g id="matplotlib.axis_1">
    <g id="xtick_1">
     <g id="line2d_1">
      <path d="M 48.934186 146.747947 
L 48.934186 12.07875 
" clip-path="url(#p047bba5f42)" style="fill: none; stroke: #b0b0b0; stroke-width: 0.6; stroke-linecap: square"/>
     </g>
     <g id="line2d_2">
      <defs>
       <path id="m8e1fd2f27e" d="M 0 0 
L 0 4.8 
" style="stroke: #000000"/>
      </defs>
      <g>
       <use xlink:href="#m8e1fd2f27e" x="48.934186" y="146.747947" style="stroke: #000000"/>
      </g>
     </g>
     <g id="text_1">
      <text style="font: 8.8px 'DejaVu Sans', 'Bitstream Vera Sans', 'Computer Modern Sans Serif', 'Lucida Grande', 'Verdana', 'Geneva', 'Lucid', 'Arial', 'Helvetica', 'Avant Garde', sans-serif; text-anchor: middle" x="48.934186" y="161.734572" transform="rotate(-0 48.934186 161.734572)">1000</text>
     </g>
    </g>
    <g id="xtick_2">
     <g id="line2d_3">
      <path d="M 84.158893 146.747947 
L 84.158893 12.07875 
" clip-path="url(#p047bba5f42)" style="fill: none; stroke: #b0b0b0; stroke-width: 0.6; stroke-linecap: square"/>
     </g>
     <g id="line2d_4">
      <g>
       <use xlink:href="#m8e1fd2f27e" x="84.158893" y="146.747947" style="stroke: #000000"/>
      </g>
     </g>
     <g id="text_2">
      <text style="font: 8.8px 'DejaVu Sans', 'Bitstream Vera Sans', 'Computer Modern Sans Serif', 'Lucida Grande', 'Verdana', 'Geneva', 'Lucid', 'Arial', 'Helvetica', 'Avant Garde', sans-serif; text-anchor: middle" x="84.158893" y="161.734572" transform="rotate(-0 84.158893 161.734572)">1500</text>
     </g>
    </g>
    <g id="xtick_3">
     <g id="line2d_5">
      <path d="M 119.3836 146.747947 
L 119.3836 12.07875 
" clip-path="url(#p047bba5f42)" style="fill: none; stroke: #b0b0b0; stroke-width: 0.6; stroke-linecap: square"/>
     </g>
     <g id="line2d_6">
      <g>
       <use xlink:href="#m8e1fd2f27e" x="119.3836" y="146.747947" style="stroke: #000000"/>
      </g>
     </g>
     <g id="text_3">
      <text style="font: 8.8px 'DejaVu Sans', 'Bitstream Vera Sans', 'Computer Modern Sans Serif', 'Lucida Grande', 'Verdana', 'Geneva', 'Lucid', 'Arial', 'Helvetica', 'Avant Garde', sans-serif; text-anchor: middle" x="119.3836" y="161.734572" transform="rotate(-0 119.3836 161.734572)">2000</text>
     </g>
    </g>
    <g id="xtick_4">
     <g id="line2d_7">
      <path d="M 154.608308 146.747947 
L 154.608308 12.07875 
" clip-path="url(#p047bba5f42)" style="fill: none; stroke: #b0b0b0; stroke-width: 0.6; stroke-linecap: square"/>
     </g>
     <g id="line2d_8">
      <g>
       <use xlink:href="#m8e1fd2f27e" x="154.608308" y="146.747947" style="stroke: #000000"/>
      </g>
     </g>
     <g id="text_4">
      <text style="font: 8.8px 'DejaVu Sans', 'Bitstream Vera Sans', 'Computer Modern Sans Serif', 'Lucida Grande', 'Verdana', 'Geneva', 'Lucid', 'Arial', 'Helvetica', 'Avant Garde', sans-serif; text-anchor: middle" x="154.608308" y="161.734572" transform="rotate(-0 154.608308 161.734572)">2500</text>
     </g>
    </g>
    <g id="xtick_5">
     <g id="line2d_9">
      <path d="M 189.833015 146.747947 
L 189.833015 12.07875 
" clip-path="url(#p047bba5f42)" style="fill: none; stroke: #b0b0b0; stroke-width: 0.6; stroke-linecap: square"/>
     </g>
     <g id="line2d_10">
      <g>
       <use xlink:href="#m8e1fd2f27e" x="189.833015" y="146.747947" style="stroke: #000000"/>
      </g>
     </g>
     <g id="text_5">
      <text style="font: 8.8px 'DejaVu Sans', 'Bitstream Vera Sans', 'Computer Modern Sans Serif', 'Lucida Grande', 'Verdana', 'Geneva', 'Lucid', 'Arial', 'Helvetica', 'Avant Garde', sans-serif; text-anchor: middle" x="189.833015" y="161.734572" transform="rotate(-0 189.833015 161.734572)">3000</text>
     </g>
    </g>
    <g id="xtick_6">
     <g id="line2d_11">
      <path d="M 41.889244 146.747947 
L 41.889244 12.07875 
" clip-path="url(#p047bba5f42)" style="fill: none; stroke: #b0b0b0; stroke-width: 0.3; stroke-linecap: square"/>
     </g>
     <g id="line2d_12">
      <defs>
       <path id="m05107edfa5" d="M 0 0 
L 0 3.2 
" style="stroke: #000000; stroke-width: 0.8"/>
      </defs>
      <g>
       <use xlink:href="#m05107edfa5" x="41.889244" y="146.747947" style="stroke: #000000; stroke-width: 0.8"/>
      </g>
     </g>
    </g>
    <g id="xtick_7">
     <g id="line2d_13">
      <path d="M 55.979127 146.747947 
L 55.979127 12.07875 
" clip-path="url(#p047bba5f42)" style="fill: none; stroke: #b0b0b0; stroke-width: 0.3; stroke-linecap: square"/>
     </g>
     <g id="line2d_14">
      <g>
       <use xlink:href="#m05107edfa5" x="55.979127" y="146.747947" style="stroke: #000000; stroke-width: 0.8"/>
      </g>
     </g>
    </g>
    <g id="xtick_8">
     <g id="line2d_15">
      <path d="M 63.024069 146.747947 
L 63.024069 12.07875 
" clip-path="url(#p047bba5f42)" style="fill: none; stroke: #b0b0b0; stroke-width: 0.3; stroke-linecap: square"/>
     </g>
     <g id="line2d_16">
      <g>
       <use xlink:href="#m05107edfa5" x="63.024069" y="146.747947" style="stroke: #000000; stroke-width: 0.8"/>
      </g>
     </g>
    </g>
    <g id="xtick_9">
     <g id="line2d_17">
      <path d="M 70.06901 146.747947 
L 70.06901 12.07875 
" clip-path="url(#p047bba5f42)" style="fill: none; stroke: #b0b0b0; stroke-width: 0.3; stroke-linecap: square"/>
     </g>
     <g id="line2d_18">
      <g>
       <use xlink:href="#m05107edfa5" x="70.06901" y="146.747947" style="stroke: #000000; stroke-width: 0.8"/>
      </g>
     </g>
    </g>
    <g id="xtick_10">
     <g id="line2d_19">
      <path d="M 77.113952 146.747947 
L 77.113952 12.07875 
" clip-path="url(#p047bba5f42)" style="fill: none; stroke: #b0b0b0; stroke-width: 0.3; stroke-linecap: square"/>
     </g>
     <g id="line2d_20">
      <g>
       <use xlink:href="#m05107edfa5" x="77.113952" y="146.747947" style="stroke: #000000; stroke-width: 0.8"/>
      </g>
     </g>
    </g>
    <g id="xtick_11">
     <g id="line2d_21">
      <path d="M 91.203834 146.747947 
L 91.203834 12.07875 
" clip-path="url(#p047bba5f42)" style="fill: none; stroke: #b0b0b0; stroke-width: 0.3; stroke-linecap: square"/>
     </g>
     <g id="line2d_22">
      <g>
       <use xlink:href="#m05107edfa5" x="91.203834" y="146.747947" style="stroke: #000000; stroke-width: 0.8"/>
      </g>
     </g>
    </g>
    <g id="xtick_12">
     <g id="line2d_23">
      <path d="M 98.248776 146.747947 
L 98.248776 12.07875 
" clip-path="url(#p047bba5f42)" style="fill: none; stroke: #b0b0b0; stroke-width: 0.3; stroke-linecap: square"/>
     </g>
     <g id="line2d_24">
      <g>
       <use xlink:href="#m05107edfa5" x="98.248776" y="146.747947" style="stroke: #000000; stroke-width: 0.8"/>
      </g>
     </g>
    </g>
    <g id="xtick_13">
     <g id="line2d_25">
      <path d="M 105.293717 146.747947 
L 105.293717 12.07875 
" clip-path="url(#p047bba5f42)" style="fill: none; stroke: #b0b0b0; stroke-width: 0.3; stroke-linecap: square"/>
     </g>
     <g id="line2d_26">
      <g>
       <use xlink:href="#m05107edfa5" x="105.293717" y="146.747947" style="stroke: #000000; stroke-width: 0.8"/>
      </g>
     </g>
    </g>
    <g id="xtick_14">
     <g id="line2d_27">
      <path d="M 112.338659 146.747947 
L 112.338659 12.07875 
" clip-path="url(#p047bba5f42)" style="fill: none; stroke: #b0b0b0; stroke-width: 0.3; stroke-linecap: square"/>
     </g>
     <g id="line2d_28">
      <g>
       <use xlink:href="#m05107edfa5" x="112.338659" y="146.747947" style="stroke: #000000; stroke-width: 0.8"/>
      </g>
     </g>
    </g>
    <g id="xtick_15">
     <g id="line2d_29">
      <path d="M 126.428542 146.747947 
L 126.428542 12.07875 
" clip-path="url(#p047bba5f42)" style="fill: none; stroke: #b0b0b0; stroke-width: 0.3; stroke-linecap: square"/>
     </g>
     <g id="line2d_30">
      <g>
       <use xlink:href="#m05107edfa5" x="126.428542" y="146.747947" style="stroke: #000000; stroke-width: 0.8"/>
      </g>
     </g>
    </g>
    <g id="xtick_16">
     <g id="line2d_31">
      <path d="M 133.473483 146.747947 
L 133.473483 12.07875 
" clip-path="url(#p047bba5f42)" style="fill: none; stroke: #b0b0b0; stroke-width: 0.3; stroke-linecap: square"/>
     </g>
     <g id="line2d_32">
      <g>
       <use xlink:href="#m05107edfa5" x="133.473483" y="146.747947" style="stroke: #000000; stroke-width: 0.8"/>
      </g>
     </g>
    </g>
    <g id="xtick_17">
     <g id="line2d_33">
      <path d="M 140.518425 146.747947 
L 140.518425 12.07875 
" clip-path="url(#p047bba5f42)" style="fill: none; stroke: #b0b0b0; stroke-width: 0.3; stroke-linecap: square"/>
     </g>
     <g id="line2d_34">
      <g>
       <use xlink:href="#m05107edfa5" x="140.518425" y="146.747947" style="stroke: #000000; stroke-width: 0.8"/>
      </g>
     </g>
    </g>
    <g id="xtick_18">
     <g id="line2d_35">
      <path d="M 147.563366 146.747947 
L 147.563366 12.07875 
" clip-path="url(#p047bba5f42)" style="fill: none; stroke: #b0b0b0; stroke-width: 0.3; stroke-linecap: square"/>
     </g>
     <g id="line2d_36">
      <g>
       <use xlink:href="#m05107edfa5" x="147.563366" y="146.747947" style="stroke: #000000; stroke-width: 0.8"/>
      </g>
     </g>
    </g>
    <g id="xtick_19">
     <g id="line2d_37">
      <path d="M 161.653249 146.747947 
L 161.653249 12.07875 
" clip-path="url(#p047bba5f42)" style="fill: none; stroke: #b0b0b0; stroke-width: 0.3; stroke-linecap: square"/>
     </g>
     <g id="line2d_38">
      <g>
       <use xlink:href="#m05107edfa5" x="161.653249" y="146.747947" style="stroke: #000000; stroke-width: 0.8"/>
      </g>
     </g>
    </g>
    <g id="xtick_20">
     <g id="line2d_39">
      <path d="M 168.698191 146.747947 
L 168.698191 12.07875 
" clip-path="url(#p047bba5f42)" style="fill: none; stroke: #b0b0b0; stroke-width: 0.3; stroke-linecap: square"/>
     </g>
     <g id="line2d_40">
      <g>
       <use xlink:href="#m05107edfa5" x="168.698191" y="146.747947" style="stroke: #000000; stroke-width: 0.8"/>
      </g>
     </g>
    </g>
    <g id="xtick_21">
     <g id="line2d_41">
      <path d="M 175.743132 146.747947 
L 175.743132 12.07875 
" clip-path="url(#p047bba5f42)" style="fill: none; stroke: #b0b0b0; stroke-width: 0.3; stroke-linecap: square"/>
     </g>
     <g id="line2d_42">
      <g>
       <use xlink:href="#m05107edfa5" x="175.743132" y="146.747947" style="stroke: #000000; stroke-width: 0.8"/>
      </g>
     </g>
    </g>
    <g id="xtick_22">
     <g id="line2d_43">
      <path d="M 182.788074 146.747947 
L 182.788074 12.07875 
" clip-path="url(#p047bba5f42)" style="fill: none; stroke: #b0b0b0; stroke-width: 0.3; stroke-linecap: square"/>
     </g>
     <g id="line2d_44">
      <g>
       <use xlink:href="#m05107edfa5" x="182.788074" y="146.747947" style="stroke: #000000; stroke-width: 0.8"/>
      </g>
     </g>
    </g>
    <g id="xtick_23">
     <g id="line2d_45">
      <path d="M 196.877957 146.747947 
L 196.877957 12.07875 
" clip-path="url(#p047bba5f42)" style="fill: none; stroke: #b0b0b0; stroke-width: 0.3; stroke-linecap: square"/>
     </g>
     <g id="line2d_46">
      <g>
       <use xlink:href="#m05107edfa5" x="196.877957" y="146.747947" style="stroke: #000000; stroke-width: 0.8"/>
      </g>
     </g>
    </g>
    <g id="text_6">
     <text style="font: 9.6px 'DejaVu Sans', 'Bitstream Vera Sans', 'Computer Modern Sans Serif', 'Lucida Grande', 'Verdana', 'Geneva', 'Lucid', 'Arial', 'Helvetica', 'Avant Garde', sans-serif; text-anchor: middle" x="119.3836" y="174.859197" transform="rotate(-0 119.3836 174.859197)">Wavelength (nm)</text>
    </g>
   </g>
   <g id="matplotlib.axis_2">
    <g id="ytick_1">
     <g id="line2d_47">
      <path d="M 41.18475 144.77602 
L 197.582451 144.77602 
" clip-path="url(#p047bba5f42)" style="fill: none; stroke: #b0b0b0; stroke-width: 0.6; stroke-linecap: square"/>
     </g>
     <g id="line2d_48">
      <defs>
       <path id="mc373b7c5da" d="M 0 0 
L -4.8 0 
" style="stroke: #000000"/>
      </defs>
      <g>
       <use xlink:href="#mc373b7c5da" x="41.18475" y="144.77602" style="stroke: #000000"/>
      </g>
     </g>
     <g id="text_7">
      <text style="font: 8.8px 'DejaVu Sans', 'Bitstream Vera Sans', 'Computer Modern Sans Serif', 'Lucida Grande', 'Verdana', 'Geneva', 'Lucid', 'Arial', 'Helvetica', 'Avant Garde', sans-serif; text-anchor: end" x="32.88475" y="148.119332" transform="rotate(-0 32.88475 148.119332)">0.60</text>
     </g>
    </g>
    <g id="ytick_2">
     <g id="line2d_49">
      <path d="M 41.18475 123.779484 
L 197.582451 123.779484 
" clip-path="url(#p047bba5f42)" style="fill: none; stroke: #b0b0b0; stroke-width: 0.6; stroke-linecap: square"/>
     </g>
     <g id="line2d_50">
      <g>
       <use xlink:href="#mc373b7c5da" x="41.18475" y="123.779484" style="stroke: #000000"/>
      </g>
     </g>
     <g id="text_8">
      <text style="font: 8.8px 'DejaVu Sans', 'Bitstream Vera Sans', 'Computer Modern Sans Serif', 'Lucida Grande', 'Verdana', 'Geneva', 'Lucid', 'Arial', 'Helvetica', 'Avant Garde', sans-serif; text-anchor: end" x="32.88475" y="127.122796" transform="rotate(-0 32.88475 127.122796)">0.65</text>
     </g>
    </g>
    <g id="ytick_3">
     <g id="line2d_51">
      <path d="M 41.18475 102.782948 
L 197.582451 102.782948 
" clip-path="url(#p047bba5f42)" style="fill: none; stroke: #b0b0b0; stroke-width: 0.6; stroke-linecap: square"/>
     </g>
     <g id="line2d_52">
      <g>
       <use xlink:href="#mc373b7c5da" x="41.18475" y="102.782948" style="stroke: #000000"/>
      </g>
     </g>
     <g id="text_9">
      <text style="font: 8.8px 'DejaVu Sans', 'Bitstream Vera Sans', 'Computer Modern Sans Serif', 'Lucida Grande', 'Verdana', 'Geneva', 'Lucid', 'Arial', 'Helvetica', 'Avant Garde', sans-serif; text-anchor: end" x="32.88475" y="106.12626" transform="rotate(-0 32.88475 106.12626)">0.70</text>
     </g>
    </g>
    <g id="ytick_4">
     <g id="line2d_53">
      <path d="M 41.18475 81.786411 
L 197.582451 81.786411 
" clip-path="url(#p047bba5f42)" style="fill: none; stroke: #b0b0b0; stroke-width: 0.6; stroke-linecap: square"/>
     </g>
     <g id="line2d_54">
      <g>
       <use xlink:href="#mc373b7c5da" x="41.18475" y="81.786411" style="stroke: #000000"/>
      </g>
     </g>
     <g id="text_10">
      <text style="font: 8.8px 'DejaVu Sans', 'Bitstream Vera Sans', 'Computer Modern Sans Serif', 'Lucida Grande', 'Verdana', 'Geneva', 'Lucid', 'Arial', 'Helvetica', 'Avant Garde', sans-serif; text-anchor: end" x="32.88475" y="85.129724" transform="rotate(-0 32.88475 85.129724)">0.75</text>
     </g>
    </g>
    <g id="ytick_5">
     <g id="line2d_55">
      <path d="M 41.18475 60.789875 
L 197.582451 60.789875 
" clip-path="url(#p047bba5f42)" style="fill: none; stroke: #b0b0b0; stroke-width: 0.6; stroke-linecap: square"/>
     </g>
     <g id="line2d_56">
      <g>
       <use xlink:href="#mc373b7c5da" x="41.18475" y="60.789875" style="stroke: #000000"/>
      </g>
     </g>
     <g id="text_11">
      <text style="font: 8.8px 'DejaVu Sans', 'Bitstream Vera Sans', 'Computer Modern Sans Serif', 'Lucida Grande', 'Verdana', 'Geneva', 'Lucid', 'Arial', 'Helvetica', 'Avant Garde', sans-serif; text-anchor: end" x="32.88475" y="64.133188" transform="rotate(-0 32.88475 64.133188)">0.80</text>
     </g>
    </g>
    <g id="ytick_6">
     <g id="line2d_57">
      <path d="M 41.18475 39.793339 
L 197.582451 39.793339 
" clip-path="url(#p047bba5f42)" style="fill: none; stroke: #b0b0b0; stroke-width: 0.6; stroke-linecap: square"/>
     </g>
     <g id="line2d_58">
      <g>
       <use xlink:href="#mc373b7c5da" x="41.18475" y="39.793339" style="stroke: #000000"/>
      </g>
     </g>
     <g id="text_12">
      <text style="font: 8.8px 'DejaVu Sans', 'Bitstream Vera Sans', 'Computer Modern Sans Serif', 'Lucida Grande', 'Verdana', 'Geneva', 'Lucid', 'Arial', 'Helvetica', 'Avant Garde', sans-serif; text-anchor: end" x="32.88475" y="43.136652" transform="rotate(-0 32.88475 43.136652)">0.85</text>
     </g>
    </g>
    <g id="ytick_7">
     <g id="line2d_59">
      <path d="M 41.18475 18.796803 
L 197.582451 18.796803 
" clip-path="url(#p047bba5f42)" style="fill: none; stroke: #b0b0b0; stroke-width: 0.6; stroke-linecap: square"/>
     </g>
     <g id="line2d_60">
      <g>
       <use xlink:href="#mc373b7c5da" x="41.18475" y="18.796803" style="stroke: #000000"/>
      </g>
     </g>
     <g id="text_13">
      <text style="font: 8.8px 'DejaVu Sans', 'Bitstream Vera Sans', 'Computer Modern Sans Serif', 'Lucida Grande', 'Verdana', 'Geneva', 'Lucid', 'Arial', 'Helvetica', 'Avant Garde', sans-serif; text-anchor: end" x="32.88475" y="22.140116" transform="rotate(-0 32.88475 22.140116)">0.90</text>
     </g>
    </g>
    <g id="text_14">
     <text style="font: 9.6px 'DejaVu Sans', 'Bitstream Vera Sans', 'Computer Modern Sans Serif', 'Lucida Grande', 'Verdana', 'Geneva', 'Lucid', 'Arial', 'Helvetica', 'Avant Garde', sans-serif; text-anchor: middle" x="7.2945" y="79.413348" transform="rotate(-90 7.2945 79.413348)">Reflectance</text>
    </g>
   </g>
   <g id="line2d_61">
    <path d="M 42.529693 25.532327 
L 43.171744 25.489527 
L 43.820231 25.205389 
L 46.819819 25.214368 
L 47.504878 25.101589 
L 49.247722 25.409581 
L 49.601537 25.695337 
L 49.957121 25.769144 
L 51.397325 25.463623 
L 53.987864 25.692238 
L 54.744782 25.204054 
L 55.509289 25.156922 
L 56.28146 25.288703 
L 56.670443 25.241196 
L 57.061372 25.318713 
L 58.644729 25.013207 
L 59.448333 24.82093 
L 60.259993 25.052313 
L 61.492764 24.572037 
L 61.907804 24.6459 
L 63.58882 24.153618 
L 64.01434 24.212009 
L 67.495996 23.520001 
L 68.837852 23.583679 
L 69.743641 23.328736 
L 70.199936 23.300429 
L 70.658512 23.408599 
L 71.582553 23.274102 
L 72.515859 23.425664 
L 72.986014 23.597725 
L 73.45852 23.928914 
L 73.933389 24.433291 
L 74.410632 24.775787 
L 77.324621 24.195307 
L 78.31549 23.877939 
L 79.316293 23.243985 
L 83.420846 22.337766 
L 84.472831 21.983772 
L 90.450116 21.179771 
L 91.572568 20.654458 
L 92.706273 20.651542 
L 93.277381 20.558822 
L 94.428177 20.126406 
L 97.355893 20.022564 
L 98.547576 19.772398 
L 99.751206 19.970399 
L 101.579312 20.655455 
L 102.813335 21.328589 
L 104.059729 21.696469 
L 105.318618 22.415774 
L 106.590127 22.714367 
L 107.230654 23.052822 
L 109.824948 25.752733 
L 110.481649 26.605302 
L 111.141633 26.917653 
L 111.804918 26.7747 
L 112.471518 26.74519 
L 113.814735 27.152703 
L 114.491385 27.4388 
L 117.231987 29.448152 
L 118.622927 30.232236 
L 119.323618 30.294485 
L 120.735528 29.30969 
L 121.446781 29.018768 
L 122.161591 28.863945 
L 122.879976 28.958598 
L 125.789611 29.968153 
L 127.266342 30.886274 
L 128.01025 31.483827 
L 128.757878 32.307386 
L 129.509243 33.306944 
L 130.264365 33.943944 
L 131.023263 34.062462 
L 131.785956 33.980412 
L 132.552462 34.069749 
L 133.3228 34.348366 
L 134.09699 34.938183 
L 134.875051 35.833314 
L 135.657003 37.25021 
L 136.442864 39.21929 
L 137.232655 41.68812 
L 138.026394 44.844033 
L 140.431504 56.114337 
L 142.872871 65.492351 
L 143.694812 63.953213 
L 145.351042 50.663675 
L 146.185374 46.268846 
L 147.023877 44.43761 
L 147.866572 44.358509 
L 148.713481 45.639333 
L 149.564625 48.314686 
L 150.420024 52.27297 
L 151.2797 57.507928 
L 153.884605 77.143804 
L 155.642989 86.091812 
L 156.52878 89.934102 
L 157.419 87.553722 
L 159.212816 64.256818 
L 160.116456 56.018963 
L 161.024614 50.460279 
L 161.937313 46.779686 
L 162.854576 45.043551 
L 163.776425 44.476411 
L 164.702883 44.776073 
L 165.633974 46.220297 
L 166.56972 49.061185 
L 167.510145 53.876407 
L 168.455272 61.508963 
L 169.405124 70.141273 
L 170.359726 77.72723 
L 174.226102 103.148166 
L 175.204809 107.57652 
L 176.188409 107.071504 
L 177.176927 105.695977 
L 178.170388 105.297045 
L 179.168816 105.923337 
L 180.172236 107.302955 
L 185.265098 116.065889 
L 186.298999 117.410541 
L 188.382337 119.523899 
L 190.48656 121.670262 
L 191.546569 123.002592 
L 192.611878 124.59481 
L 193.682513 126.466311 
L 193.682513 126.466311 
" clip-path="url(#p047bba5f42)" style="fill: none; stroke: #1f77b4; stroke-width: 0.5; stroke-linecap: square"/>
   </g>
   <g id="line2d_62"/>
   <g id="line2d_63">
    <path d="M 41.889244 25.150358 
L 42.241491 25.754227 
L 42.311941 25.698376 
L 42.664188 25.498147 
L 43.298232 25.821407 
L 43.65048 24.666607 
L 43.720929 24.808035 
L 44.002727 25.373749 
L 44.073176 25.301523 
L 44.425423 25.074853 
L 44.77767 25.274571 
L 45.129917 25.106 
L 45.763962 25.259538 
L 46.186658 25.191757 
L 46.468456 24.82492 
L 46.820703 25.603448 
L 47.2434 24.899734 
L 47.595647 24.965493 
L 47.947894 25.202921 
L 48.37059 25.035121 
L 48.652388 24.989772 
L 48.934186 24.748905 
L 49.427332 25.726835 
L 49.63868 26.303056 
L 49.709129 26.237969 
L 50.202275 25.923194 
L 50.413623 25.776889 
L 50.76587 25.338652 
L 51.329466 25.44582 
L 51.470365 25.397277 
L 51.752162 25.103327 
L 52.104409 26.087224 
L 52.174859 26.002904 
L 52.808903 25.388041 
L 53.161151 26.554181 
L 53.513398 25.168004 
L 53.865645 26.485324 
L 53.936094 26.331796 
L 54.570139 24.75729 
L 54.640588 24.835398 
L 54.922386 25.14783 
L 54.992835 25.066283 
L 55.274633 24.740094 
L 55.767779 25.207892 
L 56.049577 25.31547 
L 56.331374 25.720612 
L 56.683621 24.618725 
L 57.035868 25.802084 
L 57.106318 25.741617 
L 57.529014 25.272649 
L 57.740362 24.931998 
L 57.810812 24.996079 
L 58.163059 25.177741 
L 58.444857 24.879085 
L 58.515306 24.964411 
L 58.797104 25.305718 
L 59.149351 24.417985 
L 59.2198 24.457377 
L 59.783395 24.663663 
L 59.853845 24.675843 
L 60.206092 25.944855 
L 60.699238 24.881428 
L 60.981036 24.479734 
L 61.262833 23.755771 
L 61.755979 24.907223 
L 61.967327 25.13524 
L 62.460473 24.352908 
L 62.88317 24.308305 
L 63.024069 24.328128 
L 63.376316 23.26361 
L 63.799012 24.474523 
L 64.08081 24.485616 
L 64.433057 23.787259 
L 64.503506 23.861167 
L 64.855753 24.110439 
L 65.208 24.007386 
L 65.489798 24.336939 
L 65.912495 23.49431 
L 66.264742 23.483572 
L 66.546539 23.773818 
L 67.110135 23.183314 
L 67.321483 23.187179 
L 67.67373 23.493229 
L 68.096426 23.457276 
L 68.519123 23.739973 
L 68.730471 23.812284 
L 69.153168 23.350534 
L 69.364516 23.014163 
L 69.716763 23.554206 
L 70.06901 22.225949 
L 70.491707 23.669429 
L 70.773504 23.634827 
L 71.196201 23.005262 
L 71.618897 23.012321 
L 72.112043 22.934213 
L 72.252942 23.026513 
L 72.53474 23.391688 
L 72.605189 23.328277 
L 72.886987 23.074635 
L 72.957436 23.156102 
L 73.450582 23.577965 
L 73.591481 23.641961 
L 74.155076 25.300442 
L 74.436874 25.632017 
L 74.648222 25.721463 
L 75.000469 24.387749 
L 75.070919 24.432598 
L 75.423166 24.58117 
L 75.845862 24.517184 
L 76.05721 24.606135 
L 76.409457 24.131594 
L 76.761704 25.193184 
L 77.3253 24.138497 
L 77.677547 23.88041 
L 77.818446 23.823802 
L 78.170693 24.785849 
L 78.663839 23.478952 
L 79.227434 22.870542 
L 79.72058 22.980403 
L 80.002378 23.083195 
L 80.425074 22.917077 
L 80.91822 22.935309 
L 81.129568 22.8147 
L 81.340916 22.644623 
L 81.693163 23.237579 
L 82.256759 22.170443 
L 82.397658 21.828275 
L 82.468107 21.89538 
L 83.383949 22.630601 
L 83.454399 22.659741 
L 83.806646 21.569191 
L 83.877095 21.659138 
L 84.158893 22.018927 
L 84.229342 21.939227 
L 84.652039 21.614881 
L 84.933837 21.665436 
L 85.286084 21.862891 
L 85.990578 21.531892 
L 86.342825 21.787967 
L 86.695072 21.521154 
L 86.97687 21.011527 
L 87.047319 21.102901 
L 87.470016 21.476796 
L 87.822263 21.420364 
L 88.10406 21.344363 
L 88.385858 21.454555 
L 88.738105 20.759151 
L 88.808554 20.864467 
L 89.160801 21.265655 
L 89.724397 21.212912 
L 89.865296 21.304626 
L 90.147093 21.64393 
L 90.49934 20.982542 
L 90.56979 21.053006 
L 90.851587 21.334862 
L 91.203834 19.406965 
L 91.274284 19.585353 
L 91.626531 20.289747 
L 91.978778 20.320649 
L 92.542373 20.723108 
L 92.612823 20.756198 
L 92.96507 19.995717 
L 93.317317 20.993881 
L 93.951362 19.743336 
L 94.374058 19.182723 
L 94.726305 20.097738 
L 95.078552 19.090763 
L 95.430799 20.310642 
L 95.501249 20.289226 
L 96.064844 20.024511 
L 96.910237 19.5583 
L 97.403383 19.808248 
L 97.896529 19.94448 
L 98.248776 18.200077 
L 98.601023 19.635813 
L 98.671472 19.505217 
L 98.95327 18.982835 
L 99.02372 19.048933 
L 99.375967 19.301149 
L 99.728214 19.324577 
L 100.15091 19.650275 
L 101.137202 20.015775 
L 101.489449 20.1075 
L 101.771247 19.83067 
L 102.193943 20.898562 
L 102.54619 21.071558 
L 102.898437 21.346286 
L 103.462033 20.77955 
L 103.532482 20.692372 
L 103.602931 20.781648 
L 104.025628 21.171172 
L 104.589223 21.405822 
L 105.01192 22.251835 
L 105.364167 22.328766 
L 105.645965 22.605576 
L 106.068661 22.010697 
L 106.491357 22.078068 
L 106.702706 22.215887 
L 107.054953 21.61034 
L 107.548099 22.680921 
L 107.759447 22.832346 
L 108.252593 24.028471 
L 108.60484 24.23289 
L 108.886638 24.340068 
L 109.309334 24.717657 
L 109.520682 24.789203 
L 110.436525 27.25438 
L 110.929671 28.805012 
L 111.422817 26.636323 
L 111.634165 26.23042 
L 111.986412 26.829233 
L 112.409108 26.211773 
L 113.184052 26.466166 
L 113.606748 26.895753 
L 113.818097 26.940771 
L 114.240793 26.791103 
L 114.804388 26.804454 
L 115.227085 27.827833 
L 115.508883 27.908469 
L 116.002028 28.916045 
L 116.495174 29.137508 
L 116.776972 29.107528 
L 116.917871 29.074608 
L 117.340567 29.73062 
L 117.904163 29.619768 
L 117.974612 29.620108 
L 118.890454 31.337024 
L 119.031353 31.607626 
L 119.101803 31.53053 
L 119.45405 31.03141 
L 120.158544 29.393594 
L 120.722139 28.654173 
L 121.144836 28.353574 
L 121.567532 28.494262 
L 121.990229 27.884015 
L 122.201577 27.442339 
L 122.553824 28.477047 
L 122.906071 27.515401 
L 123.258318 28.898649 
L 123.328768 28.83222 
L 123.610565 28.566503 
L 123.962812 29.03849 
L 124.033262 28.949464 
L 124.385509 28.620487 
L 124.737756 28.663404 
L 125.019554 28.401031 
L 125.371801 29.523518 
L 125.44225 29.43281 
L 125.794497 29.082493 
L 126.217194 29.235185 
L 126.498991 29.539638 
L 126.921688 30.180621 
L 127.133036 30.239071 
L 127.485283 29.655375 
L 127.90798 30.74198 
L 128.612474 30.961527 
L 129.10562 32.48805 
L 129.457867 33.475222 
L 129.739664 33.879203 
L 130.655507 34.507256 
L 131.007754 33.501933 
L 131.078203 33.54905 
L 131.360001 33.737514 
L 131.782697 32.764785 
L 132.557641 32.936124 
L 132.768989 33.145008 
L 133.191686 32.611593 
L 133.755281 32.751359 
L 133.82573 32.754468 
L 134.177977 33.796735 
L 134.248427 33.708214 
L 134.600674 33.384028 
L 134.882472 33.50361 
L 135.516516 34.757955 
L 135.727865 35.235839 
L 136.221011 36.818715 
L 136.643707 37.996463 
L 137.066404 39.078703 
L 137.559549 40.95621 
L 137.700448 41.311813 
L 138.193594 44.5949 
L 138.475392 45.720481 
L 139.95483 55.818312 
L 140.870672 59.999153 
L 141.222919 60.451417 
L 142.138761 67.510192 
L 143.054604 76.633612 
L 143.336401 77.176819 
L 143.759098 73.803445 
L 144.181794 66.84133 
L 145.097637 48.611886 
L 145.661232 43.073753 
L 146.154378 40.31405 
L 146.858872 38.755267 
L 146.999771 38.870835 
L 147.492917 39.401973 
L 147.563366 39.491419 
L 147.633816 39.418688 
L 147.915613 39.127761 
L 148.479209 39.893534 
L 148.620108 39.997848 
L 150.099545 46.589496 
L 151.649432 58.000282 
L 152.283477 65.325544 
L 153.340218 78.542857 
L 153.833364 82.084301 
L 154.678757 86.410441 
L 155.031004 87.399124 
L 155.453701 89.789702 
L 155.805948 93.277472 
L 156.299094 101.269269 
L 156.862689 109.869978 
L 157.074037 111.217785 
L 157.426284 108.379796 
L 158.060329 89.321875 
L 158.835273 66.121639 
L 159.328419 55.33116 
L 159.962463 51.139014 
L 160.38516 48.954413 
L 160.807856 46.652719 
L 160.948755 45.900083 
L 161.371452 40.804693 
L 161.441901 40.813685 
L 161.653249 40.802386 
L 162.216845 38.871341 
L 162.287294 38.744845 
L 162.357743 38.792073 
L 162.70999 40.883612 
L 162.850889 39.204805 
L 163.062238 36.459189 
L 163.132687 36.802275 
L 163.414485 40.417341 
L 163.484934 40.111921 
L 163.837181 38.413179 
L 164.682574 38.401555 
L 165.457518 39.155373 
L 166.021113 40.386979 
L 166.232461 40.910049 
L 166.796057 42.767153 
L 167.077854 43.570509 
L 167.500551 45.500512 
L 167.852798 48.55221 
L 168.205045 53.437396 
L 169.191337 68.737174 
L 169.825381 74.514709 
L 170.03673 76.720717 
L 170.529876 81.649887 
L 170.741224 82.116064 
L 171.093471 84.1926 
L 171.657066 88.091243 
L 171.938864 89.088854 
L 172.150212 89.482894 
L 172.572909 91.993589 
L 173.840998 103.530843 
L 174.475043 113.929593 
L 174.968189 120.877848 
L 175.038638 121.435896 
L 175.109087 121.314901 
L 175.249986 120.794812 
L 175.602233 116.256435 
L 175.95448 112.219186 
L 176.518076 108.920258 
L 177.363469 105.840205 
L 177.574817 105.681216 
L 177.997513 105.617479 
L 178.42021 105.261258 
L 178.631558 105.392904 
L 179.195154 105.968816 
L 179.758749 107.107881 
L 180.040547 107.485756 
L 181.519984 110.931471 
L 182.01313 111.987588 
L 182.576725 113.166115 
L 183.21077 114.585407 
L 184.197062 116.408905 
L 184.901556 117.372795 
L 185.6765 118.528212 
L 185.958297 118.913782 
L 186.310544 119.353996 
L 186.662791 119.941989 
L 186.80369 119.949977 
L 187.015039 119.944109 
L 187.649083 120.522672 
L 188.00133 120.902532 
L 188.283128 120.887667 
L 188.424027 120.892235 
L 189.128521 121.615713 
L 189.480768 121.87249 
L 189.621667 121.909947 
L 190.185262 122.583563 
L 191.312453 123.882733 
L 192.510093 125.775908 
L 193.285036 127.355425 
L 193.848632 128.741901 
L 194.623575 130.641095 
L 195.398519 132.471096 
L 195.821215 134.243127 
L 196.45526 138.335186 
L 196.807507 140.62662 
L 196.807507 140.62662 
" clip-path="url(#p047bba5f42)" style="fill: none; stroke: #1f77b4; stroke-opacity: 0.5; stroke-width: 0.5; stroke-linecap: square"/>
   </g>
   <g id="patch_3">
    <path d="M 41.18475 146.747947 
L 41.18475 12.07875 
" style="fill: none; stroke: #000000; stroke-linejoin: miter; stroke-linecap: square"/>
   </g>
   <g id="patch_4">
    <path d="M 197.582451 146.747947 
L 197.582451 12.07875 
" style="fill: none; stroke: #000000; stroke-linejoin: miter; stroke-linecap: square"/>
   </g>
   <g id="patch_5">
    <path d="M 41.18475 146.747947 
L 197.582451 146.747947 
" style="fill: none; stroke: #000000; stroke-linejoin: miter; stroke-linecap: square"/>
   </g>
   <g id="patch_6">
    <path d="M 41.18475 12.07875 
L 197.582451 12.07875 
" style="fill: none; stroke: #000000; stroke-linejoin: miter; stroke-linecap: square"/>
   </g>
   <g id="text_15">
    <text style="font: 8px 'DejaVu Sans', 'Bitstream Vera Sans', 'Computer Modern Sans Serif', 'Lucida Grande', 'Verdana', 'Geneva', 'Lucid', 'Arial', 'Helvetica', 'Avant Garde', sans-serif; text-anchor: middle" x="119.3836" y="6.07875" transform="rotate(-0 119.3836 6.07875)">enfys Carbonates Calcite</text>
   </g>
   <g id="legend_1">
    <g id="patch_7">
     <path d="M 204.910405 84.716786 
L 271.202905 84.716786 
Q 272.402905 84.716786 272.402905 83.516786 
L 272.402905 75.309911 
Q 272.402905 74.109911 271.202905 74.109911 
L 204.910405 74.109911 
Q 203.710405 74.109911 203.710405 75.309911 
L 203.710405 83.516786 
Q 203.710405 84.716786 204.910405 84.716786 
z
" style="fill: #ffffff; opacity: 0.8; stroke: #cccccc; stroke-width: 0.8; stroke-linejoin: miter"/>
    </g>
    <g id="line2d_64">
     <path d="M 206.110405 78.968973 
L 212.110405 78.968973 
L 218.110405 78.968973 
" style="fill: none; stroke: #1f77b4; stroke-width: 1.2; stroke-linecap: square"/>
    </g>
    <g id="text_16">
     <text style="font: 6px 'DejaVu Sans', 'Bitstream Vera Sans', 'Computer Modern Sans Serif', 'Lucida Grande', 'Verdana', 'Geneva', 'Lucid', 'Arial', 'Helvetica', 'Avant Garde', sans-serif; text-anchor: start" x="222.910405" y="81.068973" transform="rotate(-0 222.910405 81.068973)">Calcite CAGR01</text>
    </g>
   </g>
  </g>
 </g>
 <defs>
  <clipPath id="p047bba5f42">
   <rect x="41.18475" y="12.07875" width="156.397701" height="134.669197"/>
  </clipPath>
 </defs>
</svg>
