<?xml version="1.0" encoding="utf-8" standalone="no"?>
<!DOCTYPE svg PUBLIC "-//W3C//DTD SVG 1.1//EN"
  "http://www.w3.org/Graphics/SVG/1.1/DTD/svg11.dtd">
<svg xmlns:xlink="http://www.w3.org/1999/xlink" width="272.232105pt" height="176.855697pt" viewBox="0 0 272.232105 176.855697" xmlns="http://www.w3.org/2000/svg" version="1.1">
 <metadata>
  <rdf:RDF xmlns:dc="http://purl.org/dc/elements/1.1/" xmlns:cc="http://creativecommons.org/ns#" xmlns:rdf="http://www.w3.org/1999/02/22-rdf-syntax-ns#">
   <cc:Work>
    <dc:type rdf:resource="http://purl.org/dc/dcmitype/StillImage"/>
    <dc:date>2025-02-12T16:36:02.373640</dc:date>
    <dc:format>image/svg+xml</dc:format>
    <dc:creator>
     <cc:Agent>
      <dc:title>Matplotlib v3.6.2, https://matplotlib.org/</dc:title>
     </cc:Agent>
    </dc:creator>
   </cc:Work>
  </rdf:RDF>
 </metadata>
 <defs>
  <style type="text/css">*{stroke-linejoin: round; stroke-linecap: butt}</style>
 </defs>
 <g id="figure_1">
  <g id="patch_1">
   <path d="M -0 176.855697 
L 272.232105 176.855697 
L 272.232105 0 
L -0 0 
z
" style="fill: #ffffff"/>
  </g>
  <g id="axes_1">
   <g id="patch_2">
    <path d="M 35.58575 146.747947 
L 188.893451 146.747947 
L 188.893451 12.07875 
L 35.58575 12.07875 
z
" style="fill: #ffffff"/>
   </g>
   <g id="matplotlib.axis_1">
    <g id="xtick_1">
     <g id="line2d_1">
      <path d="M 43.182078 146.747947 
L 43.182078 12.07875 
" clip-path="url(#p3529453a2a)" style="fill: none; stroke: #b0b0b0; stroke-width: 0.6; stroke-linecap: square"/>
     </g>
     <g id="line2d_2">
      <defs>
       <path id="mca4b1d31ce" d="M 0 0 
L 0 4.8 
" style="stroke: #000000"/>
      </defs>
      <g>
       <use xlink:href="#mca4b1d31ce" x="43.182078" y="146.747947" style="stroke: #000000"/>
      </g>
     </g>
     <g id="text_1">
      <text style="font: 8.8px 'DejaVu Sans', 'Bitstream Vera Sans', 'Computer Modern Sans Serif', 'Lucida Grande', 'Verdana', 'Geneva', 'Lucid', 'Arial', 'Helvetica', 'Avant Garde', sans-serif; text-anchor: middle" x="43.182078" y="161.734572" transform="rotate(-0 43.182078 161.734572)">1000</text>
     </g>
    </g>
    <g id="xtick_2">
     <g id="line2d_3">
      <path d="M 77.710839 146.747947 
L 77.710839 12.07875 
" clip-path="url(#p3529453a2a)" style="fill: none; stroke: #b0b0b0; stroke-width: 0.6; stroke-linecap: square"/>
     </g>
     <g id="line2d_4">
      <g>
       <use xlink:href="#mca4b1d31ce" x="77.710839" y="146.747947" style="stroke: #000000"/>
      </g>
     </g>
     <g id="text_2">
      <text style="font: 8.8px 'DejaVu Sans', 'Bitstream Vera Sans', 'Computer Modern Sans Serif', 'Lucida Grande', 'Verdana', 'Geneva', 'Lucid', 'Arial', 'Helvetica', 'Avant Garde', sans-serif; text-anchor: middle" x="77.710839" y="161.734572" transform="rotate(-0 77.710839 161.734572)">1500</text>
     </g>
    </g>
    <g id="xtick_3">
     <g id="line2d_5">
      <path d="M 112.2396 146.747947 
L 112.2396 12.07875 
" clip-path="url(#p3529453a2a)" style="fill: none; stroke: #b0b0b0; stroke-width: 0.6; stroke-linecap: square"/>
     </g>
     <g id="line2d_6">
      <g>
       <use xlink:href="#mca4b1d31ce" x="112.2396" y="146.747947" style="stroke: #000000"/>
      </g>
     </g>
     <g id="text_3">
      <text style="font: 8.8px 'DejaVu Sans', 'Bitstream Vera Sans', 'Computer Modern Sans Serif', 'Lucida Grande', 'Verdana', 'Geneva', 'Lucid', 'Arial', 'Helvetica', 'Avant Garde', sans-serif; text-anchor: middle" x="112.2396" y="161.734572" transform="rotate(-0 112.2396 161.734572)">2000</text>
     </g>
    </g>
    <g id="xtick_4">
     <g id="line2d_7">
      <path d="M 146.768362 146.747947 
L 146.768362 12.07875 
" clip-path="url(#p3529453a2a)" style="fill: none; stroke: #b0b0b0; stroke-width: 0.6; stroke-linecap: square"/>
     </g>
     <g id="line2d_8">
      <g>
       <use xlink:href="#mca4b1d31ce" x="146.768362" y="146.747947" style="stroke: #000000"/>
      </g>
     </g>
     <g id="text_4">
      <text style="font: 8.8px 'DejaVu Sans', 'Bitstream Vera Sans', 'Computer Modern Sans Serif', 'Lucida Grande', 'Verdana', 'Geneva', 'Lucid', 'Arial', 'Helvetica', 'Avant Garde', sans-serif; text-anchor: middle" x="146.768362" y="161.734572" transform="rotate(-0 146.768362 161.734572)">2500</text>
     </g>
    </g>
    <g id="xtick_5">
     <g id="line2d_9">
      <path d="M 181.297123 146.747947 
L 181.297123 12.07875 
" clip-path="url(#p3529453a2a)" style="fill: none; stroke: #b0b0b0; stroke-width: 0.6; stroke-linecap: square"/>
     </g>
     <g id="line2d_10">
      <g>
       <use xlink:href="#mca4b1d31ce" x="181.297123" y="146.747947" style="stroke: #000000"/>
      </g>
     </g>
     <g id="text_5">
      <text style="font: 8.8px 'DejaVu Sans', 'Bitstream Vera Sans', 'Computer Modern Sans Serif', 'Lucida Grande', 'Verdana', 'Geneva', 'Lucid', 'Arial', 'Helvetica', 'Avant Garde', sans-serif; text-anchor: middle" x="181.297123" y="161.734572" transform="rotate(-0 181.297123 161.734572)">3000</text>
     </g>
    </g>
    <g id="xtick_6">
     <g id="line2d_11">
      <path d="M 36.276325 146.747947 
L 36.276325 12.07875 
" clip-path="url(#p3529453a2a)" style="fill: none; stroke: #b0b0b0; stroke-width: 0.3; stroke-linecap: square"/>
     </g>
     <g id="line2d_12">
      <defs>
       <path id="m491c721e13" d="M 0 0 
L 0 3.2 
" style="stroke: #000000; stroke-width: 0.8"/>
      </defs>
      <g>
       <use xlink:href="#m491c721e13" x="36.276325" y="146.747947" style="stroke: #000000; stroke-width: 0.8"/>
      </g>
     </g>
    </g>
    <g id="xtick_7">
     <g id="line2d_13">
      <path d="M 50.08783 146.747947 
L 50.08783 12.07875 
" clip-path="url(#p3529453a2a)" style="fill: none; stroke: #b0b0b0; stroke-width: 0.3; stroke-linecap: square"/>
     </g>
     <g id="line2d_14">
      <g>
       <use xlink:href="#m491c721e13" x="50.08783" y="146.747947" style="stroke: #000000; stroke-width: 0.8"/>
      </g>
     </g>
    </g>
    <g id="xtick_8">
     <g id="line2d_15">
      <path d="M 56.993582 146.747947 
L 56.993582 12.07875 
" clip-path="url(#p3529453a2a)" style="fill: none; stroke: #b0b0b0; stroke-width: 0.3; stroke-linecap: square"/>
     </g>
     <g id="line2d_16">
      <g>
       <use xlink:href="#m491c721e13" x="56.993582" y="146.747947" style="stroke: #000000; stroke-width: 0.8"/>
      </g>
     </g>
    </g>
    <g id="xtick_9">
     <g id="line2d_17">
      <path d="M 63.899334 146.747947 
L 63.899334 12.07875 
" clip-path="url(#p3529453a2a)" style="fill: none; stroke: #b0b0b0; stroke-width: 0.3; stroke-linecap: square"/>
     </g>
     <g id="line2d_18">
      <g>
       <use xlink:href="#m491c721e13" x="63.899334" y="146.747947" style="stroke: #000000; stroke-width: 0.8"/>
      </g>
     </g>
    </g>
    <g id="xtick_10">
     <g id="line2d_19">
      <path d="M 70.805087 146.747947 
L 70.805087 12.07875 
" clip-path="url(#p3529453a2a)" style="fill: none; stroke: #b0b0b0; stroke-width: 0.3; stroke-linecap: square"/>
     </g>
     <g id="line2d_20">
      <g>
       <use xlink:href="#m491c721e13" x="70.805087" y="146.747947" style="stroke: #000000; stroke-width: 0.8"/>
      </g>
     </g>
    </g>
    <g id="xtick_11">
     <g id="line2d_21">
      <path d="M 84.616591 146.747947 
L 84.616591 12.07875 
" clip-path="url(#p3529453a2a)" style="fill: none; stroke: #b0b0b0; stroke-width: 0.3; stroke-linecap: square"/>
     </g>
     <g id="line2d_22">
      <g>
       <use xlink:href="#m491c721e13" x="84.616591" y="146.747947" style="stroke: #000000; stroke-width: 0.8"/>
      </g>
     </g>
    </g>
    <g id="xtick_12">
     <g id="line2d_23">
      <path d="M 91.522344 146.747947 
L 91.522344 12.07875 
" clip-path="url(#p3529453a2a)" style="fill: none; stroke: #b0b0b0; stroke-width: 0.3; stroke-linecap: square"/>
     </g>
     <g id="line2d_24">
      <g>
       <use xlink:href="#m491c721e13" x="91.522344" y="146.747947" style="stroke: #000000; stroke-width: 0.8"/>
      </g>
     </g>
    </g>
    <g id="xtick_13">
     <g id="line2d_25">
      <path d="M 98.428096 146.747947 
L 98.428096 12.07875 
" clip-path="url(#p3529453a2a)" style="fill: none; stroke: #b0b0b0; stroke-width: 0.3; stroke-linecap: square"/>
     </g>
     <g id="line2d_26">
      <g>
       <use xlink:href="#m491c721e13" x="98.428096" y="146.747947" style="stroke: #000000; stroke-width: 0.8"/>
      </g>
     </g>
    </g>
    <g id="xtick_14">
     <g id="line2d_27">
      <path d="M 105.333848 146.747947 
L 105.333848 12.07875 
" clip-path="url(#p3529453a2a)" style="fill: none; stroke: #b0b0b0; stroke-width: 0.3; stroke-linecap: square"/>
     </g>
     <g id="line2d_28">
      <g>
       <use xlink:href="#m491c721e13" x="105.333848" y="146.747947" style="stroke: #000000; stroke-width: 0.8"/>
      </g>
     </g>
    </g>
    <g id="xtick_15">
     <g id="line2d_29">
      <path d="M 119.145353 146.747947 
L 119.145353 12.07875 
" clip-path="url(#p3529453a2a)" style="fill: none; stroke: #b0b0b0; stroke-width: 0.3; stroke-linecap: square"/>
     </g>
     <g id="line2d_30">
      <g>
       <use xlink:href="#m491c721e13" x="119.145353" y="146.747947" style="stroke: #000000; stroke-width: 0.8"/>
      </g>
     </g>
    </g>
    <g id="xtick_16">
     <g id="line2d_31">
      <path d="M 126.051105 146.747947 
L 126.051105 12.07875 
" clip-path="url(#p3529453a2a)" style="fill: none; stroke: #b0b0b0; stroke-width: 0.3; stroke-linecap: square"/>
     </g>
     <g id="line2d_32">
      <g>
       <use xlink:href="#m491c721e13" x="126.051105" y="146.747947" style="stroke: #000000; stroke-width: 0.8"/>
      </g>
     </g>
    </g>
    <g id="xtick_17">
     <g id="line2d_33">
      <path d="M 132.956857 146.747947 
L 132.956857 12.07875 
" clip-path="url(#p3529453a2a)" style="fill: none; stroke: #b0b0b0; stroke-width: 0.3; stroke-linecap: square"/>
     </g>
     <g id="line2d_34">
      <g>
       <use xlink:href="#m491c721e13" x="132.956857" y="146.747947" style="stroke: #000000; stroke-width: 0.8"/>
      </g>
     </g>
    </g>
    <g id="xtick_18">
     <g id="line2d_35">
      <path d="M 139.86261 146.747947 
L 139.86261 12.07875 
" clip-path="url(#p3529453a2a)" style="fill: none; stroke: #b0b0b0; stroke-width: 0.3; stroke-linecap: square"/>
     </g>
     <g id="line2d_36">
      <g>
       <use xlink:href="#m491c721e13" x="139.86261" y="146.747947" style="stroke: #000000; stroke-width: 0.8"/>
      </g>
     </g>
    </g>
    <g id="xtick_19">
     <g id="line2d_37">
      <path d="M 153.674114 146.747947 
L 153.674114 12.07875 
" clip-path="url(#p3529453a2a)" style="fill: none; stroke: #b0b0b0; stroke-width: 0.3; stroke-linecap: square"/>
     </g>
     <g id="line2d_38">
      <g>
       <use xlink:href="#m491c721e13" x="153.674114" y="146.747947" style="stroke: #000000; stroke-width: 0.8"/>
      </g>
     </g>
    </g>
    <g id="xtick_20">
     <g id="line2d_39">
      <path d="M 160.579866 146.747947 
L 160.579866 12.07875 
" clip-path="url(#p3529453a2a)" style="fill: none; stroke: #b0b0b0; stroke-width: 0.3; stroke-linecap: square"/>
     </g>
     <g id="line2d_40">
      <g>
       <use xlink:href="#m491c721e13" x="160.579866" y="146.747947" style="stroke: #000000; stroke-width: 0.8"/>
      </g>
     </g>
    </g>
    <g id="xtick_21">
     <g id="line2d_41">
      <path d="M 167.485619 146.747947 
L 167.485619 12.07875 
" clip-path="url(#p3529453a2a)" style="fill: none; stroke: #b0b0b0; stroke-width: 0.3; stroke-linecap: square"/>
     </g>
     <g id="line2d_42">
      <g>
       <use xlink:href="#m491c721e13" x="167.485619" y="146.747947" style="stroke: #000000; stroke-width: 0.8"/>
      </g>
     </g>
    </g>
    <g id="xtick_22">
     <g id="line2d_43">
      <path d="M 174.391371 146.747947 
L 174.391371 12.07875 
" clip-path="url(#p3529453a2a)" style="fill: none; stroke: #b0b0b0; stroke-width: 0.3; stroke-linecap: square"/>
     </g>
     <g id="line2d_44">
      <g>
       <use xlink:href="#m491c721e13" x="174.391371" y="146.747947" style="stroke: #000000; stroke-width: 0.8"/>
      </g>
     </g>
    </g>
    <g id="xtick_23">
     <g id="line2d_45">
      <path d="M 188.202876 146.747947 
L 188.202876 12.07875 
" clip-path="url(#p3529453a2a)" style="fill: none; stroke: #b0b0b0; stroke-width: 0.3; stroke-linecap: square"/>
     </g>
     <g id="line2d_46">
      <g>
       <use xlink:href="#m491c721e13" x="188.202876" y="146.747947" style="stroke: #000000; stroke-width: 0.8"/>
      </g>
     </g>
    </g>
    <g id="text_6">
     <text style="font: 9.6px 'DejaVu Sans', 'Bitstream Vera Sans', 'Computer Modern Sans Serif', 'Lucida Grande', 'Verdana', 'Geneva', 'Lucid', 'Arial', 'Helvetica', 'Avant Garde', sans-serif; text-anchor: middle" x="112.2396" y="174.859197" transform="rotate(-0 112.2396 174.859197)">Wavelength (nm)</text>
    </g>
   </g>
   <g id="matplotlib.axis_2">
    <g id="ytick_1">
     <g id="line2d_47">
      <path d="M 35.58575 117.252763 
L 188.893451 117.252763 
" clip-path="url(#p3529453a2a)" style="fill: none; stroke: #b0b0b0; stroke-width: 0.6; stroke-linecap: square"/>
     </g>
     <g id="line2d_48">
      <defs>
       <path id="m2b2f67004f" d="M 0 0 
L -4.8 0 
" style="stroke: #000000"/>
      </defs>
      <g>
       <use xlink:href="#m2b2f67004f" x="35.58575" y="117.252763" style="stroke: #000000"/>
      </g>
     </g>
     <g id="text_7">
      <text style="font: 8.8px 'DejaVu Sans', 'Bitstream Vera Sans', 'Computer Modern Sans Serif', 'Lucida Grande', 'Verdana', 'Geneva', 'Lucid', 'Arial', 'Helvetica', 'Avant Garde', sans-serif; text-anchor: end" x="27.28575" y="120.596076" transform="rotate(-0 27.28575 120.596076)">0.4</text>
     </g>
    </g>
    <g id="ytick_2">
     <g id="line2d_49">
      <path d="M 35.58575 79.428929 
L 188.893451 79.428929 
" clip-path="url(#p3529453a2a)" style="fill: none; stroke: #b0b0b0; stroke-width: 0.6; stroke-linecap: square"/>
     </g>
     <g id="line2d_50">
      <g>
       <use xlink:href="#m2b2f67004f" x="35.58575" y="79.428929" style="stroke: #000000"/>
      </g>
     </g>
     <g id="text_8">
      <text style="font: 8.8px 'DejaVu Sans', 'Bitstream Vera Sans', 'Computer Modern Sans Serif', 'Lucida Grande', 'Verdana', 'Geneva', 'Lucid', 'Arial', 'Helvetica', 'Avant Garde', sans-serif; text-anchor: end" x="27.28575" y="82.772241" transform="rotate(-0 27.28575 82.772241)">0.6</text>
     </g>
    </g>
    <g id="ytick_3">
     <g id="line2d_51">
      <path d="M 35.58575 41.605094 
L 188.893451 41.605094 
" clip-path="url(#p3529453a2a)" style="fill: none; stroke: #b0b0b0; stroke-width: 0.6; stroke-linecap: square"/>
     </g>
     <g id="line2d_52">
      <g>
       <use xlink:href="#m2b2f67004f" x="35.58575" y="41.605094" style="stroke: #000000"/>
      </g>
     </g>
     <g id="text_9">
      <text style="font: 8.8px 'DejaVu Sans', 'Bitstream Vera Sans', 'Computer Modern Sans Serif', 'Lucida Grande', 'Verdana', 'Geneva', 'Lucid', 'Arial', 'Helvetica', 'Avant Garde', sans-serif; text-anchor: end" x="27.28575" y="44.948406" transform="rotate(-0 27.28575 44.948406)">0.8</text>
     </g>
    </g>
    <g id="text_10">
     <text style="font: 9.6px 'DejaVu Sans', 'Bitstream Vera Sans', 'Computer Modern Sans Serif', 'Lucida Grande', 'Verdana', 'Geneva', 'Lucid', 'Arial', 'Helvetica', 'Avant Garde', sans-serif; text-anchor: middle" x="7.2945" y="79.413348" transform="rotate(-90 7.2945 79.413348)">Reflectance</text>
    </g>
   </g>
   <g id="line2d_53">
    <path d="M 36.904121 18.834485 
L 38.169161 19.266208 
L 38.489384 19.290981 
L 38.811208 19.515902 
L 39.786367 20.526758 
L 40.776227 21.156056 
L 41.109486 21.444571 
L 41.44441 21.584662 
L 41.781009 21.527778 
L 42.459265 21.060925 
L 43.836244 19.948206 
L 44.887156 19.49453 
L 46.313058 19.143646 
L 48.505965 19.152914 
L 49.251639 19.284202 
L 50.384189 19.986549 
L 51.533813 20.611018 
L 51.920859 20.820112 
L 52.30984 21.295269 
L 53.093648 22.837239 
L 53.488493 23.948348 
L 54.284117 27.062872 
L 54.684915 27.989774 
L 55.087717 27.802536 
L 55.899372 26.005542 
L 56.308246 25.404059 
L 56.719165 25.063635 
L 57.547176 24.662712 
L 58.804782 23.787014 
L 60.511131 23.204503 
L 60.943064 23.19858 
L 62.251864 23.701066 
L 63.13534 24.266779 
L 64.027673 25.268758 
L 64.928952 26.959623 
L 65.382974 28.204911 
L 66.758706 33.389019 
L 67.221877 34.39289 
L 68.155178 35.830991 
L 68.625331 37.205556 
L 69.097835 39.430698 
L 71.011594 53.107576 
L 72.472178 64.163988 
L 72.963916 64.782269 
L 73.458113 63.202663 
L 74.955579 55.058987 
L 75.459734 53.81197 
L 75.96641 53.113156 
L 76.475619 51.544838 
L 78.018574 45.08605 
L 78.538044 43.45604 
L 79.060112 42.359896 
L 79.584789 41.72092 
L 80.112091 41.264141 
L 80.642028 40.578232 
L 82.788409 36.232171 
L 83.877764 34.934089 
L 84.97804 33.767771 
L 86.089346 33.044922 
L 87.211793 32.603871 
L 87.777229 32.574609 
L 88.345492 32.71679 
L 88.916597 33.228977 
L 90.647102 35.599415 
L 91.229714 36.643816 
L 91.81524 38.009287 
L 92.995089 41.73986 
L 95.39039 50.901498 
L 95.996719 52.332791 
L 96.60608 53.072611 
L 97.218488 53.088017 
L 97.833957 52.441118 
L 99.074144 50.446281 
L 99.698892 49.913527 
L 100.326764 50.12807 
L 100.957775 51.215291 
L 101.591941 53.200074 
L 102.229278 56.096384 
L 102.869801 60.127422 
L 103.513528 65.715591 
L 104.160472 73.265947 
L 104.810652 83.132064 
L 106.12078 107.311238 
L 106.780761 114.497082 
L 107.444042 114.20651 
L 108.78057 105.295485 
L 110.130497 94.997656 
L 111.493956 85.841627 
L 112.871085 75.484356 
L 113.564817 71.720229 
L 114.262019 69.184065 
L 114.962706 67.709145 
L 115.666897 67.078906 
L 116.374608 67.188426 
L 117.085859 67.883974 
L 119.241018 71.215765 
L 119.9666 71.823401 
L 122.165187 72.870088 
L 122.905391 73.595919 
L 124.396919 75.680416 
L 128.191484 81.853042 
L 128.961819 82.900757 
L 130.514062 85.492636 
L 131.29601 86.327925 
L 133.665389 87.706863 
L 134.463093 88.450842 
L 135.264786 89.865048 
L 136.070487 92.082721 
L 136.880217 95.087749 
L 138.511842 102.640575 
L 140.159825 111.900561 
L 141.824328 121.764326 
L 142.662827 126.104137 
L 143.505519 129.749719 
L 144.352424 132.650731 
L 145.203563 134.614491 
L 146.058958 135.770736 
L 146.91863 136.044211 
L 147.7826 135.560865 
L 148.650891 134.781065 
L 148.650891 134.781065 
" clip-path="url(#p3529453a2a)" style="fill: none; stroke: #1f77b4; stroke-width: 0.5; stroke-linecap: square"/>
   </g>
   <g id="line2d_54"/>
   <g id="line2d_55">
    <path d="M 36.276325 18.200077 
L 38.002763 19.258689 
L 38.417108 18.748537 
L 38.693339 18.762118 
L 39.383914 20.151383 
L 39.867316 20.587852 
L 40.419777 20.72243 
L 40.834122 21.168244 
L 41.248467 21.876109 
L 41.524697 21.954916 
L 41.939042 21.660585 
L 43.803595 19.655317 
L 45.322861 19.02235 
L 46.773069 18.730057 
L 47.118356 18.857552 
L 47.532701 18.763656 
L 48.085162 18.642121 
L 48.499507 18.685804 
L 48.775737 18.751511 
L 49.190082 18.624309 
L 49.466312 18.741402 
L 50.08783 19.356387 
L 51.330865 20.16523 
L 51.538038 20.032912 
L 51.814268 19.636584 
L 52.712016 21.279536 
L 53.609763 23.672047 
L 54.576569 30.392882 
L 54.714684 30.363195 
L 54.921856 30.318665 
L 55.888662 25.598612 
L 56.164892 25.047111 
L 56.441122 24.77096 
L 57.06264 24.507277 
L 57.33887 24.766352 
L 57.407927 24.679636 
L 58.72002 23.203605 
L 59.134365 22.992203 
L 59.410595 23.165572 
L 59.893998 22.544139 
L 60.722688 22.178301 
L 60.860803 22.14429 
L 61.551379 22.516459 
L 61.896666 22.780907 
L 62.241954 22.653448 
L 62.794414 22.841994 
L 62.932529 22.931927 
L 63.346874 23.282949 
L 63.623104 23.404466 
L 64.31368 24.376429 
L 65.349542 26.504756 
L 65.832945 28.704259 
L 67.006923 34.601279 
L 67.766556 34.068341 
L 68.111843 34.058419 
L 68.457131 34.556478 
L 68.871476 36.022091 
L 69.285821 38.531613 
L 69.562051 41.23813 
L 70.390742 50.216041 
L 70.666972 51.487791 
L 70.943202 52.868946 
L 71.219432 55.060227 
L 72.600582 71.935248 
L 72.876812 72.284376 
L 73.429273 68.087565 
L 75.017596 54.0327 
L 75.293826 53.150343 
L 75.915343 55.492672 
L 75.984401 55.803512 
L 76.329688 54.753298 
L 76.882149 50.041817 
L 78.056127 43.868304 
L 78.746702 41.52464 
L 79.437277 40.787573 
L 80.127852 41.190437 
L 80.47314 41.132463 
L 80.887485 40.208955 
L 81.785233 37.190252 
L 82.406751 35.768176 
L 83.304498 34.190601 
L 83.649786 33.95213 
L 83.926016 34.075558 
L 84.547534 32.897423 
L 84.961879 32.150291 
L 85.445282 32.119955 
L 85.790569 31.860812 
L 86.204914 31.54335 
L 86.481144 31.348703 
L 87.033605 30.843157 
L 87.517007 30.903961 
L 88.069467 30.611702 
L 88.414755 30.386367 
L 89.38156 32.229457 
L 89.726848 32.669822 
L 90.969883 34.194292 
L 91.522344 35.272944 
L 92.281976 37.566195 
L 93.525012 42.815849 
L 94.837105 49.727678 
L 95.389565 51.975653 
L 96.08014 53.955403 
L 96.770715 54.475524 
L 97.046945 54.610748 
L 98.289981 51.071488 
L 99.463959 46.974487 
L 100.223591 46.230769 
L 100.914167 46.947616 
L 101.811914 49.849936 
L 102.50249 53.063122 
L 103.05495 56.651227 
L 103.814583 64.509927 
L 104.505158 75.123909 
L 105.195733 90.86967 
L 106.162538 122.852314 
L 106.507826 131.41236 
L 107.060286 135.607688 
L 107.888976 119.305907 
L 108.924839 109.63767 
L 109.477299 102.903365 
L 109.960702 97.528191 
L 111.272795 89.700097 
L 112.170543 79.957254 
L 112.792061 73.057537 
L 113.620751 67.9198 
L 114.173211 65.71219 
L 114.863786 64.340413 
L 115.485304 63.826348 
L 116.037764 63.773762 
L 117.2808 66.02969 
L 117.764202 67.215761 
L 119.49064 71.489684 
L 120.526503 71.269231 
L 120.940848 71.179565 
L 121.631424 71.617845 
L 122.252941 71.134582 
L 124.117494 74.140333 
L 124.531839 74.845718 
L 125.91299 77.448545 
L 126.534508 78.604309 
L 127.29414 80.560804 
L 127.915658 81.27516 
L 128.537176 81.446579 
L 129.296809 82.646587 
L 130.125499 84.85536 
L 130.608901 86.222089 
L 131.437592 86.314167 
L 131.990052 86.456559 
L 132.680627 85.857922 
L 133.371202 86.304646 
L 134.338008 85.918704 
L 134.683295 85.852062 
L 135.788216 88.456244 
L 136.271618 90.075641 
L 137.031251 93.673582 
L 137.998056 98.505368 
L 138.481459 101.184304 
L 140.000725 110.819749 
L 141.79622 124.037081 
L 142.970198 131.089351 
L 144.558521 137.794496 
L 145.110981 138.693294 
L 146.423074 140.62662 
L 146.492132 140.546137 
L 146.975534 139.846057 
L 149.461605 135.535343 
L 150.773698 133.532513 
L 150.773698 133.532513 
" clip-path="url(#p3529453a2a)" style="fill: none; stroke: #1f77b4; stroke-opacity: 0.5; stroke-width: 0.5; stroke-linecap: square"/>
   </g>
   <g id="patch_3">
    <path d="M 35.58575 146.747947 
L 35.58575 12.07875 
" style="fill: none; stroke: #000000; stroke-linejoin: miter; stroke-linecap: square"/>
   </g>
   <g id="patch_4">
    <path d="M 188.893451 146.747947 
L 188.893451 12.07875 
" style="fill: none; stroke: #000000; stroke-linejoin: miter; stroke-linecap: square"/>
   </g>
   <g id="patch_5">
    <path d="M 35.58575 146.747947 
L 188.893451 146.747947 
" style="fill: none; stroke: #000000; stroke-linejoin: miter; stroke-linecap: square"/>
   </g>
   <g id="patch_6">
    <path d="M 35.58575 12.07875 
L 188.893451 12.07875 
" style="fill: none; stroke: #000000; stroke-linejoin: miter; stroke-linecap: square"/>
   </g>
   <g id="text_11">
    <text style="font: 8px 'DejaVu Sans', 'Bitstream Vera Sans', 'Computer Modern Sans Serif', 'Lucida Grande', 'Verdana', 'Geneva', 'Lucid', 'Arial', 'Helvetica', 'Avant Garde', sans-serif; text-anchor: middle" x="112.2396" y="6.07875" transform="rotate(-0 112.2396 6.07875)">enfys Sulfates Bassanite</text>
   </g>
   <g id="legend_1">
    <g id="patch_7">
     <path d="M 196.159605 84.716786 
L 271.032105 84.716786 
Q 272.232105 84.716786 272.232105 83.516786 
L 272.232105 75.309911 
Q 272.232105 74.109911 271.032105 74.109911 
L 196.159605 74.109911 
Q 194.959605 74.109911 194.959605 75.309911 
L 194.959605 83.516786 
Q 194.959605 84.716786 196.159605 84.716786 
z
" style="fill: #ffffff; opacity: 0.8; stroke: #cccccc; stroke-width: 0.8; stroke-linejoin: miter"/>
    </g>
    <g id="line2d_56">
     <path d="M 197.359605 78.968973 
L 203.359605 78.968973 
L 209.359605 78.968973 
" style="fill: none; stroke: #1f77b4; stroke-width: 1.2; stroke-linecap: square"/>
    </g>
    <g id="text_12">
     <text style="font: 6px 'DejaVu Sans', 'Bitstream Vera Sans', 'Computer Modern Sans Serif', 'Lucida Grande', 'Verdana', 'Geneva', 'Lucid', 'Arial', 'Helvetica', 'Avant Garde', sans-serif; text-anchor: start" x="214.159605" y="81.068973" transform="rotate(-0 214.159605 81.068973)">Bassanite GDS145</text>
    </g>
   </g>
  </g>
 </g>
 <defs>
  <clipPath id="p3529453a2a">
   <rect x="35.58575" y="12.07875" width="153.307701" height="134.669197"/>
  </clipPath>
 </defs>
</svg>
