<?xml version="1.0" encoding="utf-8" standalone="no"?>
<!DOCTYPE svg PUBLIC "-//W3C//DTD SVG 1.1//EN"
  "http://www.w3.org/Graphics/SVG/1.1/DTD/svg11.dtd">
<svg xmlns:xlink="http://www.w3.org/1999/xlink" width="272.422105pt" height="176.645947pt" viewBox="0 0 272.422105 176.645947" xmlns="http://www.w3.org/2000/svg" version="1.1">
 <metadata>
  <rdf:RDF xmlns:dc="http://purl.org/dc/elements/1.1/" xmlns:cc="http://creativecommons.org/ns#" xmlns:rdf="http://www.w3.org/1999/02/22-rdf-syntax-ns#">
   <cc:Work>
    <dc:type rdf:resource="http://purl.org/dc/dcmitype/StillImage"/>
    <dc:date>2025-02-12T16:36:04.641108</dc:date>
    <dc:format>image/svg+xml</dc:format>
    <dc:creator>
     <cc:Agent>
      <dc:title>Matplotlib v3.6.2, https://matplotlib.org/</dc:title>
     </cc:Agent>
    </dc:creator>
   </cc:Work>
  </rdf:RDF>
 </metadata>
 <defs>
  <style type="text/css">*{stroke-linejoin: round; stroke-linecap: butt}</style>
 </defs>
 <g id="figure_1">
  <g id="patch_1">
   <path d="M 0 176.645947 
L 272.422105 176.645947 
L 272.422105 0 
L 0 0 
z
" style="fill: #ffffff"/>
  </g>
  <g id="axes_1">
   <g id="patch_2">
    <path d="M 41.18475 146.538197 
L 205.292451 146.538197 
L 205.292451 21.037 
L 41.18475 21.037 
z
" style="fill: #ffffff"/>
   </g>
   <g id="matplotlib.axis_1">
    <g id="xtick_1">
     <g id="line2d_1">
      <path d="M 49.316213 146.538197 
L 49.316213 21.037 
" clip-path="url(#p1b5dbc5d80)" style="fill: none; stroke: #b0b0b0; stroke-width: 0.6; stroke-linecap: square"/>
     </g>
     <g id="line2d_2">
      <defs>
       <path id="m923ca21b8d" d="M 0 0 
L 0 4.8 
" style="stroke: #000000"/>
      </defs>
      <g>
       <use xlink:href="#m923ca21b8d" x="49.316213" y="146.538197" style="stroke: #000000"/>
      </g>
     </g>
     <g id="text_1">
      <text style="font: 8.8px 'DejaVu Sans', 'Bitstream Vera Sans', 'Computer Modern Sans Serif', 'Lucida Grande', 'Verdana', 'Geneva', 'Lucid', 'Arial', 'Helvetica', 'Avant Garde', sans-serif; text-anchor: middle" x="49.316213" y="161.524822" transform="rotate(-0 49.316213 161.524822)">1000</text>
     </g>
    </g>
    <g id="xtick_2">
     <g id="line2d_3">
      <path d="M 86.277407 146.538197 
L 86.277407 21.037 
" clip-path="url(#p1b5dbc5d80)" style="fill: none; stroke: #b0b0b0; stroke-width: 0.6; stroke-linecap: square"/>
     </g>
     <g id="line2d_4">
      <g>
       <use xlink:href="#m923ca21b8d" x="86.277407" y="146.538197" style="stroke: #000000"/>
      </g>
     </g>
     <g id="text_2">
      <text style="font: 8.8px 'DejaVu Sans', 'Bitstream Vera Sans', 'Computer Modern Sans Serif', 'Lucida Grande', 'Verdana', 'Geneva', 'Lucid', 'Arial', 'Helvetica', 'Avant Garde', sans-serif; text-anchor: middle" x="86.277407" y="161.524822" transform="rotate(-0 86.277407 161.524822)">1500</text>
     </g>
    </g>
    <g id="xtick_3">
     <g id="line2d_5">
      <path d="M 123.2386 146.538197 
L 123.2386 21.037 
" clip-path="url(#p1b5dbc5d80)" style="fill: none; stroke: #b0b0b0; stroke-width: 0.6; stroke-linecap: square"/>
     </g>
     <g id="line2d_6">
      <g>
       <use xlink:href="#m923ca21b8d" x="123.2386" y="146.538197" style="stroke: #000000"/>
      </g>
     </g>
     <g id="text_3">
      <text style="font: 8.8px 'DejaVu Sans', 'Bitstream Vera Sans', 'Computer Modern Sans Serif', 'Lucida Grande', 'Verdana', 'Geneva', 'Lucid', 'Arial', 'Helvetica', 'Avant Garde', sans-serif; text-anchor: middle" x="123.2386" y="161.524822" transform="rotate(-0 123.2386 161.524822)">2000</text>
     </g>
    </g>
    <g id="xtick_4">
     <g id="line2d_7">
      <path d="M 160.199794 146.538197 
L 160.199794 21.037 
" clip-path="url(#p1b5dbc5d80)" style="fill: none; stroke: #b0b0b0; stroke-width: 0.6; stroke-linecap: square"/>
     </g>
     <g id="line2d_8">
      <g>
       <use xlink:href="#m923ca21b8d" x="160.199794" y="146.538197" style="stroke: #000000"/>
      </g>
     </g>
     <g id="text_4">
      <text style="font: 8.8px 'DejaVu Sans', 'Bitstream Vera Sans', 'Computer Modern Sans Serif', 'Lucida Grande', 'Verdana', 'Geneva', 'Lucid', 'Arial', 'Helvetica', 'Avant Garde', sans-serif; text-anchor: middle" x="160.199794" y="161.524822" transform="rotate(-0 160.199794 161.524822)">2500</text>
     </g>
    </g>
    <g id="xtick_5">
     <g id="line2d_9">
      <path d="M 197.160988 146.538197 
L 197.160988 21.037 
" clip-path="url(#p1b5dbc5d80)" style="fill: none; stroke: #b0b0b0; stroke-width: 0.6; stroke-linecap: square"/>
     </g>
     <g id="line2d_10">
      <g>
       <use xlink:href="#m923ca21b8d" x="197.160988" y="146.538197" style="stroke: #000000"/>
      </g>
     </g>
     <g id="text_5">
      <text style="font: 8.8px 'DejaVu Sans', 'Bitstream Vera Sans', 'Computer Modern Sans Serif', 'Lucida Grande', 'Verdana', 'Geneva', 'Lucid', 'Arial', 'Helvetica', 'Avant Garde', sans-serif; text-anchor: middle" x="197.160988" y="161.524822" transform="rotate(-0 197.160988 161.524822)">3000</text>
     </g>
    </g>
    <g id="xtick_6">
     <g id="line2d_11">
      <path d="M 41.923974 146.538197 
L 41.923974 21.037 
" clip-path="url(#p1b5dbc5d80)" style="fill: none; stroke: #b0b0b0; stroke-width: 0.3; stroke-linecap: square"/>
     </g>
     <g id="line2d_12">
      <defs>
       <path id="mf2d76a6d1a" d="M 0 0 
L 0 3.2 
" style="stroke: #000000; stroke-width: 0.8"/>
      </defs>
      <g>
       <use xlink:href="#mf2d76a6d1a" x="41.923974" y="146.538197" style="stroke: #000000; stroke-width: 0.8"/>
      </g>
     </g>
    </g>
    <g id="xtick_7">
     <g id="line2d_13">
      <path d="M 56.708451 146.538197 
L 56.708451 21.037 
" clip-path="url(#p1b5dbc5d80)" style="fill: none; stroke: #b0b0b0; stroke-width: 0.3; stroke-linecap: square"/>
     </g>
     <g id="line2d_14">
      <g>
       <use xlink:href="#mf2d76a6d1a" x="56.708451" y="146.538197" style="stroke: #000000; stroke-width: 0.8"/>
      </g>
     </g>
    </g>
    <g id="xtick_8">
     <g id="line2d_15">
      <path d="M 64.10069 146.538197 
L 64.10069 21.037 
" clip-path="url(#p1b5dbc5d80)" style="fill: none; stroke: #b0b0b0; stroke-width: 0.3; stroke-linecap: square"/>
     </g>
     <g id="line2d_16">
      <g>
       <use xlink:href="#mf2d76a6d1a" x="64.10069" y="146.538197" style="stroke: #000000; stroke-width: 0.8"/>
      </g>
     </g>
    </g>
    <g id="xtick_9">
     <g id="line2d_17">
      <path d="M 71.492929 146.538197 
L 71.492929 21.037 
" clip-path="url(#p1b5dbc5d80)" style="fill: none; stroke: #b0b0b0; stroke-width: 0.3; stroke-linecap: square"/>
     </g>
     <g id="line2d_18">
      <g>
       <use xlink:href="#mf2d76a6d1a" x="71.492929" y="146.538197" style="stroke: #000000; stroke-width: 0.8"/>
      </g>
     </g>
    </g>
    <g id="xtick_10">
     <g id="line2d_19">
      <path d="M 78.885168 146.538197 
L 78.885168 21.037 
" clip-path="url(#p1b5dbc5d80)" style="fill: none; stroke: #b0b0b0; stroke-width: 0.3; stroke-linecap: square"/>
     </g>
     <g id="line2d_20">
      <g>
       <use xlink:href="#mf2d76a6d1a" x="78.885168" y="146.538197" style="stroke: #000000; stroke-width: 0.8"/>
      </g>
     </g>
    </g>
    <g id="xtick_11">
     <g id="line2d_21">
      <path d="M 93.669645 146.538197 
L 93.669645 21.037 
" clip-path="url(#p1b5dbc5d80)" style="fill: none; stroke: #b0b0b0; stroke-width: 0.3; stroke-linecap: square"/>
     </g>
     <g id="line2d_22">
      <g>
       <use xlink:href="#mf2d76a6d1a" x="93.669645" y="146.538197" style="stroke: #000000; stroke-width: 0.8"/>
      </g>
     </g>
    </g>
    <g id="xtick_12">
     <g id="line2d_23">
      <path d="M 101.061884 146.538197 
L 101.061884 21.037 
" clip-path="url(#p1b5dbc5d80)" style="fill: none; stroke: #b0b0b0; stroke-width: 0.3; stroke-linecap: square"/>
     </g>
     <g id="line2d_24">
      <g>
       <use xlink:href="#mf2d76a6d1a" x="101.061884" y="146.538197" style="stroke: #000000; stroke-width: 0.8"/>
      </g>
     </g>
    </g>
    <g id="xtick_13">
     <g id="line2d_25">
      <path d="M 108.454123 146.538197 
L 108.454123 21.037 
" clip-path="url(#p1b5dbc5d80)" style="fill: none; stroke: #b0b0b0; stroke-width: 0.3; stroke-linecap: square"/>
     </g>
     <g id="line2d_26">
      <g>
       <use xlink:href="#mf2d76a6d1a" x="108.454123" y="146.538197" style="stroke: #000000; stroke-width: 0.8"/>
      </g>
     </g>
    </g>
    <g id="xtick_14">
     <g id="line2d_27">
      <path d="M 115.846362 146.538197 
L 115.846362 21.037 
" clip-path="url(#p1b5dbc5d80)" style="fill: none; stroke: #b0b0b0; stroke-width: 0.3; stroke-linecap: square"/>
     </g>
     <g id="line2d_28">
      <g>
       <use xlink:href="#mf2d76a6d1a" x="115.846362" y="146.538197" style="stroke: #000000; stroke-width: 0.8"/>
      </g>
     </g>
    </g>
    <g id="xtick_15">
     <g id="line2d_29">
      <path d="M 130.630839 146.538197 
L 130.630839 21.037 
" clip-path="url(#p1b5dbc5d80)" style="fill: none; stroke: #b0b0b0; stroke-width: 0.3; stroke-linecap: square"/>
     </g>
     <g id="line2d_30">
      <g>
       <use xlink:href="#mf2d76a6d1a" x="130.630839" y="146.538197" style="stroke: #000000; stroke-width: 0.8"/>
      </g>
     </g>
    </g>
    <g id="xtick_16">
     <g id="line2d_31">
      <path d="M 138.023078 146.538197 
L 138.023078 21.037 
" clip-path="url(#p1b5dbc5d80)" style="fill: none; stroke: #b0b0b0; stroke-width: 0.3; stroke-linecap: square"/>
     </g>
     <g id="line2d_32">
      <g>
       <use xlink:href="#mf2d76a6d1a" x="138.023078" y="146.538197" style="stroke: #000000; stroke-width: 0.8"/>
      </g>
     </g>
    </g>
    <g id="xtick_17">
     <g id="line2d_33">
      <path d="M 145.415317 146.538197 
L 145.415317 21.037 
" clip-path="url(#p1b5dbc5d80)" style="fill: none; stroke: #b0b0b0; stroke-width: 0.3; stroke-linecap: square"/>
     </g>
     <g id="line2d_34">
      <g>
       <use xlink:href="#mf2d76a6d1a" x="145.415317" y="146.538197" style="stroke: #000000; stroke-width: 0.8"/>
      </g>
     </g>
    </g>
    <g id="xtick_18">
     <g id="line2d_35">
      <path d="M 152.807555 146.538197 
L 152.807555 21.037 
" clip-path="url(#p1b5dbc5d80)" style="fill: none; stroke: #b0b0b0; stroke-width: 0.3; stroke-linecap: square"/>
     </g>
     <g id="line2d_36">
      <g>
       <use xlink:href="#mf2d76a6d1a" x="152.807555" y="146.538197" style="stroke: #000000; stroke-width: 0.8"/>
      </g>
     </g>
    </g>
    <g id="xtick_19">
     <g id="line2d_37">
      <path d="M 167.592033 146.538197 
L 167.592033 21.037 
" clip-path="url(#p1b5dbc5d80)" style="fill: none; stroke: #b0b0b0; stroke-width: 0.3; stroke-linecap: square"/>
     </g>
     <g id="line2d_38">
      <g>
       <use xlink:href="#mf2d76a6d1a" x="167.592033" y="146.538197" style="stroke: #000000; stroke-width: 0.8"/>
      </g>
     </g>
    </g>
    <g id="xtick_20">
     <g id="line2d_39">
      <path d="M 174.984272 146.538197 
L 174.984272 21.037 
" clip-path="url(#p1b5dbc5d80)" style="fill: none; stroke: #b0b0b0; stroke-width: 0.3; stroke-linecap: square"/>
     </g>
     <g id="line2d_40">
      <g>
       <use xlink:href="#mf2d76a6d1a" x="174.984272" y="146.538197" style="stroke: #000000; stroke-width: 0.8"/>
      </g>
     </g>
    </g>
    <g id="xtick_21">
     <g id="line2d_41">
      <path d="M 182.376511 146.538197 
L 182.376511 21.037 
" clip-path="url(#p1b5dbc5d80)" style="fill: none; stroke: #b0b0b0; stroke-width: 0.3; stroke-linecap: square"/>
     </g>
     <g id="line2d_42">
      <g>
       <use xlink:href="#mf2d76a6d1a" x="182.376511" y="146.538197" style="stroke: #000000; stroke-width: 0.8"/>
      </g>
     </g>
    </g>
    <g id="xtick_22">
     <g id="line2d_43">
      <path d="M 189.768749 146.538197 
L 189.768749 21.037 
" clip-path="url(#p1b5dbc5d80)" style="fill: none; stroke: #b0b0b0; stroke-width: 0.3; stroke-linecap: square"/>
     </g>
     <g id="line2d_44">
      <g>
       <use xlink:href="#mf2d76a6d1a" x="189.768749" y="146.538197" style="stroke: #000000; stroke-width: 0.8"/>
      </g>
     </g>
    </g>
    <g id="xtick_23">
     <g id="line2d_45">
      <path d="M 204.553227 146.538197 
L 204.553227 21.037 
" clip-path="url(#p1b5dbc5d80)" style="fill: none; stroke: #b0b0b0; stroke-width: 0.3; stroke-linecap: square"/>
     </g>
     <g id="line2d_46">
      <g>
       <use xlink:href="#mf2d76a6d1a" x="204.553227" y="146.538197" style="stroke: #000000; stroke-width: 0.8"/>
      </g>
     </g>
    </g>
    <g id="text_6">
     <text style="font: 9.6px 'DejaVu Sans', 'Bitstream Vera Sans', 'Computer Modern Sans Serif', 'Lucida Grande', 'Verdana', 'Geneva', 'Lucid', 'Arial', 'Helvetica', 'Avant Garde', sans-serif; text-anchor: middle" x="123.2386" y="174.649447" transform="rotate(-0 123.2386 174.649447)">Wavelength (nm)</text>
    </g>
   </g>
   <g id="matplotlib.axis_2">
    <g id="ytick_1">
     <g id="line2d_47">
      <path d="M 41.18475 127.716352 
L 205.292451 127.716352 
" clip-path="url(#p1b5dbc5d80)" style="fill: none; stroke: #b0b0b0; stroke-width: 0.6; stroke-linecap: square"/>
     </g>
     <g id="line2d_48">
      <defs>
       <path id="m0d17b8d5c9" d="M 0 0 
L -4.8 0 
" style="stroke: #000000"/>
      </defs>
      <g>
       <use xlink:href="#m0d17b8d5c9" x="41.18475" y="127.716352" style="stroke: #000000"/>
      </g>
     </g>
     <g id="text_7">
      <text style="font: 8.8px 'DejaVu Sans', 'Bitstream Vera Sans', 'Computer Modern Sans Serif', 'Lucida Grande', 'Verdana', 'Geneva', 'Lucid', 'Arial', 'Helvetica', 'Avant Garde', sans-serif; text-anchor: end" x="32.88475" y="131.059664" transform="rotate(-0 32.88475 131.059664)">0.87</text>
     </g>
    </g>
    <g id="ytick_2">
     <g id="line2d_49">
      <path d="M 41.18475 104.473802 
L 205.292451 104.473802 
" clip-path="url(#p1b5dbc5d80)" style="fill: none; stroke: #b0b0b0; stroke-width: 0.6; stroke-linecap: square"/>
     </g>
     <g id="line2d_50">
      <g>
       <use xlink:href="#m0d17b8d5c9" x="41.18475" y="104.473802" style="stroke: #000000"/>
      </g>
     </g>
     <g id="text_8">
      <text style="font: 8.8px 'DejaVu Sans', 'Bitstream Vera Sans', 'Computer Modern Sans Serif', 'Lucida Grande', 'Verdana', 'Geneva', 'Lucid', 'Arial', 'Helvetica', 'Avant Garde', sans-serif; text-anchor: end" x="32.88475" y="107.817115" transform="rotate(-0 32.88475 107.817115)">0.88</text>
     </g>
    </g>
    <g id="ytick_3">
     <g id="line2d_51">
      <path d="M 41.18475 81.231253 
L 205.292451 81.231253 
" clip-path="url(#p1b5dbc5d80)" style="fill: none; stroke: #b0b0b0; stroke-width: 0.6; stroke-linecap: square"/>
     </g>
     <g id="line2d_52">
      <g>
       <use xlink:href="#m0d17b8d5c9" x="41.18475" y="81.231253" style="stroke: #000000"/>
      </g>
     </g>
     <g id="text_9">
      <text style="font: 8.8px 'DejaVu Sans', 'Bitstream Vera Sans', 'Computer Modern Sans Serif', 'Lucida Grande', 'Verdana', 'Geneva', 'Lucid', 'Arial', 'Helvetica', 'Avant Garde', sans-serif; text-anchor: end" x="32.88475" y="84.574566" transform="rotate(-0 32.88475 84.574566)">0.89</text>
     </g>
    </g>
    <g id="ytick_4">
     <g id="line2d_53">
      <path d="M 41.18475 57.988704 
L 205.292451 57.988704 
" clip-path="url(#p1b5dbc5d80)" style="fill: none; stroke: #b0b0b0; stroke-width: 0.6; stroke-linecap: square"/>
     </g>
     <g id="line2d_54">
      <g>
       <use xlink:href="#m0d17b8d5c9" x="41.18475" y="57.988704" style="stroke: #000000"/>
      </g>
     </g>
     <g id="text_10">
      <text style="font: 8.8px 'DejaVu Sans', 'Bitstream Vera Sans', 'Computer Modern Sans Serif', 'Lucida Grande', 'Verdana', 'Geneva', 'Lucid', 'Arial', 'Helvetica', 'Avant Garde', sans-serif; text-anchor: end" x="32.88475" y="61.332017" transform="rotate(-0 32.88475 61.332017)">0.90</text>
     </g>
    </g>
    <g id="ytick_5">
     <g id="line2d_55">
      <path d="M 41.18475 34.746155 
L 205.292451 34.746155 
" clip-path="url(#p1b5dbc5d80)" style="fill: none; stroke: #b0b0b0; stroke-width: 0.6; stroke-linecap: square"/>
     </g>
     <g id="line2d_56">
      <g>
       <use xlink:href="#m0d17b8d5c9" x="41.18475" y="34.746155" style="stroke: #000000"/>
      </g>
     </g>
     <g id="text_11">
      <text style="font: 8.8px 'DejaVu Sans', 'Bitstream Vera Sans', 'Computer Modern Sans Serif', 'Lucida Grande', 'Verdana', 'Geneva', 'Lucid', 'Arial', 'Helvetica', 'Avant Garde', sans-serif; text-anchor: end" x="32.88475" y="38.089467" transform="rotate(-0 32.88475 38.089467)">0.91</text>
     </g>
    </g>
    <g id="text_12">
     <text style="font: 9.6px 'DejaVu Sans', 'Bitstream Vera Sans', 'Computer Modern Sans Serif', 'Lucida Grande', 'Verdana', 'Geneva', 'Lucid', 'Arial', 'Helvetica', 'Avant Garde', sans-serif; text-anchor: middle" x="7.2945" y="83.787598" transform="rotate(-90 7.2945 83.787598)">Reflectance</text>
    </g>
   </g>
   <g id="line2d_57">
    <path d="M 42.595996 57.371805 
L 42.932006 57.917411 
L 43.269697 57.405147 
L 43.950153 54.803773 
L 44.292935 54.189119 
L 44.63743 55.058046 
L 45.331597 59.121124 
L 45.681286 58.87236 
L 46.385918 54.604509 
L 46.740878 53.828787 
L 47.097614 53.320139 
L 47.456133 53.789544 
L 47.816444 55.664957 
L 48.178557 56.146794 
L 48.542481 54.800913 
L 48.908224 54.512884 
L 49.275796 56.393555 
L 49.645206 56.925893 
L 50.389576 55.012533 
L 50.764555 54.835594 
L 51.520146 57.862844 
L 51.900778 57.940377 
L 52.66776 55.704017 
L 53.05413 55.879758 
L 53.442432 55.513795 
L 54.224869 52.049404 
L 54.619024 52.024742 
L 55.413257 55.143977 
L 55.813354 54.490801 
L 56.215451 52.107133 
L 56.61956 51.159571 
L 57.844048 49.863393 
L 58.256299 49.995566 
L 58.670611 50.937706 
L 59.086995 51.279198 
L 59.926019 52.662497 
L 60.34868 52.088245 
L 60.773454 51.14345 
L 61.629385 47.678518 
L 62.060563 47.23675 
L 62.493897 47.541328 
L 63.367075 50.640327 
L 63.806941 51.421914 
L 64.693283 48.56604 
L 65.13978 48.504858 
L 66.039483 50.403217 
L 66.948206 51.200423 
L 67.405978 50.332829 
L 68.793072 44.942811 
L 69.260069 44.624956 
L 69.7294 45.04311 
L 70.675114 46.473037 
L 71.15152 47.178698 
L 71.630309 47.501547 
L 72.111491 47.312095 
L 72.59508 47.704588 
L 73.081086 47.621708 
L 74.060401 47.661288 
L 75.049533 48.748735 
L 75.547812 49.748981 
L 76.551855 49.993578 
L 77.057646 50.324304 
L 77.565965 50.966866 
L 79.106222 58.476376 
L 80.145939 60.216057 
L 80.6697 61.475203 
L 81.196079 63.217461 
L 81.72509 65.682296 
L 82.256747 67.064856 
L 82.791061 67.270099 
L 83.328048 67.117498 
L 83.867719 65.633703 
L 84.410088 63.713535 
L 85.502976 58.019109 
L 86.60682 55.11403 
L 87.162885 53.893065 
L 87.721731 53.124981 
L 88.28337 51.155755 
L 88.847818 48.157725 
L 89.415088 46.307224 
L 89.985194 45.278946 
L 90.558151 43.897218 
L 91.133973 43.058946 
L 91.712673 43.87125 
L 92.294268 43.441408 
L 92.87877 42.451308 
L 93.466195 43.153916 
L 94.056557 44.133301 
L 94.64987 43.576975 
L 95.24615 42.315087 
L 95.845412 42.273663 
L 97.052939 44.618221 
L 97.661235 44.314161 
L 98.886966 41.330397 
L 99.504431 42.353802 
L 100.124984 43.625461 
L 100.74864 43.008368 
L 102.005322 38.670123 
L 103.914006 34.386218 
L 104.556607 34.20314 
L 105.202421 34.748553 
L 105.851464 36.860094 
L 107.159302 43.466121 
L 107.818129 44.333017 
L 108.480251 43.906913 
L 109.145683 44.811813 
L 109.814442 46.914946 
L 110.486545 47.431305 
L 111.162009 47.45406 
L 111.84085 49.187896 
L 112.523085 52.051158 
L 113.897806 61.516931 
L 114.590326 68.054526 
L 115.985771 88.455778 
L 117.395205 107.552698 
L 118.105212 113.797342 
L 118.818769 117.091621 
L 119.535893 119.543488 
L 120.256604 120.108729 
L 120.980918 118.818173 
L 121.708853 116.456268 
L 122.440428 111.480011 
L 123.175661 103.218324 
L 123.91457 92.520065 
L 124.657174 84.079946 
L 126.153539 71.514046 
L 126.907338 66.675507 
L 127.664905 63.574029 
L 129.191423 55.054371 
L 129.960411 52.000867 
L 130.733244 49.931703 
L 132.290522 43.689661 
L 133.075005 42.758436 
L 133.863411 43.222349 
L 136.25236 45.368241 
L 137.056652 46.357345 
L 138.677322 49.661048 
L 139.49374 49.605518 
L 140.314239 49.428112 
L 141.138841 48.033234 
L 141.967566 46.894514 
L 142.800435 46.213596 
L 143.637468 45.22196 
L 144.478686 45.521497 
L 145.324111 45.264619 
L 146.173762 45.273295 
L 147.027662 49.499005 
L 147.885831 52.757137 
L 148.748291 53.153178 
L 149.615063 53.782894 
L 150.48617 56.979901 
L 153.125709 72.645169 
L 154.014368 76.213443 
L 156.707095 90.556158 
L 157.613661 94.092978 
L 159.440415 99.617376 
L 160.360648 103.475894 
L 161.285482 108.687704 
L 162.214941 114.93034 
L 162.214941 114.93034 
" clip-path="url(#p1b5dbc5d80)" style="fill: none; stroke: #1f77b4; stroke-width: 0.5; stroke-linecap: square"/>
   </g>
   <g id="line2d_58"/>
   <g id="line2d_59">
    <path d="M 41.923974 54.219738 
L 42.441431 56.867584 
L 42.884965 59.494816 
L 43.03281 60.165443 
L 43.993801 53.163371 
L 44.215568 51.791556 
L 44.511257 51.577988 
L 45.102637 59.60789 
L 45.472248 64.135591 
L 45.620093 65.485933 
L 46.13755 54.191754 
L 46.359317 52.432481 
L 46.43324 52.649955 
L 46.728929 53.519853 
L 47.468153 49.636262 
L 47.911687 59.48836 
L 48.207377 59.694281 
L 48.724834 50.944849 
L 48.946601 49.182001 
L 49.316213 61.929011 
L 49.390135 61.184628 
L 49.833669 57.606732 
L 50.129359 55.994334 
L 50.572893 52.494905 
L 50.79466 51.516894 
L 51.533884 61.607191 
L 51.607807 61.404152 
L 51.903496 60.591997 
L 52.420953 55.575151 
L 52.64272 52.525577 
L 53.086254 57.558327 
L 53.381944 58.115797 
L 53.825478 54.385594 
L 54.342935 47.885301 
L 54.49078 46.538173 
L 55.008237 54.010853 
L 55.230004 55.02228 
L 55.599616 62.41098 
L 56.338839 46.932309 
L 56.708451 52.246011 
L 57.078063 49.281609 
L 57.151986 49.486781 
L 57.447675 50.307471 
L 57.817287 49.318182 
L 58.186899 45.505938 
L 58.556511 53.689283 
L 58.630434 52.930491 
L 58.926123 49.895325 
L 59.000045 50.130892 
L 59.369657 51.558648 
L 60.034959 56.211892 
L 60.404571 51.261987 
L 60.478493 51.618053 
L 60.774183 53.042318 
L 61.143795 51.054459 
L 61.513407 43.581668 
L 61.587329 44.055518 
L 61.883019 45.950917 
L 61.956941 45.822799 
L 62.326553 44.961712 
L 62.622242 43.56726 
L 62.991854 52.310846 
L 63.065777 51.632156 
L 63.361466 48.917397 
L 63.731078 57.874328 
L 64.248535 49.222814 
L 64.470302 44.288619 
L 64.839914 48.554847 
L 65.209526 44.944173 
L 65.874828 52.242907 
L 65.94875 52.853216 
L 66.318362 48.78454 
L 66.687974 53.845136 
L 66.761896 53.740292 
L 67.20543 52.948972 
L 67.427198 52.391058 
L 67.944654 48.078005 
L 68.166422 47.468722 
L 68.905645 40.232273 
L 69.275257 43.648858 
L 69.34918 43.414593 
L 69.644869 42.477533 
L 70.236248 45.683763 
L 70.384093 46.173684 
L 70.753705 45.474075 
L 71.123317 46.612428 
L 71.492929 50.137348 
L 71.936463 45.644613 
L 72.232153 45.135907 
L 72.601765 50.359422 
L 72.971377 45.519376 
L 73.045299 45.917945 
L 73.414911 47.594762 
L 73.710601 47.924922 
L 74.080213 44.615842 
L 74.449824 48.413124 
L 74.523747 48.289688 
L 74.893359 47.465896 
L 75.189048 46.145699 
L 75.55866 53.046335 
L 75.632583 52.414886 
L 76.297884 46.693611 
L 76.667496 50.517353 
L 76.741419 50.455317 
L 77.037108 50.20717 
L 77.40672 46.17784 
L 77.480642 46.30956 
L 77.776332 46.836442 
L 78.145944 58.437617 
L 78.219866 57.34124 
L 78.515556 52.955732 
L 79.106935 62.667743 
L 79.25478 65.661182 
L 79.624392 58.019653 
L 79.698314 58.176365 
L 79.994004 58.803215 
L 80.363616 62.65134 
L 80.437538 62.393441 
L 80.80715 61.361566 
L 81.102839 61.360458 
L 81.842063 70.371973 
L 82.211675 71.837134 
L 82.581287 69.175019 
L 82.65521 69.29887 
L 82.950899 69.794276 
L 83.320511 72.1735 
L 83.690123 70.699058 
L 84.059735 64.764436 
L 84.133657 65.163254 
L 84.429347 66.758528 
L 84.503269 66.64515 
L 84.798959 66.191638 
L 85.316415 57.577251 
L 85.907795 53.130842 
L 86.277407 61.378468 
L 86.647018 51.584222 
L 86.720941 52.15103 
L 87.01663 54.418261 
L 87.386242 51.883599 
L 87.755854 57.816282 
L 88.125466 51.73966 
L 88.199389 52.01363 
L 88.495078 53.109508 
L 88.938612 43.265666 
L 89.234302 42.869452 
L 89.603914 46.039303 
L 89.973526 44.077489 
L 90.047448 44.123594 
L 90.343138 44.308014 
L 90.786672 40.274361 
L 91.082362 35.006542 
L 91.525896 44.790869 
L 91.821586 45.805177 
L 92.26512 43.840149 
L 92.856499 37.87322 
L 92.930421 37.011302 
L 93.447878 41.97218 
L 93.743568 44.949437 
L 94.408869 46.444245 
L 94.852404 42.396711 
L 95.148093 37.867457 
L 95.222015 38.40157 
L 95.517705 40.538023 
L 95.591627 40.372805 
L 95.961239 39.722847 
L 96.256929 39.766514 
L 96.774386 46.101174 
L 96.996153 47.194143 
L 97.070075 47.065581 
L 97.365765 46.551334 
L 97.735377 44.348467 
L 98.104989 46.502015 
L 98.844212 33.819701 
L 99.435592 41.217461 
L 100.174815 46.621018 
L 100.32266 47.647849 
L 100.692272 46.168142 
L 101.357574 39.752605 
L 101.801108 37.037209 
L 102.318565 35.659852 
L 102.909944 35.091327 
L 103.279556 34.732656 
L 103.797012 29.946279 
L 104.01878 27.160534 
L 104.462314 31.254644 
L 104.758003 31.878945 
L 105.127615 27.9229 
L 105.792917 33.102304 
L 105.940762 33.924573 
L 106.236451 34.496451 
L 106.753908 42.408957 
L 106.975675 46.984814 
L 107.049597 46.819568 
L 108.084511 44.543249 
L 108.823735 36.641549 
L 108.897657 37.676997 
L 109.636881 47.187714 
L 110.302183 48.911578 
L 111.041406 40.018512 
L 111.78063 46.171467 
L 111.854553 45.947675 
L 112.519854 43.933412 
L 113.259078 56.78377 
L 113.333 56.677706 
L 113.998302 55.723274 
L 114.811448 65.350223 
L 116.807353 106.358213 
L 117.250887 114.34877 
L 117.768344 123.361089 
L 118.433645 126.466327 
L 119.172869 124.179368 
L 119.912093 135.64838 
L 120.651317 124.736838 
L 121.390541 130.672292 
L 122.277609 122.591104 
L 122.868988 120.212933 
L 124.347436 80.26735 
L 125.08666 82.99624 
L 125.973729 69.807659 
L 127.304332 59.628476 
L 128.043556 68.0864 
L 128.782779 48.640047 
L 128.856702 49.100625 
L 129.522003 53.245828 
L 130.261227 43.652875 
L 131.000451 53.888082 
L 131.739675 37.426773 
L 131.813597 37.460243 
L 132.478899 37.761477 
L 133.218123 36.826772 
L 133.957347 41.075544 
L 134.031269 41.039137 
L 134.69657 40.711609 
L 135.509717 42.772671 
L 136.175018 42.558715 
L 136.988165 43.900357 
L 137.653466 43.591781 
L 138.39269 52.846704 
L 138.466612 52.551566 
L 139.871138 46.862071 
L 140.610362 53.670026 
L 141.349585 41.44322 
L 141.423508 41.864315 
L 142.088809 45.654172 
L 142.162732 45.574957 
L 142.828033 44.862021 
L 144.306481 37.485512 
L 145.045705 54.274045 
L 145.784929 26.7416 
L 146.74592 45.045277 
L 147.559066 53.514616 
L 148.0026 56.998086 
L 148.815747 48.364138 
L 149.55497 47.586893 
L 150.220272 46.040689 
L 151.107341 58.673545 
L 151.69872 61.111785 
L 152.733633 73.322133 
L 152.807555 74.23797 
L 152.881478 74.133569 
L 153.916391 72.671816 
L 154.286003 73.761404 
L 155.912296 88.430191 
L 157.760355 96.041547 
L 158.277812 96.684688 
L 159.830182 98.163758 
L 160.717251 103.79903 
L 162.417466 116.183602 
L 164.487293 140.833597 
L 164.487293 140.833597 
" clip-path="url(#p1b5dbc5d80)" style="fill: none; stroke: #1f77b4; stroke-opacity: 0.5; stroke-width: 0.5; stroke-linecap: square"/>
   </g>
   <g id="patch_3">
    <path d="M 41.18475 146.538197 
L 41.18475 21.037 
" style="fill: none; stroke: #000000; stroke-linejoin: miter; stroke-linecap: square"/>
   </g>
   <g id="patch_4">
    <path d="M 205.292451 146.538197 
L 205.292451 21.037 
" style="fill: none; stroke: #000000; stroke-linejoin: miter; stroke-linecap: square"/>
   </g>
   <g id="patch_5">
    <path d="M 41.18475 146.538197 
L 205.292451 146.538197 
" style="fill: none; stroke: #000000; stroke-linejoin: miter; stroke-linecap: square"/>
   </g>
   <g id="patch_6">
    <path d="M 41.18475 21.037 
L 205.292451 21.037 
" style="fill: none; stroke: #000000; stroke-linejoin: miter; stroke-linecap: square"/>
   </g>
   <g id="text_13">
    <text style="font: 8px 'DejaVu Sans', 'Bitstream Vera Sans', 'Computer Modern Sans Serif', 'Lucida Grande', 'Verdana', 'Geneva', 'Lucid', 'Arial', 'Helvetica', 'Avant Garde', sans-serif" transform="translate(73.8786 6.07875)">enfys Hydrated silicates </text>
    <text style="font: 8px 'DejaVu Sans', 'Bitstream Vera Sans', 'Computer Modern Sans Serif', 'Lucida Grande', 'Verdana', 'Geneva', 'Lucid', 'Arial', 'Helvetica', 'Avant Garde', sans-serif" transform="translate(78.642975 15.037)"> &amp; halides Halite_mica</text>
   </g>
   <g id="legend_1">
    <g id="patch_7">
     <path d="M 212.774605 89.091036 
L 271.222105 89.091036 
Q 272.422105 89.091036 272.422105 87.891036 
L 272.422105 79.684161 
Q 272.422105 78.484161 271.222105 78.484161 
L 212.774605 78.484161 
Q 211.574605 78.484161 211.574605 79.684161 
L 211.574605 87.891036 
Q 211.574605 89.091036 212.774605 89.091036 
z
" style="fill: #ffffff; opacity: 0.8; stroke: #cccccc; stroke-width: 0.8; stroke-linejoin: miter"/>
    </g>
    <g id="line2d_60">
     <path d="M 213.974605 83.343223 
L 219.974605 83.343223 
L 225.974605 83.343223 
" style="fill: none; stroke: #1f77b4; stroke-width: 1.2; stroke-linecap: square"/>
    </g>
    <g id="text_14">
     <text style="font: 6px 'DejaVu Sans', 'Bitstream Vera Sans', 'Computer Modern Sans Serif', 'Lucida Grande', 'Verdana', 'Geneva', 'Lucid', 'Arial', 'Helvetica', 'Avant Garde', sans-serif; text-anchor: start" x="230.774605" y="85.443223" transform="rotate(-0 230.774605 85.443223)">Halite HS433</text>
    </g>
   </g>
  </g>
 </g>
 <defs>
  <clipPath id="p1b5dbc5d80">
   <rect x="41.18475" y="21.037" width="164.107701" height="125.501197"/>
  </clipPath>
 </defs>
</svg>
