<?xml version="1.0" encoding="utf-8" standalone="no"?>
<!DOCTYPE svg PUBLIC "-//W3C//DTD SVG 1.1//EN"
  "http://www.w3.org/Graphics/SVG/1.1/DTD/svg11.dtd">
<svg xmlns:xlink="http://www.w3.org/1999/xlink" width="272.229705pt" height="176.855697pt" viewBox="0 0 272.229705 176.855697" xmlns="http://www.w3.org/2000/svg" version="1.1">
 <metadata>
  <rdf:RDF xmlns:dc="http://purl.org/dc/elements/1.1/" xmlns:cc="http://creativecommons.org/ns#" xmlns:rdf="http://www.w3.org/1999/02/22-rdf-syntax-ns#">
   <cc:Work>
    <dc:type rdf:resource="http://purl.org/dc/dcmitype/StillImage"/>
    <dc:date>2025-02-12T16:36:02.488949</dc:date>
    <dc:format>image/svg+xml</dc:format>
    <dc:creator>
     <cc:Agent>
      <dc:title>Matplotlib v3.6.2, https://matplotlib.org/</dc:title>
     </cc:Agent>
    </dc:creator>
   </cc:Work>
  </rdf:RDF>
 </metadata>
 <defs>
  <style type="text/css">*{stroke-linejoin: round; stroke-linecap: butt}</style>
 </defs>
 <g id="figure_1">
  <g id="patch_1">
   <path d="M -0 176.855697 
L 272.229705 176.855697 
L 272.229705 0 
L -0 0 
z
" style="fill: #ffffff"/>
  </g>
  <g id="axes_1">
   <g id="patch_2">
    <path d="M 35.58575 146.747947 
L 191.023451 146.747947 
L 191.023451 12.07875 
L 35.58575 12.07875 
z
" style="fill: #ffffff"/>
   </g>
   <g id="matplotlib.axis_1">
    <g id="xtick_1">
     <g id="line2d_1">
      <path d="M 43.287618 146.747947 
L 43.287618 12.07875 
" clip-path="url(#pf23a029b7e)" style="fill: none; stroke: #b0b0b0; stroke-width: 0.6; stroke-linecap: square"/>
     </g>
     <g id="line2d_2">
      <defs>
       <path id="mc314100184" d="M 0 0 
L 0 4.8 
" style="stroke: #000000"/>
      </defs>
      <g>
       <use xlink:href="#mc314100184" x="43.287618" y="146.747947" style="stroke: #000000"/>
      </g>
     </g>
     <g id="text_1">
      <text style="font: 8.8px 'DejaVu Sans', 'Bitstream Vera Sans', 'Computer Modern Sans Serif', 'Lucida Grande', 'Verdana', 'Geneva', 'Lucid', 'Arial', 'Helvetica', 'Avant Garde', sans-serif; text-anchor: middle" x="43.287618" y="161.734572" transform="rotate(-0 43.287618 161.734572)">1000</text>
     </g>
    </g>
    <g id="xtick_2">
     <g id="line2d_3">
      <path d="M 78.296109 146.747947 
L 78.296109 12.07875 
" clip-path="url(#pf23a029b7e)" style="fill: none; stroke: #b0b0b0; stroke-width: 0.6; stroke-linecap: square"/>
     </g>
     <g id="line2d_4">
      <g>
       <use xlink:href="#mc314100184" x="78.296109" y="146.747947" style="stroke: #000000"/>
      </g>
     </g>
     <g id="text_2">
      <text style="font: 8.8px 'DejaVu Sans', 'Bitstream Vera Sans', 'Computer Modern Sans Serif', 'Lucida Grande', 'Verdana', 'Geneva', 'Lucid', 'Arial', 'Helvetica', 'Avant Garde', sans-serif; text-anchor: middle" x="78.296109" y="161.734572" transform="rotate(-0 78.296109 161.734572)">1500</text>
     </g>
    </g>
    <g id="xtick_3">
     <g id="line2d_5">
      <path d="M 113.3046 146.747947 
L 113.3046 12.07875 
" clip-path="url(#pf23a029b7e)" style="fill: none; stroke: #b0b0b0; stroke-width: 0.6; stroke-linecap: square"/>
     </g>
     <g id="line2d_6">
      <g>
       <use xlink:href="#mc314100184" x="113.3046" y="146.747947" style="stroke: #000000"/>
      </g>
     </g>
     <g id="text_3">
      <text style="font: 8.8px 'DejaVu Sans', 'Bitstream Vera Sans', 'Computer Modern Sans Serif', 'Lucida Grande', 'Verdana', 'Geneva', 'Lucid', 'Arial', 'Helvetica', 'Avant Garde', sans-serif; text-anchor: middle" x="113.3046" y="161.734572" transform="rotate(-0 113.3046 161.734572)">2000</text>
     </g>
    </g>
    <g id="xtick_4">
     <g id="line2d_7">
      <path d="M 148.313092 146.747947 
L 148.313092 12.07875 
" clip-path="url(#pf23a029b7e)" style="fill: none; stroke: #b0b0b0; stroke-width: 0.6; stroke-linecap: square"/>
     </g>
     <g id="line2d_8">
      <g>
       <use xlink:href="#mc314100184" x="148.313092" y="146.747947" style="stroke: #000000"/>
      </g>
     </g>
     <g id="text_4">
      <text style="font: 8.8px 'DejaVu Sans', 'Bitstream Vera Sans', 'Computer Modern Sans Serif', 'Lucida Grande', 'Verdana', 'Geneva', 'Lucid', 'Arial', 'Helvetica', 'Avant Garde', sans-serif; text-anchor: middle" x="148.313092" y="161.734572" transform="rotate(-0 148.313092 161.734572)">2500</text>
     </g>
    </g>
    <g id="xtick_5">
     <g id="line2d_9">
      <path d="M 183.321583 146.747947 
L 183.321583 12.07875 
" clip-path="url(#pf23a029b7e)" style="fill: none; stroke: #b0b0b0; stroke-width: 0.6; stroke-linecap: square"/>
     </g>
     <g id="line2d_10">
      <g>
       <use xlink:href="#mc314100184" x="183.321583" y="146.747947" style="stroke: #000000"/>
      </g>
     </g>
     <g id="text_5">
      <text style="font: 8.8px 'DejaVu Sans', 'Bitstream Vera Sans', 'Computer Modern Sans Serif', 'Lucida Grande', 'Verdana', 'Geneva', 'Lucid', 'Arial', 'Helvetica', 'Avant Garde', sans-serif; text-anchor: middle" x="183.321583" y="161.734572" transform="rotate(-0 183.321583 161.734572)">3000</text>
     </g>
    </g>
    <g id="xtick_6">
     <g id="line2d_11">
      <path d="M 36.28592 146.747947 
L 36.28592 12.07875 
" clip-path="url(#pf23a029b7e)" style="fill: none; stroke: #b0b0b0; stroke-width: 0.3; stroke-linecap: square"/>
     </g>
     <g id="line2d_12">
      <defs>
       <path id="mbe763c3aec" d="M 0 0 
L 0 3.2 
" style="stroke: #000000; stroke-width: 0.8"/>
      </defs>
      <g>
       <use xlink:href="#mbe763c3aec" x="36.28592" y="146.747947" style="stroke: #000000; stroke-width: 0.8"/>
      </g>
     </g>
    </g>
    <g id="xtick_7">
     <g id="line2d_13">
      <path d="M 50.289316 146.747947 
L 50.289316 12.07875 
" clip-path="url(#pf23a029b7e)" style="fill: none; stroke: #b0b0b0; stroke-width: 0.3; stroke-linecap: square"/>
     </g>
     <g id="line2d_14">
      <g>
       <use xlink:href="#mbe763c3aec" x="50.289316" y="146.747947" style="stroke: #000000; stroke-width: 0.8"/>
      </g>
     </g>
    </g>
    <g id="xtick_8">
     <g id="line2d_15">
      <path d="M 57.291015 146.747947 
L 57.291015 12.07875 
" clip-path="url(#pf23a029b7e)" style="fill: none; stroke: #b0b0b0; stroke-width: 0.3; stroke-linecap: square"/>
     </g>
     <g id="line2d_16">
      <g>
       <use xlink:href="#mbe763c3aec" x="57.291015" y="146.747947" style="stroke: #000000; stroke-width: 0.8"/>
      </g>
     </g>
    </g>
    <g id="xtick_9">
     <g id="line2d_17">
      <path d="M 64.292713 146.747947 
L 64.292713 12.07875 
" clip-path="url(#pf23a029b7e)" style="fill: none; stroke: #b0b0b0; stroke-width: 0.3; stroke-linecap: square"/>
     </g>
     <g id="line2d_18">
      <g>
       <use xlink:href="#mbe763c3aec" x="64.292713" y="146.747947" style="stroke: #000000; stroke-width: 0.8"/>
      </g>
     </g>
    </g>
    <g id="xtick_10">
     <g id="line2d_19">
      <path d="M 71.294411 146.747947 
L 71.294411 12.07875 
" clip-path="url(#pf23a029b7e)" style="fill: none; stroke: #b0b0b0; stroke-width: 0.3; stroke-linecap: square"/>
     </g>
     <g id="line2d_20">
      <g>
       <use xlink:href="#mbe763c3aec" x="71.294411" y="146.747947" style="stroke: #000000; stroke-width: 0.8"/>
      </g>
     </g>
    </g>
    <g id="xtick_11">
     <g id="line2d_21">
      <path d="M 85.297807 146.747947 
L 85.297807 12.07875 
" clip-path="url(#pf23a029b7e)" style="fill: none; stroke: #b0b0b0; stroke-width: 0.3; stroke-linecap: square"/>
     </g>
     <g id="line2d_22">
      <g>
       <use xlink:href="#mbe763c3aec" x="85.297807" y="146.747947" style="stroke: #000000; stroke-width: 0.8"/>
      </g>
     </g>
    </g>
    <g id="xtick_12">
     <g id="line2d_23">
      <path d="M 92.299506 146.747947 
L 92.299506 12.07875 
" clip-path="url(#pf23a029b7e)" style="fill: none; stroke: #b0b0b0; stroke-width: 0.3; stroke-linecap: square"/>
     </g>
     <g id="line2d_24">
      <g>
       <use xlink:href="#mbe763c3aec" x="92.299506" y="146.747947" style="stroke: #000000; stroke-width: 0.8"/>
      </g>
     </g>
    </g>
    <g id="xtick_13">
     <g id="line2d_25">
      <path d="M 99.301204 146.747947 
L 99.301204 12.07875 
" clip-path="url(#pf23a029b7e)" style="fill: none; stroke: #b0b0b0; stroke-width: 0.3; stroke-linecap: square"/>
     </g>
     <g id="line2d_26">
      <g>
       <use xlink:href="#mbe763c3aec" x="99.301204" y="146.747947" style="stroke: #000000; stroke-width: 0.8"/>
      </g>
     </g>
    </g>
    <g id="xtick_14">
     <g id="line2d_27">
      <path d="M 106.302902 146.747947 
L 106.302902 12.07875 
" clip-path="url(#pf23a029b7e)" style="fill: none; stroke: #b0b0b0; stroke-width: 0.3; stroke-linecap: square"/>
     </g>
     <g id="line2d_28">
      <g>
       <use xlink:href="#mbe763c3aec" x="106.302902" y="146.747947" style="stroke: #000000; stroke-width: 0.8"/>
      </g>
     </g>
    </g>
    <g id="xtick_15">
     <g id="line2d_29">
      <path d="M 120.306299 146.747947 
L 120.306299 12.07875 
" clip-path="url(#pf23a029b7e)" style="fill: none; stroke: #b0b0b0; stroke-width: 0.3; stroke-linecap: square"/>
     </g>
     <g id="line2d_30">
      <g>
       <use xlink:href="#mbe763c3aec" x="120.306299" y="146.747947" style="stroke: #000000; stroke-width: 0.8"/>
      </g>
     </g>
    </g>
    <g id="xtick_16">
     <g id="line2d_31">
      <path d="M 127.307997 146.747947 
L 127.307997 12.07875 
" clip-path="url(#pf23a029b7e)" style="fill: none; stroke: #b0b0b0; stroke-width: 0.3; stroke-linecap: square"/>
     </g>
     <g id="line2d_32">
      <g>
       <use xlink:href="#mbe763c3aec" x="127.307997" y="146.747947" style="stroke: #000000; stroke-width: 0.8"/>
      </g>
     </g>
    </g>
    <g id="xtick_17">
     <g id="line2d_33">
      <path d="M 134.309695 146.747947 
L 134.309695 12.07875 
" clip-path="url(#pf23a029b7e)" style="fill: none; stroke: #b0b0b0; stroke-width: 0.3; stroke-linecap: square"/>
     </g>
     <g id="line2d_34">
      <g>
       <use xlink:href="#mbe763c3aec" x="134.309695" y="146.747947" style="stroke: #000000; stroke-width: 0.8"/>
      </g>
     </g>
    </g>
    <g id="xtick_18">
     <g id="line2d_35">
      <path d="M 141.311393 146.747947 
L 141.311393 12.07875 
" clip-path="url(#pf23a029b7e)" style="fill: none; stroke: #b0b0b0; stroke-width: 0.3; stroke-linecap: square"/>
     </g>
     <g id="line2d_36">
      <g>
       <use xlink:href="#mbe763c3aec" x="141.311393" y="146.747947" style="stroke: #000000; stroke-width: 0.8"/>
      </g>
     </g>
    </g>
    <g id="xtick_19">
     <g id="line2d_37">
      <path d="M 155.31479 146.747947 
L 155.31479 12.07875 
" clip-path="url(#pf23a029b7e)" style="fill: none; stroke: #b0b0b0; stroke-width: 0.3; stroke-linecap: square"/>
     </g>
     <g id="line2d_38">
      <g>
       <use xlink:href="#mbe763c3aec" x="155.31479" y="146.747947" style="stroke: #000000; stroke-width: 0.8"/>
      </g>
     </g>
    </g>
    <g id="xtick_20">
     <g id="line2d_39">
      <path d="M 162.316488 146.747947 
L 162.316488 12.07875 
" clip-path="url(#pf23a029b7e)" style="fill: none; stroke: #b0b0b0; stroke-width: 0.3; stroke-linecap: square"/>
     </g>
     <g id="line2d_40">
      <g>
       <use xlink:href="#mbe763c3aec" x="162.316488" y="146.747947" style="stroke: #000000; stroke-width: 0.8"/>
      </g>
     </g>
    </g>
    <g id="xtick_21">
     <g id="line2d_41">
      <path d="M 169.318186 146.747947 
L 169.318186 12.07875 
" clip-path="url(#pf23a029b7e)" style="fill: none; stroke: #b0b0b0; stroke-width: 0.3; stroke-linecap: square"/>
     </g>
     <g id="line2d_42">
      <g>
       <use xlink:href="#mbe763c3aec" x="169.318186" y="146.747947" style="stroke: #000000; stroke-width: 0.8"/>
      </g>
     </g>
    </g>
    <g id="xtick_22">
     <g id="line2d_43">
      <path d="M 176.319884 146.747947 
L 176.319884 12.07875 
" clip-path="url(#pf23a029b7e)" style="fill: none; stroke: #b0b0b0; stroke-width: 0.3; stroke-linecap: square"/>
     </g>
     <g id="line2d_44">
      <g>
       <use xlink:href="#mbe763c3aec" x="176.319884" y="146.747947" style="stroke: #000000; stroke-width: 0.8"/>
      </g>
     </g>
    </g>
    <g id="xtick_23">
     <g id="line2d_45">
      <path d="M 190.323281 146.747947 
L 190.323281 12.07875 
" clip-path="url(#pf23a029b7e)" style="fill: none; stroke: #b0b0b0; stroke-width: 0.3; stroke-linecap: square"/>
     </g>
     <g id="line2d_46">
      <g>
       <use xlink:href="#mbe763c3aec" x="190.323281" y="146.747947" style="stroke: #000000; stroke-width: 0.8"/>
      </g>
     </g>
    </g>
    <g id="text_6">
     <text style="font: 9.6px 'DejaVu Sans', 'Bitstream Vera Sans', 'Computer Modern Sans Serif', 'Lucida Grande', 'Verdana', 'Geneva', 'Lucid', 'Arial', 'Helvetica', 'Avant Garde', sans-serif; text-anchor: middle" x="113.3046" y="174.859197" transform="rotate(-0 113.3046 174.859197)">Wavelength (nm)</text>
    </g>
   </g>
   <g id="matplotlib.axis_2">
    <g id="ytick_1">
     <g id="line2d_47">
      <path d="M 35.58575 145.500124 
L 191.023451 145.500124 
" clip-path="url(#pf23a029b7e)" style="fill: none; stroke: #b0b0b0; stroke-width: 0.6; stroke-linecap: square"/>
     </g>
     <g id="line2d_48">
      <defs>
       <path id="m8367b3c458" d="M 0 0 
L -4.8 0 
" style="stroke: #000000"/>
      </defs>
      <g>
       <use xlink:href="#m8367b3c458" x="35.58575" y="145.500124" style="stroke: #000000"/>
      </g>
     </g>
     <g id="text_7">
      <text style="font: 8.8px 'DejaVu Sans', 'Bitstream Vera Sans', 'Computer Modern Sans Serif', 'Lucida Grande', 'Verdana', 'Geneva', 'Lucid', 'Arial', 'Helvetica', 'Avant Garde', sans-serif; text-anchor: end" x="27.28575" y="148.843437" transform="rotate(-0 27.28575 148.843437)">0.0</text>
     </g>
    </g>
    <g id="ytick_2">
     <g id="line2d_49">
      <path d="M 35.58575 118.545539 
L 191.023451 118.545539 
" clip-path="url(#pf23a029b7e)" style="fill: none; stroke: #b0b0b0; stroke-width: 0.6; stroke-linecap: square"/>
     </g>
     <g id="line2d_50">
      <g>
       <use xlink:href="#m8367b3c458" x="35.58575" y="118.545539" style="stroke: #000000"/>
      </g>
     </g>
     <g id="text_8">
      <text style="font: 8.8px 'DejaVu Sans', 'Bitstream Vera Sans', 'Computer Modern Sans Serif', 'Lucida Grande', 'Verdana', 'Geneva', 'Lucid', 'Arial', 'Helvetica', 'Avant Garde', sans-serif; text-anchor: end" x="27.28575" y="121.888851" transform="rotate(-0 27.28575 121.888851)">0.2</text>
     </g>
    </g>
    <g id="ytick_3">
     <g id="line2d_51">
      <path d="M 35.58575 91.590953 
L 191.023451 91.590953 
" clip-path="url(#pf23a029b7e)" style="fill: none; stroke: #b0b0b0; stroke-width: 0.6; stroke-linecap: square"/>
     </g>
     <g id="line2d_52">
      <g>
       <use xlink:href="#m8367b3c458" x="35.58575" y="91.590953" style="stroke: #000000"/>
      </g>
     </g>
     <g id="text_9">
      <text style="font: 8.8px 'DejaVu Sans', 'Bitstream Vera Sans', 'Computer Modern Sans Serif', 'Lucida Grande', 'Verdana', 'Geneva', 'Lucid', 'Arial', 'Helvetica', 'Avant Garde', sans-serif; text-anchor: end" x="27.28575" y="94.934266" transform="rotate(-0 27.28575 94.934266)">0.4</text>
     </g>
    </g>
    <g id="ytick_4">
     <g id="line2d_53">
      <path d="M 35.58575 64.636368 
L 191.023451 64.636368 
" clip-path="url(#pf23a029b7e)" style="fill: none; stroke: #b0b0b0; stroke-width: 0.6; stroke-linecap: square"/>
     </g>
     <g id="line2d_54">
      <g>
       <use xlink:href="#m8367b3c458" x="35.58575" y="64.636368" style="stroke: #000000"/>
      </g>
     </g>
     <g id="text_10">
      <text style="font: 8.8px 'DejaVu Sans', 'Bitstream Vera Sans', 'Computer Modern Sans Serif', 'Lucida Grande', 'Verdana', 'Geneva', 'Lucid', 'Arial', 'Helvetica', 'Avant Garde', sans-serif; text-anchor: end" x="27.28575" y="67.97968" transform="rotate(-0 27.28575 67.97968)">0.6</text>
     </g>
    </g>
    <g id="ytick_5">
     <g id="line2d_55">
      <path d="M 35.58575 37.681782 
L 191.023451 37.681782 
" clip-path="url(#pf23a029b7e)" style="fill: none; stroke: #b0b0b0; stroke-width: 0.6; stroke-linecap: square"/>
     </g>
     <g id="line2d_56">
      <g>
       <use xlink:href="#m8367b3c458" x="35.58575" y="37.681782" style="stroke: #000000"/>
      </g>
     </g>
     <g id="text_11">
      <text style="font: 8.8px 'DejaVu Sans', 'Bitstream Vera Sans', 'Computer Modern Sans Serif', 'Lucida Grande', 'Verdana', 'Geneva', 'Lucid', 'Arial', 'Helvetica', 'Avant Garde', sans-serif; text-anchor: end" x="27.28575" y="41.025094" transform="rotate(-0 27.28575 41.025094)">0.8</text>
     </g>
    </g>
    <g id="text_12">
     <text style="font: 9.6px 'DejaVu Sans', 'Bitstream Vera Sans', 'Computer Modern Sans Serif', 'Lucida Grande', 'Verdana', 'Geneva', 'Lucid', 'Arial', 'Helvetica', 'Avant Garde', sans-serif; text-anchor: middle" x="7.2945" y="79.413348" transform="rotate(-90 7.2945 79.413348)">Reflectance</text>
    </g>
   </g>
   <g id="line2d_57">
    <path d="M 36.922438 18.490189 
L 39.513515 18.822927 
L 40.512134 19.279863 
L 42.210066 20.308515 
L 42.901184 20.63749 
L 43.249337 20.639055 
L 43.950873 20.271388 
L 45.375116 19.449587 
L 46.4621 18.92161 
L 47.936944 18.728413 
L 49.062548 18.730163 
L 51.755389 19.413642 
L 52.542199 19.762746 
L 53.336896 20.327716 
L 54.13956 21.428387 
L 55.76911 24.421943 
L 56.596157 25.038732 
L 57.431495 25.23096 
L 57.8523 25.214874 
L 59.988093 24.061329 
L 60.857435 23.416611 
L 61.735493 23.023914 
L 62.622353 22.924071 
L 63.969341 23.050292 
L 64.878596 23.506102 
L 65.796966 24.37463 
L 66.724542 25.791532 
L 68.133371 28.596331 
L 69.563439 31.193902 
L 70.528774 32.703954 
L 71.015065 33.746726 
L 71.503787 35.346933 
L 72.488574 40.263135 
L 74.487866 52.327622 
L 74.993952 52.55257 
L 76.013728 50.072753 
L 76.527443 49.402591 
L 77.043727 49.176075 
L 77.562593 49.131813 
L 78.084053 48.375868 
L 79.134807 45.436504 
L 79.664128 44.733311 
L 80.730723 44.405257 
L 81.268023 43.751323 
L 81.80801 42.299934 
L 82.896097 38.704317 
L 83.995093 35.978014 
L 85.664278 32.633331 
L 86.791024 30.691677 
L 87.929066 29.173058 
L 88.502358 28.570264 
L 89.078517 28.128226 
L 89.657556 27.854247 
L 90.239491 27.79544 
L 90.824335 28.048677 
L 91.412103 28.678177 
L 92.002811 29.761954 
L 92.596472 31.375852 
L 93.792713 35.984094 
L 95.000947 41.013516 
L 95.609598 42.666419 
L 96.221293 43.216828 
L 96.836047 42.936738 
L 97.453874 42.384427 
L 98.07479 41.605401 
L 99.956228 38.401586 
L 100.589656 37.88737 
L 101.226251 37.798856 
L 101.866029 38.226844 
L 102.509006 39.307924 
L 103.155198 41.199129 
L 103.804621 44.156978 
L 104.457291 48.352263 
L 105.772437 59.541366 
L 107.769918 79.696589 
L 108.442415 86.558615 
L 109.118274 91.510866 
L 109.797512 92.729934 
L 110.480146 90.482701 
L 111.855671 83.912894 
L 112.548597 79.570406 
L 114.648229 61.529678 
L 115.355117 57.932083 
L 116.06554 55.547494 
L 116.779514 54.075139 
L 117.497059 53.378319 
L 118.218191 53.186659 
L 118.942928 53.252784 
L 119.67129 53.715734 
L 120.403293 54.593617 
L 121.878298 57.044019 
L 125.630828 63.442806 
L 127.927677 66.206684 
L 128.700962 66.637816 
L 129.478114 66.0009 
L 130.259151 65.132296 
L 131.044094 64.797525 
L 131.832961 64.834436 
L 132.625772 64.464171 
L 133.422548 63.559197 
L 134.223308 62.902481 
L 135.028071 62.778918 
L 135.836858 63.17095 
L 136.649689 64.091805 
L 137.466585 65.670881 
L 138.287564 67.929943 
L 139.112649 70.894611 
L 139.941859 74.644376 
L 142.454449 87.82046 
L 143.300368 90.635269 
L 144.150516 92.538683 
L 145.863587 95.2926 
L 146.726552 96.507007 
L 147.593831 97.13759 
L 148.465447 97.156048 
L 150.221775 96.637 
L 151.106531 96.716188 
L 151.995711 97.085689 
L 155.59711 99.211524 
L 156.508743 99.927585 
L 157.424933 100.831918 
L 158.345705 102.114449 
L 159.27108 103.914821 
L 160.201082 106.197204 
L 161.135734 108.886599 
L 162.07506 112.140209 
L 165.879564 128.046959 
L 166.842608 131.187279 
L 167.810468 133.409628 
L 168.783167 134.912083 
L 169.76073 135.960091 
L 170.74318 136.750062 
L 172.722843 137.920618 
L 173.720104 138.209206 
L 174.722351 138.159915 
L 176.741905 137.681653 
L 177.759261 137.363053 
L 180.841952 136.967216 
L 182.922855 136.295083 
L 185.024618 135.406809 
L 187.147452 134.4186 
L 187.147452 134.4186 
" clip-path="url(#pf23a029b7e)" style="fill: none; stroke: #1f77b4; stroke-width: 0.5; stroke-linecap: square"/>
   </g>
   <g id="line2d_58"/>
   <g id="line2d_59">
    <path d="M 36.28592 18.200077 
L 37.546226 18.335128 
L 37.756276 18.312516 
L 38.316412 18.567737 
L 38.526463 18.541167 
L 39.226633 18.413777 
L 39.716752 18.735864 
L 39.926803 18.722082 
L 40.136854 18.655891 
L 40.556956 19.247539 
L 40.907041 19.276235 
L 41.327143 19.687141 
L 41.887278 19.951661 
L 42.377397 20.51204 
L 42.657465 20.660801 
L 43.00755 20.976285 
L 43.637703 20.687187 
L 44.337873 19.816689 
L 45.038043 19.701992 
L 45.528161 19.07495 
L 46.01828 18.854303 
L 46.368365 18.528396 
L 46.508399 18.483517 
L 46.928501 18.528476 
L 47.278586 18.484754 
L 47.628671 18.484887 
L 48.048773 18.392867 
L 48.328841 18.321112 
L 48.608909 18.248223 
L 48.958994 18.384398 
L 49.309079 18.289306 
L 50.009248 18.756888 
L 50.989486 18.723811 
L 51.479605 18.956836 
L 52.039741 19.013171 
L 53.650131 19.993026 
L 53.860182 20.339662 
L 54.350301 21.33477 
L 54.560352 21.743212 
L 55.54059 24.808404 
L 55.960692 24.932075 
L 56.380794 25.345719 
L 57.080964 25.416852 
L 57.501065 25.513162 
L 57.991184 25.704512 
L 58.55132 24.676435 
L 58.831388 24.475463 
L 59.25149 24.482982 
L 59.461541 24.473198 
L 59.881643 24.0629 
L 60.65183 23.098773 
L 62.052169 22.372433 
L 62.26222 22.388861 
L 62.612305 22.22822 
L 63.102424 22.288629 
L 63.942628 22.239245 
L 64.36273 22.29386 
L 64.852849 22.587285 
L 65.202934 22.782515 
L 65.763069 23.318068 
L 66.953358 25.450774 
L 69.123885 30.083886 
L 69.894071 31.269565 
L 70.38419 31.603101 
L 70.664258 31.677923 
L 70.944326 31.944377 
L 71.714513 34.822454 
L 72.554717 40.417665 
L 73.324903 45.966045 
L 73.534954 47.404092 
L 73.885039 50.951906 
L 74.585209 59.070389 
L 74.79526 59.264451 
L 75.49543 52.408977 
L 76.1956 50.318381 
L 76.825753 49.715109 
L 76.89577 49.672143 
L 77.245854 50.143067 
L 77.595939 51.70866 
L 77.665956 51.656498 
L 77.946024 51.44785 
L 79.20633 44.669578 
L 79.416381 44.320071 
L 80.046534 44.626357 
L 81.026772 46.003195 
L 81.096789 46.025978 
L 81.586907 44.471368 
L 82.21706 41.007455 
L 82.777196 38.580465 
L 83.337332 36.898747 
L 83.6174 36.391431 
L 84.247553 34.692932 
L 87.188266 28.913091 
L 87.818419 27.90895 
L 88.448572 26.946074 
L 90.198996 25.618654 
L 90.689115 25.630511 
L 90.969183 25.832603 
L 91.389285 26.278773 
L 91.599336 26.312561 
L 92.719608 29.789267 
L 93.34976 32.654486 
L 95.45027 44.639635 
L 95.870372 45.390313 
L 96.15044 45.381098 
L 96.990644 43.392596 
L 97.970881 42.129337 
L 98.671051 40.09809 
L 99.511255 37.228034 
L 100.211425 35.817043 
L 100.841578 35.095502 
L 101.47173 34.708503 
L 101.961849 34.844116 
L 102.1719 35.036363 
L 103.082121 36.776962 
L 103.362189 37.808199 
L 103.782291 39.921268 
L 104.27241 43.040338 
L 106.232885 63.742879 
L 106.793021 70.638813 
L 107.843276 84.369516 
L 109.173598 103.48979 
L 109.453666 104.585664 
L 109.523683 104.505958 
L 109.803751 104.187134 
L 110.223853 100.706983 
L 110.854006 92.513272 
L 111.484159 90.639211 
L 111.624193 90.172728 
L 112.324363 86.617272 
L 112.674448 84.039674 
L 113.164566 77.014894 
L 114.074787 62.855741 
L 114.774957 57.130148 
L 115.615161 53.501206 
L 116.315331 51.580431 
L 116.665416 50.98038 
L 117.225551 50.452296 
L 117.71567 50.714777 
L 118.205789 50.983393 
L 119.186027 50.882346 
L 119.396078 51.082497 
L 119.886197 51.823559 
L 120.866434 53.738629 
L 121.566604 55.414387 
L 121.916689 56.151724 
L 122.266774 56.911752 
L 122.686876 57.739415 
L 123.807148 59.807464 
L 125.83764 64.108193 
L 126.117708 64.289931 
L 126.677844 64.647307 
L 127.378014 65.64123 
L 128.358252 68.419678 
L 128.708337 68.903029 
L 129.128438 67.900841 
L 129.758591 65.105818 
L 130.458761 63.694701 
L 131.158931 63.687664 
L 132.209186 65.449771 
L 132.559271 65.066617 
L 133.189423 62.527883 
L 133.609525 61.525188 
L 134.309695 60.463992 
L 135.079882 60.227411 
L 136.200154 60.669676 
L 136.760289 61.147809 
L 137.740527 63.491546 
L 138.930816 67.478598 
L 139.77102 71.675272 
L 140.68124 77.740432 
L 142.431665 90.678766 
L 142.991801 92.650408 
L 143.411903 93.544785 
L 144.18209 94.829093 
L 144.742225 95.190817 
L 145.022293 95.394822 
L 145.302361 95.754871 
L 146.072548 97.264623 
L 146.912752 99.1618 
L 147.472888 99.273174 
L 147.822973 99.12618 
L 148.313092 98.717775 
L 149.50338 97.21467 
L 149.853465 96.71214 
L 150.693669 96.378495 
L 151.60389 96.633263 
L 151.883958 96.916913 
L 152.30406 96.984584 
L 152.724161 97.485691 
L 153.004229 97.406523 
L 153.144263 97.642866 
L 153.354314 97.858308 
L 153.91445 98.090899 
L 154.334552 98.164826 
L 154.61462 98.076026 
L 154.824671 98.198571 
L 155.034722 98.279608 
L 155.104739 98.174708 
L 155.174756 98.242516 
L 155.384807 98.559405 
L 155.664875 98.550505 
L 156.01496 98.784236 
L 157.415299 99.48752 
L 157.555333 99.475998 
L 157.695367 99.736505 
L 157.905418 100.052122 
L 158.185486 100.179641 
L 159.72586 103.697055 
L 160.986165 107.212199 
L 161.266233 107.950998 
L 162.316488 112.230739 
L 163.43676 118.393668 
L 163.856862 120.732678 
L 164.907116 126.074919 
L 166.517507 133.850934 
L 166.867592 134.940694 
L 167.707796 136.691887 
L 169.178152 138.237711 
L 169.388203 138.276797 
L 169.878322 138.641021 
L 170.298424 138.875892 
L 170.998594 139.260262 
L 171.278662 139.405168 
L 171.838798 139.547458 
L 172.328917 139.938915 
L 172.608984 140.030534 
L 173.239137 140.584694 
L 173.799273 140.613255 
L 174.429426 140.201456 
L 174.779511 139.891204 
L 175.059579 139.844962 
L 175.899783 139.494604 
L 176.599952 139.20012 
L 177.020054 138.882331 
L 178.140326 138.063712 
L 178.490411 138.249815 
L 178.98053 138.250699 
L 179.260598 138.369969 
L 179.6807 138.396174 
L 179.960768 138.530666 
L 180.170819 138.562045 
L 180.941005 138.073091 
L 181.221073 137.878324 
L 181.99126 137.592675 
L 182.341345 137.446087 
L 182.69143 137.269585 
L 183.111532 137.178096 
L 183.461617 137.024539 
L 184.161787 136.623436 
L 184.441854 136.469494 
L 184.651905 136.326653 
L 184.931973 136.188923 
L 185.422092 135.868009 
L 186.332313 135.220941 
L 186.822432 134.903669 
L 187.242534 134.663488 
L 187.522602 134.524918 
L 188.502839 134.385753 
L 189.062975 134.582749 
L 189.343043 134.452934 
L 189.553094 134.128174 
L 190.253264 132.707948 
L 190.253264 132.707948 
" clip-path="url(#pf23a029b7e)" style="fill: none; stroke: #1f77b4; stroke-opacity: 0.5; stroke-width: 0.5; stroke-linecap: square"/>
   </g>
   <g id="patch_3">
    <path d="M 35.58575 146.747947 
L 35.58575 12.07875 
" style="fill: none; stroke: #000000; stroke-linejoin: miter; stroke-linecap: square"/>
   </g>
   <g id="patch_4">
    <path d="M 191.023451 146.747947 
L 191.023451 12.07875 
" style="fill: none; stroke: #000000; stroke-linejoin: miter; stroke-linecap: square"/>
   </g>
   <g id="patch_5">
    <path d="M 35.58575 146.747947 
L 191.023451 146.747947 
" style="fill: none; stroke: #000000; stroke-linejoin: miter; stroke-linecap: square"/>
   </g>
   <g id="patch_6">
    <path d="M 35.58575 12.07875 
L 191.023451 12.07875 
" style="fill: none; stroke: #000000; stroke-linejoin: miter; stroke-linecap: square"/>
   </g>
   <g id="text_13">
    <text style="font: 8px 'DejaVu Sans', 'Bitstream Vera Sans', 'Computer Modern Sans Serif', 'Lucida Grande', 'Verdana', 'Geneva', 'Lucid', 'Arial', 'Helvetica', 'Avant Garde', sans-serif; text-anchor: middle" x="113.3046" y="6.07875" transform="rotate(-0 113.3046 6.07875)">enfys Sulfates Gypsum</text>
   </g>
   <g id="legend_1">
    <g id="patch_7">
     <path d="M 198.332205 84.716786 
L 271.029705 84.716786 
Q 272.229705 84.716786 272.229705 83.516786 
L 272.229705 75.309911 
Q 272.229705 74.109911 271.029705 74.109911 
L 198.332205 74.109911 
Q 197.132205 74.109911 197.132205 75.309911 
L 197.132205 83.516786 
Q 197.132205 84.716786 198.332205 84.716786 
z
" style="fill: #ffffff; opacity: 0.8; stroke: #cccccc; stroke-width: 0.8; stroke-linejoin: miter"/>
    </g>
    <g id="line2d_60">
     <path d="M 199.532205 78.968973 
L 205.532205 78.968973 
L 211.532205 78.968973 
" style="fill: none; stroke: #1f77b4; stroke-width: 1.2; stroke-linecap: square"/>
    </g>
    <g id="text_14">
     <text style="font: 6px 'DejaVu Sans', 'Bitstream Vera Sans', 'Computer Modern Sans Serif', 'Lucida Grande', 'Verdana', 'Geneva', 'Lucid', 'Arial', 'Helvetica', 'Avant Garde', sans-serif; text-anchor: start" x="216.332205" y="81.068973" transform="rotate(-0 216.332205 81.068973)">GYPSUM LASF41A</text>
    </g>
   </g>
  </g>
 </g>
 <defs>
  <clipPath id="pf23a029b7e">
   <rect x="35.58575" y="12.07875" width="155.437701" height="134.669197"/>
  </clipPath>
 </defs>
</svg>
