<?xml version="1.0" encoding="utf-8" standalone="no"?>
<!DOCTYPE svg PUBLIC "-//W3C//DTD SVG 1.1//EN"
  "http://www.w3.org/Graphics/SVG/1.1/DTD/svg11.dtd">
<svg xmlns:xlink="http://www.w3.org/1999/xlink" width="272.353642pt" height="176.645947pt" viewBox="0 0 272.353642 176.645947" xmlns="http://www.w3.org/2000/svg" version="1.1">
 <metadata>
  <rdf:RDF xmlns:dc="http://purl.org/dc/elements/1.1/" xmlns:cc="http://creativecommons.org/ns#" xmlns:rdf="http://www.w3.org/1999/02/22-rdf-syntax-ns#">
   <cc:Work>
    <dc:type rdf:resource="http://purl.org/dc/dcmitype/StillImage"/>
    <dc:date>2025-02-12T16:36:01.732320</dc:date>
    <dc:format>image/svg+xml</dc:format>
    <dc:creator>
     <cc:Agent>
      <dc:title>Matplotlib v3.6.2, https://matplotlib.org/</dc:title>
     </cc:Agent>
    </dc:creator>
   </cc:Work>
  </rdf:RDF>
 </metadata>
 <defs>
  <style type="text/css">*{stroke-linejoin: round; stroke-linecap: butt}</style>
 </defs>
 <g id="figure_1">
  <g id="patch_1">
   <path d="M -0 176.645947 
L 272.353642 176.645947 
L 272.353642 0 
L -0 0 
z
" style="fill: #ffffff"/>
  </g>
  <g id="axes_1">
   <g id="patch_2">
    <path d="M 35.58575 146.538197 
L 194.173451 146.538197 
L 194.173451 21.037 
L 35.58575 21.037 
z
" style="fill: #ffffff"/>
   </g>
   <g id="matplotlib.axis_1">
    <g id="xtick_1">
     <g id="line2d_1">
      <path d="M 43.443699 146.538197 
L 43.443699 21.037 
" clip-path="url(#pf3f80b35c6)" style="fill: none; stroke: #b0b0b0; stroke-width: 0.6; stroke-linecap: square"/>
     </g>
     <g id="line2d_2">
      <defs>
       <path id="m9cdf4ed3c3" d="M 0 0 
L 0 4.8 
" style="stroke: #000000"/>
      </defs>
      <g>
       <use xlink:href="#m9cdf4ed3c3" x="43.443699" y="146.538197" style="stroke: #000000"/>
      </g>
     </g>
     <g id="text_1">
      <text style="font: 8.8px 'DejaVu Sans', 'Bitstream Vera Sans', 'Computer Modern Sans Serif', 'Lucida Grande', 'Verdana', 'Geneva', 'Lucid', 'Arial', 'Helvetica', 'Avant Garde', sans-serif; text-anchor: middle" x="43.443699" y="161.524822" transform="rotate(-0 43.443699 161.524822)">1000</text>
     </g>
    </g>
    <g id="xtick_2">
     <g id="line2d_3">
      <path d="M 79.16165 146.538197 
L 79.16165 21.037 
" clip-path="url(#pf3f80b35c6)" style="fill: none; stroke: #b0b0b0; stroke-width: 0.6; stroke-linecap: square"/>
     </g>
     <g id="line2d_4">
      <g>
       <use xlink:href="#m9cdf4ed3c3" x="79.16165" y="146.538197" style="stroke: #000000"/>
      </g>
     </g>
     <g id="text_2">
      <text style="font: 8.8px 'DejaVu Sans', 'Bitstream Vera Sans', 'Computer Modern Sans Serif', 'Lucida Grande', 'Verdana', 'Geneva', 'Lucid', 'Arial', 'Helvetica', 'Avant Garde', sans-serif; text-anchor: middle" x="79.16165" y="161.524822" transform="rotate(-0 79.16165 161.524822)">1500</text>
     </g>
    </g>
    <g id="xtick_3">
     <g id="line2d_5">
      <path d="M 114.8796 146.538197 
L 114.8796 21.037 
" clip-path="url(#pf3f80b35c6)" style="fill: none; stroke: #b0b0b0; stroke-width: 0.6; stroke-linecap: square"/>
     </g>
     <g id="line2d_6">
      <g>
       <use xlink:href="#m9cdf4ed3c3" x="114.8796" y="146.538197" style="stroke: #000000"/>
      </g>
     </g>
     <g id="text_3">
      <text style="font: 8.8px 'DejaVu Sans', 'Bitstream Vera Sans', 'Computer Modern Sans Serif', 'Lucida Grande', 'Verdana', 'Geneva', 'Lucid', 'Arial', 'Helvetica', 'Avant Garde', sans-serif; text-anchor: middle" x="114.8796" y="161.524822" transform="rotate(-0 114.8796 161.524822)">2000</text>
     </g>
    </g>
    <g id="xtick_4">
     <g id="line2d_7">
      <path d="M 150.597551 146.538197 
L 150.597551 21.037 
" clip-path="url(#pf3f80b35c6)" style="fill: none; stroke: #b0b0b0; stroke-width: 0.6; stroke-linecap: square"/>
     </g>
     <g id="line2d_8">
      <g>
       <use xlink:href="#m9cdf4ed3c3" x="150.597551" y="146.538197" style="stroke: #000000"/>
      </g>
     </g>
     <g id="text_4">
      <text style="font: 8.8px 'DejaVu Sans', 'Bitstream Vera Sans', 'Computer Modern Sans Serif', 'Lucida Grande', 'Verdana', 'Geneva', 'Lucid', 'Arial', 'Helvetica', 'Avant Garde', sans-serif; text-anchor: middle" x="150.597551" y="161.524822" transform="rotate(-0 150.597551 161.524822)">2500</text>
     </g>
    </g>
    <g id="xtick_5">
     <g id="line2d_9">
      <path d="M 186.315502 146.538197 
L 186.315502 21.037 
" clip-path="url(#pf3f80b35c6)" style="fill: none; stroke: #b0b0b0; stroke-width: 0.6; stroke-linecap: square"/>
     </g>
     <g id="line2d_10">
      <g>
       <use xlink:href="#m9cdf4ed3c3" x="186.315502" y="146.538197" style="stroke: #000000"/>
      </g>
     </g>
     <g id="text_5">
      <text style="font: 8.8px 'DejaVu Sans', 'Bitstream Vera Sans', 'Computer Modern Sans Serif', 'Lucida Grande', 'Verdana', 'Geneva', 'Lucid', 'Arial', 'Helvetica', 'Avant Garde', sans-serif; text-anchor: middle" x="186.315502" y="161.524822" transform="rotate(-0 186.315502 161.524822)">3000</text>
     </g>
    </g>
    <g id="xtick_6">
     <g id="line2d_11">
      <path d="M 36.300109 146.538197 
L 36.300109 21.037 
" clip-path="url(#pf3f80b35c6)" style="fill: none; stroke: #b0b0b0; stroke-width: 0.3; stroke-linecap: square"/>
     </g>
     <g id="line2d_12">
      <defs>
       <path id="m9db0929ae8" d="M 0 0 
L 0 3.2 
" style="stroke: #000000; stroke-width: 0.8"/>
      </defs>
      <g>
       <use xlink:href="#m9db0929ae8" x="36.300109" y="146.538197" style="stroke: #000000; stroke-width: 0.8"/>
      </g>
     </g>
    </g>
    <g id="xtick_7">
     <g id="line2d_13">
      <path d="M 50.587289 146.538197 
L 50.587289 21.037 
" clip-path="url(#pf3f80b35c6)" style="fill: none; stroke: #b0b0b0; stroke-width: 0.3; stroke-linecap: square"/>
     </g>
     <g id="line2d_14">
      <g>
       <use xlink:href="#m9db0929ae8" x="50.587289" y="146.538197" style="stroke: #000000; stroke-width: 0.8"/>
      </g>
     </g>
    </g>
    <g id="xtick_8">
     <g id="line2d_15">
      <path d="M 57.730879 146.538197 
L 57.730879 21.037 
" clip-path="url(#pf3f80b35c6)" style="fill: none; stroke: #b0b0b0; stroke-width: 0.3; stroke-linecap: square"/>
     </g>
     <g id="line2d_16">
      <g>
       <use xlink:href="#m9db0929ae8" x="57.730879" y="146.538197" style="stroke: #000000; stroke-width: 0.8"/>
      </g>
     </g>
    </g>
    <g id="xtick_9">
     <g id="line2d_17">
      <path d="M 64.87447 146.538197 
L 64.87447 21.037 
" clip-path="url(#pf3f80b35c6)" style="fill: none; stroke: #b0b0b0; stroke-width: 0.3; stroke-linecap: square"/>
     </g>
     <g id="line2d_18">
      <g>
       <use xlink:href="#m9db0929ae8" x="64.87447" y="146.538197" style="stroke: #000000; stroke-width: 0.8"/>
      </g>
     </g>
    </g>
    <g id="xtick_10">
     <g id="line2d_19">
      <path d="M 72.01806 146.538197 
L 72.01806 21.037 
" clip-path="url(#pf3f80b35c6)" style="fill: none; stroke: #b0b0b0; stroke-width: 0.3; stroke-linecap: square"/>
     </g>
     <g id="line2d_20">
      <g>
       <use xlink:href="#m9db0929ae8" x="72.01806" y="146.538197" style="stroke: #000000; stroke-width: 0.8"/>
      </g>
     </g>
    </g>
    <g id="xtick_11">
     <g id="line2d_21">
      <path d="M 86.30524 146.538197 
L 86.30524 21.037 
" clip-path="url(#pf3f80b35c6)" style="fill: none; stroke: #b0b0b0; stroke-width: 0.3; stroke-linecap: square"/>
     </g>
     <g id="line2d_22">
      <g>
       <use xlink:href="#m9db0929ae8" x="86.30524" y="146.538197" style="stroke: #000000; stroke-width: 0.8"/>
      </g>
     </g>
    </g>
    <g id="xtick_12">
     <g id="line2d_23">
      <path d="M 93.44883 146.538197 
L 93.44883 21.037 
" clip-path="url(#pf3f80b35c6)" style="fill: none; stroke: #b0b0b0; stroke-width: 0.3; stroke-linecap: square"/>
     </g>
     <g id="line2d_24">
      <g>
       <use xlink:href="#m9db0929ae8" x="93.44883" y="146.538197" style="stroke: #000000; stroke-width: 0.8"/>
      </g>
     </g>
    </g>
    <g id="xtick_13">
     <g id="line2d_25">
      <path d="M 100.59242 146.538197 
L 100.59242 21.037 
" clip-path="url(#pf3f80b35c6)" style="fill: none; stroke: #b0b0b0; stroke-width: 0.3; stroke-linecap: square"/>
     </g>
     <g id="line2d_26">
      <g>
       <use xlink:href="#m9db0929ae8" x="100.59242" y="146.538197" style="stroke: #000000; stroke-width: 0.8"/>
      </g>
     </g>
    </g>
    <g id="xtick_14">
     <g id="line2d_27">
      <path d="M 107.73601 146.538197 
L 107.73601 21.037 
" clip-path="url(#pf3f80b35c6)" style="fill: none; stroke: #b0b0b0; stroke-width: 0.3; stroke-linecap: square"/>
     </g>
     <g id="line2d_28">
      <g>
       <use xlink:href="#m9db0929ae8" x="107.73601" y="146.538197" style="stroke: #000000; stroke-width: 0.8"/>
      </g>
     </g>
    </g>
    <g id="xtick_15">
     <g id="line2d_29">
      <path d="M 122.023191 146.538197 
L 122.023191 21.037 
" clip-path="url(#pf3f80b35c6)" style="fill: none; stroke: #b0b0b0; stroke-width: 0.3; stroke-linecap: square"/>
     </g>
     <g id="line2d_30">
      <g>
       <use xlink:href="#m9db0929ae8" x="122.023191" y="146.538197" style="stroke: #000000; stroke-width: 0.8"/>
      </g>
     </g>
    </g>
    <g id="xtick_16">
     <g id="line2d_31">
      <path d="M 129.166781 146.538197 
L 129.166781 21.037 
" clip-path="url(#pf3f80b35c6)" style="fill: none; stroke: #b0b0b0; stroke-width: 0.3; stroke-linecap: square"/>
     </g>
     <g id="line2d_32">
      <g>
       <use xlink:href="#m9db0929ae8" x="129.166781" y="146.538197" style="stroke: #000000; stroke-width: 0.8"/>
      </g>
     </g>
    </g>
    <g id="xtick_17">
     <g id="line2d_33">
      <path d="M 136.310371 146.538197 
L 136.310371 21.037 
" clip-path="url(#pf3f80b35c6)" style="fill: none; stroke: #b0b0b0; stroke-width: 0.3; stroke-linecap: square"/>
     </g>
     <g id="line2d_34">
      <g>
       <use xlink:href="#m9db0929ae8" x="136.310371" y="146.538197" style="stroke: #000000; stroke-width: 0.8"/>
      </g>
     </g>
    </g>
    <g id="xtick_18">
     <g id="line2d_35">
      <path d="M 143.453961 146.538197 
L 143.453961 21.037 
" clip-path="url(#pf3f80b35c6)" style="fill: none; stroke: #b0b0b0; stroke-width: 0.3; stroke-linecap: square"/>
     </g>
     <g id="line2d_36">
      <g>
       <use xlink:href="#m9db0929ae8" x="143.453961" y="146.538197" style="stroke: #000000; stroke-width: 0.8"/>
      </g>
     </g>
    </g>
    <g id="xtick_19">
     <g id="line2d_37">
      <path d="M 157.741141 146.538197 
L 157.741141 21.037 
" clip-path="url(#pf3f80b35c6)" style="fill: none; stroke: #b0b0b0; stroke-width: 0.3; stroke-linecap: square"/>
     </g>
     <g id="line2d_38">
      <g>
       <use xlink:href="#m9db0929ae8" x="157.741141" y="146.538197" style="stroke: #000000; stroke-width: 0.8"/>
      </g>
     </g>
    </g>
    <g id="xtick_20">
     <g id="line2d_39">
      <path d="M 164.884731 146.538197 
L 164.884731 21.037 
" clip-path="url(#pf3f80b35c6)" style="fill: none; stroke: #b0b0b0; stroke-width: 0.3; stroke-linecap: square"/>
     </g>
     <g id="line2d_40">
      <g>
       <use xlink:href="#m9db0929ae8" x="164.884731" y="146.538197" style="stroke: #000000; stroke-width: 0.8"/>
      </g>
     </g>
    </g>
    <g id="xtick_21">
     <g id="line2d_41">
      <path d="M 172.028321 146.538197 
L 172.028321 21.037 
" clip-path="url(#pf3f80b35c6)" style="fill: none; stroke: #b0b0b0; stroke-width: 0.3; stroke-linecap: square"/>
     </g>
     <g id="line2d_42">
      <g>
       <use xlink:href="#m9db0929ae8" x="172.028321" y="146.538197" style="stroke: #000000; stroke-width: 0.8"/>
      </g>
     </g>
    </g>
    <g id="xtick_22">
     <g id="line2d_43">
      <path d="M 179.171912 146.538197 
L 179.171912 21.037 
" clip-path="url(#pf3f80b35c6)" style="fill: none; stroke: #b0b0b0; stroke-width: 0.3; stroke-linecap: square"/>
     </g>
     <g id="line2d_44">
      <g>
       <use xlink:href="#m9db0929ae8" x="179.171912" y="146.538197" style="stroke: #000000; stroke-width: 0.8"/>
      </g>
     </g>
    </g>
    <g id="xtick_23">
     <g id="line2d_45">
      <path d="M 193.459092 146.538197 
L 193.459092 21.037 
" clip-path="url(#pf3f80b35c6)" style="fill: none; stroke: #b0b0b0; stroke-width: 0.3; stroke-linecap: square"/>
     </g>
     <g id="line2d_46">
      <g>
       <use xlink:href="#m9db0929ae8" x="193.459092" y="146.538197" style="stroke: #000000; stroke-width: 0.8"/>
      </g>
     </g>
    </g>
    <g id="text_6">
     <text style="font: 9.6px 'DejaVu Sans', 'Bitstream Vera Sans', 'Computer Modern Sans Serif', 'Lucida Grande', 'Verdana', 'Geneva', 'Lucid', 'Arial', 'Helvetica', 'Avant Garde', sans-serif; text-anchor: middle" x="114.8796" y="174.649447" transform="rotate(-0 114.8796 174.649447)">Wavelength (nm)</text>
    </g>
   </g>
   <g id="matplotlib.axis_2">
    <g id="ytick_1">
     <g id="line2d_47">
      <path d="M 35.58575 129.328191 
L 194.173451 129.328191 
" clip-path="url(#pf3f80b35c6)" style="fill: none; stroke: #b0b0b0; stroke-width: 0.6; stroke-linecap: square"/>
     </g>
     <g id="line2d_48">
      <defs>
       <path id="mb7b05cc9d2" d="M 0 0 
L -4.8 0 
" style="stroke: #000000"/>
      </defs>
      <g>
       <use xlink:href="#mb7b05cc9d2" x="35.58575" y="129.328191" style="stroke: #000000"/>
      </g>
     </g>
     <g id="text_7">
      <text style="font: 8.8px 'DejaVu Sans', 'Bitstream Vera Sans', 'Computer Modern Sans Serif', 'Lucida Grande', 'Verdana', 'Geneva', 'Lucid', 'Arial', 'Helvetica', 'Avant Garde', sans-serif; text-anchor: end" x="27.28575" y="132.671503" transform="rotate(-0 27.28575 132.671503)">0.3</text>
     </g>
    </g>
    <g id="ytick_2">
     <g id="line2d_49">
      <path d="M 35.58575 110.285888 
L 194.173451 110.285888 
" clip-path="url(#pf3f80b35c6)" style="fill: none; stroke: #b0b0b0; stroke-width: 0.6; stroke-linecap: square"/>
     </g>
     <g id="line2d_50">
      <g>
       <use xlink:href="#mb7b05cc9d2" x="35.58575" y="110.285888" style="stroke: #000000"/>
      </g>
     </g>
     <g id="text_8">
      <text style="font: 8.8px 'DejaVu Sans', 'Bitstream Vera Sans', 'Computer Modern Sans Serif', 'Lucida Grande', 'Verdana', 'Geneva', 'Lucid', 'Arial', 'Helvetica', 'Avant Garde', sans-serif; text-anchor: end" x="27.28575" y="113.629201" transform="rotate(-0 27.28575 113.629201)">0.4</text>
     </g>
    </g>
    <g id="ytick_3">
     <g id="line2d_51">
      <path d="M 35.58575 91.243586 
L 194.173451 91.243586 
" clip-path="url(#pf3f80b35c6)" style="fill: none; stroke: #b0b0b0; stroke-width: 0.6; stroke-linecap: square"/>
     </g>
     <g id="line2d_52">
      <g>
       <use xlink:href="#mb7b05cc9d2" x="35.58575" y="91.243586" style="stroke: #000000"/>
      </g>
     </g>
     <g id="text_9">
      <text style="font: 8.8px 'DejaVu Sans', 'Bitstream Vera Sans', 'Computer Modern Sans Serif', 'Lucida Grande', 'Verdana', 'Geneva', 'Lucid', 'Arial', 'Helvetica', 'Avant Garde', sans-serif; text-anchor: end" x="27.28575" y="94.586899" transform="rotate(-0 27.28575 94.586899)">0.5</text>
     </g>
    </g>
    <g id="ytick_4">
     <g id="line2d_53">
      <path d="M 35.58575 72.201284 
L 194.173451 72.201284 
" clip-path="url(#pf3f80b35c6)" style="fill: none; stroke: #b0b0b0; stroke-width: 0.6; stroke-linecap: square"/>
     </g>
     <g id="line2d_54">
      <g>
       <use xlink:href="#mb7b05cc9d2" x="35.58575" y="72.201284" style="stroke: #000000"/>
      </g>
     </g>
     <g id="text_10">
      <text style="font: 8.8px 'DejaVu Sans', 'Bitstream Vera Sans', 'Computer Modern Sans Serif', 'Lucida Grande', 'Verdana', 'Geneva', 'Lucid', 'Arial', 'Helvetica', 'Avant Garde', sans-serif; text-anchor: end" x="27.28575" y="75.544596" transform="rotate(-0 27.28575 75.544596)">0.6</text>
     </g>
    </g>
    <g id="ytick_5">
     <g id="line2d_55">
      <path d="M 35.58575 53.158982 
L 194.173451 53.158982 
" clip-path="url(#pf3f80b35c6)" style="fill: none; stroke: #b0b0b0; stroke-width: 0.6; stroke-linecap: square"/>
     </g>
     <g id="line2d_56">
      <g>
       <use xlink:href="#mb7b05cc9d2" x="35.58575" y="53.158982" style="stroke: #000000"/>
      </g>
     </g>
     <g id="text_11">
      <text style="font: 8.8px 'DejaVu Sans', 'Bitstream Vera Sans', 'Computer Modern Sans Serif', 'Lucida Grande', 'Verdana', 'Geneva', 'Lucid', 'Arial', 'Helvetica', 'Avant Garde', sans-serif; text-anchor: end" x="27.28575" y="56.502294" transform="rotate(-0 27.28575 56.502294)">0.7</text>
     </g>
    </g>
    <g id="ytick_6">
     <g id="line2d_57">
      <path d="M 35.58575 34.116679 
L 194.173451 34.116679 
" clip-path="url(#pf3f80b35c6)" style="fill: none; stroke: #b0b0b0; stroke-width: 0.6; stroke-linecap: square"/>
     </g>
     <g id="line2d_58">
      <g>
       <use xlink:href="#mb7b05cc9d2" x="35.58575" y="34.116679" style="stroke: #000000"/>
      </g>
     </g>
     <g id="text_12">
      <text style="font: 8.8px 'DejaVu Sans', 'Bitstream Vera Sans', 'Computer Modern Sans Serif', 'Lucida Grande', 'Verdana', 'Geneva', 'Lucid', 'Arial', 'Helvetica', 'Avant Garde', sans-serif; text-anchor: end" x="27.28575" y="37.459992" transform="rotate(-0 27.28575 37.459992)">0.8</text>
     </g>
    </g>
    <g id="text_13">
     <text style="font: 9.6px 'DejaVu Sans', 'Bitstream Vera Sans', 'Computer Modern Sans Serif', 'Lucida Grande', 'Verdana', 'Geneva', 'Lucid', 'Arial', 'Helvetica', 'Avant Garde', sans-serif; text-anchor: middle" x="7.2945" y="83.787598" transform="rotate(-90 7.2945 83.787598)">Reflectance</text>
    </g>
   </g>
   <g id="line2d_59">
    <path d="M 36.949526 137.923184 
L 37.600567 136.775317 
L 38.258135 135.089577 
L 39.931039 129.513942 
L 40.95499 124.741057 
L 42.695993 115.965281 
L 45.207502 102.73407 
L 46.682513 96.317189 
L 50.501387 81.256119 
L 52.483449 72.364128 
L 57.447011 48.245671 
L 58.735018 43.556403 
L 59.604458 40.962138 
L 60.924989 37.661388 
L 61.816384 35.903608 
L 62.716715 34.516525 
L 64.084163 33.008575 
L 65.472226 31.876866 
L 66.881214 31.059187 
L 68.79296 30.53193 
L 69.276886 30.46882 
L 69.763232 30.561958 
L 71.236907 31.43307 
L 73.236423 31.350046 
L 74.25124 31.128268 
L 75.792573 30.768351 
L 78.945296 29.327933 
L 79.479983 29.317868 
L 80.557392 28.959554 
L 83.298405 28.139106 
L 84.414094 28.043435 
L 87.252493 27.846863 
L 92.543444 27.933828 
L 93.751814 27.492767 
L 94.360534 27.5462 
L 94.972298 27.789989 
L 95.58712 27.910821 
L 96.205017 27.819448 
L 97.450094 27.969966 
L 98.707653 28.088661 
L 99.977819 28.093432 
L 101.906983 28.736425 
L 103.86523 29.623223 
L 104.524517 30.130789 
L 105.1871 31.147931 
L 106.522223 34.453585 
L 107.194795 35.059814 
L 108.550045 35.070758 
L 109.918881 35.555729 
L 111.301439 35.491022 
L 112.697858 34.948801 
L 114.818778 34.011827 
L 117.696491 32.742809 
L 119.15702 32.050703 
L 120.632191 31.568323 
L 121.375313 31.364692 
L 123.627047 30.345252 
L 124.385143 30.138985 
L 125.14703 30.158863 
L 126.682251 30.467037 
L 127.455623 30.835128 
L 129.013988 31.728587 
L 130.587975 32.438732 
L 132.978591 33.614324 
L 137.868482 35.865247 
L 140.368853 38.073468 
L 142.056673 39.333225 
L 147.222334 44.058832 
L 148.098406 44.709385 
L 150.752994 46.221603 
L 152.544915 47.573218 
L 152.544915 47.573218 
" clip-path="url(#pf3f80b35c6)" style="fill: none; stroke: #1f77b4; stroke-width: 0.5; stroke-linecap: square"/>
   </g>
   <g id="line2d_60"/>
   <g id="line2d_61">
    <path d="M 36.300109 140.833597 
L 36.943032 139.795873 
L 38.157442 137.327423 
L 39.014673 134.214162 
L 40.086212 130.709107 
L 40.800571 126.917675 
L 41.872109 121.508253 
L 43.515135 112.35264 
L 44.872417 104.888803 
L 46.086827 99.113474 
L 47.515546 93.734839 
L 48.587084 89.580134 
L 49.587187 85.534013 
L 51.087341 79.193114 
L 53.373289 67.922577 
L 53.944777 65.216123 
L 54.659136 61.373205 
L 57.087956 48.682102 
L 57.659443 46.493494 
L 58.230931 44.427025 
L 59.659649 39.825099 
L 60.088264 38.665006 
L 60.51688 37.628011 
L 60.874059 36.683254 
L 61.445546 35.368127 
L 62.159905 34.239621 
L 62.517085 33.590019 
L 63.017136 33.2246 
L 63.160008 33.084261 
L 63.731495 32.426355 
L 65.588829 30.936164 
L 66.231752 30.621476 
L 67.088982 30.144867 
L 67.446162 30.115171 
L 67.803341 30.225948 
L 68.231957 29.878108 
L 69.089188 29.712236 
L 69.374931 29.514762 
L 69.589239 29.481731 
L 70.08929 29.898947 
L 70.232162 29.957831 
L 70.732213 31.392316 
L 70.946521 31.627011 
L 71.017957 31.548507 
L 71.518008 31.161507 
L 72.089496 31.054537 
L 72.732419 31.680231 
L 73.661085 30.809005 
L 74.018265 30.758887 
L 74.161137 30.767513 
L 74.518316 31.383608 
L 75.161239 30.326905 
L 75.232675 30.24113 
L 75.732727 30.890532 
L 75.947034 30.957094 
L 76.37565 30.105249 
L 76.875701 30.027278 
L 77.161445 29.960757 
L 78.090111 29.332895 
L 78.447291 28.490763 
L 78.518727 28.564902 
L 78.947342 28.901864 
L 79.375957 29.128543 
L 79.804573 29.321114 
L 79.876009 29.341578 
L 80.304624 28.691465 
L 80.661804 28.584822 
L 81.018983 28.284271 
L 81.59047 28.608039 
L 81.661906 28.632185 
L 82.161958 27.837767 
L 82.519137 27.822835 
L 83.019188 27.943496 
L 83.16206 27.887335 
L 83.804983 27.275554 
L 83.876419 27.40944 
L 84.162163 27.944983 
L 84.233599 27.905993 
L 84.947958 27.614241 
L 85.519445 27.53213 
L 85.733753 27.555461 
L 86.519548 27.689959 
L 87.091035 27.43902 
L 87.662522 27.408211 
L 87.87683 27.517061 
L 88.305445 27.705495 
L 88.805496 27.706131 
L 90.377086 27.51085 
L 90.805702 27.647733 
L 91.377189 27.767195 
L 91.948676 28.150138 
L 92.23442 28.167522 
L 92.448727 28.045612 
L 93.091651 27.199236 
L 93.80601 26.76018 
L 94.306061 26.81711 
L 94.591804 27.047487 
L 95.306163 28.053258 
L 95.663343 27.950217 
L 96.163394 27.221856 
L 96.306266 26.955197 
L 96.377702 27.034105 
L 97.020625 27.589078 
L 97.592112 27.689898 
L 98.306471 27.901117 
L 98.806523 27.786921 
L 99.663753 27.469534 
L 100.235241 27.465543 
L 101.163907 28.056202 
L 101.80683 28.134136 
L 103.306984 28.915911 
L 104.092779 28.818892 
L 104.592831 28.963949 
L 105.235754 29.852446 
L 106.16442 34.49987 
L 106.664472 37.769218 
L 106.735908 37.576829 
L 107.521703 35.691657 
L 108.236062 35.071586 
L 108.807549 35.050302 
L 109.521908 36.519231 
L 109.593344 36.466063 
L 110.450575 35.95552 
L 111.093498 35.968273 
L 111.664985 36.318164 
L 112.45078 34.95334 
L 113.165139 35.184079 
L 114.593857 33.998225 
L 115.379652 33.926788 
L 116.80837 32.963598 
L 117.451293 33.026237 
L 118.308524 32.115185 
L 119.308626 31.763096 
L 119.665806 31.58956 
L 120.308729 31.139458 
L 121.094524 31.419277 
L 121.737447 31.176784 
L 122.451806 30.101751 
L 123.237601 30.007048 
L 124.666319 29.126596 
L 125.666421 29.648668 
L 126.095037 29.704261 
L 126.73796 29.565735 
L 127.452319 30.05973 
L 128.238114 31.121239 
L 129.238217 31.490784 
L 130.238319 31.770987 
L 131.238422 32.459202 
L 131.809909 32.795317 
L 132.452832 33.413554 
L 133.095755 33.025513 
L 133.88155 33.978614 
L 134.524473 33.57992 
L 135.310268 34.748975 
L 135.953191 34.540841 
L 136.66755 35.529651 
L 137.381909 34.518277 
L 137.453345 34.591184 
L 138.310576 35.605812 
L 139.524986 37.490856 
L 141.02514 38.350978 
L 141.739499 38.594615 
L 143.025345 40.241323 
L 143.739705 40.890905 
L 144.882679 41.707781 
L 146.740012 43.998516 
L 148.383038 45.359717 
L 149.311705 45.621823 
L 150.454679 46.04618 
L 151.66909 47.159357 
L 154.740833 50.003325 
L 154.740833 50.003325 
" clip-path="url(#pf3f80b35c6)" style="fill: none; stroke: #1f77b4; stroke-opacity: 0.5; stroke-width: 0.5; stroke-linecap: square"/>
   </g>
   <g id="patch_3">
    <path d="M 35.58575 146.538197 
L 35.58575 21.037 
" style="fill: none; stroke: #000000; stroke-linejoin: miter; stroke-linecap: square"/>
   </g>
   <g id="patch_4">
    <path d="M 194.173451 146.538197 
L 194.173451 21.037 
" style="fill: none; stroke: #000000; stroke-linejoin: miter; stroke-linecap: square"/>
   </g>
   <g id="patch_5">
    <path d="M 35.58575 146.538197 
L 194.173451 146.538197 
" style="fill: none; stroke: #000000; stroke-linejoin: miter; stroke-linecap: square"/>
   </g>
   <g id="patch_6">
    <path d="M 35.58575 21.037 
L 194.173451 21.037 
" style="fill: none; stroke: #000000; stroke-linejoin: miter; stroke-linecap: square"/>
   </g>
   <g id="text_14">
    <text style="font: 8px 'DejaVu Sans', 'Bitstream Vera Sans', 'Computer Modern Sans Serif', 'Lucida Grande', 'Verdana', 'Geneva', 'Lucid', 'Arial', 'Helvetica', 'Avant Garde', sans-serif" transform="translate(75.2871 6.07875)">enfys Iron oxides &amp; </text>
    <text style="font: 8px 'DejaVu Sans', 'Bitstream Vera Sans', 'Computer Modern Sans Serif', 'Lucida Grande', 'Verdana', 'Geneva', 'Lucid', 'Arial', 'Helvetica', 'Avant Garde', sans-serif" transform="translate(60.7046 15.037)"> primary silicates Hematite</text>
   </g>
   <g id="legend_1">
    <g id="patch_7">
     <path d="M 201.545205 89.091036 
L 271.153642 89.091036 
Q 272.353642 89.091036 272.353642 87.891036 
L 272.353642 79.684161 
Q 272.353642 78.484161 271.153642 78.484161 
L 201.545205 78.484161 
Q 200.345205 78.484161 200.345205 79.684161 
L 200.345205 87.891036 
Q 200.345205 89.091036 201.545205 89.091036 
z
" style="fill: #ffffff; opacity: 0.8; stroke: #cccccc; stroke-width: 0.8; stroke-linejoin: miter"/>
    </g>
    <g id="line2d_62">
     <path d="M 202.745205 83.343223 
L 208.745205 83.343223 
L 214.745205 83.343223 
" style="fill: none; stroke: #1f77b4; stroke-width: 1.2; stroke-linecap: square"/>
    </g>
    <g id="text_15">
     <text style="font: 6px 'DejaVu Sans', 'Bitstream Vera Sans', 'Computer Modern Sans Serif', 'Lucida Grande', 'Verdana', 'Geneva', 'Lucid', 'Arial', 'Helvetica', 'Avant Garde', sans-serif; text-anchor: start" x="219.545205" y="85.443223" transform="rotate(-0 219.545205 85.443223)">Hematite GDS27</text>
    </g>
   </g>
  </g>
 </g>
 <defs>
  <clipPath id="pf3f80b35c6">
   <rect x="35.58575" y="21.037" width="158.587701" height="125.501197"/>
  </clipPath>
 </defs>
</svg>
