<?xml version="1.0" encoding="utf-8" standalone="no"?>
<!DOCTYPE svg PUBLIC "-//W3C//DTD SVG 1.1//EN"
  "http://www.w3.org/Graphics/SVG/1.1/DTD/svg11.dtd">
<svg xmlns:xlink="http://www.w3.org/1999/xlink" width="271.796842pt" height="176.645947pt" viewBox="0 0 271.796842 176.645947" xmlns="http://www.w3.org/2000/svg" version="1.1">
 <metadata>
  <rdf:RDF xmlns:dc="http://purl.org/dc/elements/1.1/" xmlns:cc="http://creativecommons.org/ns#" xmlns:rdf="http://www.w3.org/1999/02/22-rdf-syntax-ns#">
   <cc:Work>
    <dc:type rdf:resource="http://purl.org/dc/dcmitype/StillImage"/>
    <dc:date>2025-02-12T16:36:04.918585</dc:date>
    <dc:format>image/svg+xml</dc:format>
    <dc:creator>
     <cc:Agent>
      <dc:title>Matplotlib v3.6.2, https://matplotlib.org/</dc:title>
     </cc:Agent>
    </dc:creator>
   </cc:Work>
  </rdf:RDF>
 </metadata>
 <defs>
  <style type="text/css">*{stroke-linejoin: round; stroke-linecap: butt}</style>
 </defs>
 <g id="figure_1">
  <g id="patch_1">
   <path d="M -0 176.645947 
L 271.796842 176.645947 
L 271.796842 0 
L -0 0 
z
" style="fill: #ffffff"/>
  </g>
  <g id="axes_1">
   <g id="patch_2">
    <path d="M 35.58575 146.538197 
L 171.583451 146.538197 
L 171.583451 21.037 
L 35.58575 21.037 
z
" style="fill: #ffffff"/>
   </g>
   <g id="matplotlib.axis_1">
    <g id="xtick_1">
     <g id="line2d_1">
      <path d="M 42.324375 146.538197 
L 42.324375 21.037 
" clip-path="url(#pf54317473d)" style="fill: none; stroke: #b0b0b0; stroke-width: 0.6; stroke-linecap: square"/>
     </g>
     <g id="line2d_2">
      <defs>
       <path id="mc471835ab5" d="M 0 0 
L 0 4.8 
" style="stroke: #000000"/>
      </defs>
      <g>
       <use xlink:href="#mc471835ab5" x="42.324375" y="146.538197" style="stroke: #000000"/>
      </g>
     </g>
     <g id="text_1">
      <text style="font: 8.8px 'DejaVu Sans', 'Bitstream Vera Sans', 'Computer Modern Sans Serif', 'Lucida Grande', 'Verdana', 'Geneva', 'Lucid', 'Arial', 'Helvetica', 'Avant Garde', sans-serif; text-anchor: middle" x="42.324375" y="161.524822" transform="rotate(-0 42.324375 161.524822)">1000</text>
     </g>
    </g>
    <g id="xtick_2">
     <g id="line2d_3">
      <path d="M 72.954488 146.538197 
L 72.954488 21.037 
" clip-path="url(#pf54317473d)" style="fill: none; stroke: #b0b0b0; stroke-width: 0.6; stroke-linecap: square"/>
     </g>
     <g id="line2d_4">
      <g>
       <use xlink:href="#mc471835ab5" x="72.954488" y="146.538197" style="stroke: #000000"/>
      </g>
     </g>
     <g id="text_2">
      <text style="font: 8.8px 'DejaVu Sans', 'Bitstream Vera Sans', 'Computer Modern Sans Serif', 'Lucida Grande', 'Verdana', 'Geneva', 'Lucid', 'Arial', 'Helvetica', 'Avant Garde', sans-serif; text-anchor: middle" x="72.954488" y="161.524822" transform="rotate(-0 72.954488 161.524822)">1500</text>
     </g>
    </g>
    <g id="xtick_3">
     <g id="line2d_5">
      <path d="M 103.5846 146.538197 
L 103.5846 21.037 
" clip-path="url(#pf54317473d)" style="fill: none; stroke: #b0b0b0; stroke-width: 0.6; stroke-linecap: square"/>
     </g>
     <g id="line2d_6">
      <g>
       <use xlink:href="#mc471835ab5" x="103.5846" y="146.538197" style="stroke: #000000"/>
      </g>
     </g>
     <g id="text_3">
      <text style="font: 8.8px 'DejaVu Sans', 'Bitstream Vera Sans', 'Computer Modern Sans Serif', 'Lucida Grande', 'Verdana', 'Geneva', 'Lucid', 'Arial', 'Helvetica', 'Avant Garde', sans-serif; text-anchor: middle" x="103.5846" y="161.524822" transform="rotate(-0 103.5846 161.524822)">2000</text>
     </g>
    </g>
    <g id="xtick_4">
     <g id="line2d_7">
      <path d="M 134.214713 146.538197 
L 134.214713 21.037 
" clip-path="url(#pf54317473d)" style="fill: none; stroke: #b0b0b0; stroke-width: 0.6; stroke-linecap: square"/>
     </g>
     <g id="line2d_8">
      <g>
       <use xlink:href="#mc471835ab5" x="134.214713" y="146.538197" style="stroke: #000000"/>
      </g>
     </g>
     <g id="text_4">
      <text style="font: 8.8px 'DejaVu Sans', 'Bitstream Vera Sans', 'Computer Modern Sans Serif', 'Lucida Grande', 'Verdana', 'Geneva', 'Lucid', 'Arial', 'Helvetica', 'Avant Garde', sans-serif; text-anchor: middle" x="134.214713" y="161.524822" transform="rotate(-0 134.214713 161.524822)">2500</text>
     </g>
    </g>
    <g id="xtick_5">
     <g id="line2d_9">
      <path d="M 164.844826 146.538197 
L 164.844826 21.037 
" clip-path="url(#pf54317473d)" style="fill: none; stroke: #b0b0b0; stroke-width: 0.6; stroke-linecap: square"/>
     </g>
     <g id="line2d_10">
      <g>
       <use xlink:href="#mc471835ab5" x="164.844826" y="146.538197" style="stroke: #000000"/>
      </g>
     </g>
     <g id="text_5">
      <text style="font: 8.8px 'DejaVu Sans', 'Bitstream Vera Sans', 'Computer Modern Sans Serif', 'Lucida Grande', 'Verdana', 'Geneva', 'Lucid', 'Arial', 'Helvetica', 'Avant Garde', sans-serif; text-anchor: middle" x="164.844826" y="161.524822" transform="rotate(-0 164.844826 161.524822)">3000</text>
     </g>
    </g>
    <g id="xtick_6">
     <g id="line2d_11">
      <path d="M 36.198352 146.538197 
L 36.198352 21.037 
" clip-path="url(#pf54317473d)" style="fill: none; stroke: #b0b0b0; stroke-width: 0.3; stroke-linecap: square"/>
     </g>
     <g id="line2d_12">
      <defs>
       <path id="m2e724e8527" d="M 0 0 
L 0 3.2 
" style="stroke: #000000; stroke-width: 0.8"/>
      </defs>
      <g>
       <use xlink:href="#m2e724e8527" x="36.198352" y="146.538197" style="stroke: #000000; stroke-width: 0.8"/>
      </g>
     </g>
    </g>
    <g id="xtick_7">
     <g id="line2d_13">
      <path d="M 48.450397 146.538197 
L 48.450397 21.037 
" clip-path="url(#pf54317473d)" style="fill: none; stroke: #b0b0b0; stroke-width: 0.3; stroke-linecap: square"/>
     </g>
     <g id="line2d_14">
      <g>
       <use xlink:href="#m2e724e8527" x="48.450397" y="146.538197" style="stroke: #000000; stroke-width: 0.8"/>
      </g>
     </g>
    </g>
    <g id="xtick_8">
     <g id="line2d_15">
      <path d="M 54.57642 146.538197 
L 54.57642 21.037 
" clip-path="url(#pf54317473d)" style="fill: none; stroke: #b0b0b0; stroke-width: 0.3; stroke-linecap: square"/>
     </g>
     <g id="line2d_16">
      <g>
       <use xlink:href="#m2e724e8527" x="54.57642" y="146.538197" style="stroke: #000000; stroke-width: 0.8"/>
      </g>
     </g>
    </g>
    <g id="xtick_9">
     <g id="line2d_17">
      <path d="M 60.702442 146.538197 
L 60.702442 21.037 
" clip-path="url(#pf54317473d)" style="fill: none; stroke: #b0b0b0; stroke-width: 0.3; stroke-linecap: square"/>
     </g>
     <g id="line2d_18">
      <g>
       <use xlink:href="#m2e724e8527" x="60.702442" y="146.538197" style="stroke: #000000; stroke-width: 0.8"/>
      </g>
     </g>
    </g>
    <g id="xtick_10">
     <g id="line2d_19">
      <path d="M 66.828465 146.538197 
L 66.828465 21.037 
" clip-path="url(#pf54317473d)" style="fill: none; stroke: #b0b0b0; stroke-width: 0.3; stroke-linecap: square"/>
     </g>
     <g id="line2d_20">
      <g>
       <use xlink:href="#m2e724e8527" x="66.828465" y="146.538197" style="stroke: #000000; stroke-width: 0.8"/>
      </g>
     </g>
    </g>
    <g id="xtick_11">
     <g id="line2d_21">
      <path d="M 79.08051 146.538197 
L 79.08051 21.037 
" clip-path="url(#pf54317473d)" style="fill: none; stroke: #b0b0b0; stroke-width: 0.3; stroke-linecap: square"/>
     </g>
     <g id="line2d_22">
      <g>
       <use xlink:href="#m2e724e8527" x="79.08051" y="146.538197" style="stroke: #000000; stroke-width: 0.8"/>
      </g>
     </g>
    </g>
    <g id="xtick_12">
     <g id="line2d_23">
      <path d="M 85.206533 146.538197 
L 85.206533 21.037 
" clip-path="url(#pf54317473d)" style="fill: none; stroke: #b0b0b0; stroke-width: 0.3; stroke-linecap: square"/>
     </g>
     <g id="line2d_24">
      <g>
       <use xlink:href="#m2e724e8527" x="85.206533" y="146.538197" style="stroke: #000000; stroke-width: 0.8"/>
      </g>
     </g>
    </g>
    <g id="xtick_13">
     <g id="line2d_25">
      <path d="M 91.332555 146.538197 
L 91.332555 21.037 
" clip-path="url(#pf54317473d)" style="fill: none; stroke: #b0b0b0; stroke-width: 0.3; stroke-linecap: square"/>
     </g>
     <g id="line2d_26">
      <g>
       <use xlink:href="#m2e724e8527" x="91.332555" y="146.538197" style="stroke: #000000; stroke-width: 0.8"/>
      </g>
     </g>
    </g>
    <g id="xtick_14">
     <g id="line2d_27">
      <path d="M 97.458578 146.538197 
L 97.458578 21.037 
" clip-path="url(#pf54317473d)" style="fill: none; stroke: #b0b0b0; stroke-width: 0.3; stroke-linecap: square"/>
     </g>
     <g id="line2d_28">
      <g>
       <use xlink:href="#m2e724e8527" x="97.458578" y="146.538197" style="stroke: #000000; stroke-width: 0.8"/>
      </g>
     </g>
    </g>
    <g id="xtick_15">
     <g id="line2d_29">
      <path d="M 109.710623 146.538197 
L 109.710623 21.037 
" clip-path="url(#pf54317473d)" style="fill: none; stroke: #b0b0b0; stroke-width: 0.3; stroke-linecap: square"/>
     </g>
     <g id="line2d_30">
      <g>
       <use xlink:href="#m2e724e8527" x="109.710623" y="146.538197" style="stroke: #000000; stroke-width: 0.8"/>
      </g>
     </g>
    </g>
    <g id="xtick_16">
     <g id="line2d_31">
      <path d="M 115.836646 146.538197 
L 115.836646 21.037 
" clip-path="url(#pf54317473d)" style="fill: none; stroke: #b0b0b0; stroke-width: 0.3; stroke-linecap: square"/>
     </g>
     <g id="line2d_32">
      <g>
       <use xlink:href="#m2e724e8527" x="115.836646" y="146.538197" style="stroke: #000000; stroke-width: 0.8"/>
      </g>
     </g>
    </g>
    <g id="xtick_17">
     <g id="line2d_33">
      <path d="M 121.962668 146.538197 
L 121.962668 21.037 
" clip-path="url(#pf54317473d)" style="fill: none; stroke: #b0b0b0; stroke-width: 0.3; stroke-linecap: square"/>
     </g>
     <g id="line2d_34">
      <g>
       <use xlink:href="#m2e724e8527" x="121.962668" y="146.538197" style="stroke: #000000; stroke-width: 0.8"/>
      </g>
     </g>
    </g>
    <g id="xtick_18">
     <g id="line2d_35">
      <path d="M 128.088691 146.538197 
L 128.088691 21.037 
" clip-path="url(#pf54317473d)" style="fill: none; stroke: #b0b0b0; stroke-width: 0.3; stroke-linecap: square"/>
     </g>
     <g id="line2d_36">
      <g>
       <use xlink:href="#m2e724e8527" x="128.088691" y="146.538197" style="stroke: #000000; stroke-width: 0.8"/>
      </g>
     </g>
    </g>
    <g id="xtick_19">
     <g id="line2d_37">
      <path d="M 140.340736 146.538197 
L 140.340736 21.037 
" clip-path="url(#pf54317473d)" style="fill: none; stroke: #b0b0b0; stroke-width: 0.3; stroke-linecap: square"/>
     </g>
     <g id="line2d_38">
      <g>
       <use xlink:href="#m2e724e8527" x="140.340736" y="146.538197" style="stroke: #000000; stroke-width: 0.8"/>
      </g>
     </g>
    </g>
    <g id="xtick_20">
     <g id="line2d_39">
      <path d="M 146.466758 146.538197 
L 146.466758 21.037 
" clip-path="url(#pf54317473d)" style="fill: none; stroke: #b0b0b0; stroke-width: 0.3; stroke-linecap: square"/>
     </g>
     <g id="line2d_40">
      <g>
       <use xlink:href="#m2e724e8527" x="146.466758" y="146.538197" style="stroke: #000000; stroke-width: 0.8"/>
      </g>
     </g>
    </g>
    <g id="xtick_21">
     <g id="line2d_41">
      <path d="M 152.592781 146.538197 
L 152.592781 21.037 
" clip-path="url(#pf54317473d)" style="fill: none; stroke: #b0b0b0; stroke-width: 0.3; stroke-linecap: square"/>
     </g>
     <g id="line2d_42">
      <g>
       <use xlink:href="#m2e724e8527" x="152.592781" y="146.538197" style="stroke: #000000; stroke-width: 0.8"/>
      </g>
     </g>
    </g>
    <g id="xtick_22">
     <g id="line2d_43">
      <path d="M 158.718803 146.538197 
L 158.718803 21.037 
" clip-path="url(#pf54317473d)" style="fill: none; stroke: #b0b0b0; stroke-width: 0.3; stroke-linecap: square"/>
     </g>
     <g id="line2d_44">
      <g>
       <use xlink:href="#m2e724e8527" x="158.718803" y="146.538197" style="stroke: #000000; stroke-width: 0.8"/>
      </g>
     </g>
    </g>
    <g id="xtick_23">
     <g id="line2d_45">
      <path d="M 170.970849 146.538197 
L 170.970849 21.037 
" clip-path="url(#pf54317473d)" style="fill: none; stroke: #b0b0b0; stroke-width: 0.3; stroke-linecap: square"/>
     </g>
     <g id="line2d_46">
      <g>
       <use xlink:href="#m2e724e8527" x="170.970849" y="146.538197" style="stroke: #000000; stroke-width: 0.8"/>
      </g>
     </g>
    </g>
    <g id="text_6">
     <text style="font: 9.6px 'DejaVu Sans', 'Bitstream Vera Sans', 'Computer Modern Sans Serif', 'Lucida Grande', 'Verdana', 'Geneva', 'Lucid', 'Arial', 'Helvetica', 'Avant Garde', sans-serif; text-anchor: middle" x="103.5846" y="174.649447" transform="rotate(-0 103.5846 174.649447)">Wavelength (nm)</text>
    </g>
   </g>
   <g id="matplotlib.axis_2">
    <g id="ytick_1">
     <g id="line2d_47">
      <path d="M 35.58575 117.394617 
L 171.583451 117.394617 
" clip-path="url(#pf54317473d)" style="fill: none; stroke: #b0b0b0; stroke-width: 0.6; stroke-linecap: square"/>
     </g>
     <g id="line2d_48">
      <defs>
       <path id="m392cf05ccc" d="M 0 0 
L -4.8 0 
" style="stroke: #000000"/>
      </defs>
      <g>
       <use xlink:href="#m392cf05ccc" x="35.58575" y="117.394617" style="stroke: #000000"/>
      </g>
     </g>
     <g id="text_7">
      <text style="font: 8.8px 'DejaVu Sans', 'Bitstream Vera Sans', 'Computer Modern Sans Serif', 'Lucida Grande', 'Verdana', 'Geneva', 'Lucid', 'Arial', 'Helvetica', 'Avant Garde', sans-serif; text-anchor: end" x="27.28575" y="120.737929" transform="rotate(-0 27.28575 120.737929)">0.2</text>
     </g>
    </g>
    <g id="ytick_2">
     <g id="line2d_49">
      <path d="M 35.58575 83.853586 
L 171.583451 83.853586 
" clip-path="url(#pf54317473d)" style="fill: none; stroke: #b0b0b0; stroke-width: 0.6; stroke-linecap: square"/>
     </g>
     <g id="line2d_50">
      <g>
       <use xlink:href="#m392cf05ccc" x="35.58575" y="83.853586" style="stroke: #000000"/>
      </g>
     </g>
     <g id="text_8">
      <text style="font: 8.8px 'DejaVu Sans', 'Bitstream Vera Sans', 'Computer Modern Sans Serif', 'Lucida Grande', 'Verdana', 'Geneva', 'Lucid', 'Arial', 'Helvetica', 'Avant Garde', sans-serif; text-anchor: end" x="27.28575" y="87.196899" transform="rotate(-0 27.28575 87.196899)">0.4</text>
     </g>
    </g>
    <g id="ytick_3">
     <g id="line2d_51">
      <path d="M 35.58575 50.312556 
L 171.583451 50.312556 
" clip-path="url(#pf54317473d)" style="fill: none; stroke: #b0b0b0; stroke-width: 0.6; stroke-linecap: square"/>
     </g>
     <g id="line2d_52">
      <g>
       <use xlink:href="#m392cf05ccc" x="35.58575" y="50.312556" style="stroke: #000000"/>
      </g>
     </g>
     <g id="text_9">
      <text style="font: 8.8px 'DejaVu Sans', 'Bitstream Vera Sans', 'Computer Modern Sans Serif', 'Lucida Grande', 'Verdana', 'Geneva', 'Lucid', 'Arial', 'Helvetica', 'Avant Garde', sans-serif; text-anchor: end" x="27.28575" y="53.655868" transform="rotate(-0 27.28575 53.655868)">0.6</text>
     </g>
    </g>
    <g id="text_10">
     <text style="font: 9.6px 'DejaVu Sans', 'Bitstream Vera Sans', 'Computer Modern Sans Serif', 'Lucida Grande', 'Verdana', 'Geneva', 'Lucid', 'Arial', 'Helvetica', 'Avant Garde', sans-serif; text-anchor: middle" x="7.2945" y="83.787598" transform="rotate(-90 7.2945 83.787598)">Reflectance</text>
    </g>
   </g>
   <g id="line2d_53">
    <path d="M 36.755263 27.747529 
L 38.161534 27.614176 
L 39.312075 27.589192 
L 41.683176 27.486571 
L 43.213882 27.569225 
L 51.467091 27.138837 
L 53.968466 27.045184 
L 58.079965 26.980105 
L 59.240988 27.304137 
L 60.024711 27.583998 
L 61.215051 27.579687 
L 62.423336 27.503462 
L 64.062765 27.596586 
L 67.011655 28.25647 
L 67.873279 28.672184 
L 69.622526 29.959065 
L 70.065318 30.549094 
L 70.510324 31.538788 
L 70.957555 33.219791 
L 71.407022 35.432454 
L 71.858736 35.976072 
L 72.768952 31.528654 
L 73.227476 30.1648 
L 73.688293 29.390008 
L 74.151414 28.86198 
L 75.084613 28.28553 
L 77.458748 27.717729 
L 79.892832 27.603898 
L 82.895002 27.587731 
L 84.946944 27.650591 
L 86.51299 27.739194 
L 88.102645 27.913756 
L 91.354208 27.999858 
L 92.459866 28.268118 
L 95.272747 29.293097 
L 96.417688 30.284392 
L 96.994456 30.59376 
L 98.156657 31.462807 
L 98.74212 31.666332 
L 99.33051 31.744298 
L 99.921841 31.692944 
L 104.760187 30.358215 
L 106.62492 29.992196 
L 107.883667 29.966973 
L 109.155032 30.158094 
L 111.736128 31.107732 
L 113.046114 31.89689 
L 113.706024 32.466329 
L 114.369234 33.212075 
L 115.035759 34.199194 
L 115.705617 35.720388 
L 116.378824 38.182725 
L 117.735354 44.095862 
L 118.41871 44.832065 
L 119.105483 44.071181 
L 119.795689 44.033547 
L 121.186473 46.997431 
L 121.887085 47.633199 
L 122.591199 49.179227 
L 123.298835 55.279287 
L 124.010008 64.375435 
L 124.724737 70.873802 
L 125.44304 73.650435 
L 126.164935 72.270047 
L 127.61957 66.443203 
L 129.088788 58.66701 
L 129.828911 55.436611 
L 130.572735 53.464519 
L 131.320278 53.291957 
L 132.826596 55.752188 
L 133.585408 56.368941 
L 134.348014 57.217072 
L 135.114434 58.901083 
L 135.884685 61.1387 
L 136.658788 62.355688 
L 137.436761 62.841887 
L 139.004397 64.300895 
L 140.587747 64.571549 
L 141.385365 64.457023 
L 142.186972 63.855574 
L 142.992586 63.587423 
L 143.802228 64.469077 
L 144.615918 66.284846 
L 145.433677 68.533946 
L 146.255525 71.204576 
L 147.081482 74.645135 
L 147.911568 79.161571 
L 150.426814 95.848594 
L 151.273627 100.40625 
L 152.124675 103.823201 
L 152.979977 106.480625 
L 153.839556 109.732676 
L 154.703433 115.147981 
L 155.57163 122.444506 
L 156.444167 127.794559 
L 157.321067 128.822142 
L 158.202352 125.888494 
L 159.978162 116.532955 
L 160.872733 113.777896 
L 161.771775 112.801025 
L 162.675314 112.155061 
L 163.583369 111.205556 
L 164.495966 110.01859 
L 167.261223 105.36834 
L 168.192208 104.379941 
L 168.192208 104.379941 
" clip-path="url(#pf54317473d)" style="fill: none; stroke: #1f77b4; stroke-width: 0.5; stroke-linecap: square"/>
   </g>
   <g id="line2d_54"/>
   <g id="line2d_55">
    <path d="M 36.198352 27.702716 
L 36.688434 27.784793 
L 38.158679 27.548364 
L 38.464981 27.664583 
L 39.628925 27.523807 
L 41.344211 27.381864 
L 41.650512 27.425563 
L 42.814457 27.590889 
L 43.917141 27.421104 
L 44.529743 27.343453 
L 44.897304 27.354925 
L 45.264866 27.299183 
L 45.877468 27.270373 
L 46.183769 27.251656 
L 46.673851 27.225728 
L 47.408974 27.159217 
L 48.144096 27.196078 
L 48.756698 27.09093 
L 50.900806 27.072648 
L 51.390888 27.086334 
L 51.697189 27.102232 
L 52.309792 27.099579 
L 53.167435 27.038135 
L 53.841297 26.978701 
L 55.372803 27.024981 
L 55.679104 26.996438 
L 56.046665 26.972628 
L 56.230446 26.906016 
L 56.598007 26.816562 
L 56.965569 26.758873 
L 57.21061 26.782551 
L 57.700691 26.801666 
L 58.252033 26.814551 
L 59.232197 27.163409 
L 60.08984 27.71798 
L 60.702442 27.582134 
L 61.376305 27.524173 
L 61.743866 27.363781 
L 62.84655 27.409403 
L 63.397892 27.330543 
L 63.642933 27.459039 
L 63.826714 27.497276 
L 64.194275 27.330642 
L 64.439316 27.433947 
L 64.745617 27.774993 
L 65.41948 27.577372 
L 65.603261 27.412252 
L 65.909562 28.144949 
L 65.970822 28.093766 
L 66.522164 27.555635 
L 66.583424 27.630331 
L 67.134766 28.199287 
L 67.563588 28.229747 
L 68.482491 28.843748 
L 68.727532 29.138872 
L 68.972573 29.666541 
L 69.033833 29.627869 
L 69.646435 29.361153 
L 70.565339 30.970016 
L 70.87164 32.256378 
L 71.177941 35.180114 
L 71.606763 41.662456 
L 71.729283 42.911389 
L 72.096844 38.820056 
L 72.525666 31.989763 
L 72.770707 30.374428 
L 73.138268 29.38339 
L 73.444569 29.055561 
L 73.750871 28.727228 
L 74.302213 28.153674 
L 75.221116 27.786031 
L 75.527417 27.974563 
L 75.772458 27.92311 
L 76.140019 27.643046 
L 76.568841 27.566604 
L 77.058923 27.494021 
L 78.345387 27.390649 
L 78.774209 27.227776 
L 79.203031 27.622958 
L 79.509332 27.532328 
L 79.999414 27.275567 
L 80.795796 27.424257 
L 81.163358 27.38213 
L 81.898481 27.292172 
L 82.266042 27.291028 
L 82.511083 27.217374 
L 83.246206 27.488925 
L 85.941655 27.421172 
L 88.147024 27.729383 
L 89.617269 27.66703 
L 90.658693 27.56691 
L 91.148775 27.59649 
L 92.006418 27.736996 
L 92.74154 28.053622 
L 93.109102 28.189195 
L 93.782964 28.429385 
L 94.150526 28.703482 
L 94.518087 28.599767 
L 95.31447 28.751207 
L 95.620771 28.371359 
L 96.049593 30.337161 
L 96.233373 30.69457 
L 96.294634 30.616789 
L 96.723455 30.218023 
L 96.907236 30.207391 
L 97.519838 30.765716 
L 97.94866 31.775906 
L 98.13244 31.934791 
L 98.745043 31.846504 
L 99.296385 32.002508 
L 100.154028 31.757626 
L 101.624273 30.787317 
L 102.788217 30.46009 
L 103.278299 30.379796 
L 105.973749 29.474254 
L 106.463831 29.32516 
L 108.301638 29.159332 
L 109.526842 29.391905 
L 110.139445 29.712931 
L 110.568266 29.870234 
L 110.935827 29.962543 
L 112.161032 30.129576 
L 113.815058 31.086 
L 115.530344 32.74846 
L 116.142947 34.746331 
L 116.694289 38.794 
L 117.858233 48.097911 
L 117.980753 48.851845 
L 118.042014 48.767523 
L 118.287055 48.430234 
L 119.267218 41.640993 
L 119.634779 40.859217 
L 119.81856 40.802672 
L 120.186122 42.204747 
L 121.043765 47.466429 
L 121.411326 47.258276 
L 121.717627 46.483676 
L 122.023928 44.716098 
L 122.51401 40.754905 
L 122.57527 40.371664 
L 122.636531 40.616044 
L 122.881571 41.593566 
L 123.310393 50.366356 
L 124.229296 75.384006 
L 124.596858 78.539948 
L 125.08694 81.876342 
L 125.454501 84.761206 
L 125.638282 85.327211 
L 126.067103 80.029171 
L 126.618445 71.858241 
L 126.863486 70.816189 
L 126.924746 70.917785 
L 127.353568 71.447129 
L 127.476088 71.529105 
L 127.84365 68.949729 
L 128.517512 61.40924 
L 130.049018 51.275651 
L 130.845401 48.329944 
L 131.274222 49.599243 
L 132.928248 56.253878 
L 132.989509 56.328808 
L 133.602111 54.692012 
L 134.030933 54.926524 
L 134.643535 55.785645 
L 135.133617 56.994432 
L 136.17504 64.134655 
L 136.358821 64.408763 
L 136.726382 63.340936 
L 137.032684 62.053009 
L 137.400245 62.145094 
L 137.522765 62.34687 
L 137.706546 62.712654 
L 137.829066 62.666575 
L 137.890327 62.804166 
L 138.012847 63.617293 
L 138.074107 63.589142 
L 138.135368 63.341127 
L 138.196628 63.418246 
L 138.502929 64.455774 
L 138.564189 64.39546 
L 138.68671 64.902313 
L 138.74797 65.242443 
L 138.80923 65.010263 
L 138.993011 65.550039 
L 139.176791 65.219974 
L 139.666873 64.047651 
L 139.728133 63.983524 
L 139.789394 64.056799 
L 139.911914 64.054907 
L 140.034435 64.453807 
L 140.156955 63.608419 
L 140.218215 63.667167 
L 140.401996 64.241203 
L 140.585777 64.400917 
L 140.769557 64.636044 
L 140.830818 64.589129 
L 141.014598 64.810414 
L 141.320899 64.715846 
L 141.38216 64.798253 
L 141.56594 64.17181 
L 141.6272 64.327449 
L 141.810981 63.576351 
L 141.994762 62.617668 
L 142.117282 62.05336 
L 142.178543 62.295413 
L 142.301063 61.586904 
L 142.362323 61.078829 
L 142.423583 61.343881 
L 142.484844 61.355349 
L 143.097446 59.890236 
L 143.158706 59.992225 
L 143.403747 60.122567 
L 144.20013 62.503252 
L 144.383911 63.706261 
L 144.445171 63.617998 
L 144.506431 63.36534 
L 144.567691 63.387225 
L 144.690212 64.335048 
L 144.751472 64.042727 
L 144.812732 64.00787 
L 145.302814 65.74612 
L 145.364074 65.849534 
L 145.547855 66.55227 
L 145.670375 66.824906 
L 146.89558 70.600508 
L 148.427086 81.083968 
L 149.223468 88.35783 
L 150.632454 99.769174 
L 151.796398 106.112591 
L 152.28648 107.061694 
L 152.531521 107.000287 
L 152.899082 107.529561 
L 153.266643 107.399044 
L 153.756725 108.321434 
L 154.246807 110.379804 
L 154.675629 114.14482 
L 155.04319 119.712335 
L 155.962093 135.823093 
L 156.329655 138.652419 
L 156.574696 139.660707 
L 156.819736 140.66564 
L 157.003517 140.573357 
L 157.187298 140.833597 
L 157.248558 140.713632 
L 157.371078 140.036321 
L 158.167461 133.055871 
L 159.821487 116.549676 
L 160.311569 113.49718 
L 160.740391 112.111917 
L 160.924172 111.99545 
L 161.230473 112.148546 
L 161.414253 112.450787 
L 161.843075 113.49774 
L 162.149376 113.876459 
L 162.333157 113.894902 
L 162.516937 113.692308 
L 163.374581 112.328347 
L 163.558361 112.350907 
L 163.803402 112.205034 
L 164.109703 111.693641 
L 164.232224 111.663856 
L 164.967346 110.276565 
L 165.641209 108.680045 
L 166.253811 106.547537 
L 166.743893 105.537459 
L 167.479016 104.516615 
L 167.724057 104.417316 
L 167.907837 104.28877 
L 168.336659 103.75952 
L 168.5817 103.676803 
L 168.949261 103.257831 
L 169.255562 102.959521 
L 169.378083 102.857788 
L 169.684384 102.852193 
L 169.806904 102.847428 
L 169.929425 102.850599 
L 170.235726 102.639839 
L 170.787068 102.725562 
L 170.909588 102.536141 
L 170.909588 102.536141 
" clip-path="url(#pf54317473d)" style="fill: none; stroke: #1f77b4; stroke-opacity: 0.5; stroke-width: 0.5; stroke-linecap: square"/>
   </g>
   <g id="patch_3">
    <path d="M 35.58575 146.538197 
L 35.58575 21.037 
" style="fill: none; stroke: #000000; stroke-linejoin: miter; stroke-linecap: square"/>
   </g>
   <g id="patch_4">
    <path d="M 171.583451 146.538197 
L 171.583451 21.037 
" style="fill: none; stroke: #000000; stroke-linejoin: miter; stroke-linecap: square"/>
   </g>
   <g id="patch_5">
    <path d="M 35.58575 146.538197 
L 171.583451 146.538197 
" style="fill: none; stroke: #000000; stroke-linejoin: miter; stroke-linecap: square"/>
   </g>
   <g id="patch_6">
    <path d="M 35.58575 21.037 
L 171.583451 21.037 
" style="fill: none; stroke: #000000; stroke-linejoin: miter; stroke-linecap: square"/>
   </g>
   <g id="text_11">
    <text style="font: 8px 'DejaVu Sans', 'Bitstream Vera Sans', 'Computer Modern Sans Serif', 'Lucida Grande', 'Verdana', 'Geneva', 'Lucid', 'Arial', 'Helvetica', 'Avant Garde', sans-serif" transform="translate(54.2246 6.07875)">enfys Hydrated silicates </text>
    <text style="font: 8px 'DejaVu Sans', 'Bitstream Vera Sans', 'Computer Modern Sans Serif', 'Lucida Grande', 'Verdana', 'Geneva', 'Lucid', 'Arial', 'Helvetica', 'Avant Garde', sans-serif" transform="translate(50.248975 15.037)"> &amp; halides Zeolite-prehnite</text>
   </g>
   <g id="legend_1">
    <g id="patch_7">
     <path d="M 178.503405 89.091036 
L 270.596842 89.091036 
Q 271.796842 89.091036 271.796842 87.891036 
L 271.796842 79.684161 
Q 271.796842 78.484161 270.596842 78.484161 
L 178.503405 78.484161 
Q 177.303405 78.484161 177.303405 79.684161 
L 177.303405 87.891036 
Q 177.303405 89.091036 178.503405 89.091036 
z
" style="fill: #ffffff; opacity: 0.8; stroke: #cccccc; stroke-width: 0.8; stroke-linejoin: miter"/>
    </g>
    <g id="line2d_56">
     <path d="M 179.703405 83.343223 
L 185.703405 83.343223 
L 191.703405 83.343223 
" style="fill: none; stroke: #1f77b4; stroke-width: 1.2; stroke-linecap: square"/>
    </g>
    <g id="text_12">
     <text style="font: 6px 'DejaVu Sans', 'Bitstream Vera Sans', 'Computer Modern Sans Serif', 'Lucida Grande', 'Verdana', 'Geneva', 'Lucid', 'Arial', 'Helvetica', 'Avant Garde', sans-serif; text-anchor: start" x="196.503405" y="85.443223" transform="rotate(-0 196.503405 85.443223)">Zeolite-Prehnite LAZE03</text>
    </g>
   </g>
  </g>
 </g>
 <defs>
  <clipPath id="pf54317473d">
   <rect x="35.58575" y="21.037" width="135.997701" height="125.501197"/>
  </clipPath>
 </defs>
</svg>
