<?xml version="1.0" encoding="utf-8" standalone="no"?>
<!DOCTYPE svg PUBLIC "-//W3C//DTD SVG 1.1//EN"
  "http://www.w3.org/Graphics/SVG/1.1/DTD/svg11.dtd">
<svg xmlns:xlink="http://www.w3.org/1999/xlink" width="272.405767pt" height="176.645947pt" viewBox="0 0 272.405767 176.645947" xmlns="http://www.w3.org/2000/svg" version="1.1">
 <metadata>
  <rdf:RDF xmlns:dc="http://purl.org/dc/elements/1.1/" xmlns:cc="http://creativecommons.org/ns#" xmlns:rdf="http://www.w3.org/1999/02/22-rdf-syntax-ns#">
   <cc:Work>
    <dc:type rdf:resource="http://purl.org/dc/dcmitype/StillImage"/>
    <dc:date>2025-02-12T16:36:04.516226</dc:date>
    <dc:format>image/svg+xml</dc:format>
    <dc:creator>
     <cc:Agent>
      <dc:title>Matplotlib v3.6.2, https://matplotlib.org/</dc:title>
     </cc:Agent>
    </dc:creator>
   </cc:Work>
  </rdf:RDF>
 </metadata>
 <defs>
  <style type="text/css">*{stroke-linejoin: round; stroke-linecap: butt}</style>
 </defs>
 <g id="figure_1">
  <g id="patch_1">
   <path d="M -0 176.645947 
L 272.405767 176.645947 
L 272.405767 0 
L -0 0 
z
" style="fill: #ffffff"/>
  </g>
  <g id="axes_1">
   <g id="patch_2">
    <path d="M 35.58575 146.538197 
L 199.123451 146.538197 
L 199.123451 21.037 
L 35.58575 21.037 
z
" style="fill: #ffffff"/>
   </g>
   <g id="matplotlib.axis_1">
    <g id="xtick_1">
     <g id="line2d_1">
      <path d="M 43.688969 146.538197 
L 43.688969 21.037 
" clip-path="url(#p9897740ce6)" style="fill: none; stroke: #b0b0b0; stroke-width: 0.6; stroke-linecap: square"/>
     </g>
     <g id="line2d_2">
      <defs>
       <path id="m7fd3c436cc" d="M 0 0 
L 0 4.8 
" style="stroke: #000000"/>
      </defs>
      <g>
       <use xlink:href="#m7fd3c436cc" x="43.688969" y="146.538197" style="stroke: #000000"/>
      </g>
     </g>
     <g id="text_1">
      <text style="font: 8.8px 'DejaVu Sans', 'Bitstream Vera Sans', 'Computer Modern Sans Serif', 'Lucida Grande', 'Verdana', 'Geneva', 'Lucid', 'Arial', 'Helvetica', 'Avant Garde', sans-serif; text-anchor: middle" x="43.688969" y="161.524822" transform="rotate(-0 43.688969 161.524822)">1000</text>
     </g>
    </g>
    <g id="xtick_2">
     <g id="line2d_3">
      <path d="M 80.521785 146.538197 
L 80.521785 21.037 
" clip-path="url(#p9897740ce6)" style="fill: none; stroke: #b0b0b0; stroke-width: 0.6; stroke-linecap: square"/>
     </g>
     <g id="line2d_4">
      <g>
       <use xlink:href="#m7fd3c436cc" x="80.521785" y="146.538197" style="stroke: #000000"/>
      </g>
     </g>
     <g id="text_2">
      <text style="font: 8.8px 'DejaVu Sans', 'Bitstream Vera Sans', 'Computer Modern Sans Serif', 'Lucida Grande', 'Verdana', 'Geneva', 'Lucid', 'Arial', 'Helvetica', 'Avant Garde', sans-serif; text-anchor: middle" x="80.521785" y="161.524822" transform="rotate(-0 80.521785 161.524822)">1500</text>
     </g>
    </g>
    <g id="xtick_3">
     <g id="line2d_5">
      <path d="M 117.3546 146.538197 
L 117.3546 21.037 
" clip-path="url(#p9897740ce6)" style="fill: none; stroke: #b0b0b0; stroke-width: 0.6; stroke-linecap: square"/>
     </g>
     <g id="line2d_6">
      <g>
       <use xlink:href="#m7fd3c436cc" x="117.3546" y="146.538197" style="stroke: #000000"/>
      </g>
     </g>
     <g id="text_3">
      <text style="font: 8.8px 'DejaVu Sans', 'Bitstream Vera Sans', 'Computer Modern Sans Serif', 'Lucida Grande', 'Verdana', 'Geneva', 'Lucid', 'Arial', 'Helvetica', 'Avant Garde', sans-serif; text-anchor: middle" x="117.3546" y="161.524822" transform="rotate(-0 117.3546 161.524822)">2000</text>
     </g>
    </g>
    <g id="xtick_4">
     <g id="line2d_7">
      <path d="M 154.187416 146.538197 
L 154.187416 21.037 
" clip-path="url(#p9897740ce6)" style="fill: none; stroke: #b0b0b0; stroke-width: 0.6; stroke-linecap: square"/>
     </g>
     <g id="line2d_8">
      <g>
       <use xlink:href="#m7fd3c436cc" x="154.187416" y="146.538197" style="stroke: #000000"/>
      </g>
     </g>
     <g id="text_4">
      <text style="font: 8.8px 'DejaVu Sans', 'Bitstream Vera Sans', 'Computer Modern Sans Serif', 'Lucida Grande', 'Verdana', 'Geneva', 'Lucid', 'Arial', 'Helvetica', 'Avant Garde', sans-serif; text-anchor: middle" x="154.187416" y="161.524822" transform="rotate(-0 154.187416 161.524822)">2500</text>
     </g>
    </g>
    <g id="xtick_5">
     <g id="line2d_9">
      <path d="M 191.020231 146.538197 
L 191.020231 21.037 
" clip-path="url(#p9897740ce6)" style="fill: none; stroke: #b0b0b0; stroke-width: 0.6; stroke-linecap: square"/>
     </g>
     <g id="line2d_10">
      <g>
       <use xlink:href="#m7fd3c436cc" x="191.020231" y="146.538197" style="stroke: #000000"/>
      </g>
     </g>
     <g id="text_5">
      <text style="font: 8.8px 'DejaVu Sans', 'Bitstream Vera Sans', 'Computer Modern Sans Serif', 'Lucida Grande', 'Verdana', 'Geneva', 'Lucid', 'Arial', 'Helvetica', 'Avant Garde', sans-serif; text-anchor: middle" x="191.020231" y="161.524822" transform="rotate(-0 191.020231 161.524822)">3000</text>
     </g>
    </g>
    <g id="xtick_6">
     <g id="line2d_11">
      <path d="M 36.322406 146.538197 
L 36.322406 21.037 
" clip-path="url(#p9897740ce6)" style="fill: none; stroke: #b0b0b0; stroke-width: 0.3; stroke-linecap: square"/>
     </g>
     <g id="line2d_12">
      <defs>
       <path id="m1d2091c44f" d="M 0 0 
L 0 3.2 
" style="stroke: #000000; stroke-width: 0.8"/>
      </defs>
      <g>
       <use xlink:href="#m1d2091c44f" x="36.322406" y="146.538197" style="stroke: #000000; stroke-width: 0.8"/>
      </g>
     </g>
    </g>
    <g id="xtick_7">
     <g id="line2d_13">
      <path d="M 51.055533 146.538197 
L 51.055533 21.037 
" clip-path="url(#p9897740ce6)" style="fill: none; stroke: #b0b0b0; stroke-width: 0.3; stroke-linecap: square"/>
     </g>
     <g id="line2d_14">
      <g>
       <use xlink:href="#m1d2091c44f" x="51.055533" y="146.538197" style="stroke: #000000; stroke-width: 0.8"/>
      </g>
     </g>
    </g>
    <g id="xtick_8">
     <g id="line2d_15">
      <path d="M 58.422096 146.538197 
L 58.422096 21.037 
" clip-path="url(#p9897740ce6)" style="fill: none; stroke: #b0b0b0; stroke-width: 0.3; stroke-linecap: square"/>
     </g>
     <g id="line2d_16">
      <g>
       <use xlink:href="#m1d2091c44f" x="58.422096" y="146.538197" style="stroke: #000000; stroke-width: 0.8"/>
      </g>
     </g>
    </g>
    <g id="xtick_9">
     <g id="line2d_17">
      <path d="M 65.788659 146.538197 
L 65.788659 21.037 
" clip-path="url(#p9897740ce6)" style="fill: none; stroke: #b0b0b0; stroke-width: 0.3; stroke-linecap: square"/>
     </g>
     <g id="line2d_18">
      <g>
       <use xlink:href="#m1d2091c44f" x="65.788659" y="146.538197" style="stroke: #000000; stroke-width: 0.8"/>
      </g>
     </g>
    </g>
    <g id="xtick_10">
     <g id="line2d_19">
      <path d="M 73.155222 146.538197 
L 73.155222 21.037 
" clip-path="url(#p9897740ce6)" style="fill: none; stroke: #b0b0b0; stroke-width: 0.3; stroke-linecap: square"/>
     </g>
     <g id="line2d_20">
      <g>
       <use xlink:href="#m1d2091c44f" x="73.155222" y="146.538197" style="stroke: #000000; stroke-width: 0.8"/>
      </g>
     </g>
    </g>
    <g id="xtick_11">
     <g id="line2d_21">
      <path d="M 87.888348 146.538197 
L 87.888348 21.037 
" clip-path="url(#p9897740ce6)" style="fill: none; stroke: #b0b0b0; stroke-width: 0.3; stroke-linecap: square"/>
     </g>
     <g id="line2d_22">
      <g>
       <use xlink:href="#m1d2091c44f" x="87.888348" y="146.538197" style="stroke: #000000; stroke-width: 0.8"/>
      </g>
     </g>
    </g>
    <g id="xtick_12">
     <g id="line2d_23">
      <path d="M 95.254911 146.538197 
L 95.254911 21.037 
" clip-path="url(#p9897740ce6)" style="fill: none; stroke: #b0b0b0; stroke-width: 0.3; stroke-linecap: square"/>
     </g>
     <g id="line2d_24">
      <g>
       <use xlink:href="#m1d2091c44f" x="95.254911" y="146.538197" style="stroke: #000000; stroke-width: 0.8"/>
      </g>
     </g>
    </g>
    <g id="xtick_13">
     <g id="line2d_25">
      <path d="M 102.621474 146.538197 
L 102.621474 21.037 
" clip-path="url(#p9897740ce6)" style="fill: none; stroke: #b0b0b0; stroke-width: 0.3; stroke-linecap: square"/>
     </g>
     <g id="line2d_26">
      <g>
       <use xlink:href="#m1d2091c44f" x="102.621474" y="146.538197" style="stroke: #000000; stroke-width: 0.8"/>
      </g>
     </g>
    </g>
    <g id="xtick_14">
     <g id="line2d_27">
      <path d="M 109.988037 146.538197 
L 109.988037 21.037 
" clip-path="url(#p9897740ce6)" style="fill: none; stroke: #b0b0b0; stroke-width: 0.3; stroke-linecap: square"/>
     </g>
     <g id="line2d_28">
      <g>
       <use xlink:href="#m1d2091c44f" x="109.988037" y="146.538197" style="stroke: #000000; stroke-width: 0.8"/>
      </g>
     </g>
    </g>
    <g id="xtick_15">
     <g id="line2d_29">
      <path d="M 124.721163 146.538197 
L 124.721163 21.037 
" clip-path="url(#p9897740ce6)" style="fill: none; stroke: #b0b0b0; stroke-width: 0.3; stroke-linecap: square"/>
     </g>
     <g id="line2d_30">
      <g>
       <use xlink:href="#m1d2091c44f" x="124.721163" y="146.538197" style="stroke: #000000; stroke-width: 0.8"/>
      </g>
     </g>
    </g>
    <g id="xtick_16">
     <g id="line2d_31">
      <path d="M 132.087727 146.538197 
L 132.087727 21.037 
" clip-path="url(#p9897740ce6)" style="fill: none; stroke: #b0b0b0; stroke-width: 0.3; stroke-linecap: square"/>
     </g>
     <g id="line2d_32">
      <g>
       <use xlink:href="#m1d2091c44f" x="132.087727" y="146.538197" style="stroke: #000000; stroke-width: 0.8"/>
      </g>
     </g>
    </g>
    <g id="xtick_17">
     <g id="line2d_33">
      <path d="M 139.45429 146.538197 
L 139.45429 21.037 
" clip-path="url(#p9897740ce6)" style="fill: none; stroke: #b0b0b0; stroke-width: 0.3; stroke-linecap: square"/>
     </g>
     <g id="line2d_34">
      <g>
       <use xlink:href="#m1d2091c44f" x="139.45429" y="146.538197" style="stroke: #000000; stroke-width: 0.8"/>
      </g>
     </g>
    </g>
    <g id="xtick_18">
     <g id="line2d_35">
      <path d="M 146.820853 146.538197 
L 146.820853 21.037 
" clip-path="url(#p9897740ce6)" style="fill: none; stroke: #b0b0b0; stroke-width: 0.3; stroke-linecap: square"/>
     </g>
     <g id="line2d_36">
      <g>
       <use xlink:href="#m1d2091c44f" x="146.820853" y="146.538197" style="stroke: #000000; stroke-width: 0.8"/>
      </g>
     </g>
    </g>
    <g id="xtick_19">
     <g id="line2d_37">
      <path d="M 161.553979 146.538197 
L 161.553979 21.037 
" clip-path="url(#p9897740ce6)" style="fill: none; stroke: #b0b0b0; stroke-width: 0.3; stroke-linecap: square"/>
     </g>
     <g id="line2d_38">
      <g>
       <use xlink:href="#m1d2091c44f" x="161.553979" y="146.538197" style="stroke: #000000; stroke-width: 0.8"/>
      </g>
     </g>
    </g>
    <g id="xtick_20">
     <g id="line2d_39">
      <path d="M 168.920542 146.538197 
L 168.920542 21.037 
" clip-path="url(#p9897740ce6)" style="fill: none; stroke: #b0b0b0; stroke-width: 0.3; stroke-linecap: square"/>
     </g>
     <g id="line2d_40">
      <g>
       <use xlink:href="#m1d2091c44f" x="168.920542" y="146.538197" style="stroke: #000000; stroke-width: 0.8"/>
      </g>
     </g>
    </g>
    <g id="xtick_21">
     <g id="line2d_41">
      <path d="M 176.287105 146.538197 
L 176.287105 21.037 
" clip-path="url(#p9897740ce6)" style="fill: none; stroke: #b0b0b0; stroke-width: 0.3; stroke-linecap: square"/>
     </g>
     <g id="line2d_42">
      <g>
       <use xlink:href="#m1d2091c44f" x="176.287105" y="146.538197" style="stroke: #000000; stroke-width: 0.8"/>
      </g>
     </g>
    </g>
    <g id="xtick_22">
     <g id="line2d_43">
      <path d="M 183.653668 146.538197 
L 183.653668 21.037 
" clip-path="url(#p9897740ce6)" style="fill: none; stroke: #b0b0b0; stroke-width: 0.3; stroke-linecap: square"/>
     </g>
     <g id="line2d_44">
      <g>
       <use xlink:href="#m1d2091c44f" x="183.653668" y="146.538197" style="stroke: #000000; stroke-width: 0.8"/>
      </g>
     </g>
    </g>
    <g id="xtick_23">
     <g id="line2d_45">
      <path d="M 198.386794 146.538197 
L 198.386794 21.037 
" clip-path="url(#p9897740ce6)" style="fill: none; stroke: #b0b0b0; stroke-width: 0.3; stroke-linecap: square"/>
     </g>
     <g id="line2d_46">
      <g>
       <use xlink:href="#m1d2091c44f" x="198.386794" y="146.538197" style="stroke: #000000; stroke-width: 0.8"/>
      </g>
     </g>
    </g>
    <g id="text_6">
     <text style="font: 9.6px 'DejaVu Sans', 'Bitstream Vera Sans', 'Computer Modern Sans Serif', 'Lucida Grande', 'Verdana', 'Geneva', 'Lucid', 'Arial', 'Helvetica', 'Avant Garde', sans-serif; text-anchor: middle" x="117.3546" y="174.649447" transform="rotate(-0 117.3546 174.649447)">Wavelength (nm)</text>
    </g>
   </g>
   <g id="matplotlib.axis_2">
    <g id="ytick_1">
     <g id="line2d_47">
      <path d="M 35.58575 126.829387 
L 199.123451 126.829387 
" clip-path="url(#p9897740ce6)" style="fill: none; stroke: #b0b0b0; stroke-width: 0.6; stroke-linecap: square"/>
     </g>
     <g id="line2d_48">
      <defs>
       <path id="mcc36bb52e7" d="M 0 0 
L -4.8 0 
" style="stroke: #000000"/>
      </defs>
      <g>
       <use xlink:href="#mcc36bb52e7" x="35.58575" y="126.829387" style="stroke: #000000"/>
      </g>
     </g>
     <g id="text_7">
      <text style="font: 8.8px 'DejaVu Sans', 'Bitstream Vera Sans', 'Computer Modern Sans Serif', 'Lucida Grande', 'Verdana', 'Geneva', 'Lucid', 'Arial', 'Helvetica', 'Avant Garde', sans-serif; text-anchor: end" x="27.28575" y="130.1727" transform="rotate(-0 27.28575 130.1727)">0.2</text>
     </g>
    </g>
    <g id="ytick_2">
     <g id="line2d_49">
      <path d="M 35.58575 105.732959 
L 199.123451 105.732959 
" clip-path="url(#p9897740ce6)" style="fill: none; stroke: #b0b0b0; stroke-width: 0.6; stroke-linecap: square"/>
     </g>
     <g id="line2d_50">
      <g>
       <use xlink:href="#mcc36bb52e7" x="35.58575" y="105.732959" style="stroke: #000000"/>
      </g>
     </g>
     <g id="text_8">
      <text style="font: 8.8px 'DejaVu Sans', 'Bitstream Vera Sans', 'Computer Modern Sans Serif', 'Lucida Grande', 'Verdana', 'Geneva', 'Lucid', 'Arial', 'Helvetica', 'Avant Garde', sans-serif; text-anchor: end" x="27.28575" y="109.076272" transform="rotate(-0 27.28575 109.076272)">0.3</text>
     </g>
    </g>
    <g id="ytick_3">
     <g id="line2d_51">
      <path d="M 35.58575 84.636531 
L 199.123451 84.636531 
" clip-path="url(#p9897740ce6)" style="fill: none; stroke: #b0b0b0; stroke-width: 0.6; stroke-linecap: square"/>
     </g>
     <g id="line2d_52">
      <g>
       <use xlink:href="#mcc36bb52e7" x="35.58575" y="84.636531" style="stroke: #000000"/>
      </g>
     </g>
     <g id="text_9">
      <text style="font: 8.8px 'DejaVu Sans', 'Bitstream Vera Sans', 'Computer Modern Sans Serif', 'Lucida Grande', 'Verdana', 'Geneva', 'Lucid', 'Arial', 'Helvetica', 'Avant Garde', sans-serif; text-anchor: end" x="27.28575" y="87.979843" transform="rotate(-0 27.28575 87.979843)">0.4</text>
     </g>
    </g>
    <g id="ytick_4">
     <g id="line2d_53">
      <path d="M 35.58575 63.540102 
L 199.123451 63.540102 
" clip-path="url(#p9897740ce6)" style="fill: none; stroke: #b0b0b0; stroke-width: 0.6; stroke-linecap: square"/>
     </g>
     <g id="line2d_54">
      <g>
       <use xlink:href="#mcc36bb52e7" x="35.58575" y="63.540102" style="stroke: #000000"/>
      </g>
     </g>
     <g id="text_10">
      <text style="font: 8.8px 'DejaVu Sans', 'Bitstream Vera Sans', 'Computer Modern Sans Serif', 'Lucida Grande', 'Verdana', 'Geneva', 'Lucid', 'Arial', 'Helvetica', 'Avant Garde', sans-serif; text-anchor: end" x="27.28575" y="66.883415" transform="rotate(-0 27.28575 66.883415)">0.5</text>
     </g>
    </g>
    <g id="ytick_5">
     <g id="line2d_55">
      <path d="M 35.58575 42.443674 
L 199.123451 42.443674 
" clip-path="url(#p9897740ce6)" style="fill: none; stroke: #b0b0b0; stroke-width: 0.6; stroke-linecap: square"/>
     </g>
     <g id="line2d_56">
      <g>
       <use xlink:href="#mcc36bb52e7" x="35.58575" y="42.443674" style="stroke: #000000"/>
      </g>
     </g>
     <g id="text_11">
      <text style="font: 8.8px 'DejaVu Sans', 'Bitstream Vera Sans', 'Computer Modern Sans Serif', 'Lucida Grande', 'Verdana', 'Geneva', 'Lucid', 'Arial', 'Helvetica', 'Avant Garde', sans-serif; text-anchor: end" x="27.28575" y="45.786987" transform="rotate(-0 27.28575 45.786987)">0.6</text>
     </g>
    </g>
    <g id="ytick_6">
     <g id="line2d_57">
      <path d="M 35.58575 21.347246 
L 199.123451 21.347246 
" clip-path="url(#p9897740ce6)" style="fill: none; stroke: #b0b0b0; stroke-width: 0.6; stroke-linecap: square"/>
     </g>
     <g id="line2d_58">
      <g>
       <use xlink:href="#mcc36bb52e7" x="35.58575" y="21.347246" style="stroke: #000000"/>
      </g>
     </g>
     <g id="text_12">
      <text style="font: 8.8px 'DejaVu Sans', 'Bitstream Vera Sans', 'Computer Modern Sans Serif', 'Lucida Grande', 'Verdana', 'Geneva', 'Lucid', 'Arial', 'Helvetica', 'Avant Garde', sans-serif; text-anchor: end" x="27.28575" y="24.690558" transform="rotate(-0 27.28575 24.690558)">0.7</text>
     </g>
    </g>
    <g id="text_13">
     <text style="font: 9.6px 'DejaVu Sans', 'Bitstream Vera Sans', 'Computer Modern Sans Serif', 'Lucida Grande', 'Verdana', 'Geneva', 'Lucid', 'Arial', 'Helvetica', 'Avant Garde', sans-serif; text-anchor: middle" x="7.2945" y="83.787598" transform="rotate(-90 7.2945 83.787598)">Reflectance</text>
    </g>
   </g>
   <g id="line2d_59">
    <path d="M 36.992094 115.316364 
L 37.663456 115.888921 
L 38.683139 116.92834 
L 42.19441 119.66258 
L 44.01682 120.410311 
L 44.758605 120.573033 
L 46.645764 120.204581 
L 47.413904 119.843253 
L 48.580576 118.918731 
L 49.764836 117.545264 
L 50.564245 116.299611 
L 51.778409 113.793314 
L 54.261925 108.028585 
L 56.389054 102.327359 
L 59.904747 91.963486 
L 60.805808 89.773712 
L 62.174366 87.170866 
L 63.09818 85.749641 
L 64.501294 84.250794 
L 65.925561 83.119939 
L 69.33291 81.286057 
L 70.830014 80.246005 
L 72.349687 79.557106 
L 74.411614 78.165466 
L 76.51509 77.306812 
L 78.120467 76.933287 
L 78.660952 76.967954 
L 79.750044 77.337124 
L 80.298678 77.751943 
L 81.961092 79.661431 
L 83.083268 81.004335 
L 83.648568 81.141028 
L 84.216694 80.3619 
L 87.685604 72.012475 
L 88.865168 69.8398 
L 92.475287 64.043589 
L 93.702868 62.387073 
L 96.825931 56.89458 
L 98.737496 53.599862 
L 101.98769 49.084977 
L 102.647511 48.605838 
L 103.310632 48.701669 
L 104.646837 49.873828 
L 105.319955 49.369688 
L 106.676303 45.861974 
L 107.359568 44.64328 
L 108.736364 42.873723 
L 110.126962 40.248652 
L 110.82748 39.331012 
L 111.531501 38.99348 
L 112.239042 39.254322 
L 112.95012 40.00172 
L 113.664754 40.108618 
L 114.382961 38.577921 
L 115.104759 36.223382 
L 115.830166 34.428851 
L 116.559201 33.405239 
L 118.028223 32.157379 
L 120.259415 30.705904 
L 121.765531 29.732241 
L 122.524242 29.431198 
L 124.053064 29.370279 
L 125.597212 29.533107 
L 126.375081 29.75224 
L 127.15684 30.143471 
L 127.942507 30.948367 
L 128.732103 32.382112 
L 129.525647 34.320259 
L 131.124658 39.359009 
L 131.930164 42.603476 
L 132.739699 46.868363 
L 133.55328 52.933923 
L 134.37093 61.963458 
L 135.192668 73.457681 
L 136.018515 82.678068 
L 136.848491 85.922768 
L 137.682616 87.553133 
L 138.520913 92.260751 
L 139.363401 100.193718 
L 140.210101 109.468775 
L 141.061035 117.014175 
L 141.916223 120.298968 
L 142.775688 117.168222 
L 143.639449 106.916781 
L 145.379951 78.749017 
L 146.256734 68.348435 
L 147.137901 61.136295 
L 148.023474 56.560701 
L 148.913474 54.152706 
L 149.807925 53.373691 
L 150.706848 53.881502 
L 151.610266 55.331006 
L 152.5182 57.603183 
L 154.347711 62.882577 
L 155.269333 65.215677 
L 156.195563 67.156676 
L 156.195563 67.156676 
" clip-path="url(#p9897740ce6)" style="fill: none; stroke: #1f77b4; stroke-width: 0.5; stroke-linecap: square"/>
   </g>
   <g id="line2d_60"/>
   <g id="line2d_61">
    <path d="M 36.322406 114.684161 
L 36.985397 115.19743 
L 37.427391 115.490485 
L 38.532375 116.988772 
L 40.30035 118.413025 
L 40.447682 118.486424 
L 41.037007 119.141352 
L 41.405335 119.475759 
L 41.626332 119.772808 
L 41.920994 120.122875 
L 42.362988 120.191777 
L 43.099644 120.557491 
L 43.394307 120.57225 
L 44.572957 121.371717 
L 45.014951 121.1837 
L 45.309613 121.114699 
L 45.972604 121.185116 
L 46.414598 120.992899 
L 46.782926 120.953673 
L 48.256239 120.13632 
L 50.171545 117.922637 
L 50.613539 117.162007 
L 50.981867 116.429762 
L 51.865854 114.297764 
L 54.738814 107.408754 
L 55.47547 105.242584 
L 56.212127 103.372053 
L 57.832771 97.739204 
L 58.34843 96.164943 
L 58.937755 94.458767 
L 59.379749 93.109772 
L 59.821743 91.900213 
L 60.779396 89.2909 
L 61.589718 87.73833 
L 63.136696 85.099406 
L 64.978337 83.493903 
L 65.199334 83.219747 
L 65.567662 82.862917 
L 66.009656 82.681958 
L 66.304318 82.606514 
L 66.672646 82.567327 
L 67.409303 82.124461 
L 67.777631 81.780493 
L 68.440621 81.62788 
L 68.882615 81.550273 
L 69.766603 80.861074 
L 70.355928 80.286513 
L 70.871587 79.920404 
L 71.092584 79.850402 
L 71.460912 79.915832 
L 71.755575 79.998589 
L 72.197569 79.706585 
L 72.639562 79.322618 
L 73.155222 78.97841 
L 73.818212 78.059975 
L 73.965544 77.994242 
L 74.554869 77.975254 
L 74.775866 77.851002 
L 75.217859 77.636111 
L 75.807185 77.400848 
L 76.249178 77.114106 
L 77.796157 76.710629 
L 78.385482 76.500499 
L 78.827475 76.734653 
L 79.195804 76.981631 
L 79.490466 76.991878 
L 79.785129 76.824859 
L 81.553104 79.581898 
L 81.847766 80.074399 
L 82.805419 81.986189 
L 83.46841 84.067642 
L 83.542076 83.983472 
L 83.910404 83.445808 
L 84.352398 82.012645 
L 85.531048 77.450654 
L 86.34137 75.314216 
L 87.814682 71.733436 
L 88.919667 69.652761 
L 92.75028 63.580459 
L 93.339605 63.017134 
L 93.707933 62.753902 
L 93.92893 62.527919 
L 94.149927 62.255949 
L 94.960249 59.267998 
L 95.328577 58.45466 
L 95.917902 58.134555 
L 96.212564 57.803273 
L 96.654558 57.075896 
L 97.46488 55.356071 
L 98.717196 52.849659 
L 99.15919 52.416225 
L 99.380186 52.218052 
L 100.190508 51.156428 
L 100.558837 50.883319 
L 101.148162 50.078385 
L 101.811152 47.691561 
L 101.958484 47.475278 
L 102.400477 47.281973 
L 102.989802 46.74173 
L 103.800124 48.511707 
L 104.610446 51.452124 
L 105.199771 52.19293 
L 106.820415 43.984032 
L 107.704403 43.421008 
L 108.441059 43.028871 
L 108.883053 42.695095 
L 110.430031 37.744114 
L 111.240353 37.179041 
L 111.829678 37.118087 
L 112.566334 38.296854 
L 113.302991 42.596914 
L 113.376656 42.534195 
L 114.039647 41.969738 
L 115.144631 34.27938 
L 115.586625 32.16234 
L 116.470613 31.608395 
L 117.133604 31.09018 
L 117.722929 31.096497 
L 118.459585 29.705612 
L 119.196241 30.789567 
L 120.006563 29.0382 
L 120.816885 28.662918 
L 121.774538 27.64901 
L 122.216532 27.173975 
L 124.500167 27.278001 
L 125.163157 26.796653 
L 125.899814 27.24196 
L 126.710136 26.80533 
L 128.036117 26.943458 
L 129.067436 29.506161 
L 129.583095 30.604695 
L 130.467083 33.867795 
L 131.424736 36.252389 
L 131.86673 37.756761 
L 133.340042 44.809942 
L 134.003033 51.416463 
L 134.739689 64.863514 
L 135.623677 89.06486 
L 136.139336 98.625003 
L 137.391652 85.943866 
L 137.612649 84.007643 
L 138.422971 89.591503 
L 139.233293 100.250573 
L 140.853937 129.366185 
L 141.516927 136.756883 
L 142.032587 140.833597 
L 142.106252 140.594745 
L 142.769243 138.445017 
L 143.653231 119.970711 
L 145.200209 77.249692 
L 146.010531 64.632934 
L 146.820853 55.733858 
L 148.2205 48.603156 
L 148.367831 48.294813 
L 149.767478 47.412476 
L 151.682784 51.490371 
L 152.861435 56.581439 
L 154.261082 62.344164 
L 156.397385 68.876398 
L 158.460022 70.73071 
L 158.460022 70.73071 
" clip-path="url(#p9897740ce6)" style="fill: none; stroke: #1f77b4; stroke-opacity: 0.5; stroke-width: 0.5; stroke-linecap: square"/>
   </g>
   <g id="patch_3">
    <path d="M 35.58575 146.538197 
L 35.58575 21.037 
" style="fill: none; stroke: #000000; stroke-linejoin: miter; stroke-linecap: square"/>
   </g>
   <g id="patch_4">
    <path d="M 199.123451 146.538197 
L 199.123451 21.037 
" style="fill: none; stroke: #000000; stroke-linejoin: miter; stroke-linecap: square"/>
   </g>
   <g id="patch_5">
    <path d="M 35.58575 146.538197 
L 199.123451 146.538197 
" style="fill: none; stroke: #000000; stroke-linejoin: miter; stroke-linecap: square"/>
   </g>
   <g id="patch_6">
    <path d="M 35.58575 21.037 
L 199.123451 21.037 
" style="fill: none; stroke: #000000; stroke-linejoin: miter; stroke-linecap: square"/>
   </g>
   <g id="text_14">
    <text style="font: 8px 'DejaVu Sans', 'Bitstream Vera Sans', 'Computer Modern Sans Serif', 'Lucida Grande', 'Verdana', 'Geneva', 'Lucid', 'Arial', 'Helvetica', 'Avant Garde', sans-serif" transform="translate(67.9946 6.07875)">enfys Hydrated silicates </text>
    <text style="font: 8px 'DejaVu Sans', 'Bitstream Vera Sans', 'Computer Modern Sans Serif', 'Lucida Grande', 'Verdana', 'Geneva', 'Lucid', 'Arial', 'Helvetica', 'Avant Garde', sans-serif" transform="translate(80.933975 15.037)"> &amp; halides Epidote</text>
   </g>
   <g id="legend_1">
    <g id="patch_7">
     <path d="M 206.594205 89.091036 
L 271.205767 89.091036 
Q 272.405767 89.091036 272.405767 87.891036 
L 272.405767 79.684161 
Q 272.405767 78.484161 271.205767 78.484161 
L 206.594205 78.484161 
Q 205.394205 78.484161 205.394205 79.684161 
L 205.394205 87.891036 
Q 205.394205 89.091036 206.594205 89.091036 
z
" style="fill: #ffffff; opacity: 0.8; stroke: #cccccc; stroke-width: 0.8; stroke-linejoin: miter"/>
    </g>
    <g id="line2d_62">
     <path d="M 207.794205 83.343223 
L 213.794205 83.343223 
L 219.794205 83.343223 
" style="fill: none; stroke: #1f77b4; stroke-width: 1.2; stroke-linecap: square"/>
    </g>
    <g id="text_15">
     <text style="font: 6px 'DejaVu Sans', 'Bitstream Vera Sans', 'Computer Modern Sans Serif', 'Lucida Grande', 'Verdana', 'Geneva', 'Lucid', 'Arial', 'Helvetica', 'Avant Garde', sans-serif; text-anchor: start" x="224.594205" y="85.443223" transform="rotate(-0 224.594205 85.443223)">Epidote GDS26</text>
    </g>
   </g>
  </g>
 </g>
 <defs>
  <clipPath id="p9897740ce6">
   <rect x="35.58575" y="21.037" width="163.537701" height="125.501197"/>
  </clipPath>
 </defs>
</svg>
