<?xml version="1.0" encoding="utf-8" standalone="no"?>
<!DOCTYPE svg PUBLIC "-//W3C//DTD SVG 1.1//EN"
  "http://www.w3.org/Graphics/SVG/1.1/DTD/svg11.dtd">
<svg xmlns:xlink="http://www.w3.org/1999/xlink" width="272.263642pt" height="176.855697pt" viewBox="0 0 272.263642 176.855697" xmlns="http://www.w3.org/2000/svg" version="1.1">
 <metadata>
  <rdf:RDF xmlns:dc="http://purl.org/dc/elements/1.1/" xmlns:cc="http://creativecommons.org/ns#" xmlns:rdf="http://www.w3.org/1999/02/22-rdf-syntax-ns#">
   <cc:Work>
    <dc:type rdf:resource="http://purl.org/dc/dcmitype/StillImage"/>
    <dc:date>2025-02-12T16:36:03.199500</dc:date>
    <dc:format>image/svg+xml</dc:format>
    <dc:creator>
     <cc:Agent>
      <dc:title>Matplotlib v3.6.2, https://matplotlib.org/</dc:title>
     </cc:Agent>
    </dc:creator>
   </cc:Work>
  </rdf:RDF>
 </metadata>
 <defs>
  <style type="text/css">*{stroke-linejoin: round; stroke-linecap: butt}</style>
 </defs>
 <g id="figure_1">
  <g id="patch_1">
   <path d="M -0 176.855697 
L 272.263642 176.855697 
L 272.263642 0 
L -0 0 
z
" style="fill: #ffffff"/>
  </g>
  <g id="axes_1">
   <g id="patch_2">
    <path d="M 35.58575 146.747947 
L 193.423451 146.747947 
L 193.423451 12.07875 
L 35.58575 12.07875 
z
" style="fill: #ffffff"/>
   </g>
   <g id="matplotlib.axis_1">
    <g id="xtick_1">
     <g id="line2d_1">
      <path d="M 43.406537 146.747947 
L 43.406537 12.07875 
" clip-path="url(#pa67b8d06da)" style="fill: none; stroke: #b0b0b0; stroke-width: 0.6; stroke-linecap: square"/>
     </g>
     <g id="line2d_2">
      <defs>
       <path id="m2c4b32298f" d="M 0 0 
L 0 4.8 
" style="stroke: #000000"/>
      </defs>
      <g>
       <use xlink:href="#m2c4b32298f" x="43.406537" y="146.747947" style="stroke: #000000"/>
      </g>
     </g>
     <g id="text_1">
      <text style="font: 8.8px 'DejaVu Sans', 'Bitstream Vera Sans', 'Computer Modern Sans Serif', 'Lucida Grande', 'Verdana', 'Geneva', 'Lucid', 'Arial', 'Helvetica', 'Avant Garde', sans-serif; text-anchor: middle" x="43.406537" y="161.734572" transform="rotate(-0 43.406537 161.734572)">1000</text>
     </g>
    </g>
    <g id="xtick_2">
     <g id="line2d_3">
      <path d="M 78.955569 146.747947 
L 78.955569 12.07875 
" clip-path="url(#pa67b8d06da)" style="fill: none; stroke: #b0b0b0; stroke-width: 0.6; stroke-linecap: square"/>
     </g>
     <g id="line2d_4">
      <g>
       <use xlink:href="#m2c4b32298f" x="78.955569" y="146.747947" style="stroke: #000000"/>
      </g>
     </g>
     <g id="text_2">
      <text style="font: 8.8px 'DejaVu Sans', 'Bitstream Vera Sans', 'Computer Modern Sans Serif', 'Lucida Grande', 'Verdana', 'Geneva', 'Lucid', 'Arial', 'Helvetica', 'Avant Garde', sans-serif; text-anchor: middle" x="78.955569" y="161.734572" transform="rotate(-0 78.955569 161.734572)">1500</text>
     </g>
    </g>
    <g id="xtick_3">
     <g id="line2d_5">
      <path d="M 114.5046 146.747947 
L 114.5046 12.07875 
" clip-path="url(#pa67b8d06da)" style="fill: none; stroke: #b0b0b0; stroke-width: 0.6; stroke-linecap: square"/>
     </g>
     <g id="line2d_6">
      <g>
       <use xlink:href="#m2c4b32298f" x="114.5046" y="146.747947" style="stroke: #000000"/>
      </g>
     </g>
     <g id="text_3">
      <text style="font: 8.8px 'DejaVu Sans', 'Bitstream Vera Sans', 'Computer Modern Sans Serif', 'Lucida Grande', 'Verdana', 'Geneva', 'Lucid', 'Arial', 'Helvetica', 'Avant Garde', sans-serif; text-anchor: middle" x="114.5046" y="161.734572" transform="rotate(-0 114.5046 161.734572)">2000</text>
     </g>
    </g>
    <g id="xtick_4">
     <g id="line2d_7">
      <path d="M 150.053632 146.747947 
L 150.053632 12.07875 
" clip-path="url(#pa67b8d06da)" style="fill: none; stroke: #b0b0b0; stroke-width: 0.6; stroke-linecap: square"/>
     </g>
     <g id="line2d_8">
      <g>
       <use xlink:href="#m2c4b32298f" x="150.053632" y="146.747947" style="stroke: #000000"/>
      </g>
     </g>
     <g id="text_4">
      <text style="font: 8.8px 'DejaVu Sans', 'Bitstream Vera Sans', 'Computer Modern Sans Serif', 'Lucida Grande', 'Verdana', 'Geneva', 'Lucid', 'Arial', 'Helvetica', 'Avant Garde', sans-serif; text-anchor: middle" x="150.053632" y="161.734572" transform="rotate(-0 150.053632 161.734572)">2500</text>
     </g>
    </g>
    <g id="xtick_5">
     <g id="line2d_9">
      <path d="M 185.602664 146.747947 
L 185.602664 12.07875 
" clip-path="url(#pa67b8d06da)" style="fill: none; stroke: #b0b0b0; stroke-width: 0.6; stroke-linecap: square"/>
     </g>
     <g id="line2d_10">
      <g>
       <use xlink:href="#m2c4b32298f" x="185.602664" y="146.747947" style="stroke: #000000"/>
      </g>
     </g>
     <g id="text_5">
      <text style="font: 8.8px 'DejaVu Sans', 'Bitstream Vera Sans', 'Computer Modern Sans Serif', 'Lucida Grande', 'Verdana', 'Geneva', 'Lucid', 'Arial', 'Helvetica', 'Avant Garde', sans-serif; text-anchor: middle" x="185.602664" y="161.734572" transform="rotate(-0 185.602664 161.734572)">3000</text>
     </g>
    </g>
    <g id="xtick_6">
     <g id="line2d_11">
      <path d="M 36.296731 146.747947 
L 36.296731 12.07875 
" clip-path="url(#pa67b8d06da)" style="fill: none; stroke: #b0b0b0; stroke-width: 0.3; stroke-linecap: square"/>
     </g>
     <g id="line2d_12">
      <defs>
       <path id="m8910b8b13e" d="M 0 0 
L 0 3.2 
" style="stroke: #000000; stroke-width: 0.8"/>
      </defs>
      <g>
       <use xlink:href="#m8910b8b13e" x="36.296731" y="146.747947" style="stroke: #000000; stroke-width: 0.8"/>
      </g>
     </g>
    </g>
    <g id="xtick_7">
     <g id="line2d_13">
      <path d="M 50.516343 146.747947 
L 50.516343 12.07875 
" clip-path="url(#pa67b8d06da)" style="fill: none; stroke: #b0b0b0; stroke-width: 0.3; stroke-linecap: square"/>
     </g>
     <g id="line2d_14">
      <g>
       <use xlink:href="#m8910b8b13e" x="50.516343" y="146.747947" style="stroke: #000000; stroke-width: 0.8"/>
      </g>
     </g>
    </g>
    <g id="xtick_8">
     <g id="line2d_15">
      <path d="M 57.62615 146.747947 
L 57.62615 12.07875 
" clip-path="url(#pa67b8d06da)" style="fill: none; stroke: #b0b0b0; stroke-width: 0.3; stroke-linecap: square"/>
     </g>
     <g id="line2d_16">
      <g>
       <use xlink:href="#m8910b8b13e" x="57.62615" y="146.747947" style="stroke: #000000; stroke-width: 0.8"/>
      </g>
     </g>
    </g>
    <g id="xtick_9">
     <g id="line2d_17">
      <path d="M 64.735956 146.747947 
L 64.735956 12.07875 
" clip-path="url(#pa67b8d06da)" style="fill: none; stroke: #b0b0b0; stroke-width: 0.3; stroke-linecap: square"/>
     </g>
     <g id="line2d_18">
      <g>
       <use xlink:href="#m8910b8b13e" x="64.735956" y="146.747947" style="stroke: #000000; stroke-width: 0.8"/>
      </g>
     </g>
    </g>
    <g id="xtick_10">
     <g id="line2d_19">
      <path d="M 71.845762 146.747947 
L 71.845762 12.07875 
" clip-path="url(#pa67b8d06da)" style="fill: none; stroke: #b0b0b0; stroke-width: 0.3; stroke-linecap: square"/>
     </g>
     <g id="line2d_20">
      <g>
       <use xlink:href="#m8910b8b13e" x="71.845762" y="146.747947" style="stroke: #000000; stroke-width: 0.8"/>
      </g>
     </g>
    </g>
    <g id="xtick_11">
     <g id="line2d_21">
      <path d="M 86.065375 146.747947 
L 86.065375 12.07875 
" clip-path="url(#pa67b8d06da)" style="fill: none; stroke: #b0b0b0; stroke-width: 0.3; stroke-linecap: square"/>
     </g>
     <g id="line2d_22">
      <g>
       <use xlink:href="#m8910b8b13e" x="86.065375" y="146.747947" style="stroke: #000000; stroke-width: 0.8"/>
      </g>
     </g>
    </g>
    <g id="xtick_12">
     <g id="line2d_23">
      <path d="M 93.175181 146.747947 
L 93.175181 12.07875 
" clip-path="url(#pa67b8d06da)" style="fill: none; stroke: #b0b0b0; stroke-width: 0.3; stroke-linecap: square"/>
     </g>
     <g id="line2d_24">
      <g>
       <use xlink:href="#m8910b8b13e" x="93.175181" y="146.747947" style="stroke: #000000; stroke-width: 0.8"/>
      </g>
     </g>
    </g>
    <g id="xtick_13">
     <g id="line2d_25">
      <path d="M 100.284988 146.747947 
L 100.284988 12.07875 
" clip-path="url(#pa67b8d06da)" style="fill: none; stroke: #b0b0b0; stroke-width: 0.3; stroke-linecap: square"/>
     </g>
     <g id="line2d_26">
      <g>
       <use xlink:href="#m8910b8b13e" x="100.284988" y="146.747947" style="stroke: #000000; stroke-width: 0.8"/>
      </g>
     </g>
    </g>
    <g id="xtick_14">
     <g id="line2d_27">
      <path d="M 107.394794 146.747947 
L 107.394794 12.07875 
" clip-path="url(#pa67b8d06da)" style="fill: none; stroke: #b0b0b0; stroke-width: 0.3; stroke-linecap: square"/>
     </g>
     <g id="line2d_28">
      <g>
       <use xlink:href="#m8910b8b13e" x="107.394794" y="146.747947" style="stroke: #000000; stroke-width: 0.8"/>
      </g>
     </g>
    </g>
    <g id="xtick_15">
     <g id="line2d_29">
      <path d="M 121.614407 146.747947 
L 121.614407 12.07875 
" clip-path="url(#pa67b8d06da)" style="fill: none; stroke: #b0b0b0; stroke-width: 0.3; stroke-linecap: square"/>
     </g>
     <g id="line2d_30">
      <g>
       <use xlink:href="#m8910b8b13e" x="121.614407" y="146.747947" style="stroke: #000000; stroke-width: 0.8"/>
      </g>
     </g>
    </g>
    <g id="xtick_16">
     <g id="line2d_31">
      <path d="M 128.724213 146.747947 
L 128.724213 12.07875 
" clip-path="url(#pa67b8d06da)" style="fill: none; stroke: #b0b0b0; stroke-width: 0.3; stroke-linecap: square"/>
     </g>
     <g id="line2d_32">
      <g>
       <use xlink:href="#m8910b8b13e" x="128.724213" y="146.747947" style="stroke: #000000; stroke-width: 0.8"/>
      </g>
     </g>
    </g>
    <g id="xtick_17">
     <g id="line2d_33">
      <path d="M 135.834019 146.747947 
L 135.834019 12.07875 
" clip-path="url(#pa67b8d06da)" style="fill: none; stroke: #b0b0b0; stroke-width: 0.3; stroke-linecap: square"/>
     </g>
     <g id="line2d_34">
      <g>
       <use xlink:href="#m8910b8b13e" x="135.834019" y="146.747947" style="stroke: #000000; stroke-width: 0.8"/>
      </g>
     </g>
    </g>
    <g id="xtick_18">
     <g id="line2d_35">
      <path d="M 142.943826 146.747947 
L 142.943826 12.07875 
" clip-path="url(#pa67b8d06da)" style="fill: none; stroke: #b0b0b0; stroke-width: 0.3; stroke-linecap: square"/>
     </g>
     <g id="line2d_36">
      <g>
       <use xlink:href="#m8910b8b13e" x="142.943826" y="146.747947" style="stroke: #000000; stroke-width: 0.8"/>
      </g>
     </g>
    </g>
    <g id="xtick_19">
     <g id="line2d_37">
      <path d="M 157.163438 146.747947 
L 157.163438 12.07875 
" clip-path="url(#pa67b8d06da)" style="fill: none; stroke: #b0b0b0; stroke-width: 0.3; stroke-linecap: square"/>
     </g>
     <g id="line2d_38">
      <g>
       <use xlink:href="#m8910b8b13e" x="157.163438" y="146.747947" style="stroke: #000000; stroke-width: 0.8"/>
      </g>
     </g>
    </g>
    <g id="xtick_20">
     <g id="line2d_39">
      <path d="M 164.273245 146.747947 
L 164.273245 12.07875 
" clip-path="url(#pa67b8d06da)" style="fill: none; stroke: #b0b0b0; stroke-width: 0.3; stroke-linecap: square"/>
     </g>
     <g id="line2d_40">
      <g>
       <use xlink:href="#m8910b8b13e" x="164.273245" y="146.747947" style="stroke: #000000; stroke-width: 0.8"/>
      </g>
     </g>
    </g>
    <g id="xtick_21">
     <g id="line2d_41">
      <path d="M 171.383051 146.747947 
L 171.383051 12.07875 
" clip-path="url(#pa67b8d06da)" style="fill: none; stroke: #b0b0b0; stroke-width: 0.3; stroke-linecap: square"/>
     </g>
     <g id="line2d_42">
      <g>
       <use xlink:href="#m8910b8b13e" x="171.383051" y="146.747947" style="stroke: #000000; stroke-width: 0.8"/>
      </g>
     </g>
    </g>
    <g id="xtick_22">
     <g id="line2d_43">
      <path d="M 178.492857 146.747947 
L 178.492857 12.07875 
" clip-path="url(#pa67b8d06da)" style="fill: none; stroke: #b0b0b0; stroke-width: 0.3; stroke-linecap: square"/>
     </g>
     <g id="line2d_44">
      <g>
       <use xlink:href="#m8910b8b13e" x="178.492857" y="146.747947" style="stroke: #000000; stroke-width: 0.8"/>
      </g>
     </g>
    </g>
    <g id="xtick_23">
     <g id="line2d_45">
      <path d="M 192.71247 146.747947 
L 192.71247 12.07875 
" clip-path="url(#pa67b8d06da)" style="fill: none; stroke: #b0b0b0; stroke-width: 0.3; stroke-linecap: square"/>
     </g>
     <g id="line2d_46">
      <g>
       <use xlink:href="#m8910b8b13e" x="192.71247" y="146.747947" style="stroke: #000000; stroke-width: 0.8"/>
      </g>
     </g>
    </g>
    <g id="text_6">
     <text style="font: 9.6px 'DejaVu Sans', 'Bitstream Vera Sans', 'Computer Modern Sans Serif', 'Lucida Grande', 'Verdana', 'Geneva', 'Lucid', 'Arial', 'Helvetica', 'Avant Garde', sans-serif; text-anchor: middle" x="114.5046" y="174.859197" transform="rotate(-0 114.5046 174.859197)">Wavelength (nm)</text>
    </g>
   </g>
   <g id="matplotlib.axis_2">
    <g id="ytick_1">
     <g id="line2d_47">
      <path d="M 35.58575 143.477807 
L 193.423451 143.477807 
" clip-path="url(#pa67b8d06da)" style="fill: none; stroke: #b0b0b0; stroke-width: 0.6; stroke-linecap: square"/>
     </g>
     <g id="line2d_48">
      <defs>
       <path id="m820c54841b" d="M 0 0 
L -4.8 0 
" style="stroke: #000000"/>
      </defs>
      <g>
       <use xlink:href="#m820c54841b" x="35.58575" y="143.477807" style="stroke: #000000"/>
      </g>
     </g>
     <g id="text_7">
      <text style="font: 8.8px 'DejaVu Sans', 'Bitstream Vera Sans', 'Computer Modern Sans Serif', 'Lucida Grande', 'Verdana', 'Geneva', 'Lucid', 'Arial', 'Helvetica', 'Avant Garde', sans-serif; text-anchor: end" x="27.28575" y="146.821119" transform="rotate(-0 27.28575 146.821119)">0.0</text>
     </g>
    </g>
    <g id="ytick_2">
     <g id="line2d_49">
      <path d="M 35.58575 117.11193 
L 193.423451 117.11193 
" clip-path="url(#pa67b8d06da)" style="fill: none; stroke: #b0b0b0; stroke-width: 0.6; stroke-linecap: square"/>
     </g>
     <g id="line2d_50">
      <g>
       <use xlink:href="#m820c54841b" x="35.58575" y="117.11193" style="stroke: #000000"/>
      </g>
     </g>
     <g id="text_8">
      <text style="font: 8.8px 'DejaVu Sans', 'Bitstream Vera Sans', 'Computer Modern Sans Serif', 'Lucida Grande', 'Verdana', 'Geneva', 'Lucid', 'Arial', 'Helvetica', 'Avant Garde', sans-serif; text-anchor: end" x="27.28575" y="120.455242" transform="rotate(-0 27.28575 120.455242)">0.2</text>
     </g>
    </g>
    <g id="ytick_3">
     <g id="line2d_51">
      <path d="M 35.58575 90.746052 
L 193.423451 90.746052 
" clip-path="url(#pa67b8d06da)" style="fill: none; stroke: #b0b0b0; stroke-width: 0.6; stroke-linecap: square"/>
     </g>
     <g id="line2d_52">
      <g>
       <use xlink:href="#m820c54841b" x="35.58575" y="90.746052" style="stroke: #000000"/>
      </g>
     </g>
     <g id="text_9">
      <text style="font: 8.8px 'DejaVu Sans', 'Bitstream Vera Sans', 'Computer Modern Sans Serif', 'Lucida Grande', 'Verdana', 'Geneva', 'Lucid', 'Arial', 'Helvetica', 'Avant Garde', sans-serif; text-anchor: end" x="27.28575" y="94.089365" transform="rotate(-0 27.28575 94.089365)">0.4</text>
     </g>
    </g>
    <g id="ytick_4">
     <g id="line2d_53">
      <path d="M 35.58575 64.380175 
L 193.423451 64.380175 
" clip-path="url(#pa67b8d06da)" style="fill: none; stroke: #b0b0b0; stroke-width: 0.6; stroke-linecap: square"/>
     </g>
     <g id="line2d_54">
      <g>
       <use xlink:href="#m820c54841b" x="35.58575" y="64.380175" style="stroke: #000000"/>
      </g>
     </g>
     <g id="text_10">
      <text style="font: 8.8px 'DejaVu Sans', 'Bitstream Vera Sans', 'Computer Modern Sans Serif', 'Lucida Grande', 'Verdana', 'Geneva', 'Lucid', 'Arial', 'Helvetica', 'Avant Garde', sans-serif; text-anchor: end" x="27.28575" y="67.723488" transform="rotate(-0 27.28575 67.723488)">0.6</text>
     </g>
    </g>
    <g id="ytick_5">
     <g id="line2d_55">
      <path d="M 35.58575 38.014298 
L 193.423451 38.014298 
" clip-path="url(#pa67b8d06da)" style="fill: none; stroke: #b0b0b0; stroke-width: 0.6; stroke-linecap: square"/>
     </g>
     <g id="line2d_56">
      <g>
       <use xlink:href="#m820c54841b" x="35.58575" y="38.014298" style="stroke: #000000"/>
      </g>
     </g>
     <g id="text_11">
      <text style="font: 8.8px 'DejaVu Sans', 'Bitstream Vera Sans', 'Computer Modern Sans Serif', 'Lucida Grande', 'Verdana', 'Geneva', 'Lucid', 'Arial', 'Helvetica', 'Avant Garde', sans-serif; text-anchor: end" x="27.28575" y="41.357611" transform="rotate(-0 27.28575 41.357611)">0.8</text>
     </g>
    </g>
    <g id="text_12">
     <text style="font: 9.6px 'DejaVu Sans', 'Bitstream Vera Sans', 'Computer Modern Sans Serif', 'Lucida Grande', 'Verdana', 'Geneva', 'Lucid', 'Arial', 'Helvetica', 'Avant Garde', sans-serif; text-anchor: middle" x="7.2945" y="79.413348" transform="rotate(-90 7.2945 79.413348)">Reflectance</text>
    </g>
   </g>
   <g id="line2d_57">
    <path d="M 36.943077 20.485251 
L 39.239505 20.613712 
L 39.910489 20.77824 
L 40.588199 20.951379 
L 40.929598 20.933163 
L 41.617524 20.469528 
L 42.312348 20.145839 
L 44.799543 19.845905 
L 47.75044 19.359296 
L 49.655444 19.263658 
L 50.430848 19.122834 
L 52.005053 18.914382 
L 52.804011 18.858554 
L 57.343624 18.670001 
L 58.625539 18.868701 
L 59.490868 19.261291 
L 60.364871 19.716091 
L 61.247637 19.735701 
L 62.139252 19.757376 
L 63.039805 20.286925 
L 63.949387 21.146323 
L 65.330885 22.899397 
L 67.679818 25.169416 
L 68.156674 26.089174 
L 70.088064 31.579285 
L 71.068304 36.777213 
L 71.562103 38.562139 
L 72.557121 39.383326 
L 73.058364 38.378533 
L 74.068382 29.286787 
L 74.577181 26.792224 
L 75.088525 25.419239 
L 76.118895 23.912404 
L 77.159594 22.985126 
L 78.210727 22.355791 
L 79.272397 21.950845 
L 80.34471 21.506227 
L 83.072761 20.882616 
L 85.304716 20.643667 
L 87.008149 20.587553 
L 88.737261 20.846046 
L 90.492439 21.002403 
L 91.677234 21.22721 
L 94.691444 21.7997 
L 96.536383 22.481477 
L 97.781768 23.139781 
L 100.950126 25.100588 
L 104.198489 26.261719 
L 104.857939 26.757598 
L 105.520686 27.784355 
L 108.204979 32.976133 
L 108.884461 33.598984 
L 109.567341 33.806062 
L 110.943361 33.62121 
L 113.0333 33.053782 
L 114.444066 32.94384 
L 115.868975 33.149032 
L 116.586778 33.406956 
L 118.033168 34.364491 
L 118.761791 35.132206 
L 120.229986 37.313995 
L 121.712899 40.076701 
L 123.210678 43.984317 
L 123.965189 46.711545 
L 124.723473 50.956427 
L 125.485548 56.170345 
L 126.251433 60.194817 
L 127.021148 62.357465 
L 127.794711 63.871372 
L 128.572143 65.656754 
L 129.353461 66.619794 
L 130.138686 62.563997 
L 130.927837 57.662252 
L 131.720934 55.548651 
L 132.517996 54.910265 
L 133.319044 55.183486 
L 134.124097 56.191555 
L 134.933175 57.648025 
L 137.384762 62.836786 
L 139.039652 65.230476 
L 139.873308 66.965452 
L 141.553145 69.825248 
L 142.399369 70.485414 
L 143.249823 70.482326 
L 144.10453 71.092078 
L 144.96351 72.657972 
L 146.694377 76.668416 
L 150.20834 82.862921 
L 154.700535 89.056847 
L 157.450118 93.544854 
L 158.375826 95.395997 
L 159.306163 97.853435 
L 160.241151 101.209788 
L 161.180815 105.6295 
L 162.125177 111.470521 
L 164.028089 125.978995 
L 164.986687 130.710554 
L 165.950078 132.462947 
L 166.918286 132.93729 
L 167.891335 132.456294 
L 168.86925 130.77758 
L 170.839771 123.772016 
L 171.832428 121.020564 
L 172.830048 118.972263 
L 173.832655 117.365597 
L 175.852935 114.785246 
L 176.870658 113.685368 
L 177.893469 112.791641 
L 178.921394 112.122417 
L 179.954458 110.882546 
L 180.992688 108.869347 
L 182.036109 107.203709 
L 183.084747 105.897931 
L 187.331995 101.475277 
L 189.487606 99.620459 
L 189.487606 99.620459 
" clip-path="url(#pa67b8d06da)" style="fill: none; stroke: #1f77b4; stroke-width: 0.5; stroke-linecap: square"/>
   </g>
   <g id="line2d_58"/>
   <g id="line2d_59">
    <path d="M 36.296731 20.428654 
L 37.78979 20.529263 
L 38.074182 20.15656 
L 38.14528 20.233627 
L 38.500771 20.526131 
L 38.927359 20.509835 
L 39.425045 20.576409 
L 39.851634 20.59779 
L 40.207124 21.215809 
L 40.278222 21.170169 
L 40.633713 21.057505 
L 40.989203 21.26854 
L 41.344693 20.840858 
L 41.771282 20.171745 
L 42.482262 19.966567 
L 42.837752 20.12985 
L 43.051047 20.140208 
L 43.406537 19.556998 
L 43.477635 19.635067 
L 43.904223 19.962583 
L 44.544106 19.973579 
L 44.899596 19.652049 
L 45.255087 19.761309 
L 45.681675 19.519957 
L 46.321558 19.461815 
L 46.890342 19.35783 
L 47.388029 19.249943 
L 48.383401 19.146742 
L 48.881088 19.439196 
L 49.52097 19.369324 
L 49.876461 18.871065 
L 50.658539 18.998357 
L 51.01403 18.982958 
L 51.298422 18.969119 
L 51.582814 18.653047 
L 51.653912 18.722441 
L 51.938305 19.000017 
L 52.293795 18.400856 
L 52.364893 18.458649 
L 53.004776 18.869376 
L 53.431364 18.506847 
L 54.142345 18.731772 
L 55.493208 18.374226 
L 55.919796 18.61318 
L 56.986267 18.250911 
L 57.341757 18.419155 
L 57.697248 18.320701 
L 58.33713 18.698 
L 58.692621 18.247404 
L 58.763719 18.330668 
L 59.261405 18.750337 
L 59.474699 18.92095 
L 59.83019 19.37829 
L 60.18568 19.503921 
L 60.470072 19.912808 
L 60.54117 19.853009 
L 60.967759 19.600474 
L 61.252151 19.489208 
L 61.607641 19.138833 
L 62.105328 19.132666 
L 62.318622 19.138071 
L 62.74521 19.536566 
L 63.100701 19.854037 
L 63.385093 19.958602 
L 64.23827 21.140269 
L 64.664858 21.977963 
L 65.304741 22.813394 
L 65.731329 23.051792 
L 65.944623 23.224041 
L 66.726702 23.897876 
L 67.579879 24.290725 
L 68.006467 24.775625 
L 68.361957 25.958661 
L 68.788546 28.135634 
L 69.00184 28.60326 
L 69.072938 28.55994 
L 69.35733 28.386664 
L 69.783919 29.339241 
L 70.139409 31.237341 
L 71.490272 43.601623 
L 72.556743 39.939011 
L 72.912233 54.124116 
L 73.552116 32.681931 
L 73.76541 29.550431 
L 74.263096 25.844999 
L 74.476391 25.007327 
L 74.902979 24.072231 
L 75.116273 23.893787 
L 75.400666 24.062532 
L 76.040548 23.019341 
L 76.253842 22.908368 
L 76.822627 22.724988 
L 77.604705 21.91764 
L 78.102392 21.801971 
L 78.600078 21.608134 
L 78.955569 22.107896 
L 79.453255 21.330944 
L 80.235334 21.004244 
L 80.661922 21.091674 
L 80.804118 21.065494 
L 81.444001 20.723426 
L 81.870589 20.717148 
L 82.368276 20.312644 
L 82.58157 20.320079 
L 82.93706 20.592728 
L 83.434747 20.451668 
L 84.003531 20.260464 
L 84.287923 20.468862 
L 84.643414 19.920846 
L 84.714512 20.010912 
L 85.070002 20.349451 
L 86.420865 20.03211 
L 87.060748 19.967278 
L 87.202944 20.02349 
L 87.629532 20.333132 
L 88.269415 20.458419 
L 88.553807 20.758361 
L 88.909298 20.132963 
L 88.980396 20.224399 
L 89.335886 20.575828 
L 90.260161 20.293236 
L 90.402357 20.295873 
L 90.757847 20.616117 
L 91.042239 21.157144 
L 91.113338 21.081659 
L 91.611024 20.688594 
L 91.824318 20.66518 
L 92.606397 20.987083 
L 92.961887 20.851592 
L 94.454947 21.26192 
L 94.668241 21.369123 
L 95.023731 21.202838 
L 95.450319 21.492386 
L 95.734712 21.563097 
L 96.090202 21.781302 
L 96.374594 21.655586 
L 96.872281 22.125215 
L 97.298869 22.24845 
L 98.00985 22.747794 
L 99.858399 24.456806 
L 100.000595 24.49741 
L 100.284988 24.289012 
L 100.711576 24.791232 
L 101.067066 24.751471 
L 101.422557 25.000602 
L 102.41793 24.856405 
L 102.844518 25.200457 
L 103.342204 25.213084 
L 104.195381 25.431443 
L 104.550872 24.738949 
L 104.62197 24.821737 
L 104.97746 25.346283 
L 106.257225 29.116345 
L 106.470519 29.636147 
L 107.1815 30.873152 
L 107.89248 33.242629 
L 108.105775 34.540857 
L 108.176873 34.502785 
L 108.816755 34.034895 
L 108.887853 34.203927 
L 109.172246 34.880055 
L 109.243344 34.770425 
L 109.74103 34.168414 
L 110.09652 34.012037 
L 110.523109 33.804539 
L 110.807501 33.757869 
L 111.020795 33.679851 
L 111.802874 33.000039 
L 112.087266 32.955348 
L 112.869345 32.417113 
L 113.295933 32.437598 
L 113.509228 32.426921 
L 114.291306 31.986689 
L 115.215581 32.1239 
L 116.495346 32.052946 
L 117.206327 32.511738 
L 117.917307 32.798017 
L 118.486092 33.208852 
L 118.91268 33.748933 
L 119.125975 33.870112 
L 119.694759 35.183315 
L 120.476838 36.15558 
L 120.619034 36.390764 
L 121.187818 37.571749 
L 121.543309 37.962804 
L 121.898799 38.463414 
L 122.040995 38.873431 
L 122.823074 41.743489 
L 123.249662 41.940285 
L 123.391858 41.958637 
L 123.960643 43.705347 
L 124.245035 45.23193 
L 124.742722 49.43431 
L 125.098212 53.819268 
L 125.951389 63.618177 
L 126.306879 65.05567 
L 127.231154 65.344454 
L 127.515546 65.448628 
L 127.72884 65.637302 
L 128.084331 66.383507 
L 128.724213 68.886633 
L 129.2219 76.785451 
L 129.435194 81.500461 
L 129.861782 72.666072 
L 130.359469 58.373978 
L 130.643861 54.787375 
L 130.999351 52.868306 
L 131.212645 52.290496 
L 131.283743 52.40938 
L 131.639234 52.853015 
L 131.994724 52.623286 
L 132.421312 52.159352 
L 132.705705 52.134804 
L 133.274489 52.739328 
L 133.843274 53.591231 
L 134.767548 55.841978 
L 136.473902 60.835811 
L 137.184883 63.155848 
L 137.398177 63.433507 
L 137.895863 63.722981 
L 138.038059 63.700121 
L 138.677942 63.121338 
L 138.74904 63.302129 
L 139.10453 64.365805 
L 139.957707 68.016559 
L 140.099903 68.474798 
L 140.171001 68.41761 
L 140.526492 68.207762 
L 140.810884 68.283378 
L 141.30857 70.047809 
L 141.877355 72.483862 
L 142.232845 72.153888 
L 143.228218 69.125241 
L 143.441512 68.883518 
L 143.725904 68.805712 
L 144.081395 69.078336 
L 144.579081 70.36117 
L 145.645552 74.132331 
L 146.001042 75.639486 
L 146.498729 77.009959 
L 148.205082 79.127851 
L 148.347279 79.471082 
L 149.484848 82.735492 
L 149.76924 82.893581 
L 150.12473 83.215327 
L 150.409122 83.144771 
L 150.906809 84.012892 
L 151.191201 84.244383 
L 151.759986 85.083768 
L 152.044378 85.53038 
L 152.32877 85.871191 
L 152.755359 86.278532 
L 153.181947 86.978922 
L 153.395241 87.160712 
L 153.964026 87.459226 
L 154.319516 87.871592 
L 154.675006 88.656506 
L 154.8883 89.055361 
L 155.172693 89.726066 
L 155.670379 90.462212 
L 155.812575 90.626954 
L 156.025869 90.917568 
L 156.168066 90.929565 
L 156.665752 91.689703 
L 156.879046 92.139914 
L 157.021242 91.926514 
L 157.163438 92.168108 
L 157.590027 92.92616 
L 157.803321 92.996099 
L 158.087713 93.447645 
L 158.301007 93.800568 
L 158.514302 94.183893 
L 158.869792 94.660794 
L 159.580773 96.714663 
L 161.073832 103.131461 
L 161.713715 107.066794 
L 162.424695 113.519556 
L 163.562264 127.19382 
L 164.273245 136.827437 
L 164.699833 139.790189 
L 164.913127 140.326531 
L 165.055323 140.271112 
L 165.268618 139.770386 
L 165.766304 138.396352 
L 165.9085 138.557736 
L 166.335089 139.312158 
L 166.619481 139.212753 
L 167.046069 139.351248 
L 167.188265 139.094018 
L 167.614854 137.620623 
L 167.828148 137.168675 
L 167.970344 137.282017 
L 168.183638 137.951647 
L 168.610227 140.62662 
L 168.681325 140.599695 
L 168.823521 139.538406 
L 169.676698 130.04224 
L 170.103286 128.739825 
L 170.67207 125.267791 
L 171.80964 121.352733 
L 172.591718 119.734429 
L 173.800385 117.833954 
L 174.795758 116.550482 
L 175.435641 115.791242 
L 177.070896 113.799585 
L 178.563956 112.685431 
L 178.848348 112.999845 
L 179.061642 113.635145 
L 179.417132 114.81713 
L 179.48823 114.872368 
L 179.630426 114.610791 
L 179.914819 112.967979 
L 180.483603 109.91868 
L 180.98129 108.503441 
L 181.621172 107.360019 
L 182.189957 106.644602 
L 182.829839 105.878872 
L 184.891683 103.859894 
L 186.669135 101.698967 
L 189.015371 99.439262 
L 189.655253 98.815756 
L 191.717097 97.137182 
L 192.641372 96.488003 
L 192.641372 96.488003 
" clip-path="url(#pa67b8d06da)" style="fill: none; stroke: #1f77b4; stroke-opacity: 0.5; stroke-width: 0.5; stroke-linecap: square"/>
   </g>
   <g id="patch_3">
    <path d="M 35.58575 146.747947 
L 35.58575 12.07875 
" style="fill: none; stroke: #000000; stroke-linejoin: miter; stroke-linecap: square"/>
   </g>
   <g id="patch_4">
    <path d="M 193.423451 146.747947 
L 193.423451 12.07875 
" style="fill: none; stroke: #000000; stroke-linejoin: miter; stroke-linecap: square"/>
   </g>
   <g id="patch_5">
    <path d="M 35.58575 146.747947 
L 193.423451 146.747947 
" style="fill: none; stroke: #000000; stroke-linejoin: miter; stroke-linecap: square"/>
   </g>
   <g id="patch_6">
    <path d="M 35.58575 12.07875 
L 193.423451 12.07875 
" style="fill: none; stroke: #000000; stroke-linejoin: miter; stroke-linecap: square"/>
   </g>
   <g id="text_13">
    <text style="font: 8px 'DejaVu Sans', 'Bitstream Vera Sans', 'Computer Modern Sans Serif', 'Lucida Grande', 'Verdana', 'Geneva', 'Lucid', 'Arial', 'Helvetica', 'Avant Garde', sans-serif; text-anchor: middle" x="114.5046" y="6.07875" transform="rotate(-0 114.5046 6.07875)">enfys Phyllosilicate Kaolinite</text>
   </g>
   <g id="legend_1">
    <g id="patch_7">
     <path d="M 200.780205 84.716786 
L 271.063642 84.716786 
Q 272.263642 84.716786 272.263642 83.516786 
L 272.263642 75.309911 
Q 272.263642 74.109911 271.063642 74.109911 
L 200.780205 74.109911 
Q 199.580205 74.109911 199.580205 75.309911 
L 199.580205 83.516786 
Q 199.580205 84.716786 200.780205 84.716786 
z
" style="fill: #ffffff; opacity: 0.8; stroke: #cccccc; stroke-width: 0.8; stroke-linejoin: miter"/>
    </g>
    <g id="line2d_60">
     <path d="M 201.980205 78.968973 
L 207.980205 78.968973 
L 213.980205 78.968973 
" style="fill: none; stroke: #1f77b4; stroke-width: 1.2; stroke-linecap: square"/>
    </g>
    <g id="text_14">
     <text style="font: 6px 'DejaVu Sans', 'Bitstream Vera Sans', 'Computer Modern Sans Serif', 'Lucida Grande', 'Verdana', 'Geneva', 'Lucid', 'Arial', 'Helvetica', 'Avant Garde', sans-serif; text-anchor: start" x="218.780205" y="81.068973" transform="rotate(-0 218.780205 81.068973)">Kaolinite LAKA04</text>
    </g>
   </g>
  </g>
 </g>
 <defs>
  <clipPath id="pa67b8d06da">
   <rect x="35.58575" y="12.07875" width="157.837701" height="134.669197"/>
  </clipPath>
 </defs>
</svg>
