<?xml version="1.0" encoding="utf-8" standalone="no"?>
<!DOCTYPE svg PUBLIC "-//W3C//DTD SVG 1.1//EN"
  "http://www.w3.org/Graphics/SVG/1.1/DTD/svg11.dtd">
<svg xmlns:xlink="http://www.w3.org/1999/xlink" width="272.511592pt" height="176.855697pt" viewBox="0 0 272.511592 176.855697" xmlns="http://www.w3.org/2000/svg" version="1.1">
 <metadata>
  <rdf:RDF xmlns:dc="http://purl.org/dc/elements/1.1/" xmlns:cc="http://creativecommons.org/ns#" xmlns:rdf="http://www.w3.org/1999/02/22-rdf-syntax-ns#">
   <cc:Work>
    <dc:type rdf:resource="http://purl.org/dc/dcmitype/StillImage"/>
    <dc:date>2025-02-12T16:36:03.076124</dc:date>
    <dc:format>image/svg+xml</dc:format>
    <dc:creator>
     <cc:Agent>
      <dc:title>Matplotlib v3.6.2, https://matplotlib.org/</dc:title>
     </cc:Agent>
    </dc:creator>
   </cc:Work>
  </rdf:RDF>
 </metadata>
 <defs>
  <style type="text/css">*{stroke-linejoin: round; stroke-linecap: butt}</style>
 </defs>
 <g id="figure_1">
  <g id="patch_1">
   <path d="M -0 176.855697 
L 272.511592 176.855697 
L 272.511592 0 
L -0 0 
z
" style="fill: #ffffff"/>
  </g>
  <g id="axes_1">
   <g id="patch_2">
    <path d="M 35.58575 146.747947 
L 209.383451 146.747947 
L 209.383451 12.07875 
L 35.58575 12.07875 
z
" style="fill: #ffffff"/>
   </g>
   <g id="matplotlib.axis_1">
    <g id="xtick_1">
     <g id="line2d_1">
      <path d="M 44.197348 146.747947 
L 44.197348 12.07875 
" clip-path="url(#p78eb6e97ad)" style="fill: none; stroke: #b0b0b0; stroke-width: 0.6; stroke-linecap: square"/>
     </g>
     <g id="line2d_2">
      <defs>
       <path id="m59e30ffdce" d="M 0 0 
L 0 4.8 
" style="stroke: #000000"/>
      </defs>
      <g>
       <use xlink:href="#m59e30ffdce" x="44.197348" y="146.747947" style="stroke: #000000"/>
      </g>
     </g>
     <g id="text_1">
      <text style="font: 8.8px 'DejaVu Sans', 'Bitstream Vera Sans', 'Computer Modern Sans Serif', 'Lucida Grande', 'Verdana', 'Geneva', 'Lucid', 'Arial', 'Helvetica', 'Avant Garde', sans-serif; text-anchor: middle" x="44.197348" y="161.734572" transform="rotate(-0 44.197348 161.734572)">1000</text>
     </g>
    </g>
    <g id="xtick_2">
     <g id="line2d_3">
      <path d="M 83.340974 146.747947 
L 83.340974 12.07875 
" clip-path="url(#p78eb6e97ad)" style="fill: none; stroke: #b0b0b0; stroke-width: 0.6; stroke-linecap: square"/>
     </g>
     <g id="line2d_4">
      <g>
       <use xlink:href="#m59e30ffdce" x="83.340974" y="146.747947" style="stroke: #000000"/>
      </g>
     </g>
     <g id="text_2">
      <text style="font: 8.8px 'DejaVu Sans', 'Bitstream Vera Sans', 'Computer Modern Sans Serif', 'Lucida Grande', 'Verdana', 'Geneva', 'Lucid', 'Arial', 'Helvetica', 'Avant Garde', sans-serif; text-anchor: middle" x="83.340974" y="161.734572" transform="rotate(-0 83.340974 161.734572)">1500</text>
     </g>
    </g>
    <g id="xtick_3">
     <g id="line2d_5">
      <path d="M 122.4846 146.747947 
L 122.4846 12.07875 
" clip-path="url(#p78eb6e97ad)" style="fill: none; stroke: #b0b0b0; stroke-width: 0.6; stroke-linecap: square"/>
     </g>
     <g id="line2d_6">
      <g>
       <use xlink:href="#m59e30ffdce" x="122.4846" y="146.747947" style="stroke: #000000"/>
      </g>
     </g>
     <g id="text_3">
      <text style="font: 8.8px 'DejaVu Sans', 'Bitstream Vera Sans', 'Computer Modern Sans Serif', 'Lucida Grande', 'Verdana', 'Geneva', 'Lucid', 'Arial', 'Helvetica', 'Avant Garde', sans-serif; text-anchor: middle" x="122.4846" y="161.734572" transform="rotate(-0 122.4846 161.734572)">2000</text>
     </g>
    </g>
    <g id="xtick_4">
     <g id="line2d_7">
      <path d="M 161.628227 146.747947 
L 161.628227 12.07875 
" clip-path="url(#p78eb6e97ad)" style="fill: none; stroke: #b0b0b0; stroke-width: 0.6; stroke-linecap: square"/>
     </g>
     <g id="line2d_8">
      <g>
       <use xlink:href="#m59e30ffdce" x="161.628227" y="146.747947" style="stroke: #000000"/>
      </g>
     </g>
     <g id="text_4">
      <text style="font: 8.8px 'DejaVu Sans', 'Bitstream Vera Sans', 'Computer Modern Sans Serif', 'Lucida Grande', 'Verdana', 'Geneva', 'Lucid', 'Arial', 'Helvetica', 'Avant Garde', sans-serif; text-anchor: middle" x="161.628227" y="161.734572" transform="rotate(-0 161.628227 161.734572)">2500</text>
     </g>
    </g>
    <g id="xtick_5">
     <g id="line2d_9">
      <path d="M 200.771853 146.747947 
L 200.771853 12.07875 
" clip-path="url(#p78eb6e97ad)" style="fill: none; stroke: #b0b0b0; stroke-width: 0.6; stroke-linecap: square"/>
     </g>
     <g id="line2d_10">
      <g>
       <use xlink:href="#m59e30ffdce" x="200.771853" y="146.747947" style="stroke: #000000"/>
      </g>
     </g>
     <g id="text_5">
      <text style="font: 8.8px 'DejaVu Sans', 'Bitstream Vera Sans', 'Computer Modern Sans Serif', 'Lucida Grande', 'Verdana', 'Geneva', 'Lucid', 'Arial', 'Helvetica', 'Avant Garde', sans-serif; text-anchor: middle" x="200.771853" y="161.734572" transform="rotate(-0 200.771853 161.734572)">3000</text>
     </g>
    </g>
    <g id="xtick_6">
     <g id="line2d_11">
      <path d="M 36.368623 146.747947 
L 36.368623 12.07875 
" clip-path="url(#p78eb6e97ad)" style="fill: none; stroke: #b0b0b0; stroke-width: 0.3; stroke-linecap: square"/>
     </g>
     <g id="line2d_12">
      <defs>
       <path id="m4ed2fd5dad" d="M 0 0 
L 0 3.2 
" style="stroke: #000000; stroke-width: 0.8"/>
      </defs>
      <g>
       <use xlink:href="#m4ed2fd5dad" x="36.368623" y="146.747947" style="stroke: #000000; stroke-width: 0.8"/>
      </g>
     </g>
    </g>
    <g id="xtick_7">
     <g id="line2d_13">
      <path d="M 52.026073 146.747947 
L 52.026073 12.07875 
" clip-path="url(#p78eb6e97ad)" style="fill: none; stroke: #b0b0b0; stroke-width: 0.3; stroke-linecap: square"/>
     </g>
     <g id="line2d_14">
      <g>
       <use xlink:href="#m4ed2fd5dad" x="52.026073" y="146.747947" style="stroke: #000000; stroke-width: 0.8"/>
      </g>
     </g>
    </g>
    <g id="xtick_8">
     <g id="line2d_15">
      <path d="M 59.854798 146.747947 
L 59.854798 12.07875 
" clip-path="url(#p78eb6e97ad)" style="fill: none; stroke: #b0b0b0; stroke-width: 0.3; stroke-linecap: square"/>
     </g>
     <g id="line2d_16">
      <g>
       <use xlink:href="#m4ed2fd5dad" x="59.854798" y="146.747947" style="stroke: #000000; stroke-width: 0.8"/>
      </g>
     </g>
    </g>
    <g id="xtick_9">
     <g id="line2d_17">
      <path d="M 67.683524 146.747947 
L 67.683524 12.07875 
" clip-path="url(#p78eb6e97ad)" style="fill: none; stroke: #b0b0b0; stroke-width: 0.3; stroke-linecap: square"/>
     </g>
     <g id="line2d_18">
      <g>
       <use xlink:href="#m4ed2fd5dad" x="67.683524" y="146.747947" style="stroke: #000000; stroke-width: 0.8"/>
      </g>
     </g>
    </g>
    <g id="xtick_10">
     <g id="line2d_19">
      <path d="M 75.512249 146.747947 
L 75.512249 12.07875 
" clip-path="url(#p78eb6e97ad)" style="fill: none; stroke: #b0b0b0; stroke-width: 0.3; stroke-linecap: square"/>
     </g>
     <g id="line2d_20">
      <g>
       <use xlink:href="#m4ed2fd5dad" x="75.512249" y="146.747947" style="stroke: #000000; stroke-width: 0.8"/>
      </g>
     </g>
    </g>
    <g id="xtick_11">
     <g id="line2d_21">
      <path d="M 91.169699 146.747947 
L 91.169699 12.07875 
" clip-path="url(#p78eb6e97ad)" style="fill: none; stroke: #b0b0b0; stroke-width: 0.3; stroke-linecap: square"/>
     </g>
     <g id="line2d_22">
      <g>
       <use xlink:href="#m4ed2fd5dad" x="91.169699" y="146.747947" style="stroke: #000000; stroke-width: 0.8"/>
      </g>
     </g>
    </g>
    <g id="xtick_12">
     <g id="line2d_23">
      <path d="M 98.998425 146.747947 
L 98.998425 12.07875 
" clip-path="url(#p78eb6e97ad)" style="fill: none; stroke: #b0b0b0; stroke-width: 0.3; stroke-linecap: square"/>
     </g>
     <g id="line2d_24">
      <g>
       <use xlink:href="#m4ed2fd5dad" x="98.998425" y="146.747947" style="stroke: #000000; stroke-width: 0.8"/>
      </g>
     </g>
    </g>
    <g id="xtick_13">
     <g id="line2d_25">
      <path d="M 106.82715 146.747947 
L 106.82715 12.07875 
" clip-path="url(#p78eb6e97ad)" style="fill: none; stroke: #b0b0b0; stroke-width: 0.3; stroke-linecap: square"/>
     </g>
     <g id="line2d_26">
      <g>
       <use xlink:href="#m4ed2fd5dad" x="106.82715" y="146.747947" style="stroke: #000000; stroke-width: 0.8"/>
      </g>
     </g>
    </g>
    <g id="xtick_14">
     <g id="line2d_27">
      <path d="M 114.655875 146.747947 
L 114.655875 12.07875 
" clip-path="url(#p78eb6e97ad)" style="fill: none; stroke: #b0b0b0; stroke-width: 0.3; stroke-linecap: square"/>
     </g>
     <g id="line2d_28">
      <g>
       <use xlink:href="#m4ed2fd5dad" x="114.655875" y="146.747947" style="stroke: #000000; stroke-width: 0.8"/>
      </g>
     </g>
    </g>
    <g id="xtick_15">
     <g id="line2d_29">
      <path d="M 130.313326 146.747947 
L 130.313326 12.07875 
" clip-path="url(#p78eb6e97ad)" style="fill: none; stroke: #b0b0b0; stroke-width: 0.3; stroke-linecap: square"/>
     </g>
     <g id="line2d_30">
      <g>
       <use xlink:href="#m4ed2fd5dad" x="130.313326" y="146.747947" style="stroke: #000000; stroke-width: 0.8"/>
      </g>
     </g>
    </g>
    <g id="xtick_16">
     <g id="line2d_31">
      <path d="M 138.142051 146.747947 
L 138.142051 12.07875 
" clip-path="url(#p78eb6e97ad)" style="fill: none; stroke: #b0b0b0; stroke-width: 0.3; stroke-linecap: square"/>
     </g>
     <g id="line2d_32">
      <g>
       <use xlink:href="#m4ed2fd5dad" x="138.142051" y="146.747947" style="stroke: #000000; stroke-width: 0.8"/>
      </g>
     </g>
    </g>
    <g id="xtick_17">
     <g id="line2d_33">
      <path d="M 145.970776 146.747947 
L 145.970776 12.07875 
" clip-path="url(#p78eb6e97ad)" style="fill: none; stroke: #b0b0b0; stroke-width: 0.3; stroke-linecap: square"/>
     </g>
     <g id="line2d_34">
      <g>
       <use xlink:href="#m4ed2fd5dad" x="145.970776" y="146.747947" style="stroke: #000000; stroke-width: 0.8"/>
      </g>
     </g>
    </g>
    <g id="xtick_18">
     <g id="line2d_35">
      <path d="M 153.799501 146.747947 
L 153.799501 12.07875 
" clip-path="url(#p78eb6e97ad)" style="fill: none; stroke: #b0b0b0; stroke-width: 0.3; stroke-linecap: square"/>
     </g>
     <g id="line2d_36">
      <g>
       <use xlink:href="#m4ed2fd5dad" x="153.799501" y="146.747947" style="stroke: #000000; stroke-width: 0.8"/>
      </g>
     </g>
    </g>
    <g id="xtick_19">
     <g id="line2d_37">
      <path d="M 169.456952 146.747947 
L 169.456952 12.07875 
" clip-path="url(#p78eb6e97ad)" style="fill: none; stroke: #b0b0b0; stroke-width: 0.3; stroke-linecap: square"/>
     </g>
     <g id="line2d_38">
      <g>
       <use xlink:href="#m4ed2fd5dad" x="169.456952" y="146.747947" style="stroke: #000000; stroke-width: 0.8"/>
      </g>
     </g>
    </g>
    <g id="xtick_20">
     <g id="line2d_39">
      <path d="M 177.285677 146.747947 
L 177.285677 12.07875 
" clip-path="url(#p78eb6e97ad)" style="fill: none; stroke: #b0b0b0; stroke-width: 0.3; stroke-linecap: square"/>
     </g>
     <g id="line2d_40">
      <g>
       <use xlink:href="#m4ed2fd5dad" x="177.285677" y="146.747947" style="stroke: #000000; stroke-width: 0.8"/>
      </g>
     </g>
    </g>
    <g id="xtick_21">
     <g id="line2d_41">
      <path d="M 185.114402 146.747947 
L 185.114402 12.07875 
" clip-path="url(#p78eb6e97ad)" style="fill: none; stroke: #b0b0b0; stroke-width: 0.3; stroke-linecap: square"/>
     </g>
     <g id="line2d_42">
      <g>
       <use xlink:href="#m4ed2fd5dad" x="185.114402" y="146.747947" style="stroke: #000000; stroke-width: 0.8"/>
      </g>
     </g>
    </g>
    <g id="xtick_22">
     <g id="line2d_43">
      <path d="M 192.943128 146.747947 
L 192.943128 12.07875 
" clip-path="url(#p78eb6e97ad)" style="fill: none; stroke: #b0b0b0; stroke-width: 0.3; stroke-linecap: square"/>
     </g>
     <g id="line2d_44">
      <g>
       <use xlink:href="#m4ed2fd5dad" x="192.943128" y="146.747947" style="stroke: #000000; stroke-width: 0.8"/>
      </g>
     </g>
    </g>
    <g id="xtick_23">
     <g id="line2d_45">
      <path d="M 208.600578 146.747947 
L 208.600578 12.07875 
" clip-path="url(#p78eb6e97ad)" style="fill: none; stroke: #b0b0b0; stroke-width: 0.3; stroke-linecap: square"/>
     </g>
     <g id="line2d_46">
      <g>
       <use xlink:href="#m4ed2fd5dad" x="208.600578" y="146.747947" style="stroke: #000000; stroke-width: 0.8"/>
      </g>
     </g>
    </g>
    <g id="text_6">
     <text style="font: 9.6px 'DejaVu Sans', 'Bitstream Vera Sans', 'Computer Modern Sans Serif', 'Lucida Grande', 'Verdana', 'Geneva', 'Lucid', 'Arial', 'Helvetica', 'Avant Garde', sans-serif; text-anchor: middle" x="122.4846" y="174.859197" transform="rotate(-0 122.4846 174.859197)">Wavelength (nm)</text>
    </g>
   </g>
   <g id="matplotlib.axis_2">
    <g id="ytick_1">
     <g id="line2d_47">
      <path d="M 35.58575 140.073624 
L 209.383451 140.073624 
" clip-path="url(#p78eb6e97ad)" style="fill: none; stroke: #b0b0b0; stroke-width: 0.6; stroke-linecap: square"/>
     </g>
     <g id="line2d_48">
      <defs>
       <path id="m716717d4a5" d="M 0 0 
L -4.8 0 
" style="stroke: #000000"/>
      </defs>
      <g>
       <use xlink:href="#m716717d4a5" x="35.58575" y="140.073624" style="stroke: #000000"/>
      </g>
     </g>
     <g id="text_7">
      <text style="font: 8.8px 'DejaVu Sans', 'Bitstream Vera Sans', 'Computer Modern Sans Serif', 'Lucida Grande', 'Verdana', 'Geneva', 'Lucid', 'Arial', 'Helvetica', 'Avant Garde', sans-serif; text-anchor: end" x="27.28575" y="143.416936" transform="rotate(-0 27.28575 143.416936)">0.1</text>
     </g>
    </g>
    <g id="ytick_2">
     <g id="line2d_49">
      <path d="M 35.58575 118.562326 
L 209.383451 118.562326 
" clip-path="url(#p78eb6e97ad)" style="fill: none; stroke: #b0b0b0; stroke-width: 0.6; stroke-linecap: square"/>
     </g>
     <g id="line2d_50">
      <g>
       <use xlink:href="#m716717d4a5" x="35.58575" y="118.562326" style="stroke: #000000"/>
      </g>
     </g>
     <g id="text_8">
      <text style="font: 8.8px 'DejaVu Sans', 'Bitstream Vera Sans', 'Computer Modern Sans Serif', 'Lucida Grande', 'Verdana', 'Geneva', 'Lucid', 'Arial', 'Helvetica', 'Avant Garde', sans-serif; text-anchor: end" x="27.28575" y="121.905639" transform="rotate(-0 27.28575 121.905639)">0.2</text>
     </g>
    </g>
    <g id="ytick_3">
     <g id="line2d_51">
      <path d="M 35.58575 97.051029 
L 209.383451 97.051029 
" clip-path="url(#p78eb6e97ad)" style="fill: none; stroke: #b0b0b0; stroke-width: 0.6; stroke-linecap: square"/>
     </g>
     <g id="line2d_52">
      <g>
       <use xlink:href="#m716717d4a5" x="35.58575" y="97.051029" style="stroke: #000000"/>
      </g>
     </g>
     <g id="text_9">
      <text style="font: 8.8px 'DejaVu Sans', 'Bitstream Vera Sans', 'Computer Modern Sans Serif', 'Lucida Grande', 'Verdana', 'Geneva', 'Lucid', 'Arial', 'Helvetica', 'Avant Garde', sans-serif; text-anchor: end" x="27.28575" y="100.394341" transform="rotate(-0 27.28575 100.394341)">0.3</text>
     </g>
    </g>
    <g id="ytick_4">
     <g id="line2d_53">
      <path d="M 35.58575 75.539731 
L 209.383451 75.539731 
" clip-path="url(#p78eb6e97ad)" style="fill: none; stroke: #b0b0b0; stroke-width: 0.6; stroke-linecap: square"/>
     </g>
     <g id="line2d_54">
      <g>
       <use xlink:href="#m716717d4a5" x="35.58575" y="75.539731" style="stroke: #000000"/>
      </g>
     </g>
     <g id="text_10">
      <text style="font: 8.8px 'DejaVu Sans', 'Bitstream Vera Sans', 'Computer Modern Sans Serif', 'Lucida Grande', 'Verdana', 'Geneva', 'Lucid', 'Arial', 'Helvetica', 'Avant Garde', sans-serif; text-anchor: end" x="27.28575" y="78.883044" transform="rotate(-0 27.28575 78.883044)">0.4</text>
     </g>
    </g>
    <g id="ytick_5">
     <g id="line2d_55">
      <path d="M 35.58575 54.028434 
L 209.383451 54.028434 
" clip-path="url(#p78eb6e97ad)" style="fill: none; stroke: #b0b0b0; stroke-width: 0.6; stroke-linecap: square"/>
     </g>
     <g id="line2d_56">
      <g>
       <use xlink:href="#m716717d4a5" x="35.58575" y="54.028434" style="stroke: #000000"/>
      </g>
     </g>
     <g id="text_11">
      <text style="font: 8.8px 'DejaVu Sans', 'Bitstream Vera Sans', 'Computer Modern Sans Serif', 'Lucida Grande', 'Verdana', 'Geneva', 'Lucid', 'Arial', 'Helvetica', 'Avant Garde', sans-serif; text-anchor: end" x="27.28575" y="57.371746" transform="rotate(-0 27.28575 57.371746)">0.5</text>
     </g>
    </g>
    <g id="ytick_6">
     <g id="line2d_57">
      <path d="M 35.58575 32.517136 
L 209.383451 32.517136 
" clip-path="url(#p78eb6e97ad)" style="fill: none; stroke: #b0b0b0; stroke-width: 0.6; stroke-linecap: square"/>
     </g>
     <g id="line2d_58">
      <g>
       <use xlink:href="#m716717d4a5" x="35.58575" y="32.517136" style="stroke: #000000"/>
      </g>
     </g>
     <g id="text_12">
      <text style="font: 8.8px 'DejaVu Sans', 'Bitstream Vera Sans', 'Computer Modern Sans Serif', 'Lucida Grande', 'Verdana', 'Geneva', 'Lucid', 'Arial', 'Helvetica', 'Avant Garde', sans-serif; text-anchor: end" x="27.28575" y="35.860449" transform="rotate(-0 27.28575 35.860449)">0.6</text>
     </g>
    </g>
    <g id="text_13">
     <text style="font: 9.6px 'DejaVu Sans', 'Bitstream Vera Sans', 'Computer Modern Sans Serif', 'Lucida Grande', 'Verdana', 'Geneva', 'Lucid', 'Arial', 'Helvetica', 'Avant Garde', sans-serif; text-anchor: middle" x="7.2945" y="79.413348" transform="rotate(-90 7.2945 79.413348)">Reflectance</text>
    </g>
   </g>
   <g id="line2d_59">
    <path d="M 37.080325 67.097611 
L 39.977454 66.725932 
L 41.469949 66.39874 
L 42.609023 65.986064 
L 45.33409 65.384184 
L 48.155976 65.164237 
L 48.980491 65.185555 
L 50.654401 64.903314 
L 52.362042 64.406255 
L 54.545062 63.346359 
L 55.881245 62.536889 
L 58.153129 60.776077 
L 67.321956 51.244013 
L 70.402596 47.890053 
L 73.576818 45.264242 
L 74.115151 44.985919 
L 74.656177 44.952232 
L 76.295537 46.130821 
L 76.847465 45.881348 
L 77.402151 44.889309 
L 78.519859 42.250071 
L 79.648772 40.428243 
L 81.363397 38.258458 
L 83.689839 35.748784 
L 84.870581 34.607683 
L 86.06316 33.559033 
L 87.267694 32.482345 
L 92.207803 28.750518 
L 95.396979 26.839787 
L 98.006204 25.841533 
L 100.668007 24.399135 
L 108.97958 21.197894 
L 109.694927 21.101676 
L 111.13637 21.300455 
L 111.862502 21.572757 
L 112.592264 22.367719 
L 113.325675 23.742318 
L 114.062752 25.619508 
L 114.803516 27.813636 
L 115.547983 29.140431 
L 116.296172 29.051124 
L 124.77732 21.240864 
L 126.369964 20.268537 
L 127.978574 19.751148 
L 128.788917 19.558204 
L 129.603311 19.541446 
L 133.73677 20.121297 
L 134.575903 20.618815 
L 135.419232 21.527675 
L 136.266778 22.999362 
L 137.118561 25.091223 
L 138.834926 29.831933 
L 139.69955 31.103707 
L 140.568498 30.929027 
L 142.319448 28.812167 
L 144.087952 26.209616 
L 144.978841 25.595171 
L 145.874185 25.9673 
L 146.774005 27.251317 
L 149.500551 32.90672 
L 150.418504 33.782007 
L 151.341046 33.903817 
L 152.2682 33.82229 
L 153.199991 33.900928 
L 154.13644 34.290072 
L 155.077572 35.099287 
L 156.973976 37.362742 
L 157.929295 38.030634 
L 159.854288 38.524715 
L 161.798579 38.702002 
L 163.762361 38.776108 
L 164.751622 38.99094 
L 165.74583 39.434301 
L 166.745008 40.105252 
L 168.758378 41.999783 
L 170.791932 44.177874 
L 171.816341 45.433524 
L 172.845873 47.215689 
L 173.880552 50.128358 
L 174.920404 55.046727 
L 175.965455 63.020133 
L 177.015732 74.516707 
L 180.198176 115.008226 
L 181.269616 122.802882 
L 182.346414 126.323805 
L 183.428596 125.912676 
L 184.516188 122.415014 
L 185.609219 117.18788 
L 187.811702 105.260709 
L 188.92121 100.156944 
L 190.036266 96.510804 
L 191.156897 94.34222 
L 192.283131 93.167119 
L 193.414996 92.490358 
L 199.15978 89.936644 
L 201.498108 89.348846 
L 203.859878 88.851766 
L 205.049627 88.508234 
L 205.049627 88.508234 
" clip-path="url(#p78eb6e97ad)" style="fill: none; stroke: #1f77b4; stroke-width: 0.5; stroke-linecap: square"/>
   </g>
   <g id="line2d_60"/>
   <g id="line2d_61">
    <path d="M 36.368623 67.30521 
L 36.838346 67.392586 
L 37.386357 67.181862 
L 37.699506 67.238393 
L 38.012655 67.301379 
L 38.404091 67.163704 
L 38.795527 67.258527 
L 39.265251 67.023023 
L 39.656687 66.985722 
L 40.361272 66.819866 
L 40.98757 66.844479 
L 41.300719 66.713215 
L 42.788177 66.06362 
L 43.57105 65.914329 
L 44.197348 65.801137 
L 45.293369 65.453344 
L 45.528231 65.431444 
L 46.624253 65.53689 
L 47.015689 65.255954 
L 47.798561 65.338856 
L 48.189998 65.322165 
L 48.659721 65.523168 
L 49.755743 65.352885 
L 50.147179 65.086361 
L 50.538615 65.342991 
L 51.164913 65.039936 
L 51.321488 65.010423 
L 51.791211 65.028323 
L 53.043807 64.439688 
L 53.435244 64.135517 
L 54.139829 63.807297 
L 54.452978 63.867011 
L 55.392425 63.285604 
L 55.627287 63.170734 
L 56.175297 62.696928 
L 56.566734 62.392887 
L 57.036457 62.062043 
L 57.271319 61.832517 
L 57.741042 61.434345 
L 58.445628 60.951242 
L 59.071926 59.924033 
L 59.698224 59.543757 
L 60.637671 58.608402 
L 61.107394 57.776776 
L 61.655405 57.506467 
L 61.968554 57.155831 
L 62.594852 56.420059 
L 63.064576 56.060218 
L 63.612586 55.324837 
L 65.100044 53.817797 
L 65.49148 53.3168 
L 65.80463 53.116183 
L 67.135513 51.520608 
L 67.370375 51.37205 
L 68.309822 50.039511 
L 68.622971 49.739898 
L 68.93612 49.580711 
L 70.110428 48.171679 
L 70.580152 47.369916 
L 70.893301 47.229921 
L 71.20645 47.394777 
L 71.676173 46.759419 
L 71.989322 46.937016 
L 72.850482 45.406065 
L 73.398493 44.97037 
L 73.633355 44.874302 
L 73.946504 45.153949 
L 74.33794 43.798948 
L 74.416227 43.867742 
L 74.729376 44.142917 
L 75.433962 46.056606 
L 75.981972 46.935946 
L 76.686558 48.056686 
L 77.156281 46.891024 
L 78.487164 41.934522 
L 78.956888 41.249775 
L 79.583186 40.310334 
L 80.131197 39.546808 
L 80.914069 38.830406 
L 80.992357 38.801883 
L 81.618655 37.589291 
L 82.010091 37.272166 
L 82.558102 36.88479 
L 83.027825 36.125403 
L 83.419261 35.894973 
L 83.888985 35.242055 
L 84.358708 34.765155 
L 84.906719 34.179097 
L 85.611304 34.053167 
L 85.689592 34.053252 
L 86.550751 32.561879 
L 86.942188 32.447658 
L 87.411911 32.061744 
L 87.72506 31.915684 
L 88.351358 31.337455 
L 89.369093 30.569113 
L 89.760529 30.074225 
L 90.699976 29.48611 
L 91.091412 29.120413 
L 91.247987 29.103978 
L 91.561136 29.355407 
L 92.109146 28.246156 
L 92.500583 28.108012 
L 92.813732 28.070924 
L 93.283455 27.815197 
L 93.518317 27.826813 
L 94.379477 26.723244 
L 94.770913 26.657541 
L 95.162349 26.344554 
L 95.553785 26.373557 
L 96.023509 26.144669 
L 96.414945 26.24646 
L 96.728094 26.337628 
L 97.197818 26.038795 
L 97.510967 25.905851 
L 97.902403 25.557323 
L 98.215552 25.619103 
L 98.763563 25.057622 
L 99.076712 24.865444 
L 99.468148 24.41904 
L 100.016159 24.24626 
L 101.11218 23.781013 
L 101.816766 23.643895 
L 102.286489 23.07798 
L 102.599638 23.053844 
L 102.912787 23.300626 
L 103.539085 22.748594 
L 104.243671 22.48302 
L 104.55682 22.395469 
L 105.026543 22.137331 
L 105.417979 22.074602 
L 106.514001 21.501335 
L 106.905437 21.08599 
L 107.296873 21.219749 
L 107.844884 20.755402 
L 108.23632 20.459925 
L 108.471182 20.460056 
L 108.784331 20.786169 
L 109.332342 19.920289 
L 109.567204 19.745019 
L 110.115214 20.300823 
L 110.506651 20.303105 
L 111.211236 20.167718 
L 111.994109 19.985478 
L 112.307258 19.222944 
L 112.855268 21.850671 
L 113.168417 22.431651 
L 113.481566 22.587738 
L 114.029577 24.922655 
L 115.438748 32.657824 
L 116.769631 29.750999 
L 117.317642 28.553298 
L 117.709078 27.833655 
L 118.022227 27.514468 
L 118.961674 26.669293 
L 119.431398 26.087371 
L 119.744547 26.095803 
L 120.292557 25.097715 
L 122.954324 22.448348 
L 123.580622 21.593744 
L 125.146367 20.117126 
L 125.537803 19.949982 
L 125.694378 19.793465 
L 126.085814 19.285493 
L 126.47725 19.241653 
L 126.868687 18.973192 
L 127.181836 19.231329 
L 127.651559 18.812246 
L 128.121283 18.843741 
L 128.434432 18.657836 
L 128.825868 18.211781 
L 129.295591 18.305395 
L 129.843602 18.55458 
L 130.548187 18.656895 
L 130.861336 18.72444 
L 131.487634 18.921351 
L 132.270507 18.982228 
L 132.74023 18.479722 
L 133.679678 18.547354 
L 134.071114 18.468667 
L 134.305976 18.57958 
L 134.775699 19.058502 
L 135.167135 19.249441 
L 135.480284 19.605844 
L 136.576306 21.889915 
L 139.159785 33.019771 
L 139.472934 33.83789 
L 139.786083 34.210721 
L 140.099232 34.17802 
L 140.568956 32.932437 
L 141.273541 30.395263 
L 142.604424 28.504978 
L 143.230722 26.730594 
L 143.85702 24.777975 
L 144.326744 23.560264 
L 144.639893 22.932738 
L 144.874755 22.689832 
L 145.735914 23.068343 
L 146.205638 23.758339 
L 146.597074 24.669775 
L 147.223372 26.647181 
L 149.650277 34.462191 
L 150.041713 34.99042 
L 150.276575 35.172922 
L 150.98116 34.460252 
L 151.450884 34.008299 
L 152.155469 33.166216 
L 152.312044 33.127925 
L 152.70348 33.213631 
L 153.56464 32.805902 
L 153.877789 32.949685 
L 154.269225 33.325359 
L 154.738948 33.421553 
L 154.97381 33.551396 
L 156.304694 36.66826 
L 156.930992 37.753411 
L 157.948726 38.375181 
L 158.418449 38.424739 
L 158.496737 38.44199 
L 158.888173 37.863986 
L 158.96646 37.930285 
L 159.671045 38.441772 
L 160.219056 38.134727 
L 160.767067 38.012754 
L 160.923641 38.023553 
L 161.628227 38.381971 
L 162.176237 37.790805 
L 162.880823 37.54355 
L 163.193972 37.908734 
L 163.663695 37.358166 
L 164.211706 37.287843 
L 164.368281 37.265968 
L 164.68143 37.265068 
L 164.838004 37.352406 
L 166.325462 37.816419 
L 166.560324 38.174502 
L 166.795185 38.022567 
L 167.264909 38.539644 
L 167.343196 38.566647 
L 167.499771 38.843415 
L 167.969494 39.180041 
L 168.204356 39.573565 
L 168.439218 39.482712 
L 168.674079 39.949488 
L 168.830654 39.904002 
L 168.987228 40.389903 
L 169.143803 40.767488 
L 169.300377 40.038209 
L 169.378665 40.112441 
L 169.691814 41.012296 
L 169.926675 41.118248 
L 170.161537 41.118725 
L 170.787835 41.56517 
L 170.866123 41.546103 
L 171.022697 41.401015 
L 171.179272 41.577765 
L 171.335846 41.3878 
L 171.570708 41.842041 
L 171.648995 41.795492 
L 171.727282 41.654126 
L 171.80557 41.735668 
L 171.962144 41.826917 
L 172.118719 41.68218 
L 172.35358 41.823249 
L 172.510155 41.880507 
L 172.979878 42.278823 
L 173.527889 42.975602 
L 174.310762 44.632479 
L 174.545623 45.487267 
L 175.171921 48.549478 
L 175.48507 51.165679 
L 176.033081 55.580939 
L 176.502805 61.976017 
L 178.694848 100.658705 
L 179.947444 125.94326 
L 180.495455 131.795153 
L 181.043465 135.745203 
L 181.669763 139.12443 
L 182.139487 140.501597 
L 182.374349 140.62662 
L 182.765785 140.337689 
L 183.000647 139.944057 
L 183.235508 139.287025 
L 183.626945 137.298851 
L 184.488104 131.628052 
L 186.05385 119.756086 
L 188.793903 99.492729 
L 189.576776 95.890858 
L 190.359648 93.764541 
L 190.829372 93.145939 
L 191.612244 92.546404 
L 192.786553 92.322408 
L 193.099702 92.251099 
L 193.412851 92.260758 
L 193.726 92.266473 
L 194.900309 92.008741 
L 195.44832 91.77179 
L 197.014065 91.089265 
L 197.562076 90.700363 
L 197.953512 90.538785 
L 198.266661 90.312976 
L 198.501523 90.29737 
L 198.892959 90.04071 
L 199.754119 89.757125 
L 200.771853 89.569601 
L 201.085002 89.504067 
L 201.633013 89.550888 
L 202.024449 89.469598 
L 202.415885 89.462654 
L 203.042183 89.318358 
L 203.355332 89.204108 
L 203.746769 89.217557 
L 206.956546 87.883704 
L 208.522291 86.818502 
L 208.522291 86.818502 
" clip-path="url(#p78eb6e97ad)" style="fill: none; stroke: #1f77b4; stroke-opacity: 0.5; stroke-width: 0.5; stroke-linecap: square"/>
   </g>
   <g id="patch_3">
    <path d="M 35.58575 146.747947 
L 35.58575 12.07875 
" style="fill: none; stroke: #000000; stroke-linejoin: miter; stroke-linecap: square"/>
   </g>
   <g id="patch_4">
    <path d="M 209.383451 146.747947 
L 209.383451 12.07875 
" style="fill: none; stroke: #000000; stroke-linejoin: miter; stroke-linecap: square"/>
   </g>
   <g id="patch_5">
    <path d="M 35.58575 146.747947 
L 209.383451 146.747947 
" style="fill: none; stroke: #000000; stroke-linejoin: miter; stroke-linecap: square"/>
   </g>
   <g id="patch_6">
    <path d="M 35.58575 12.07875 
L 209.383451 12.07875 
" style="fill: none; stroke: #000000; stroke-linejoin: miter; stroke-linecap: square"/>
   </g>
   <g id="text_14">
    <text style="font: 8px 'DejaVu Sans', 'Bitstream Vera Sans', 'Computer Modern Sans Serif', 'Lucida Grande', 'Verdana', 'Geneva', 'Lucid', 'Arial', 'Helvetica', 'Avant Garde', sans-serif; text-anchor: middle" x="122.4846" y="6.07875" transform="rotate(-0 122.4846 6.07875)">enfys Phyllosilicate Illite</text>
   </g>
   <g id="legend_1">
    <g id="patch_7">
     <path d="M 217.059405 84.716786 
L 271.311592 84.716786 
Q 272.511592 84.716786 272.511592 83.516786 
L 272.511592 75.309911 
Q 272.511592 74.109911 271.311592 74.109911 
L 217.059405 74.109911 
Q 215.859405 74.109911 215.859405 75.309911 
L 215.859405 83.516786 
Q 215.859405 84.716786 217.059405 84.716786 
z
" style="fill: #ffffff; opacity: 0.8; stroke: #cccccc; stroke-width: 0.8; stroke-linejoin: miter"/>
    </g>
    <g id="line2d_62">
     <path d="M 218.259405 78.968973 
L 224.259405 78.968973 
L 230.259405 78.968973 
" style="fill: none; stroke: #1f77b4; stroke-width: 1.2; stroke-linecap: square"/>
    </g>
    <g id="text_15">
     <text style="font: 6px 'DejaVu Sans', 'Bitstream Vera Sans', 'Computer Modern Sans Serif', 'Lucida Grande', 'Verdana', 'Geneva', 'Lucid', 'Arial', 'Helvetica', 'Avant Garde', sans-serif; text-anchor: start" x="235.059405" y="81.068973" transform="rotate(-0 235.059405 81.068973)">Illite LAIL02</text>
    </g>
   </g>
  </g>
 </g>
 <defs>
  <clipPath id="p78eb6e97ad">
   <rect x="35.58575" y="12.07875" width="173.797701" height="134.669197"/>
  </clipPath>
 </defs>
</svg>
